%TF.GenerationSoftware,KiCad,Pcbnew,7.0.9*%
%TF.CreationDate,2023-12-14T21:01:46-07:00*%
%TF.ProjectId,mini_motor_go_V1_rev3,6d696e69-5f6d-46f7-946f-725f676f5f56,rev?*%
%TF.SameCoordinates,Original*%
%TF.FileFunction,Copper,L1,Top*%
%TF.FilePolarity,Positive*%
%FSLAX46Y46*%
G04 Gerber Fmt 4.6, Leading zero omitted, Abs format (unit mm)*
G04 Created by KiCad (PCBNEW 7.0.9) date 2023-12-14 21:01:46*
%MOMM*%
%LPD*%
G01*
G04 APERTURE LIST*
G04 Aperture macros list*
%AMRoundRect*
0 Rectangle with rounded corners*
0 $1 Rounding radius*
0 $2 $3 $4 $5 $6 $7 $8 $9 X,Y pos of 4 corners*
0 Add a 4 corners polygon primitive as box body*
4,1,4,$2,$3,$4,$5,$6,$7,$8,$9,$2,$3,0*
0 Add four circle primitives for the rounded corners*
1,1,$1+$1,$2,$3*
1,1,$1+$1,$4,$5*
1,1,$1+$1,$6,$7*
1,1,$1+$1,$8,$9*
0 Add four rect primitives between the rounded corners*
20,1,$1+$1,$2,$3,$4,$5,0*
20,1,$1+$1,$4,$5,$6,$7,0*
20,1,$1+$1,$6,$7,$8,$9,0*
20,1,$1+$1,$8,$9,$2,$3,0*%
%AMRotRect*
0 Rectangle, with rotation*
0 The origin of the aperture is its center*
0 $1 length*
0 $2 width*
0 $3 Rotation angle, in degrees counterclockwise*
0 Add horizontal line*
21,1,$1,$2,0,0,$3*%
%AMFreePoly0*
4,1,14,0.289644,0.110355,0.410355,-0.010356,0.425000,-0.045711,0.425000,-0.075000,0.410355,-0.110355,0.375000,-0.125000,-0.375000,-0.125000,-0.410355,-0.110355,-0.425000,-0.075000,-0.425000,0.075000,-0.410355,0.110355,-0.375000,0.125000,0.254289,0.125000,0.289644,0.110355,0.289644,0.110355,$1*%
%AMFreePoly1*
4,1,14,0.410355,0.110355,0.425000,0.075000,0.425000,0.045711,0.410355,0.010356,0.289644,-0.110355,0.254289,-0.125000,-0.375000,-0.125000,-0.410355,-0.110355,-0.425000,-0.075000,-0.425000,0.075000,-0.410355,0.110355,-0.375000,0.125000,0.375000,0.125000,0.410355,0.110355,0.410355,0.110355,$1*%
%AMFreePoly2*
4,1,14,0.110355,0.410355,0.125000,0.375000,0.125000,-0.375000,0.110355,-0.410355,0.075000,-0.425000,-0.075000,-0.425000,-0.110355,-0.410355,-0.125000,-0.375000,-0.125000,0.254289,-0.110355,0.289644,0.010356,0.410355,0.045711,0.425000,0.075000,0.425000,0.110355,0.410355,0.110355,0.410355,$1*%
%AMFreePoly3*
4,1,14,-0.010356,0.410355,0.110355,0.289644,0.125000,0.254289,0.125000,-0.375000,0.110355,-0.410355,0.075000,-0.425000,-0.075000,-0.425000,-0.110355,-0.410355,-0.125000,-0.375000,-0.125000,0.375000,-0.110355,0.410355,-0.075000,0.425000,-0.045711,0.425000,-0.010356,0.410355,-0.010356,0.410355,$1*%
%AMFreePoly4*
4,1,14,0.410355,0.110355,0.425000,0.075000,0.425000,-0.075000,0.410355,-0.110355,0.375000,-0.125000,-0.254289,-0.125000,-0.289644,-0.110355,-0.410355,0.010356,-0.425000,0.045711,-0.425000,0.075000,-0.410355,0.110355,-0.375000,0.125000,0.375000,0.125000,0.410355,0.110355,0.410355,0.110355,$1*%
%AMFreePoly5*
4,1,14,0.410355,0.110355,0.425000,0.075000,0.425000,-0.075000,0.410355,-0.110355,0.375000,-0.125000,-0.375000,-0.125000,-0.410355,-0.110355,-0.425000,-0.075000,-0.425000,-0.045711,-0.410355,-0.010356,-0.289644,0.110355,-0.254289,0.125000,0.375000,0.125000,0.410355,0.110355,0.410355,0.110355,$1*%
%AMFreePoly6*
4,1,14,0.110355,0.410355,0.125000,0.375000,0.125000,-0.254289,0.110355,-0.289644,-0.010356,-0.410355,-0.045711,-0.425000,-0.075000,-0.425000,-0.110355,-0.410355,-0.125000,-0.375000,-0.125000,0.375000,-0.110355,0.410355,-0.075000,0.425000,0.075000,0.425000,0.110355,0.410355,0.110355,0.410355,$1*%
%AMFreePoly7*
4,1,14,0.110355,0.410355,0.125000,0.375000,0.125000,-0.375000,0.110355,-0.410355,0.075000,-0.425000,0.045711,-0.425000,0.010356,-0.410355,-0.110355,-0.289644,-0.125000,-0.254289,-0.125000,0.375000,-0.110355,0.410355,-0.075000,0.425000,0.075000,0.425000,0.110355,0.410355,0.110355,0.410355,$1*%
%AMFreePoly8*
4,1,9,3.862500,-0.866500,0.737500,-0.866500,0.737500,-0.450000,-0.737500,-0.450000,-0.737500,0.450000,0.737500,0.450000,0.737500,0.866500,3.862500,0.866500,3.862500,-0.866500,3.862500,-0.866500,$1*%
G04 Aperture macros list end*
%ADD10C,0.400000*%
%TA.AperFunction,NonConductor*%
%ADD11C,0.400000*%
%TD*%
%TA.AperFunction,EtchedComponent*%
%ADD12C,0.010000*%
%TD*%
%TA.AperFunction,SMDPad,CuDef*%
%ADD13RoundRect,0.155000X0.040659X0.259862X-0.259862X-0.040659X-0.040659X-0.259862X0.259862X0.040659X0*%
%TD*%
%TA.AperFunction,SMDPad,CuDef*%
%ADD14RoundRect,0.160000X0.160000X-0.197500X0.160000X0.197500X-0.160000X0.197500X-0.160000X-0.197500X0*%
%TD*%
%TA.AperFunction,SMDPad,CuDef*%
%ADD15RotRect,1.000000X1.500000X45.000000*%
%TD*%
%TA.AperFunction,SMDPad,CuDef*%
%ADD16RoundRect,0.250000X0.250000X0.475000X-0.250000X0.475000X-0.250000X-0.475000X0.250000X-0.475000X0*%
%TD*%
%TA.AperFunction,SMDPad,CuDef*%
%ADD17RoundRect,0.030000X0.120000X-0.695000X0.120000X0.695000X-0.120000X0.695000X-0.120000X-0.695000X0*%
%TD*%
%TA.AperFunction,SMDPad,CuDef*%
%ADD18FreePoly0,90.000000*%
%TD*%
%TA.AperFunction,SMDPad,CuDef*%
%ADD19RoundRect,0.062500X0.062500X-0.362500X0.062500X0.362500X-0.062500X0.362500X-0.062500X-0.362500X0*%
%TD*%
%TA.AperFunction,SMDPad,CuDef*%
%ADD20FreePoly1,90.000000*%
%TD*%
%TA.AperFunction,SMDPad,CuDef*%
%ADD21FreePoly2,90.000000*%
%TD*%
%TA.AperFunction,SMDPad,CuDef*%
%ADD22RoundRect,0.062500X0.362500X-0.062500X0.362500X0.062500X-0.362500X0.062500X-0.362500X-0.062500X0*%
%TD*%
%TA.AperFunction,SMDPad,CuDef*%
%ADD23FreePoly3,90.000000*%
%TD*%
%TA.AperFunction,SMDPad,CuDef*%
%ADD24FreePoly4,90.000000*%
%TD*%
%TA.AperFunction,SMDPad,CuDef*%
%ADD25RoundRect,0.062500X0.062500X-0.350000X0.062500X0.350000X-0.062500X0.350000X-0.062500X-0.350000X0*%
%TD*%
%TA.AperFunction,SMDPad,CuDef*%
%ADD26FreePoly5,90.000000*%
%TD*%
%TA.AperFunction,SMDPad,CuDef*%
%ADD27FreePoly6,90.000000*%
%TD*%
%TA.AperFunction,SMDPad,CuDef*%
%ADD28FreePoly7,90.000000*%
%TD*%
%TA.AperFunction,ComponentPad*%
%ADD29C,0.600000*%
%TD*%
%TA.AperFunction,SMDPad,CuDef*%
%ADD30R,1.700000X1.700000*%
%TD*%
%TA.AperFunction,SMDPad,CuDef*%
%ADD31RoundRect,0.250000X-0.250000X-0.475000X0.250000X-0.475000X0.250000X0.475000X-0.250000X0.475000X0*%
%TD*%
%TA.AperFunction,SMDPad,CuDef*%
%ADD32RoundRect,0.243750X0.150260X-0.494975X0.494975X-0.150260X-0.150260X0.494975X-0.494975X0.150260X0*%
%TD*%
%TA.AperFunction,SMDPad,CuDef*%
%ADD33RoundRect,0.160000X-0.252791X0.026517X0.026517X-0.252791X0.252791X-0.026517X-0.026517X0.252791X0*%
%TD*%
%TA.AperFunction,SMDPad,CuDef*%
%ADD34RoundRect,0.160000X0.197500X0.160000X-0.197500X0.160000X-0.197500X-0.160000X0.197500X-0.160000X0*%
%TD*%
%TA.AperFunction,SMDPad,CuDef*%
%ADD35RoundRect,0.160000X-0.197500X-0.160000X0.197500X-0.160000X0.197500X0.160000X-0.197500X0.160000X0*%
%TD*%
%TA.AperFunction,SMDPad,CuDef*%
%ADD36RoundRect,0.155000X-0.212500X-0.155000X0.212500X-0.155000X0.212500X0.155000X-0.212500X0.155000X0*%
%TD*%
%TA.AperFunction,SMDPad,CuDef*%
%ADD37R,4.200000X1.400000*%
%TD*%
%TA.AperFunction,SMDPad,CuDef*%
%ADD38RoundRect,0.250000X0.262500X0.450000X-0.262500X0.450000X-0.262500X-0.450000X0.262500X-0.450000X0*%
%TD*%
%TA.AperFunction,SMDPad,CuDef*%
%ADD39R,0.600000X1.550000*%
%TD*%
%TA.AperFunction,SMDPad,CuDef*%
%ADD40R,1.200000X1.800000*%
%TD*%
%TA.AperFunction,SMDPad,CuDef*%
%ADD41RoundRect,0.160000X-0.160000X0.197500X-0.160000X-0.197500X0.160000X-0.197500X0.160000X0.197500X0*%
%TD*%
%TA.AperFunction,SMDPad,CuDef*%
%ADD42R,0.599440X1.348740*%
%TD*%
%TA.AperFunction,SMDPad,CuDef*%
%ADD43R,1.198880X1.998980*%
%TD*%
%TA.AperFunction,SMDPad,CuDef*%
%ADD44R,0.700000X1.000000*%
%TD*%
%TA.AperFunction,SMDPad,CuDef*%
%ADD45RoundRect,0.155000X0.212500X0.155000X-0.212500X0.155000X-0.212500X-0.155000X0.212500X-0.155000X0*%
%TD*%
%TA.AperFunction,SMDPad,CuDef*%
%ADD46R,1.500000X0.900000*%
%TD*%
%TA.AperFunction,SMDPad,CuDef*%
%ADD47R,0.900000X1.500000*%
%TD*%
%TA.AperFunction,SMDPad,CuDef*%
%ADD48R,0.900000X0.900000*%
%TD*%
%TA.AperFunction,SMDPad,CuDef*%
%ADD49RoundRect,0.237500X0.380070X-0.044194X-0.044194X0.380070X-0.380070X0.044194X0.044194X-0.380070X0*%
%TD*%
%TA.AperFunction,ComponentPad*%
%ADD50C,1.879600*%
%TD*%
%TA.AperFunction,SMDPad,CuDef*%
%ADD51R,1.560000X0.650000*%
%TD*%
%TA.AperFunction,SMDPad,CuDef*%
%ADD52R,0.600000X1.100000*%
%TD*%
%TA.AperFunction,SMDPad,CuDef*%
%ADD53R,0.300000X1.100000*%
%TD*%
%TA.AperFunction,ComponentPad*%
%ADD54O,0.800000X1.600000*%
%TD*%
%TA.AperFunction,SMDPad,CuDef*%
%ADD55RoundRect,0.250001X1.999999X0.799999X-1.999999X0.799999X-1.999999X-0.799999X1.999999X-0.799999X0*%
%TD*%
%TA.AperFunction,ComponentPad*%
%ADD56R,1.980000X3.960000*%
%TD*%
%TA.AperFunction,ComponentPad*%
%ADD57O,1.980000X3.960000*%
%TD*%
%TA.AperFunction,SMDPad,CuDef*%
%ADD58R,0.900000X1.300000*%
%TD*%
%TA.AperFunction,SMDPad,CuDef*%
%ADD59FreePoly8,90.000000*%
%TD*%
%TA.AperFunction,SMDPad,CuDef*%
%ADD60RoundRect,0.250000X-0.475000X0.250000X-0.475000X-0.250000X0.475000X-0.250000X0.475000X0.250000X0*%
%TD*%
%TA.AperFunction,ViaPad*%
%ADD61C,0.600000*%
%TD*%
%TA.AperFunction,ViaPad*%
%ADD62C,0.800000*%
%TD*%
%TA.AperFunction,Conductor*%
%ADD63C,0.500000*%
%TD*%
%TA.AperFunction,Conductor*%
%ADD64C,1.000000*%
%TD*%
%TA.AperFunction,Conductor*%
%ADD65C,0.300000*%
%TD*%
%TA.AperFunction,Conductor*%
%ADD66C,0.250000*%
%TD*%
%TA.AperFunction,Conductor*%
%ADD67C,0.200000*%
%TD*%
%TA.AperFunction,Conductor*%
%ADD68C,0.152000*%
%TD*%
G04 APERTURE END LIST*
D10*
D11*
X164852228Y-92156014D02*
X164995085Y-91870299D01*
X164995085Y-91870299D02*
X165137942Y-91727442D01*
X165137942Y-91727442D02*
X165423657Y-91584585D01*
X165423657Y-91584585D02*
X165566514Y-91584585D01*
X165566514Y-91584585D02*
X165852228Y-91727442D01*
X165852228Y-91727442D02*
X165995085Y-91870299D01*
X165995085Y-91870299D02*
X166137942Y-92156014D01*
X166137942Y-92156014D02*
X166137942Y-92727442D01*
X166137942Y-92727442D02*
X165995085Y-93013157D01*
X165995085Y-93013157D02*
X165852228Y-93156014D01*
X165852228Y-93156014D02*
X165566514Y-93298871D01*
X165566514Y-93298871D02*
X165423657Y-93298871D01*
X165423657Y-93298871D02*
X165137942Y-93156014D01*
X165137942Y-93156014D02*
X164995085Y-93013157D01*
X164995085Y-93013157D02*
X164852228Y-92727442D01*
X164852228Y-92727442D02*
X164852228Y-92156014D01*
X164852228Y-92156014D02*
X164709371Y-91870299D01*
X164709371Y-91870299D02*
X164566514Y-91727442D01*
X164566514Y-91727442D02*
X164280800Y-91584585D01*
X164280800Y-91584585D02*
X163709371Y-91584585D01*
X163709371Y-91584585D02*
X163423657Y-91727442D01*
X163423657Y-91727442D02*
X163280800Y-91870299D01*
X163280800Y-91870299D02*
X163137942Y-92156014D01*
X163137942Y-92156014D02*
X163137942Y-92727442D01*
X163137942Y-92727442D02*
X163280800Y-93013157D01*
X163280800Y-93013157D02*
X163423657Y-93156014D01*
X163423657Y-93156014D02*
X163709371Y-93298871D01*
X163709371Y-93298871D02*
X164280800Y-93298871D01*
X164280800Y-93298871D02*
X164566514Y-93156014D01*
X164566514Y-93156014D02*
X164709371Y-93013157D01*
X164709371Y-93013157D02*
X164852228Y-92727442D01*
X161995085Y-94298871D02*
X162137942Y-94441728D01*
X162137942Y-94441728D02*
X162566514Y-94727442D01*
X162566514Y-94727442D02*
X162852228Y-94870300D01*
X162852228Y-94870300D02*
X163280800Y-95013157D01*
X163280800Y-95013157D02*
X163995085Y-95156014D01*
X163995085Y-95156014D02*
X164566514Y-95156014D01*
X164566514Y-95156014D02*
X165280800Y-95013157D01*
X165280800Y-95013157D02*
X165709371Y-94870300D01*
X165709371Y-94870300D02*
X165995085Y-94727442D01*
X165995085Y-94727442D02*
X166423657Y-94441728D01*
X166423657Y-94441728D02*
X166566514Y-94298871D01*
D10*
D11*
X131214808Y-78832496D02*
X131416839Y-78832496D01*
X131416839Y-78832496D02*
X131416839Y-79034526D01*
X131416839Y-79034526D02*
X131214808Y-79034526D01*
X131214808Y-79034526D02*
X131214808Y-78832496D01*
X131214808Y-78832496D02*
X131416839Y-79034526D01*
X130103641Y-77721328D02*
X130305671Y-77721328D01*
X130305671Y-77721328D02*
X130305671Y-77923358D01*
X130305671Y-77923358D02*
X130103641Y-77923358D01*
X130103641Y-77923358D02*
X130103641Y-77721328D01*
X130103641Y-77721328D02*
X130305671Y-77923358D01*
X133033083Y-79034526D02*
X133033083Y-78832496D01*
X133033083Y-78832496D02*
X132932067Y-78327420D01*
X132932067Y-78327420D02*
X132831052Y-78024374D01*
X132831052Y-78024374D02*
X132629022Y-77620313D01*
X132629022Y-77620313D02*
X132224961Y-77014221D01*
X132224961Y-77014221D02*
X131820900Y-76610160D01*
X131820900Y-76610160D02*
X131214808Y-76206099D01*
X131214808Y-76206099D02*
X130810747Y-76004069D01*
X130810747Y-76004069D02*
X130507701Y-75903054D01*
X130507701Y-75903054D02*
X130002625Y-75802038D01*
X130002625Y-75802038D02*
X129800594Y-75802038D01*
D10*
D11*
X137013658Y-56547442D02*
X136870801Y-56690299D01*
X136870801Y-56690299D02*
X136727943Y-56547442D01*
X136727943Y-56547442D02*
X136870801Y-56404585D01*
X136870801Y-56404585D02*
X137013658Y-56547442D01*
X137013658Y-56547442D02*
X136727943Y-56547442D01*
X138585086Y-56547442D02*
X138442229Y-56690299D01*
X138442229Y-56690299D02*
X138299372Y-56547442D01*
X138299372Y-56547442D02*
X138442229Y-56404585D01*
X138442229Y-56404585D02*
X138585086Y-56547442D01*
X138585086Y-56547442D02*
X138299372Y-56547442D01*
X136727943Y-57976013D02*
X139727943Y-57976013D01*
X139727943Y-57976013D02*
X139727943Y-58690299D01*
X139727943Y-58690299D02*
X139585086Y-59118870D01*
X139585086Y-59118870D02*
X139299372Y-59404585D01*
X139299372Y-59404585D02*
X139013658Y-59547442D01*
X139013658Y-59547442D02*
X138442229Y-59690299D01*
X138442229Y-59690299D02*
X138013658Y-59690299D01*
X138013658Y-59690299D02*
X137442229Y-59547442D01*
X137442229Y-59547442D02*
X137156515Y-59404585D01*
X137156515Y-59404585D02*
X136870801Y-59118870D01*
X136870801Y-59118870D02*
X136727943Y-58690299D01*
X136727943Y-58690299D02*
X136727943Y-57976013D01*
%TA.AperFunction,EtchedComponent*%
%TO.C,JP1*%
G36*
X151414797Y-82551748D02*
G01*
X151061243Y-82905302D01*
X150636979Y-82481038D01*
X150990533Y-82127484D01*
X151414797Y-82551748D01*
G37*
%TD.AperFunction*%
%TA.AperFunction,EtchedComponent*%
%TO.C,JP3*%
G36*
X147600312Y-78514842D02*
G01*
X147246758Y-78868396D01*
X146822494Y-78444132D01*
X147176048Y-78090578D01*
X147600312Y-78514842D01*
G37*
%TD.AperFunction*%
%TO.C,J11*%
D12*
X160074683Y-89553885D02*
X160100683Y-89555885D01*
X160126683Y-89558885D01*
X160152683Y-89563885D01*
X160177683Y-89569885D01*
X160203683Y-89576885D01*
X160227683Y-89585885D01*
X160251683Y-89595885D01*
X160275683Y-89606885D01*
X160298683Y-89619885D01*
X160320683Y-89633885D01*
X160342683Y-89647885D01*
X160363683Y-89663885D01*
X160383683Y-89680885D01*
X160402683Y-89698885D01*
X160420683Y-89717885D01*
X160437683Y-89737885D01*
X160453683Y-89758885D01*
X160467683Y-89780885D01*
X160481683Y-89802885D01*
X160494683Y-89825885D01*
X160505683Y-89849885D01*
X160515683Y-89873885D01*
X160524683Y-89897885D01*
X160531683Y-89923885D01*
X160537683Y-89948885D01*
X160542683Y-89974885D01*
X160545683Y-90000885D01*
X160547683Y-90026885D01*
X160548683Y-90052885D01*
X160548683Y-90852885D01*
X160547683Y-90878885D01*
X160545683Y-90904885D01*
X160542683Y-90930885D01*
X160537683Y-90956885D01*
X160531683Y-90981885D01*
X160524683Y-91007885D01*
X160515683Y-91031885D01*
X160505683Y-91055885D01*
X160494683Y-91079885D01*
X160481683Y-91102885D01*
X160467683Y-91124885D01*
X160453683Y-91146885D01*
X160437683Y-91167885D01*
X160420683Y-91187885D01*
X160402683Y-91206885D01*
X160383683Y-91224885D01*
X160363683Y-91241885D01*
X160342683Y-91257885D01*
X160320683Y-91271885D01*
X160298683Y-91285885D01*
X160275683Y-91298885D01*
X160251683Y-91309885D01*
X160227683Y-91319885D01*
X160203683Y-91328885D01*
X160177683Y-91335885D01*
X160152683Y-91341885D01*
X160126683Y-91346885D01*
X160100683Y-91349885D01*
X160074683Y-91351885D01*
X160048683Y-91352885D01*
X160022683Y-91351885D01*
X159996683Y-91349885D01*
X159970683Y-91346885D01*
X159944683Y-91341885D01*
X159919683Y-91335885D01*
X159893683Y-91328885D01*
X159869683Y-91319885D01*
X159845683Y-91309885D01*
X159821683Y-91298885D01*
X159798683Y-91285885D01*
X159776683Y-91271885D01*
X159754683Y-91257885D01*
X159733683Y-91241885D01*
X159713683Y-91224885D01*
X159694683Y-91206885D01*
X159676683Y-91187885D01*
X159659683Y-91167885D01*
X159643683Y-91146885D01*
X159629683Y-91124885D01*
X159615683Y-91102885D01*
X159602683Y-91079885D01*
X159591683Y-91055885D01*
X159581683Y-91031885D01*
X159572683Y-91007885D01*
X159565683Y-90981885D01*
X159559683Y-90956885D01*
X159554683Y-90930885D01*
X159551683Y-90904885D01*
X159549683Y-90878885D01*
X159548683Y-90852885D01*
X159548683Y-90052885D01*
X159549683Y-90026885D01*
X159551683Y-90000885D01*
X159554683Y-89974885D01*
X159559683Y-89948885D01*
X159565683Y-89923885D01*
X159572683Y-89897885D01*
X159581683Y-89873885D01*
X159591683Y-89849885D01*
X159602683Y-89825885D01*
X159615683Y-89802885D01*
X159629683Y-89780885D01*
X159643683Y-89758885D01*
X159659683Y-89737885D01*
X159676683Y-89717885D01*
X159694683Y-89698885D01*
X159713683Y-89680885D01*
X159733683Y-89663885D01*
X159754683Y-89647885D01*
X159776683Y-89633885D01*
X159798683Y-89619885D01*
X159821683Y-89606885D01*
X159845683Y-89595885D01*
X159869683Y-89585885D01*
X159893683Y-89576885D01*
X159919683Y-89569885D01*
X159944683Y-89563885D01*
X159970683Y-89558885D01*
X159996683Y-89555885D01*
X160022683Y-89553885D01*
X160048683Y-89552885D01*
X160074683Y-89553885D01*
%TA.AperFunction,EtchedComponent*%
G36*
X160074683Y-89553885D02*
G01*
X160100683Y-89555885D01*
X160126683Y-89558885D01*
X160152683Y-89563885D01*
X160177683Y-89569885D01*
X160203683Y-89576885D01*
X160227683Y-89585885D01*
X160251683Y-89595885D01*
X160275683Y-89606885D01*
X160298683Y-89619885D01*
X160320683Y-89633885D01*
X160342683Y-89647885D01*
X160363683Y-89663885D01*
X160383683Y-89680885D01*
X160402683Y-89698885D01*
X160420683Y-89717885D01*
X160437683Y-89737885D01*
X160453683Y-89758885D01*
X160467683Y-89780885D01*
X160481683Y-89802885D01*
X160494683Y-89825885D01*
X160505683Y-89849885D01*
X160515683Y-89873885D01*
X160524683Y-89897885D01*
X160531683Y-89923885D01*
X160537683Y-89948885D01*
X160542683Y-89974885D01*
X160545683Y-90000885D01*
X160547683Y-90026885D01*
X160548683Y-90052885D01*
X160548683Y-90852885D01*
X160547683Y-90878885D01*
X160545683Y-90904885D01*
X160542683Y-90930885D01*
X160537683Y-90956885D01*
X160531683Y-90981885D01*
X160524683Y-91007885D01*
X160515683Y-91031885D01*
X160505683Y-91055885D01*
X160494683Y-91079885D01*
X160481683Y-91102885D01*
X160467683Y-91124885D01*
X160453683Y-91146885D01*
X160437683Y-91167885D01*
X160420683Y-91187885D01*
X160402683Y-91206885D01*
X160383683Y-91224885D01*
X160363683Y-91241885D01*
X160342683Y-91257885D01*
X160320683Y-91271885D01*
X160298683Y-91285885D01*
X160275683Y-91298885D01*
X160251683Y-91309885D01*
X160227683Y-91319885D01*
X160203683Y-91328885D01*
X160177683Y-91335885D01*
X160152683Y-91341885D01*
X160126683Y-91346885D01*
X160100683Y-91349885D01*
X160074683Y-91351885D01*
X160048683Y-91352885D01*
X160022683Y-91351885D01*
X159996683Y-91349885D01*
X159970683Y-91346885D01*
X159944683Y-91341885D01*
X159919683Y-91335885D01*
X159893683Y-91328885D01*
X159869683Y-91319885D01*
X159845683Y-91309885D01*
X159821683Y-91298885D01*
X159798683Y-91285885D01*
X159776683Y-91271885D01*
X159754683Y-91257885D01*
X159733683Y-91241885D01*
X159713683Y-91224885D01*
X159694683Y-91206885D01*
X159676683Y-91187885D01*
X159659683Y-91167885D01*
X159643683Y-91146885D01*
X159629683Y-91124885D01*
X159615683Y-91102885D01*
X159602683Y-91079885D01*
X159591683Y-91055885D01*
X159581683Y-91031885D01*
X159572683Y-91007885D01*
X159565683Y-90981885D01*
X159559683Y-90956885D01*
X159554683Y-90930885D01*
X159551683Y-90904885D01*
X159549683Y-90878885D01*
X159548683Y-90852885D01*
X159548683Y-90052885D01*
X159549683Y-90026885D01*
X159551683Y-90000885D01*
X159554683Y-89974885D01*
X159559683Y-89948885D01*
X159565683Y-89923885D01*
X159572683Y-89897885D01*
X159581683Y-89873885D01*
X159591683Y-89849885D01*
X159602683Y-89825885D01*
X159615683Y-89802885D01*
X159629683Y-89780885D01*
X159643683Y-89758885D01*
X159659683Y-89737885D01*
X159676683Y-89717885D01*
X159694683Y-89698885D01*
X159713683Y-89680885D01*
X159733683Y-89663885D01*
X159754683Y-89647885D01*
X159776683Y-89633885D01*
X159798683Y-89619885D01*
X159821683Y-89606885D01*
X159845683Y-89595885D01*
X159869683Y-89585885D01*
X159893683Y-89576885D01*
X159919683Y-89569885D01*
X159944683Y-89563885D01*
X159970683Y-89558885D01*
X159996683Y-89555885D01*
X160022683Y-89553885D01*
X160048683Y-89552885D01*
X160074683Y-89553885D01*
G37*
%TD.AperFunction*%
X160079600Y-93601700D02*
X160105600Y-93603700D01*
X160131600Y-93606700D01*
X160157600Y-93611700D01*
X160182600Y-93617700D01*
X160208600Y-93624700D01*
X160232600Y-93633700D01*
X160256600Y-93643700D01*
X160280600Y-93654700D01*
X160303600Y-93667700D01*
X160325600Y-93681700D01*
X160347600Y-93695700D01*
X160368600Y-93711700D01*
X160388600Y-93728700D01*
X160407600Y-93746700D01*
X160425600Y-93765700D01*
X160442600Y-93785700D01*
X160458600Y-93806700D01*
X160472600Y-93828700D01*
X160486600Y-93850700D01*
X160499600Y-93873700D01*
X160510600Y-93897700D01*
X160520600Y-93921700D01*
X160529600Y-93945700D01*
X160536600Y-93971700D01*
X160542600Y-93996700D01*
X160547600Y-94022700D01*
X160550600Y-94048700D01*
X160552600Y-94074700D01*
X160553600Y-94100700D01*
X160553600Y-95300700D01*
X160552600Y-95326700D01*
X160550600Y-95352700D01*
X160547600Y-95378700D01*
X160542600Y-95404700D01*
X160536600Y-95429700D01*
X160529600Y-95455700D01*
X160520600Y-95479700D01*
X160510600Y-95503700D01*
X160499600Y-95527700D01*
X160486600Y-95550700D01*
X160472600Y-95572700D01*
X160458600Y-95594700D01*
X160442600Y-95615700D01*
X160425600Y-95635700D01*
X160407600Y-95654700D01*
X160388600Y-95672700D01*
X160368600Y-95689700D01*
X160347600Y-95705700D01*
X160325600Y-95719700D01*
X160303600Y-95733700D01*
X160280600Y-95746700D01*
X160256600Y-95757700D01*
X160232600Y-95767700D01*
X160208600Y-95776700D01*
X160182600Y-95783700D01*
X160157600Y-95789700D01*
X160131600Y-95794700D01*
X160105600Y-95797700D01*
X160079600Y-95799700D01*
X160053600Y-95800700D01*
X160027600Y-95799700D01*
X160001600Y-95797700D01*
X159975600Y-95794700D01*
X159949600Y-95789700D01*
X159924600Y-95783700D01*
X159898600Y-95776700D01*
X159874600Y-95767700D01*
X159850600Y-95757700D01*
X159826600Y-95746700D01*
X159803600Y-95733700D01*
X159781600Y-95719700D01*
X159759600Y-95705700D01*
X159738600Y-95689700D01*
X159718600Y-95672700D01*
X159699600Y-95654700D01*
X159681600Y-95635700D01*
X159664600Y-95615700D01*
X159648600Y-95594700D01*
X159634600Y-95572700D01*
X159620600Y-95550700D01*
X159607600Y-95527700D01*
X159596600Y-95503700D01*
X159586600Y-95479700D01*
X159577600Y-95455700D01*
X159570600Y-95429700D01*
X159564600Y-95404700D01*
X159559600Y-95378700D01*
X159556600Y-95352700D01*
X159554600Y-95326700D01*
X159553600Y-95300700D01*
X159553600Y-94100700D01*
X159554600Y-94074700D01*
X159556600Y-94048700D01*
X159559600Y-94022700D01*
X159564600Y-93996700D01*
X159570600Y-93971700D01*
X159577600Y-93945700D01*
X159586600Y-93921700D01*
X159596600Y-93897700D01*
X159607600Y-93873700D01*
X159620600Y-93850700D01*
X159634600Y-93828700D01*
X159648600Y-93806700D01*
X159664600Y-93785700D01*
X159681600Y-93765700D01*
X159699600Y-93746700D01*
X159718600Y-93728700D01*
X159738600Y-93711700D01*
X159759600Y-93695700D01*
X159781600Y-93681700D01*
X159803600Y-93667700D01*
X159826600Y-93654700D01*
X159850600Y-93643700D01*
X159874600Y-93633700D01*
X159898600Y-93624700D01*
X159924600Y-93617700D01*
X159949600Y-93611700D01*
X159975600Y-93606700D01*
X160001600Y-93603700D01*
X160027600Y-93601700D01*
X160053600Y-93600700D01*
X160079600Y-93601700D01*
%TA.AperFunction,EtchedComponent*%
G36*
X160079600Y-93601700D02*
G01*
X160105600Y-93603700D01*
X160131600Y-93606700D01*
X160157600Y-93611700D01*
X160182600Y-93617700D01*
X160208600Y-93624700D01*
X160232600Y-93633700D01*
X160256600Y-93643700D01*
X160280600Y-93654700D01*
X160303600Y-93667700D01*
X160325600Y-93681700D01*
X160347600Y-93695700D01*
X160368600Y-93711700D01*
X160388600Y-93728700D01*
X160407600Y-93746700D01*
X160425600Y-93765700D01*
X160442600Y-93785700D01*
X160458600Y-93806700D01*
X160472600Y-93828700D01*
X160486600Y-93850700D01*
X160499600Y-93873700D01*
X160510600Y-93897700D01*
X160520600Y-93921700D01*
X160529600Y-93945700D01*
X160536600Y-93971700D01*
X160542600Y-93996700D01*
X160547600Y-94022700D01*
X160550600Y-94048700D01*
X160552600Y-94074700D01*
X160553600Y-94100700D01*
X160553600Y-95300700D01*
X160552600Y-95326700D01*
X160550600Y-95352700D01*
X160547600Y-95378700D01*
X160542600Y-95404700D01*
X160536600Y-95429700D01*
X160529600Y-95455700D01*
X160520600Y-95479700D01*
X160510600Y-95503700D01*
X160499600Y-95527700D01*
X160486600Y-95550700D01*
X160472600Y-95572700D01*
X160458600Y-95594700D01*
X160442600Y-95615700D01*
X160425600Y-95635700D01*
X160407600Y-95654700D01*
X160388600Y-95672700D01*
X160368600Y-95689700D01*
X160347600Y-95705700D01*
X160325600Y-95719700D01*
X160303600Y-95733700D01*
X160280600Y-95746700D01*
X160256600Y-95757700D01*
X160232600Y-95767700D01*
X160208600Y-95776700D01*
X160182600Y-95783700D01*
X160157600Y-95789700D01*
X160131600Y-95794700D01*
X160105600Y-95797700D01*
X160079600Y-95799700D01*
X160053600Y-95800700D01*
X160027600Y-95799700D01*
X160001600Y-95797700D01*
X159975600Y-95794700D01*
X159949600Y-95789700D01*
X159924600Y-95783700D01*
X159898600Y-95776700D01*
X159874600Y-95767700D01*
X159850600Y-95757700D01*
X159826600Y-95746700D01*
X159803600Y-95733700D01*
X159781600Y-95719700D01*
X159759600Y-95705700D01*
X159738600Y-95689700D01*
X159718600Y-95672700D01*
X159699600Y-95654700D01*
X159681600Y-95635700D01*
X159664600Y-95615700D01*
X159648600Y-95594700D01*
X159634600Y-95572700D01*
X159620600Y-95550700D01*
X159607600Y-95527700D01*
X159596600Y-95503700D01*
X159586600Y-95479700D01*
X159577600Y-95455700D01*
X159570600Y-95429700D01*
X159564600Y-95404700D01*
X159559600Y-95378700D01*
X159556600Y-95352700D01*
X159554600Y-95326700D01*
X159553600Y-95300700D01*
X159553600Y-94100700D01*
X159554600Y-94074700D01*
X159556600Y-94048700D01*
X159559600Y-94022700D01*
X159564600Y-93996700D01*
X159570600Y-93971700D01*
X159577600Y-93945700D01*
X159586600Y-93921700D01*
X159596600Y-93897700D01*
X159607600Y-93873700D01*
X159620600Y-93850700D01*
X159634600Y-93828700D01*
X159648600Y-93806700D01*
X159664600Y-93785700D01*
X159681600Y-93765700D01*
X159699600Y-93746700D01*
X159718600Y-93728700D01*
X159738600Y-93711700D01*
X159759600Y-93695700D01*
X159781600Y-93681700D01*
X159803600Y-93667700D01*
X159826600Y-93654700D01*
X159850600Y-93643700D01*
X159874600Y-93633700D01*
X159898600Y-93624700D01*
X159924600Y-93617700D01*
X159949600Y-93611700D01*
X159975600Y-93606700D01*
X160001600Y-93603700D01*
X160027600Y-93601700D01*
X160053600Y-93600700D01*
X160079600Y-93601700D01*
G37*
%TD.AperFunction*%
X168729600Y-89551700D02*
X168755600Y-89553700D01*
X168781600Y-89556700D01*
X168807600Y-89561700D01*
X168832600Y-89567700D01*
X168858600Y-89574700D01*
X168882600Y-89583700D01*
X168906600Y-89593700D01*
X168930600Y-89604700D01*
X168953600Y-89617700D01*
X168975600Y-89631700D01*
X168997600Y-89645700D01*
X169018600Y-89661700D01*
X169038600Y-89678700D01*
X169057600Y-89696700D01*
X169075600Y-89715700D01*
X169092600Y-89735700D01*
X169108600Y-89756700D01*
X169122600Y-89778700D01*
X169136600Y-89800700D01*
X169149600Y-89823700D01*
X169160600Y-89847700D01*
X169170600Y-89871700D01*
X169179600Y-89895700D01*
X169186600Y-89921700D01*
X169192600Y-89946700D01*
X169197600Y-89972700D01*
X169200600Y-89998700D01*
X169202600Y-90024700D01*
X169203600Y-90050700D01*
X169203600Y-90850700D01*
X169202600Y-90876700D01*
X169200600Y-90902700D01*
X169197600Y-90928700D01*
X169192600Y-90954700D01*
X169186600Y-90979700D01*
X169179600Y-91005700D01*
X169170600Y-91029700D01*
X169160600Y-91053700D01*
X169149600Y-91077700D01*
X169136600Y-91100700D01*
X169122600Y-91122700D01*
X169108600Y-91144700D01*
X169092600Y-91165700D01*
X169075600Y-91185700D01*
X169057600Y-91204700D01*
X169038600Y-91222700D01*
X169018600Y-91239700D01*
X168997600Y-91255700D01*
X168975600Y-91269700D01*
X168953600Y-91283700D01*
X168930600Y-91296700D01*
X168906600Y-91307700D01*
X168882600Y-91317700D01*
X168858600Y-91326700D01*
X168832600Y-91333700D01*
X168807600Y-91339700D01*
X168781600Y-91344700D01*
X168755600Y-91347700D01*
X168729600Y-91349700D01*
X168703600Y-91350700D01*
X168677600Y-91349700D01*
X168651600Y-91347700D01*
X168625600Y-91344700D01*
X168599600Y-91339700D01*
X168574600Y-91333700D01*
X168548600Y-91326700D01*
X168524600Y-91317700D01*
X168500600Y-91307700D01*
X168476600Y-91296700D01*
X168453600Y-91283700D01*
X168431600Y-91269700D01*
X168409600Y-91255700D01*
X168388600Y-91239700D01*
X168368600Y-91222700D01*
X168349600Y-91204700D01*
X168331600Y-91185700D01*
X168314600Y-91165700D01*
X168298600Y-91144700D01*
X168284600Y-91122700D01*
X168270600Y-91100700D01*
X168257600Y-91077700D01*
X168246600Y-91053700D01*
X168236600Y-91029700D01*
X168227600Y-91005700D01*
X168220600Y-90979700D01*
X168214600Y-90954700D01*
X168209600Y-90928700D01*
X168206600Y-90902700D01*
X168204600Y-90876700D01*
X168203600Y-90850700D01*
X168203600Y-90050700D01*
X168204600Y-90024700D01*
X168206600Y-89998700D01*
X168209600Y-89972700D01*
X168214600Y-89946700D01*
X168220600Y-89921700D01*
X168227600Y-89895700D01*
X168236600Y-89871700D01*
X168246600Y-89847700D01*
X168257600Y-89823700D01*
X168270600Y-89800700D01*
X168284600Y-89778700D01*
X168298600Y-89756700D01*
X168314600Y-89735700D01*
X168331600Y-89715700D01*
X168349600Y-89696700D01*
X168368600Y-89678700D01*
X168388600Y-89661700D01*
X168409600Y-89645700D01*
X168431600Y-89631700D01*
X168453600Y-89617700D01*
X168476600Y-89604700D01*
X168500600Y-89593700D01*
X168524600Y-89583700D01*
X168548600Y-89574700D01*
X168574600Y-89567700D01*
X168599600Y-89561700D01*
X168625600Y-89556700D01*
X168651600Y-89553700D01*
X168677600Y-89551700D01*
X168703600Y-89550700D01*
X168729600Y-89551700D01*
%TA.AperFunction,EtchedComponent*%
G36*
X168729600Y-89551700D02*
G01*
X168755600Y-89553700D01*
X168781600Y-89556700D01*
X168807600Y-89561700D01*
X168832600Y-89567700D01*
X168858600Y-89574700D01*
X168882600Y-89583700D01*
X168906600Y-89593700D01*
X168930600Y-89604700D01*
X168953600Y-89617700D01*
X168975600Y-89631700D01*
X168997600Y-89645700D01*
X169018600Y-89661700D01*
X169038600Y-89678700D01*
X169057600Y-89696700D01*
X169075600Y-89715700D01*
X169092600Y-89735700D01*
X169108600Y-89756700D01*
X169122600Y-89778700D01*
X169136600Y-89800700D01*
X169149600Y-89823700D01*
X169160600Y-89847700D01*
X169170600Y-89871700D01*
X169179600Y-89895700D01*
X169186600Y-89921700D01*
X169192600Y-89946700D01*
X169197600Y-89972700D01*
X169200600Y-89998700D01*
X169202600Y-90024700D01*
X169203600Y-90050700D01*
X169203600Y-90850700D01*
X169202600Y-90876700D01*
X169200600Y-90902700D01*
X169197600Y-90928700D01*
X169192600Y-90954700D01*
X169186600Y-90979700D01*
X169179600Y-91005700D01*
X169170600Y-91029700D01*
X169160600Y-91053700D01*
X169149600Y-91077700D01*
X169136600Y-91100700D01*
X169122600Y-91122700D01*
X169108600Y-91144700D01*
X169092600Y-91165700D01*
X169075600Y-91185700D01*
X169057600Y-91204700D01*
X169038600Y-91222700D01*
X169018600Y-91239700D01*
X168997600Y-91255700D01*
X168975600Y-91269700D01*
X168953600Y-91283700D01*
X168930600Y-91296700D01*
X168906600Y-91307700D01*
X168882600Y-91317700D01*
X168858600Y-91326700D01*
X168832600Y-91333700D01*
X168807600Y-91339700D01*
X168781600Y-91344700D01*
X168755600Y-91347700D01*
X168729600Y-91349700D01*
X168703600Y-91350700D01*
X168677600Y-91349700D01*
X168651600Y-91347700D01*
X168625600Y-91344700D01*
X168599600Y-91339700D01*
X168574600Y-91333700D01*
X168548600Y-91326700D01*
X168524600Y-91317700D01*
X168500600Y-91307700D01*
X168476600Y-91296700D01*
X168453600Y-91283700D01*
X168431600Y-91269700D01*
X168409600Y-91255700D01*
X168388600Y-91239700D01*
X168368600Y-91222700D01*
X168349600Y-91204700D01*
X168331600Y-91185700D01*
X168314600Y-91165700D01*
X168298600Y-91144700D01*
X168284600Y-91122700D01*
X168270600Y-91100700D01*
X168257600Y-91077700D01*
X168246600Y-91053700D01*
X168236600Y-91029700D01*
X168227600Y-91005700D01*
X168220600Y-90979700D01*
X168214600Y-90954700D01*
X168209600Y-90928700D01*
X168206600Y-90902700D01*
X168204600Y-90876700D01*
X168203600Y-90850700D01*
X168203600Y-90050700D01*
X168204600Y-90024700D01*
X168206600Y-89998700D01*
X168209600Y-89972700D01*
X168214600Y-89946700D01*
X168220600Y-89921700D01*
X168227600Y-89895700D01*
X168236600Y-89871700D01*
X168246600Y-89847700D01*
X168257600Y-89823700D01*
X168270600Y-89800700D01*
X168284600Y-89778700D01*
X168298600Y-89756700D01*
X168314600Y-89735700D01*
X168331600Y-89715700D01*
X168349600Y-89696700D01*
X168368600Y-89678700D01*
X168388600Y-89661700D01*
X168409600Y-89645700D01*
X168431600Y-89631700D01*
X168453600Y-89617700D01*
X168476600Y-89604700D01*
X168500600Y-89593700D01*
X168524600Y-89583700D01*
X168548600Y-89574700D01*
X168574600Y-89567700D01*
X168599600Y-89561700D01*
X168625600Y-89556700D01*
X168651600Y-89553700D01*
X168677600Y-89551700D01*
X168703600Y-89550700D01*
X168729600Y-89551700D01*
G37*
%TD.AperFunction*%
X168729600Y-93551700D02*
X168755600Y-93553700D01*
X168781600Y-93556700D01*
X168807600Y-93561700D01*
X168832600Y-93567700D01*
X168858600Y-93574700D01*
X168882600Y-93583700D01*
X168906600Y-93593700D01*
X168930600Y-93604700D01*
X168953600Y-93617700D01*
X168975600Y-93631700D01*
X168997600Y-93645700D01*
X169018600Y-93661700D01*
X169038600Y-93678700D01*
X169057600Y-93696700D01*
X169075600Y-93715700D01*
X169092600Y-93735700D01*
X169108600Y-93756700D01*
X169122600Y-93778700D01*
X169136600Y-93800700D01*
X169149600Y-93823700D01*
X169160600Y-93847700D01*
X169170600Y-93871700D01*
X169179600Y-93895700D01*
X169186600Y-93921700D01*
X169192600Y-93946700D01*
X169197600Y-93972700D01*
X169200600Y-93998700D01*
X169202600Y-94024700D01*
X169203600Y-94050700D01*
X169203600Y-95250700D01*
X169202600Y-95276700D01*
X169200600Y-95302700D01*
X169197600Y-95328700D01*
X169192600Y-95354700D01*
X169186600Y-95379700D01*
X169179600Y-95405700D01*
X169170600Y-95429700D01*
X169160600Y-95453700D01*
X169149600Y-95477700D01*
X169136600Y-95500700D01*
X169122600Y-95522700D01*
X169108600Y-95544700D01*
X169092600Y-95565700D01*
X169075600Y-95585700D01*
X169057600Y-95604700D01*
X169038600Y-95622700D01*
X169018600Y-95639700D01*
X168997600Y-95655700D01*
X168975600Y-95669700D01*
X168953600Y-95683700D01*
X168930600Y-95696700D01*
X168906600Y-95707700D01*
X168882600Y-95717700D01*
X168858600Y-95726700D01*
X168832600Y-95733700D01*
X168807600Y-95739700D01*
X168781600Y-95744700D01*
X168755600Y-95747700D01*
X168729600Y-95749700D01*
X168703600Y-95750700D01*
X168677600Y-95749700D01*
X168651600Y-95747700D01*
X168625600Y-95744700D01*
X168599600Y-95739700D01*
X168574600Y-95733700D01*
X168548600Y-95726700D01*
X168524600Y-95717700D01*
X168500600Y-95707700D01*
X168476600Y-95696700D01*
X168453600Y-95683700D01*
X168431600Y-95669700D01*
X168409600Y-95655700D01*
X168388600Y-95639700D01*
X168368600Y-95622700D01*
X168349600Y-95604700D01*
X168331600Y-95585700D01*
X168314600Y-95565700D01*
X168298600Y-95544700D01*
X168284600Y-95522700D01*
X168270600Y-95500700D01*
X168257600Y-95477700D01*
X168246600Y-95453700D01*
X168236600Y-95429700D01*
X168227600Y-95405700D01*
X168220600Y-95379700D01*
X168214600Y-95354700D01*
X168209600Y-95328700D01*
X168206600Y-95302700D01*
X168204600Y-95276700D01*
X168203600Y-95250700D01*
X168203600Y-94050700D01*
X168204600Y-94024700D01*
X168206600Y-93998700D01*
X168209600Y-93972700D01*
X168214600Y-93946700D01*
X168220600Y-93921700D01*
X168227600Y-93895700D01*
X168236600Y-93871700D01*
X168246600Y-93847700D01*
X168257600Y-93823700D01*
X168270600Y-93800700D01*
X168284600Y-93778700D01*
X168298600Y-93756700D01*
X168314600Y-93735700D01*
X168331600Y-93715700D01*
X168349600Y-93696700D01*
X168368600Y-93678700D01*
X168388600Y-93661700D01*
X168409600Y-93645700D01*
X168431600Y-93631700D01*
X168453600Y-93617700D01*
X168476600Y-93604700D01*
X168500600Y-93593700D01*
X168524600Y-93583700D01*
X168548600Y-93574700D01*
X168574600Y-93567700D01*
X168599600Y-93561700D01*
X168625600Y-93556700D01*
X168651600Y-93553700D01*
X168677600Y-93551700D01*
X168703600Y-93550700D01*
X168729600Y-93551700D01*
%TA.AperFunction,EtchedComponent*%
G36*
X168729600Y-93551700D02*
G01*
X168755600Y-93553700D01*
X168781600Y-93556700D01*
X168807600Y-93561700D01*
X168832600Y-93567700D01*
X168858600Y-93574700D01*
X168882600Y-93583700D01*
X168906600Y-93593700D01*
X168930600Y-93604700D01*
X168953600Y-93617700D01*
X168975600Y-93631700D01*
X168997600Y-93645700D01*
X169018600Y-93661700D01*
X169038600Y-93678700D01*
X169057600Y-93696700D01*
X169075600Y-93715700D01*
X169092600Y-93735700D01*
X169108600Y-93756700D01*
X169122600Y-93778700D01*
X169136600Y-93800700D01*
X169149600Y-93823700D01*
X169160600Y-93847700D01*
X169170600Y-93871700D01*
X169179600Y-93895700D01*
X169186600Y-93921700D01*
X169192600Y-93946700D01*
X169197600Y-93972700D01*
X169200600Y-93998700D01*
X169202600Y-94024700D01*
X169203600Y-94050700D01*
X169203600Y-95250700D01*
X169202600Y-95276700D01*
X169200600Y-95302700D01*
X169197600Y-95328700D01*
X169192600Y-95354700D01*
X169186600Y-95379700D01*
X169179600Y-95405700D01*
X169170600Y-95429700D01*
X169160600Y-95453700D01*
X169149600Y-95477700D01*
X169136600Y-95500700D01*
X169122600Y-95522700D01*
X169108600Y-95544700D01*
X169092600Y-95565700D01*
X169075600Y-95585700D01*
X169057600Y-95604700D01*
X169038600Y-95622700D01*
X169018600Y-95639700D01*
X168997600Y-95655700D01*
X168975600Y-95669700D01*
X168953600Y-95683700D01*
X168930600Y-95696700D01*
X168906600Y-95707700D01*
X168882600Y-95717700D01*
X168858600Y-95726700D01*
X168832600Y-95733700D01*
X168807600Y-95739700D01*
X168781600Y-95744700D01*
X168755600Y-95747700D01*
X168729600Y-95749700D01*
X168703600Y-95750700D01*
X168677600Y-95749700D01*
X168651600Y-95747700D01*
X168625600Y-95744700D01*
X168599600Y-95739700D01*
X168574600Y-95733700D01*
X168548600Y-95726700D01*
X168524600Y-95717700D01*
X168500600Y-95707700D01*
X168476600Y-95696700D01*
X168453600Y-95683700D01*
X168431600Y-95669700D01*
X168409600Y-95655700D01*
X168388600Y-95639700D01*
X168368600Y-95622700D01*
X168349600Y-95604700D01*
X168331600Y-95585700D01*
X168314600Y-95565700D01*
X168298600Y-95544700D01*
X168284600Y-95522700D01*
X168270600Y-95500700D01*
X168257600Y-95477700D01*
X168246600Y-95453700D01*
X168236600Y-95429700D01*
X168227600Y-95405700D01*
X168220600Y-95379700D01*
X168214600Y-95354700D01*
X168209600Y-95328700D01*
X168206600Y-95302700D01*
X168204600Y-95276700D01*
X168203600Y-95250700D01*
X168203600Y-94050700D01*
X168204600Y-94024700D01*
X168206600Y-93998700D01*
X168209600Y-93972700D01*
X168214600Y-93946700D01*
X168220600Y-93921700D01*
X168227600Y-93895700D01*
X168236600Y-93871700D01*
X168246600Y-93847700D01*
X168257600Y-93823700D01*
X168270600Y-93800700D01*
X168284600Y-93778700D01*
X168298600Y-93756700D01*
X168314600Y-93735700D01*
X168331600Y-93715700D01*
X168349600Y-93696700D01*
X168368600Y-93678700D01*
X168388600Y-93661700D01*
X168409600Y-93645700D01*
X168431600Y-93631700D01*
X168453600Y-93617700D01*
X168476600Y-93604700D01*
X168500600Y-93593700D01*
X168524600Y-93583700D01*
X168548600Y-93574700D01*
X168574600Y-93567700D01*
X168599600Y-93561700D01*
X168625600Y-93556700D01*
X168651600Y-93553700D01*
X168677600Y-93551700D01*
X168703600Y-93550700D01*
X168729600Y-93551700D01*
G37*
%TD.AperFunction*%
%TA.AperFunction,EtchedComponent*%
%TO.C,JP2*%
G36*
X149531344Y-80551085D02*
G01*
X149177790Y-80904639D01*
X148753526Y-80480375D01*
X149107080Y-80126821D01*
X149531344Y-80551085D01*
G37*
%TD.AperFunction*%
%TD*%
D13*
%TO.P,C2,1,1*%
%TO.N,Net-(U5-VCP)*%
X125134280Y-88444457D03*
%TO.P,C2,2,2*%
%TO.N,+BATT*%
X124331714Y-89247023D03*
%TD*%
D14*
%TO.P,R14,1,1*%
%TO.N,GND*%
X135331749Y-70060966D03*
%TO.P,R14,2,2*%
%TO.N,m1_wl*%
X135331749Y-68865966D03*
%TD*%
D15*
%TO.P,JP1,1,A*%
%TO.N,Net-(D1-A)*%
X150566269Y-82976012D03*
%TO.P,JP1,2,B*%
%TO.N,gpio8*%
X151485507Y-82056774D03*
%TD*%
D16*
%TO.P,C13,1,1*%
%TO.N,Net-(C11-Pad2)*%
X147475000Y-58675000D03*
%TO.P,C13,2,2*%
%TO.N,+BATT*%
X145575000Y-58675000D03*
%TD*%
D17*
%TO.P,U4,1,out_1*%
%TO.N,m1_current_sense_u*%
X129570599Y-63370400D03*
%TO.P,U4,2,in-1*%
%TO.N,Net-(U2-W)*%
X130070599Y-63370400D03*
%TO.P,U4,3,in+1*%
%TO.N,Net-(U4-in+1)*%
X130570599Y-63370400D03*
%TO.P,U4,4,GND*%
%TO.N,GND*%
X131070599Y-63370400D03*
%TO.P,U4,5,ref_1*%
%TO.N,Net-(U2-1.8v_out)*%
X131570599Y-63370400D03*
%TO.P,U4,6,ref_2*%
X131570599Y-58970400D03*
%TO.P,U4,7,in+2*%
%TO.N,Net-(U4-in+2)*%
X131070599Y-58970400D03*
%TO.P,U4,8,in-2*%
%TO.N,Net-(U2-U)*%
X130570599Y-58970400D03*
%TO.P,U4,9,out_2*%
%TO.N,m1_current_sense_w*%
X130070599Y-58970400D03*
%TO.P,U4,10,VS*%
%TO.N,+3.3V*%
X129570599Y-58970400D03*
%TD*%
D18*
%TO.P,U2,1,W*%
%TO.N,Net-(U2-W)*%
X125131600Y-62586400D03*
D19*
%TO.P,U2,2,VCP*%
%TO.N,Net-(U2-VCP)*%
X125531600Y-62586400D03*
%TO.P,U2,3,UH*%
%TO.N,m1_uh*%
X125931600Y-62586400D03*
%TO.P,U2,4,VH*%
%TO.N,m1_vh*%
X126331600Y-62586400D03*
D20*
%TO.P,U2,5,WH*%
%TO.N,m1_wh*%
X126731600Y-62586400D03*
D21*
%TO.P,U2,6,UL*%
%TO.N,m1_ul*%
X127381600Y-61936400D03*
D22*
%TO.P,U2,7,WL*%
%TO.N,m1_wl*%
X127381600Y-61536400D03*
%TO.P,U2,8,GND*%
%TO.N,GND*%
X127381600Y-61136400D03*
%TO.P,U2,9,GND*%
X127381600Y-60736400D03*
D23*
%TO.P,U2,10,VL*%
%TO.N,m1_vl*%
X127381600Y-60336400D03*
D24*
%TO.P,U2,11,VIO/STDBY*%
%TO.N,/motor_controls/standby*%
X126731600Y-59686400D03*
D19*
%TO.P,U2,12,DAIG*%
%TO.N,/motor_controls1/motor_fault_detect*%
X126331600Y-59686400D03*
D25*
%TO.P,U2,13,1.8v_out*%
%TO.N,Net-(U2-1.8v_out)*%
X125931600Y-59698900D03*
D19*
%TO.P,U2,14,GND*%
%TO.N,GND*%
X125531600Y-59686400D03*
D26*
%TO.P,U2,15,U*%
%TO.N,Net-(U2-U)*%
X125131600Y-59686400D03*
D27*
%TO.P,U2,16,BRUV*%
%TO.N,GND*%
X124481600Y-60336400D03*
D22*
%TO.P,U2,17,V*%
%TO.N,Net-(U2-V)*%
X124481600Y-60736400D03*
%TO.P,U2,18,VS*%
%TO.N,+BATT*%
X124481600Y-61136400D03*
%TO.P,U2,19,NC*%
%TO.N,unconnected-(U2-NC-Pad19)*%
X124481600Y-61536400D03*
D28*
%TO.P,U2,20,BRW*%
%TO.N,GND*%
X124481600Y-61936400D03*
D29*
%TO.P,U2,21,PAD*%
X125481600Y-61536400D03*
X126381600Y-61536400D03*
D30*
X125931600Y-61136400D03*
D29*
X125481600Y-60736400D03*
X126381600Y-60736400D03*
%TD*%
D14*
%TO.P,R7,1,1*%
%TO.N,GND*%
X133052632Y-70058317D03*
%TO.P,R7,2,2*%
%TO.N,m1_vh*%
X133052632Y-68863317D03*
%TD*%
D31*
%TO.P,C18,1,1*%
%TO.N,+3.3V*%
X169445000Y-79365000D03*
%TO.P,C18,2,2*%
%TO.N,GND*%
X171345000Y-79365000D03*
%TD*%
D32*
%TO.P,D3,1,K*%
%TO.N,Net-(D3-K)*%
X144042618Y-81685208D03*
%TO.P,D3,2,A*%
%TO.N,Net-(D3-A)*%
X145368444Y-80359382D03*
%TD*%
D31*
%TO.P,C17,1,1*%
%TO.N,+5V*%
X164655001Y-79405000D03*
%TO.P,C17,2,2*%
%TO.N,GND*%
X166555001Y-79405000D03*
%TD*%
D33*
%TO.P,R20,1,1*%
%TO.N,usb_d-*%
X161356561Y-84630176D03*
%TO.P,R20,2,2*%
%TO.N,Net-(J11-DN1)*%
X162201553Y-85475168D03*
%TD*%
D17*
%TO.P,U3,1,out_1*%
%TO.N,m2_current_sense_w*%
X129479524Y-87726458D03*
%TO.P,U3,2,in-1*%
%TO.N,Net-(U3-in-1)*%
X129979524Y-87726458D03*
%TO.P,U3,3,in+1*%
%TO.N,Net-(U3-in+1)*%
X130479524Y-87726458D03*
%TO.P,U3,4,GND*%
%TO.N,GND*%
X130979524Y-87726458D03*
%TO.P,U3,5,ref_1*%
%TO.N,Net-(U3-ref_1)*%
X131479524Y-87726458D03*
%TO.P,U3,6,ref_2*%
X131479524Y-83326458D03*
%TO.P,U3,7,in+2*%
%TO.N,Net-(U3-in+2)*%
X130979524Y-83326458D03*
%TO.P,U3,8,in-2*%
%TO.N,Net-(U3-in-2)*%
X130479524Y-83326458D03*
%TO.P,U3,9,out_2*%
%TO.N,m2_current_sense_u*%
X129979524Y-83326458D03*
%TO.P,U3,10,VS*%
%TO.N,+3.3V*%
X129479524Y-83326458D03*
%TD*%
D16*
%TO.P,C9,1,1*%
%TO.N,+5V*%
X150916079Y-60751361D03*
%TO.P,C9,2,2*%
%TO.N,Net-(C11-Pad2)*%
X149016079Y-60751361D03*
%TD*%
D34*
%TO.P,R25,1,1*%
%TO.N,+3.3V*%
X173781468Y-82714817D03*
%TO.P,R25,2,2*%
%TO.N,Net-(U1-GPIO0{slash}BOOT)*%
X172586468Y-82714817D03*
%TD*%
D35*
%TO.P,R17,1,1*%
%TO.N,Net-(U7-EN)*%
X143572500Y-64182000D03*
%TO.P,R17,2,2*%
%TO.N,+BATT*%
X144767500Y-64182000D03*
%TD*%
D34*
%TO.P,R33,1,1*%
%TO.N,Net-(D3-K)*%
X144925100Y-85160104D03*
%TO.P,R33,2,2*%
%TO.N,GND*%
X143730100Y-85160104D03*
%TD*%
D36*
%TO.P,C6,1,1*%
%TO.N,GND*%
X120616900Y-62664000D03*
%TO.P,C6,2,2*%
%TO.N,+BATT*%
X121751900Y-62664000D03*
%TD*%
D37*
%TO.P,L1,1,1*%
%TO.N,+5V*%
X150223141Y-62751128D03*
%TO.P,L1,2,2*%
%TO.N,Net-(U7-SW)*%
X150223141Y-66451128D03*
%TD*%
D38*
%TO.P,R1,1,1*%
%TO.N,Net-(U3-in-1)*%
X122804801Y-88508832D03*
%TO.P,R1,2,2*%
%TO.N,Net-(U3-in+1)*%
X120979801Y-88508832D03*
%TD*%
D34*
%TO.P,R22,1,1*%
%TO.N,Net-(D2-K)*%
X144932658Y-86282843D03*
%TO.P,R22,2,2*%
%TO.N,GND*%
X143737658Y-86282843D03*
%TD*%
D39*
%TO.P,J12,1,1*%
%TO.N,m2_enc_cs*%
X122035000Y-75300000D03*
%TO.P,J12,2,2*%
%TO.N,enc_scl*%
X121035000Y-75300000D03*
%TO.P,J12,3,3*%
%TO.N,enc_sda*%
X120035000Y-75300000D03*
%TO.P,J12,4,4*%
%TO.N,+3.3V*%
X119035000Y-75300000D03*
%TO.P,J12,5,5*%
%TO.N,GND*%
X118035000Y-75300000D03*
D40*
%TO.P,J12,S1,SHIELD*%
X123335000Y-77825000D03*
%TO.P,J12,S2,SHIELD__1*%
X116735000Y-77825000D03*
%TD*%
D14*
%TO.P,R5,1,1*%
%TO.N,GND*%
X131909969Y-70061889D03*
%TO.P,R5,2,2*%
%TO.N,m1_ul*%
X131909969Y-68866889D03*
%TD*%
D34*
%TO.P,R24,1,1*%
%TO.N,GND*%
X170642456Y-87745727D03*
%TO.P,R24,2,2*%
%TO.N,Net-(J11-CC2)*%
X169447456Y-87745727D03*
%TD*%
D15*
%TO.P,JP3,1,A*%
%TO.N,Net-(D3-A)*%
X146751784Y-78939106D03*
%TO.P,JP3,2,B*%
%TO.N,+3.3V*%
X147671022Y-78019868D03*
%TD*%
D33*
%TO.P,R21,1,1*%
%TO.N,usb_d+*%
X162181073Y-83771645D03*
%TO.P,R21,2,2*%
%TO.N,Net-(J11-DP1)*%
X163026065Y-84616637D03*
%TD*%
D41*
%TO.P,R19,1,1*%
%TO.N,+5V*%
X140401910Y-68155397D03*
%TO.P,R19,2,2*%
%TO.N,Net-(U7-VFB)*%
X140401910Y-69350397D03*
%TD*%
D42*
%TO.P,J5,1,GND*%
%TO.N,GND*%
X134931920Y-91075680D03*
%TO.P,J5,2,VCC*%
%TO.N,+3.3V*%
X135932680Y-91075680D03*
%TO.P,J5,3,SDA*%
%TO.N,sda*%
X136928360Y-91075680D03*
%TO.P,J5,4,SCL*%
%TO.N,scl*%
X137929120Y-91075680D03*
D43*
%TO.P,J5,NC1*%
%TO.N,N/C*%
X139229600Y-94748520D03*
%TO.P,J5,NC2*%
X133631440Y-94748520D03*
%TD*%
D16*
%TO.P,C8,1,1*%
%TO.N,+3.3V*%
X128505000Y-57245000D03*
%TO.P,C8,2,2*%
%TO.N,GND*%
X126605000Y-57245000D03*
%TD*%
D44*
%TO.P,J7,1*%
%TO.N,Net-(U1-GPIO0{slash}BOOT)*%
X173084000Y-94138000D03*
%TO.P,J7,2*%
X173084000Y-88138000D03*
%TO.P,J7,3*%
%TO.N,GND*%
X176784000Y-94138000D03*
%TO.P,J7,4*%
X176784000Y-88138000D03*
%TD*%
D45*
%TO.P,C5,1,1*%
%TO.N,+BATT*%
X121749900Y-61643600D03*
%TO.P,C5,2,2*%
%TO.N,GND*%
X120614900Y-61643600D03*
%TD*%
D16*
%TO.P,C11,1,1*%
%TO.N,+5V*%
X150906078Y-58691361D03*
%TO.P,C11,2,2*%
%TO.N,Net-(C11-Pad2)*%
X149006078Y-58691361D03*
%TD*%
D14*
%TO.P,R9,1,1*%
%TO.N,GND*%
X130769483Y-70064606D03*
%TO.P,R9,2,2*%
%TO.N,m1_uh*%
X130769483Y-68869606D03*
%TD*%
D46*
%TO.P,U1,1,GND*%
%TO.N,GND*%
X158890000Y-59260000D03*
%TO.P,U1,2,3V3*%
%TO.N,+3.3V*%
X158890000Y-60530000D03*
%TO.P,U1,3,EN*%
%TO.N,Net-(U1-EN)*%
X158890000Y-61800000D03*
%TO.P,U1,4,GPIO4/TOUCH4/ADC1_CH3*%
%TO.N,m1_current_sense_w*%
X158890000Y-63070000D03*
%TO.P,U1,5,GPIO5/TOUCH5/ADC1_CH4*%
%TO.N,m1_vl*%
X158890000Y-64340000D03*
%TO.P,U1,6,GPIO6/TOUCH6/ADC1_CH5*%
%TO.N,m1_wl*%
X158890000Y-65610000D03*
%TO.P,U1,7,GPIO7/TOUCH7/ADC1_CH6*%
%TO.N,m1_current_sense_u*%
X158890000Y-66880000D03*
%TO.P,U1,8,GPIO15/U0RTS/ADC2_CH4/XTAL_32K_P*%
%TO.N,m1_ul*%
X158890000Y-68150000D03*
%TO.P,U1,9,GPIO16/U0CTS/ADC2_CH5/XTAL_32K_N*%
%TO.N,m1_wh*%
X158890000Y-69420000D03*
%TO.P,U1,10,GPIO17/U1TXD/ADC2_CH6*%
%TO.N,m1_vh*%
X158890000Y-70690000D03*
%TO.P,U1,11,GPIO18/U1RXD/ADC2_CH7/CLK_OUT3*%
%TO.N,m1_uh*%
X158890000Y-71960000D03*
%TO.P,U1,12,GPIO8/TOUCH8/ADC1_CH7/SUBSPICS1*%
%TO.N,m2_current_sense_u*%
X158890000Y-73230000D03*
%TO.P,U1,13,GPIO19/U1RTS/ADC2_CH8/CLK_OUT2/USB_D-*%
%TO.N,usb_d-*%
X158890000Y-74500000D03*
%TO.P,U1,14,GPIO20/U1CTS/ADC2_CH9/CLK_OUT1/USB_D+*%
%TO.N,usb_d+*%
X158890000Y-75770000D03*
D47*
%TO.P,U1,15,GPIO3/TOUCH3/ADC1_CH2*%
%TO.N,unconnected-(U1-GPIO3{slash}TOUCH3{slash}ADC1_CH2-Pad15)*%
X160655000Y-77020000D03*
%TO.P,U1,16,GPIO46*%
%TO.N,unconnected-(U1-GPIO46-Pad16)*%
X161925000Y-77020000D03*
%TO.P,U1,17,GPIO9/TOUCH9/ADC1_CH8/FSPIHD/SUBSPIHD*%
%TO.N,m2_uh*%
X163195000Y-77020000D03*
%TO.P,U1,18,GPIO10/TOUCH10/ADC1_CH9/FSPICS0/FSPIIO4/SUBSPICS0*%
%TO.N,m2_vh*%
X164465000Y-77020000D03*
%TO.P,U1,19,GPIO11/TOUCH11/ADC2_CH0/FSPID/FSPIIO5/SUBSPID*%
%TO.N,m2_wh*%
X165735000Y-77020000D03*
%TO.P,U1,20,GPIO12/TOUCH12/ADC2_CH1/FSPICLK/FSPIIO6/SUBSPICLK*%
%TO.N,m2_current_sense_w*%
X167005000Y-77020000D03*
%TO.P,U1,21,GPIO13/TOUCH13/ADC2_CH2/FSPIQ/FSPIIO7/SUBSPIQ*%
%TO.N,m2_ul*%
X168275000Y-77020000D03*
%TO.P,U1,22,GPIO14/TOUCH14/ADC2_CH3/FSPIWP/FSPIDQS/SUBSPIWP*%
%TO.N,m2_wl*%
X169545000Y-77020000D03*
%TO.P,U1,23,GPIO21*%
%TO.N,m2_vl*%
X170815000Y-77020000D03*
%TO.P,U1,24,GPIO47/SPICLK_P/SUBSPICLK_P_DIFF*%
%TO.N,gpio47*%
X172085000Y-77020000D03*
%TO.P,U1,25,GPIO48/SPICLK_N/SUBSPICLK_N_DIFF*%
%TO.N,m2_enc_cs*%
X173355000Y-77020000D03*
%TO.P,U1,26,GPIO45*%
%TO.N,unconnected-(U1-GPIO45-Pad26)*%
X174625000Y-77020000D03*
D46*
%TO.P,U1,27,GPIO0/BOOT*%
%TO.N,Net-(U1-GPIO0{slash}BOOT)*%
X176390000Y-75770000D03*
%TO.P,U1,28,SPIIO6/GPIO35/FSPID/SUBSPID*%
%TO.N,enc_sda*%
X176390000Y-74500000D03*
%TO.P,U1,29,SPIIO7/GPIO36/FSPICLK/SUBSPICLK*%
%TO.N,enc_scl*%
X176390000Y-73230000D03*
%TO.P,U1,30,SPIDQS/GPIO37/FSPIQ/SUBSPIQ*%
%TO.N,m1_enc_cs*%
X176390000Y-71960000D03*
%TO.P,U1,31,GPIO38/FSPIWP/SUBSPIWP*%
%TO.N,gpio38*%
X176390000Y-70690000D03*
%TO.P,U1,32,MTCK/GPIO39/CLK_OUT3/SUBSPICS1*%
%TO.N,Net-(J9-Pin_6)*%
X176390000Y-69420000D03*
%TO.P,U1,33,MTDO/GPIO40/CLK_OUT2*%
%TO.N,Net-(J9-Pin_7)*%
X176390000Y-68150000D03*
%TO.P,U1,34,MTDI/GPIO41/CLK_OUT1*%
%TO.N,Net-(J9-Pin_8)*%
X176390000Y-66880000D03*
%TO.P,U1,35,MTMS/GPIO42*%
%TO.N,Net-(J9-Pin_9)*%
X176390000Y-65610000D03*
%TO.P,U1,36,U0RXD/GPIO44/CLK_OUT2*%
%TO.N,Net-(J10-Pin_2)*%
X176390000Y-64340000D03*
%TO.P,U1,37,U0TXD/GPIO43/CLK_OUT1*%
%TO.N,Net-(J10-Pin_1)*%
X176390000Y-63070000D03*
%TO.P,U1,38,GPIO2/TOUCH2/ADC1_CH1*%
%TO.N,sda*%
X176390000Y-61800000D03*
%TO.P,U1,39,GPIO1/TOUCH1/ADC1_CH0*%
%TO.N,scl*%
X176390000Y-60530000D03*
%TO.P,U1,40,GND*%
%TO.N,GND*%
X176390000Y-59260000D03*
D48*
%TO.P,U1,41,GND*%
X164740000Y-65580000D03*
X164740000Y-66980000D03*
X164740000Y-68380000D03*
X166140000Y-65580000D03*
X166140000Y-66980000D03*
X166140000Y-68380000D03*
X167540000Y-65580000D03*
X167540000Y-66980000D03*
X167540000Y-68380000D03*
%TD*%
D32*
%TO.P,D2,1,K*%
%TO.N,Net-(D2-K)*%
X145913411Y-83556001D03*
%TO.P,D2,2,A*%
%TO.N,Net-(D2-A)*%
X147239237Y-82230175D03*
%TD*%
D14*
%TO.P,R10,1,1*%
%TO.N,GND*%
X136472512Y-70058831D03*
%TO.P,R10,2,2*%
%TO.N,m1_vl*%
X136472512Y-68863831D03*
%TD*%
D35*
%TO.P,R23,1,1*%
%TO.N,GND*%
X158335161Y-87723495D03*
%TO.P,R23,2,2*%
%TO.N,Net-(J11-CC1)*%
X159530161Y-87723495D03*
%TD*%
D41*
%TO.P,R11,1,1*%
%TO.N,GND*%
X138669287Y-74616736D03*
%TO.P,R11,2,2*%
%TO.N,m2_wh*%
X138669287Y-75811736D03*
%TD*%
%TO.P,R3,1,1*%
%TO.N,GND*%
X140923006Y-74617427D03*
%TO.P,R3,2,2*%
%TO.N,m2_uh*%
X140923006Y-75812427D03*
%TD*%
D35*
%TO.P,R27,1,1*%
%TO.N,+3.3V*%
X175035536Y-80395264D03*
%TO.P,R27,2,2*%
%TO.N,enc_sda*%
X176230536Y-80395264D03*
%TD*%
%TO.P,R26,1,1*%
%TO.N,+3.3V*%
X175034864Y-81603353D03*
%TO.P,R26,2,2*%
%TO.N,enc_scl*%
X176229864Y-81603353D03*
%TD*%
D45*
%TO.P,C1,1,1*%
%TO.N,+BATT*%
X121565890Y-85977162D03*
%TO.P,C1,2,2*%
%TO.N,GND*%
X120430890Y-85977162D03*
%TD*%
D49*
%TO.P,C20,1,1*%
%TO.N,usb_d-*%
X159722421Y-85046421D03*
%TO.P,C20,2,2*%
%TO.N,GND*%
X158502661Y-83826661D03*
%TD*%
D36*
%TO.P,C3,1,1*%
%TO.N,GND*%
X120435690Y-87000768D03*
%TO.P,C3,2,2*%
%TO.N,+BATT*%
X121570690Y-87000768D03*
%TD*%
D44*
%TO.P,J6,1*%
%TO.N,Net-(U1-EN)*%
X151024197Y-94152726D03*
%TO.P,J6,2*%
X151024197Y-88152726D03*
%TO.P,J6,3*%
%TO.N,GND*%
X154724197Y-94152726D03*
%TO.P,J6,4*%
X154724197Y-88152726D03*
%TD*%
D50*
%TO.P,J2,1,1*%
%TO.N,Net-(U3-in+1)*%
X116174213Y-88112054D03*
%TO.P,J2,2,2*%
%TO.N,Net-(U5-V)*%
X116428213Y-85572054D03*
%TO.P,J2,3,3*%
%TO.N,Net-(U3-in+2)*%
X116174213Y-83032054D03*
%TD*%
D38*
%TO.P,R2,1,1*%
%TO.N,Net-(U3-in-2)*%
X122878683Y-82673249D03*
%TO.P,R2,2,2*%
%TO.N,Net-(U3-in+2)*%
X121053683Y-82673249D03*
%TD*%
D41*
%TO.P,R13,1,1*%
%TO.N,GND*%
X136395397Y-74608928D03*
%TO.P,R13,2,2*%
%TO.N,m2_wl*%
X136395397Y-75803928D03*
%TD*%
D51*
%TO.P,U7,1,GND*%
%TO.N,GND*%
X145856000Y-67934001D03*
%TO.P,U7,2,SW*%
%TO.N,Net-(U7-SW)*%
X145856000Y-66984001D03*
%TO.P,U7,3,Vin*%
%TO.N,+BATT*%
X145856000Y-66034001D03*
%TO.P,U7,4,VFB*%
%TO.N,Net-(U7-VFB)*%
X143156000Y-66034001D03*
%TO.P,U7,5,EN*%
%TO.N,Net-(U7-EN)*%
X143156000Y-66984001D03*
%TO.P,U7,6,VBST*%
%TO.N,Net-(U7-VBST)*%
X143156000Y-67934001D03*
%TD*%
D42*
%TO.P,J3,1,GND*%
%TO.N,GND*%
X142834173Y-90985775D03*
%TO.P,J3,2,VCC*%
%TO.N,+3.3V*%
X143834933Y-90985775D03*
%TO.P,J3,3,SDA*%
%TO.N,sda*%
X144830613Y-90985775D03*
%TO.P,J3,4,SCL*%
%TO.N,scl*%
X145831373Y-90985775D03*
D43*
%TO.P,J3,NC1*%
%TO.N,N/C*%
X147131853Y-94658615D03*
%TO.P,J3,NC2*%
X141533693Y-94658615D03*
%TD*%
D52*
%TO.P,J11,A1_B12,GND_A*%
%TO.N,GND*%
X161170000Y-90000000D03*
%TO.P,J11,A4_B9,VBUS_A*%
%TO.N,+5V*%
X161970000Y-90000000D03*
D53*
%TO.P,J11,A5,CC1*%
%TO.N,Net-(J11-CC1)*%
X163120000Y-90000000D03*
%TO.P,J11,A6,DP1*%
%TO.N,Net-(J11-DP1)*%
X164120000Y-90000000D03*
%TO.P,J11,A7,DN1*%
%TO.N,Net-(J11-DN1)*%
X164620000Y-90000000D03*
%TO.P,J11,A8,SBU1*%
%TO.N,unconnected-(J11-SBU1-PadA8)*%
X165620000Y-90000000D03*
D52*
%TO.P,J11,B1_A12,GND_B*%
%TO.N,GND*%
X167570000Y-90000000D03*
%TO.P,J11,B4_A9,VBUS_B*%
%TO.N,+5V*%
X166770000Y-90000000D03*
D53*
%TO.P,J11,B5,CC2*%
%TO.N,Net-(J11-CC2)*%
X166120000Y-90000000D03*
%TO.P,J11,B6,DP2*%
%TO.N,Net-(J11-DP1)*%
X165120000Y-90000000D03*
%TO.P,J11,B7,DN2*%
%TO.N,Net-(J11-DN1)*%
X163620000Y-90000000D03*
%TO.P,J11,B8,SBU2*%
%TO.N,unconnected-(J11-SBU2-PadB8)*%
X162620000Y-90000000D03*
D54*
%TO.P,J11,S1,SHELL_GND*%
%TO.N,unconnected-(J11-SHELL_GND-PadS1)*%
X160053600Y-94650700D03*
%TO.P,J11,S2,SHELL_GND*%
%TO.N,unconnected-(J11-SHELL_GND-PadS2)*%
X168703600Y-90450700D03*
%TO.P,J11,S3,SHELL_GND*%
%TO.N,unconnected-(J11-SHELL_GND-PadS3)*%
X160053600Y-90450700D03*
%TO.P,J11,S4,SHELL_GND*%
%TO.N,unconnected-(J11-SHELL_GND-PadS4)*%
X168703600Y-94650700D03*
%TD*%
D50*
%TO.P,J10,1,Pin_1*%
%TO.N,Net-(J10-Pin_1)*%
X182515000Y-63777800D03*
%TO.P,J10,2,Pin_2*%
%TO.N,Net-(J10-Pin_2)*%
X182515000Y-60882200D03*
%TD*%
D35*
%TO.P,R29,1,1*%
%TO.N,+3.3V*%
X145240150Y-88987791D03*
%TO.P,R29,2,2*%
%TO.N,sda*%
X146435150Y-88987791D03*
%TD*%
%TO.P,R31,1,1*%
%TO.N,+3.3V*%
X125072469Y-74246958D03*
%TO.P,R31,2,2*%
%TO.N,/motor_controls/standby*%
X126267469Y-74246958D03*
%TD*%
D39*
%TO.P,J13,1,1*%
%TO.N,m1_enc_cs*%
X122037570Y-69301563D03*
%TO.P,J13,2,2*%
%TO.N,enc_scl*%
X121037570Y-69301563D03*
%TO.P,J13,3,3*%
%TO.N,enc_sda*%
X120037570Y-69301563D03*
%TO.P,J13,4,4*%
%TO.N,+3.3V*%
X119037570Y-69301563D03*
%TO.P,J13,5,5*%
%TO.N,GND*%
X118037570Y-69301563D03*
D40*
%TO.P,J13,S1,SHIELD*%
X123337570Y-71826563D03*
%TO.P,J13,S2,SHIELD__1*%
X116737570Y-71826563D03*
%TD*%
D41*
%TO.P,R30,1,1*%
%TO.N,+3.3V*%
X156723042Y-60354469D03*
%TO.P,R30,2,2*%
%TO.N,Net-(U1-EN)*%
X156723042Y-61549469D03*
%TD*%
D38*
%TO.P,R15,1,1*%
%TO.N,Net-(U2-W)*%
X123014799Y-64202415D03*
%TO.P,R15,2,2*%
%TO.N,Net-(U4-in+1)*%
X121189799Y-64202415D03*
%TD*%
D55*
%TO.P,C10,1,+*%
%TO.N,+BATT*%
X141935605Y-61085748D03*
%TO.P,C10,2,-*%
%TO.N,GND*%
X134735605Y-61085748D03*
%TD*%
D15*
%TO.P,JP2,1,A*%
%TO.N,Net-(D2-A)*%
X148682816Y-80975349D03*
%TO.P,JP2,2,B*%
%TO.N,gpio38*%
X149602054Y-80056111D03*
%TD*%
D49*
%TO.P,C19,1,1*%
%TO.N,usb_d+*%
X162791634Y-82231208D03*
%TO.P,C19,2,2*%
%TO.N,GND*%
X161571874Y-81011448D03*
%TD*%
D41*
%TO.P,R6,1,1*%
%TO.N,GND*%
X139819775Y-74626944D03*
%TO.P,R6,2,2*%
%TO.N,m2_vh*%
X139819775Y-75821944D03*
%TD*%
D34*
%TO.P,R32,1,1*%
%TO.N,Net-(D1-K)*%
X144924463Y-87422886D03*
%TO.P,R32,2,2*%
%TO.N,GND*%
X143729463Y-87422886D03*
%TD*%
D31*
%TO.P,C16,1,1*%
%TO.N,+5V*%
X138820000Y-66616001D03*
%TO.P,C16,2,2*%
%TO.N,Net-(U7-VFB)*%
X140720000Y-66616001D03*
%TD*%
D32*
%TO.P,D1,1,K*%
%TO.N,Net-(D1-K)*%
X147890837Y-85533427D03*
%TO.P,D1,2,A*%
%TO.N,Net-(D1-A)*%
X149216663Y-84207601D03*
%TD*%
D14*
%TO.P,R12,1,1*%
%TO.N,GND*%
X134192940Y-70059409D03*
%TO.P,R12,2,2*%
%TO.N,m1_wh*%
X134192940Y-68864409D03*
%TD*%
D13*
%TO.P,C7,1,1*%
%TO.N,Net-(U2-VCP)*%
X125290615Y-64145637D03*
%TO.P,C7,2,2*%
%TO.N,+BATT*%
X124488049Y-64948203D03*
%TD*%
D38*
%TO.P,R16,1,1*%
%TO.N,Net-(U2-U)*%
X122970423Y-58313966D03*
%TO.P,R16,2,2*%
%TO.N,Net-(U4-in+2)*%
X121145423Y-58313966D03*
%TD*%
D16*
%TO.P,C12,1,1*%
%TO.N,Net-(C11-Pad2)*%
X147485000Y-60715000D03*
%TO.P,C12,2,2*%
%TO.N,+BATT*%
X145585000Y-60715000D03*
%TD*%
D18*
%TO.P,U5,1,W*%
%TO.N,Net-(U3-in-1)*%
X125039938Y-86944093D03*
D19*
%TO.P,U5,2,VCP*%
%TO.N,Net-(U5-VCP)*%
X125439938Y-86944093D03*
%TO.P,U5,3,UH*%
%TO.N,m2_uh*%
X125839938Y-86944093D03*
%TO.P,U5,4,VH*%
%TO.N,m2_vh*%
X126239938Y-86944093D03*
D20*
%TO.P,U5,5,WH*%
%TO.N,m2_wh*%
X126639938Y-86944093D03*
D21*
%TO.P,U5,6,UL*%
%TO.N,m2_ul*%
X127289938Y-86294093D03*
D22*
%TO.P,U5,7,WL*%
%TO.N,m2_wl*%
X127289938Y-85894093D03*
%TO.P,U5,8,GND*%
%TO.N,GND*%
X127289938Y-85494093D03*
%TO.P,U5,9,GND*%
X127289938Y-85094093D03*
D23*
%TO.P,U5,10,VL*%
%TO.N,m2_vl*%
X127289938Y-84694093D03*
D24*
%TO.P,U5,11,VIO/STDBY*%
%TO.N,/motor_controls/standby*%
X126639938Y-84044093D03*
D19*
%TO.P,U5,12,DAIG*%
%TO.N,/motor_controls/motor_fault_detect*%
X126239938Y-84044093D03*
D25*
%TO.P,U5,13,1.8v_out*%
%TO.N,Net-(U3-ref_1)*%
X125839938Y-84056593D03*
D19*
%TO.P,U5,14,GND*%
%TO.N,GND*%
X125439938Y-84044093D03*
D26*
%TO.P,U5,15,U*%
%TO.N,Net-(U3-in-2)*%
X125039938Y-84044093D03*
D27*
%TO.P,U5,16,BRUV*%
%TO.N,GND*%
X124389938Y-84694093D03*
D22*
%TO.P,U5,17,V*%
%TO.N,Net-(U5-V)*%
X124389938Y-85094093D03*
%TO.P,U5,18,VS*%
%TO.N,+BATT*%
X124389938Y-85494093D03*
%TO.P,U5,19,NC*%
%TO.N,unconnected-(U5-NC-Pad19)*%
X124389938Y-85894093D03*
D28*
%TO.P,U5,20,BRW*%
%TO.N,GND*%
X124389938Y-86294093D03*
D29*
%TO.P,U5,21,PAD*%
X125389938Y-85894093D03*
X126289938Y-85894093D03*
D30*
X125839938Y-85494093D03*
D29*
X125389938Y-85094093D03*
X126289938Y-85094093D03*
%TD*%
D34*
%TO.P,R28,1,1*%
%TO.N,+3.3V*%
X148409250Y-89929808D03*
%TO.P,R28,2,2*%
%TO.N,scl*%
X147214250Y-89929808D03*
%TD*%
D16*
%TO.P,C4,1,1*%
%TO.N,+3.3V*%
X126625000Y-81815000D03*
%TO.P,C4,2,2*%
%TO.N,GND*%
X124725000Y-81815000D03*
%TD*%
D56*
%TO.P,J8,1,+*%
%TO.N,+BATT*%
X150668062Y-53472238D03*
D57*
%TO.P,J8,2,-*%
%TO.N,GND*%
X145668062Y-53472238D03*
%TD*%
D50*
%TO.P,J1,1,1*%
%TO.N,Net-(U4-in+1)*%
X116257000Y-63754000D03*
%TO.P,J1,2,2*%
%TO.N,Net-(U2-V)*%
X116511000Y-61214000D03*
%TO.P,J1,3,3*%
%TO.N,Net-(U4-in+2)*%
X116257000Y-58674000D03*
%TD*%
D41*
%TO.P,R8,1,1*%
%TO.N,GND*%
X135252962Y-74610975D03*
%TO.P,R8,2,2*%
%TO.N,m2_vl*%
X135252962Y-75805975D03*
%TD*%
D16*
%TO.P,C15,1,1*%
%TO.N,Net-(U7-SW)*%
X145722000Y-69528000D03*
%TO.P,C15,2,2*%
%TO.N,Net-(U7-VBST)*%
X143822000Y-69528000D03*
%TD*%
D50*
%TO.P,J9,1,Pin_1*%
%TO.N,+3.3V*%
X182344000Y-86610000D03*
%TO.P,J9,2,Pin_2*%
%TO.N,+5V*%
X182598000Y-84070000D03*
%TO.P,J9,3,Pin_3*%
%TO.N,GND*%
X182344000Y-81530000D03*
%TO.P,J9,4,Pin_4*%
%TO.N,gpio47*%
X182598000Y-78990000D03*
%TO.P,J9,5,Pin_5*%
%TO.N,gpio38*%
X182344000Y-76450000D03*
%TO.P,J9,6,Pin_6*%
%TO.N,Net-(J9-Pin_6)*%
X182598000Y-73910000D03*
%TO.P,J9,7,Pin_7*%
%TO.N,Net-(J9-Pin_7)*%
X182344000Y-71370000D03*
%TO.P,J9,8,Pin_8*%
%TO.N,Net-(J9-Pin_8)*%
X182598000Y-68830000D03*
%TO.P,J9,9,Pin_9*%
%TO.N,Net-(J9-Pin_9)*%
X182344000Y-66290000D03*
%TD*%
D58*
%TO.P,U6,1,adj*%
%TO.N,GND*%
X166140001Y-84754000D03*
D59*
%TO.P,U6,2,out*%
%TO.N,+3.3V*%
X167640001Y-84666500D03*
D58*
%TO.P,U6,3,in*%
%TO.N,+5V*%
X169140001Y-84754000D03*
%TD*%
D60*
%TO.P,C14,1,1*%
%TO.N,Net-(C11-Pad2)*%
X146465000Y-62495000D03*
%TO.P,C14,2,2*%
%TO.N,+BATT*%
X146465000Y-64395000D03*
%TD*%
D14*
%TO.P,R18,1,1*%
%TO.N,GND*%
X139324867Y-69361496D03*
%TO.P,R18,2,2*%
%TO.N,Net-(U7-VFB)*%
X139324867Y-68166496D03*
%TD*%
D41*
%TO.P,R4,1,1*%
%TO.N,GND*%
X137516133Y-74612031D03*
%TO.P,R4,2,2*%
%TO.N,m2_ul*%
X137516133Y-75807031D03*
%TD*%
D61*
%TO.N,+BATT*%
X122642802Y-86943201D03*
D62*
X125624500Y-65250000D03*
X139050000Y-60930000D03*
D61*
X123931436Y-89838564D03*
X122732800Y-62585600D03*
X122732800Y-61772800D03*
X122642802Y-86130401D03*
%TO.N,GND*%
X161544000Y-81026000D03*
X158328060Y-81671940D03*
X166274001Y-83563600D03*
D62*
X164740000Y-66980000D03*
D61*
X118782002Y-86689201D03*
X154686000Y-94234000D03*
D62*
X164740000Y-68380000D03*
D61*
X161590842Y-82809158D03*
X124401600Y-62188400D03*
D62*
X116735000Y-74676000D03*
D61*
X157628060Y-80971940D03*
X159044166Y-82433634D03*
D62*
X166140000Y-65580000D03*
D61*
X159590842Y-80809158D03*
D62*
X123337570Y-73660000D03*
D61*
X171450000Y-87884000D03*
D62*
X135689493Y-89801810D03*
D61*
X159778060Y-83121940D03*
D62*
X166140000Y-68380000D03*
D61*
X177800000Y-87600000D03*
X157480000Y-87884000D03*
X131000000Y-71500000D03*
D62*
X137520000Y-60904365D03*
D61*
X132956940Y-63543060D03*
X157825500Y-78750000D03*
X124351602Y-84426001D03*
D62*
X164735137Y-65597355D03*
D61*
X156878060Y-80221940D03*
D62*
X137900000Y-70975500D03*
X166140000Y-66980000D03*
D61*
X143500000Y-84300000D03*
X160419981Y-83809449D03*
D62*
X167540000Y-66980000D03*
D61*
X156342637Y-79578908D03*
D62*
X167540000Y-68380000D03*
X174800000Y-59200000D03*
D61*
X141524000Y-89900000D03*
X119727546Y-62136006D03*
D62*
X138000000Y-73750000D03*
D61*
X158496000Y-83820000D03*
X124311602Y-86546001D03*
X124441600Y-60068400D03*
X125625500Y-82290000D03*
X160890842Y-82109158D03*
X118872000Y-62331600D03*
X161036000Y-88392000D03*
X144559980Y-67875500D03*
D62*
X167540000Y-65580000D03*
D61*
X158283364Y-79501678D03*
X167640000Y-88392000D03*
X160200000Y-59700000D03*
D62*
X172530000Y-79340000D03*
D61*
X131114800Y-89013600D03*
X119637548Y-86493607D03*
X156322500Y-78680558D03*
X125490000Y-57470000D03*
D62*
X137900000Y-68500000D03*
D61*
X158940842Y-80159158D03*
X160190842Y-81409158D03*
X154686000Y-89300000D03*
D62*
%TO.N,+3.3V*%
X148185362Y-87725395D03*
X148844000Y-90932000D03*
D61*
X156000000Y-60300000D03*
X125476000Y-79006000D03*
X148500000Y-77100000D03*
D62*
X119380000Y-76708000D03*
D61*
X175000000Y-82600000D03*
X125072469Y-73406000D03*
X128778000Y-58420000D03*
X128590000Y-81710000D03*
X126746000Y-73406000D03*
D62*
X170830000Y-80730000D03*
D61*
X124129800Y-67538600D03*
%TO.N,Net-(U3-in-1)*%
X125000000Y-90673500D03*
X129427830Y-88977500D03*
%TO.N,Net-(U3-in+1)*%
X130327526Y-89152900D03*
X125600000Y-91350000D03*
%TO.N,Net-(U3-ref_1)*%
X131775200Y-88073800D03*
X132100000Y-82950000D03*
X125943348Y-83248850D03*
%TO.N,/motor_controls/standby*%
X127421731Y-79763000D03*
X126492000Y-67640200D03*
X127104261Y-59503500D03*
X127740000Y-82470000D03*
%TO.N,+5V*%
X160528000Y-87630000D03*
X169926000Y-86614000D03*
X157480000Y-84455000D03*
X139599292Y-65785500D03*
X156210000Y-87884000D03*
X164338000Y-84582000D03*
X168500000Y-85900000D03*
X152654000Y-87884000D03*
D62*
X150070000Y-59790000D03*
D61*
X168402000Y-87630000D03*
X155448000Y-84836000D03*
%TO.N,Net-(U7-VFB)*%
X141400000Y-67900000D03*
D62*
%TO.N,m1_enc_cs*%
X122851991Y-69148009D03*
D61*
X175006000Y-71882000D03*
D62*
%TO.N,m2_enc_cs*%
X121920000Y-73660000D03*
D61*
X173228000Y-75692000D03*
%TO.N,m2_uh*%
X158600000Y-78300000D03*
X146106940Y-77706940D03*
%TO.N,m2_ul*%
X140250000Y-78750000D03*
X168148000Y-75692000D03*
%TO.N,m2_vh*%
X144531940Y-78281940D03*
X160600000Y-78621500D03*
%TO.N,m2_vl*%
X136900000Y-79300000D03*
X170688000Y-75692000D03*
%TO.N,m2_wh*%
X165608000Y-75692000D03*
X142113440Y-79513440D03*
%TO.N,m2_wl*%
X138500000Y-79000000D03*
X169418000Y-75692000D03*
%TO.N,m1_uh*%
X131150000Y-67150000D03*
X127000000Y-65500000D03*
X154391439Y-67300500D03*
%TO.N,m1_ul*%
X157200000Y-66700000D03*
X132789823Y-65500000D03*
X127939800Y-62941200D03*
%TO.N,m1_vh*%
X133700000Y-66700000D03*
X128400000Y-65618700D03*
X153900000Y-66585969D03*
%TO.N,m1_vl*%
X157000000Y-64075500D03*
X137700000Y-63400000D03*
X127939800Y-59503500D03*
%TO.N,m1_wh*%
X135600000Y-66075500D03*
X129446099Y-64700000D03*
X154693060Y-66006940D03*
%TO.N,m1_wl*%
X136100000Y-64100000D03*
X156200000Y-64600000D03*
X131600000Y-61100000D03*
%TO.N,Net-(J11-DP1)*%
X164800000Y-87517500D03*
X164126101Y-88722573D03*
%TO.N,Net-(U1-EN)*%
X160100000Y-62300000D03*
X153860000Y-67924500D03*
%TO.N,m2_current_sense_u*%
X133200000Y-82750000D03*
X156464000Y-71460500D03*
%TO.N,m2_current_sense_w*%
X139400000Y-82100000D03*
X166878000Y-75692000D03*
D62*
%TO.N,Net-(J10-Pin_1)*%
X174940000Y-63420000D03*
D61*
%TO.N,m1_current_sense_w*%
X129908326Y-57568045D03*
X157734000Y-63246000D03*
%TO.N,m1_current_sense_u*%
X129421099Y-63280167D03*
X157325503Y-65828100D03*
%TO.N,enc_scl*%
X175006000Y-73152000D03*
D62*
X120904000Y-70612000D03*
%TO.N,enc_sda*%
X120037570Y-72644000D03*
D61*
X175006000Y-74422000D03*
D62*
%TO.N,sda*%
X141732000Y-92456000D03*
D61*
X175125750Y-61574250D03*
D62*
X146812000Y-88392000D03*
D61*
X173482000Y-59930500D03*
D62*
%TO.N,scl*%
X146812000Y-91440000D03*
X144780000Y-93472000D03*
D61*
%TO.N,gpio38*%
X177770000Y-81480000D03*
X150900000Y-80010000D03*
%TO.N,gpio47*%
X154144667Y-70779500D03*
X152000000Y-81000000D03*
X155299500Y-82000000D03*
X171958000Y-75692000D03*
%TD*%
D63*
%TO.N,+BATT*%
X143105748Y-61085748D02*
X144920000Y-62900000D01*
D64*
X147988062Y-56152238D02*
X145507762Y-56152238D01*
X150668062Y-53472238D02*
X147988062Y-56152238D01*
D65*
X123931436Y-89838564D02*
X123931436Y-89822265D01*
D63*
X145575000Y-60705000D02*
X145585000Y-60715000D01*
D66*
X124588049Y-64898049D02*
X124588049Y-64848203D01*
D65*
X124940000Y-65250000D02*
X124588049Y-64898049D01*
D63*
X141500000Y-60930000D02*
X141655748Y-61085748D01*
X145057500Y-64162000D02*
X145856000Y-64960500D01*
X141935605Y-61085748D02*
X143105748Y-61085748D01*
D65*
X125624500Y-65250000D02*
X124940000Y-65250000D01*
D63*
X145899500Y-64960500D02*
X146465000Y-64395000D01*
X142306353Y-60715000D02*
X141935605Y-61085748D01*
D64*
X145507762Y-56152238D02*
X141935605Y-59724395D01*
D66*
X124498051Y-89255650D02*
X124498051Y-89205804D01*
D64*
X141935605Y-59724395D02*
X141935605Y-61085748D01*
D63*
X145856000Y-64960500D02*
X145899500Y-64960500D01*
X144920000Y-64024500D02*
X145057500Y-64162000D01*
X145575000Y-58675000D02*
X145575000Y-60705000D01*
X141655748Y-61085748D02*
X141935605Y-61085748D01*
X145585000Y-60715000D02*
X142306353Y-60715000D01*
X146465000Y-64395000D02*
X145290500Y-64395000D01*
D64*
X139050000Y-60930000D02*
X141500000Y-60930000D01*
D63*
X145290500Y-64395000D02*
X144920000Y-64024500D01*
X145856000Y-64960500D02*
X145856000Y-66034001D01*
X144920000Y-62900000D02*
X144920000Y-64024500D01*
D65*
X123931436Y-89822265D02*
X124498051Y-89255650D01*
D66*
%TO.N,GND*%
X125275000Y-81815000D02*
X124725000Y-81815000D01*
D67*
X130769483Y-70064606D02*
X130775258Y-70058831D01*
D65*
X142773400Y-90932000D02*
X142556000Y-90932000D01*
D68*
X132956940Y-63543060D02*
X132128600Y-64371400D01*
D63*
X176784000Y-88616000D02*
X177800000Y-87600000D01*
D64*
X137338617Y-61085748D02*
X134735605Y-61085748D01*
D65*
X130775258Y-70058831D02*
X136472512Y-70058831D01*
X161170000Y-88526000D02*
X161036000Y-88392000D01*
X159760000Y-59260000D02*
X158890000Y-59260000D01*
D66*
X116735000Y-74676000D02*
X117411000Y-74676000D01*
D63*
X167570000Y-89770000D02*
X167570000Y-88462000D01*
D66*
X134931920Y-90559383D02*
X135689493Y-89801810D01*
D65*
X137516133Y-74612031D02*
X137637969Y-74612031D01*
D63*
X172505000Y-79365000D02*
X172530000Y-79340000D01*
D66*
X116735000Y-74676000D02*
X116735000Y-77825000D01*
D68*
X171450000Y-87884000D02*
X171311727Y-87745727D01*
D65*
X138000000Y-73750000D02*
X138000000Y-74250000D01*
D68*
X171311727Y-87745727D02*
X170642456Y-87745727D01*
D66*
X117411000Y-74676000D02*
X118035000Y-75300000D01*
D65*
X138000000Y-74250000D02*
X138000000Y-74128164D01*
D66*
X125625500Y-82165500D02*
X125275000Y-81815000D01*
X123337570Y-77822430D02*
X123335000Y-77825000D01*
D65*
X138000000Y-74128164D02*
X138000000Y-73750000D01*
X174800000Y-59200000D02*
X176330000Y-59200000D01*
D63*
X171345000Y-79365000D02*
X172505000Y-79365000D01*
D68*
X137900000Y-68500000D02*
X138633371Y-68500000D01*
D66*
X118037570Y-75297430D02*
X118035000Y-75300000D01*
D65*
X125840000Y-57120000D02*
X126480000Y-57120000D01*
D67*
X144559980Y-67875500D02*
X144618481Y-67934001D01*
D65*
X136500000Y-70086319D02*
X136500000Y-70500000D01*
X126480000Y-57120000D02*
X126605000Y-57245000D01*
D63*
X166274001Y-79686000D02*
X166274001Y-83563600D01*
X176784000Y-94138000D02*
X176784000Y-88616000D01*
D65*
X137637969Y-74612031D02*
X138000000Y-74250000D01*
D66*
X134931920Y-91075680D02*
X134931920Y-90559383D01*
D65*
X176330000Y-59200000D02*
X176390000Y-59260000D01*
D67*
X144618481Y-67934001D02*
X145856000Y-67934001D01*
D68*
X130980601Y-88879401D02*
X130980601Y-87728001D01*
X132128600Y-64371400D02*
X131323850Y-64371400D01*
D63*
X154724197Y-94152726D02*
X154686000Y-94234000D01*
X137520000Y-60904365D02*
X137338617Y-61085748D01*
D68*
X126539938Y-85094093D02*
X126389938Y-84944093D01*
D63*
X166555001Y-79405000D02*
X166274001Y-79686000D01*
D68*
X126631600Y-60736400D02*
X126481600Y-60586400D01*
D65*
X143729463Y-84529463D02*
X143500000Y-84300000D01*
D63*
X154724197Y-89261803D02*
X154724197Y-88152726D01*
D66*
X116737570Y-74673430D02*
X116737570Y-71826563D01*
D68*
X138633371Y-68500000D02*
X139234867Y-69101496D01*
D67*
X125531600Y-57428400D02*
X125715000Y-57245000D01*
D65*
X140916553Y-74610976D02*
X138000000Y-74610975D01*
X167570000Y-88462000D02*
X167640000Y-88392000D01*
D68*
X127289938Y-85094093D02*
X126539938Y-85094093D01*
D65*
X138000000Y-74250000D02*
X138250000Y-74500000D01*
X136975500Y-70975500D02*
X137900000Y-70975500D01*
D67*
X125531600Y-59686400D02*
X125531600Y-57428400D01*
D66*
X116735000Y-74676000D02*
X116737570Y-74673430D01*
D65*
X160200000Y-59700000D02*
X159760000Y-59260000D01*
D63*
X161170000Y-89770000D02*
X161170000Y-88526000D01*
D68*
X127289938Y-85494093D02*
X125839938Y-85494093D01*
X131323850Y-64371400D02*
X131070599Y-64118149D01*
X131114800Y-89013600D02*
X130980601Y-88879401D01*
X157480000Y-87884000D02*
X157640505Y-87723495D01*
X125360000Y-82555500D02*
X125625500Y-82290000D01*
D66*
X125625500Y-82290000D02*
X125625500Y-82165500D01*
D63*
X154686000Y-89300000D02*
X154724197Y-89261803D01*
D67*
X143819499Y-87431000D02*
X143819000Y-87431000D01*
D65*
X125490000Y-57470000D02*
X125840000Y-57120000D01*
X142556000Y-90932000D02*
X141524000Y-89900000D01*
X138000000Y-74610975D02*
X138000000Y-74250000D01*
X143729463Y-87422886D02*
X143729463Y-84529463D01*
D68*
X125360000Y-83962399D02*
X125360000Y-82555500D01*
D67*
X125715000Y-57245000D02*
X126605000Y-57245000D01*
D68*
X127381600Y-60736400D02*
X126631600Y-60736400D01*
D67*
X130769483Y-71269483D02*
X131000000Y-71500000D01*
D68*
X124491600Y-62098400D02*
X124401600Y-62188400D01*
D65*
X166274001Y-84620000D02*
X166140001Y-84754000D01*
D68*
X125490000Y-57470000D02*
X125531600Y-57511600D01*
D66*
X118037570Y-69301563D02*
X118037570Y-75297430D01*
D67*
X143819000Y-87431000D02*
X143764000Y-87376000D01*
X130769483Y-70064606D02*
X130769483Y-71269483D01*
D65*
X136472512Y-70058831D02*
X136500000Y-70086319D01*
X166274001Y-83563600D02*
X166274001Y-84620000D01*
D68*
X131070599Y-64118149D02*
X131070599Y-63370400D01*
D65*
X136500000Y-70500000D02*
X136975500Y-70975500D01*
D68*
X157640505Y-87723495D02*
X158335161Y-87723495D01*
D66*
X123337570Y-71826563D02*
X123337570Y-77822430D01*
D68*
X124401602Y-86456001D02*
X124311602Y-86546001D01*
D65*
X138000000Y-74610975D02*
X135252962Y-74610975D01*
D63*
X154686000Y-94234000D02*
X154686000Y-89300000D01*
D68*
X127381600Y-61136400D02*
X125931600Y-61136400D01*
%TO.N,Net-(U5-VCP)*%
X125409202Y-86976401D02*
X125441602Y-86944001D01*
X125409202Y-88281701D02*
X125409202Y-86976401D01*
%TO.N,+3.3V*%
X128590000Y-81710000D02*
X129480601Y-82600601D01*
D65*
X126760000Y-81680000D02*
X126625000Y-81815000D01*
D63*
X169445000Y-79365000D02*
X169465000Y-79365000D01*
D66*
X135932680Y-90635320D02*
X137580209Y-88987791D01*
D67*
X152750000Y-82962000D02*
X148185362Y-87526638D01*
D63*
X127352000Y-72800000D02*
X137300000Y-72800000D01*
D65*
X147671022Y-78019868D02*
X147532132Y-78158758D01*
X125072469Y-70466969D02*
X125072469Y-73406000D01*
D67*
X148500000Y-77100000D02*
X149100000Y-77100000D01*
D63*
X156668573Y-60300000D02*
X156898573Y-60530000D01*
D65*
X147532132Y-78158758D02*
X147532132Y-78273868D01*
X128778000Y-58420000D02*
X128617917Y-58259917D01*
D63*
X148300000Y-77100000D02*
X148500000Y-77100000D01*
X119035000Y-76363000D02*
X119035000Y-75300000D01*
X156000000Y-60300000D02*
X156668573Y-60300000D01*
X169465000Y-79365000D02*
X170830000Y-80730000D01*
D67*
X175035536Y-81665264D02*
X175035536Y-81563536D01*
X175006000Y-81534000D02*
X175035536Y-81504464D01*
X175035536Y-81563536D02*
X175006000Y-81534000D01*
X175035536Y-81504464D02*
X175035536Y-80588025D01*
D63*
X137300000Y-72800000D02*
X138968000Y-71132000D01*
D65*
X125072469Y-78602469D02*
X125476000Y-79006000D01*
D67*
X152750000Y-80750000D02*
X152750000Y-82962000D01*
D63*
X167640001Y-80239999D02*
X167640001Y-84666500D01*
D65*
X125072469Y-73406000D02*
X125072469Y-78602469D01*
D68*
X129570599Y-58044199D02*
X129570599Y-58970400D01*
D67*
X149100000Y-77100000D02*
X152750000Y-80750000D01*
D68*
X148500000Y-77100000D02*
X148297560Y-76897560D01*
D66*
X135932680Y-91075680D02*
X135932680Y-90635320D01*
D63*
X156668573Y-60300000D02*
X156723042Y-60354469D01*
D67*
X148844000Y-90932000D02*
X148844000Y-90364558D01*
D65*
X144069790Y-92202000D02*
X143774160Y-91906370D01*
D67*
X175000000Y-81700800D02*
X175035536Y-81665264D01*
D68*
X129480601Y-82600601D02*
X129480601Y-83328001D01*
D65*
X148500000Y-77100000D02*
X147671022Y-77928978D01*
D67*
X175035536Y-80588025D02*
X175034864Y-80587353D01*
D65*
X125072469Y-67926969D02*
X125072469Y-70466969D01*
X143774160Y-91906370D02*
X143774160Y-90932000D01*
D63*
X142332000Y-71132000D02*
X148300000Y-77100000D01*
D65*
X128590000Y-81710000D02*
X128560000Y-81680000D01*
D67*
X143774160Y-90932000D02*
X143774160Y-90453781D01*
D63*
X138968000Y-71132000D02*
X142332000Y-71132000D01*
D66*
X119037570Y-69301563D02*
X119037570Y-75297430D01*
X119037570Y-75297430D02*
X119035000Y-75300000D01*
D67*
X173781468Y-82714817D02*
X174885183Y-82714817D01*
D66*
X137580209Y-88987791D02*
X145240150Y-88987791D01*
D67*
X143774160Y-90453781D02*
X145240150Y-88987791D01*
D63*
X169445000Y-79365000D02*
X168515000Y-79365000D01*
D68*
X148500000Y-77100000D02*
X148500000Y-77008440D01*
D63*
X119380000Y-76708000D02*
X119035000Y-76363000D01*
D65*
X128560000Y-81680000D02*
X126760000Y-81680000D01*
D68*
X128465516Y-57615537D02*
X129141937Y-57615537D01*
D65*
X128617917Y-58259917D02*
X128617917Y-57767938D01*
X148844000Y-90288358D02*
X148844000Y-91078229D01*
D63*
X168515000Y-79365000D02*
X168280000Y-79600000D01*
D68*
X129141937Y-57615537D02*
X129570599Y-58044199D01*
D63*
X168280000Y-79600000D02*
X167640001Y-80239999D01*
D67*
X174885183Y-82714817D02*
X175000000Y-82600000D01*
X148185362Y-87526638D02*
X148185362Y-87725395D01*
D65*
X147671022Y-77928978D02*
X147671022Y-78019868D01*
X147720229Y-92202000D02*
X144069790Y-92202000D01*
D63*
X156898573Y-60530000D02*
X158890000Y-60530000D01*
X126746000Y-73406000D02*
X127352000Y-72800000D01*
D65*
X148844000Y-91078229D02*
X147720229Y-92202000D01*
X124684100Y-67538600D02*
X125072469Y-67926969D01*
D67*
X175000000Y-82600000D02*
X175000000Y-81700800D01*
D65*
X148383850Y-89828208D02*
X148844000Y-90288358D01*
X124129800Y-67538600D02*
X124684100Y-67538600D01*
D67*
X148844000Y-90364558D02*
X148409250Y-89929808D01*
D68*
%TO.N,Net-(U2-VCP)*%
X125499200Y-63924100D02*
X125499200Y-62618800D01*
X125499200Y-62618800D02*
X125531600Y-62586400D01*
%TO.N,Net-(U2-V)*%
X124481600Y-60736400D02*
X123718400Y-60736400D01*
X123718400Y-60736400D02*
X123698000Y-60756800D01*
D66*
%TO.N,Net-(U2-W)*%
X129209800Y-66243200D02*
X130070599Y-65382401D01*
X123901200Y-66243200D02*
X129209800Y-66243200D01*
X122692299Y-63932415D02*
X122692299Y-65034299D01*
X122692299Y-65034299D02*
X123901200Y-66243200D01*
X130070599Y-65382401D02*
X130070599Y-63370400D01*
D68*
%TO.N,Net-(U2-1.8v_out)*%
X125931600Y-59698900D02*
X125931600Y-59281684D01*
X131570599Y-59718149D02*
X131570599Y-58970400D01*
X132200000Y-62540999D02*
X132000000Y-62740999D01*
X128280450Y-58928000D02*
X129550450Y-60198000D01*
X126285284Y-58928000D02*
X128280450Y-58928000D01*
X129550450Y-60198000D02*
X131090748Y-60198000D01*
X125931600Y-59281684D02*
X126285284Y-58928000D01*
X132000000Y-62740999D02*
X132000000Y-62940999D01*
X131868400Y-58970400D02*
X132200000Y-59302000D01*
X132000000Y-62940999D02*
X131570599Y-63370400D01*
X131090748Y-60198000D02*
X131570599Y-59718149D01*
X131570599Y-58970400D02*
X131868400Y-58970400D01*
X132200000Y-59302000D02*
X132200000Y-62540999D01*
D66*
%TO.N,Net-(U2-U)*%
X122707923Y-58313966D02*
X122707923Y-57632077D01*
X122707923Y-57632077D02*
X124190000Y-56150000D01*
X124190000Y-56150000D02*
X129632200Y-56150000D01*
X129632200Y-56150000D02*
X130570599Y-57088399D01*
X130570599Y-57088399D02*
X130570599Y-58970400D01*
D67*
%TO.N,Net-(U3-in-1)*%
X123918550Y-90673500D02*
X122602301Y-89357251D01*
X122602301Y-89357251D02*
X122602301Y-88288832D01*
X125000000Y-90673500D02*
X123918550Y-90673500D01*
X129594312Y-88977500D02*
X129979524Y-88592288D01*
X129979524Y-88592288D02*
X129979524Y-87726458D01*
X129427830Y-88977500D02*
X129594312Y-88977500D01*
%TO.N,Net-(U3-in+1)*%
X130426719Y-88653971D02*
X130429524Y-88651166D01*
X130426719Y-89053707D02*
X130426719Y-88653971D01*
X123663469Y-91350000D02*
X121302301Y-88988832D01*
X130429524Y-87776458D02*
X130479524Y-87726458D01*
X121302301Y-88988832D02*
X121302301Y-88288832D01*
X125600000Y-91350000D02*
X123663469Y-91350000D01*
X130327526Y-89152900D02*
X130426719Y-89053707D01*
X130429524Y-88651166D02*
X130429524Y-87776458D01*
%TO.N,Net-(U3-ref_1)*%
X131479524Y-83326458D02*
X131723542Y-83326458D01*
D68*
X131775200Y-88073800D02*
X131479524Y-87778124D01*
D67*
X131723542Y-83326458D02*
X132100000Y-82950000D01*
D68*
X131479524Y-87778124D02*
X131479524Y-87726458D01*
X125839938Y-83352260D02*
X125839938Y-84056593D01*
X125943348Y-83248850D02*
X125839938Y-83352260D01*
D67*
%TO.N,Net-(U3-in+2)*%
X129420000Y-80370000D02*
X130979524Y-81929524D01*
X130979524Y-81929524D02*
X130979524Y-83326458D01*
X121316183Y-82673249D02*
X121316183Y-82323249D01*
X121316183Y-82323249D02*
X123269432Y-80370000D01*
X123269432Y-80370000D02*
X129420000Y-80370000D01*
%TO.N,Net-(U3-in-2)*%
X130479524Y-82429524D02*
X130479524Y-83326458D01*
X128820000Y-80770000D02*
X130479524Y-82429524D01*
X123980000Y-80770000D02*
X128820000Y-80770000D01*
X122616183Y-82673249D02*
X122616183Y-82133817D01*
X122616183Y-82133817D02*
X123980000Y-80770000D01*
D66*
%TO.N,Net-(U4-in+1)*%
X130570599Y-65796801D02*
X130570599Y-63370400D01*
X129616200Y-66751200D02*
X130570599Y-65796801D01*
X121392299Y-64682415D02*
X123461084Y-66751200D01*
X123461084Y-66751200D02*
X129616200Y-66751200D01*
X121392299Y-63932415D02*
X121392299Y-64682415D01*
D68*
%TO.N,Net-(U5-V)*%
X124391602Y-85094001D02*
X123628402Y-85094001D01*
X123628402Y-85094001D02*
X123608002Y-85114401D01*
%TO.N,/motor_controls/standby*%
X126170000Y-68893000D02*
X126170000Y-78511269D01*
X127421731Y-79763000D02*
X126170000Y-78511269D01*
X126921361Y-59686400D02*
X126731600Y-59686400D01*
X127740000Y-82945603D02*
X126641602Y-84044001D01*
X127104261Y-59503500D02*
X126921361Y-59686400D01*
X127740000Y-82470000D02*
X127740000Y-82945603D01*
X126492000Y-68571000D02*
X126170000Y-68893000D01*
X126492000Y-67640200D02*
X126492000Y-68571000D01*
%TO.N,+5V*%
X161970000Y-88369991D02*
X161970000Y-89770000D01*
D63*
X150916079Y-58701362D02*
X150906078Y-58691361D01*
D65*
X139599292Y-66070708D02*
X139063999Y-66606001D01*
D63*
X149743141Y-61924299D02*
X150916079Y-60751361D01*
D68*
X167445991Y-87630000D02*
X166770000Y-88305991D01*
D63*
X164655001Y-84264999D02*
X164338000Y-84582000D01*
X150916079Y-59790000D02*
X150916079Y-58701362D01*
D68*
X161230009Y-87630000D02*
X161970000Y-88369991D01*
X168402000Y-87630000D02*
X167445991Y-87630000D01*
D65*
X168500000Y-85394001D02*
X169140001Y-84754000D01*
X139063999Y-66606001D02*
X139060000Y-66606001D01*
D63*
X150916079Y-60751361D02*
X150916079Y-59790000D01*
X164655001Y-79405000D02*
X164655001Y-84264999D01*
D65*
X139599292Y-65785500D02*
X139599292Y-66070708D01*
X168500000Y-85900000D02*
X168500000Y-85394001D01*
D68*
X160528000Y-87630000D02*
X161230009Y-87630000D01*
D66*
X139006001Y-66616001D02*
X138820000Y-66616001D01*
D63*
X150916079Y-59790000D02*
X150070000Y-59790000D01*
D66*
X140401910Y-68011910D02*
X139006001Y-66616001D01*
D63*
X149743141Y-63081128D02*
X149743141Y-61924299D01*
D66*
X140401910Y-68155397D02*
X140401910Y-68011910D01*
D68*
X166770000Y-88305991D02*
X166770000Y-89770000D01*
D63*
%TO.N,Net-(C11-Pad2)*%
X149016079Y-58701362D02*
X149006078Y-58691361D01*
X149016079Y-60751361D02*
X147521361Y-60751361D01*
X147491361Y-58691361D02*
X147475000Y-58675000D01*
X147485000Y-60715000D02*
X147485000Y-58685000D01*
X146825000Y-62475000D02*
X146825000Y-61375000D01*
X149006078Y-58691361D02*
X147491361Y-58691361D01*
X146825000Y-61375000D02*
X147485000Y-60715000D01*
X149016079Y-60751361D02*
X149016079Y-58701362D01*
X147485000Y-58685000D02*
X147475000Y-58675000D01*
X147521361Y-60751361D02*
X147485000Y-60715000D01*
%TO.N,Net-(U7-SW)*%
X149090268Y-66984001D02*
X149603141Y-66471128D01*
X145856000Y-66984001D02*
X149090268Y-66984001D01*
X145856000Y-66984001D02*
X146911000Y-66984001D01*
X147086000Y-68884000D02*
X146442000Y-69528000D01*
X146911000Y-66984001D02*
X147086000Y-67159001D01*
X147086000Y-67159001D02*
X147086000Y-68884000D01*
X146442000Y-69528000D02*
X145722000Y-69528000D01*
D65*
%TO.N,Net-(U7-VBST)*%
X144204500Y-69528000D02*
X143822000Y-69145500D01*
X143822000Y-68600001D02*
X143156000Y-67934001D01*
X143822000Y-69145500D02*
X143822000Y-68600001D01*
%TO.N,Net-(U7-VFB)*%
X139324867Y-68273354D02*
X140520757Y-69469244D01*
X141400000Y-67296001D02*
X140720000Y-66616001D01*
X141302000Y-66034001D02*
X143156000Y-66034001D01*
X139324867Y-68166496D02*
X139324867Y-68273354D01*
X141400000Y-67900000D02*
X141400000Y-67296001D01*
X141400000Y-68590000D02*
X141400000Y-67900000D01*
X140720000Y-66616001D02*
X141302000Y-66034001D01*
X140520757Y-69469244D02*
X141400000Y-68590000D01*
D68*
%TO.N,usb_d-*%
X156898000Y-75977000D02*
X158375000Y-74500000D01*
D63*
X160940316Y-85046421D02*
X159722421Y-85046421D01*
D68*
X158375000Y-74500000D02*
X158890000Y-74500000D01*
D63*
X161356561Y-84630176D02*
X160940316Y-85046421D01*
D68*
X161356561Y-84630176D02*
X161356561Y-83886560D01*
X161356561Y-83886560D02*
X156898000Y-79427999D01*
X156898000Y-79427999D02*
X156898000Y-75977000D01*
%TO.N,usb_d+*%
X157250000Y-76250000D02*
X157730000Y-75770000D01*
D63*
X162791634Y-83161084D02*
X162791634Y-82231208D01*
D68*
X157250000Y-79282196D02*
X157250000Y-76250000D01*
X161739449Y-83771645D02*
X157250000Y-79282196D01*
D63*
X162181073Y-83771645D02*
X162791634Y-83161084D01*
D68*
X162181073Y-83771645D02*
X161739449Y-83771645D01*
X157730000Y-75770000D02*
X158890000Y-75770000D01*
D65*
%TO.N,m1_enc_cs*%
X176312000Y-71882000D02*
X176390000Y-71960000D01*
D66*
X122698437Y-69301563D02*
X122851991Y-69148009D01*
X122037570Y-69301563D02*
X122698437Y-69301563D01*
D68*
X175006000Y-71882000D02*
X176312000Y-71882000D01*
%TO.N,m2_enc_cs*%
X122035000Y-73775000D02*
X122035000Y-75300000D01*
X121920000Y-73660000D02*
X122035000Y-73775000D01*
D65*
X173228000Y-76893000D02*
X173355000Y-77020000D01*
X173228000Y-75692000D02*
X173228000Y-76893000D01*
D68*
%TO.N,m2_uh*%
X142748000Y-81065880D02*
X142748000Y-81788000D01*
X133486000Y-91050000D02*
X132736000Y-91050000D01*
X162651000Y-78046000D02*
X163195000Y-77502000D01*
X142748000Y-81788000D02*
X133486000Y-91050000D01*
X163195000Y-77502000D02*
X163195000Y-77020000D01*
X146106940Y-77706940D02*
X142748000Y-81065880D01*
X125839938Y-88489938D02*
X125839938Y-86944093D01*
X132736000Y-91050000D02*
X128400000Y-91050000D01*
X146106940Y-77706940D02*
X144212427Y-75812427D01*
X128400000Y-91050000D02*
X125839938Y-88489938D01*
X158854000Y-78046000D02*
X162651000Y-78046000D01*
X144212427Y-75812427D02*
X140923006Y-75812427D01*
X158600000Y-78300000D02*
X158854000Y-78046000D01*
%TO.N,m2_ul*%
X140250000Y-78750000D02*
X140250000Y-78540898D01*
X139200000Y-80800000D02*
X133950000Y-86050000D01*
X133950000Y-86050000D02*
X129300000Y-86050000D01*
X139200000Y-79800000D02*
X139200000Y-80800000D01*
X129055907Y-86294093D02*
X127289938Y-86294093D01*
X168148000Y-76893000D02*
X168275000Y-77020000D01*
X129300000Y-86050000D02*
X129055907Y-86294093D01*
X168148000Y-75692000D02*
X168148000Y-76893000D01*
X140250000Y-78540898D02*
X137516133Y-75807031D01*
X140250000Y-78750000D02*
X139200000Y-79800000D01*
%TO.N,m2_vh*%
X160621500Y-78600000D02*
X163367000Y-78600000D01*
X144531940Y-78281940D02*
X142279771Y-78281940D01*
X142279771Y-78281940D02*
X139819775Y-75821944D01*
X141800000Y-81013880D02*
X141800000Y-81720000D01*
X141800000Y-81720000D02*
X133070000Y-90450000D01*
X126239938Y-87889938D02*
X126239938Y-86944093D01*
X160600000Y-78621500D02*
X160621500Y-78600000D01*
X163367000Y-78600000D02*
X164465000Y-77502000D01*
X128800000Y-90450000D02*
X126239938Y-87889938D01*
X164465000Y-77502000D02*
X164465000Y-77020000D01*
X133070000Y-90450000D02*
X128800000Y-90450000D01*
X144531940Y-78281940D02*
X141800000Y-81013880D01*
%TO.N,m2_vl*%
X170688000Y-76893000D02*
X170815000Y-77020000D01*
X133050000Y-84850000D02*
X129600000Y-84850000D01*
X136900000Y-79300000D02*
X136900000Y-81000000D01*
X129444093Y-84694093D02*
X127289938Y-84694093D01*
X136900000Y-81000000D02*
X133050000Y-84850000D01*
X135250000Y-75808937D02*
X135252962Y-75805975D01*
X170688000Y-75692000D02*
X170688000Y-76893000D01*
X135500000Y-77900000D02*
X135500000Y-76497804D01*
X136900000Y-79300000D02*
X135500000Y-77900000D01*
X129600000Y-84850000D02*
X129444093Y-84694093D01*
X135500000Y-76497804D02*
X135250000Y-76247804D01*
X135250000Y-76247804D02*
X135250000Y-75808937D01*
%TO.N,m2_wh*%
X142113440Y-79255889D02*
X138669287Y-75811736D01*
X129110010Y-89728400D02*
X126639938Y-87258328D01*
X126639938Y-87258328D02*
X126639938Y-86944093D01*
X142113440Y-79513440D02*
X142113440Y-79686560D01*
X165608000Y-76893000D02*
X165735000Y-77020000D01*
X140900000Y-81604000D02*
X132775600Y-89728400D01*
X132775600Y-89728400D02*
X132025600Y-89728400D01*
X165608000Y-75692000D02*
X165608000Y-76893000D01*
X142113440Y-79686560D02*
X140900000Y-80900000D01*
X132025600Y-89728400D02*
X129110010Y-89728400D01*
X142113440Y-79513440D02*
X142113440Y-79255889D01*
X140900000Y-80900000D02*
X140900000Y-81604000D01*
%TO.N,m2_wl*%
X169418000Y-75692000D02*
X169418000Y-76893000D01*
X128096321Y-85450000D02*
X127652228Y-85894093D01*
X169418000Y-76893000D02*
X169545000Y-77020000D01*
X127652228Y-85894093D02*
X127289938Y-85894093D01*
X138500000Y-79000000D02*
X138500000Y-80500000D01*
X138500000Y-80500000D02*
X133550000Y-85450000D01*
X136395397Y-76895397D02*
X136395397Y-75803928D01*
X133550000Y-85450000D02*
X128096321Y-85450000D01*
X138500000Y-79000000D02*
X136395397Y-76895397D01*
%TO.N,m1_uh*%
X154391439Y-67300500D02*
X154391439Y-67553408D01*
X154391439Y-67553408D02*
X157864000Y-71025969D01*
D67*
X130769483Y-68869606D02*
X131150000Y-68489089D01*
D68*
X127000000Y-64944975D02*
X125931600Y-63876575D01*
X157864000Y-71416000D02*
X158408000Y-71960000D01*
X157864000Y-71025969D02*
X157864000Y-71416000D01*
X127000000Y-65500000D02*
X127000000Y-64944975D01*
X125931600Y-63876575D02*
X125931600Y-62586400D01*
D67*
X131150000Y-68489089D02*
X131150000Y-67150000D01*
D68*
X158408000Y-71960000D02*
X158890000Y-71960000D01*
%TO.N,m1_ul*%
X157200000Y-66700000D02*
X157200000Y-66942000D01*
X131909969Y-68769677D02*
X131909969Y-68866889D01*
X127381600Y-62611600D02*
X127381600Y-61936400D01*
X158408000Y-68150000D02*
X158890000Y-68150000D01*
X132789823Y-65500000D02*
X132789823Y-67889823D01*
X157200000Y-66942000D02*
X158408000Y-68150000D01*
X127711200Y-62941200D02*
X127939800Y-62941200D01*
X132789823Y-67889823D02*
X131909969Y-68769677D01*
X127381600Y-62611600D02*
X127711200Y-62941200D01*
%TO.N,m1_vh*%
X154585969Y-66585969D02*
X157864000Y-69864000D01*
X133700000Y-68215949D02*
X133052632Y-68863317D01*
X133700000Y-66700000D02*
X133700000Y-68215949D01*
X128063385Y-64973200D02*
X126331600Y-63241415D01*
X158408000Y-70690000D02*
X158890000Y-70690000D01*
X157864000Y-70146000D02*
X158408000Y-70690000D01*
X126331600Y-63241415D02*
X126331600Y-62586400D01*
X153900000Y-66585969D02*
X154585969Y-66585969D01*
X157864000Y-69864000D02*
X157864000Y-70146000D01*
X128063385Y-65282085D02*
X128063385Y-64973200D01*
X128400000Y-65618700D02*
X128063385Y-65282085D01*
%TO.N,m1_vl*%
X157000000Y-64075500D02*
X158625500Y-64075500D01*
X127939800Y-59503500D02*
X127939800Y-59512200D01*
X127381600Y-60070400D02*
X127381600Y-60336400D01*
X137700000Y-67636343D02*
X137700000Y-63400000D01*
X127939800Y-59512200D02*
X127381600Y-60070400D01*
X158625500Y-64075500D02*
X158890000Y-64340000D01*
X136472512Y-68863831D02*
X137700000Y-67636343D01*
%TO.N,m1_wh*%
X129446099Y-64700000D02*
X128845200Y-64700000D01*
X135600000Y-67457349D02*
X134192940Y-68864409D01*
X154693060Y-66006940D02*
X154906940Y-66006940D01*
X135600000Y-66075500D02*
X135600000Y-67457349D01*
X154906940Y-66006940D02*
X158320000Y-69420000D01*
X128845200Y-64700000D02*
X126731600Y-62586400D01*
X158320000Y-69420000D02*
X158890000Y-69420000D01*
%TO.N,m1_wl*%
X136631749Y-65431749D02*
X136100000Y-64900000D01*
X135331749Y-68865966D02*
X136631749Y-67565966D01*
X128230039Y-61100000D02*
X127793639Y-61536400D01*
X127793639Y-61536400D02*
X127381600Y-61536400D01*
X156200000Y-64600000D02*
X156231000Y-64600000D01*
X156883600Y-65252600D02*
X158532600Y-65252600D01*
X158532600Y-65252600D02*
X158890000Y-65610000D01*
X131600000Y-61100000D02*
X128230039Y-61100000D01*
X136100000Y-64900000D02*
X136100000Y-64100000D01*
X156231000Y-64600000D02*
X156883600Y-65252600D01*
X136631749Y-67565966D02*
X136631749Y-65431749D01*
D63*
%TO.N,Net-(U7-EN)*%
X144386000Y-65316400D02*
X143572500Y-64502900D01*
X143572500Y-64502900D02*
X143572500Y-64182000D01*
X144386000Y-66809001D02*
X144386000Y-65316400D01*
X143156000Y-66984001D02*
X144211000Y-66984001D01*
X144211000Y-66984001D02*
X144386000Y-66809001D01*
D68*
%TO.N,Net-(J11-CC1)*%
X160353656Y-86900000D02*
X161068000Y-86900000D01*
X159530161Y-87723495D02*
X160353656Y-86900000D01*
X161068000Y-86900000D02*
X163120000Y-88952000D01*
X163120000Y-88952000D02*
X163120000Y-89770000D01*
%TO.N,Net-(J11-DP1)*%
X164800000Y-87517500D02*
X164500000Y-87217500D01*
X165200000Y-87917500D02*
X165200000Y-89690000D01*
X164500000Y-86373371D02*
X162867189Y-84740560D01*
X164120000Y-89770000D02*
X164120000Y-88728674D01*
X162867189Y-84740560D02*
X162867189Y-84511033D01*
X165200000Y-89690000D02*
X165120000Y-89770000D01*
X164500000Y-87217500D02*
X164500000Y-86373371D01*
X164800000Y-87517500D02*
X165200000Y-87917500D01*
X164120000Y-88728674D02*
X164126101Y-88722573D01*
%TO.N,Net-(J11-DN1)*%
X164702101Y-88961161D02*
X164702101Y-88434752D01*
X163732000Y-86698801D02*
X163732000Y-87464651D01*
X164694000Y-89696000D02*
X164694000Y-88969262D01*
X162277158Y-85243959D02*
X163732000Y-86698801D01*
X164702101Y-88434752D02*
X163935013Y-87667664D01*
X163500000Y-87696651D02*
X163500000Y-89650000D01*
X164694000Y-88969262D02*
X164702101Y-88961161D01*
X163732000Y-87464651D02*
X163500000Y-87696651D01*
X164620000Y-89770000D02*
X164694000Y-89696000D01*
X163732000Y-87464651D02*
X163935013Y-87667664D01*
X163500000Y-89650000D02*
X163620000Y-89770000D01*
X162081803Y-85243959D02*
X162277158Y-85243959D01*
%TO.N,Net-(J11-CC2)*%
X166120000Y-88458188D02*
X166120000Y-89770000D01*
X167578188Y-87000000D02*
X166120000Y-88458188D01*
X168701729Y-87000000D02*
X167578188Y-87000000D01*
X169447456Y-87745727D02*
X168701729Y-87000000D01*
D63*
%TO.N,Net-(U1-GPIO0{slash}BOOT)*%
X176390000Y-77355000D02*
X176390000Y-75770000D01*
X172212000Y-87266000D02*
X172212000Y-81533000D01*
X173084000Y-94138000D02*
X173084000Y-88138000D01*
X172212000Y-81533000D02*
X176390000Y-77355000D01*
X173084000Y-88138000D02*
X172212000Y-87266000D01*
%TO.N,Net-(U1-EN)*%
X157073573Y-61900000D02*
X156723042Y-61549469D01*
X160100000Y-62300000D02*
X159700000Y-61900000D01*
D67*
X154686000Y-77564940D02*
X154686000Y-84490923D01*
X153860000Y-67924500D02*
X153390000Y-68394500D01*
X154686000Y-84490923D02*
X151024197Y-88152726D01*
X153390000Y-76268940D02*
X154686000Y-77564940D01*
D63*
X151024197Y-94152726D02*
X151024197Y-88152726D01*
D67*
X153390000Y-68394500D02*
X153390000Y-76268940D01*
X151024197Y-88152726D02*
X151024197Y-88400000D01*
D63*
X159700000Y-61900000D02*
X157073573Y-61900000D01*
D68*
%TO.N,m2_current_sense_u*%
X129980601Y-84075284D02*
X129980601Y-83328001D01*
X156464000Y-71460500D02*
X158233500Y-73230000D01*
X130232775Y-84327458D02*
X129980601Y-84075284D01*
X133200000Y-82750000D02*
X133200000Y-82853731D01*
X133200000Y-82853731D02*
X131726273Y-84327458D01*
X131726273Y-84327458D02*
X130232775Y-84327458D01*
X158233500Y-73230000D02*
X158890000Y-73230000D01*
%TO.N,m2_current_sense_w*%
X129694542Y-86725458D02*
X129479524Y-86940476D01*
X166878000Y-75692000D02*
X166878000Y-76893000D01*
X166878000Y-76893000D02*
X167005000Y-77020000D01*
X129480601Y-87126200D02*
X129480601Y-87728001D01*
X133924542Y-86725458D02*
X129694542Y-86725458D01*
X129448827Y-87094426D02*
X129480601Y-87126200D01*
X139400000Y-82100000D02*
X134774542Y-86725458D01*
X134774542Y-86725458D02*
X133924542Y-86725458D01*
X129479524Y-86940476D02*
X129479524Y-87726458D01*
%TO.N,Net-(J9-Pin_6)*%
X176390000Y-69420000D02*
X177092770Y-69420000D01*
X181582770Y-73910000D02*
X182598000Y-73910000D01*
X177092770Y-69420000D02*
X181582770Y-73910000D01*
D67*
%TO.N,Net-(J10-Pin_1)*%
X176200000Y-62880000D02*
X176390000Y-63070000D01*
X175480000Y-62880000D02*
X176200000Y-62880000D01*
X174940000Y-63420000D02*
X175480000Y-62880000D01*
%TO.N,Net-(J10-Pin_2)*%
X182515000Y-60882200D02*
X179057200Y-64340000D01*
X179057200Y-64340000D02*
X176390000Y-64340000D01*
D68*
%TO.N,m1_current_sense_w*%
X158714000Y-63246000D02*
X158890000Y-63070000D01*
X130070599Y-57730318D02*
X130070599Y-58970400D01*
X129908326Y-57568045D02*
X130070599Y-57730318D01*
X157734000Y-63246000D02*
X158714000Y-63246000D01*
%TO.N,m1_current_sense_u*%
X158377403Y-66880000D02*
X158890000Y-66880000D01*
X129421099Y-63280167D02*
X129511332Y-63370400D01*
X157325503Y-65828100D02*
X158377403Y-66880000D01*
X129511332Y-63370400D02*
X129570599Y-63370400D01*
D66*
%TO.N,Net-(U4-in+2)*%
X121407923Y-58313966D02*
X121407923Y-57563966D01*
X131070599Y-56750199D02*
X131070599Y-58970400D01*
X121407923Y-57563966D02*
X123331889Y-55640000D01*
X123331889Y-55640000D02*
X129960400Y-55640000D01*
X129960400Y-55640000D02*
X131070599Y-56750199D01*
D68*
%TO.N,enc_scl*%
X177292000Y-73230000D02*
X176390000Y-73230000D01*
X175006000Y-73152000D02*
X176312000Y-73152000D01*
X176229864Y-81603353D02*
X178308000Y-79525217D01*
X178308000Y-79525217D02*
X178308000Y-74246000D01*
X178308000Y-74246000D02*
X177292000Y-73230000D01*
D66*
X121037570Y-75297430D02*
X121035000Y-75300000D01*
D65*
X176312000Y-73152000D02*
X176390000Y-73230000D01*
D66*
X121037570Y-69301563D02*
X121037570Y-75297430D01*
D68*
%TO.N,enc_sda*%
X177116000Y-74500000D02*
X176390000Y-74500000D01*
X176230536Y-80395264D02*
X177800000Y-78825800D01*
D66*
X120037570Y-75297430D02*
X120035000Y-75300000D01*
D68*
X177800000Y-78825800D02*
X177800000Y-75184000D01*
D66*
X120037570Y-69301563D02*
X120037570Y-72644000D01*
D65*
X176312000Y-74422000D02*
X176390000Y-74500000D01*
D66*
X120037570Y-72644000D02*
X120037570Y-75297430D01*
D68*
X175006000Y-74422000D02*
X176312000Y-74422000D01*
X177800000Y-75184000D02*
X177116000Y-74500000D01*
D67*
%TO.N,sda*%
X173251500Y-59700000D02*
X163200000Y-59700000D01*
X173482000Y-59930500D02*
X173251500Y-59700000D01*
X176164250Y-61574250D02*
X176390000Y-61800000D01*
X148885362Y-88182638D02*
X148468000Y-88600000D01*
X152840000Y-61480000D02*
X152840000Y-67160000D01*
X152840000Y-67160000D02*
X152170000Y-67830000D01*
X163200000Y-59700000D02*
X161412000Y-57912000D01*
X148885362Y-87842638D02*
X148885362Y-88182638D01*
D66*
X136928360Y-92000050D02*
X137384310Y-92456000D01*
X137384310Y-92456000D02*
X141732000Y-92456000D01*
D67*
X145165470Y-89662000D02*
X145760941Y-89662000D01*
X161412000Y-57912000D02*
X156408000Y-57912000D01*
X153295307Y-83432693D02*
X148885362Y-87842638D01*
X144769840Y-90057630D02*
X145165470Y-89662000D01*
X146435150Y-88768850D02*
X146812000Y-88392000D01*
X144769840Y-90932000D02*
X144769840Y-90057630D01*
D66*
X136928360Y-91075680D02*
X136928360Y-92000050D01*
D67*
X152170000Y-78845000D02*
X153295307Y-79970307D01*
X152170000Y-67830000D02*
X152170000Y-78845000D01*
X153295307Y-79970307D02*
X153295307Y-83432693D01*
X148468000Y-88600000D02*
X148300000Y-88600000D01*
X146435150Y-88987791D02*
X146435150Y-88768850D01*
X145760941Y-89662000D02*
X146435150Y-88987791D01*
X175125750Y-61574250D02*
X176164250Y-61574250D01*
X156408000Y-57912000D02*
X152840000Y-61480000D01*
D66*
X146812000Y-88392000D02*
X147020000Y-88600000D01*
X147020000Y-88600000D02*
X148300000Y-88600000D01*
D67*
%TO.N,scl*%
X145770600Y-90932000D02*
X145770600Y-90703400D01*
X145770600Y-90703400D02*
X146645792Y-89828208D01*
X146645792Y-89828208D02*
X147295792Y-89828208D01*
X176120000Y-60800000D02*
X176390000Y-60530000D01*
D66*
X143773305Y-93472000D02*
X144780000Y-93472000D01*
X146285598Y-91440000D02*
X145831373Y-90985775D01*
D67*
X152770000Y-68240000D02*
X153260000Y-67750000D01*
X154027514Y-83872486D02*
X154027514Y-78590529D01*
X153260000Y-67750000D02*
X153260000Y-62181830D01*
X162530000Y-60800000D02*
X176120000Y-60800000D01*
X148099000Y-89025000D02*
X148875000Y-89025000D01*
X152770000Y-77333015D02*
X152770000Y-68240000D01*
X154027514Y-78590529D02*
X152770000Y-77333015D01*
X153260000Y-62181830D02*
X156931830Y-58510000D01*
D66*
X146812000Y-91440000D02*
X146285598Y-91440000D01*
X141376985Y-91075680D02*
X143773305Y-93472000D01*
D67*
X147295792Y-89828208D02*
X148099000Y-89025000D01*
X156931830Y-58510000D02*
X160240000Y-58510000D01*
D66*
X137929120Y-91075680D02*
X141376985Y-91075680D01*
D67*
X148875000Y-89025000D02*
X154027514Y-83872486D01*
X160240000Y-58510000D02*
X162530000Y-60800000D01*
D68*
%TO.N,gpio38*%
X180930000Y-76450000D02*
X182344000Y-76450000D01*
X179750000Y-76250000D02*
X180730000Y-76250000D01*
D65*
X150900000Y-80010000D02*
X150853889Y-80056111D01*
X150853889Y-80056111D02*
X149602054Y-80056111D01*
D68*
X180730000Y-76250000D02*
X180930000Y-76450000D01*
X179750000Y-79500000D02*
X179750000Y-76250000D01*
X179012432Y-72410432D02*
X177292000Y-70690000D01*
X177770000Y-81480000D02*
X179750000Y-79500000D01*
X177292000Y-70690000D02*
X176390000Y-70690000D01*
X179012432Y-75512432D02*
X179012432Y-72410432D01*
X179750000Y-76250000D02*
X179012432Y-75512432D01*
D65*
%TO.N,Net-(D2-K)*%
X144932658Y-86282843D02*
X145143406Y-86282843D01*
X146304000Y-85122249D02*
X146304000Y-84337350D01*
X146304000Y-84337350D02*
X145748052Y-83781402D01*
X145143406Y-86282843D02*
X146304000Y-85122249D01*
%TO.N,Net-(D1-K)*%
X144924463Y-87422886D02*
X146061420Y-87422886D01*
X146061420Y-87422886D02*
X147705611Y-85778695D01*
%TO.N,Net-(D1-A)*%
X150023988Y-83476012D02*
X150316269Y-83476012D01*
X149164022Y-84335978D02*
X150023988Y-83476012D01*
%TO.N,Net-(D2-A)*%
X147305970Y-82199163D02*
X147459002Y-82199163D01*
X147459002Y-82199163D02*
X148682816Y-80975349D01*
%TO.N,Net-(D3-K)*%
X145034000Y-85051204D02*
X145034000Y-84582000D01*
X144272000Y-83820000D02*
X144272000Y-82080705D01*
X144272000Y-82080705D02*
X144001476Y-81810181D01*
X145034000Y-84582000D02*
X144272000Y-83820000D01*
X144925100Y-85160104D02*
X145034000Y-85051204D01*
%TO.N,Net-(D3-A)*%
X145451044Y-79477846D02*
X146243784Y-78685106D01*
X145451044Y-80360613D02*
X145451044Y-79477846D01*
D68*
%TO.N,Net-(J9-Pin_9)*%
X181664000Y-65610000D02*
X182344000Y-66290000D01*
X176390000Y-65610000D02*
X181664000Y-65610000D01*
%TO.N,Net-(J9-Pin_8)*%
X176390000Y-66880000D02*
X180648000Y-66880000D01*
X180648000Y-66880000D02*
X182598000Y-68830000D01*
%TO.N,Net-(J9-Pin_7)*%
X180844000Y-71370000D02*
X182344000Y-71370000D01*
X177624000Y-68150000D02*
X180844000Y-71370000D01*
X176390000Y-68150000D02*
X177624000Y-68150000D01*
D65*
%TO.N,gpio47*%
X152000000Y-81542281D02*
X151485507Y-82056774D01*
D68*
X155299500Y-71934333D02*
X155299500Y-82000000D01*
X172085000Y-77020000D02*
X172085000Y-75819000D01*
X154144667Y-70779500D02*
X155299500Y-71934333D01*
X172085000Y-75819000D02*
X171958000Y-75692000D01*
D65*
X152000000Y-81000000D02*
X152000000Y-81542281D01*
D68*
X171958000Y-76893000D02*
X172085000Y-77020000D01*
%TD*%
%TA.AperFunction,Conductor*%
%TO.N,+BATT*%
G36*
X124059041Y-85390186D02*
G01*
X124104796Y-85442990D01*
X124116002Y-85494501D01*
X124116002Y-85545765D01*
X124096317Y-85612804D01*
X124047404Y-85656700D01*
X124046559Y-85657122D01*
X124015349Y-85667804D01*
X123963843Y-85678049D01*
X123963836Y-85678052D01*
X123909922Y-85714076D01*
X123909921Y-85714077D01*
X123873897Y-85767991D01*
X123873894Y-85767997D01*
X123864438Y-85815538D01*
X123864438Y-85972647D01*
X123864743Y-85975745D01*
X123864438Y-85977353D01*
X123864438Y-85978737D01*
X123864176Y-85978737D01*
X123855847Y-86022646D01*
X123356200Y-85522999D01*
X123372387Y-85517736D01*
X123658802Y-85470001D01*
X123952424Y-85376363D01*
X123990099Y-85370501D01*
X123992002Y-85370501D01*
X124059041Y-85390186D01*
G37*
%TD.AperFunction*%
%TD*%
%TA.AperFunction,Conductor*%
%TO.N,GND*%
G36*
X120574978Y-61348060D02*
G01*
X120628791Y-61392623D01*
X120649969Y-61459206D01*
X120650000Y-61461977D01*
X120650000Y-62856749D01*
X120630315Y-62923788D01*
X120577511Y-62969543D01*
X120515258Y-62980283D01*
X119492159Y-62891318D01*
X119471344Y-62887701D01*
X118608843Y-62660727D01*
X118549020Y-62624630D01*
X118518210Y-62561920D01*
X118516400Y-62540810D01*
X118516400Y-62154236D01*
X118536085Y-62087197D01*
X118584943Y-62043328D01*
X119718929Y-61476335D01*
X119753985Y-61464935D01*
X120505615Y-61339664D01*
X120574978Y-61348060D01*
G37*
%TD.AperFunction*%
%TD*%
%TA.AperFunction,Conductor*%
%TO.N,Net-(U2-U)*%
G36*
X123660170Y-57835085D02*
G01*
X123672257Y-57843894D01*
X125186051Y-59093787D01*
X125186558Y-59094536D01*
X124612400Y-58623200D01*
X123901200Y-59385200D01*
X124092698Y-59561753D01*
X124086317Y-59556903D01*
X123977513Y-59459773D01*
X123234473Y-58796456D01*
X123234471Y-58796456D01*
X123234470Y-58796455D01*
X122595839Y-58800713D01*
X122528669Y-58781476D01*
X122482564Y-58728978D01*
X122472159Y-58659888D01*
X122484752Y-58619982D01*
X122863539Y-57883825D01*
X122911715Y-57833220D01*
X122973588Y-57816559D01*
X123593099Y-57815513D01*
X123660170Y-57835085D01*
G37*
%TD.AperFunction*%
%TD*%
%TA.AperFunction,Conductor*%
%TO.N,+BATT*%
G36*
X123946690Y-61665890D02*
G01*
X123943164Y-61684482D01*
X123937935Y-61693703D01*
X123698000Y-62077600D01*
X123175463Y-62932660D01*
X123123709Y-62979599D01*
X123069656Y-62992000D01*
X121536000Y-62992000D01*
X121468961Y-62972315D01*
X121423206Y-62919511D01*
X121412000Y-62868000D01*
X121412000Y-61439600D01*
X121431685Y-61372561D01*
X121484489Y-61326806D01*
X121536000Y-61315600D01*
X123139200Y-61315600D01*
X123427329Y-61171535D01*
X123446199Y-61165399D01*
X123946690Y-61665890D01*
G37*
%TD.AperFunction*%
%TD*%
%TA.AperFunction,Conductor*%
%TO.N,Net-(U2-U)*%
G36*
X125186559Y-59094537D02*
G01*
X125225212Y-59151648D01*
X125231100Y-59189404D01*
X125231100Y-59714244D01*
X125233864Y-59729031D01*
X125241545Y-59770121D01*
X125234513Y-59839636D01*
X125191016Y-59894314D01*
X125124862Y-59916796D01*
X125119073Y-59916904D01*
X125063517Y-59916643D01*
X124996571Y-59896643D01*
X124975343Y-59879236D01*
X124691600Y-59588400D01*
X124601206Y-59588400D01*
X124566271Y-59583377D01*
X124513562Y-59567900D01*
X124513561Y-59567900D01*
X124369639Y-59567900D01*
X124369638Y-59567900D01*
X124316929Y-59583377D01*
X124281994Y-59588400D01*
X124168895Y-59588400D01*
X124101856Y-59568715D01*
X124092698Y-59561753D01*
X123901200Y-59385200D01*
X124612400Y-58623200D01*
X125186559Y-59094537D01*
G37*
%TD.AperFunction*%
%TD*%
%TA.AperFunction,Conductor*%
%TO.N,Net-(U3-in-1)*%
G36*
X125108411Y-86684809D02*
G01*
X125154413Y-86737398D01*
X125165862Y-86789383D01*
X125165869Y-86805217D01*
X125150923Y-86856198D01*
X125153418Y-86857232D01*
X125148744Y-86868515D01*
X125131950Y-86952943D01*
X125131948Y-86952959D01*
X125127286Y-86976400D01*
X125130319Y-86991647D01*
X125132702Y-87015840D01*
X125132702Y-87400585D01*
X125113017Y-87467624D01*
X125088123Y-87495812D01*
X124511551Y-87976682D01*
X124510915Y-87976957D01*
X124471470Y-88009839D01*
X123811202Y-87197201D01*
X123991147Y-87031298D01*
X124050796Y-87003299D01*
X124104661Y-87006867D01*
X124177318Y-87028201D01*
X124239640Y-87046501D01*
X124239641Y-87046501D01*
X124383564Y-87046501D01*
X124383564Y-87046500D01*
X124487986Y-87015840D01*
X124521649Y-87005956D01*
X124521650Y-87005955D01*
X124521655Y-87005954D01*
X124521658Y-87005951D01*
X124523288Y-87005208D01*
X124526800Y-87004443D01*
X124530165Y-87003456D01*
X124530235Y-87003696D01*
X124574803Y-86994001D01*
X124601602Y-86994001D01*
X124736044Y-86856198D01*
X124885345Y-86703163D01*
X124946250Y-86668924D01*
X124973516Y-86665757D01*
X125041281Y-86665439D01*
X125108411Y-86684809D01*
G37*
%TD.AperFunction*%
%TD*%
%TA.AperFunction,Conductor*%
%TO.N,Net-(U5-V)*%
G36*
X122418238Y-83912847D02*
G01*
X123714185Y-84689725D01*
X123761562Y-84741076D01*
X123771592Y-84769712D01*
X123774003Y-84780790D01*
X123776491Y-84790971D01*
X123776492Y-84790974D01*
X123819502Y-84871686D01*
X123865257Y-84924490D01*
X123882848Y-84942444D01*
X123907149Y-84956037D01*
X123956046Y-85005941D01*
X123970201Y-85074362D01*
X123945119Y-85139574D01*
X123888761Y-85180873D01*
X123884289Y-85182394D01*
X123618938Y-85267016D01*
X123601649Y-85271191D01*
X123338604Y-85315032D01*
X123308846Y-85322306D01*
X123308842Y-85322307D01*
X123308841Y-85322307D01*
X123304879Y-85323595D01*
X123290225Y-85328359D01*
X123290188Y-85328373D01*
X123273792Y-85333705D01*
X123273793Y-85333704D01*
X123273784Y-85333707D01*
X123273783Y-85333708D01*
X123245428Y-85345331D01*
X123245422Y-85345333D01*
X123245422Y-85345334D01*
X123085620Y-85425234D01*
X123050674Y-85436617D01*
X122875502Y-85465993D01*
X122854994Y-85467701D01*
X121828252Y-85467701D01*
X121816622Y-85466858D01*
X121816613Y-85466986D01*
X121812139Y-85466662D01*
X121812132Y-85466662D01*
X121319648Y-85466662D01*
X121315481Y-85467269D01*
X121305616Y-85468706D01*
X121287743Y-85470001D01*
X120709037Y-85470001D01*
X120691164Y-85468706D01*
X120681298Y-85467269D01*
X120677132Y-85466662D01*
X120184648Y-85466662D01*
X120180481Y-85467269D01*
X120170616Y-85468706D01*
X120152743Y-85470001D01*
X119594802Y-85470001D01*
X117182583Y-86676110D01*
X117127130Y-86689201D01*
X115535227Y-86689201D01*
X115468188Y-86669516D01*
X115443061Y-86648155D01*
X115054632Y-86216568D01*
X115024418Y-86153570D01*
X115022802Y-86133617D01*
X115022802Y-84962563D01*
X115042487Y-84895524D01*
X115059121Y-84874882D01*
X115443683Y-84490320D01*
X115505006Y-84456835D01*
X115531364Y-84454001D01*
X117359601Y-84454001D01*
X117359602Y-84454001D01*
X119170690Y-83900613D01*
X119206925Y-83895201D01*
X122354482Y-83895201D01*
X122418238Y-83912847D01*
G37*
%TD.AperFunction*%
%TD*%
%TA.AperFunction,Conductor*%
%TO.N,Net-(U4-in+2)*%
G36*
X120654441Y-57568053D02*
G01*
X120678657Y-57588413D01*
X121618897Y-58610413D01*
X121649800Y-58673077D01*
X121641919Y-58742501D01*
X121597755Y-58796643D01*
X121531331Y-58818313D01*
X121527642Y-58818368D01*
X120184616Y-58818368D01*
X117305830Y-59771915D01*
X117265387Y-59785311D01*
X117226397Y-59791600D01*
X115621362Y-59791600D01*
X115554323Y-59771915D01*
X115533681Y-59755281D01*
X115149119Y-59370719D01*
X115115634Y-59309396D01*
X115112800Y-59283038D01*
X115112800Y-58166044D01*
X115132485Y-58099005D01*
X115148491Y-58078995D01*
X115472458Y-57750371D01*
X115635177Y-57585315D01*
X115696260Y-57551393D01*
X115723482Y-57548368D01*
X120587402Y-57548368D01*
X120654441Y-57568053D01*
G37*
%TD.AperFunction*%
%TD*%
%TA.AperFunction,Conductor*%
%TO.N,+BATT*%
G36*
X124149039Y-61032585D02*
G01*
X124194794Y-61085389D01*
X124206000Y-61136900D01*
X124206000Y-61188164D01*
X124186315Y-61255203D01*
X124137400Y-61299100D01*
X124135762Y-61299918D01*
X124104555Y-61310599D01*
X124055504Y-61320356D01*
X124055498Y-61320359D01*
X124001584Y-61356383D01*
X124001583Y-61356384D01*
X123965559Y-61410298D01*
X123965556Y-61410304D01*
X123956100Y-61457845D01*
X123956100Y-61614952D01*
X123956187Y-61615836D01*
X123956100Y-61616294D01*
X123956100Y-61621044D01*
X123955199Y-61621044D01*
X123946690Y-61665890D01*
X123446198Y-61165398D01*
X123462385Y-61160135D01*
X123748800Y-61112400D01*
X124042422Y-61018762D01*
X124080097Y-61012900D01*
X124082000Y-61012900D01*
X124149039Y-61032585D01*
G37*
%TD.AperFunction*%
%TD*%
%TA.AperFunction,Conductor*%
%TO.N,GND*%
G36*
X124428837Y-59806461D02*
G01*
X124454556Y-59817518D01*
X124729513Y-59974636D01*
X124777953Y-60024988D01*
X124781305Y-60031937D01*
X124890506Y-60277639D01*
X124899745Y-60346895D01*
X124870075Y-60410152D01*
X124810916Y-60447326D01*
X124777193Y-60452000D01*
X124177600Y-60452000D01*
X124110561Y-60432315D01*
X124064806Y-60379511D01*
X124053600Y-60328000D01*
X124053600Y-59986733D01*
X124073285Y-59919694D01*
X124126089Y-59873939D01*
X124143531Y-59867505D01*
X124358971Y-59805951D01*
X124428837Y-59806461D01*
G37*
%TD.AperFunction*%
%TD*%
%TA.AperFunction,Conductor*%
%TO.N,+BATT*%
G36*
X123855847Y-86022646D02*
G01*
X123851723Y-86044391D01*
X123846498Y-86053605D01*
X123838911Y-86065745D01*
X123838911Y-86065746D01*
X123608002Y-86435201D01*
X123085465Y-87290261D01*
X123033711Y-87337200D01*
X122979658Y-87349601D01*
X121446002Y-87349601D01*
X121378963Y-87329916D01*
X121333208Y-87277112D01*
X121322002Y-87225601D01*
X121322002Y-85797201D01*
X121341687Y-85730162D01*
X121394491Y-85684407D01*
X121446002Y-85673201D01*
X123049202Y-85673201D01*
X123337331Y-85529136D01*
X123356201Y-85523000D01*
X123855847Y-86022646D01*
G37*
%TD.AperFunction*%
%TD*%
%TA.AperFunction,Conductor*%
%TO.N,Net-(U3-in+2)*%
G36*
X120564443Y-81925654D02*
G01*
X120588659Y-81946014D01*
X121528899Y-82968014D01*
X121559802Y-83030678D01*
X121551921Y-83100102D01*
X121507757Y-83154244D01*
X121441333Y-83175914D01*
X121437644Y-83175969D01*
X120094618Y-83175969D01*
X117215832Y-84129516D01*
X117175389Y-84142912D01*
X117136399Y-84149201D01*
X115531364Y-84149201D01*
X115464325Y-84129516D01*
X115443683Y-84112882D01*
X115059121Y-83728320D01*
X115025636Y-83666997D01*
X115022802Y-83640639D01*
X115022802Y-82523645D01*
X115042487Y-82456606D01*
X115058493Y-82436596D01*
X115382460Y-82107972D01*
X115545179Y-81942916D01*
X115606262Y-81908994D01*
X115633484Y-81905969D01*
X120497404Y-81905969D01*
X120564443Y-81925654D01*
G37*
%TD.AperFunction*%
%TD*%
%TA.AperFunction,Conductor*%
%TO.N,GND*%
G36*
X120484980Y-85705661D02*
G01*
X120538793Y-85750224D01*
X120559971Y-85816807D01*
X120560002Y-85819578D01*
X120560002Y-87214350D01*
X120540317Y-87281389D01*
X120487513Y-87327144D01*
X120425260Y-87337884D01*
X119402161Y-87248919D01*
X119381346Y-87245302D01*
X118518845Y-87018328D01*
X118459022Y-86982231D01*
X118428212Y-86919521D01*
X118426402Y-86898411D01*
X118426402Y-86511837D01*
X118446087Y-86444798D01*
X118494945Y-86400929D01*
X119628931Y-85833936D01*
X119663987Y-85822536D01*
X120415617Y-85697265D01*
X120484980Y-85705661D01*
G37*
%TD.AperFunction*%
%TD*%
%TA.AperFunction,Conductor*%
%TO.N,Net-(U3-in-2)*%
G36*
X125039375Y-83405193D02*
G01*
X125077612Y-83461689D01*
X125083500Y-83499445D01*
X125083500Y-83989636D01*
X125099541Y-84070279D01*
X125099543Y-84070284D01*
X125107033Y-84081493D01*
X125127912Y-84148170D01*
X125109428Y-84215551D01*
X125057450Y-84262241D01*
X125003350Y-84274384D01*
X124973520Y-84274244D01*
X124906574Y-84254245D01*
X124885345Y-84236837D01*
X124601602Y-83946001D01*
X124511208Y-83946001D01*
X124476273Y-83940978D01*
X124423564Y-83925501D01*
X124423563Y-83925501D01*
X124279641Y-83925501D01*
X124279640Y-83925501D01*
X124226931Y-83940978D01*
X124191996Y-83946001D01*
X124078897Y-83946001D01*
X124011858Y-83926316D01*
X124002700Y-83919354D01*
X123811202Y-83742801D01*
X124522402Y-82980801D01*
X125039375Y-83405193D01*
G37*
%TD.AperFunction*%
%TD*%
%TA.AperFunction,Conductor*%
%TO.N,GND*%
G36*
X124834403Y-61843285D02*
G01*
X124880158Y-61896089D01*
X124890102Y-61965247D01*
X124878273Y-62003052D01*
X124781590Y-62196420D01*
X124734002Y-62247578D01*
X124732202Y-62248627D01*
X124454556Y-62407281D01*
X124386583Y-62423451D01*
X124358970Y-62418848D01*
X124143535Y-62357295D01*
X124084482Y-62319951D01*
X124054994Y-62256608D01*
X124053600Y-62238066D01*
X124053600Y-61947600D01*
X124073285Y-61880561D01*
X124126089Y-61834806D01*
X124177600Y-61823600D01*
X124767364Y-61823600D01*
X124834403Y-61843285D01*
G37*
%TD.AperFunction*%
%TD*%
%TA.AperFunction,Conductor*%
%TO.N,Net-(U3-in+1)*%
G36*
X117530436Y-86999900D02*
G01*
X120052002Y-87806801D01*
X120052005Y-87806800D01*
X120052006Y-87806801D01*
X120090252Y-87806610D01*
X121171673Y-87801234D01*
X121238809Y-87820585D01*
X121284826Y-87873160D01*
X121295113Y-87942269D01*
X121271779Y-87999244D01*
X120393989Y-89179213D01*
X120338182Y-89221252D01*
X120294499Y-89229201D01*
X115582164Y-89229201D01*
X115515125Y-89209516D01*
X115494483Y-89192882D01*
X115059121Y-88757520D01*
X115025636Y-88696197D01*
X115022802Y-88669839D01*
X115022802Y-87549584D01*
X115042487Y-87482545D01*
X115054634Y-87466632D01*
X115443059Y-87035049D01*
X115502537Y-86998388D01*
X115535227Y-86994001D01*
X117492644Y-86994001D01*
X117530436Y-86999900D01*
G37*
%TD.AperFunction*%
%TD*%
%TA.AperFunction,Conductor*%
%TO.N,Net-(U2-W)*%
G36*
X123901200Y-62839600D02*
G01*
X124561468Y-63652238D01*
X123681693Y-64385646D01*
X123617595Y-64413452D01*
X123602294Y-64414400D01*
X123113408Y-64414400D01*
X123046369Y-64394715D01*
X123003042Y-64346927D01*
X122690534Y-63736764D01*
X122677493Y-63668122D01*
X122703634Y-63603326D01*
X122760656Y-63562949D01*
X122798561Y-63556259D01*
X123088400Y-63550800D01*
X124077549Y-62675385D01*
X124081146Y-62673696D01*
X123901200Y-62839600D01*
G37*
%TD.AperFunction*%
%TD*%
%TA.AperFunction,Conductor*%
%TO.N,Net-(U3-in-1)*%
G36*
X123811202Y-87197201D02*
G01*
X124471470Y-88009839D01*
X123591695Y-88743247D01*
X123527597Y-88771053D01*
X123512296Y-88772001D01*
X123007692Y-88772001D01*
X122940653Y-88752316D01*
X122910367Y-88724837D01*
X122373016Y-88044192D01*
X122346926Y-87979378D01*
X122360019Y-87910746D01*
X122408139Y-87860088D01*
X122476008Y-87843488D01*
X122485722Y-87844316D01*
X122998400Y-87908401D01*
X122998400Y-87908400D01*
X122998402Y-87908401D01*
X123987551Y-87032986D01*
X123991148Y-87031297D01*
X123811202Y-87197201D01*
G37*
%TD.AperFunction*%
%TD*%
%TA.AperFunction,Conductor*%
%TO.N,Net-(U2-W)*%
G36*
X125198409Y-62327208D02*
G01*
X125244411Y-62379797D01*
X125255860Y-62431782D01*
X125255867Y-62447616D01*
X125240921Y-62498597D01*
X125243416Y-62499631D01*
X125238742Y-62510914D01*
X125221948Y-62595342D01*
X125221946Y-62595358D01*
X125217284Y-62618799D01*
X125220317Y-62634046D01*
X125222700Y-62658239D01*
X125222700Y-63042984D01*
X125203015Y-63110023D01*
X125178121Y-63138211D01*
X124601549Y-63619081D01*
X124600913Y-63619356D01*
X124561468Y-63652238D01*
X123901200Y-62839600D01*
X124081145Y-62673697D01*
X124140794Y-62645698D01*
X124194659Y-62649266D01*
X124267316Y-62670600D01*
X124329638Y-62688900D01*
X124329639Y-62688900D01*
X124473562Y-62688900D01*
X124473562Y-62688899D01*
X124577984Y-62658239D01*
X124611647Y-62648355D01*
X124611648Y-62648354D01*
X124611653Y-62648353D01*
X124611656Y-62648350D01*
X124613286Y-62647607D01*
X124616798Y-62646842D01*
X124620163Y-62645855D01*
X124620233Y-62646095D01*
X124664801Y-62636400D01*
X124691600Y-62636400D01*
X124826042Y-62498597D01*
X124975343Y-62345562D01*
X125036248Y-62311323D01*
X125063514Y-62308156D01*
X125131279Y-62307838D01*
X125198409Y-62327208D01*
G37*
%TD.AperFunction*%
%TD*%
%TA.AperFunction,Conductor*%
%TO.N,GND*%
G36*
X124744405Y-86200886D02*
G01*
X124790160Y-86253690D01*
X124800104Y-86322848D01*
X124788275Y-86360653D01*
X124691592Y-86554021D01*
X124644004Y-86605179D01*
X124642204Y-86606228D01*
X124364558Y-86764882D01*
X124296585Y-86781052D01*
X124268972Y-86776449D01*
X124053537Y-86714896D01*
X123994484Y-86677552D01*
X123964996Y-86614209D01*
X123963602Y-86595667D01*
X123963602Y-86305201D01*
X123983287Y-86238162D01*
X124036091Y-86192407D01*
X124087602Y-86181201D01*
X124677366Y-86181201D01*
X124744405Y-86200886D01*
G37*
%TD.AperFunction*%
%TD*%
%TA.AperFunction,Conductor*%
%TO.N,Net-(U2-V)*%
G36*
X122508236Y-59555246D02*
G01*
X123804183Y-60332124D01*
X123851560Y-60383475D01*
X123861590Y-60412111D01*
X123864001Y-60423189D01*
X123866489Y-60433370D01*
X123866490Y-60433373D01*
X123909500Y-60514085D01*
X123955255Y-60566889D01*
X123972846Y-60584843D01*
X123997147Y-60598436D01*
X124046044Y-60648340D01*
X124060199Y-60716761D01*
X124035117Y-60781973D01*
X123978759Y-60823272D01*
X123974287Y-60824793D01*
X123708936Y-60909415D01*
X123691647Y-60913590D01*
X123428602Y-60957431D01*
X123398844Y-60964705D01*
X123398840Y-60964706D01*
X123398839Y-60964706D01*
X123394877Y-60965994D01*
X123380223Y-60970758D01*
X123380186Y-60970772D01*
X123363790Y-60976104D01*
X123363791Y-60976103D01*
X123363782Y-60976106D01*
X123363781Y-60976107D01*
X123335426Y-60987730D01*
X123335420Y-60987732D01*
X123335420Y-60987733D01*
X123175618Y-61067633D01*
X123140672Y-61079016D01*
X122965500Y-61108392D01*
X122944992Y-61110100D01*
X121535992Y-61110100D01*
X121517920Y-61112044D01*
X121511287Y-61112400D01*
X119684800Y-61112400D01*
X117272581Y-62318509D01*
X117217128Y-62331600D01*
X115625225Y-62331600D01*
X115558186Y-62311915D01*
X115533059Y-62290554D01*
X115144630Y-61858967D01*
X115114416Y-61795969D01*
X115112800Y-61776016D01*
X115112800Y-60604962D01*
X115132485Y-60537923D01*
X115149119Y-60517281D01*
X115533681Y-60132719D01*
X115595004Y-60099234D01*
X115621362Y-60096400D01*
X117449599Y-60096400D01*
X117449600Y-60096400D01*
X119260688Y-59543012D01*
X119296923Y-59537600D01*
X122444480Y-59537600D01*
X122508236Y-59555246D01*
G37*
%TD.AperFunction*%
%TD*%
%TA.AperFunction,Conductor*%
%TO.N,GND*%
G36*
X124338839Y-84164062D02*
G01*
X124364558Y-84175119D01*
X124639515Y-84332237D01*
X124687955Y-84382589D01*
X124691307Y-84389538D01*
X124800508Y-84635240D01*
X124809747Y-84704496D01*
X124780077Y-84767753D01*
X124720918Y-84804927D01*
X124687195Y-84809601D01*
X124087602Y-84809601D01*
X124020563Y-84789916D01*
X123974808Y-84737112D01*
X123963602Y-84685601D01*
X123963602Y-84344334D01*
X123983287Y-84277295D01*
X124036091Y-84231540D01*
X124053533Y-84225106D01*
X124268973Y-84163552D01*
X124338839Y-84164062D01*
G37*
%TD.AperFunction*%
%TD*%
%TA.AperFunction,Conductor*%
%TO.N,Net-(U4-in+1)*%
G36*
X117621331Y-62642940D02*
G01*
X120152000Y-63499200D01*
X121222881Y-63499200D01*
X121289920Y-63518885D01*
X121335675Y-63571689D01*
X121345619Y-63640847D01*
X121322293Y-63697316D01*
X120798465Y-64399919D01*
X120483991Y-64821717D01*
X120428139Y-64863697D01*
X120384579Y-64871600D01*
X115672162Y-64871600D01*
X115605123Y-64851915D01*
X115584481Y-64835281D01*
X115149119Y-64399919D01*
X115115634Y-64338596D01*
X115112800Y-64312238D01*
X115112800Y-63191983D01*
X115132485Y-63124944D01*
X115144632Y-63109031D01*
X115533057Y-62677448D01*
X115592535Y-62640787D01*
X115625225Y-62636400D01*
X117581590Y-62636400D01*
X117621331Y-62642940D01*
G37*
%TD.AperFunction*%
%TD*%
%TA.AperFunction,Conductor*%
%TO.N,Net-(U3-in-2)*%
G36*
X123570172Y-82192686D02*
G01*
X123582259Y-82201495D01*
X125038451Y-83403828D01*
X125039374Y-83405193D01*
X124522402Y-82980801D01*
X123811202Y-83742801D01*
X124002700Y-83919354D01*
X123996319Y-83914504D01*
X123144475Y-83154057D01*
X123144473Y-83154057D01*
X123144472Y-83154056D01*
X122505841Y-83158314D01*
X122438671Y-83139077D01*
X122392566Y-83086579D01*
X122382161Y-83017489D01*
X122394754Y-82977583D01*
X122773541Y-82241426D01*
X122821717Y-82190821D01*
X122883590Y-82174160D01*
X123503101Y-82173114D01*
X123570172Y-82192686D01*
G37*
%TD.AperFunction*%
%TD*%
M02*
