%TF.GenerationSoftware,KiCad,Pcbnew,7.0.9*%
%TF.CreationDate,2023-12-14T21:01:46-07:00*%
%TF.ProjectId,mini_motor_go_V1_rev3,6d696e69-5f6d-46f7-946f-725f676f5f56,rev?*%
%TF.SameCoordinates,Original*%
%TF.FileFunction,Copper,L3,Inr*%
%TF.FilePolarity,Positive*%
%FSLAX46Y46*%
G04 Gerber Fmt 4.6, Leading zero omitted, Abs format (unit mm)*
G04 Created by KiCad (PCBNEW 7.0.9) date 2023-12-14 21:01:46*
%MOMM*%
%LPD*%
G01*
G04 APERTURE LIST*
%TA.AperFunction,ComponentPad*%
%ADD10C,0.600000*%
%TD*%
%TA.AperFunction,ComponentPad*%
%ADD11C,1.879600*%
%TD*%
%TA.AperFunction,ComponentPad*%
%ADD12O,0.800000X1.600000*%
%TD*%
%TA.AperFunction,ComponentPad*%
%ADD13R,1.980000X3.960000*%
%TD*%
%TA.AperFunction,ComponentPad*%
%ADD14O,1.980000X3.960000*%
%TD*%
%TA.AperFunction,ViaPad*%
%ADD15C,0.600000*%
%TD*%
%TA.AperFunction,ViaPad*%
%ADD16C,0.800000*%
%TD*%
G04 APERTURE END LIST*
D10*
%TO.N,GND*%
%TO.C,U2*%
X125481600Y-61536400D03*
X126381600Y-61536400D03*
X125481600Y-60736400D03*
X126381600Y-60736400D03*
%TD*%
D11*
%TO.N,Net-(U3-in+1)*%
%TO.C,J2*%
X116174213Y-88112054D03*
%TO.N,Net-(U5-V)*%
X116428213Y-85572054D03*
%TO.N,Net-(U3-in+2)*%
X116174213Y-83032054D03*
%TD*%
D12*
%TO.N,unconnected-(J11-SHELL_GND-PadS1)*%
%TO.C,J11*%
X160053600Y-94650700D03*
%TO.N,unconnected-(J11-SHELL_GND-PadS2)*%
X168703600Y-90450700D03*
%TO.N,unconnected-(J11-SHELL_GND-PadS3)*%
X160053600Y-90450700D03*
%TO.N,unconnected-(J11-SHELL_GND-PadS4)*%
X168703600Y-94650700D03*
%TD*%
D11*
%TO.N,Net-(J10-Pin_1)*%
%TO.C,J10*%
X182515000Y-63777800D03*
%TO.N,Net-(J10-Pin_2)*%
X182515000Y-60882200D03*
%TD*%
D10*
%TO.N,GND*%
%TO.C,U5*%
X125389938Y-85894093D03*
X126289938Y-85894093D03*
X125389938Y-85094093D03*
X126289938Y-85094093D03*
%TD*%
D13*
%TO.N,+BATT*%
%TO.C,J8*%
X150668062Y-53472238D03*
D14*
%TO.N,GND*%
X145668062Y-53472238D03*
%TD*%
D11*
%TO.N,Net-(U4-in+1)*%
%TO.C,J1*%
X116257000Y-63754000D03*
%TO.N,Net-(U2-V)*%
X116511000Y-61214000D03*
%TO.N,Net-(U4-in+2)*%
X116257000Y-58674000D03*
%TD*%
%TO.N,+3.3V*%
%TO.C,J9*%
X182344000Y-86610000D03*
%TO.N,+5V*%
X182598000Y-84070000D03*
%TO.N,GND*%
X182344000Y-81530000D03*
%TO.N,gpio47*%
X182598000Y-78990000D03*
%TO.N,gpio38*%
X182344000Y-76450000D03*
%TO.N,Net-(J9-Pin_6)*%
X182598000Y-73910000D03*
%TO.N,Net-(J9-Pin_7)*%
X182344000Y-71370000D03*
%TO.N,Net-(J9-Pin_8)*%
X182598000Y-68830000D03*
%TO.N,Net-(J9-Pin_9)*%
X182344000Y-66290000D03*
%TD*%
D15*
%TO.N,+BATT*%
X122642802Y-86943201D03*
D16*
X125624500Y-65250000D03*
X139050000Y-60930000D03*
D15*
X123931436Y-89838564D03*
X122732800Y-62585600D03*
X122732800Y-61772800D03*
X122642802Y-86130401D03*
%TO.N,GND*%
X161544000Y-81026000D03*
X158328060Y-81671940D03*
X166274001Y-83563600D03*
D16*
X164740000Y-66980000D03*
D15*
X118782002Y-86689201D03*
X154686000Y-94234000D03*
D16*
X164740000Y-68380000D03*
D15*
X161590842Y-82809158D03*
X124401600Y-62188400D03*
D16*
X116735000Y-74676000D03*
D15*
X157628060Y-80971940D03*
X159044166Y-82433634D03*
D16*
X166140000Y-65580000D03*
D15*
X159590842Y-80809158D03*
D16*
X123337570Y-73660000D03*
D15*
X171450000Y-87884000D03*
D16*
X135689493Y-89801810D03*
D15*
X159778060Y-83121940D03*
D16*
X166140000Y-68380000D03*
D15*
X177800000Y-87600000D03*
X157480000Y-87884000D03*
X131000000Y-71500000D03*
D16*
X137520000Y-60904365D03*
D15*
X132956940Y-63543060D03*
X157825500Y-78750000D03*
X124351602Y-84426001D03*
D16*
X164735137Y-65597355D03*
D15*
X156878060Y-80221940D03*
D16*
X137900000Y-70975500D03*
X166140000Y-66980000D03*
D15*
X143500000Y-84300000D03*
X160419981Y-83809449D03*
D16*
X167540000Y-66980000D03*
D15*
X156342637Y-79578908D03*
D16*
X167540000Y-68380000D03*
X174800000Y-59200000D03*
D15*
X141524000Y-89900000D03*
X119727546Y-62136006D03*
D16*
X138000000Y-73750000D03*
D15*
X158496000Y-83820000D03*
X124311602Y-86546001D03*
X124441600Y-60068400D03*
X125625500Y-82290000D03*
X160890842Y-82109158D03*
X118872000Y-62331600D03*
X161036000Y-88392000D03*
X144559980Y-67875500D03*
D16*
X167540000Y-65580000D03*
D15*
X158283364Y-79501678D03*
X167640000Y-88392000D03*
X160200000Y-59700000D03*
D16*
X172530000Y-79340000D03*
D15*
X131114800Y-89013600D03*
X119637548Y-86493607D03*
X156322500Y-78680558D03*
X125490000Y-57470000D03*
D16*
X137900000Y-68500000D03*
D15*
X158940842Y-80159158D03*
X160190842Y-81409158D03*
X154686000Y-89300000D03*
D16*
%TO.N,+3.3V*%
X148185362Y-87725395D03*
X148844000Y-90932000D03*
D15*
X156000000Y-60300000D03*
X125476000Y-79006000D03*
X148500000Y-77100000D03*
D16*
X119380000Y-76708000D03*
D15*
X175000000Y-82600000D03*
X125072469Y-73406000D03*
X128778000Y-58420000D03*
X128590000Y-81710000D03*
X126746000Y-73406000D03*
D16*
X170830000Y-80730000D03*
D15*
X124129800Y-67538600D03*
%TO.N,Net-(U3-in-1)*%
X125000000Y-90673500D03*
X129427830Y-88977500D03*
%TO.N,Net-(U3-in+1)*%
X130327526Y-89152900D03*
X125600000Y-91350000D03*
%TO.N,Net-(U3-ref_1)*%
X131775200Y-88073800D03*
X132100000Y-82950000D03*
X125943348Y-83248850D03*
%TO.N,/motor_controls/standby*%
X127421731Y-79763000D03*
X126492000Y-67640200D03*
X127104261Y-59503500D03*
X127740000Y-82470000D03*
%TO.N,+5V*%
X160528000Y-87630000D03*
X169926000Y-86614000D03*
X157480000Y-84455000D03*
X139599292Y-65785500D03*
X156210000Y-87884000D03*
X164338000Y-84582000D03*
X168500000Y-85900000D03*
X152654000Y-87884000D03*
D16*
X150070000Y-59790000D03*
D15*
X168402000Y-87630000D03*
X155448000Y-84836000D03*
%TO.N,Net-(U7-VFB)*%
X141400000Y-67900000D03*
D16*
%TO.N,m1_enc_cs*%
X122851991Y-69148009D03*
D15*
X175006000Y-71882000D03*
D16*
%TO.N,m2_enc_cs*%
X121920000Y-73660000D03*
D15*
X173228000Y-75692000D03*
%TO.N,m2_uh*%
X158600000Y-78300000D03*
X146106940Y-77706940D03*
%TO.N,m2_ul*%
X140250000Y-78750000D03*
X168148000Y-75692000D03*
%TO.N,m2_vh*%
X144531940Y-78281940D03*
X160600000Y-78621500D03*
%TO.N,m2_vl*%
X136900000Y-79300000D03*
X170688000Y-75692000D03*
%TO.N,m2_wh*%
X165608000Y-75692000D03*
X142113440Y-79513440D03*
%TO.N,m2_wl*%
X138500000Y-79000000D03*
X169418000Y-75692000D03*
%TO.N,m1_uh*%
X131150000Y-67150000D03*
X127000000Y-65500000D03*
X154391439Y-67300500D03*
%TO.N,m1_ul*%
X157200000Y-66700000D03*
X132789823Y-65500000D03*
X127939800Y-62941200D03*
%TO.N,m1_vh*%
X133700000Y-66700000D03*
X128400000Y-65618700D03*
X153900000Y-66585969D03*
%TO.N,m1_vl*%
X157000000Y-64075500D03*
X137700000Y-63400000D03*
X127939800Y-59503500D03*
%TO.N,m1_wh*%
X135600000Y-66075500D03*
X129446099Y-64700000D03*
X154693060Y-66006940D03*
%TO.N,m1_wl*%
X136100000Y-64100000D03*
X156200000Y-64600000D03*
X131600000Y-61100000D03*
%TO.N,Net-(J11-DP1)*%
X164800000Y-87517500D03*
X164126101Y-88722573D03*
%TO.N,Net-(U1-EN)*%
X160100000Y-62300000D03*
X153860000Y-67924500D03*
%TO.N,m2_current_sense_u*%
X133200000Y-82750000D03*
X156464000Y-71460500D03*
%TO.N,m2_current_sense_w*%
X139400000Y-82100000D03*
X166878000Y-75692000D03*
D16*
%TO.N,Net-(J10-Pin_1)*%
X174940000Y-63420000D03*
D15*
%TO.N,m1_current_sense_w*%
X129908326Y-57568045D03*
X157734000Y-63246000D03*
%TO.N,m1_current_sense_u*%
X129421099Y-63280167D03*
X157325503Y-65828100D03*
%TO.N,enc_scl*%
X175006000Y-73152000D03*
D16*
X120904000Y-70612000D03*
%TO.N,enc_sda*%
X120037570Y-72644000D03*
D15*
X175006000Y-74422000D03*
D16*
%TO.N,sda*%
X141732000Y-92456000D03*
D15*
X175125750Y-61574250D03*
D16*
X146812000Y-88392000D03*
D15*
X173482000Y-59930500D03*
D16*
%TO.N,scl*%
X146812000Y-91440000D03*
X144780000Y-93472000D03*
D15*
%TO.N,gpio38*%
X177770000Y-81480000D03*
X150900000Y-80010000D03*
%TO.N,gpio47*%
X154144667Y-70779500D03*
X152000000Y-81000000D03*
X155299500Y-82000000D03*
X171958000Y-75692000D03*
%TD*%
%TA.AperFunction,Conductor*%
%TO.N,+BATT*%
G36*
X142375002Y-52068685D02*
G01*
X143328740Y-52069939D01*
X143395754Y-52089712D01*
X143416258Y-52106258D01*
X143843681Y-52533681D01*
X143877166Y-52595004D01*
X143880000Y-52621362D01*
X143880000Y-55380000D01*
X143934265Y-55905727D01*
X143982131Y-56369461D01*
X144042147Y-56657085D01*
X144043193Y-56664059D01*
X144133808Y-57646364D01*
X144134055Y-57653412D01*
X144029713Y-62453191D01*
X144008576Y-62519787D01*
X144005920Y-62523574D01*
X143568259Y-63123539D01*
X143512847Y-63166098D01*
X143508504Y-63167687D01*
X137124686Y-65369004D01*
X136652000Y-66031998D01*
X136652000Y-78796724D01*
X136632315Y-78863763D01*
X136595041Y-78901039D01*
X136568873Y-78917856D01*
X136474623Y-79026626D01*
X136474622Y-79026628D01*
X136414834Y-79157543D01*
X136394353Y-79300000D01*
X136414834Y-79442456D01*
X136447252Y-79513440D01*
X136474623Y-79573373D01*
X136568872Y-79682143D01*
X136595037Y-79698958D01*
X136640793Y-79751759D01*
X136652000Y-79803274D01*
X136652000Y-90432000D01*
X136650639Y-91431998D01*
X136641500Y-94788762D01*
X136621633Y-94855747D01*
X136605091Y-94876196D01*
X136176269Y-95304133D01*
X136114911Y-95337554D01*
X136088759Y-95340361D01*
X121936075Y-95349641D01*
X121869023Y-95330000D01*
X121855084Y-95319607D01*
X121350993Y-94885557D01*
X121313035Y-94826897D01*
X121309268Y-94809934D01*
X120883921Y-91964506D01*
X120433712Y-91140748D01*
X119899714Y-90673500D01*
X124494353Y-90673500D01*
X124514834Y-90815956D01*
X124539165Y-90869232D01*
X124574623Y-90946873D01*
X124668872Y-91055643D01*
X124789947Y-91133453D01*
X124789950Y-91133454D01*
X124789949Y-91133454D01*
X124928036Y-91173999D01*
X124928038Y-91174000D01*
X124976554Y-91174000D01*
X125043593Y-91193685D01*
X125089348Y-91246489D01*
X125099292Y-91315646D01*
X125094353Y-91349999D01*
X125114834Y-91492456D01*
X125118051Y-91499500D01*
X125174623Y-91623373D01*
X125268872Y-91732143D01*
X125389947Y-91809953D01*
X125389950Y-91809954D01*
X125389949Y-91809954D01*
X125497107Y-91841417D01*
X125527419Y-91850318D01*
X125528036Y-91850499D01*
X125528038Y-91850500D01*
X125528039Y-91850500D01*
X125671962Y-91850500D01*
X125671962Y-91850499D01*
X125810053Y-91809953D01*
X125931128Y-91732143D01*
X126025377Y-91623373D01*
X126085165Y-91492457D01*
X126105647Y-91350000D01*
X126085165Y-91207543D01*
X126025377Y-91076627D01*
X125931128Y-90967857D01*
X125810053Y-90890047D01*
X125810051Y-90890046D01*
X125810049Y-90890045D01*
X125810050Y-90890045D01*
X125671963Y-90849500D01*
X125671961Y-90849500D01*
X125623446Y-90849500D01*
X125556407Y-90829815D01*
X125510652Y-90777011D01*
X125500708Y-90707854D01*
X125505647Y-90673500D01*
X125485165Y-90531043D01*
X125425377Y-90400127D01*
X125331128Y-90291357D01*
X125210053Y-90213547D01*
X125210051Y-90213546D01*
X125210049Y-90213545D01*
X125210050Y-90213545D01*
X125071963Y-90173000D01*
X125071961Y-90173000D01*
X124928039Y-90173000D01*
X124928036Y-90173000D01*
X124789949Y-90213545D01*
X124668873Y-90291356D01*
X124574623Y-90400126D01*
X124574622Y-90400128D01*
X124514834Y-90531043D01*
X124494353Y-90673500D01*
X119899714Y-90673500D01*
X119666288Y-90469252D01*
X119666286Y-90469251D01*
X118790038Y-90133828D01*
X116600819Y-90106799D01*
X116534028Y-90086288D01*
X116514193Y-90070011D01*
X116248894Y-89801811D01*
X135083811Y-89801811D01*
X135104448Y-89958570D01*
X135104449Y-89958572D01*
X135150608Y-90070011D01*
X135164957Y-90104651D01*
X135261211Y-90230092D01*
X135386652Y-90326346D01*
X135532731Y-90386854D01*
X135611112Y-90397173D01*
X135689492Y-90407492D01*
X135689493Y-90407492D01*
X135689494Y-90407492D01*
X135745444Y-90400126D01*
X135846255Y-90386854D01*
X135992334Y-90326346D01*
X136117775Y-90230092D01*
X136214029Y-90104651D01*
X136274537Y-89958572D01*
X136295175Y-89801810D01*
X136274537Y-89645048D01*
X136214029Y-89498969D01*
X136117775Y-89373528D01*
X135992334Y-89277274D01*
X135969797Y-89267939D01*
X135846255Y-89216766D01*
X135846253Y-89216765D01*
X135689494Y-89196128D01*
X135689492Y-89196128D01*
X135532732Y-89216765D01*
X135532730Y-89216766D01*
X135386653Y-89277273D01*
X135261211Y-89373528D01*
X135164956Y-89498970D01*
X135104449Y-89645047D01*
X135104448Y-89645049D01*
X135083811Y-89801808D01*
X135083811Y-89801811D01*
X116248894Y-89801811D01*
X116085034Y-89636160D01*
X116051883Y-89574656D01*
X116049191Y-89549139D01*
X116049170Y-89535043D01*
X116048966Y-89395743D01*
X116048938Y-89376536D01*
X116068524Y-89309468D01*
X116121261Y-89263635D01*
X116172938Y-89252354D01*
X116279875Y-89252354D01*
X116279877Y-89252354D01*
X116487608Y-89213522D01*
X116684666Y-89137182D01*
X116864341Y-89025931D01*
X116917467Y-88977500D01*
X128922183Y-88977500D01*
X128942664Y-89119956D01*
X129002452Y-89250871D01*
X129002453Y-89250873D01*
X129096702Y-89359643D01*
X129217777Y-89437453D01*
X129217780Y-89437454D01*
X129217779Y-89437454D01*
X129355866Y-89477999D01*
X129355868Y-89478000D01*
X129355869Y-89478000D01*
X129499792Y-89478000D01*
X129499792Y-89477999D01*
X129637880Y-89437454D01*
X129637881Y-89437454D01*
X129655279Y-89426273D01*
X129725748Y-89380985D01*
X129792787Y-89361301D01*
X129859826Y-89380985D01*
X129894315Y-89420766D01*
X129897355Y-89418813D01*
X129902149Y-89426273D01*
X129996398Y-89535043D01*
X130117473Y-89612853D01*
X130117476Y-89612854D01*
X130117475Y-89612854D01*
X130255562Y-89653399D01*
X130255564Y-89653400D01*
X130255565Y-89653400D01*
X130399488Y-89653400D01*
X130399488Y-89653399D01*
X130537579Y-89612853D01*
X130658654Y-89535043D01*
X130710538Y-89475164D01*
X130769315Y-89437390D01*
X130839185Y-89437390D01*
X130871291Y-89452052D01*
X130904748Y-89473554D01*
X131042836Y-89514099D01*
X131042838Y-89514100D01*
X131042839Y-89514100D01*
X131186762Y-89514100D01*
X131186762Y-89514099D01*
X131324853Y-89473553D01*
X131445928Y-89395743D01*
X131540177Y-89286973D01*
X131599965Y-89156057D01*
X131620447Y-89013600D01*
X131599965Y-88871143D01*
X131540207Y-88740294D01*
X131530264Y-88671138D01*
X131559289Y-88607582D01*
X131618066Y-88569807D01*
X131687937Y-88569807D01*
X131703239Y-88574300D01*
X131847162Y-88574300D01*
X131847162Y-88574299D01*
X131985253Y-88533753D01*
X132106328Y-88455943D01*
X132200577Y-88347173D01*
X132260365Y-88216257D01*
X132280847Y-88073800D01*
X132260365Y-87931343D01*
X132200577Y-87800427D01*
X132106328Y-87691657D01*
X131985253Y-87613847D01*
X131985251Y-87613846D01*
X131985249Y-87613845D01*
X131985250Y-87613845D01*
X131847163Y-87573300D01*
X131847161Y-87573300D01*
X131703239Y-87573300D01*
X131703236Y-87573300D01*
X131565149Y-87613845D01*
X131444073Y-87691656D01*
X131349823Y-87800426D01*
X131349822Y-87800428D01*
X131290034Y-87931343D01*
X131269553Y-88073800D01*
X131290034Y-88216256D01*
X131349791Y-88347103D01*
X131359735Y-88416262D01*
X131330710Y-88479817D01*
X131271932Y-88517592D01*
X131202065Y-88517593D01*
X131186762Y-88513100D01*
X131186761Y-88513100D01*
X131042839Y-88513100D01*
X131042836Y-88513100D01*
X130904749Y-88553645D01*
X130783673Y-88631456D01*
X130783672Y-88631456D01*
X130783672Y-88631457D01*
X130749289Y-88671138D01*
X130731788Y-88691335D01*
X130673010Y-88729109D01*
X130603140Y-88729109D01*
X130571037Y-88714448D01*
X130537579Y-88692947D01*
X130537576Y-88692945D01*
X130399489Y-88652400D01*
X130399487Y-88652400D01*
X130255565Y-88652400D01*
X130255562Y-88652400D01*
X130117475Y-88692945D01*
X130117472Y-88692946D01*
X130029606Y-88749414D01*
X129962567Y-88769098D01*
X129895528Y-88749413D01*
X129861052Y-88709625D01*
X129858001Y-88711587D01*
X129853206Y-88704126D01*
X129758958Y-88595357D01*
X129637883Y-88517547D01*
X129637881Y-88517546D01*
X129637879Y-88517545D01*
X129637880Y-88517545D01*
X129499793Y-88477000D01*
X129499791Y-88477000D01*
X129355869Y-88477000D01*
X129355866Y-88477000D01*
X129217779Y-88517545D01*
X129096703Y-88595356D01*
X129002453Y-88704126D01*
X129002452Y-88704128D01*
X128942664Y-88835043D01*
X128922183Y-88977500D01*
X116917467Y-88977500D01*
X117020515Y-88883560D01*
X117147869Y-88714916D01*
X117242066Y-88525743D01*
X117242066Y-88525740D01*
X117242068Y-88525738D01*
X117275181Y-88409352D01*
X117299899Y-88322481D01*
X117319398Y-88112054D01*
X117299899Y-87901627D01*
X117291500Y-87872107D01*
X117242068Y-87698369D01*
X117242065Y-87698363D01*
X117179791Y-87573300D01*
X117147869Y-87509192D01*
X117020515Y-87340548D01*
X117020513Y-87340545D01*
X116864342Y-87198178D01*
X116864341Y-87198177D01*
X116684666Y-87086926D01*
X116684665Y-87086925D01*
X116540578Y-87031106D01*
X116487608Y-87010586D01*
X116279877Y-86971754D01*
X116169224Y-86971754D01*
X116102185Y-86952069D01*
X116056430Y-86899265D01*
X116045224Y-86847940D01*
X116045169Y-86810008D01*
X116064754Y-86742944D01*
X116117490Y-86697111D01*
X116186634Y-86687065D01*
X116191894Y-86687930D01*
X116322549Y-86712354D01*
X116322552Y-86712354D01*
X116533875Y-86712354D01*
X116533877Y-86712354D01*
X116657734Y-86689201D01*
X118276355Y-86689201D01*
X118296836Y-86831657D01*
X118355636Y-86960408D01*
X118356625Y-86962574D01*
X118450874Y-87071344D01*
X118571949Y-87149154D01*
X118571952Y-87149155D01*
X118571951Y-87149155D01*
X118710038Y-87189700D01*
X118710040Y-87189701D01*
X118710041Y-87189701D01*
X118853964Y-87189701D01*
X118853964Y-87189700D01*
X118992055Y-87149154D01*
X119113130Y-87071344D01*
X119207379Y-86962574D01*
X119207383Y-86962564D01*
X119208770Y-86960408D01*
X119210720Y-86958717D01*
X119213187Y-86955871D01*
X119213596Y-86956225D01*
X119261570Y-86914648D01*
X119330727Y-86904697D01*
X119380130Y-86923120D01*
X119427495Y-86953560D01*
X119427498Y-86953561D01*
X119427497Y-86953561D01*
X119565584Y-86994106D01*
X119565586Y-86994107D01*
X119565587Y-86994107D01*
X119709510Y-86994107D01*
X119709510Y-86994106D01*
X119838525Y-86956225D01*
X119847598Y-86953561D01*
X119847598Y-86953560D01*
X119847601Y-86953560D01*
X119968676Y-86875750D01*
X120062925Y-86766980D01*
X120122713Y-86636064D01*
X120135662Y-86546001D01*
X123805955Y-86546001D01*
X123826436Y-86688457D01*
X123837350Y-86712354D01*
X123886225Y-86819374D01*
X123980474Y-86928144D01*
X124101549Y-87005954D01*
X124101552Y-87005955D01*
X124101551Y-87005955D01*
X124239638Y-87046500D01*
X124239640Y-87046501D01*
X124239641Y-87046501D01*
X124383564Y-87046501D01*
X124383564Y-87046500D01*
X124521655Y-87005954D01*
X124642730Y-86928144D01*
X124736979Y-86819374D01*
X124796767Y-86688458D01*
X124817249Y-86546001D01*
X124796767Y-86403544D01*
X124736979Y-86272628D01*
X124642730Y-86163858D01*
X124521655Y-86086048D01*
X124521653Y-86086047D01*
X124521651Y-86086046D01*
X124521652Y-86086046D01*
X124383565Y-86045501D01*
X124383563Y-86045501D01*
X124239641Y-86045501D01*
X124239638Y-86045501D01*
X124101551Y-86086046D01*
X123980475Y-86163857D01*
X123886225Y-86272627D01*
X123886224Y-86272629D01*
X123826436Y-86403544D01*
X123805955Y-86546001D01*
X120135662Y-86546001D01*
X120143195Y-86493607D01*
X120122713Y-86351150D01*
X120062925Y-86220234D01*
X119968676Y-86111464D01*
X119847601Y-86033654D01*
X119847599Y-86033653D01*
X119847597Y-86033652D01*
X119847598Y-86033652D01*
X119709511Y-85993107D01*
X119709509Y-85993107D01*
X119565587Y-85993107D01*
X119565584Y-85993107D01*
X119427497Y-86033652D01*
X119306421Y-86111463D01*
X119212169Y-86220235D01*
X119210771Y-86222412D01*
X119208816Y-86224105D01*
X119206363Y-86226937D01*
X119205955Y-86226584D01*
X119157966Y-86268166D01*
X119088807Y-86278107D01*
X119039418Y-86259686D01*
X118992052Y-86229246D01*
X118853965Y-86188701D01*
X118853963Y-86188701D01*
X118710041Y-86188701D01*
X118710038Y-86188701D01*
X118571951Y-86229246D01*
X118450875Y-86307057D01*
X118356625Y-86415827D01*
X118356624Y-86415829D01*
X118296836Y-86546744D01*
X118276355Y-86689201D01*
X116657734Y-86689201D01*
X116741608Y-86673522D01*
X116938666Y-86597182D01*
X117118341Y-86485931D01*
X117274515Y-86343560D01*
X117401869Y-86174916D01*
X117496066Y-85985743D01*
X117496066Y-85985740D01*
X117496068Y-85985738D01*
X117522142Y-85894096D01*
X124984446Y-85894096D01*
X125004290Y-86019393D01*
X125004290Y-86019394D01*
X125017593Y-86045501D01*
X125061888Y-86132435D01*
X125061890Y-86132437D01*
X125061892Y-86132440D01*
X125151590Y-86222138D01*
X125151592Y-86222139D01*
X125151596Y-86222143D01*
X125264634Y-86279739D01*
X125264635Y-86279739D01*
X125264637Y-86279740D01*
X125389935Y-86299585D01*
X125389938Y-86299585D01*
X125389941Y-86299585D01*
X125515238Y-86279740D01*
X125515239Y-86279740D01*
X125515240Y-86279739D01*
X125515242Y-86279739D01*
X125628280Y-86222143D01*
X125717988Y-86132435D01*
X125729453Y-86109932D01*
X125777427Y-86059136D01*
X125845248Y-86042341D01*
X125911383Y-86064878D01*
X125950422Y-86109931D01*
X125951203Y-86111464D01*
X125961887Y-86132433D01*
X125961892Y-86132440D01*
X126051590Y-86222138D01*
X126051592Y-86222139D01*
X126051596Y-86222143D01*
X126164634Y-86279739D01*
X126164635Y-86279739D01*
X126164637Y-86279740D01*
X126289935Y-86299585D01*
X126289938Y-86299585D01*
X126289941Y-86299585D01*
X126415238Y-86279740D01*
X126415239Y-86279740D01*
X126415240Y-86279739D01*
X126415242Y-86279739D01*
X126528280Y-86222143D01*
X126617988Y-86132435D01*
X126675584Y-86019397D01*
X126675584Y-86019395D01*
X126675585Y-86019394D01*
X126675585Y-86019393D01*
X126695430Y-85894096D01*
X126695430Y-85894089D01*
X126675585Y-85768792D01*
X126675585Y-85768791D01*
X126652409Y-85723306D01*
X126617988Y-85655751D01*
X126617984Y-85655747D01*
X126617983Y-85655745D01*
X126544012Y-85581774D01*
X126510527Y-85520451D01*
X126515511Y-85450759D01*
X126544012Y-85406412D01*
X126617983Y-85332440D01*
X126617988Y-85332435D01*
X126675584Y-85219397D01*
X126675584Y-85219395D01*
X126675585Y-85219394D01*
X126675585Y-85219393D01*
X126695430Y-85094096D01*
X126695430Y-85094089D01*
X126675585Y-84968792D01*
X126675585Y-84968791D01*
X126654037Y-84926501D01*
X126617988Y-84855751D01*
X126617984Y-84855747D01*
X126617983Y-84855745D01*
X126528285Y-84766047D01*
X126528282Y-84766045D01*
X126528280Y-84766043D01*
X126415242Y-84708447D01*
X126415241Y-84708446D01*
X126415238Y-84708445D01*
X126289941Y-84688601D01*
X126289935Y-84688601D01*
X126164637Y-84708445D01*
X126164636Y-84708445D01*
X126089275Y-84746844D01*
X126051596Y-84766043D01*
X126051595Y-84766044D01*
X126051590Y-84766047D01*
X125961892Y-84855745D01*
X125961887Y-84855752D01*
X125950422Y-84878254D01*
X125902448Y-84929049D01*
X125834626Y-84945844D01*
X125768492Y-84923306D01*
X125729454Y-84878254D01*
X125727626Y-84874667D01*
X125717988Y-84855751D01*
X125717985Y-84855748D01*
X125717983Y-84855745D01*
X125628285Y-84766047D01*
X125628282Y-84766045D01*
X125628280Y-84766043D01*
X125515242Y-84708447D01*
X125515241Y-84708446D01*
X125515238Y-84708445D01*
X125389941Y-84688601D01*
X125389935Y-84688601D01*
X125264637Y-84708445D01*
X125264636Y-84708445D01*
X125189275Y-84746844D01*
X125151596Y-84766043D01*
X125151595Y-84766044D01*
X125151590Y-84766047D01*
X125061892Y-84855745D01*
X125061889Y-84855750D01*
X125061888Y-84855751D01*
X125050422Y-84878254D01*
X125004290Y-84968791D01*
X125004290Y-84968792D01*
X124984446Y-85094089D01*
X124984446Y-85094096D01*
X125004290Y-85219393D01*
X125004290Y-85219394D01*
X125022743Y-85255610D01*
X125061888Y-85332435D01*
X125061890Y-85332437D01*
X125061892Y-85332440D01*
X125135864Y-85406412D01*
X125169349Y-85467735D01*
X125164365Y-85537427D01*
X125135864Y-85581774D01*
X125061892Y-85655745D01*
X125061889Y-85655750D01*
X125061888Y-85655751D01*
X125050422Y-85678254D01*
X125004290Y-85768791D01*
X125004290Y-85768792D01*
X124984446Y-85894089D01*
X124984446Y-85894096D01*
X117522142Y-85894096D01*
X117553898Y-85782483D01*
X117553899Y-85782480D01*
X117555168Y-85768791D01*
X117573398Y-85572054D01*
X117553899Y-85361627D01*
X117524738Y-85259136D01*
X117496068Y-85158369D01*
X117496065Y-85158363D01*
X117464060Y-85094089D01*
X117401869Y-84969192D01*
X117274515Y-84800548D01*
X117274513Y-84800545D01*
X117118342Y-84658178D01*
X117118341Y-84658177D01*
X116938666Y-84546926D01*
X116938665Y-84546925D01*
X116794578Y-84491106D01*
X116741608Y-84470586D01*
X116533877Y-84431754D01*
X116322549Y-84431754D01*
X116265294Y-84442457D01*
X116188319Y-84456846D01*
X116118804Y-84449815D01*
X116088869Y-84426001D01*
X123845955Y-84426001D01*
X123866436Y-84568457D01*
X123907411Y-84658177D01*
X123926225Y-84699374D01*
X124020474Y-84808144D01*
X124141549Y-84885954D01*
X124141552Y-84885955D01*
X124141551Y-84885955D01*
X124279638Y-84926500D01*
X124279640Y-84926501D01*
X124279641Y-84926501D01*
X124423564Y-84926501D01*
X124423564Y-84926500D01*
X124561655Y-84885954D01*
X124682730Y-84808144D01*
X124776979Y-84699374D01*
X124836767Y-84568458D01*
X124857249Y-84426001D01*
X124836767Y-84283544D01*
X124776979Y-84152628D01*
X124682730Y-84043858D01*
X124561655Y-83966048D01*
X124561653Y-83966047D01*
X124561651Y-83966046D01*
X124561652Y-83966046D01*
X124423565Y-83925501D01*
X124423563Y-83925501D01*
X124279641Y-83925501D01*
X124279638Y-83925501D01*
X124141551Y-83966046D01*
X124020475Y-84043857D01*
X123926225Y-84152627D01*
X123926224Y-84152629D01*
X123866436Y-84283544D01*
X123845955Y-84426001D01*
X116088869Y-84426001D01*
X116064125Y-84406317D01*
X116041643Y-84340163D01*
X116041534Y-84335179D01*
X116041478Y-84296533D01*
X116061065Y-84229466D01*
X116113803Y-84183634D01*
X116165478Y-84172354D01*
X116279875Y-84172354D01*
X116279877Y-84172354D01*
X116487608Y-84133522D01*
X116684666Y-84057182D01*
X116864341Y-83945931D01*
X117020515Y-83803560D01*
X117147869Y-83634916D01*
X117242066Y-83445743D01*
X117242066Y-83445740D01*
X117242068Y-83445738D01*
X117297617Y-83250500D01*
X117299899Y-83242481D01*
X117319398Y-83032054D01*
X117314155Y-82975478D01*
X117299899Y-82821627D01*
X117299898Y-82821624D01*
X117242068Y-82618369D01*
X117242065Y-82618363D01*
X117171489Y-82476628D01*
X117147869Y-82429192D01*
X117042756Y-82290000D01*
X125119853Y-82290000D01*
X125140334Y-82432456D01*
X125198561Y-82559953D01*
X125200123Y-82563373D01*
X125294372Y-82672143D01*
X125415447Y-82749953D01*
X125415450Y-82749954D01*
X125415449Y-82749954D01*
X125467825Y-82765333D01*
X125526604Y-82803107D01*
X125555629Y-82866662D01*
X125545686Y-82935821D01*
X125526607Y-82965509D01*
X125517973Y-82975473D01*
X125517970Y-82975478D01*
X125458182Y-83106393D01*
X125437701Y-83248850D01*
X125458182Y-83391306D01*
X125485215Y-83450499D01*
X125517971Y-83522223D01*
X125612220Y-83630993D01*
X125733295Y-83708803D01*
X125733298Y-83708804D01*
X125733297Y-83708804D01*
X125871384Y-83749349D01*
X125871386Y-83749350D01*
X125871387Y-83749350D01*
X126015310Y-83749350D01*
X126015310Y-83749349D01*
X126153401Y-83708803D01*
X126274476Y-83630993D01*
X126368725Y-83522223D01*
X126428513Y-83391307D01*
X126448995Y-83248850D01*
X126428513Y-83106393D01*
X126368725Y-82975477D01*
X126274476Y-82866707D01*
X126153401Y-82788897D01*
X126153400Y-82788896D01*
X126153399Y-82788896D01*
X126101020Y-82773516D01*
X126042243Y-82735741D01*
X126013218Y-82672185D01*
X126023162Y-82603027D01*
X126042242Y-82573337D01*
X126050877Y-82563373D01*
X126093519Y-82470000D01*
X127234353Y-82470000D01*
X127254834Y-82612456D01*
X127314622Y-82743371D01*
X127314623Y-82743373D01*
X127408872Y-82852143D01*
X127529947Y-82929953D01*
X127529950Y-82929954D01*
X127529949Y-82929954D01*
X127668036Y-82970499D01*
X127668038Y-82970500D01*
X127668039Y-82970500D01*
X127811962Y-82970500D01*
X127811962Y-82970499D01*
X127881777Y-82950000D01*
X131594353Y-82950000D01*
X131614834Y-83092456D01*
X131621199Y-83106393D01*
X131674623Y-83223373D01*
X131768872Y-83332143D01*
X131889947Y-83409953D01*
X131889950Y-83409954D01*
X131889949Y-83409954D01*
X131997107Y-83441417D01*
X132011841Y-83445744D01*
X132028036Y-83450499D01*
X132028038Y-83450500D01*
X132028039Y-83450500D01*
X132171962Y-83450500D01*
X132171962Y-83450499D01*
X132310053Y-83409953D01*
X132431128Y-83332143D01*
X132525377Y-83223373D01*
X132585165Y-83092457D01*
X132585165Y-83092456D01*
X132588849Y-83084390D01*
X132590816Y-83085288D01*
X132622049Y-83036674D01*
X132685600Y-83007640D01*
X132754760Y-83017573D01*
X132796977Y-83049171D01*
X132868872Y-83132143D01*
X132989947Y-83209953D01*
X132989950Y-83209954D01*
X132989949Y-83209954D01*
X133097107Y-83241417D01*
X133100728Y-83242481D01*
X133128036Y-83250499D01*
X133128038Y-83250500D01*
X133128039Y-83250500D01*
X133271962Y-83250500D01*
X133271962Y-83250499D01*
X133410053Y-83209953D01*
X133531128Y-83132143D01*
X133625377Y-83023373D01*
X133685165Y-82892457D01*
X133705647Y-82750000D01*
X133685165Y-82607543D01*
X133625377Y-82476627D01*
X133531128Y-82367857D01*
X133410053Y-82290047D01*
X133410051Y-82290046D01*
X133410049Y-82290045D01*
X133410050Y-82290045D01*
X133271963Y-82249500D01*
X133271961Y-82249500D01*
X133128039Y-82249500D01*
X133128036Y-82249500D01*
X132989949Y-82290045D01*
X132868873Y-82367856D01*
X132774623Y-82476626D01*
X132774622Y-82476628D01*
X132768495Y-82490045D01*
X132718052Y-82600500D01*
X132711151Y-82615610D01*
X132709187Y-82614713D01*
X132677930Y-82663343D01*
X132614372Y-82692363D01*
X132545215Y-82682415D01*
X132503021Y-82650827D01*
X132431128Y-82567857D01*
X132310053Y-82490047D01*
X132310051Y-82490046D01*
X132310049Y-82490045D01*
X132310050Y-82490045D01*
X132171963Y-82449500D01*
X132171961Y-82449500D01*
X132028039Y-82449500D01*
X132028036Y-82449500D01*
X131889949Y-82490045D01*
X131768873Y-82567856D01*
X131674623Y-82676626D01*
X131674622Y-82676628D01*
X131614834Y-82807543D01*
X131594353Y-82950000D01*
X127881777Y-82950000D01*
X127950053Y-82929953D01*
X128071128Y-82852143D01*
X128165377Y-82743373D01*
X128225165Y-82612457D01*
X128245647Y-82470000D01*
X128225165Y-82327543D01*
X128225164Y-82327541D01*
X128223901Y-82323239D01*
X128223900Y-82253370D01*
X128261674Y-82194591D01*
X128325229Y-82165565D01*
X128377813Y-82169326D01*
X128379945Y-82169952D01*
X128379947Y-82169953D01*
X128459381Y-82193276D01*
X128518038Y-82210500D01*
X128518039Y-82210500D01*
X128661962Y-82210500D01*
X128661962Y-82210499D01*
X128800053Y-82169953D01*
X128921128Y-82092143D01*
X129015377Y-81983373D01*
X129075165Y-81852457D01*
X129095647Y-81710000D01*
X129075165Y-81567543D01*
X129015377Y-81436627D01*
X128921128Y-81327857D01*
X128800053Y-81250047D01*
X128800051Y-81250046D01*
X128800049Y-81250045D01*
X128800050Y-81250045D01*
X128661963Y-81209500D01*
X128661961Y-81209500D01*
X128518039Y-81209500D01*
X128518036Y-81209500D01*
X128379949Y-81250045D01*
X128258873Y-81327856D01*
X128164623Y-81436626D01*
X128164622Y-81436628D01*
X128104834Y-81567543D01*
X128084353Y-81710000D01*
X128104835Y-81852463D01*
X128106099Y-81856766D01*
X128106097Y-81926635D01*
X128068320Y-81985412D01*
X128004763Y-82014435D01*
X127952187Y-82010673D01*
X127811963Y-81969500D01*
X127811961Y-81969500D01*
X127668039Y-81969500D01*
X127668036Y-81969500D01*
X127529949Y-82010045D01*
X127408873Y-82087856D01*
X127314623Y-82196626D01*
X127314622Y-82196628D01*
X127254834Y-82327543D01*
X127234353Y-82470000D01*
X126093519Y-82470000D01*
X126110665Y-82432457D01*
X126131147Y-82290000D01*
X126110665Y-82147543D01*
X126050877Y-82016627D01*
X125956628Y-81907857D01*
X125835553Y-81830047D01*
X125835551Y-81830046D01*
X125835549Y-81830045D01*
X125835550Y-81830045D01*
X125697463Y-81789500D01*
X125697461Y-81789500D01*
X125553539Y-81789500D01*
X125553536Y-81789500D01*
X125415449Y-81830045D01*
X125294373Y-81907856D01*
X125200123Y-82016626D01*
X125200122Y-82016628D01*
X125140334Y-82147543D01*
X125119853Y-82290000D01*
X117042756Y-82290000D01*
X117020515Y-82260548D01*
X117020513Y-82260545D01*
X116864342Y-82118178D01*
X116864341Y-82118177D01*
X116684666Y-82006926D01*
X116684665Y-82006925D01*
X116540578Y-81951106D01*
X116487608Y-81930586D01*
X116279877Y-81891754D01*
X116161765Y-81891754D01*
X116094726Y-81872069D01*
X116048971Y-81819265D01*
X116037765Y-81767936D01*
X116037471Y-81567543D01*
X116034821Y-79763000D01*
X126916084Y-79763000D01*
X126936565Y-79905456D01*
X126986109Y-80013940D01*
X126996354Y-80036373D01*
X127090603Y-80145143D01*
X127211678Y-80222953D01*
X127211681Y-80222954D01*
X127211680Y-80222954D01*
X127349767Y-80263499D01*
X127349769Y-80263500D01*
X127349770Y-80263500D01*
X127493693Y-80263500D01*
X127493693Y-80263499D01*
X127631784Y-80222953D01*
X127752859Y-80145143D01*
X127847108Y-80036373D01*
X127906896Y-79905457D01*
X127927378Y-79763000D01*
X127906896Y-79620543D01*
X127847108Y-79489627D01*
X127752859Y-79380857D01*
X127631784Y-79303047D01*
X127631782Y-79303046D01*
X127631780Y-79303045D01*
X127631781Y-79303045D01*
X127493694Y-79262500D01*
X127493692Y-79262500D01*
X127349770Y-79262500D01*
X127349767Y-79262500D01*
X127211680Y-79303045D01*
X127090604Y-79380856D01*
X126996354Y-79489626D01*
X126996353Y-79489628D01*
X126936565Y-79620543D01*
X126916084Y-79763000D01*
X116034821Y-79763000D01*
X116033709Y-79006000D01*
X124970353Y-79006000D01*
X124990834Y-79148456D01*
X125032672Y-79240067D01*
X125050623Y-79279373D01*
X125144872Y-79388143D01*
X125265947Y-79465953D01*
X125265950Y-79465954D01*
X125265949Y-79465954D01*
X125404036Y-79506499D01*
X125404038Y-79506500D01*
X125404039Y-79506500D01*
X125547962Y-79506500D01*
X125547962Y-79506499D01*
X125686053Y-79465953D01*
X125807128Y-79388143D01*
X125901377Y-79279373D01*
X125961165Y-79148457D01*
X125981647Y-79006000D01*
X125961165Y-78863543D01*
X125901377Y-78732627D01*
X125807128Y-78623857D01*
X125686053Y-78546047D01*
X125686051Y-78546046D01*
X125686049Y-78546045D01*
X125686050Y-78546045D01*
X125547963Y-78505500D01*
X125547961Y-78505500D01*
X125404039Y-78505500D01*
X125404036Y-78505500D01*
X125265949Y-78546045D01*
X125144873Y-78623856D01*
X125050623Y-78732626D01*
X125050622Y-78732628D01*
X124990834Y-78863543D01*
X124970353Y-79006000D01*
X116033709Y-79006000D01*
X116030335Y-76708001D01*
X118774318Y-76708001D01*
X118794955Y-76864760D01*
X118794956Y-76864762D01*
X118855464Y-77010841D01*
X118951718Y-77136282D01*
X119077159Y-77232536D01*
X119223238Y-77293044D01*
X119301619Y-77303363D01*
X119379999Y-77313682D01*
X119380000Y-77313682D01*
X119380001Y-77313682D01*
X119432254Y-77306802D01*
X119536762Y-77293044D01*
X119682841Y-77232536D01*
X119808282Y-77136282D01*
X119904536Y-77010841D01*
X119965044Y-76864762D01*
X119985682Y-76708000D01*
X119965044Y-76551238D01*
X119904536Y-76405159D01*
X119808282Y-76279718D01*
X119682841Y-76183464D01*
X119536762Y-76122956D01*
X119536760Y-76122955D01*
X119380001Y-76102318D01*
X119379999Y-76102318D01*
X119223239Y-76122955D01*
X119223237Y-76122956D01*
X119077160Y-76183463D01*
X118951718Y-76279718D01*
X118855463Y-76405160D01*
X118794956Y-76551237D01*
X118794955Y-76551239D01*
X118774318Y-76707998D01*
X118774318Y-76708001D01*
X116030335Y-76708001D01*
X116027983Y-75106497D01*
X116047568Y-75039433D01*
X116100305Y-74993600D01*
X116169449Y-74983555D01*
X116233047Y-75012487D01*
X116250357Y-75030832D01*
X116293519Y-75087081D01*
X116306718Y-75104282D01*
X116432159Y-75200536D01*
X116578238Y-75261044D01*
X116656619Y-75271363D01*
X116734999Y-75281682D01*
X116735000Y-75281682D01*
X116735001Y-75281682D01*
X116787254Y-75274802D01*
X116891762Y-75261044D01*
X117037841Y-75200536D01*
X117163282Y-75104282D01*
X117259536Y-74978841D01*
X117320044Y-74832762D01*
X117340682Y-74676000D01*
X117320044Y-74519238D01*
X117259536Y-74373159D01*
X117163282Y-74247718D01*
X117037841Y-74151464D01*
X116891762Y-74090956D01*
X116891760Y-74090955D01*
X116735001Y-74070318D01*
X116734999Y-74070318D01*
X116578239Y-74090955D01*
X116578237Y-74090956D01*
X116432160Y-74151463D01*
X116306715Y-74247720D01*
X116249096Y-74322811D01*
X116192668Y-74364014D01*
X116122922Y-74368168D01*
X116062002Y-74333955D01*
X116029249Y-74272237D01*
X116026721Y-74247513D01*
X116025858Y-73660001D01*
X121314318Y-73660001D01*
X121334955Y-73816760D01*
X121334956Y-73816762D01*
X121395464Y-73962841D01*
X121491718Y-74088282D01*
X121617159Y-74184536D01*
X121763238Y-74245044D01*
X121841619Y-74255363D01*
X121919999Y-74265682D01*
X121920000Y-74265682D01*
X121920001Y-74265682D01*
X121972254Y-74258802D01*
X122076762Y-74245044D01*
X122222841Y-74184536D01*
X122348282Y-74088282D01*
X122444536Y-73962841D01*
X122505044Y-73816762D01*
X122505846Y-73810668D01*
X122534112Y-73746772D01*
X122592437Y-73708301D01*
X122662301Y-73707470D01*
X122721525Y-73744542D01*
X122751304Y-73807748D01*
X122751724Y-73810669D01*
X122752525Y-73816760D01*
X122752526Y-73816762D01*
X122813034Y-73962841D01*
X122909288Y-74088282D01*
X123034729Y-74184536D01*
X123180808Y-74245044D01*
X123259189Y-74255363D01*
X123337569Y-74265682D01*
X123337570Y-74265682D01*
X123337571Y-74265682D01*
X123389824Y-74258802D01*
X123494332Y-74245044D01*
X123640411Y-74184536D01*
X123765852Y-74088282D01*
X123862106Y-73962841D01*
X123922614Y-73816762D01*
X123936893Y-73708301D01*
X123943252Y-73660001D01*
X123943252Y-73659998D01*
X123922614Y-73503239D01*
X123922614Y-73503238D01*
X123882337Y-73406000D01*
X124566822Y-73406000D01*
X124587303Y-73548456D01*
X124638245Y-73660001D01*
X124647092Y-73679373D01*
X124741341Y-73788143D01*
X124862416Y-73865953D01*
X124862419Y-73865954D01*
X124862418Y-73865954D01*
X125000505Y-73906499D01*
X125000507Y-73906500D01*
X125000508Y-73906500D01*
X125144431Y-73906500D01*
X125144431Y-73906499D01*
X125282522Y-73865953D01*
X125403597Y-73788143D01*
X125497846Y-73679373D01*
X125557634Y-73548457D01*
X125578116Y-73406000D01*
X126240353Y-73406000D01*
X126260834Y-73548456D01*
X126311776Y-73660001D01*
X126320623Y-73679373D01*
X126414872Y-73788143D01*
X126535947Y-73865953D01*
X126535950Y-73865954D01*
X126535949Y-73865954D01*
X126674036Y-73906499D01*
X126674038Y-73906500D01*
X126674039Y-73906500D01*
X126817962Y-73906500D01*
X126817962Y-73906499D01*
X126956053Y-73865953D01*
X127077128Y-73788143D01*
X127171377Y-73679373D01*
X127231165Y-73548457D01*
X127251647Y-73406000D01*
X127231165Y-73263543D01*
X127171377Y-73132627D01*
X127077128Y-73023857D01*
X126956053Y-72946047D01*
X126956051Y-72946046D01*
X126956049Y-72946045D01*
X126956050Y-72946045D01*
X126817963Y-72905500D01*
X126817961Y-72905500D01*
X126674039Y-72905500D01*
X126674036Y-72905500D01*
X126535949Y-72946045D01*
X126414873Y-73023856D01*
X126320623Y-73132626D01*
X126320622Y-73132628D01*
X126260834Y-73263543D01*
X126240353Y-73406000D01*
X125578116Y-73406000D01*
X125557634Y-73263543D01*
X125497846Y-73132627D01*
X125403597Y-73023857D01*
X125282522Y-72946047D01*
X125282520Y-72946046D01*
X125282518Y-72946045D01*
X125282519Y-72946045D01*
X125144432Y-72905500D01*
X125144430Y-72905500D01*
X125000508Y-72905500D01*
X125000505Y-72905500D01*
X124862418Y-72946045D01*
X124741342Y-73023856D01*
X124647092Y-73132626D01*
X124647091Y-73132628D01*
X124587303Y-73263543D01*
X124566822Y-73406000D01*
X123882337Y-73406000D01*
X123862106Y-73357159D01*
X123765852Y-73231718D01*
X123640411Y-73135464D01*
X123633564Y-73132628D01*
X123494332Y-73074956D01*
X123494330Y-73074955D01*
X123337571Y-73054318D01*
X123337569Y-73054318D01*
X123180809Y-73074955D01*
X123180807Y-73074956D01*
X123034730Y-73135463D01*
X122909288Y-73231718D01*
X122813033Y-73357160D01*
X122752526Y-73503237D01*
X122752526Y-73503239D01*
X122751724Y-73509331D01*
X122723457Y-73573228D01*
X122665132Y-73611698D01*
X122595267Y-73612529D01*
X122536044Y-73575456D01*
X122506266Y-73512250D01*
X122505846Y-73509331D01*
X122505044Y-73503238D01*
X122444536Y-73357159D01*
X122348282Y-73231718D01*
X122222841Y-73135464D01*
X122215994Y-73132628D01*
X122076762Y-73074956D01*
X122076760Y-73074955D01*
X121920001Y-73054318D01*
X121919999Y-73054318D01*
X121763239Y-73074955D01*
X121763237Y-73074956D01*
X121617160Y-73135463D01*
X121491718Y-73231718D01*
X121395463Y-73357160D01*
X121334956Y-73503237D01*
X121334955Y-73503239D01*
X121314318Y-73659998D01*
X121314318Y-73660001D01*
X116025858Y-73660001D01*
X116024366Y-72644001D01*
X119431888Y-72644001D01*
X119452525Y-72800760D01*
X119452526Y-72800762D01*
X119513034Y-72946841D01*
X119609288Y-73072282D01*
X119734729Y-73168536D01*
X119880808Y-73229044D01*
X119959189Y-73239363D01*
X120037569Y-73249682D01*
X120037570Y-73249682D01*
X120037571Y-73249682D01*
X120089824Y-73242802D01*
X120194332Y-73229044D01*
X120340411Y-73168536D01*
X120465852Y-73072282D01*
X120562106Y-72946841D01*
X120622614Y-72800762D01*
X120643252Y-72644000D01*
X120622614Y-72487238D01*
X120562106Y-72341159D01*
X120465852Y-72215718D01*
X120340411Y-72119464D01*
X120194332Y-72058956D01*
X120194330Y-72058955D01*
X120037571Y-72038318D01*
X120037569Y-72038318D01*
X119880809Y-72058955D01*
X119880807Y-72058956D01*
X119734730Y-72119463D01*
X119609288Y-72215718D01*
X119513033Y-72341160D01*
X119452526Y-72487237D01*
X119452525Y-72487239D01*
X119431888Y-72643998D01*
X119431888Y-72644001D01*
X116024366Y-72644001D01*
X116022686Y-71500000D01*
X130494353Y-71500000D01*
X130514834Y-71642456D01*
X130574622Y-71773371D01*
X130574623Y-71773373D01*
X130668872Y-71882143D01*
X130789947Y-71959953D01*
X130789950Y-71959954D01*
X130789949Y-71959954D01*
X130928036Y-72000499D01*
X130928038Y-72000500D01*
X130928039Y-72000500D01*
X131071962Y-72000500D01*
X131071962Y-72000499D01*
X131210053Y-71959953D01*
X131331128Y-71882143D01*
X131425377Y-71773373D01*
X131485165Y-71642457D01*
X131505647Y-71500000D01*
X131485165Y-71357543D01*
X131425377Y-71226627D01*
X131331128Y-71117857D01*
X131210053Y-71040047D01*
X131210051Y-71040046D01*
X131210049Y-71040045D01*
X131210050Y-71040045D01*
X131071963Y-70999500D01*
X131071961Y-70999500D01*
X130928039Y-70999500D01*
X130928036Y-70999500D01*
X130789949Y-71040045D01*
X130668873Y-71117856D01*
X130574623Y-71226626D01*
X130574622Y-71226628D01*
X130514834Y-71357543D01*
X130494353Y-71500000D01*
X116022686Y-71500000D01*
X116021382Y-70612001D01*
X120298318Y-70612001D01*
X120318955Y-70768760D01*
X120318956Y-70768762D01*
X120379464Y-70914841D01*
X120475718Y-71040282D01*
X120601159Y-71136536D01*
X120747238Y-71197044D01*
X120825619Y-71207363D01*
X120903999Y-71217682D01*
X120904000Y-71217682D01*
X120904001Y-71217682D01*
X120956254Y-71210802D01*
X121060762Y-71197044D01*
X121206841Y-71136536D01*
X121332282Y-71040282D01*
X121428536Y-70914841D01*
X121489044Y-70768762D01*
X121509682Y-70612000D01*
X121489044Y-70455238D01*
X121428536Y-70309159D01*
X121332282Y-70183718D01*
X121206841Y-70087464D01*
X121060762Y-70026956D01*
X121060760Y-70026955D01*
X120904001Y-70006318D01*
X120903999Y-70006318D01*
X120747239Y-70026955D01*
X120747237Y-70026956D01*
X120601160Y-70087463D01*
X120475718Y-70183718D01*
X120379463Y-70309160D01*
X120318956Y-70455237D01*
X120318955Y-70455239D01*
X120298318Y-70611998D01*
X120298318Y-70612001D01*
X116021382Y-70612001D01*
X116019232Y-69148010D01*
X122246309Y-69148010D01*
X122266946Y-69304769D01*
X122266947Y-69304771D01*
X122327455Y-69450850D01*
X122423709Y-69576291D01*
X122549150Y-69672545D01*
X122695229Y-69733053D01*
X122773610Y-69743372D01*
X122851990Y-69753691D01*
X122851991Y-69753691D01*
X122851992Y-69753691D01*
X122904245Y-69746811D01*
X123008753Y-69733053D01*
X123154832Y-69672545D01*
X123280273Y-69576291D01*
X123376527Y-69450850D01*
X123437035Y-69304771D01*
X123457673Y-69148009D01*
X123437035Y-68991247D01*
X123376527Y-68845168D01*
X123280273Y-68719727D01*
X123154832Y-68623473D01*
X123008753Y-68562965D01*
X123008751Y-68562964D01*
X122851992Y-68542327D01*
X122851990Y-68542327D01*
X122695230Y-68562964D01*
X122695228Y-68562965D01*
X122549151Y-68623472D01*
X122423709Y-68719727D01*
X122327454Y-68845169D01*
X122266947Y-68991246D01*
X122266946Y-68991248D01*
X122246309Y-69148007D01*
X122246309Y-69148010D01*
X116019232Y-69148010D01*
X116016869Y-67538600D01*
X123624153Y-67538600D01*
X123644634Y-67681056D01*
X123704422Y-67811971D01*
X123704423Y-67811973D01*
X123798672Y-67920743D01*
X123919747Y-67998553D01*
X123919750Y-67998554D01*
X123919749Y-67998554D01*
X124057836Y-68039099D01*
X124057838Y-68039100D01*
X124057839Y-68039100D01*
X124201762Y-68039100D01*
X124201762Y-68039099D01*
X124339853Y-67998553D01*
X124460928Y-67920743D01*
X124555177Y-67811973D01*
X124614965Y-67681057D01*
X124620839Y-67640200D01*
X125986353Y-67640200D01*
X126006834Y-67782656D01*
X126020222Y-67811971D01*
X126066623Y-67913573D01*
X126160872Y-68022343D01*
X126281947Y-68100153D01*
X126281950Y-68100154D01*
X126281949Y-68100154D01*
X126420036Y-68140699D01*
X126420038Y-68140700D01*
X126420039Y-68140700D01*
X126563962Y-68140700D01*
X126563962Y-68140699D01*
X126702053Y-68100153D01*
X126823128Y-68022343D01*
X126917377Y-67913573D01*
X126977165Y-67782657D01*
X126997647Y-67640200D01*
X126977165Y-67497743D01*
X126917377Y-67366827D01*
X126823128Y-67258057D01*
X126702053Y-67180247D01*
X126702051Y-67180246D01*
X126702049Y-67180245D01*
X126702050Y-67180245D01*
X126599042Y-67150000D01*
X130644353Y-67150000D01*
X130664834Y-67292456D01*
X130712187Y-67396143D01*
X130724623Y-67423373D01*
X130818872Y-67532143D01*
X130939947Y-67609953D01*
X130939950Y-67609954D01*
X130939949Y-67609954D01*
X131078036Y-67650499D01*
X131078038Y-67650500D01*
X131078039Y-67650500D01*
X131221962Y-67650500D01*
X131221962Y-67650499D01*
X131360053Y-67609953D01*
X131481128Y-67532143D01*
X131575377Y-67423373D01*
X131635165Y-67292457D01*
X131655647Y-67150000D01*
X131635165Y-67007543D01*
X131575377Y-66876627D01*
X131481128Y-66767857D01*
X131375540Y-66700000D01*
X133194353Y-66700000D01*
X133214834Y-66842456D01*
X133274622Y-66973371D01*
X133274623Y-66973373D01*
X133368872Y-67082143D01*
X133489947Y-67159953D01*
X133489950Y-67159954D01*
X133489949Y-67159954D01*
X133628036Y-67200499D01*
X133628038Y-67200500D01*
X133628039Y-67200500D01*
X133771962Y-67200500D01*
X133771962Y-67200499D01*
X133910053Y-67159953D01*
X134031128Y-67082143D01*
X134125377Y-66973373D01*
X134185165Y-66842457D01*
X134205647Y-66700000D01*
X134185165Y-66557543D01*
X134125377Y-66426627D01*
X134031128Y-66317857D01*
X133910053Y-66240047D01*
X133910051Y-66240046D01*
X133910049Y-66240045D01*
X133910050Y-66240045D01*
X133771963Y-66199500D01*
X133771961Y-66199500D01*
X133628039Y-66199500D01*
X133628036Y-66199500D01*
X133489949Y-66240045D01*
X133368873Y-66317856D01*
X133274623Y-66426626D01*
X133274622Y-66426628D01*
X133214834Y-66557543D01*
X133194353Y-66700000D01*
X131375540Y-66700000D01*
X131360053Y-66690047D01*
X131360051Y-66690046D01*
X131360049Y-66690045D01*
X131360050Y-66690045D01*
X131221963Y-66649500D01*
X131221961Y-66649500D01*
X131078039Y-66649500D01*
X131078036Y-66649500D01*
X130939949Y-66690045D01*
X130818873Y-66767856D01*
X130724623Y-66876626D01*
X130724622Y-66876628D01*
X130664834Y-67007543D01*
X130644353Y-67150000D01*
X126599042Y-67150000D01*
X126563963Y-67139700D01*
X126563961Y-67139700D01*
X126420039Y-67139700D01*
X126420036Y-67139700D01*
X126281949Y-67180245D01*
X126160873Y-67258056D01*
X126066623Y-67366826D01*
X126066622Y-67366828D01*
X126006834Y-67497743D01*
X125986353Y-67640200D01*
X124620839Y-67640200D01*
X124635447Y-67538600D01*
X124614965Y-67396143D01*
X124555177Y-67265227D01*
X124460928Y-67156457D01*
X124339853Y-67078647D01*
X124339851Y-67078646D01*
X124339849Y-67078645D01*
X124339850Y-67078645D01*
X124201763Y-67038100D01*
X124201761Y-67038100D01*
X124057839Y-67038100D01*
X124057836Y-67038100D01*
X123919749Y-67078645D01*
X123798673Y-67156456D01*
X123704423Y-67265226D01*
X123704422Y-67265228D01*
X123644634Y-67396143D01*
X123624153Y-67538600D01*
X116016869Y-67538600D01*
X116013876Y-65500000D01*
X126494353Y-65500000D01*
X126514834Y-65642456D01*
X126569044Y-65761157D01*
X126574623Y-65773373D01*
X126668872Y-65882143D01*
X126789947Y-65959953D01*
X126789950Y-65959954D01*
X126789949Y-65959954D01*
X126928036Y-66000499D01*
X126928038Y-66000500D01*
X126928039Y-66000500D01*
X127071962Y-66000500D01*
X127071962Y-66000499D01*
X127210053Y-65959953D01*
X127331128Y-65882143D01*
X127425377Y-65773373D01*
X127485165Y-65642457D01*
X127488581Y-65618700D01*
X127894353Y-65618700D01*
X127914834Y-65761156D01*
X127933546Y-65802128D01*
X127974623Y-65892073D01*
X128068872Y-66000843D01*
X128189947Y-66078653D01*
X128189950Y-66078654D01*
X128189949Y-66078654D01*
X128328036Y-66119199D01*
X128328038Y-66119200D01*
X128328039Y-66119200D01*
X128471962Y-66119200D01*
X128471962Y-66119199D01*
X128610053Y-66078653D01*
X128614959Y-66075500D01*
X135094353Y-66075500D01*
X135114834Y-66217956D01*
X135160458Y-66317856D01*
X135174623Y-66348873D01*
X135268872Y-66457643D01*
X135389947Y-66535453D01*
X135389950Y-66535454D01*
X135389949Y-66535454D01*
X135528036Y-66575999D01*
X135528038Y-66576000D01*
X135528039Y-66576000D01*
X135671962Y-66576000D01*
X135671962Y-66575999D01*
X135810053Y-66535453D01*
X135931128Y-66457643D01*
X136025377Y-66348873D01*
X136085165Y-66217957D01*
X136105647Y-66075500D01*
X136085165Y-65933043D01*
X136025377Y-65802127D01*
X135931128Y-65693357D01*
X135810053Y-65615547D01*
X135810051Y-65615546D01*
X135810049Y-65615545D01*
X135810050Y-65615545D01*
X135671963Y-65575000D01*
X135671961Y-65575000D01*
X135528039Y-65575000D01*
X135528036Y-65575000D01*
X135389949Y-65615545D01*
X135268873Y-65693356D01*
X135174623Y-65802126D01*
X135174622Y-65802128D01*
X135114834Y-65933043D01*
X135094353Y-66075500D01*
X128614959Y-66075500D01*
X128731128Y-66000843D01*
X128825377Y-65892073D01*
X128885165Y-65761157D01*
X128905647Y-65618700D01*
X128888581Y-65500000D01*
X132284176Y-65500000D01*
X132304657Y-65642456D01*
X132358867Y-65761157D01*
X132364446Y-65773373D01*
X132458695Y-65882143D01*
X132579770Y-65959953D01*
X132579773Y-65959954D01*
X132579772Y-65959954D01*
X132717859Y-66000499D01*
X132717861Y-66000500D01*
X132717862Y-66000500D01*
X132861785Y-66000500D01*
X132861785Y-66000499D01*
X132999876Y-65959953D01*
X133120951Y-65882143D01*
X133215200Y-65773373D01*
X133274988Y-65642457D01*
X133295470Y-65500000D01*
X133274988Y-65357543D01*
X133215200Y-65226627D01*
X133120951Y-65117857D01*
X132999876Y-65040047D01*
X132999874Y-65040046D01*
X132999872Y-65040045D01*
X132999873Y-65040045D01*
X132861786Y-64999500D01*
X132861784Y-64999500D01*
X132717862Y-64999500D01*
X132717859Y-64999500D01*
X132579772Y-65040045D01*
X132458696Y-65117856D01*
X132364446Y-65226626D01*
X132364445Y-65226628D01*
X132304657Y-65357543D01*
X132284176Y-65500000D01*
X128888581Y-65500000D01*
X128885165Y-65476243D01*
X128825377Y-65345327D01*
X128731128Y-65236557D01*
X128610053Y-65158747D01*
X128610051Y-65158746D01*
X128610049Y-65158745D01*
X128610050Y-65158745D01*
X128471963Y-65118200D01*
X128471961Y-65118200D01*
X128328039Y-65118200D01*
X128328036Y-65118200D01*
X128189949Y-65158745D01*
X128068873Y-65236556D01*
X127974623Y-65345326D01*
X127974622Y-65345328D01*
X127914834Y-65476243D01*
X127894353Y-65618700D01*
X127488581Y-65618700D01*
X127505647Y-65500000D01*
X127485165Y-65357543D01*
X127425377Y-65226627D01*
X127331128Y-65117857D01*
X127210053Y-65040047D01*
X127210051Y-65040046D01*
X127210049Y-65040045D01*
X127210050Y-65040045D01*
X127071963Y-64999500D01*
X127071961Y-64999500D01*
X126928039Y-64999500D01*
X126928036Y-64999500D01*
X126789949Y-65040045D01*
X126668873Y-65117856D01*
X126574623Y-65226626D01*
X126574622Y-65226628D01*
X126514834Y-65357543D01*
X126494353Y-65500000D01*
X116013876Y-65500000D01*
X116013168Y-65017698D01*
X116032754Y-64950632D01*
X116085491Y-64904799D01*
X116145603Y-64894560D01*
X116145603Y-64894300D01*
X116147130Y-64894300D01*
X116148615Y-64894047D01*
X116151328Y-64894298D01*
X116151336Y-64894300D01*
X116151344Y-64894300D01*
X116362662Y-64894300D01*
X116362664Y-64894300D01*
X116570395Y-64855468D01*
X116767453Y-64779128D01*
X116895248Y-64700000D01*
X128940452Y-64700000D01*
X128960933Y-64842456D01*
X128984610Y-64894300D01*
X129020722Y-64973373D01*
X129114971Y-65082143D01*
X129236046Y-65159953D01*
X129236049Y-65159954D01*
X129236048Y-65159954D01*
X129374135Y-65200499D01*
X129374137Y-65200500D01*
X129374138Y-65200500D01*
X129518061Y-65200500D01*
X129518061Y-65200499D01*
X129656152Y-65159953D01*
X129777227Y-65082143D01*
X129871476Y-64973373D01*
X129931264Y-64842457D01*
X129951746Y-64700000D01*
X129931264Y-64557543D01*
X129871476Y-64426627D01*
X129777227Y-64317857D01*
X129656152Y-64240047D01*
X129656150Y-64240046D01*
X129656148Y-64240045D01*
X129656149Y-64240045D01*
X129518062Y-64199500D01*
X129518060Y-64199500D01*
X129374138Y-64199500D01*
X129374135Y-64199500D01*
X129236048Y-64240045D01*
X129114972Y-64317856D01*
X129020722Y-64426626D01*
X129020721Y-64426628D01*
X128960933Y-64557543D01*
X128940452Y-64700000D01*
X116895248Y-64700000D01*
X116947128Y-64667877D01*
X117103302Y-64525506D01*
X117230656Y-64356862D01*
X117324853Y-64167689D01*
X117324853Y-64167686D01*
X117324855Y-64167684D01*
X117344112Y-64100000D01*
X135594353Y-64100000D01*
X135614834Y-64242456D01*
X135674622Y-64373371D01*
X135674623Y-64373373D01*
X135768872Y-64482143D01*
X135889947Y-64559953D01*
X135889950Y-64559954D01*
X135889949Y-64559954D01*
X136028036Y-64600499D01*
X136028038Y-64600500D01*
X136028039Y-64600500D01*
X136171962Y-64600500D01*
X136171962Y-64600499D01*
X136310053Y-64559953D01*
X136431128Y-64482143D01*
X136525377Y-64373373D01*
X136585165Y-64242457D01*
X136605647Y-64100000D01*
X136585165Y-63957543D01*
X136525377Y-63826627D01*
X136431128Y-63717857D01*
X136310053Y-63640047D01*
X136310051Y-63640046D01*
X136310049Y-63640045D01*
X136310050Y-63640045D01*
X136171963Y-63599500D01*
X136171961Y-63599500D01*
X136028039Y-63599500D01*
X136028036Y-63599500D01*
X135889949Y-63640045D01*
X135768873Y-63717856D01*
X135674623Y-63826626D01*
X135674622Y-63826628D01*
X135614834Y-63957543D01*
X135594353Y-64100000D01*
X117344112Y-64100000D01*
X117382685Y-63964429D01*
X117382686Y-63964426D01*
X117402185Y-63754000D01*
X117402185Y-63753999D01*
X117382686Y-63543573D01*
X117382685Y-63543570D01*
X117324855Y-63340315D01*
X117324852Y-63340309D01*
X117235525Y-63160917D01*
X117230656Y-63151138D01*
X117103302Y-62982494D01*
X117103300Y-62982491D01*
X117058005Y-62941200D01*
X127434153Y-62941200D01*
X127454634Y-63083656D01*
X127514422Y-63214571D01*
X127514423Y-63214573D01*
X127608672Y-63323343D01*
X127729747Y-63401153D01*
X127729750Y-63401154D01*
X127729749Y-63401154D01*
X127867836Y-63441699D01*
X127867838Y-63441700D01*
X127867839Y-63441700D01*
X128011762Y-63441700D01*
X128011762Y-63441699D01*
X128149853Y-63401153D01*
X128270928Y-63323343D01*
X128308340Y-63280167D01*
X128915452Y-63280167D01*
X128935933Y-63422623D01*
X128990936Y-63543060D01*
X128995722Y-63553540D01*
X129089971Y-63662310D01*
X129211046Y-63740120D01*
X129211049Y-63740121D01*
X129211048Y-63740121D01*
X129349135Y-63780666D01*
X129349137Y-63780667D01*
X129349138Y-63780667D01*
X129493061Y-63780667D01*
X129493061Y-63780666D01*
X129631152Y-63740120D01*
X129752227Y-63662310D01*
X129846476Y-63553540D01*
X129851262Y-63543060D01*
X132451293Y-63543060D01*
X132471774Y-63685516D01*
X132515229Y-63780667D01*
X132531563Y-63816433D01*
X132625812Y-63925203D01*
X132746887Y-64003013D01*
X132746890Y-64003014D01*
X132746889Y-64003014D01*
X132884976Y-64043559D01*
X132884978Y-64043560D01*
X132884979Y-64043560D01*
X133028902Y-64043560D01*
X133028902Y-64043559D01*
X133166993Y-64003013D01*
X133288068Y-63925203D01*
X133382317Y-63816433D01*
X133442105Y-63685517D01*
X133462587Y-63543060D01*
X133442105Y-63400603D01*
X133441830Y-63400000D01*
X137194353Y-63400000D01*
X137214834Y-63542456D01*
X137219896Y-63553540D01*
X137274623Y-63673373D01*
X137368872Y-63782143D01*
X137489947Y-63859953D01*
X137489950Y-63859954D01*
X137489949Y-63859954D01*
X137628036Y-63900499D01*
X137628038Y-63900500D01*
X137628039Y-63900500D01*
X137771962Y-63900500D01*
X137771962Y-63900499D01*
X137910053Y-63859953D01*
X138031128Y-63782143D01*
X138125377Y-63673373D01*
X138185165Y-63542457D01*
X138205647Y-63400000D01*
X138185165Y-63257543D01*
X138125377Y-63126627D01*
X138031128Y-63017857D01*
X137910053Y-62940047D01*
X137910051Y-62940046D01*
X137910049Y-62940045D01*
X137910050Y-62940045D01*
X137771963Y-62899500D01*
X137771961Y-62899500D01*
X137628039Y-62899500D01*
X137628036Y-62899500D01*
X137489949Y-62940045D01*
X137368873Y-63017856D01*
X137274623Y-63126626D01*
X137274622Y-63126628D01*
X137214834Y-63257543D01*
X137194353Y-63400000D01*
X133441830Y-63400000D01*
X133382317Y-63269687D01*
X133288068Y-63160917D01*
X133166993Y-63083107D01*
X133166991Y-63083106D01*
X133166989Y-63083105D01*
X133166990Y-63083105D01*
X133028903Y-63042560D01*
X133028901Y-63042560D01*
X132884979Y-63042560D01*
X132884976Y-63042560D01*
X132746889Y-63083105D01*
X132625813Y-63160916D01*
X132531563Y-63269686D01*
X132531562Y-63269688D01*
X132471774Y-63400603D01*
X132451293Y-63543060D01*
X129851262Y-63543060D01*
X129906264Y-63422624D01*
X129926746Y-63280167D01*
X129906264Y-63137710D01*
X129846476Y-63006794D01*
X129752227Y-62898024D01*
X129631152Y-62820214D01*
X129631150Y-62820213D01*
X129631148Y-62820212D01*
X129631149Y-62820212D01*
X129493062Y-62779667D01*
X129493060Y-62779667D01*
X129349138Y-62779667D01*
X129349135Y-62779667D01*
X129211048Y-62820212D01*
X129089972Y-62898023D01*
X128995722Y-63006793D01*
X128995721Y-63006795D01*
X128935933Y-63137710D01*
X128915452Y-63280167D01*
X128308340Y-63280167D01*
X128365177Y-63214573D01*
X128424965Y-63083657D01*
X128445447Y-62941200D01*
X128424965Y-62798743D01*
X128365177Y-62667827D01*
X128270928Y-62559057D01*
X128149853Y-62481247D01*
X128149851Y-62481246D01*
X128149849Y-62481245D01*
X128149850Y-62481245D01*
X128011763Y-62440700D01*
X128011761Y-62440700D01*
X127867839Y-62440700D01*
X127867836Y-62440700D01*
X127729749Y-62481245D01*
X127608673Y-62559056D01*
X127514423Y-62667826D01*
X127514422Y-62667828D01*
X127454634Y-62798743D01*
X127434153Y-62941200D01*
X117058005Y-62941200D01*
X116947129Y-62840124D01*
X116947128Y-62840123D01*
X116767453Y-62728872D01*
X116767452Y-62728871D01*
X116609874Y-62667826D01*
X116570395Y-62652532D01*
X116362664Y-62613700D01*
X116151336Y-62613700D01*
X116151334Y-62613700D01*
X116145630Y-62614229D01*
X116145395Y-62611694D01*
X116086686Y-62605735D01*
X116032023Y-62562217D01*
X116009565Y-62496056D01*
X116009458Y-62491076D01*
X116009359Y-62423740D01*
X116028945Y-62356672D01*
X116081682Y-62310839D01*
X116150826Y-62300794D01*
X116178148Y-62307930D01*
X116197605Y-62315468D01*
X116405336Y-62354300D01*
X116405338Y-62354300D01*
X116616662Y-62354300D01*
X116616664Y-62354300D01*
X116738097Y-62331600D01*
X118366353Y-62331600D01*
X118386834Y-62474056D01*
X118445634Y-62602807D01*
X118446623Y-62604973D01*
X118540872Y-62713743D01*
X118661947Y-62791553D01*
X118661950Y-62791554D01*
X118661949Y-62791554D01*
X118800036Y-62832099D01*
X118800038Y-62832100D01*
X118800039Y-62832100D01*
X118943962Y-62832100D01*
X118943962Y-62832099D01*
X119082053Y-62791553D01*
X119203128Y-62713743D01*
X119297377Y-62604973D01*
X119297381Y-62604963D01*
X119298768Y-62602807D01*
X119300718Y-62601116D01*
X119303185Y-62598270D01*
X119303594Y-62598624D01*
X119351568Y-62557047D01*
X119420725Y-62547096D01*
X119470128Y-62565519D01*
X119517493Y-62595959D01*
X119517496Y-62595960D01*
X119517495Y-62595960D01*
X119655582Y-62636505D01*
X119655584Y-62636506D01*
X119655585Y-62636506D01*
X119799508Y-62636506D01*
X119799508Y-62636505D01*
X119928523Y-62598624D01*
X119937596Y-62595960D01*
X119937596Y-62595959D01*
X119937599Y-62595959D01*
X120058674Y-62518149D01*
X120152923Y-62409379D01*
X120212711Y-62278463D01*
X120225660Y-62188400D01*
X123895953Y-62188400D01*
X123916434Y-62330856D01*
X123966599Y-62440700D01*
X123976223Y-62461773D01*
X124070472Y-62570543D01*
X124191547Y-62648353D01*
X124191550Y-62648354D01*
X124191549Y-62648354D01*
X124329636Y-62688899D01*
X124329638Y-62688900D01*
X124329639Y-62688900D01*
X124473562Y-62688900D01*
X124473562Y-62688899D01*
X124597417Y-62652533D01*
X124611650Y-62648354D01*
X124611650Y-62648353D01*
X124611653Y-62648353D01*
X124732728Y-62570543D01*
X124826977Y-62461773D01*
X124886765Y-62330857D01*
X124907247Y-62188400D01*
X124886765Y-62045943D01*
X124826977Y-61915027D01*
X124732728Y-61806257D01*
X124611653Y-61728447D01*
X124611651Y-61728446D01*
X124611649Y-61728445D01*
X124611650Y-61728445D01*
X124473563Y-61687900D01*
X124473561Y-61687900D01*
X124329639Y-61687900D01*
X124329636Y-61687900D01*
X124191549Y-61728445D01*
X124070473Y-61806256D01*
X123976223Y-61915026D01*
X123976222Y-61915028D01*
X123916434Y-62045943D01*
X123895953Y-62188400D01*
X120225660Y-62188400D01*
X120233193Y-62136006D01*
X120212711Y-61993549D01*
X120152923Y-61862633D01*
X120058674Y-61753863D01*
X119937599Y-61676053D01*
X119937597Y-61676052D01*
X119937595Y-61676051D01*
X119937596Y-61676051D01*
X119799509Y-61635506D01*
X119799507Y-61635506D01*
X119655585Y-61635506D01*
X119655582Y-61635506D01*
X119517495Y-61676051D01*
X119396419Y-61753862D01*
X119302167Y-61862634D01*
X119300769Y-61864811D01*
X119298814Y-61866504D01*
X119296361Y-61869336D01*
X119295953Y-61868983D01*
X119247964Y-61910565D01*
X119178805Y-61920506D01*
X119129416Y-61902085D01*
X119082050Y-61871645D01*
X118943963Y-61831100D01*
X118943961Y-61831100D01*
X118800039Y-61831100D01*
X118800036Y-61831100D01*
X118661949Y-61871645D01*
X118540873Y-61949456D01*
X118446623Y-62058226D01*
X118446622Y-62058228D01*
X118386834Y-62189143D01*
X118366353Y-62331600D01*
X116738097Y-62331600D01*
X116824395Y-62315468D01*
X117021453Y-62239128D01*
X117201128Y-62127877D01*
X117357302Y-61985506D01*
X117484656Y-61816862D01*
X117578853Y-61627689D01*
X117578853Y-61627686D01*
X117578855Y-61627684D01*
X117604826Y-61536403D01*
X125076108Y-61536403D01*
X125095952Y-61661700D01*
X125095952Y-61661701D01*
X125114405Y-61697917D01*
X125153550Y-61774742D01*
X125153552Y-61774744D01*
X125153554Y-61774747D01*
X125243252Y-61864445D01*
X125243254Y-61864446D01*
X125243258Y-61864450D01*
X125356296Y-61922046D01*
X125356297Y-61922046D01*
X125356299Y-61922047D01*
X125481597Y-61941892D01*
X125481600Y-61941892D01*
X125481603Y-61941892D01*
X125606900Y-61922047D01*
X125606901Y-61922047D01*
X125606902Y-61922046D01*
X125606904Y-61922046D01*
X125719942Y-61864450D01*
X125809650Y-61774742D01*
X125821115Y-61752239D01*
X125869089Y-61701443D01*
X125936910Y-61684648D01*
X126003045Y-61707185D01*
X126042085Y-61752240D01*
X126053549Y-61774740D01*
X126053554Y-61774747D01*
X126143252Y-61864445D01*
X126143254Y-61864446D01*
X126143258Y-61864450D01*
X126256296Y-61922046D01*
X126256297Y-61922046D01*
X126256299Y-61922047D01*
X126381597Y-61941892D01*
X126381600Y-61941892D01*
X126381603Y-61941892D01*
X126506900Y-61922047D01*
X126506901Y-61922047D01*
X126506902Y-61922046D01*
X126506904Y-61922046D01*
X126619942Y-61864450D01*
X126709650Y-61774742D01*
X126767246Y-61661704D01*
X126767246Y-61661702D01*
X126767247Y-61661701D01*
X126767247Y-61661700D01*
X126787092Y-61536403D01*
X126787092Y-61536396D01*
X126767247Y-61411099D01*
X126767247Y-61411098D01*
X126744071Y-61365613D01*
X126709650Y-61298058D01*
X126709646Y-61298054D01*
X126709645Y-61298052D01*
X126635674Y-61224081D01*
X126602189Y-61162758D01*
X126606677Y-61100000D01*
X131094353Y-61100000D01*
X131114834Y-61242456D01*
X131140227Y-61298057D01*
X131174623Y-61373373D01*
X131268872Y-61482143D01*
X131389947Y-61559953D01*
X131389950Y-61559954D01*
X131389949Y-61559954D01*
X131528036Y-61600499D01*
X131528038Y-61600500D01*
X131528039Y-61600500D01*
X131671962Y-61600500D01*
X131671962Y-61600499D01*
X131810053Y-61559953D01*
X131931128Y-61482143D01*
X132025377Y-61373373D01*
X132085165Y-61242457D01*
X132105647Y-61100000D01*
X132085165Y-60957543D01*
X132060880Y-60904366D01*
X136914318Y-60904366D01*
X136934955Y-61061125D01*
X136934956Y-61061127D01*
X136960189Y-61122046D01*
X136995464Y-61207206D01*
X137091718Y-61332647D01*
X137217159Y-61428901D01*
X137363238Y-61489409D01*
X137441619Y-61499728D01*
X137519999Y-61510047D01*
X137520000Y-61510047D01*
X137520001Y-61510047D01*
X137572254Y-61503167D01*
X137676762Y-61489409D01*
X137822841Y-61428901D01*
X137948282Y-61332647D01*
X138044536Y-61207206D01*
X138105044Y-61061127D01*
X138125682Y-60904365D01*
X138125297Y-60901443D01*
X138105044Y-60747604D01*
X138105044Y-60747603D01*
X138044536Y-60601524D01*
X137948282Y-60476083D01*
X137822841Y-60379829D01*
X137704735Y-60330908D01*
X137676762Y-60319321D01*
X137676760Y-60319320D01*
X137520001Y-60298683D01*
X137519999Y-60298683D01*
X137363239Y-60319320D01*
X137363237Y-60319321D01*
X137217160Y-60379828D01*
X137091718Y-60476083D01*
X136995463Y-60601525D01*
X136934956Y-60747602D01*
X136934955Y-60747604D01*
X136914318Y-60904363D01*
X136914318Y-60904366D01*
X132060880Y-60904366D01*
X132025377Y-60826627D01*
X131931128Y-60717857D01*
X131810053Y-60640047D01*
X131810051Y-60640046D01*
X131810049Y-60640045D01*
X131810050Y-60640045D01*
X131671963Y-60599500D01*
X131671961Y-60599500D01*
X131528039Y-60599500D01*
X131528036Y-60599500D01*
X131389949Y-60640045D01*
X131268873Y-60717856D01*
X131174623Y-60826626D01*
X131174622Y-60826628D01*
X131114834Y-60957543D01*
X131094353Y-61100000D01*
X126606677Y-61100000D01*
X126607173Y-61093066D01*
X126635674Y-61048719D01*
X126709645Y-60974747D01*
X126709650Y-60974742D01*
X126767246Y-60861704D01*
X126767246Y-60861702D01*
X126767247Y-60861701D01*
X126767247Y-60861700D01*
X126787092Y-60736403D01*
X126787092Y-60736396D01*
X126767247Y-60611099D01*
X126767247Y-60611098D01*
X126762369Y-60601524D01*
X126709650Y-60498058D01*
X126709646Y-60498054D01*
X126709645Y-60498052D01*
X126619947Y-60408354D01*
X126619944Y-60408352D01*
X126619942Y-60408350D01*
X126506904Y-60350754D01*
X126506903Y-60350753D01*
X126506900Y-60350752D01*
X126381603Y-60330908D01*
X126381597Y-60330908D01*
X126256299Y-60350752D01*
X126256298Y-60350752D01*
X126199235Y-60379828D01*
X126143258Y-60408350D01*
X126143257Y-60408351D01*
X126143252Y-60408354D01*
X126053554Y-60498052D01*
X126053549Y-60498059D01*
X126042084Y-60520561D01*
X125994110Y-60571356D01*
X125926288Y-60588151D01*
X125860154Y-60565613D01*
X125821116Y-60520561D01*
X125819288Y-60516974D01*
X125809650Y-60498058D01*
X125809647Y-60498055D01*
X125809645Y-60498052D01*
X125719947Y-60408354D01*
X125719944Y-60408352D01*
X125719942Y-60408350D01*
X125606904Y-60350754D01*
X125606903Y-60350753D01*
X125606900Y-60350752D01*
X125481603Y-60330908D01*
X125481597Y-60330908D01*
X125356299Y-60350752D01*
X125356298Y-60350752D01*
X125299235Y-60379828D01*
X125243258Y-60408350D01*
X125243257Y-60408351D01*
X125243252Y-60408354D01*
X125153554Y-60498052D01*
X125153551Y-60498057D01*
X125153550Y-60498058D01*
X125142084Y-60520561D01*
X125095952Y-60611098D01*
X125095952Y-60611099D01*
X125076108Y-60736396D01*
X125076108Y-60736403D01*
X125095952Y-60861700D01*
X125095952Y-60861701D01*
X125114405Y-60897917D01*
X125153550Y-60974742D01*
X125153552Y-60974744D01*
X125153554Y-60974747D01*
X125227526Y-61048719D01*
X125261011Y-61110042D01*
X125256027Y-61179734D01*
X125227526Y-61224081D01*
X125153554Y-61298052D01*
X125153551Y-61298057D01*
X125153550Y-61298058D01*
X125142084Y-61320561D01*
X125095952Y-61411098D01*
X125095952Y-61411099D01*
X125076108Y-61536396D01*
X125076108Y-61536403D01*
X117604826Y-61536403D01*
X117636685Y-61424429D01*
X117636686Y-61424426D01*
X117656185Y-61214000D01*
X117656185Y-61213999D01*
X117636686Y-61003573D01*
X117636685Y-61003570D01*
X117578855Y-60800315D01*
X117578852Y-60800309D01*
X117552608Y-60747604D01*
X117484656Y-60611138D01*
X117399261Y-60498057D01*
X117357300Y-60442491D01*
X117201129Y-60300124D01*
X117201128Y-60300123D01*
X117021453Y-60188872D01*
X117021452Y-60188871D01*
X116847397Y-60121443D01*
X116824395Y-60112532D01*
X116616664Y-60073700D01*
X116405336Y-60073700D01*
X116315997Y-60090400D01*
X116197597Y-60112533D01*
X116174600Y-60121443D01*
X116104977Y-60127304D01*
X116043237Y-60094594D01*
X116028503Y-60068400D01*
X123935953Y-60068400D01*
X123956434Y-60210856D01*
X123996544Y-60298683D01*
X124016223Y-60341773D01*
X124110472Y-60450543D01*
X124231547Y-60528353D01*
X124231550Y-60528354D01*
X124231549Y-60528354D01*
X124338707Y-60559817D01*
X124358444Y-60565613D01*
X124369636Y-60568899D01*
X124369638Y-60568900D01*
X124369639Y-60568900D01*
X124513562Y-60568900D01*
X124513562Y-60568899D01*
X124651653Y-60528353D01*
X124772728Y-60450543D01*
X124866977Y-60341773D01*
X124926765Y-60210857D01*
X124947247Y-60068400D01*
X124926765Y-59925943D01*
X124866977Y-59795027D01*
X124772728Y-59686257D01*
X124651653Y-59608447D01*
X124651651Y-59608446D01*
X124651649Y-59608445D01*
X124651650Y-59608445D01*
X124513563Y-59567900D01*
X124513561Y-59567900D01*
X124369639Y-59567900D01*
X124369636Y-59567900D01*
X124231549Y-59608445D01*
X124110473Y-59686256D01*
X124016223Y-59795026D01*
X124016222Y-59795028D01*
X123956434Y-59925943D01*
X123935953Y-60068400D01*
X116028503Y-60068400D01*
X116008983Y-60033697D01*
X116005808Y-60006006D01*
X116005707Y-59936582D01*
X116025292Y-59869518D01*
X116078029Y-59823685D01*
X116145619Y-59813865D01*
X116145628Y-59813771D01*
X116146020Y-59813807D01*
X116147173Y-59813640D01*
X116150981Y-59814267D01*
X116151335Y-59814299D01*
X116151336Y-59814300D01*
X116151337Y-59814300D01*
X116362662Y-59814300D01*
X116362664Y-59814300D01*
X116570395Y-59775468D01*
X116767453Y-59699128D01*
X116947128Y-59587877D01*
X117039685Y-59503500D01*
X126598614Y-59503500D01*
X126619095Y-59645956D01*
X126678241Y-59775466D01*
X126678884Y-59776873D01*
X126773133Y-59885643D01*
X126894208Y-59963453D01*
X126894211Y-59963454D01*
X126894210Y-59963454D01*
X127032297Y-60003999D01*
X127032299Y-60004000D01*
X127032300Y-60004000D01*
X127176223Y-60004000D01*
X127176223Y-60003999D01*
X127314314Y-59963453D01*
X127435389Y-59885643D01*
X127435392Y-59885639D01*
X127440824Y-59880933D01*
X127504379Y-59851906D01*
X127573537Y-59861847D01*
X127603232Y-59880930D01*
X127608668Y-59885640D01*
X127608671Y-59885642D01*
X127608672Y-59885643D01*
X127729747Y-59963453D01*
X127729750Y-59963454D01*
X127729749Y-59963454D01*
X127867836Y-60003999D01*
X127867838Y-60004000D01*
X127867839Y-60004000D01*
X128011762Y-60004000D01*
X128011762Y-60003999D01*
X128149853Y-59963453D01*
X128270928Y-59885643D01*
X128365177Y-59776873D01*
X128424965Y-59645957D01*
X128445447Y-59503500D01*
X128424965Y-59361043D01*
X128365177Y-59230127D01*
X128270928Y-59121357D01*
X128149853Y-59043547D01*
X128149851Y-59043546D01*
X128149849Y-59043545D01*
X128149850Y-59043545D01*
X128011763Y-59003000D01*
X128011761Y-59003000D01*
X127867839Y-59003000D01*
X127867836Y-59003000D01*
X127729749Y-59043545D01*
X127608668Y-59121359D01*
X127603228Y-59126073D01*
X127539671Y-59155095D01*
X127470513Y-59145148D01*
X127440828Y-59126070D01*
X127435388Y-59121356D01*
X127382993Y-59087684D01*
X127314314Y-59043547D01*
X127314312Y-59043546D01*
X127314310Y-59043545D01*
X127314311Y-59043545D01*
X127176224Y-59003000D01*
X127176222Y-59003000D01*
X127032300Y-59003000D01*
X127032297Y-59003000D01*
X126894210Y-59043545D01*
X126773134Y-59121356D01*
X126678884Y-59230126D01*
X126678883Y-59230128D01*
X126619095Y-59361043D01*
X126598614Y-59503500D01*
X117039685Y-59503500D01*
X117103302Y-59445506D01*
X117230656Y-59276862D01*
X117324853Y-59087689D01*
X117324853Y-59087686D01*
X117324855Y-59087684D01*
X117372422Y-58920500D01*
X117382686Y-58884427D01*
X117402185Y-58674000D01*
X117382686Y-58463573D01*
X117370288Y-58420000D01*
X128272353Y-58420000D01*
X128292834Y-58562456D01*
X128352622Y-58693371D01*
X128352623Y-58693373D01*
X128446872Y-58802143D01*
X128567947Y-58879953D01*
X128567950Y-58879954D01*
X128567949Y-58879954D01*
X128706036Y-58920499D01*
X128706038Y-58920500D01*
X128706039Y-58920500D01*
X128849962Y-58920500D01*
X128849962Y-58920499D01*
X128988053Y-58879953D01*
X129109128Y-58802143D01*
X129203377Y-58693373D01*
X129263165Y-58562457D01*
X129283647Y-58420000D01*
X129263165Y-58277543D01*
X129203377Y-58146627D01*
X129109128Y-58037857D01*
X128988053Y-57960047D01*
X128988051Y-57960046D01*
X128988049Y-57960045D01*
X128988050Y-57960045D01*
X128849963Y-57919500D01*
X128849961Y-57919500D01*
X128706039Y-57919500D01*
X128706036Y-57919500D01*
X128567949Y-57960045D01*
X128446873Y-58037856D01*
X128352623Y-58146626D01*
X128352622Y-58146628D01*
X128292834Y-58277543D01*
X128272353Y-58420000D01*
X117370288Y-58420000D01*
X117324855Y-58260315D01*
X117324852Y-58260309D01*
X117230656Y-58071138D01*
X117146764Y-57960047D01*
X117103300Y-57902491D01*
X116947129Y-57760124D01*
X116947128Y-57760123D01*
X116767453Y-57648872D01*
X116767452Y-57648871D01*
X116623365Y-57593052D01*
X116570395Y-57572532D01*
X116362664Y-57533700D01*
X116151336Y-57533700D01*
X116151335Y-57533700D01*
X116148779Y-57534178D01*
X116147536Y-57534052D01*
X116145630Y-57534229D01*
X116145595Y-57533855D01*
X116079264Y-57527143D01*
X116024588Y-57483643D01*
X116019952Y-57470000D01*
X124984353Y-57470000D01*
X125004834Y-57612456D01*
X125049611Y-57710502D01*
X125064623Y-57743373D01*
X125158872Y-57852143D01*
X125279947Y-57929953D01*
X125279950Y-57929954D01*
X125279949Y-57929954D01*
X125418036Y-57970499D01*
X125418038Y-57970500D01*
X125418039Y-57970500D01*
X125561962Y-57970500D01*
X125561962Y-57970499D01*
X125700053Y-57929953D01*
X125821128Y-57852143D01*
X125915377Y-57743373D01*
X125975165Y-57612457D01*
X125981550Y-57568045D01*
X129402679Y-57568045D01*
X129423160Y-57710501D01*
X129482948Y-57841416D01*
X129482949Y-57841418D01*
X129577198Y-57950188D01*
X129698273Y-58027998D01*
X129698276Y-58027999D01*
X129698275Y-58027999D01*
X129836362Y-58068544D01*
X129836364Y-58068545D01*
X129836365Y-58068545D01*
X129980288Y-58068545D01*
X129980288Y-58068544D01*
X130118379Y-58027998D01*
X130239454Y-57950188D01*
X130333703Y-57841418D01*
X130393491Y-57710502D01*
X130413973Y-57568045D01*
X130393491Y-57425588D01*
X130333703Y-57294672D01*
X130239454Y-57185902D01*
X130118379Y-57108092D01*
X130118377Y-57108091D01*
X130118375Y-57108090D01*
X130118376Y-57108090D01*
X129980289Y-57067545D01*
X129980287Y-57067545D01*
X129836365Y-57067545D01*
X129836362Y-57067545D01*
X129698275Y-57108090D01*
X129577199Y-57185901D01*
X129482949Y-57294671D01*
X129482948Y-57294673D01*
X129423160Y-57425588D01*
X129402679Y-57568045D01*
X125981550Y-57568045D01*
X125995647Y-57470000D01*
X125975165Y-57327543D01*
X125915377Y-57196627D01*
X125821128Y-57087857D01*
X125700053Y-57010047D01*
X125700051Y-57010046D01*
X125700049Y-57010045D01*
X125700050Y-57010045D01*
X125561963Y-56969500D01*
X125561961Y-56969500D01*
X125418039Y-56969500D01*
X125418036Y-56969500D01*
X125279949Y-57010045D01*
X125158873Y-57087856D01*
X125064623Y-57196626D01*
X125064622Y-57196628D01*
X125004834Y-57327543D01*
X124984353Y-57470000D01*
X116019952Y-57470000D01*
X116002109Y-57417488D01*
X116002000Y-57412470D01*
X116000809Y-56601562D01*
X116020395Y-56534497D01*
X116037241Y-56513589D01*
X116463485Y-56088489D01*
X116524851Y-56055088D01*
X116551558Y-56052291D01*
X117558557Y-56056476D01*
X118534625Y-55905729D01*
X120443928Y-55292824D01*
X120970910Y-54642599D01*
X121184268Y-52558058D01*
X121210677Y-52493372D01*
X121224641Y-52478546D01*
X121704530Y-52046411D01*
X121767518Y-52016180D01*
X121787822Y-52014559D01*
X142375002Y-52068685D01*
G37*
%TD.AperFunction*%
%TD*%
%TA.AperFunction,Conductor*%
%TO.N,+5V*%
G36*
X150391677Y-57931685D02*
G01*
X150412319Y-57948319D01*
X150839681Y-58375681D01*
X150873166Y-58437004D01*
X150876000Y-58463362D01*
X150876000Y-72363945D01*
X150858607Y-72427277D01*
X150454290Y-73107862D01*
X150406990Y-73153427D01*
X147639105Y-74660856D01*
X147639104Y-74660857D01*
X147200000Y-75400000D01*
X147200000Y-78200000D01*
X147700000Y-78700000D01*
X148500000Y-78700000D01*
X149499376Y-78724969D01*
X150479763Y-78773987D01*
X150519988Y-78782849D01*
X151057818Y-79000000D01*
X151357349Y-79120937D01*
X151392457Y-79142492D01*
X152223285Y-79867543D01*
X154783749Y-82102022D01*
X154815010Y-82143935D01*
X154860003Y-82242456D01*
X154874123Y-82273373D01*
X154968372Y-82382143D01*
X155089447Y-82459953D01*
X155089450Y-82459954D01*
X155089449Y-82459954D01*
X155220760Y-82498510D01*
X155267357Y-82524059D01*
X157103280Y-84126242D01*
X157979986Y-84451233D01*
X169897585Y-84361447D01*
X169964768Y-84380625D01*
X169985376Y-84396949D01*
X170204844Y-84612380D01*
X170417752Y-84821374D01*
X170451804Y-84882384D01*
X170454880Y-84908498D01*
X170493916Y-88448310D01*
X170474972Y-88515562D01*
X170458138Y-88536823D01*
X170036349Y-88963781D01*
X169975231Y-88997638D01*
X169948278Y-89000635D01*
X168037722Y-89002836D01*
X167970660Y-88983229D01*
X167924844Y-88930477D01*
X167914821Y-88861330D01*
X167943773Y-88797741D01*
X167970545Y-88774517D01*
X167971128Y-88774143D01*
X168065377Y-88665373D01*
X168125165Y-88534457D01*
X168145647Y-88392000D01*
X168125165Y-88249543D01*
X168065377Y-88118627D01*
X167971128Y-88009857D01*
X167850053Y-87932047D01*
X167850051Y-87932046D01*
X167850049Y-87932045D01*
X167850050Y-87932045D01*
X167711963Y-87891500D01*
X167711961Y-87891500D01*
X167568039Y-87891500D01*
X167568036Y-87891500D01*
X167429949Y-87932045D01*
X167308873Y-88009856D01*
X167214623Y-88118626D01*
X167214622Y-88118628D01*
X167154834Y-88249543D01*
X167134353Y-88392000D01*
X167154834Y-88534456D01*
X167175687Y-88580116D01*
X167214623Y-88665373D01*
X167308872Y-88774143D01*
X167308874Y-88774144D01*
X167308873Y-88774144D01*
X167310885Y-88775437D01*
X167312450Y-88777243D01*
X167315577Y-88779953D01*
X167315187Y-88780402D01*
X167356639Y-88828243D01*
X167366580Y-88897401D01*
X167337554Y-88960956D01*
X167278775Y-88998729D01*
X167243986Y-89003751D01*
X164734152Y-89006642D01*
X164667090Y-88987035D01*
X164621274Y-88934283D01*
X164611251Y-88865136D01*
X164611271Y-88864995D01*
X164614858Y-88840045D01*
X164631748Y-88722573D01*
X164611266Y-88580116D01*
X164551478Y-88449200D01*
X164457229Y-88340430D01*
X164336154Y-88262620D01*
X164336152Y-88262619D01*
X164336150Y-88262618D01*
X164336151Y-88262618D01*
X164198064Y-88222073D01*
X164198062Y-88222073D01*
X164054140Y-88222073D01*
X164054137Y-88222073D01*
X163916050Y-88262618D01*
X163794974Y-88340429D01*
X163794973Y-88340429D01*
X163794973Y-88340430D01*
X163782391Y-88354950D01*
X163700724Y-88449199D01*
X163700723Y-88449201D01*
X163640935Y-88580116D01*
X163620454Y-88722573D01*
X163641132Y-88866395D01*
X163631188Y-88935554D01*
X163585433Y-88988358D01*
X163518537Y-89008042D01*
X161421862Y-89010458D01*
X161354800Y-88990851D01*
X161308984Y-88938099D01*
X161298961Y-88868952D01*
X161327913Y-88805363D01*
X161354679Y-88782143D01*
X161367128Y-88774143D01*
X161461377Y-88665373D01*
X161521165Y-88534457D01*
X161541647Y-88392000D01*
X161521165Y-88249543D01*
X161461377Y-88118627D01*
X161367128Y-88009857D01*
X161246053Y-87932047D01*
X161246051Y-87932046D01*
X161246049Y-87932045D01*
X161246050Y-87932045D01*
X161107963Y-87891500D01*
X161107961Y-87891500D01*
X160964039Y-87891500D01*
X160964036Y-87891500D01*
X160825949Y-87932045D01*
X160704873Y-88009856D01*
X160610623Y-88118626D01*
X160610622Y-88118628D01*
X160550834Y-88249543D01*
X160530353Y-88392000D01*
X160550834Y-88534456D01*
X160571687Y-88580116D01*
X160610623Y-88665373D01*
X160704872Y-88774143D01*
X160704874Y-88774144D01*
X160704873Y-88774144D01*
X160718700Y-88783030D01*
X160764454Y-88835834D01*
X160774398Y-88904992D01*
X160745373Y-88968548D01*
X160686595Y-89006322D01*
X160651803Y-89011345D01*
X157980000Y-89014423D01*
X157480000Y-89515000D01*
X157480000Y-94698495D01*
X157460315Y-94765534D01*
X157443511Y-94786347D01*
X157016493Y-95211707D01*
X156955104Y-95245072D01*
X156928500Y-95247854D01*
X149011249Y-95217049D01*
X147437318Y-95210926D01*
X145328620Y-95202721D01*
X137945817Y-95173997D01*
X137878854Y-95154052D01*
X137858495Y-95137556D01*
X137430262Y-94708096D01*
X137396866Y-94646726D01*
X137394070Y-94620668D01*
X137393673Y-94234000D01*
X154180353Y-94234000D01*
X154200834Y-94376456D01*
X154260622Y-94507371D01*
X154260623Y-94507373D01*
X154354872Y-94616143D01*
X154475947Y-94693953D01*
X154475950Y-94693954D01*
X154475949Y-94693954D01*
X154614036Y-94734499D01*
X154614038Y-94734500D01*
X154614039Y-94734500D01*
X154757962Y-94734500D01*
X154757962Y-94734499D01*
X154896053Y-94693953D01*
X155017128Y-94616143D01*
X155111377Y-94507373D01*
X155171165Y-94376457D01*
X155191647Y-94234000D01*
X155171165Y-94091543D01*
X155111377Y-93960627D01*
X155017128Y-93851857D01*
X154896053Y-93774047D01*
X154896051Y-93774046D01*
X154896049Y-93774045D01*
X154896050Y-93774045D01*
X154757963Y-93733500D01*
X154757961Y-93733500D01*
X154614039Y-93733500D01*
X154614036Y-93733500D01*
X154475949Y-93774045D01*
X154354873Y-93851856D01*
X154260623Y-93960626D01*
X154260622Y-93960628D01*
X154200834Y-94091543D01*
X154180353Y-94234000D01*
X137393673Y-94234000D01*
X137392890Y-93472001D01*
X144174318Y-93472001D01*
X144194955Y-93628760D01*
X144194956Y-93628762D01*
X144247511Y-93755642D01*
X144255464Y-93774841D01*
X144351718Y-93900282D01*
X144477159Y-93996536D01*
X144623238Y-94057044D01*
X144701619Y-94067363D01*
X144779999Y-94077682D01*
X144780000Y-94077682D01*
X144780001Y-94077682D01*
X144832254Y-94070802D01*
X144936762Y-94057044D01*
X145082841Y-93996536D01*
X145208282Y-93900282D01*
X145304536Y-93774841D01*
X145365044Y-93628762D01*
X145385682Y-93472000D01*
X145365044Y-93315238D01*
X145304536Y-93169159D01*
X145208282Y-93043718D01*
X145082841Y-92947464D01*
X144936762Y-92886956D01*
X144936760Y-92886955D01*
X144780001Y-92866318D01*
X144779999Y-92866318D01*
X144623239Y-92886955D01*
X144623237Y-92886956D01*
X144477160Y-92947463D01*
X144351718Y-93043718D01*
X144255463Y-93169160D01*
X144194956Y-93315237D01*
X144194955Y-93315239D01*
X144174318Y-93471998D01*
X144174318Y-93472001D01*
X137392890Y-93472001D01*
X137391846Y-92456001D01*
X141126318Y-92456001D01*
X141146955Y-92612760D01*
X141146956Y-92612762D01*
X141207464Y-92758841D01*
X141303718Y-92884282D01*
X141429159Y-92980536D01*
X141575238Y-93041044D01*
X141653619Y-93051363D01*
X141731999Y-93061682D01*
X141732000Y-93061682D01*
X141732001Y-93061682D01*
X141784254Y-93054802D01*
X141888762Y-93041044D01*
X142034841Y-92980536D01*
X142160282Y-92884282D01*
X142256536Y-92758841D01*
X142317044Y-92612762D01*
X142337682Y-92456000D01*
X142317044Y-92299238D01*
X142256536Y-92153159D01*
X142160282Y-92027718D01*
X142034841Y-91931464D01*
X141888762Y-91870956D01*
X141888760Y-91870955D01*
X141732001Y-91850318D01*
X141731999Y-91850318D01*
X141575239Y-91870955D01*
X141575237Y-91870956D01*
X141429160Y-91931463D01*
X141303718Y-92027718D01*
X141207463Y-92153160D01*
X141146956Y-92299237D01*
X141146955Y-92299239D01*
X141126318Y-92455998D01*
X141126318Y-92456001D01*
X137391846Y-92456001D01*
X137390802Y-91440001D01*
X146206318Y-91440001D01*
X146226955Y-91596760D01*
X146226956Y-91596762D01*
X146287464Y-91742841D01*
X146383718Y-91868282D01*
X146509159Y-91964536D01*
X146655238Y-92025044D01*
X146733619Y-92035363D01*
X146811999Y-92045682D01*
X146812000Y-92045682D01*
X146812001Y-92045682D01*
X146864254Y-92038802D01*
X146968762Y-92025044D01*
X147114841Y-91964536D01*
X147240282Y-91868282D01*
X147336536Y-91742841D01*
X147397044Y-91596762D01*
X147417682Y-91440000D01*
X147405168Y-91344950D01*
X147397044Y-91283239D01*
X147397044Y-91283238D01*
X147336536Y-91137159D01*
X147240282Y-91011718D01*
X147136392Y-90932001D01*
X148238318Y-90932001D01*
X148258955Y-91088760D01*
X148258956Y-91088762D01*
X148319464Y-91234841D01*
X148415718Y-91360282D01*
X148541159Y-91456536D01*
X148687238Y-91517044D01*
X148765619Y-91527363D01*
X148843999Y-91537682D01*
X148844000Y-91537682D01*
X148844001Y-91537682D01*
X148896254Y-91530802D01*
X149000762Y-91517044D01*
X149146841Y-91456536D01*
X149272282Y-91360282D01*
X149368536Y-91234841D01*
X149429044Y-91088762D01*
X149449682Y-90932000D01*
X149443666Y-90886307D01*
X149431070Y-90790625D01*
X149429044Y-90775238D01*
X149368536Y-90629159D01*
X149272282Y-90503718D01*
X149146841Y-90407464D01*
X149130028Y-90400500D01*
X149000762Y-90346956D01*
X149000760Y-90346955D01*
X148844001Y-90326318D01*
X148843999Y-90326318D01*
X148687239Y-90346955D01*
X148687237Y-90346956D01*
X148541160Y-90407463D01*
X148415718Y-90503718D01*
X148319463Y-90629160D01*
X148258956Y-90775237D01*
X148258955Y-90775239D01*
X148238318Y-90931998D01*
X148238318Y-90932001D01*
X147136392Y-90932001D01*
X147114841Y-90915464D01*
X146968762Y-90854956D01*
X146968760Y-90854955D01*
X146812001Y-90834318D01*
X146811999Y-90834318D01*
X146655239Y-90854955D01*
X146655237Y-90854956D01*
X146509160Y-90915463D01*
X146383718Y-91011718D01*
X146287463Y-91137160D01*
X146226956Y-91283237D01*
X146226955Y-91283239D01*
X146206318Y-91439998D01*
X146206318Y-91440001D01*
X137390802Y-91440001D01*
X137389219Y-89900000D01*
X141018353Y-89900000D01*
X141038834Y-90042456D01*
X141098622Y-90173371D01*
X141098623Y-90173373D01*
X141192872Y-90282143D01*
X141313947Y-90359953D01*
X141313950Y-90359954D01*
X141313949Y-90359954D01*
X141452036Y-90400499D01*
X141452038Y-90400500D01*
X141452039Y-90400500D01*
X141595962Y-90400500D01*
X141595962Y-90400499D01*
X141734053Y-90359953D01*
X141855128Y-90282143D01*
X141949377Y-90173373D01*
X142009165Y-90042457D01*
X142029647Y-89900000D01*
X142009165Y-89757543D01*
X141949377Y-89626627D01*
X141855128Y-89517857D01*
X141734053Y-89440047D01*
X141734051Y-89440046D01*
X141734049Y-89440045D01*
X141734050Y-89440045D01*
X141595963Y-89399500D01*
X141595961Y-89399500D01*
X141452039Y-89399500D01*
X141452036Y-89399500D01*
X141313949Y-89440045D01*
X141192873Y-89517856D01*
X141098623Y-89626626D01*
X141098622Y-89626628D01*
X141038834Y-89757543D01*
X141018353Y-89900000D01*
X137389219Y-89900000D01*
X137388603Y-89300000D01*
X154180353Y-89300000D01*
X154200834Y-89442456D01*
X154243690Y-89536295D01*
X154260623Y-89573373D01*
X154354872Y-89682143D01*
X154475947Y-89759953D01*
X154475950Y-89759954D01*
X154475949Y-89759954D01*
X154614036Y-89800499D01*
X154614038Y-89800500D01*
X154614039Y-89800500D01*
X154757962Y-89800500D01*
X154757962Y-89800499D01*
X154896053Y-89759953D01*
X155017128Y-89682143D01*
X155111377Y-89573373D01*
X155171165Y-89442457D01*
X155191647Y-89300000D01*
X155171165Y-89157543D01*
X155111377Y-89026627D01*
X155017128Y-88917857D01*
X154896053Y-88840047D01*
X154896051Y-88840046D01*
X154896049Y-88840045D01*
X154896050Y-88840045D01*
X154757963Y-88799500D01*
X154757961Y-88799500D01*
X154614039Y-88799500D01*
X154614036Y-88799500D01*
X154475949Y-88840045D01*
X154354873Y-88917856D01*
X154260623Y-89026626D01*
X154260622Y-89026628D01*
X154200834Y-89157543D01*
X154180353Y-89300000D01*
X137388603Y-89300000D01*
X137387670Y-88392001D01*
X146206318Y-88392001D01*
X146226955Y-88548760D01*
X146226956Y-88548762D01*
X146287464Y-88694841D01*
X146383718Y-88820282D01*
X146509159Y-88916536D01*
X146655238Y-88977044D01*
X146702218Y-88983229D01*
X146811999Y-88997682D01*
X146812000Y-88997682D01*
X146812001Y-88997682D01*
X146892872Y-88987035D01*
X146968762Y-88977044D01*
X147114841Y-88916536D01*
X147240282Y-88820282D01*
X147336536Y-88694841D01*
X147397044Y-88548762D01*
X147417682Y-88392000D01*
X147416694Y-88384499D01*
X147397044Y-88235239D01*
X147397044Y-88235238D01*
X147336536Y-88089159D01*
X147240282Y-87963718D01*
X147114841Y-87867464D01*
X146968762Y-87806956D01*
X146968760Y-87806955D01*
X146812001Y-87786318D01*
X146811999Y-87786318D01*
X146655239Y-87806955D01*
X146655237Y-87806956D01*
X146509160Y-87867463D01*
X146383718Y-87963718D01*
X146287463Y-88089160D01*
X146226956Y-88235237D01*
X146226955Y-88235239D01*
X146206318Y-88391998D01*
X146206318Y-88392001D01*
X137387670Y-88392001D01*
X137386985Y-87725396D01*
X147579680Y-87725396D01*
X147600317Y-87882155D01*
X147600318Y-87882157D01*
X147660826Y-88028236D01*
X147757080Y-88153677D01*
X147882521Y-88249931D01*
X148028600Y-88310439D01*
X148106981Y-88320758D01*
X148185361Y-88331077D01*
X148185362Y-88331077D01*
X148185363Y-88331077D01*
X148237616Y-88324197D01*
X148342124Y-88310439D01*
X148488203Y-88249931D01*
X148613644Y-88153677D01*
X148709898Y-88028236D01*
X148769643Y-87884000D01*
X156974353Y-87884000D01*
X156994834Y-88026456D01*
X157052935Y-88153676D01*
X157054623Y-88157373D01*
X157148872Y-88266143D01*
X157269947Y-88343953D01*
X157269950Y-88343954D01*
X157269949Y-88343954D01*
X157408036Y-88384499D01*
X157408038Y-88384500D01*
X157408039Y-88384500D01*
X157551962Y-88384500D01*
X157551962Y-88384499D01*
X157690053Y-88343953D01*
X157811128Y-88266143D01*
X157905377Y-88157373D01*
X157965165Y-88026457D01*
X157985647Y-87884000D01*
X157965165Y-87741543D01*
X157905377Y-87610627D01*
X157824683Y-87517500D01*
X164294353Y-87517500D01*
X164314834Y-87659956D01*
X164344719Y-87725393D01*
X164374623Y-87790873D01*
X164468872Y-87899643D01*
X164589947Y-87977453D01*
X164589950Y-87977454D01*
X164589949Y-87977454D01*
X164728036Y-88017999D01*
X164728038Y-88018000D01*
X164728039Y-88018000D01*
X164871962Y-88018000D01*
X164871962Y-88017999D01*
X165010053Y-87977453D01*
X165131128Y-87899643D01*
X165225377Y-87790873D01*
X165285165Y-87659957D01*
X165305647Y-87517500D01*
X165285165Y-87375043D01*
X165225377Y-87244127D01*
X165131128Y-87135357D01*
X165010053Y-87057547D01*
X165010051Y-87057546D01*
X165010049Y-87057545D01*
X165010050Y-87057545D01*
X164871963Y-87017000D01*
X164871961Y-87017000D01*
X164728039Y-87017000D01*
X164728036Y-87017000D01*
X164589949Y-87057545D01*
X164468873Y-87135356D01*
X164374623Y-87244126D01*
X164374622Y-87244128D01*
X164314834Y-87375043D01*
X164294353Y-87517500D01*
X157824683Y-87517500D01*
X157811128Y-87501857D01*
X157690053Y-87424047D01*
X157690051Y-87424046D01*
X157690049Y-87424045D01*
X157690050Y-87424045D01*
X157551963Y-87383500D01*
X157551961Y-87383500D01*
X157408039Y-87383500D01*
X157408036Y-87383500D01*
X157269949Y-87424045D01*
X157148873Y-87501856D01*
X157054623Y-87610626D01*
X157054622Y-87610628D01*
X156994834Y-87741543D01*
X156974353Y-87884000D01*
X148769643Y-87884000D01*
X148770406Y-87882157D01*
X148791044Y-87725395D01*
X148770406Y-87568633D01*
X148709898Y-87422554D01*
X148613644Y-87297113D01*
X148488203Y-87200859D01*
X148342124Y-87140351D01*
X148342122Y-87140350D01*
X148185363Y-87119713D01*
X148185361Y-87119713D01*
X148028601Y-87140350D01*
X148028599Y-87140351D01*
X147882522Y-87200858D01*
X147757080Y-87297113D01*
X147660825Y-87422555D01*
X147600318Y-87568632D01*
X147600317Y-87568634D01*
X147579680Y-87725393D01*
X147579680Y-87725396D01*
X137386985Y-87725396D01*
X137383465Y-84300000D01*
X142994353Y-84300000D01*
X143014834Y-84442456D01*
X143074622Y-84573371D01*
X143074623Y-84573373D01*
X143168872Y-84682143D01*
X143289947Y-84759953D01*
X143289950Y-84759954D01*
X143289949Y-84759954D01*
X143428036Y-84800499D01*
X143428038Y-84800500D01*
X143428039Y-84800500D01*
X143571962Y-84800500D01*
X143571962Y-84800499D01*
X143710053Y-84759953D01*
X143831128Y-84682143D01*
X143925377Y-84573373D01*
X143985165Y-84442457D01*
X144005647Y-84300000D01*
X143985165Y-84157543D01*
X143925377Y-84026627D01*
X143831128Y-83917857D01*
X143710053Y-83840047D01*
X143710051Y-83840046D01*
X143710049Y-83840045D01*
X143710050Y-83840045D01*
X143571963Y-83799500D01*
X143571961Y-83799500D01*
X143428039Y-83799500D01*
X143428036Y-83799500D01*
X143289949Y-83840045D01*
X143168873Y-83917856D01*
X143074623Y-84026626D01*
X143074622Y-84026628D01*
X143014834Y-84157543D01*
X142994353Y-84300000D01*
X137383465Y-84300000D01*
X137381204Y-82100000D01*
X138894353Y-82100000D01*
X138914834Y-82242456D01*
X138919017Y-82251615D01*
X138974623Y-82373373D01*
X139068872Y-82482143D01*
X139189947Y-82559953D01*
X139189950Y-82559954D01*
X139189949Y-82559954D01*
X139328036Y-82600499D01*
X139328038Y-82600500D01*
X139328039Y-82600500D01*
X139471962Y-82600500D01*
X139471962Y-82600499D01*
X139610053Y-82559953D01*
X139731128Y-82482143D01*
X139825377Y-82373373D01*
X139885165Y-82242457D01*
X139905647Y-82100000D01*
X139885165Y-81957543D01*
X139825377Y-81826627D01*
X139731128Y-81717857D01*
X139610053Y-81640047D01*
X139610051Y-81640046D01*
X139610049Y-81640045D01*
X139610050Y-81640045D01*
X139471963Y-81599500D01*
X139471961Y-81599500D01*
X139328039Y-81599500D01*
X139328036Y-81599500D01*
X139189949Y-81640045D01*
X139068873Y-81717856D01*
X138974623Y-81826626D01*
X138974622Y-81826628D01*
X138914834Y-81957543D01*
X138894353Y-82100000D01*
X137381204Y-82100000D01*
X137380074Y-81000000D01*
X151494353Y-81000000D01*
X151514834Y-81142456D01*
X151574622Y-81273371D01*
X151574623Y-81273373D01*
X151668872Y-81382143D01*
X151789947Y-81459953D01*
X151789950Y-81459954D01*
X151789949Y-81459954D01*
X151878496Y-81485953D01*
X151924633Y-81499500D01*
X151928036Y-81500499D01*
X151928038Y-81500500D01*
X151928039Y-81500500D01*
X152071962Y-81500500D01*
X152071962Y-81500499D01*
X152210053Y-81459953D01*
X152331128Y-81382143D01*
X152425377Y-81273373D01*
X152485165Y-81142457D01*
X152505647Y-81000000D01*
X152485165Y-80857543D01*
X152425377Y-80726627D01*
X152331128Y-80617857D01*
X152210053Y-80540047D01*
X152210051Y-80540046D01*
X152210049Y-80540045D01*
X152210050Y-80540045D01*
X152071963Y-80499500D01*
X152071961Y-80499500D01*
X151928039Y-80499500D01*
X151928036Y-80499500D01*
X151789949Y-80540045D01*
X151668873Y-80617856D01*
X151668872Y-80617856D01*
X151668872Y-80617857D01*
X151656290Y-80632377D01*
X151574623Y-80726626D01*
X151574622Y-80726628D01*
X151514834Y-80857543D01*
X151494353Y-81000000D01*
X137380074Y-81000000D01*
X137378546Y-79513440D01*
X141607793Y-79513440D01*
X141628274Y-79655896D01*
X141665144Y-79736628D01*
X141688063Y-79786813D01*
X141782312Y-79895583D01*
X141903387Y-79973393D01*
X141903390Y-79973394D01*
X141903389Y-79973394D01*
X142001421Y-80002178D01*
X142028060Y-80010000D01*
X142041476Y-80013939D01*
X142041478Y-80013940D01*
X142041479Y-80013940D01*
X142185402Y-80013940D01*
X142185402Y-80013939D01*
X142198817Y-80010000D01*
X150394353Y-80010000D01*
X150414834Y-80152456D01*
X150446567Y-80221940D01*
X150474623Y-80283373D01*
X150568872Y-80392143D01*
X150689947Y-80469953D01*
X150689950Y-80469954D01*
X150689949Y-80469954D01*
X150828036Y-80510499D01*
X150828038Y-80510500D01*
X150828039Y-80510500D01*
X150971962Y-80510500D01*
X150971962Y-80510499D01*
X151110053Y-80469953D01*
X151231128Y-80392143D01*
X151325377Y-80283373D01*
X151385165Y-80152457D01*
X151405647Y-80010000D01*
X151385165Y-79867543D01*
X151325377Y-79736627D01*
X151231128Y-79627857D01*
X151110053Y-79550047D01*
X151110051Y-79550046D01*
X151110049Y-79550045D01*
X151110050Y-79550045D01*
X150971963Y-79509500D01*
X150971961Y-79509500D01*
X150828039Y-79509500D01*
X150828036Y-79509500D01*
X150689949Y-79550045D01*
X150568873Y-79627856D01*
X150474623Y-79736626D01*
X150474622Y-79736628D01*
X150414834Y-79867543D01*
X150394353Y-80010000D01*
X142198817Y-80010000D01*
X142323493Y-79973393D01*
X142444568Y-79895583D01*
X142538817Y-79786813D01*
X142598605Y-79655897D01*
X142619087Y-79513440D01*
X142598605Y-79370983D01*
X142538817Y-79240067D01*
X142444568Y-79131297D01*
X142323493Y-79053487D01*
X142323491Y-79053486D01*
X142323489Y-79053485D01*
X142323490Y-79053485D01*
X142185403Y-79012940D01*
X142185401Y-79012940D01*
X142041479Y-79012940D01*
X142041476Y-79012940D01*
X141903389Y-79053485D01*
X141782313Y-79131296D01*
X141688063Y-79240066D01*
X141688062Y-79240068D01*
X141628274Y-79370983D01*
X141607793Y-79513440D01*
X137378546Y-79513440D01*
X137378515Y-79483052D01*
X137383541Y-79447984D01*
X137385166Y-79442452D01*
X137389659Y-79411193D01*
X137405647Y-79300000D01*
X137385165Y-79157543D01*
X137385163Y-79157539D01*
X137383162Y-79150724D01*
X137378137Y-79115918D01*
X137378018Y-79000000D01*
X137994353Y-79000000D01*
X138014834Y-79142456D01*
X138045660Y-79209954D01*
X138074623Y-79273373D01*
X138168872Y-79382143D01*
X138289947Y-79459953D01*
X138289950Y-79459954D01*
X138289949Y-79459954D01*
X138428036Y-79500499D01*
X138428038Y-79500500D01*
X138428039Y-79500500D01*
X138571962Y-79500500D01*
X138571962Y-79500499D01*
X138710053Y-79459953D01*
X138831128Y-79382143D01*
X138925377Y-79273373D01*
X138985165Y-79142457D01*
X139005647Y-79000000D01*
X138985165Y-78857543D01*
X138936051Y-78750000D01*
X139744353Y-78750000D01*
X139764834Y-78892456D01*
X139819858Y-79012940D01*
X139824623Y-79023373D01*
X139918872Y-79132143D01*
X140039947Y-79209953D01*
X140039950Y-79209954D01*
X140039949Y-79209954D01*
X140178036Y-79250499D01*
X140178038Y-79250500D01*
X140178039Y-79250500D01*
X140321962Y-79250500D01*
X140321962Y-79250499D01*
X140460053Y-79209953D01*
X140581128Y-79132143D01*
X140675377Y-79023373D01*
X140735165Y-78892457D01*
X140755647Y-78750000D01*
X140735165Y-78607543D01*
X140675377Y-78476627D01*
X140581128Y-78367857D01*
X140460053Y-78290047D01*
X140460051Y-78290046D01*
X140460049Y-78290045D01*
X140460050Y-78290045D01*
X140432446Y-78281940D01*
X144026293Y-78281940D01*
X144046774Y-78424396D01*
X144098702Y-78538101D01*
X144106563Y-78555313D01*
X144200812Y-78664083D01*
X144321887Y-78741893D01*
X144321890Y-78741894D01*
X144321889Y-78741894D01*
X144459976Y-78782439D01*
X144459978Y-78782440D01*
X144459979Y-78782440D01*
X144603902Y-78782440D01*
X144603902Y-78782439D01*
X144741993Y-78741893D01*
X144863068Y-78664083D01*
X144957317Y-78555313D01*
X145017105Y-78424397D01*
X145037587Y-78281940D01*
X145017105Y-78139483D01*
X144957317Y-78008567D01*
X144863068Y-77899797D01*
X144741993Y-77821987D01*
X144741991Y-77821986D01*
X144741989Y-77821985D01*
X144741990Y-77821985D01*
X144603903Y-77781440D01*
X144603901Y-77781440D01*
X144459979Y-77781440D01*
X144459976Y-77781440D01*
X144321889Y-77821985D01*
X144200813Y-77899796D01*
X144106563Y-78008566D01*
X144106562Y-78008568D01*
X144046774Y-78139483D01*
X144026293Y-78281940D01*
X140432446Y-78281940D01*
X140321963Y-78249500D01*
X140321961Y-78249500D01*
X140178039Y-78249500D01*
X140178036Y-78249500D01*
X140039949Y-78290045D01*
X139918873Y-78367856D01*
X139824623Y-78476626D01*
X139824622Y-78476628D01*
X139764834Y-78607543D01*
X139744353Y-78750000D01*
X138936051Y-78750000D01*
X138925377Y-78726627D01*
X138831128Y-78617857D01*
X138710053Y-78540047D01*
X138710051Y-78540046D01*
X138710049Y-78540045D01*
X138710050Y-78540045D01*
X138571963Y-78499500D01*
X138571961Y-78499500D01*
X138428039Y-78499500D01*
X138428036Y-78499500D01*
X138289949Y-78540045D01*
X138168873Y-78617856D01*
X138074623Y-78726626D01*
X138074622Y-78726628D01*
X138014834Y-78857543D01*
X137994353Y-79000000D01*
X137378018Y-79000000D01*
X137376689Y-77706940D01*
X145601293Y-77706940D01*
X145621774Y-77849396D01*
X145644792Y-77899797D01*
X145681563Y-77980313D01*
X145775812Y-78089083D01*
X145896887Y-78166893D01*
X145896890Y-78166894D01*
X145896889Y-78166894D01*
X146034976Y-78207439D01*
X146034978Y-78207440D01*
X146034979Y-78207440D01*
X146178902Y-78207440D01*
X146178902Y-78207439D01*
X146316993Y-78166893D01*
X146438068Y-78089083D01*
X146532317Y-77980313D01*
X146592105Y-77849397D01*
X146612587Y-77706940D01*
X146592105Y-77564483D01*
X146532317Y-77433567D01*
X146438068Y-77324797D01*
X146316993Y-77246987D01*
X146316991Y-77246986D01*
X146316989Y-77246985D01*
X146316990Y-77246985D01*
X146178903Y-77206440D01*
X146178901Y-77206440D01*
X146034979Y-77206440D01*
X146034976Y-77206440D01*
X145896889Y-77246985D01*
X145775813Y-77324796D01*
X145681563Y-77433566D01*
X145681562Y-77433568D01*
X145621774Y-77564483D01*
X145601293Y-77706940D01*
X137376689Y-77706940D01*
X137373165Y-74277497D01*
X137392781Y-74210441D01*
X137445538Y-74164632D01*
X137514686Y-74154617D01*
X137572650Y-74178997D01*
X137613629Y-74210441D01*
X137697157Y-74274535D01*
X137697158Y-74274535D01*
X137697159Y-74274536D01*
X137843238Y-74335044D01*
X137921619Y-74345363D01*
X137999999Y-74355682D01*
X138000000Y-74355682D01*
X138000001Y-74355682D01*
X138052254Y-74348802D01*
X138156762Y-74335044D01*
X138302841Y-74274536D01*
X138428282Y-74178282D01*
X138524536Y-74052841D01*
X138585044Y-73906762D01*
X138605682Y-73750000D01*
X138585044Y-73593238D01*
X138524536Y-73447159D01*
X138428282Y-73321718D01*
X138302841Y-73225464D01*
X138156762Y-73164956D01*
X138156760Y-73164955D01*
X138000001Y-73144318D01*
X137999999Y-73144318D01*
X137843239Y-73164955D01*
X137843237Y-73164956D01*
X137697157Y-73225464D01*
X137571568Y-73321833D01*
X137506399Y-73347027D01*
X137437954Y-73332989D01*
X137387965Y-73284175D01*
X137372082Y-73223587D01*
X137370391Y-71577598D01*
X137390006Y-71510545D01*
X137442763Y-71464736D01*
X137511911Y-71454721D01*
X137569877Y-71479102D01*
X137597157Y-71500035D01*
X137597158Y-71500035D01*
X137597159Y-71500036D01*
X137743238Y-71560544D01*
X137821619Y-71570863D01*
X137899999Y-71581182D01*
X137900000Y-71581182D01*
X137900001Y-71581182D01*
X137952254Y-71574302D01*
X138056762Y-71560544D01*
X138202841Y-71500036D01*
X138328282Y-71403782D01*
X138424536Y-71278341D01*
X138485044Y-71132262D01*
X138505682Y-70975500D01*
X138503641Y-70960000D01*
X138485044Y-70818739D01*
X138485044Y-70818738D01*
X138424536Y-70672659D01*
X138328282Y-70547218D01*
X138202841Y-70450964D01*
X138073422Y-70397357D01*
X138056762Y-70390456D01*
X138056760Y-70390455D01*
X137900001Y-70369818D01*
X137899999Y-70369818D01*
X137743239Y-70390455D01*
X137743237Y-70390456D01*
X137597156Y-70450965D01*
X137597155Y-70450965D01*
X137568638Y-70472847D01*
X137503469Y-70498040D01*
X137435024Y-70484000D01*
X137385035Y-70435186D01*
X137369155Y-70374601D01*
X137367845Y-69100148D01*
X137387461Y-69033092D01*
X137440218Y-68987283D01*
X137509366Y-68977268D01*
X137567332Y-69001649D01*
X137597157Y-69024535D01*
X137597158Y-69024535D01*
X137597159Y-69024536D01*
X137743238Y-69085044D01*
X137821619Y-69095363D01*
X137899999Y-69105682D01*
X137900000Y-69105682D01*
X137900001Y-69105682D01*
X137952254Y-69098802D01*
X138056762Y-69085044D01*
X138202841Y-69024536D01*
X138328282Y-68928282D01*
X138424536Y-68802841D01*
X138485044Y-68656762D01*
X138505682Y-68500000D01*
X138485044Y-68343238D01*
X138424536Y-68197159D01*
X138328282Y-68071718D01*
X138202841Y-67975464D01*
X138056762Y-67914956D01*
X138056760Y-67914955D01*
X137943162Y-67900000D01*
X140894353Y-67900000D01*
X140914834Y-68042456D01*
X140928198Y-68071718D01*
X140974623Y-68173373D01*
X141068872Y-68282143D01*
X141189947Y-68359953D01*
X141189950Y-68359954D01*
X141189949Y-68359954D01*
X141328036Y-68400499D01*
X141328038Y-68400500D01*
X141328039Y-68400500D01*
X141471962Y-68400500D01*
X141471962Y-68400499D01*
X141610053Y-68359953D01*
X141731128Y-68282143D01*
X141825377Y-68173373D01*
X141885165Y-68042457D01*
X141905647Y-67900000D01*
X141902124Y-67875500D01*
X144054333Y-67875500D01*
X144074814Y-68017956D01*
X144099367Y-68071718D01*
X144134603Y-68148873D01*
X144228852Y-68257643D01*
X144349927Y-68335453D01*
X144349930Y-68335454D01*
X144349929Y-68335454D01*
X144488016Y-68375999D01*
X144488018Y-68376000D01*
X144488019Y-68376000D01*
X144631942Y-68376000D01*
X144631942Y-68375999D01*
X144770033Y-68335453D01*
X144891108Y-68257643D01*
X144985357Y-68148873D01*
X145045145Y-68017957D01*
X145065627Y-67875500D01*
X145045145Y-67733043D01*
X144985357Y-67602127D01*
X144891108Y-67493357D01*
X144770033Y-67415547D01*
X144770031Y-67415546D01*
X144770029Y-67415545D01*
X144770030Y-67415545D01*
X144631943Y-67375000D01*
X144631941Y-67375000D01*
X144488019Y-67375000D01*
X144488016Y-67375000D01*
X144349929Y-67415545D01*
X144228853Y-67493356D01*
X144134603Y-67602126D01*
X144134602Y-67602128D01*
X144074814Y-67733043D01*
X144054333Y-67875500D01*
X141902124Y-67875500D01*
X141885165Y-67757543D01*
X141825377Y-67626627D01*
X141731128Y-67517857D01*
X141610053Y-67440047D01*
X141610051Y-67440046D01*
X141610049Y-67440045D01*
X141610050Y-67440045D01*
X141471963Y-67399500D01*
X141471961Y-67399500D01*
X141328039Y-67399500D01*
X141328036Y-67399500D01*
X141189949Y-67440045D01*
X141068873Y-67517856D01*
X140974623Y-67626626D01*
X140974622Y-67626628D01*
X140914834Y-67757543D01*
X140894353Y-67900000D01*
X137943162Y-67900000D01*
X137900001Y-67894318D01*
X137899999Y-67894318D01*
X137743239Y-67914955D01*
X137743237Y-67914956D01*
X137597158Y-67975464D01*
X137566097Y-67999298D01*
X137500928Y-68024491D01*
X137432483Y-68010452D01*
X137382494Y-67961638D01*
X137366613Y-67901053D01*
X137365192Y-66517916D01*
X137384808Y-66450858D01*
X137388545Y-66445359D01*
X137815569Y-65852246D01*
X137870714Y-65809344D01*
X137876964Y-65807072D01*
X141082669Y-64738476D01*
X144275659Y-63674119D01*
X144275660Y-63674118D01*
X144752677Y-63016007D01*
X144777049Y-58463159D01*
X144797092Y-58396227D01*
X144813598Y-58375911D01*
X145243722Y-57948083D01*
X145305134Y-57914764D01*
X145331168Y-57912000D01*
X150324638Y-57912000D01*
X150391677Y-57931685D01*
G37*
%TD.AperFunction*%
%TD*%
%TA.AperFunction,Conductor*%
%TO.N,+3.3V*%
G36*
X177601914Y-57781335D02*
G01*
X182327423Y-57789246D01*
X182394429Y-57809043D01*
X182414968Y-57825637D01*
X182842493Y-58253864D01*
X182875928Y-58315214D01*
X182878740Y-58341469D01*
X182878783Y-59640819D01*
X182859101Y-59707859D01*
X182806298Y-59753616D01*
X182737140Y-59763561D01*
X182731998Y-59762712D01*
X182705451Y-59757749D01*
X182620664Y-59741900D01*
X182409336Y-59741900D01*
X182201605Y-59780732D01*
X182201602Y-59780732D01*
X182201602Y-59780733D01*
X182004547Y-59857071D01*
X182004546Y-59857072D01*
X181824870Y-59968324D01*
X181668699Y-60110691D01*
X181541344Y-60279337D01*
X181447147Y-60468509D01*
X181447144Y-60468515D01*
X181389314Y-60671770D01*
X181389313Y-60671773D01*
X181369815Y-60882199D01*
X181369815Y-60882200D01*
X181389313Y-61092626D01*
X181389314Y-61092629D01*
X181447144Y-61295884D01*
X181447147Y-61295890D01*
X181541344Y-61485062D01*
X181668699Y-61653708D01*
X181803050Y-61776183D01*
X181824872Y-61796077D01*
X182004547Y-61907328D01*
X182201605Y-61983668D01*
X182409336Y-62022500D01*
X182409338Y-62022500D01*
X182620663Y-62022500D01*
X182620664Y-62022500D01*
X182732082Y-62001672D01*
X182801596Y-62008702D01*
X182856275Y-62052199D01*
X182878758Y-62118353D01*
X182878867Y-62123556D01*
X182878881Y-62536438D01*
X182859199Y-62603478D01*
X182806396Y-62649235D01*
X182737238Y-62659180D01*
X182732121Y-62658335D01*
X182620664Y-62637500D01*
X182409336Y-62637500D01*
X182201605Y-62676332D01*
X182201602Y-62676332D01*
X182201602Y-62676333D01*
X182004547Y-62752671D01*
X182004546Y-62752672D01*
X181824870Y-62863924D01*
X181668699Y-63006291D01*
X181541344Y-63174937D01*
X181447147Y-63364109D01*
X181447144Y-63364115D01*
X181389314Y-63567370D01*
X181389313Y-63567373D01*
X181369815Y-63777799D01*
X181369815Y-63777800D01*
X181389313Y-63988226D01*
X181389314Y-63988229D01*
X181447144Y-64191484D01*
X181447147Y-64191490D01*
X181541344Y-64380662D01*
X181668699Y-64549308D01*
X181785698Y-64655965D01*
X181824872Y-64691677D01*
X182004547Y-64802928D01*
X182201605Y-64879268D01*
X182332901Y-64903811D01*
X182395181Y-64935479D01*
X182430454Y-64995792D01*
X182427520Y-65065600D01*
X182387311Y-65122740D01*
X182322593Y-65149071D01*
X182310115Y-65149700D01*
X182238336Y-65149700D01*
X182030605Y-65188532D01*
X182030602Y-65188532D01*
X182030602Y-65188533D01*
X181833547Y-65264871D01*
X181833546Y-65264872D01*
X181653870Y-65376124D01*
X181497699Y-65518491D01*
X181370344Y-65687137D01*
X181276147Y-65876309D01*
X181276144Y-65876315D01*
X181218314Y-66079570D01*
X181218313Y-66079573D01*
X181198815Y-66289999D01*
X181198815Y-66290000D01*
X181218313Y-66500426D01*
X181218314Y-66500429D01*
X181276144Y-66703684D01*
X181276147Y-66703690D01*
X181370344Y-66892862D01*
X181497699Y-67061508D01*
X181630386Y-67182467D01*
X181653872Y-67203877D01*
X181833547Y-67315128D01*
X182030605Y-67391468D01*
X182238336Y-67430300D01*
X182238338Y-67430300D01*
X182449662Y-67430300D01*
X182449664Y-67430300D01*
X182657395Y-67391468D01*
X182676620Y-67384020D01*
X182710254Y-67370991D01*
X182779877Y-67365128D01*
X182841617Y-67397838D01*
X182875872Y-67458734D01*
X182879048Y-67486613D01*
X182879051Y-67573154D01*
X182859369Y-67640194D01*
X182806566Y-67685951D01*
X182737408Y-67695896D01*
X182732272Y-67695047D01*
X182703664Y-67689700D01*
X182492336Y-67689700D01*
X182284605Y-67728532D01*
X182284602Y-67728532D01*
X182284602Y-67728533D01*
X182087547Y-67804871D01*
X182087546Y-67804872D01*
X181907870Y-67916124D01*
X181751699Y-68058491D01*
X181624344Y-68227137D01*
X181530147Y-68416309D01*
X181530144Y-68416315D01*
X181472314Y-68619570D01*
X181472313Y-68619573D01*
X181452815Y-68829999D01*
X181452815Y-68830000D01*
X181472313Y-69040426D01*
X181472314Y-69040429D01*
X181530144Y-69243684D01*
X181530147Y-69243690D01*
X181624344Y-69432862D01*
X181751699Y-69601508D01*
X181886050Y-69723983D01*
X181907872Y-69743877D01*
X182087547Y-69855128D01*
X182284605Y-69931468D01*
X182492336Y-69970300D01*
X182492338Y-69970300D01*
X182703663Y-69970300D01*
X182703664Y-69970300D01*
X182719538Y-69967332D01*
X182732349Y-69964938D01*
X182801864Y-69971968D01*
X182856543Y-70015465D01*
X182879026Y-70081619D01*
X182879135Y-70086822D01*
X182879138Y-70173413D01*
X182859456Y-70240453D01*
X182806653Y-70286210D01*
X182737495Y-70296155D01*
X182710345Y-70289044D01*
X182657400Y-70268533D01*
X182657395Y-70268532D01*
X182449664Y-70229700D01*
X182238336Y-70229700D01*
X182030605Y-70268532D01*
X182030602Y-70268532D01*
X182030602Y-70268533D01*
X181833547Y-70344871D01*
X181833546Y-70344872D01*
X181653870Y-70456124D01*
X181497699Y-70598491D01*
X181370344Y-70767137D01*
X181276147Y-70956309D01*
X181276144Y-70956315D01*
X181218314Y-71159570D01*
X181218313Y-71159573D01*
X181198815Y-71369999D01*
X181198815Y-71370000D01*
X181218313Y-71580426D01*
X181218314Y-71580429D01*
X181276144Y-71783684D01*
X181276147Y-71783690D01*
X181370344Y-71972862D01*
X181497699Y-72141508D01*
X181632050Y-72263983D01*
X181653872Y-72283877D01*
X181833547Y-72395128D01*
X182030605Y-72471468D01*
X182238336Y-72510300D01*
X182238338Y-72510300D01*
X182449662Y-72510300D01*
X182449664Y-72510300D01*
X182657395Y-72471468D01*
X182710425Y-72450923D01*
X182780048Y-72445062D01*
X182841789Y-72477772D01*
X182876043Y-72538668D01*
X182879219Y-72566547D01*
X182879222Y-72653185D01*
X182859540Y-72720225D01*
X182806737Y-72765982D01*
X182737579Y-72775927D01*
X182732441Y-72775078D01*
X182703670Y-72769700D01*
X182703664Y-72769700D01*
X182492336Y-72769700D01*
X182284605Y-72808532D01*
X182284602Y-72808532D01*
X182284602Y-72808533D01*
X182087547Y-72884871D01*
X182087546Y-72884872D01*
X181907870Y-72996124D01*
X181751699Y-73138491D01*
X181624344Y-73307137D01*
X181530147Y-73496309D01*
X181530144Y-73496315D01*
X181472314Y-73699570D01*
X181472313Y-73699573D01*
X181452815Y-73909999D01*
X181452815Y-73910000D01*
X181472313Y-74120426D01*
X181472314Y-74120429D01*
X181530144Y-74323684D01*
X181530147Y-74323690D01*
X181624344Y-74512862D01*
X181751699Y-74681508D01*
X181886050Y-74803983D01*
X181907872Y-74823877D01*
X182087547Y-74935128D01*
X182284605Y-75011468D01*
X182492336Y-75050300D01*
X182492338Y-75050300D01*
X182703663Y-75050300D01*
X182703664Y-75050300D01*
X182720931Y-75047072D01*
X182732520Y-75044906D01*
X182802035Y-75051936D01*
X182856714Y-75095433D01*
X182879197Y-75161586D01*
X182879306Y-75166790D01*
X182879309Y-75253479D01*
X182859627Y-75320519D01*
X182806824Y-75366276D01*
X182737666Y-75376221D01*
X182710516Y-75369110D01*
X182657400Y-75348533D01*
X182657395Y-75348532D01*
X182449664Y-75309700D01*
X182238336Y-75309700D01*
X182030605Y-75348532D01*
X182030602Y-75348532D01*
X182030602Y-75348533D01*
X181833547Y-75424871D01*
X181833546Y-75424872D01*
X181653870Y-75536124D01*
X181497699Y-75678491D01*
X181370344Y-75847137D01*
X181276147Y-76036309D01*
X181276144Y-76036315D01*
X181218314Y-76239570D01*
X181218313Y-76239573D01*
X181198815Y-76449999D01*
X181198815Y-76450000D01*
X181218313Y-76660426D01*
X181218314Y-76660429D01*
X181276144Y-76863684D01*
X181276147Y-76863690D01*
X181370344Y-77052862D01*
X181497699Y-77221508D01*
X181632050Y-77343983D01*
X181653872Y-77363877D01*
X181833547Y-77475128D01*
X182030605Y-77551468D01*
X182238336Y-77590300D01*
X182238338Y-77590300D01*
X182449662Y-77590300D01*
X182449664Y-77590300D01*
X182657395Y-77551468D01*
X182710596Y-77530857D01*
X182780218Y-77524995D01*
X182841959Y-77557704D01*
X182876214Y-77618600D01*
X182879390Y-77646480D01*
X182879393Y-77733217D01*
X182859711Y-77800257D01*
X182806908Y-77846014D01*
X182737750Y-77855959D01*
X182732612Y-77855110D01*
X182703669Y-77849700D01*
X182703664Y-77849700D01*
X182492336Y-77849700D01*
X182284605Y-77888532D01*
X182284602Y-77888532D01*
X182284602Y-77888533D01*
X182087547Y-77964871D01*
X182087546Y-77964872D01*
X181907870Y-78076124D01*
X181751699Y-78218491D01*
X181624344Y-78387137D01*
X181530147Y-78576309D01*
X181530144Y-78576315D01*
X181472314Y-78779570D01*
X181472313Y-78779573D01*
X181452815Y-78989999D01*
X181452815Y-78990000D01*
X181472313Y-79200426D01*
X181472314Y-79200429D01*
X181530144Y-79403684D01*
X181530147Y-79403690D01*
X181624344Y-79592862D01*
X181751699Y-79761508D01*
X181864717Y-79864536D01*
X181907872Y-79903877D01*
X182087547Y-80015128D01*
X182284605Y-80091468D01*
X182492336Y-80130300D01*
X182492338Y-80130300D01*
X182703663Y-80130300D01*
X182703664Y-80130300D01*
X182722570Y-80126765D01*
X182732691Y-80124874D01*
X182802206Y-80131904D01*
X182856885Y-80175401D01*
X182879368Y-80241554D01*
X182879477Y-80246758D01*
X182879480Y-80333546D01*
X182859798Y-80400586D01*
X182806995Y-80446343D01*
X182737837Y-80456288D01*
X182710686Y-80449177D01*
X182703371Y-80446343D01*
X182657395Y-80428532D01*
X182449664Y-80389700D01*
X182238336Y-80389700D01*
X182030605Y-80428532D01*
X182030602Y-80428532D01*
X182030602Y-80428533D01*
X181833547Y-80504871D01*
X181833546Y-80504872D01*
X181653870Y-80616124D01*
X181497699Y-80758491D01*
X181370344Y-80927137D01*
X181276147Y-81116309D01*
X181276144Y-81116315D01*
X181218314Y-81319570D01*
X181218313Y-81319573D01*
X181198815Y-81529999D01*
X181198815Y-81530000D01*
X181218313Y-81740426D01*
X181218314Y-81740429D01*
X181276144Y-81943684D01*
X181276147Y-81943690D01*
X181370344Y-82132862D01*
X181497699Y-82301508D01*
X181586576Y-82382529D01*
X181653872Y-82443877D01*
X181833547Y-82555128D01*
X182030605Y-82631468D01*
X182238336Y-82670300D01*
X182238338Y-82670300D01*
X182449662Y-82670300D01*
X182449664Y-82670300D01*
X182657395Y-82631468D01*
X182710766Y-82610791D01*
X182780389Y-82604929D01*
X182842130Y-82637638D01*
X182876385Y-82698534D01*
X182879561Y-82726414D01*
X182879564Y-82813249D01*
X182859882Y-82880289D01*
X182807079Y-82926046D01*
X182737921Y-82935991D01*
X182732782Y-82935142D01*
X182703668Y-82929700D01*
X182703664Y-82929700D01*
X182492336Y-82929700D01*
X182284605Y-82968532D01*
X182284602Y-82968532D01*
X182284602Y-82968533D01*
X182087547Y-83044871D01*
X182087546Y-83044872D01*
X181907870Y-83156124D01*
X181751699Y-83298491D01*
X181624344Y-83467137D01*
X181530147Y-83656309D01*
X181530144Y-83656315D01*
X181472314Y-83859570D01*
X181472313Y-83859573D01*
X181452815Y-84069999D01*
X181452815Y-84070000D01*
X181472313Y-84280426D01*
X181472314Y-84280429D01*
X181530144Y-84483684D01*
X181530147Y-84483690D01*
X181624344Y-84672862D01*
X181751699Y-84841508D01*
X181907871Y-84983876D01*
X181907873Y-84983878D01*
X181948852Y-85009251D01*
X181995488Y-85061279D01*
X182006592Y-85130260D01*
X181978639Y-85194295D01*
X181923838Y-85231959D01*
X181763661Y-85286948D01*
X181763650Y-85286953D01*
X181553807Y-85400514D01*
X181553802Y-85400517D01*
X181516840Y-85429286D01*
X181516840Y-85429287D01*
X182204400Y-86116847D01*
X182199408Y-86117565D01*
X182066530Y-86178248D01*
X181956131Y-86273910D01*
X181877155Y-86396799D01*
X181854478Y-86474030D01*
X181164057Y-85783609D01*
X181073392Y-85922382D01*
X180977545Y-86140895D01*
X180918969Y-86372203D01*
X180918967Y-86372211D01*
X180899265Y-86609993D01*
X180899265Y-86610006D01*
X180918967Y-86847788D01*
X180918969Y-86847796D01*
X180977545Y-87079104D01*
X181073391Y-87297614D01*
X181164057Y-87436389D01*
X181854477Y-86745969D01*
X181877155Y-86823201D01*
X181956131Y-86946090D01*
X182066530Y-87041752D01*
X182199408Y-87102435D01*
X182204398Y-87103152D01*
X181516839Y-87790711D01*
X181516840Y-87790712D01*
X181553802Y-87819481D01*
X181553808Y-87819486D01*
X181763650Y-87933046D01*
X181763660Y-87933051D01*
X181989335Y-88010525D01*
X182224696Y-88049800D01*
X182463304Y-88049800D01*
X182698658Y-88010526D01*
X182715474Y-88004753D01*
X182785273Y-88001601D01*
X182845696Y-88036685D01*
X182877559Y-88098866D01*
X182879742Y-88122029D01*
X182879783Y-89315397D01*
X182860101Y-89382437D01*
X182851378Y-89394380D01*
X182417183Y-89919924D01*
X182359308Y-89959069D01*
X182344977Y-89962719D01*
X180351025Y-90345690D01*
X179851527Y-90939928D01*
X179779333Y-95199330D01*
X179758515Y-95266027D01*
X179742286Y-95285650D01*
X179306187Y-95714421D01*
X179244583Y-95747385D01*
X179219252Y-95750000D01*
X172001362Y-95750000D01*
X171934323Y-95730315D01*
X171913681Y-95713681D01*
X171486319Y-95286319D01*
X171452834Y-95224996D01*
X171450000Y-95198638D01*
X171450000Y-88498455D01*
X171469685Y-88431416D01*
X171522489Y-88385661D01*
X171539066Y-88379478D01*
X171660050Y-88343954D01*
X171660050Y-88343953D01*
X171660053Y-88343953D01*
X171781128Y-88266143D01*
X171875377Y-88157373D01*
X171935165Y-88026457D01*
X171955647Y-87884000D01*
X171935165Y-87741543D01*
X171875377Y-87610627D01*
X171866169Y-87600000D01*
X177294353Y-87600000D01*
X177314834Y-87742456D01*
X177336946Y-87790873D01*
X177374623Y-87873373D01*
X177468872Y-87982143D01*
X177589947Y-88059953D01*
X177589950Y-88059954D01*
X177589949Y-88059954D01*
X177728036Y-88100499D01*
X177728038Y-88100500D01*
X177728039Y-88100500D01*
X177871962Y-88100500D01*
X177871962Y-88100499D01*
X178010053Y-88059953D01*
X178131128Y-87982143D01*
X178225377Y-87873373D01*
X178285165Y-87742457D01*
X178305647Y-87600000D01*
X178285165Y-87457543D01*
X178225377Y-87326627D01*
X178131128Y-87217857D01*
X178010053Y-87140047D01*
X178010051Y-87140046D01*
X178010049Y-87140045D01*
X178010050Y-87140045D01*
X177871963Y-87099500D01*
X177871961Y-87099500D01*
X177728039Y-87099500D01*
X177728036Y-87099500D01*
X177589949Y-87140045D01*
X177468873Y-87217856D01*
X177374623Y-87326626D01*
X177374622Y-87326628D01*
X177314834Y-87457543D01*
X177294353Y-87600000D01*
X171866169Y-87600000D01*
X171781128Y-87501857D01*
X171660053Y-87424047D01*
X171660050Y-87424045D01*
X171539065Y-87388521D01*
X171480287Y-87350747D01*
X171451262Y-87287191D01*
X171450000Y-87269544D01*
X171450000Y-84320001D01*
X171450000Y-84320000D01*
X170950019Y-83815605D01*
X170950017Y-83815604D01*
X166890559Y-83779916D01*
X166823695Y-83759643D01*
X166778406Y-83706439D01*
X166768911Y-83638275D01*
X166779648Y-83563600D01*
X166759166Y-83421143D01*
X166699378Y-83290227D01*
X166605129Y-83181457D01*
X166484054Y-83103647D01*
X166484052Y-83103646D01*
X166484050Y-83103645D01*
X166484051Y-83103645D01*
X166345964Y-83063100D01*
X166345962Y-83063100D01*
X166202040Y-83063100D01*
X166202037Y-83063100D01*
X166063950Y-83103645D01*
X165942874Y-83181456D01*
X165848624Y-83290226D01*
X165848623Y-83290228D01*
X165788835Y-83421143D01*
X165768354Y-83563600D01*
X165777527Y-83627401D01*
X165767583Y-83696560D01*
X165721828Y-83749364D01*
X165654789Y-83769048D01*
X165653699Y-83769043D01*
X161011716Y-83728234D01*
X160944852Y-83707961D01*
X160900012Y-83655751D01*
X160887065Y-83627401D01*
X160845358Y-83536076D01*
X160751109Y-83427306D01*
X160630034Y-83349496D01*
X160630032Y-83349495D01*
X160630030Y-83349494D01*
X160630031Y-83349494D01*
X160491944Y-83308949D01*
X160491942Y-83308949D01*
X160399923Y-83308949D01*
X160332884Y-83289264D01*
X160287129Y-83236460D01*
X160277185Y-83167302D01*
X160278792Y-83156123D01*
X160283707Y-83121940D01*
X160263225Y-82979483D01*
X160203437Y-82848567D01*
X160109188Y-82739797D01*
X159988113Y-82661987D01*
X159988111Y-82661986D01*
X159988109Y-82661985D01*
X159988110Y-82661985D01*
X159850023Y-82621440D01*
X159850021Y-82621440D01*
X159706099Y-82621440D01*
X159706095Y-82621440D01*
X159699860Y-82623271D01*
X159629990Y-82623269D01*
X159571213Y-82585493D01*
X159542191Y-82521936D01*
X159542191Y-82486646D01*
X159549813Y-82433634D01*
X159529331Y-82291177D01*
X159469543Y-82160261D01*
X159375294Y-82051491D01*
X159254219Y-81973681D01*
X159254217Y-81973680D01*
X159254215Y-81973679D01*
X159254216Y-81973679D01*
X159116129Y-81933134D01*
X159116127Y-81933134D01*
X158972205Y-81933134D01*
X158972204Y-81933134D01*
X158963426Y-81934396D01*
X158963189Y-81932748D01*
X158903637Y-81932740D01*
X158844865Y-81894957D01*
X158815849Y-81831397D01*
X158815851Y-81796125D01*
X158833707Y-81671940D01*
X158813225Y-81529483D01*
X158753437Y-81398567D01*
X158659188Y-81289797D01*
X158538113Y-81211987D01*
X158538111Y-81211986D01*
X158538109Y-81211985D01*
X158538110Y-81211985D01*
X158400023Y-81171440D01*
X158400021Y-81171440D01*
X158256099Y-81171440D01*
X158248127Y-81171440D01*
X158181088Y-81151755D01*
X158135333Y-81098951D01*
X158125389Y-81029793D01*
X158126790Y-81020047D01*
X158133707Y-80971940D01*
X158113225Y-80829483D01*
X158053437Y-80698567D01*
X157959188Y-80589797D01*
X157838113Y-80511987D01*
X157838111Y-80511986D01*
X157838109Y-80511985D01*
X157838110Y-80511985D01*
X157700023Y-80471440D01*
X157700021Y-80471440D01*
X157556099Y-80471440D01*
X157556095Y-80471440D01*
X157523786Y-80480927D01*
X157453916Y-80480927D01*
X157395138Y-80443152D01*
X157366114Y-80379596D01*
X157366114Y-80344303D01*
X157371239Y-80308658D01*
X157383707Y-80221940D01*
X157363225Y-80079483D01*
X157303437Y-79948567D01*
X157209188Y-79839797D01*
X157088113Y-79761987D01*
X157088111Y-79761986D01*
X157088109Y-79761985D01*
X157088110Y-79761985D01*
X156941512Y-79718941D01*
X156942112Y-79716896D01*
X156889436Y-79692832D01*
X156851669Y-79634049D01*
X156848364Y-79587777D01*
X156848284Y-79587777D01*
X156848284Y-79586656D01*
X156847914Y-79581479D01*
X156848284Y-79578908D01*
X156827802Y-79436451D01*
X156768014Y-79305535D01*
X156675974Y-79199314D01*
X156646950Y-79135760D01*
X156656894Y-79066601D01*
X156675972Y-79036913D01*
X156747877Y-78953931D01*
X156807665Y-78823015D01*
X156818163Y-78750000D01*
X157319853Y-78750000D01*
X157340334Y-78892456D01*
X157392055Y-79005706D01*
X157400123Y-79023373D01*
X157494372Y-79132143D01*
X157615447Y-79209953D01*
X157615450Y-79209954D01*
X157615449Y-79209954D01*
X157708293Y-79237215D01*
X157767071Y-79274989D01*
X157796097Y-79338544D01*
X157796097Y-79373839D01*
X157777717Y-79501677D01*
X157798198Y-79644134D01*
X157833469Y-79721365D01*
X157857987Y-79775051D01*
X157952236Y-79883821D01*
X158073311Y-79961631D01*
X158073314Y-79961632D01*
X158073313Y-79961632D01*
X158211400Y-80002177D01*
X158211402Y-80002178D01*
X158314662Y-80002178D01*
X158381701Y-80021863D01*
X158427456Y-80074667D01*
X158437399Y-80143823D01*
X158435195Y-80159158D01*
X158435195Y-80159159D01*
X158455676Y-80301614D01*
X158497020Y-80392143D01*
X158515465Y-80432531D01*
X158609714Y-80541301D01*
X158730789Y-80619111D01*
X158730792Y-80619112D01*
X158730791Y-80619112D01*
X158868878Y-80659657D01*
X158868880Y-80659658D01*
X158963586Y-80659658D01*
X159030625Y-80679343D01*
X159076380Y-80732147D01*
X159086324Y-80801304D01*
X159085195Y-80809158D01*
X159088117Y-80829483D01*
X159105676Y-80951614D01*
X159127774Y-81000000D01*
X159165465Y-81082531D01*
X159259714Y-81191301D01*
X159380789Y-81269111D01*
X159380792Y-81269112D01*
X159380791Y-81269112D01*
X159518878Y-81309657D01*
X159518880Y-81309658D01*
X159563442Y-81309658D01*
X159630481Y-81329343D01*
X159676236Y-81382147D01*
X159686180Y-81416011D01*
X159705676Y-81551614D01*
X159722738Y-81588973D01*
X159765465Y-81682531D01*
X159859714Y-81791301D01*
X159980789Y-81869111D01*
X159980792Y-81869112D01*
X159980791Y-81869112D01*
X160118878Y-81909657D01*
X160118880Y-81909658D01*
X160270775Y-81909658D01*
X160337814Y-81929343D01*
X160383569Y-81982147D01*
X160393513Y-82051305D01*
X160385195Y-82109158D01*
X160405676Y-82251614D01*
X160431728Y-82308658D01*
X160465465Y-82382531D01*
X160559714Y-82491301D01*
X160680789Y-82569111D01*
X160680792Y-82569112D01*
X160680791Y-82569112D01*
X160787949Y-82600575D01*
X160802775Y-82604929D01*
X160818878Y-82609657D01*
X160818880Y-82609658D01*
X160970775Y-82609658D01*
X161037814Y-82629343D01*
X161083569Y-82682147D01*
X161093513Y-82751305D01*
X161085195Y-82809158D01*
X161105676Y-82951614D01*
X161156591Y-83063100D01*
X161165465Y-83082531D01*
X161259714Y-83191301D01*
X161380789Y-83269111D01*
X161380792Y-83269112D01*
X161380791Y-83269112D01*
X161480849Y-83298491D01*
X161516466Y-83308949D01*
X161518878Y-83309657D01*
X161518880Y-83309658D01*
X161518881Y-83309658D01*
X161662804Y-83309658D01*
X161662804Y-83309657D01*
X161800895Y-83269111D01*
X161921970Y-83191301D01*
X162016219Y-83082531D01*
X162076007Y-82951615D01*
X162096489Y-82809158D01*
X162076007Y-82666701D01*
X162016219Y-82535785D01*
X161921970Y-82427015D01*
X161800895Y-82349205D01*
X161800893Y-82349204D01*
X161800891Y-82349203D01*
X161800892Y-82349203D01*
X161662805Y-82308658D01*
X161662803Y-82308658D01*
X161518881Y-82308658D01*
X161510909Y-82308658D01*
X161443870Y-82288973D01*
X161398115Y-82236169D01*
X161388171Y-82167011D01*
X161389141Y-82160262D01*
X161396489Y-82109158D01*
X161376007Y-81966701D01*
X161316219Y-81835785D01*
X161221970Y-81727015D01*
X161100895Y-81649205D01*
X161100893Y-81649204D01*
X161100891Y-81649203D01*
X161100892Y-81649203D01*
X160962805Y-81608658D01*
X160962803Y-81608658D01*
X160818881Y-81608658D01*
X160810909Y-81608658D01*
X160743870Y-81588973D01*
X160698115Y-81536169D01*
X160688171Y-81467011D01*
X160689186Y-81459953D01*
X160696489Y-81409158D01*
X160676007Y-81266701D01*
X160616219Y-81135785D01*
X160521970Y-81027015D01*
X160520391Y-81026000D01*
X161038353Y-81026000D01*
X161058834Y-81168456D01*
X161104803Y-81269112D01*
X161118623Y-81299373D01*
X161212872Y-81408143D01*
X161333947Y-81485953D01*
X161333950Y-81485954D01*
X161333949Y-81485954D01*
X161441107Y-81517417D01*
X161466753Y-81524948D01*
X161472036Y-81526499D01*
X161472038Y-81526500D01*
X161472039Y-81526500D01*
X161615962Y-81526500D01*
X161615962Y-81526499D01*
X161754053Y-81485953D01*
X161763316Y-81480000D01*
X177264353Y-81480000D01*
X177284834Y-81622456D01*
X177344622Y-81753371D01*
X177344623Y-81753373D01*
X177438872Y-81862143D01*
X177559947Y-81939953D01*
X177559950Y-81939954D01*
X177559949Y-81939954D01*
X177698036Y-81980499D01*
X177698038Y-81980500D01*
X177698039Y-81980500D01*
X177841962Y-81980500D01*
X177841962Y-81980499D01*
X177980053Y-81939953D01*
X178101128Y-81862143D01*
X178195377Y-81753373D01*
X178255165Y-81622457D01*
X178275647Y-81480000D01*
X178255165Y-81337543D01*
X178195377Y-81206627D01*
X178101128Y-81097857D01*
X177980053Y-81020047D01*
X177980051Y-81020046D01*
X177980049Y-81020045D01*
X177980050Y-81020045D01*
X177841963Y-80979500D01*
X177841961Y-80979500D01*
X177698039Y-80979500D01*
X177698036Y-80979500D01*
X177559949Y-81020045D01*
X177438873Y-81097856D01*
X177344623Y-81206626D01*
X177344622Y-81206628D01*
X177284834Y-81337543D01*
X177264353Y-81480000D01*
X161763316Y-81480000D01*
X161875128Y-81408143D01*
X161969377Y-81299373D01*
X162029165Y-81168457D01*
X162049647Y-81026000D01*
X162029165Y-80883543D01*
X161969377Y-80752627D01*
X161875128Y-80643857D01*
X161754053Y-80566047D01*
X161754051Y-80566046D01*
X161754049Y-80566045D01*
X161754050Y-80566045D01*
X161615963Y-80525500D01*
X161615961Y-80525500D01*
X161472039Y-80525500D01*
X161472036Y-80525500D01*
X161333949Y-80566045D01*
X161212873Y-80643856D01*
X161118623Y-80752626D01*
X161118622Y-80752628D01*
X161058834Y-80883543D01*
X161038353Y-81026000D01*
X160520391Y-81026000D01*
X160400895Y-80949205D01*
X160400893Y-80949204D01*
X160400891Y-80949203D01*
X160400892Y-80949203D01*
X160262805Y-80908658D01*
X160262803Y-80908658D01*
X160218242Y-80908658D01*
X160151203Y-80888973D01*
X160105448Y-80836169D01*
X160095504Y-80802305D01*
X160076007Y-80666701D01*
X160057910Y-80627074D01*
X160016219Y-80535785D01*
X159921970Y-80427015D01*
X159800895Y-80349205D01*
X159800893Y-80349204D01*
X159800891Y-80349203D01*
X159800892Y-80349203D01*
X159662805Y-80308658D01*
X159662803Y-80308658D01*
X159568098Y-80308658D01*
X159501059Y-80288973D01*
X159455304Y-80236169D01*
X159445360Y-80167012D01*
X159446489Y-80159159D01*
X159446489Y-80159158D01*
X159426007Y-80016701D01*
X159402807Y-79965900D01*
X159366219Y-79885785D01*
X159271970Y-79777015D01*
X159150895Y-79699205D01*
X159150893Y-79699204D01*
X159150891Y-79699203D01*
X159150892Y-79699203D01*
X159012805Y-79658658D01*
X159012803Y-79658658D01*
X158909544Y-79658658D01*
X158842505Y-79638973D01*
X158796750Y-79586169D01*
X158786806Y-79517011D01*
X158789011Y-79501678D01*
X158768529Y-79359221D01*
X158759751Y-79340001D01*
X171924318Y-79340001D01*
X171944955Y-79496760D01*
X171944956Y-79496762D01*
X172005464Y-79642841D01*
X172101718Y-79768282D01*
X172227159Y-79864536D01*
X172373238Y-79925044D01*
X172451619Y-79935363D01*
X172529999Y-79945682D01*
X172530000Y-79945682D01*
X172530001Y-79945682D01*
X172582254Y-79938802D01*
X172686762Y-79925044D01*
X172832841Y-79864536D01*
X172958282Y-79768282D01*
X173054536Y-79642841D01*
X173115044Y-79496762D01*
X173135682Y-79340000D01*
X173135490Y-79338544D01*
X173115044Y-79183239D01*
X173115044Y-79183238D01*
X173054536Y-79037159D01*
X172958282Y-78911718D01*
X172832841Y-78815464D01*
X172796712Y-78800499D01*
X172686762Y-78754956D01*
X172686760Y-78754955D01*
X172530001Y-78734318D01*
X172529999Y-78734318D01*
X172373239Y-78754955D01*
X172373237Y-78754956D01*
X172227160Y-78815463D01*
X172101718Y-78911718D01*
X172005463Y-79037160D01*
X171944956Y-79183237D01*
X171944955Y-79183239D01*
X171924318Y-79339998D01*
X171924318Y-79340001D01*
X158759751Y-79340001D01*
X158708741Y-79228305D01*
X158614492Y-79119535D01*
X158493417Y-79041725D01*
X158493415Y-79041724D01*
X158493413Y-79041723D01*
X158485347Y-79038039D01*
X158486612Y-79035267D01*
X158440610Y-79005706D01*
X158411583Y-78942152D01*
X158421524Y-78872993D01*
X158467277Y-78820187D01*
X158534315Y-78800500D01*
X158671962Y-78800500D01*
X158671962Y-78800499D01*
X158779121Y-78769035D01*
X158810050Y-78759954D01*
X158810050Y-78759953D01*
X158810053Y-78759953D01*
X158931128Y-78682143D01*
X158983675Y-78621500D01*
X160094353Y-78621500D01*
X160114834Y-78763956D01*
X160173519Y-78892456D01*
X160174623Y-78894873D01*
X160268872Y-79003643D01*
X160389947Y-79081453D01*
X160389950Y-79081454D01*
X160389949Y-79081454D01*
X160497107Y-79112917D01*
X160519640Y-79119534D01*
X160528036Y-79121999D01*
X160528038Y-79122000D01*
X160528039Y-79122000D01*
X160671962Y-79122000D01*
X160671962Y-79121999D01*
X160810053Y-79081453D01*
X160931128Y-79003643D01*
X161025377Y-78894873D01*
X161085165Y-78763957D01*
X161105647Y-78621500D01*
X161085165Y-78479043D01*
X161025377Y-78348127D01*
X160931128Y-78239357D01*
X160810053Y-78161547D01*
X160810051Y-78161546D01*
X160810049Y-78161545D01*
X160810050Y-78161545D01*
X160671963Y-78121000D01*
X160671961Y-78121000D01*
X160528039Y-78121000D01*
X160528036Y-78121000D01*
X160389949Y-78161545D01*
X160268873Y-78239356D01*
X160174623Y-78348126D01*
X160174622Y-78348128D01*
X160114834Y-78479043D01*
X160094353Y-78621500D01*
X158983675Y-78621500D01*
X159025377Y-78573373D01*
X159085165Y-78442457D01*
X159105647Y-78300000D01*
X159085165Y-78157543D01*
X159025377Y-78026627D01*
X158931128Y-77917857D01*
X158810053Y-77840047D01*
X158810051Y-77840046D01*
X158810049Y-77840045D01*
X158810050Y-77840045D01*
X158671963Y-77799500D01*
X158671961Y-77799500D01*
X158528039Y-77799500D01*
X158528036Y-77799500D01*
X158389949Y-77840045D01*
X158268873Y-77917856D01*
X158174623Y-78026626D01*
X158174622Y-78026628D01*
X158114834Y-78157544D01*
X158114833Y-78157546D01*
X158113708Y-78165374D01*
X158084680Y-78228928D01*
X158025900Y-78266700D01*
X157956038Y-78266699D01*
X157897461Y-78249500D01*
X157753539Y-78249500D01*
X157753536Y-78249500D01*
X157615449Y-78290045D01*
X157494373Y-78367856D01*
X157400123Y-78476626D01*
X157400122Y-78476628D01*
X157340334Y-78607543D01*
X157319853Y-78750000D01*
X156818163Y-78750000D01*
X156828147Y-78680558D01*
X156807665Y-78538101D01*
X156747877Y-78407185D01*
X156653628Y-78298415D01*
X156532553Y-78220605D01*
X156532551Y-78220604D01*
X156532549Y-78220603D01*
X156532550Y-78220603D01*
X156394463Y-78180058D01*
X156394461Y-78180058D01*
X156250539Y-78180058D01*
X156250536Y-78180058D01*
X156112449Y-78220603D01*
X155991373Y-78298414D01*
X155897123Y-78407184D01*
X155897122Y-78407186D01*
X155837334Y-78538101D01*
X155816853Y-78680558D01*
X155837334Y-78823014D01*
X155897122Y-78953929D01*
X155897125Y-78953935D01*
X155989161Y-79060150D01*
X156018186Y-79123705D01*
X156008242Y-79192864D01*
X155989162Y-79222554D01*
X155917260Y-79305535D01*
X155917259Y-79305536D01*
X155857471Y-79436451D01*
X155836990Y-79578908D01*
X155857471Y-79721364D01*
X155911558Y-79839796D01*
X155917260Y-79852281D01*
X156011509Y-79961051D01*
X156132584Y-80038861D01*
X156132587Y-80038862D01*
X156132586Y-80038862D01*
X156279185Y-80081907D01*
X156278584Y-80083953D01*
X156331247Y-80108003D01*
X156369022Y-80166781D01*
X156372334Y-80213071D01*
X156372413Y-80213071D01*
X156372413Y-80214173D01*
X156372784Y-80219359D01*
X156372413Y-80221939D01*
X156392894Y-80364396D01*
X156441101Y-80469953D01*
X156452683Y-80495313D01*
X156546932Y-80604083D01*
X156668007Y-80681893D01*
X156668010Y-80681894D01*
X156668009Y-80681894D01*
X156806096Y-80722439D01*
X156806098Y-80722440D01*
X156806099Y-80722440D01*
X156950022Y-80722440D01*
X156950022Y-80722439D01*
X156982331Y-80712952D01*
X157052199Y-80712951D01*
X157110978Y-80750724D01*
X157140005Y-80814280D01*
X157140005Y-80849575D01*
X157122413Y-80971938D01*
X157122413Y-80971939D01*
X157142894Y-81114396D01*
X157168946Y-81171440D01*
X157202683Y-81245313D01*
X157296932Y-81354083D01*
X157418007Y-81431893D01*
X157418010Y-81431894D01*
X157418009Y-81431894D01*
X157556096Y-81472439D01*
X157556098Y-81472440D01*
X157707993Y-81472440D01*
X157775032Y-81492125D01*
X157820787Y-81544929D01*
X157830731Y-81614087D01*
X157822413Y-81671940D01*
X157842894Y-81814396D01*
X157901939Y-81943684D01*
X157902683Y-81945313D01*
X157996932Y-82054083D01*
X158118007Y-82131893D01*
X158118010Y-82131894D01*
X158118009Y-82131894D01*
X158256096Y-82172439D01*
X158256098Y-82172440D01*
X158256099Y-82172440D01*
X158400022Y-82172440D01*
X158408800Y-82171178D01*
X158409037Y-82172827D01*
X158468568Y-82172827D01*
X158527347Y-82210601D01*
X158556373Y-82274156D01*
X158556373Y-82309451D01*
X158538519Y-82433633D01*
X158559000Y-82576090D01*
X158602025Y-82670300D01*
X158618789Y-82707007D01*
X158713038Y-82815777D01*
X158834113Y-82893587D01*
X158834116Y-82893588D01*
X158834115Y-82893588D01*
X158941273Y-82925051D01*
X158965962Y-82932301D01*
X158972202Y-82934133D01*
X158972204Y-82934134D01*
X158972205Y-82934134D01*
X159116127Y-82934134D01*
X159122356Y-82932304D01*
X159192225Y-82932301D01*
X159251005Y-82970073D01*
X159280033Y-83033627D01*
X159280034Y-83068925D01*
X159272413Y-83121937D01*
X159272413Y-83121939D01*
X159292894Y-83264396D01*
X159336576Y-83360045D01*
X159352683Y-83395313D01*
X159446932Y-83504083D01*
X159446933Y-83504084D01*
X159450742Y-83508479D01*
X159479767Y-83572035D01*
X159469823Y-83641194D01*
X159424068Y-83693997D01*
X159357029Y-83713682D01*
X159355939Y-83713677D01*
X159075142Y-83711209D01*
X159008278Y-83690936D01*
X158963438Y-83638726D01*
X158939718Y-83586787D01*
X158921377Y-83546627D01*
X158827128Y-83437857D01*
X158706053Y-83360047D01*
X158706051Y-83360046D01*
X158706049Y-83360045D01*
X158706050Y-83360045D01*
X158567963Y-83319500D01*
X158567961Y-83319500D01*
X158424039Y-83319500D01*
X158424036Y-83319500D01*
X158285949Y-83360045D01*
X158164873Y-83437856D01*
X158090311Y-83523905D01*
X158031532Y-83561679D01*
X157961663Y-83561679D01*
X157948642Y-83557053D01*
X157468931Y-83355876D01*
X157429206Y-83329206D01*
X157051614Y-82951614D01*
X156653553Y-82553553D01*
X156017386Y-81973679D01*
X155915292Y-81880619D01*
X155746426Y-81740429D01*
X155720089Y-81718565D01*
X155705584Y-81704362D01*
X155702643Y-81700968D01*
X155630628Y-81617857D01*
X155509553Y-81540047D01*
X155509552Y-81540046D01*
X155502093Y-81535253D01*
X155502435Y-81534720D01*
X155486869Y-81524948D01*
X151384705Y-78119378D01*
X150956710Y-77964872D01*
X150500002Y-77800000D01*
X150500000Y-77800000D01*
X148651362Y-77800000D01*
X148584323Y-77780315D01*
X148563681Y-77763681D01*
X148236319Y-77436319D01*
X148202834Y-77374996D01*
X148200000Y-77348638D01*
X148200000Y-75831727D01*
X148215239Y-75772170D01*
X148259139Y-75692000D01*
X165102353Y-75692000D01*
X165122834Y-75834456D01*
X165128626Y-75847138D01*
X165182623Y-75965373D01*
X165276872Y-76074143D01*
X165397947Y-76151953D01*
X165397950Y-76151954D01*
X165397949Y-76151954D01*
X165536036Y-76192499D01*
X165536038Y-76192500D01*
X165536039Y-76192500D01*
X165679962Y-76192500D01*
X165679962Y-76192499D01*
X165818053Y-76151953D01*
X165939128Y-76074143D01*
X166033377Y-75965373D01*
X166093165Y-75834457D01*
X166113647Y-75692000D01*
X166372353Y-75692000D01*
X166392834Y-75834456D01*
X166398626Y-75847138D01*
X166452623Y-75965373D01*
X166546872Y-76074143D01*
X166667947Y-76151953D01*
X166667950Y-76151954D01*
X166667949Y-76151954D01*
X166806036Y-76192499D01*
X166806038Y-76192500D01*
X166806039Y-76192500D01*
X166949962Y-76192500D01*
X166949962Y-76192499D01*
X167088053Y-76151953D01*
X167209128Y-76074143D01*
X167303377Y-75965373D01*
X167363165Y-75834457D01*
X167383647Y-75692000D01*
X167642353Y-75692000D01*
X167662834Y-75834456D01*
X167668626Y-75847138D01*
X167722623Y-75965373D01*
X167816872Y-76074143D01*
X167937947Y-76151953D01*
X167937950Y-76151954D01*
X167937949Y-76151954D01*
X168076036Y-76192499D01*
X168076038Y-76192500D01*
X168076039Y-76192500D01*
X168219962Y-76192500D01*
X168219962Y-76192499D01*
X168358053Y-76151953D01*
X168479128Y-76074143D01*
X168573377Y-75965373D01*
X168633165Y-75834457D01*
X168653647Y-75692000D01*
X168912353Y-75692000D01*
X168932834Y-75834456D01*
X168938626Y-75847138D01*
X168992623Y-75965373D01*
X169086872Y-76074143D01*
X169207947Y-76151953D01*
X169207950Y-76151954D01*
X169207949Y-76151954D01*
X169346036Y-76192499D01*
X169346038Y-76192500D01*
X169346039Y-76192500D01*
X169489962Y-76192500D01*
X169489962Y-76192499D01*
X169628053Y-76151953D01*
X169749128Y-76074143D01*
X169843377Y-75965373D01*
X169903165Y-75834457D01*
X169923647Y-75692000D01*
X170182353Y-75692000D01*
X170202834Y-75834456D01*
X170208626Y-75847138D01*
X170262623Y-75965373D01*
X170356872Y-76074143D01*
X170477947Y-76151953D01*
X170477950Y-76151954D01*
X170477949Y-76151954D01*
X170616036Y-76192499D01*
X170616038Y-76192500D01*
X170616039Y-76192500D01*
X170759962Y-76192500D01*
X170759962Y-76192499D01*
X170898053Y-76151953D01*
X171019128Y-76074143D01*
X171113377Y-75965373D01*
X171173165Y-75834457D01*
X171193647Y-75692000D01*
X171452353Y-75692000D01*
X171472834Y-75834456D01*
X171478626Y-75847138D01*
X171532623Y-75965373D01*
X171626872Y-76074143D01*
X171747947Y-76151953D01*
X171747950Y-76151954D01*
X171747949Y-76151954D01*
X171886036Y-76192499D01*
X171886038Y-76192500D01*
X171886039Y-76192500D01*
X172029962Y-76192500D01*
X172029962Y-76192499D01*
X172168053Y-76151953D01*
X172289128Y-76074143D01*
X172383377Y-75965373D01*
X172443165Y-75834457D01*
X172463647Y-75692000D01*
X172722353Y-75692000D01*
X172742834Y-75834456D01*
X172748626Y-75847138D01*
X172802623Y-75965373D01*
X172896872Y-76074143D01*
X173017947Y-76151953D01*
X173017950Y-76151954D01*
X173017949Y-76151954D01*
X173156036Y-76192499D01*
X173156038Y-76192500D01*
X173156039Y-76192500D01*
X173299962Y-76192500D01*
X173299962Y-76192499D01*
X173438053Y-76151953D01*
X173559128Y-76074143D01*
X173653377Y-75965373D01*
X173713165Y-75834457D01*
X173733647Y-75692000D01*
X173713165Y-75549543D01*
X173653377Y-75418627D01*
X173559128Y-75309857D01*
X173438053Y-75232047D01*
X173438051Y-75232046D01*
X173438049Y-75232045D01*
X173438050Y-75232045D01*
X173299963Y-75191500D01*
X173299961Y-75191500D01*
X173156039Y-75191500D01*
X173156036Y-75191500D01*
X173017949Y-75232045D01*
X172896873Y-75309856D01*
X172802623Y-75418626D01*
X172802622Y-75418628D01*
X172742834Y-75549543D01*
X172722353Y-75692000D01*
X172463647Y-75692000D01*
X172443165Y-75549543D01*
X172383377Y-75418627D01*
X172289128Y-75309857D01*
X172168053Y-75232047D01*
X172168051Y-75232046D01*
X172168049Y-75232045D01*
X172168050Y-75232045D01*
X172029963Y-75191500D01*
X172029961Y-75191500D01*
X171886039Y-75191500D01*
X171886036Y-75191500D01*
X171747949Y-75232045D01*
X171626873Y-75309856D01*
X171532623Y-75418626D01*
X171532622Y-75418628D01*
X171472834Y-75549543D01*
X171452353Y-75692000D01*
X171193647Y-75692000D01*
X171173165Y-75549543D01*
X171113377Y-75418627D01*
X171019128Y-75309857D01*
X170898053Y-75232047D01*
X170898051Y-75232046D01*
X170898049Y-75232045D01*
X170898050Y-75232045D01*
X170759963Y-75191500D01*
X170759961Y-75191500D01*
X170616039Y-75191500D01*
X170616036Y-75191500D01*
X170477949Y-75232045D01*
X170356873Y-75309856D01*
X170262623Y-75418626D01*
X170262622Y-75418628D01*
X170202834Y-75549543D01*
X170182353Y-75692000D01*
X169923647Y-75692000D01*
X169903165Y-75549543D01*
X169843377Y-75418627D01*
X169749128Y-75309857D01*
X169628053Y-75232047D01*
X169628051Y-75232046D01*
X169628049Y-75232045D01*
X169628050Y-75232045D01*
X169489963Y-75191500D01*
X169489961Y-75191500D01*
X169346039Y-75191500D01*
X169346036Y-75191500D01*
X169207949Y-75232045D01*
X169086873Y-75309856D01*
X168992623Y-75418626D01*
X168992622Y-75418628D01*
X168932834Y-75549543D01*
X168912353Y-75692000D01*
X168653647Y-75692000D01*
X168633165Y-75549543D01*
X168573377Y-75418627D01*
X168479128Y-75309857D01*
X168358053Y-75232047D01*
X168358051Y-75232046D01*
X168358049Y-75232045D01*
X168358050Y-75232045D01*
X168219963Y-75191500D01*
X168219961Y-75191500D01*
X168076039Y-75191500D01*
X168076036Y-75191500D01*
X167937949Y-75232045D01*
X167816873Y-75309856D01*
X167722623Y-75418626D01*
X167722622Y-75418628D01*
X167662834Y-75549543D01*
X167642353Y-75692000D01*
X167383647Y-75692000D01*
X167363165Y-75549543D01*
X167303377Y-75418627D01*
X167209128Y-75309857D01*
X167088053Y-75232047D01*
X167088051Y-75232046D01*
X167088049Y-75232045D01*
X167088050Y-75232045D01*
X166949963Y-75191500D01*
X166949961Y-75191500D01*
X166806039Y-75191500D01*
X166806036Y-75191500D01*
X166667949Y-75232045D01*
X166546873Y-75309856D01*
X166452623Y-75418626D01*
X166452622Y-75418628D01*
X166392834Y-75549543D01*
X166372353Y-75692000D01*
X166113647Y-75692000D01*
X166093165Y-75549543D01*
X166033377Y-75418627D01*
X165939128Y-75309857D01*
X165818053Y-75232047D01*
X165818051Y-75232046D01*
X165818049Y-75232045D01*
X165818050Y-75232045D01*
X165679963Y-75191500D01*
X165679961Y-75191500D01*
X165536039Y-75191500D01*
X165536036Y-75191500D01*
X165397949Y-75232045D01*
X165276873Y-75309856D01*
X165182623Y-75418626D01*
X165182622Y-75418628D01*
X165122834Y-75549543D01*
X165102353Y-75692000D01*
X148259139Y-75692000D01*
X148606032Y-75058509D01*
X148647998Y-75013595D01*
X149573379Y-74422000D01*
X174500353Y-74422000D01*
X174520834Y-74564456D01*
X174574290Y-74681506D01*
X174580623Y-74695373D01*
X174674872Y-74804143D01*
X174795947Y-74881953D01*
X174795950Y-74881954D01*
X174795949Y-74881954D01*
X174934036Y-74922499D01*
X174934038Y-74922500D01*
X174934039Y-74922500D01*
X175077962Y-74922500D01*
X175077962Y-74922499D01*
X175216053Y-74881953D01*
X175337128Y-74804143D01*
X175431377Y-74695373D01*
X175491165Y-74564457D01*
X175511647Y-74422000D01*
X175491165Y-74279543D01*
X175431377Y-74148627D01*
X175337128Y-74039857D01*
X175216053Y-73962047D01*
X175216051Y-73962046D01*
X175216049Y-73962045D01*
X175216050Y-73962045D01*
X175077963Y-73921500D01*
X175077961Y-73921500D01*
X174934039Y-73921500D01*
X174934036Y-73921500D01*
X174795949Y-73962045D01*
X174674873Y-74039856D01*
X174580623Y-74148626D01*
X174580622Y-74148628D01*
X174520834Y-74279543D01*
X174500353Y-74422000D01*
X149573379Y-74422000D01*
X149946730Y-74183317D01*
X150034494Y-74120426D01*
X150328141Y-73909999D01*
X150758434Y-73601652D01*
X150758438Y-73601648D01*
X150758446Y-73601643D01*
X150978786Y-73425371D01*
X151247566Y-73210348D01*
X151275609Y-73152000D01*
X174500353Y-73152000D01*
X174520834Y-73294456D01*
X174526626Y-73307138D01*
X174580623Y-73425373D01*
X174674872Y-73534143D01*
X174795947Y-73611953D01*
X174795950Y-73611954D01*
X174795949Y-73611954D01*
X174934036Y-73652499D01*
X174934038Y-73652500D01*
X174934039Y-73652500D01*
X175077962Y-73652500D01*
X175077962Y-73652499D01*
X175216053Y-73611953D01*
X175337128Y-73534143D01*
X175431377Y-73425373D01*
X175491165Y-73294457D01*
X175511647Y-73152000D01*
X175491165Y-73009543D01*
X175431377Y-72878627D01*
X175337128Y-72769857D01*
X175216053Y-72692047D01*
X175216051Y-72692046D01*
X175216049Y-72692045D01*
X175216050Y-72692045D01*
X175077963Y-72651500D01*
X175077961Y-72651500D01*
X174934039Y-72651500D01*
X174934036Y-72651500D01*
X174795949Y-72692045D01*
X174674873Y-72769856D01*
X174580623Y-72878626D01*
X174580622Y-72878628D01*
X174520834Y-73009543D01*
X174500353Y-73152000D01*
X151275609Y-73152000D01*
X151638000Y-72398000D01*
X151638000Y-71460500D01*
X155958353Y-71460500D01*
X155978834Y-71602956D01*
X156038622Y-71733871D01*
X156038623Y-71733873D01*
X156132872Y-71842643D01*
X156253947Y-71920453D01*
X156253950Y-71920454D01*
X156253949Y-71920454D01*
X156392036Y-71960999D01*
X156392038Y-71961000D01*
X156392039Y-71961000D01*
X156535962Y-71961000D01*
X156535962Y-71960999D01*
X156674053Y-71920453D01*
X156733887Y-71882000D01*
X174500353Y-71882000D01*
X174520834Y-72024456D01*
X174574290Y-72141506D01*
X174580623Y-72155373D01*
X174674872Y-72264143D01*
X174795947Y-72341953D01*
X174795950Y-72341954D01*
X174795949Y-72341954D01*
X174934036Y-72382499D01*
X174934038Y-72382500D01*
X174934039Y-72382500D01*
X175077962Y-72382500D01*
X175077962Y-72382499D01*
X175216053Y-72341953D01*
X175337128Y-72264143D01*
X175431377Y-72155373D01*
X175491165Y-72024457D01*
X175511647Y-71882000D01*
X175491165Y-71739543D01*
X175431377Y-71608627D01*
X175337128Y-71499857D01*
X175216053Y-71422047D01*
X175216051Y-71422046D01*
X175216049Y-71422045D01*
X175216050Y-71422045D01*
X175077963Y-71381500D01*
X175077961Y-71381500D01*
X174934039Y-71381500D01*
X174934036Y-71381500D01*
X174795949Y-71422045D01*
X174674873Y-71499856D01*
X174580623Y-71608626D01*
X174580622Y-71608628D01*
X174520834Y-71739543D01*
X174500353Y-71882000D01*
X156733887Y-71882000D01*
X156795128Y-71842643D01*
X156889377Y-71733873D01*
X156949165Y-71602957D01*
X156969647Y-71460500D01*
X156949165Y-71318043D01*
X156889377Y-71187127D01*
X156795128Y-71078357D01*
X156674053Y-71000547D01*
X156674051Y-71000546D01*
X156674049Y-71000545D01*
X156674050Y-71000545D01*
X156535963Y-70960000D01*
X156535961Y-70960000D01*
X156392039Y-70960000D01*
X156392036Y-70960000D01*
X156253949Y-71000545D01*
X156132873Y-71078356D01*
X156038623Y-71187126D01*
X156038622Y-71187128D01*
X155978834Y-71318043D01*
X155958353Y-71460500D01*
X151638000Y-71460500D01*
X151638000Y-70779500D01*
X153639020Y-70779500D01*
X153659501Y-70921956D01*
X153695392Y-71000545D01*
X153719290Y-71052873D01*
X153813539Y-71161643D01*
X153934614Y-71239453D01*
X153934617Y-71239454D01*
X153934616Y-71239454D01*
X154072703Y-71279999D01*
X154072705Y-71280000D01*
X154072706Y-71280000D01*
X154216629Y-71280000D01*
X154216629Y-71279999D01*
X154354720Y-71239453D01*
X154475795Y-71161643D01*
X154570044Y-71052873D01*
X154629832Y-70921957D01*
X154650314Y-70779500D01*
X154629832Y-70637043D01*
X154570044Y-70506127D01*
X154475795Y-70397357D01*
X154354720Y-70319547D01*
X154354718Y-70319546D01*
X154354716Y-70319545D01*
X154354717Y-70319545D01*
X154216630Y-70279000D01*
X154216628Y-70279000D01*
X154072706Y-70279000D01*
X154072703Y-70279000D01*
X153934616Y-70319545D01*
X153813540Y-70397356D01*
X153719290Y-70506126D01*
X153719289Y-70506128D01*
X153659501Y-70637043D01*
X153639020Y-70779500D01*
X151638000Y-70779500D01*
X151638000Y-67924500D01*
X153354353Y-67924500D01*
X153374834Y-68066956D01*
X153434622Y-68197871D01*
X153434623Y-68197873D01*
X153528872Y-68306643D01*
X153649947Y-68384453D01*
X153649950Y-68384454D01*
X153649949Y-68384454D01*
X153788036Y-68424999D01*
X153788038Y-68425000D01*
X153788039Y-68425000D01*
X153931962Y-68425000D01*
X153931962Y-68424999D01*
X154070053Y-68384453D01*
X154191128Y-68306643D01*
X154285377Y-68197873D01*
X154345165Y-68066957D01*
X154365647Y-67924500D01*
X154365647Y-67924499D01*
X154365647Y-67922501D01*
X154366210Y-67920583D01*
X154366909Y-67915722D01*
X154367608Y-67915822D01*
X154385332Y-67855462D01*
X154438136Y-67809707D01*
X154455247Y-67804712D01*
X154454891Y-67803499D01*
X154601489Y-67760454D01*
X154601489Y-67760453D01*
X154601492Y-67760453D01*
X154722567Y-67682643D01*
X154816816Y-67573873D01*
X154876604Y-67442957D01*
X154897086Y-67300500D01*
X154876604Y-67158043D01*
X154816816Y-67027127D01*
X154722567Y-66918357D01*
X154601492Y-66840547D01*
X154601490Y-66840546D01*
X154601488Y-66840545D01*
X154601489Y-66840545D01*
X154481555Y-66805330D01*
X154422776Y-66767556D01*
X154393751Y-66704000D01*
X154393751Y-66700000D01*
X156694353Y-66700000D01*
X156714834Y-66842456D01*
X156772220Y-66968112D01*
X156774623Y-66973373D01*
X156868872Y-67082143D01*
X156989947Y-67159953D01*
X156989950Y-67159954D01*
X156989949Y-67159954D01*
X157128036Y-67200499D01*
X157128038Y-67200500D01*
X157128039Y-67200500D01*
X157271962Y-67200500D01*
X157271962Y-67200499D01*
X157410053Y-67159953D01*
X157531128Y-67082143D01*
X157625377Y-66973373D01*
X157685165Y-66842457D01*
X157705647Y-66700000D01*
X157685165Y-66557543D01*
X157625377Y-66426627D01*
X157609835Y-66408691D01*
X157580811Y-66345136D01*
X157590755Y-66275978D01*
X157636507Y-66223175D01*
X157656631Y-66210243D01*
X157750880Y-66101473D01*
X157810668Y-65970557D01*
X157831150Y-65828100D01*
X157810668Y-65685643D01*
X157770348Y-65597356D01*
X164129455Y-65597356D01*
X164150092Y-65754115D01*
X164150093Y-65754117D01*
X164210601Y-65900196D01*
X164306855Y-66025637D01*
X164432296Y-66121891D01*
X164432297Y-66121891D01*
X164432298Y-66121892D01*
X164476512Y-66140206D01*
X164560810Y-66175123D01*
X164615214Y-66218964D01*
X164637279Y-66285258D01*
X164620000Y-66352957D01*
X164568863Y-66400568D01*
X164560811Y-66404245D01*
X164437160Y-66455463D01*
X164311718Y-66551718D01*
X164215463Y-66677160D01*
X164154956Y-66823237D01*
X164154955Y-66823239D01*
X164134318Y-66979998D01*
X164134318Y-66980001D01*
X164154955Y-67136760D01*
X164154956Y-67136762D01*
X164215464Y-67282841D01*
X164311718Y-67408282D01*
X164437159Y-67504536D01*
X164528467Y-67542357D01*
X164584192Y-67565439D01*
X164638595Y-67609280D01*
X164660660Y-67675574D01*
X164643381Y-67743273D01*
X164592244Y-67790884D01*
X164584192Y-67794561D01*
X164583238Y-67794955D01*
X164583238Y-67794956D01*
X164559685Y-67804712D01*
X164437160Y-67855463D01*
X164311718Y-67951718D01*
X164215463Y-68077160D01*
X164154956Y-68223237D01*
X164154955Y-68223239D01*
X164134318Y-68379998D01*
X164134318Y-68380001D01*
X164154955Y-68536760D01*
X164154956Y-68536762D01*
X164215464Y-68682841D01*
X164311718Y-68808282D01*
X164437159Y-68904536D01*
X164583238Y-68965044D01*
X164661619Y-68975363D01*
X164739999Y-68985682D01*
X164740000Y-68985682D01*
X164740001Y-68985682D01*
X164792254Y-68978802D01*
X164896762Y-68965044D01*
X165042841Y-68904536D01*
X165168282Y-68808282D01*
X165264536Y-68682841D01*
X165325044Y-68536762D01*
X165325044Y-68536761D01*
X165325439Y-68535808D01*
X165369280Y-68481404D01*
X165435574Y-68459339D01*
X165503273Y-68476618D01*
X165550884Y-68527755D01*
X165554561Y-68535808D01*
X165615462Y-68682838D01*
X165615463Y-68682839D01*
X165615464Y-68682841D01*
X165711718Y-68808282D01*
X165837159Y-68904536D01*
X165983238Y-68965044D01*
X166061619Y-68975363D01*
X166139999Y-68985682D01*
X166140000Y-68985682D01*
X166140001Y-68985682D01*
X166192254Y-68978802D01*
X166296762Y-68965044D01*
X166442841Y-68904536D01*
X166568282Y-68808282D01*
X166664536Y-68682841D01*
X166725044Y-68536762D01*
X166725044Y-68536761D01*
X166725439Y-68535808D01*
X166769280Y-68481404D01*
X166835574Y-68459339D01*
X166903273Y-68476618D01*
X166950884Y-68527755D01*
X166954561Y-68535808D01*
X167015462Y-68682838D01*
X167015463Y-68682839D01*
X167015464Y-68682841D01*
X167111718Y-68808282D01*
X167237159Y-68904536D01*
X167383238Y-68965044D01*
X167461619Y-68975363D01*
X167539999Y-68985682D01*
X167540000Y-68985682D01*
X167540001Y-68985682D01*
X167592254Y-68978802D01*
X167696762Y-68965044D01*
X167842841Y-68904536D01*
X167968282Y-68808282D01*
X168064536Y-68682841D01*
X168125044Y-68536762D01*
X168145682Y-68380000D01*
X168125044Y-68223238D01*
X168064536Y-68077159D01*
X167968282Y-67951718D01*
X167842841Y-67855464D01*
X167842840Y-67855463D01*
X167842838Y-67855462D01*
X167695808Y-67794561D01*
X167641404Y-67750720D01*
X167619339Y-67684426D01*
X167636618Y-67616727D01*
X167687755Y-67569116D01*
X167695808Y-67565439D01*
X167751533Y-67542357D01*
X167842841Y-67504536D01*
X167968282Y-67408282D01*
X168064536Y-67282841D01*
X168125044Y-67136762D01*
X168145682Y-66980000D01*
X168144809Y-66973371D01*
X168126230Y-66832244D01*
X168125044Y-66823238D01*
X168064536Y-66677159D01*
X167968282Y-66551718D01*
X167842841Y-66455464D01*
X167842840Y-66455463D01*
X167842838Y-66455462D01*
X167714325Y-66402231D01*
X167696762Y-66394956D01*
X167696761Y-66394955D01*
X167695808Y-66394561D01*
X167641404Y-66350720D01*
X167619339Y-66284426D01*
X167636618Y-66216727D01*
X167687755Y-66169116D01*
X167695808Y-66165439D01*
X167734537Y-66149397D01*
X167842841Y-66104536D01*
X167968282Y-66008282D01*
X168064536Y-65882841D01*
X168125044Y-65736762D01*
X168143397Y-65597355D01*
X168145682Y-65580001D01*
X168145682Y-65579998D01*
X168126230Y-65432244D01*
X168125044Y-65423238D01*
X168064536Y-65277159D01*
X167968282Y-65151718D01*
X167842841Y-65055464D01*
X167696762Y-64994956D01*
X167696760Y-64994955D01*
X167540001Y-64974318D01*
X167539999Y-64974318D01*
X167383239Y-64994955D01*
X167383237Y-64994956D01*
X167237160Y-65055463D01*
X167111718Y-65151718D01*
X167015463Y-65277160D01*
X166981150Y-65360000D01*
X166954957Y-65423237D01*
X166954561Y-65424192D01*
X166910720Y-65478595D01*
X166844426Y-65500660D01*
X166776727Y-65483381D01*
X166729116Y-65432244D01*
X166725439Y-65424192D01*
X166725044Y-65423238D01*
X166664536Y-65277159D01*
X166568282Y-65151718D01*
X166442841Y-65055464D01*
X166296762Y-64994956D01*
X166296760Y-64994955D01*
X166140001Y-64974318D01*
X166139999Y-64974318D01*
X165983239Y-64994955D01*
X165983237Y-64994956D01*
X165837160Y-65055463D01*
X165711718Y-65151718D01*
X165615463Y-65277160D01*
X165554955Y-65423239D01*
X165554458Y-65425097D01*
X165553610Y-65426487D01*
X165551846Y-65430747D01*
X165551181Y-65430471D01*
X165518091Y-65484756D01*
X165455244Y-65515284D01*
X165385868Y-65506987D01*
X165331992Y-65462500D01*
X165320123Y-65440453D01*
X165293477Y-65376124D01*
X165259673Y-65294514D01*
X165163419Y-65169073D01*
X165037978Y-65072819D01*
X165006919Y-65059954D01*
X164891899Y-65012311D01*
X164891897Y-65012310D01*
X164735138Y-64991673D01*
X164735136Y-64991673D01*
X164578376Y-65012310D01*
X164578374Y-65012311D01*
X164432297Y-65072818D01*
X164306855Y-65169073D01*
X164210600Y-65294515D01*
X164150093Y-65440592D01*
X164150092Y-65440594D01*
X164129455Y-65597353D01*
X164129455Y-65597356D01*
X157770348Y-65597356D01*
X157750880Y-65554727D01*
X157656631Y-65445957D01*
X157535556Y-65368147D01*
X157535554Y-65368146D01*
X157535552Y-65368145D01*
X157535553Y-65368145D01*
X157397466Y-65327600D01*
X157397464Y-65327600D01*
X157253542Y-65327600D01*
X157253539Y-65327600D01*
X157115452Y-65368145D01*
X156994376Y-65445956D01*
X156900126Y-65554726D01*
X156900125Y-65554728D01*
X156840337Y-65685643D01*
X156819856Y-65828100D01*
X156840337Y-65970556D01*
X156900125Y-66101471D01*
X156900126Y-66101473D01*
X156915666Y-66119407D01*
X156944691Y-66182963D01*
X156934747Y-66252122D01*
X156888995Y-66304924D01*
X156868873Y-66317855D01*
X156774623Y-66426626D01*
X156774622Y-66426628D01*
X156714834Y-66557543D01*
X156694353Y-66700000D01*
X154393751Y-66700000D01*
X154393751Y-66668707D01*
X154404842Y-66591566D01*
X154433865Y-66528013D01*
X154492643Y-66490238D01*
X154562514Y-66490238D01*
X154621098Y-66507440D01*
X154621099Y-66507440D01*
X154765022Y-66507440D01*
X154765022Y-66507439D01*
X154903113Y-66466893D01*
X155024188Y-66389083D01*
X155118437Y-66280313D01*
X155178225Y-66149397D01*
X155198707Y-66006940D01*
X155178225Y-65864483D01*
X155118437Y-65733567D01*
X155024188Y-65624797D01*
X154903113Y-65546987D01*
X154903111Y-65546986D01*
X154903109Y-65546985D01*
X154903110Y-65546985D01*
X154765023Y-65506440D01*
X154765021Y-65506440D01*
X154621099Y-65506440D01*
X154621096Y-65506440D01*
X154483009Y-65546985D01*
X154361933Y-65624796D01*
X154267683Y-65733566D01*
X154267682Y-65733568D01*
X154207894Y-65864483D01*
X154188218Y-66001340D01*
X154159193Y-66064896D01*
X154100415Y-66102670D01*
X154030546Y-66102670D01*
X153971964Y-66085469D01*
X153971961Y-66085469D01*
X153828039Y-66085469D01*
X153828036Y-66085469D01*
X153689949Y-66126014D01*
X153568873Y-66203825D01*
X153474623Y-66312595D01*
X153474622Y-66312597D01*
X153414834Y-66443512D01*
X153394353Y-66585969D01*
X153414834Y-66728425D01*
X153466911Y-66842456D01*
X153474623Y-66859342D01*
X153568872Y-66968112D01*
X153689947Y-67045922D01*
X153689950Y-67045923D01*
X153689949Y-67045923D01*
X153809883Y-67081138D01*
X153868661Y-67118911D01*
X153897687Y-67182467D01*
X153897687Y-67217761D01*
X153885792Y-67300498D01*
X153885792Y-67302498D01*
X153885228Y-67304415D01*
X153884530Y-67309277D01*
X153883830Y-67309176D01*
X153866107Y-67369537D01*
X153813303Y-67415292D01*
X153796205Y-67420333D01*
X153796548Y-67421501D01*
X153649949Y-67464545D01*
X153528873Y-67542356D01*
X153434623Y-67651126D01*
X153434622Y-67651128D01*
X153374834Y-67782043D01*
X153354353Y-67924500D01*
X151638000Y-67924500D01*
X151638000Y-65360000D01*
X151638000Y-64600000D01*
X155694353Y-64600000D01*
X155714834Y-64742456D01*
X155742451Y-64802927D01*
X155774623Y-64873373D01*
X155868872Y-64982143D01*
X155989947Y-65059953D01*
X155989950Y-65059954D01*
X155989949Y-65059954D01*
X156128036Y-65100499D01*
X156128038Y-65100500D01*
X156128039Y-65100500D01*
X156271962Y-65100500D01*
X156271962Y-65100499D01*
X156410053Y-65059953D01*
X156531128Y-64982143D01*
X156625377Y-64873373D01*
X156685165Y-64742457D01*
X156697600Y-64655963D01*
X156726624Y-64592409D01*
X156785402Y-64554634D01*
X156855272Y-64554634D01*
X156886609Y-64563835D01*
X156928038Y-64576000D01*
X156928039Y-64576000D01*
X157071962Y-64576000D01*
X157071962Y-64575999D01*
X157210053Y-64535453D01*
X157331128Y-64457643D01*
X157425377Y-64348873D01*
X157485165Y-64217957D01*
X157505647Y-64075500D01*
X157485165Y-63933043D01*
X157472183Y-63904617D01*
X157462240Y-63835463D01*
X157491264Y-63771906D01*
X157550042Y-63734131D01*
X157619910Y-63734130D01*
X157619912Y-63734130D01*
X157619913Y-63734131D01*
X157662038Y-63746500D01*
X157662039Y-63746500D01*
X157805962Y-63746500D01*
X157805962Y-63746499D01*
X157944053Y-63705953D01*
X158065128Y-63628143D01*
X158159377Y-63519373D01*
X158204759Y-63420001D01*
X174334318Y-63420001D01*
X174354955Y-63576760D01*
X174354956Y-63576762D01*
X174415464Y-63722841D01*
X174511718Y-63848282D01*
X174637159Y-63944536D01*
X174783238Y-64005044D01*
X174861619Y-64015363D01*
X174939999Y-64025682D01*
X174940000Y-64025682D01*
X174940001Y-64025682D01*
X174992254Y-64018802D01*
X175096762Y-64005044D01*
X175242841Y-63944536D01*
X175368282Y-63848282D01*
X175464536Y-63722841D01*
X175525044Y-63576762D01*
X175545682Y-63420000D01*
X175525044Y-63263238D01*
X175464536Y-63117159D01*
X175368282Y-62991718D01*
X175242841Y-62895464D01*
X175166694Y-62863923D01*
X175096762Y-62834956D01*
X175096760Y-62834955D01*
X174940001Y-62814318D01*
X174939999Y-62814318D01*
X174783239Y-62834955D01*
X174783237Y-62834956D01*
X174637160Y-62895463D01*
X174511718Y-62991718D01*
X174415463Y-63117160D01*
X174354956Y-63263237D01*
X174354955Y-63263239D01*
X174334318Y-63419998D01*
X174334318Y-63420001D01*
X158204759Y-63420001D01*
X158219165Y-63388457D01*
X158239647Y-63246000D01*
X158219165Y-63103543D01*
X158159377Y-62972627D01*
X158065128Y-62863857D01*
X157944053Y-62786047D01*
X157944051Y-62786046D01*
X157944049Y-62786045D01*
X157944050Y-62786045D01*
X157805963Y-62745500D01*
X157805961Y-62745500D01*
X157662039Y-62745500D01*
X157662036Y-62745500D01*
X157523949Y-62786045D01*
X157402873Y-62863856D01*
X157308623Y-62972626D01*
X157308622Y-62972628D01*
X157248834Y-63103543D01*
X157228353Y-63246000D01*
X157248834Y-63388456D01*
X157261815Y-63416879D01*
X157271759Y-63486038D01*
X157242734Y-63549594D01*
X157183956Y-63587368D01*
X157114088Y-63587369D01*
X157071961Y-63575000D01*
X156928039Y-63575000D01*
X156928036Y-63575000D01*
X156789949Y-63615545D01*
X156668873Y-63693356D01*
X156574623Y-63802126D01*
X156574622Y-63802128D01*
X156514834Y-63933043D01*
X156502399Y-64019535D01*
X156473374Y-64083091D01*
X156414596Y-64120865D01*
X156344727Y-64120865D01*
X156271963Y-64099500D01*
X156271961Y-64099500D01*
X156128039Y-64099500D01*
X156128036Y-64099500D01*
X155989949Y-64140045D01*
X155868873Y-64217856D01*
X155774623Y-64326626D01*
X155774622Y-64326628D01*
X155714834Y-64457543D01*
X155694353Y-64600000D01*
X151638000Y-64600000D01*
X151638000Y-64360000D01*
X151638000Y-62300000D01*
X159594353Y-62300000D01*
X159614834Y-62442456D01*
X159657755Y-62536438D01*
X159674623Y-62573373D01*
X159768872Y-62682143D01*
X159889947Y-62759953D01*
X159889950Y-62759954D01*
X159889949Y-62759954D01*
X160028036Y-62800499D01*
X160028038Y-62800500D01*
X160028039Y-62800500D01*
X160171962Y-62800500D01*
X160171962Y-62800499D01*
X160310053Y-62759953D01*
X160431128Y-62682143D01*
X160525377Y-62573373D01*
X160585165Y-62442457D01*
X160605647Y-62300000D01*
X160585165Y-62157543D01*
X160525377Y-62026627D01*
X160431128Y-61917857D01*
X160310053Y-61840047D01*
X160310051Y-61840046D01*
X160310049Y-61840045D01*
X160310050Y-61840045D01*
X160171963Y-61799500D01*
X160171961Y-61799500D01*
X160028039Y-61799500D01*
X160028036Y-61799500D01*
X159889949Y-61840045D01*
X159768873Y-61917856D01*
X159674623Y-62026626D01*
X159674622Y-62026628D01*
X159614834Y-62157543D01*
X159594353Y-62300000D01*
X151638000Y-62300000D01*
X151638000Y-61574250D01*
X174620103Y-61574250D01*
X174640584Y-61716706D01*
X174696912Y-61840045D01*
X174700373Y-61847623D01*
X174794622Y-61956393D01*
X174915697Y-62034203D01*
X174915700Y-62034204D01*
X174915699Y-62034204D01*
X175053786Y-62074749D01*
X175053788Y-62074750D01*
X175053789Y-62074750D01*
X175197712Y-62074750D01*
X175197712Y-62074749D01*
X175335803Y-62034203D01*
X175456878Y-61956393D01*
X175551127Y-61847623D01*
X175610915Y-61716707D01*
X175631397Y-61574250D01*
X175610915Y-61431793D01*
X175551127Y-61300877D01*
X175456878Y-61192107D01*
X175335803Y-61114297D01*
X175335801Y-61114296D01*
X175335799Y-61114295D01*
X175335800Y-61114295D01*
X175197713Y-61073750D01*
X175197711Y-61073750D01*
X175053789Y-61073750D01*
X175053786Y-61073750D01*
X174915699Y-61114295D01*
X174794623Y-61192106D01*
X174700373Y-61300876D01*
X174700372Y-61300878D01*
X174640584Y-61431793D01*
X174620103Y-61574250D01*
X151638000Y-61574250D01*
X151638000Y-59700000D01*
X159694353Y-59700000D01*
X159714834Y-59842456D01*
X159755043Y-59930500D01*
X159774623Y-59973373D01*
X159868872Y-60082143D01*
X159989947Y-60159953D01*
X159989950Y-60159954D01*
X159989949Y-60159954D01*
X160128036Y-60200499D01*
X160128038Y-60200500D01*
X160128039Y-60200500D01*
X160271962Y-60200500D01*
X160271962Y-60200499D01*
X160410053Y-60159953D01*
X160531128Y-60082143D01*
X160625377Y-59973373D01*
X160644957Y-59930500D01*
X172976353Y-59930500D01*
X172996834Y-60072956D01*
X173056622Y-60203871D01*
X173056623Y-60203873D01*
X173150872Y-60312643D01*
X173271947Y-60390453D01*
X173271950Y-60390454D01*
X173271949Y-60390454D01*
X173410036Y-60430999D01*
X173410038Y-60431000D01*
X173410039Y-60431000D01*
X173553962Y-60431000D01*
X173553962Y-60430999D01*
X173661121Y-60399535D01*
X173692050Y-60390454D01*
X173692050Y-60390453D01*
X173692053Y-60390453D01*
X173813128Y-60312643D01*
X173907377Y-60203873D01*
X173967165Y-60072957D01*
X173987647Y-59930500D01*
X173967165Y-59788043D01*
X173907377Y-59657127D01*
X173813128Y-59548357D01*
X173692053Y-59470547D01*
X173692051Y-59470546D01*
X173692049Y-59470545D01*
X173692050Y-59470545D01*
X173553963Y-59430000D01*
X173553961Y-59430000D01*
X173410039Y-59430000D01*
X173410036Y-59430000D01*
X173271949Y-59470545D01*
X173150873Y-59548356D01*
X173056623Y-59657126D01*
X173056622Y-59657128D01*
X172996834Y-59788043D01*
X172976353Y-59930500D01*
X160644957Y-59930500D01*
X160685165Y-59842457D01*
X160705647Y-59700000D01*
X160685165Y-59557543D01*
X160625377Y-59426627D01*
X160531128Y-59317857D01*
X160410053Y-59240047D01*
X160410051Y-59240046D01*
X160410049Y-59240045D01*
X160410050Y-59240045D01*
X160273669Y-59200001D01*
X174194318Y-59200001D01*
X174214955Y-59356760D01*
X174214956Y-59356762D01*
X174262086Y-59470545D01*
X174275464Y-59502841D01*
X174371718Y-59628282D01*
X174497159Y-59724536D01*
X174643238Y-59785044D01*
X174666018Y-59788043D01*
X174799999Y-59805682D01*
X174800000Y-59805682D01*
X174800001Y-59805682D01*
X174852254Y-59798802D01*
X174956762Y-59785044D01*
X175102841Y-59724536D01*
X175228282Y-59628282D01*
X175324536Y-59502841D01*
X175385044Y-59356762D01*
X175405682Y-59200000D01*
X175403617Y-59184318D01*
X175385044Y-59043239D01*
X175385044Y-59043238D01*
X175324536Y-58897159D01*
X175228282Y-58771718D01*
X175102841Y-58675464D01*
X174956762Y-58614956D01*
X174956760Y-58614955D01*
X174800001Y-58594318D01*
X174799999Y-58594318D01*
X174643239Y-58614955D01*
X174643237Y-58614956D01*
X174497160Y-58675463D01*
X174371718Y-58771718D01*
X174275463Y-58897160D01*
X174214956Y-59043237D01*
X174214955Y-59043239D01*
X174194318Y-59199998D01*
X174194318Y-59200001D01*
X160273669Y-59200001D01*
X160271963Y-59199500D01*
X160271961Y-59199500D01*
X160128039Y-59199500D01*
X160128036Y-59199500D01*
X159989949Y-59240045D01*
X159868873Y-59317856D01*
X159774623Y-59426626D01*
X159774622Y-59426628D01*
X159714834Y-59557543D01*
X159694353Y-59700000D01*
X151638000Y-59700000D01*
X151638000Y-59116000D01*
X151638000Y-58232000D01*
X151638000Y-57914000D01*
X151657685Y-57846961D01*
X151710489Y-57801206D01*
X151762000Y-57790000D01*
X154640000Y-57790000D01*
X155639999Y-57788986D01*
X156346946Y-57787552D01*
X157346945Y-57786389D01*
X176601915Y-57780647D01*
X177601914Y-57781335D01*
G37*
%TD.AperFunction*%
%TD*%
M02*
