#VRML V2.0 utf8
# 3D model generated by easyeda2kicad.py (https://github.com/uPesy/easyeda2kicad.py)

Shape{
    appearance Appearance {
        material  Material 	{
            diffuseColor 0.6470588235294118 0.6196078431372549 0.5882352941176471
            specularColor 0.45098039215686275 0.43529411764705883 0.4117647058823529
            ambientIntensity 0.2
            transparency 0
            shininess 0.5
        }
    }
    geometry IndexedFaceSet {
        ccw TRUE
        solid FALSE
        coord DEF co Coordinate {
            point [
                -1.4321 -0.1575 0.2165, -1.4321 -0.4232 0.2165, -1.3712 -0.1575 0.2165, -1.3712 -0.4232 0.2165, -1.4321 0.1575 0.2165, -1.4321 0.4232 0.2165, -1.4173 0.1575 0.1575, -1.378 0.4232 0.0, -1.4173 -0.1575 0.1575, -1.378 -0.4232 0.0, -1.3712 0.1575 0.2165, -1.3712 0.4232 0.2165, -1.3565 -0.1575 0.1575, -1.3318 -0.4232 0.0591, -1.3565 0.1575 0.1575, -1.3318 0.4232 0.0591, -0.8612 0.4232 0.0591, -0.8612 -0.4232 0.0591, -0.8465 0.4232 -0.0, -0.8465 -0.4232 -0.0, 1.3712 -0.1575 0.2165, 1.3712 -0.4232 0.2165, 1.4321 -0.1575 0.2165, 1.4321 -0.4232 0.2165, 1.3318 0.4232 0.0591, 0.8612 0.4232 0.0591, 1.3318 -0.4232 0.0591, 0.8612 -0.4232 0.0591, 1.3712 0.1575 0.2165, 1.3712 0.4232 0.2165, 1.3565 0.1575 0.1575, 1.3565 -0.1575 0.1575, 1.4321 0.1575 0.2165, 1.4321 0.4232 0.2165, 1.4173 -0.1575 0.1575, 1.378 -0.4232 0.0, 1.4173 0.1575 0.1575, 1.378 0.4232 0.0, 0.8465 0.4232 0.0, 0.8465 -0.4232 0.0, 0.8465 -0.4232 0.0
            ]
        }
        coordIndex [
            0,1,2,-1,2,1,3,-1,4,5,6,-1,6,5,7,-1,6,7,8,-1,8,7,9,-1,8,9,0,-1,0,9,1,-1,10,11,4,-1,4,11,5,-1,2,3,12,-1,12,3,13,-1,12,13,14,-1,14,13,15,-1,14,15,10,-1,10,15,11,-1,16,15,17,-1,17,15,13,-1,18,16,19,-1,19,16,17,-1,7,18,9,-1,9,18,19,-1,16,18,15,-1,15,18,7,-1,15,7,11,-1,11,7,5,-1,3,1,13,-1,13,1,9,-1,13,9,17,-1,17,9,19,-1,14,6,12,-1,12,6,8,-1,12,8,2,-1,2,8,0,-1,10,4,14,-1,14,4,6,-1,20,21,22,-1,22,21,23,-1,24,25,26,-1,26,25,27,-1,28,29,30,-1,30,29,24,-1,30,24,31,-1,31,24,26,-1,31,26,20,-1,20,26,21,-1,32,33,28,-1,28,33,29,-1,22,23,34,-1,34,23,35,-1,34,35,36,-1,36,35,37,-1,36,37,32,-1,32,37,33,-1,38,37,39,-1,39,37,35,-1,25,38,27,-1,27,38,39,-1,29,33,24,-1,24,33,37,-1,24,37,25,-1,25,37,38,-1,27,39,26,-1,26,39,35,-1,26,35,21,-1,21,35,23,-1,36,30,34,-1,34,30,31,-1,34,31,22,-1,22,31,20,-1,32,28,36,-1,36,28,30,-1,
        ]
    }
}
Shape{
    appearance Appearance {
        material  Material 	{
            diffuseColor 0.2235294117647059 0.2235294117647059 0.2235294117647059
            specularColor 0.09019607843137255 0.09019607843137255 0.09019607843137255
            ambientIntensity 0.2
            transparency 0
            shininess 0.5
        }
    }
    geometry IndexedFaceSet {
        ccw TRUE
        solid FALSE
        coord DEF co Coordinate {
            point [
                -0.8954 -0.2353 0.748, -1.3583 -0.7677 0.748, -0.8378 -0.2353 0.748, 1.3583 -0.7677 0.748, -0.8378 -0.0697 0.748, -0.8954 -0.0697 0.748, -1.0611 -0.0697 0.748, -1.3583 0.7677 0.748, -1.0611 -0.012 0.748, -0.8954 -0.012 0.748, -0.8954 0.1536 0.748, -0.8378 0.1536 0.748, 1.3583 0.7677 0.748, -0.8378 -0.012 0.748, -0.6722 -0.012 0.748, -0.6722 -0.0697 0.748, -0.8465 0.4331 0.0, -1.378 0.4331 0.0, -1.378 0.7874 0.0, -0.1143 -0.065 0.0, -0.1007 -0.0613 0.0, -0.0776 -0.0645 0.0, -0.0171 -0.0516 0.0, -0.0618 -0.0516 0.0, -0.0618 -0.0127 0.0, -0.1283 -0.053 0.0, -0.1028 0.0357 0.0, -0.114 -0.0511 0.0, -0.1007 0.0345 0.0, -0.1007 -0.0455 0.0, -0.118 -0.0653 0.0, -0.0027 -0.0653 0.0, -0.0171 -0.0645 0.0, -0.0618 0.0003 0.0, -0.0618 0.0406 0.0, -0.02 0.0003 0.0, -0.0142 0.0406 0.0, -0.02 -0.0127 0.0, -0.14 -0.0517 0.0, -0.1488 -0.0485 0.0, -0.1571 -0.0429 0.0, -0.1642 -0.035 0.0, -0.169 -0.0259 0.0, -0.1722 -0.0131 0.0, -0.1727 -0.0042 0.0, -0.1715 0.0086 0.0, -0.1683 0.0187 0.0, -0.131 0.0421 0.0, -0.1579 0.0327 0.0, -0.1419 0.0408 0.0, -0.1506 0.0376 0.0, -0.1634 0.0269 0.0, -0.1153 0.0403 0.0, -0.1823 -0.0335 0.0, -0.1752 -0.0447 0.0, -0.2433 -0.0645 0.0, -0.1649 -0.0546 0.0, -0.1539 -0.061 0.0, -0.0142 0.0536 0.0, -0.0027 0.7874 0.0, -0.0776 0.0536 0.0, -0.1409 -0.0649 0.0, -0.1368 -0.0653 0.0, -0.2591 -0.0645 0.0, -0.2433 0.0406 0.0, -0.1885 -0.0033 0.0, -0.1868 -0.02 0.0, -0.1592 0.0496 0.0, -0.1688 0.0434 0.0, -0.1986 0.0536 0.0, -0.1774 0.0343 0.0, -0.1986 0.0406 0.0, -0.1837 0.0232 0.0, -0.1874 0.0105 0.0, -0.8465 -0.0653 0.0, -0.2591 0.0536 0.0, -0.1007 0.0475 0.0, -0.1133 0.0526 0.0, -0.1299 0.055 0.0, -0.1332 0.055 0.0, -0.1477 0.0535 0.0, -0.8465 -0.4331 0.0, -0.0027 -0.7874 0.0, -1.378 -0.4331 0.0, -1.378 -0.7874 0.0, -0.1285 -0.066 0.0, 1.378 0.7874 0.0, 1.378 0.4331 0.0, 0.8465 0.4331 0.0, 0.1899 0.0204 0.0, 0.1411 0.0204 0.0, 0.2018 0.0536 0.0, 0.1298 0.0536 0.0, 0.8465 -0.0653 0.0, 0.173 -0.0645 0.0, 0.2191 0.0536 0.0, 0.1125 0.0536 0.0, 1.378 -0.4331 0.0, 1.378 -0.7874 0.0, 0.8465 -0.4331 0.0, 0.1572 -0.0645 0.0, 0.073 -0.0579 0.0, 0.0847 -0.0502 0.0, 0.0695 0.0481 0.0, 0.0559 0.0522 0.0, 0.0409 0.0536 0.0, 0.0088 0.0536 0.0, 0.098 0.0211 0.0, 0.0914 0.0316 0.0, 0.0817 0.0409 0.0, 0.0088 -0.0645 0.0, 0.0421 -0.0645 0.0, 0.0592 -0.0627 0.0, 0.0893 -0.046 0.0, 0.0964 -0.0367 0.0, 0.1014 -0.0253 0.0, 0.1036 -0.0128 0.0, 0.1039 -0.007 0.0, 0.1022 0.0088 0.0, -1.4321 -0.4331 0.2165, -1.437 -0.8465 0.2362, -1.4321 0.4331 0.2165, -1.437 0.8465 0.2362, 1.437 0.8465 0.2362, 1.437 0.8465 0.6299, 1.437 -0.8465 0.2362, 1.437 -0.8465 0.6299, -1.437 0.8465 0.6299, -1.437 -0.8465 0.6299, 1.4321 0.4331 0.2165, 1.4321 -0.4331 0.2165, -0.8612 -0.4331 0.0591, -0.8612 0.4331 0.0591, -1.3318 -0.4331 0.0591, -1.3318 0.4331 0.0591, -1.3712 -0.4331 0.2165, -1.3712 0.4331 0.2165, 1.3318 -0.4331 0.0591, 0.8612 -0.4331 0.0591, 1.3318 0.4331 0.0591, 0.8612 0.4331 0.0591, 1.3712 -0.4331 0.2165, 1.3712 0.4331 0.2165, 1.3712 0.4331 0.2165
            ]
        }
        coordIndex [
            0,1,2,-1,2,1,3,-1,2,3,4,-1,0,5,1,-1,1,5,6,-1,1,6,7,-1,7,6,8,-1,7,8,9,-1,9,10,7,-1,7,10,11,-1,7,11,12,-1,11,13,12,-1,12,13,14,-1,12,14,3,-1,3,14,15,-1,3,15,4,-1,16,17,18,-1,19,20,21,-1,22,23,24,-1,25,26,27,-1,27,26,28,-1,27,28,29,-1,19,21,30,-1,31,32,22,-1,33,34,35,-1,35,34,36,-1,35,36,37,-1,25,38,26,-1,26,38,39,-1,26,39,40,-1,40,41,26,-1,26,41,42,-1,26,42,43,-1,43,44,26,-1,26,44,45,-1,26,45,46,-1,47,48,49,-1,49,48,50,-1,46,51,26,-1,26,51,48,-1,26,48,52,-1,52,48,47,-1,53,54,55,-1,55,54,56,-1,55,56,57,-1,24,37,22,-1,22,37,36,-1,22,36,31,-1,31,36,58,-1,31,58,59,-1,59,58,60,-1,57,61,55,-1,55,61,62,-1,55,62,63,-1,64,65,55,-1,55,65,66,-1,55,66,53,-1,67,68,69,-1,69,68,70,-1,69,70,71,-1,71,70,72,-1,71,72,64,-1,64,72,73,-1,64,73,65,-1,74,16,75,-1,75,16,18,-1,75,18,69,-1,69,18,59,-1,69,59,67,-1,20,29,21,-1,21,29,28,-1,21,28,60,-1,60,28,76,-1,60,76,59,-1,59,76,77,-1,59,77,78,-1,78,79,59,-1,59,79,80,-1,59,80,67,-1,75,63,74,-1,74,63,62,-1,74,62,81,-1,81,62,82,-1,81,82,83,-1,83,82,84,-1,62,85,82,-1,82,85,30,-1,82,30,31,-1,31,30,21,-1,31,21,32,-1,86,87,88,-1,89,90,91,-1,91,90,92,-1,93,94,88,-1,88,94,95,-1,88,95,86,-1,95,91,86,-1,86,91,92,-1,86,92,59,-1,59,92,96,-1,97,98,99,-1,99,98,82,-1,99,82,93,-1,93,82,31,-1,93,31,94,-1,94,31,100,-1,100,101,102,-1,103,104,96,-1,96,104,105,-1,96,105,59,-1,59,105,106,-1,59,106,31,-1,107,108,96,-1,96,108,109,-1,96,109,103,-1,106,110,31,-1,31,110,111,-1,31,111,100,-1,100,111,112,-1,100,112,101,-1,102,113,100,-1,100,113,114,-1,100,114,115,-1,115,116,100,-1,100,116,117,-1,100,117,96,-1,96,117,118,-1,96,118,107,-1,83,84,119,-1,119,84,120,-1,119,120,121,-1,121,120,122,-1,121,122,17,-1,17,122,18,-1,123,124,125,-1,125,124,126,-1,122,127,123,-1,123,127,124,-1,120,128,122,-1,122,128,127,-1,125,126,120,-1,120,126,128,-1,127,7,124,-1,124,7,12,-1,128,1,127,-1,127,1,7,-1,3,126,12,-1,12,126,124,-1,126,3,128,-1,128,3,1,-1,98,125,82,-1,82,125,120,-1,82,120,84,-1,87,86,129,-1,129,86,123,-1,129,123,130,-1,130,123,125,-1,130,125,97,-1,97,125,98,-1,18,122,59,-1,59,122,123,-1,59,123,86,-1,81,131,74,-1,74,131,132,-1,74,132,16,-1,131,133,132,-1,132,133,134,-1,133,135,134,-1,134,135,136,-1,135,119,136,-1,136,119,121,-1,131,81,133,-1,133,81,83,-1,133,83,135,-1,135,83,119,-1,136,121,134,-1,134,121,17,-1,134,17,132,-1,132,17,16,-1,137,138,139,-1,139,138,140,-1,88,140,93,-1,93,140,138,-1,93,138,99,-1,130,141,129,-1,129,141,142,-1,141,137,142,-1,142,137,139,-1,141,130,137,-1,137,130,97,-1,137,97,138,-1,138,97,99,-1,140,88,139,-1,139,88,87,-1,139,87,142,-1,142,87,129,-1,
        ]
    }
}
Shape{
    appearance Appearance {
        material  Material 	{
            diffuseColor 0.792156862745098 0.8196078431372549 0.9333333333333333
            specularColor 0.396078431372549 0.4117647058823529 0.4666666666666667
            ambientIntensity 0.2
            transparency 0
            shininess 0.5
        }
    }
    geometry IndexedFaceSet {
        ccw TRUE
        solid FALSE
        coord DEF co Coordinate {
            point [
                0.173 -0.0645 0.0039, 0.2191 0.0536 0.0039, 0.173 -0.0645 0.0, 0.2191 0.0536 0.0, 0.2018 0.0536 0.0039, 0.2018 0.0536 0.0, 0.1899 0.0204 0.0039, 0.1899 0.0204 0.0, 0.1411 0.0204 0.0039, 0.1411 0.0204 0.0, 0.1298 0.0536 0.0039, 0.1298 0.0536 0.0, 0.1125 0.0536 0.0039, 0.1125 0.0536 0.0, 0.1572 -0.0645 0.0039, 0.1572 -0.0645 0.0, 0.145 0.0075 0.0039, 0.1845 0.0075 0.0039, 0.1627 -0.0418 0.0039, 0.1638 -0.046 0.0039, 0.1646 -0.0501 0.0039, 0.1649 -0.0501 0.0039, 0.1657 -0.046 0.0039, 0.1668 -0.0418 0.0039, 0.145 0.0075 0.0, 0.1845 0.0075 0.0, 0.1627 -0.0418 0.0, 0.1638 -0.046 0.0, 0.1646 -0.0501 0.0, 0.1649 -0.0501 0.0, 0.1657 -0.046 0.0, 0.1668 -0.0418 0.0, 0.0409 0.0536 0.0039, 0.0088 0.0536 0.0039, 0.0409 0.0536 0.0, 0.0088 0.0536 0.0, 0.0088 -0.0645 0.0039, 0.0088 -0.0645 0.0, 0.0421 -0.0645 0.0039, 0.0421 -0.0645 0.0, 0.1039 -0.007 0.0039, 0.1039 -0.007 0.0, 0.1036 -0.0128 0.0, 0.1036 -0.0128 0.0039, 0.1014 -0.0253 0.0, 0.1014 -0.0253 0.0039, 0.0964 -0.0367 0.0, 0.0964 -0.0367 0.0039, 0.0893 -0.046 0.0, 0.0893 -0.046 0.0039, 0.0847 -0.0502 0.0, 0.0847 -0.0502 0.0039, 0.073 -0.0579 0.0, 0.073 -0.0579 0.0039, 0.0592 -0.0627 0.0, 0.0592 -0.0627 0.0039, 0.0559 0.0522 0.0, 0.0559 0.0522 0.0039, 0.0695 0.0481 0.0, 0.0695 0.0481 0.0039, 0.0817 0.0409 0.0, 0.0817 0.0409 0.0039, 0.0914 0.0316 0.0, 0.0914 0.0316 0.0039, 0.098 0.0211 0.0, 0.098 0.0211 0.0039, 0.1022 0.0088 0.0, 0.1022 0.0088 0.0039, 0.088 -0.0066 0.0039, 0.087 -0.0184 0.0039, 0.0843 -0.0277 0.0039, 0.0802 -0.035 0.0039, 0.0745 -0.0411 0.0039, 0.0659 -0.0466 0.0039, 0.0561 -0.0501 0.0039, 0.0421 -0.0516 0.0039, 0.0246 -0.0516 0.0039, 0.0246 0.0406 0.0039, 0.0414 0.0406 0.0039, 0.0539 0.0394 0.0039, 0.0638 0.0364 0.0039, 0.0718 0.0316 0.0039, 0.0785 0.025 0.0039, 0.0834 0.017 0.0039, 0.0866 0.0076 0.0039, 0.0421 -0.0516 0.0, 0.0246 -0.0516 0.0, 0.0561 -0.0501 0.0, 0.0659 -0.0466 0.0, 0.0745 -0.0411 0.0, 0.0802 -0.035 0.0, 0.0843 -0.0277 0.0, 0.087 -0.0184 0.0, 0.088 -0.0066 0.0, 0.0866 0.0076 0.0, 0.0834 0.017 0.0, 0.0785 0.025 0.0, 0.0718 0.0316 0.0, 0.0638 0.0364 0.0, 0.0539 0.0394 0.0, 0.0414 0.0406 0.0, 0.0246 0.0406 0.0, -0.0142 0.0406 0.0039, -0.0142 0.0536 0.0039, -0.0142 0.0406 0.0, -0.0142 0.0536 0.0, -0.0776 0.0536 0.0039, -0.0776 0.0536 0.0, -0.0776 -0.0645 0.0039, -0.0776 -0.0645 0.0, -0.0171 -0.0645 0.0039, -0.0171 -0.0645 0.0, -0.0171 -0.0516 0.0039, -0.0171 -0.0516 0.0, -0.0618 -0.0516 0.0039, -0.0618 -0.0516 0.0, -0.0618 -0.0127 0.0039, -0.0618 -0.0127 0.0, -0.02 -0.0127 0.0039, -0.02 -0.0127 0.0, -0.02 0.0003 0.0039, -0.02 0.0003 0.0, -0.0618 0.0003 0.0039, -0.0618 0.0003 0.0, -0.0618 0.0406 0.0039, -0.0618 0.0406 0.0, -0.1007 0.0345 0.0039, -0.1007 0.0475 0.0039, -0.1007 0.0345 0.0, -0.1007 0.0475 0.0, -0.1332 0.055 0.0039, -0.1332 0.055 0.0, -0.1299 0.055 0.0, -0.1299 0.055 0.0039, -0.1133 0.0526 0.0, -0.1133 0.0526 0.0039, -0.1885 -0.0033 0.0039, -0.1885 -0.0033 0.0, -0.1874 0.0105 0.0, -0.1874 0.0105 0.0039, -0.1837 0.0232 0.0, -0.1837 0.0232 0.0039, -0.1774 0.0343 0.0, -0.1774 0.0343 0.0039, -0.1688 0.0434 0.0, -0.1688 0.0434 0.0039, -0.1592 0.0496 0.0, -0.1592 0.0496 0.0039, -0.1477 0.0535 0.0, -0.1477 0.0535 0.0039, -0.1285 -0.066 0.0039, -0.1285 -0.066 0.0, -0.1409 -0.0649 0.0039, -0.1368 -0.0653 0.0, -0.1409 -0.0649 0.0, -0.1539 -0.061 0.0, -0.1539 -0.061 0.0039, -0.1649 -0.0546 0.0, -0.1649 -0.0546 0.0039, -0.1752 -0.0447 0.0, -0.1752 -0.0447 0.0039, -0.1823 -0.0335 0.0, -0.1823 -0.0335 0.0039, -0.1868 -0.02 0.0, -0.1868 -0.02 0.0039, -0.118 -0.0653 0.0, -0.1143 -0.065 0.0039, -0.1143 -0.065 0.0, -0.1007 -0.0613 0.0039, -0.1007 -0.0613 0.0, -0.1007 -0.0455 0.0039, -0.1007 -0.0455 0.0, -0.1283 -0.053 0.0039, -0.1283 -0.053 0.0, -0.114 -0.0511 0.0, -0.114 -0.0511 0.0039, -0.1727 -0.0042 0.0039, -0.1727 -0.0042 0.0, -0.1722 -0.0131 0.0, -0.1722 -0.0131 0.0039, -0.169 -0.0259 0.0, -0.169 -0.0259 0.0039, -0.1642 -0.035 0.0, -0.1642 -0.035 0.0039, -0.1571 -0.0429 0.0, -0.1571 -0.0429 0.0039, -0.1488 -0.0485 0.0, -0.1488 -0.0485 0.0039, -0.14 -0.0517 0.0, -0.14 -0.0517 0.0039, -0.131 0.0421 0.0039, -0.131 0.0421 0.0, -0.1419 0.0408 0.0, -0.1419 0.0408 0.0039, -0.1506 0.0376 0.0, -0.1506 0.0376 0.0039, -0.1579 0.0327 0.0, -0.1579 0.0327 0.0039, -0.1634 0.0269 0.0, -0.1634 0.0269 0.0039, -0.1683 0.0187 0.0, -0.1683 0.0187 0.0039, -0.1715 0.0086 0.0, -0.1715 0.0086 0.0039, -0.1028 0.0357 0.0, -0.1028 0.0357 0.0039, -0.1153 0.0403 0.0, -0.1153 0.0403 0.0039, -0.1986 0.0406 0.0039, -0.1986 0.0536 0.0039, -0.1986 0.0406 0.0, -0.1986 0.0536 0.0, -0.2591 0.0536 0.0039, -0.2591 0.0536 0.0, -0.2591 -0.0645 0.0039, -0.2591 -0.0645 0.0, -0.2433 -0.0645 0.0039, -0.2433 -0.0645 0.0, -0.2433 0.0406 0.0039, -0.2433 0.0406 0.0, -0.2433 0.0406 0.0
            ]
        }
        coordIndex [
            0,1,2,-1,2,1,3,-1,1,4,3,-1,3,4,5,-1,4,6,5,-1,5,6,7,-1,6,8,7,-1,7,8,9,-1,8,10,9,-1,9,10,11,-1,10,12,11,-1,11,12,13,-1,12,14,13,-1,13,14,15,-1,14,0,15,-1,15,0,2,-1,16,8,17,-1,17,8,6,-1,18,14,16,-1,16,14,12,-1,16,12,8,-1,8,12,10,-1,18,19,14,-1,14,19,20,-1,14,20,0,-1,0,20,21,-1,0,21,22,-1,22,23,0,-1,0,23,17,-1,0,17,1,-1,1,17,6,-1,1,6,4,-1,16,17,24,-1,24,17,25,-1,18,16,26,-1,26,16,24,-1,18,26,27,-1,18,27,19,-1,19,27,28,-1,19,28,20,-1,21,20,29,-1,29,20,28,-1,21,29,30,-1,21,30,22,-1,22,30,31,-1,22,31,23,-1,17,23,25,-1,25,23,31,-1,32,33,34,-1,34,33,35,-1,33,36,35,-1,35,36,37,-1,36,38,37,-1,37,38,39,-1,40,41,42,-1,40,42,43,-1,43,42,44,-1,43,44,45,-1,45,44,46,-1,45,46,47,-1,47,46,48,-1,47,48,49,-1,49,48,50,-1,49,50,51,-1,51,50,52,-1,51,52,53,-1,53,52,54,-1,53,54,55,-1,55,54,39,-1,55,39,38,-1,32,34,56,-1,32,56,57,-1,57,56,58,-1,57,58,59,-1,59,58,60,-1,59,60,61,-1,61,60,62,-1,61,62,63,-1,63,62,64,-1,63,64,65,-1,65,64,66,-1,65,66,67,-1,67,66,41,-1,67,41,40,-1,67,40,68,-1,68,40,43,-1,68,43,69,-1,69,43,45,-1,69,45,70,-1,70,45,47,-1,70,47,71,-1,71,47,49,-1,71,49,72,-1,72,49,51,-1,72,51,73,-1,73,51,53,-1,73,53,74,-1,74,53,55,-1,74,55,75,-1,75,55,38,-1,75,38,76,-1,76,38,36,-1,76,36,77,-1,77,36,33,-1,77,33,78,-1,78,33,32,-1,78,32,79,-1,79,32,57,-1,79,57,80,-1,80,57,59,-1,80,59,81,-1,81,59,61,-1,81,61,82,-1,82,61,63,-1,82,63,83,-1,83,63,65,-1,83,65,84,-1,84,65,67,-1,84,67,68,-1,75,76,85,-1,85,76,86,-1,75,85,87,-1,75,87,74,-1,74,87,88,-1,74,88,73,-1,73,88,89,-1,73,89,72,-1,72,89,90,-1,72,90,71,-1,71,90,91,-1,71,91,70,-1,70,91,92,-1,70,92,69,-1,69,92,93,-1,69,93,68,-1,68,93,94,-1,68,94,84,-1,84,94,95,-1,84,95,83,-1,83,95,96,-1,83,96,82,-1,82,96,97,-1,82,97,81,-1,81,97,98,-1,81,98,80,-1,80,98,99,-1,80,99,79,-1,79,99,100,-1,79,100,78,-1,77,78,101,-1,101,78,100,-1,76,77,86,-1,86,77,101,-1,102,103,104,-1,104,103,105,-1,103,106,105,-1,105,106,107,-1,106,108,107,-1,107,108,109,-1,108,110,109,-1,109,110,111,-1,110,112,111,-1,111,112,113,-1,112,114,113,-1,113,114,115,-1,114,116,115,-1,115,116,117,-1,116,118,117,-1,117,118,119,-1,118,120,119,-1,119,120,121,-1,120,122,121,-1,121,122,123,-1,122,124,123,-1,123,124,125,-1,124,102,125,-1,125,102,104,-1,106,103,102,-1,102,124,106,-1,106,124,122,-1,106,122,108,-1,112,110,114,-1,114,110,108,-1,114,108,116,-1,116,108,122,-1,116,122,118,-1,118,122,120,-1,126,127,128,-1,128,127,129,-1,130,131,132,-1,130,132,133,-1,133,132,134,-1,133,134,135,-1,135,134,129,-1,135,129,127,-1,136,137,138,-1,136,138,139,-1,139,138,140,-1,139,140,141,-1,141,140,142,-1,141,142,143,-1,143,142,144,-1,143,144,145,-1,145,144,146,-1,145,146,147,-1,147,146,148,-1,147,148,149,-1,149,148,131,-1,149,131,130,-1,150,151,152,-1,152,151,153,-1,153,154,152,-1,152,154,155,-1,152,155,156,-1,156,155,157,-1,156,157,158,-1,158,157,159,-1,158,159,160,-1,160,159,161,-1,160,161,162,-1,162,161,163,-1,162,163,164,-1,164,163,137,-1,164,137,136,-1,151,150,165,-1,165,150,166,-1,165,166,167,-1,167,166,168,-1,167,168,169,-1,168,170,169,-1,169,170,171,-1,172,173,174,-1,172,174,175,-1,175,174,171,-1,175,171,170,-1,176,177,178,-1,176,178,179,-1,179,178,180,-1,179,180,181,-1,181,180,182,-1,181,182,183,-1,183,182,184,-1,183,184,185,-1,185,184,186,-1,185,186,187,-1,187,186,188,-1,187,188,189,-1,189,188,173,-1,189,173,172,-1,190,191,192,-1,190,192,193,-1,193,192,194,-1,193,194,195,-1,195,194,196,-1,195,196,197,-1,197,196,198,-1,197,198,199,-1,199,198,200,-1,199,200,201,-1,201,200,202,-1,201,202,203,-1,203,202,177,-1,203,177,176,-1,126,128,204,-1,126,204,205,-1,205,204,206,-1,205,206,207,-1,207,206,191,-1,207,191,190,-1,193,130,190,-1,190,130,133,-1,190,133,207,-1,207,133,135,-1,207,135,205,-1,205,135,127,-1,205,127,126,-1,170,168,175,-1,175,168,166,-1,175,166,172,-1,172,166,150,-1,172,150,189,-1,189,150,152,-1,189,152,187,-1,187,152,156,-1,187,156,185,-1,185,156,158,-1,185,158,183,-1,183,158,160,-1,183,160,181,-1,181,160,162,-1,181,162,179,-1,179,162,164,-1,179,164,176,-1,176,164,136,-1,176,136,203,-1,203,136,139,-1,203,139,201,-1,201,139,141,-1,201,141,199,-1,199,141,143,-1,199,143,197,-1,197,143,145,-1,197,145,195,-1,195,145,147,-1,195,147,193,-1,193,147,149,-1,193,149,130,-1,208,209,210,-1,210,209,211,-1,209,212,211,-1,211,212,213,-1,212,214,213,-1,213,214,215,-1,214,216,215,-1,215,216,217,-1,216,218,217,-1,217,218,219,-1,218,208,219,-1,219,208,210,-1,216,214,218,-1,218,214,212,-1,218,212,208,-1,208,212,209,-1,
        ]
    }
}
Shape{
    appearance Appearance {
        material  Material 	{
            diffuseColor 0.2235294117647059 0.2235294117647059 0.2235294117647059
            specularColor 0.09019607843137255 0.09019607843137255 0.09019607843137255
            ambientIntensity 0.2
            transparency 0
            shininess 0.5
        }
    }
    geometry IndexedFaceSet {
        ccw TRUE
        solid FALSE
        coord DEF co Coordinate {
            point [
                0.145 0.0075 0.0, 0.1845 0.0075 0.0, 0.1627 -0.0418 0.0, 0.1668 -0.0418 0.0, 0.1638 -0.046 0.0, 0.1657 -0.046 0.0, 0.1646 -0.0501 0.0, 0.1649 -0.0501 0.0, 0.0246 -0.0516 0.0, 0.0246 0.0406 0.0, 0.0421 -0.0516 0.0, 0.0414 0.0406 0.0, 0.0866 0.0076 0.0, 0.088 -0.0066 0.0, 0.087 -0.0184 0.0, 0.0843 -0.0277 0.0, 0.0561 -0.0501 0.0, 0.0539 0.0394 0.0, 0.0638 0.0364 0.0, 0.0718 0.0316 0.0, 0.0802 -0.035 0.0, 0.0745 -0.0411 0.0, 0.0659 -0.0466 0.0, 0.0785 0.025 0.0, 0.0834 0.017 0.0, 0.0834 0.017 0.0
            ]
        }
        coordIndex [
            0,1,2,-1,2,1,3,-1,2,3,4,-1,4,3,5,-1,4,5,6,-1,6,5,7,-1,8,9,10,-1,10,9,11,-1,12,13,10,-1,13,14,10,-1,10,14,15,-1,10,15,16,-1,11,17,10,-1,10,17,18,-1,10,18,19,-1,20,21,15,-1,15,21,22,-1,15,22,16,-1,19,23,10,-1,10,23,24,-1,10,24,12,-1,
        ]
    }
}
Shape{
    appearance Appearance {
        material  Material 	{
            diffuseColor 1.0 1.0 1.0
            specularColor 0.4 0.4 0.4
            ambientIntensity 0.2
            transparency 0
            shininess 0.5
        }
    }
    geometry IndexedFaceSet {
        ccw TRUE
        solid FALSE
        coord DEF co Coordinate {
            point [
                -0.6722 -0.012 0.7441, -0.6722 -0.0697 0.7441, -0.6722 -0.012 0.748, -0.6722 -0.0697 0.748, -0.8378 -0.0697 0.7441, -0.8378 -0.0697 0.748, -0.8378 -0.2353 0.7441, -0.8378 -0.2353 0.748, -0.8954 -0.2353 0.7441, -0.8954 -0.2353 0.748, -0.8954 -0.0697 0.7441, -0.8954 -0.0697 0.748, -1.0611 -0.0697 0.7441, -1.0611 -0.0697 0.748, -1.0611 -0.012 0.7441, -1.0611 -0.012 0.748, -0.8954 -0.012 0.7441, -0.8954 -0.012 0.748, -0.8954 0.1536 0.7441, -0.8954 0.1536 0.748, -0.8378 0.1536 0.7441, -0.8378 0.1536 0.748, -0.8378 -0.012 0.7441, -0.8378 -0.012 0.748, -0.8378 -0.012 0.748
            ]
        }
        coordIndex [
            0,1,2,-1,2,1,3,-1,1,4,3,-1,3,4,5,-1,4,6,5,-1,5,6,7,-1,6,8,7,-1,7,8,9,-1,8,10,9,-1,9,10,11,-1,10,12,11,-1,11,12,13,-1,12,14,13,-1,13,14,15,-1,14,16,15,-1,15,16,17,-1,16,18,17,-1,17,18,19,-1,18,20,19,-1,19,20,21,-1,20,22,21,-1,21,22,23,-1,22,0,23,-1,23,0,2,-1,8,6,10,-1,10,6,4,-1,20,18,22,-1,22,18,16,-1,14,12,16,-1,16,12,10,-1,16,10,22,-1,22,10,4,-1,22,4,0,-1,0,4,1,-1,
        ]
    }
}