#VRML V2.0 utf8
# 3D model generated by easyeda2kicad.py (https://github.com/uPesy/easyeda2kicad.py)

Shape{
    appearance Appearance {
        material  Material 	{
            diffuseColor 0.7529411764705882 0.7529411764705882 0.7529411764705882
            specularColor 0.3764705882352941 0.3764705882352941 0.3764705882352941
            ambientIntensity 0.2
            transparency 0
            shininess 0.5
        }
    }
    geometry IndexedFaceSet {
        ccw TRUE
        solid FALSE
        coord DEF co Coordinate {
            point [
                0.1007 0.0673 -0.0079, 0.1162 0.0655 -0.0079, 0.0667 -0.051 -0.0079, 0.0965 -0.0758 -0.0079, 0.0485 -0.0758 -0.0079, 0.0806 -0.0736 -0.0079, 0.0638 -0.0667 -0.0079, 0.2751 -0.0749 -0.0079, 0.1167 -0.0758 -0.0079, 0.1944 -0.0749 -0.0079, 0.126 -0.0749 -0.0079, 0.1416 -0.0696 -0.0079, 0.1733 0.0397 -0.0079, 0.1644 0.0547 -0.0079, 0.254 0.0826 -0.0079, 0.0816 0.0648 -0.0079, 0.0638 -0.0494 -0.0079, 0.0638 0.0572 -0.0079, 0.0485 0.3248 -0.0079, 0.0638 0.0783 -0.0079, 0.128 0.0613 -0.0079, 0.1389 0.054 -0.0079, 0.1484 0.0435 -0.0079, 0.1599 0.0022 -0.0079, 0.1583 -0.0148 -0.0079, 0.1539 -0.0285 -0.0079, 0.1192 -0.0578 -0.0079, 0.1043 -0.0595 -0.0079, 0.1307 -0.0535 -0.0079, 0.1403 -0.0469 -0.0079, 0.1474 -0.0394 -0.0079, 0.0834 -0.0572 -0.0079, 0.1549 0.0313 -0.0079, 0.1591 0.0145 -0.0079, 0.1543 -0.0616 -0.0079, 0.1662 -0.0492 -0.0079, 0.1944 -0.0576 -0.0079, 0.1746 -0.0343 -0.0079, 0.254 -0.0576 -0.0079, 0.1506 0.0685 -0.0079, 0.1357 0.0775 -0.0079, 0.1182 0.083 -0.0079, 0.1794 -0.0176 -0.0079, 0.181 0.0009 -0.0079, 0.1792 0.0212 -0.0079, 0.1009 0.0845 -0.0079, 0.082 0.0832 -0.0079, 0.1029 -0.0767 -0.0079, 0.1072 -0.0768 -0.0079, 0.0485 -0.3248 -0.0079, 0.2751 0.0826 -0.0079, 0.4685 0.3248 -0.0079, 0.4685 -0.0758 -0.0079, 0.4685 -0.3248 -0.0079, -0.4685 -0.2264 -0.0079, -0.4685 -0.0758 -0.0079, -0.3701 -0.3248 -0.0079, -0.3625 -0.0749 -0.0079, -0.3395 -0.0749 -0.0079, -0.0514 -0.0749 -0.0079, 0.0331 -0.0749 -0.0079, 0.0331 0.0826 -0.0079, -0.2015 -0.0306 -0.0079, -0.1927 -0.0448 -0.0079, -0.2204 -0.0749 -0.0079, -0.18 -0.0575 -0.0079, -0.0475 0.0826 -0.0079, -0.4685 0.3248 -0.0079, -0.1472 0.0807 -0.0079, -0.1659 0.0746 -0.0079, -0.2799 0.0826 -0.0079, -0.1639 -0.0672 -0.0079, -0.1458 -0.0729 -0.0079, -0.1249 -0.0749 -0.0079, 0.012 0.0653 -0.0079, 0.012 0.0135 -0.0079, -0.0475 0.0653 -0.0079, -0.0437 0.0135 -0.0079, -0.0821 0.0826 -0.0079, -0.0437 -0.0038 -0.0079, 0.012 -0.0038 -0.0079, 0.012 -0.0576 -0.0079, -0.0514 -0.0576 -0.0079, -0.0821 -0.0749 -0.0079, -0.1266 0.0826 -0.0079, -0.3235 -0.0307 -0.0079, -0.2585 -0.0307 -0.0079, -0.2434 -0.0749 -0.0079, -0.1818 0.0648 -0.0079, -0.1933 0.0535 -0.0079, -0.2017 0.0404 -0.0079, -0.2069 0.025 -0.0079, -0.2089 0.0059 -0.0079, -0.207 -0.0138 -0.0079, -0.3011 0.0826 -0.0079, -0.3011 0.0826 -0.0079
            ]
        }
        coordIndex [
            0,1,2,-1,3,4,5,-1,5,4,6,-1,7,8,9,-1,9,8,10,-1,9,10,11,-1,12,13,14,-1,0,2,15,-1,15,2,16,-1,15,16,17,-1,17,16,18,-1,17,18,19,-1,1,20,2,-1,2,20,21,-1,2,21,22,-1,23,24,2,-1,2,24,25,-1,26,27,28,-1,28,27,29,-1,25,30,2,-1,2,30,29,-1,2,29,31,-1,31,29,27,-1,22,32,2,-1,2,32,33,-1,2,33,23,-1,11,34,9,-1,9,34,35,-1,9,35,36,-1,36,35,37,-1,36,37,38,-1,39,40,18,-1,18,40,41,-1,37,42,38,-1,38,42,43,-1,38,43,14,-1,14,43,44,-1,14,44,12,-1,41,45,18,-1,18,45,46,-1,18,46,19,-1,47,48,49,-1,49,48,8,-1,13,39,14,-1,14,39,18,-1,14,18,50,-1,50,18,51,-1,50,51,7,-1,7,51,52,-1,7,52,8,-1,8,52,53,-1,8,53,49,-1,54,55,56,-1,56,55,4,-1,56,4,49,-1,49,4,3,-1,49,3,47,-1,55,57,58,-1,59,60,4,-1,4,60,61,-1,62,63,64,-1,64,63,65,-1,66,67,61,-1,61,67,18,-1,61,18,4,-1,4,18,16,-1,4,16,6,-1,68,69,70,-1,65,71,64,-1,64,71,72,-1,64,72,73,-1,74,75,76,-1,76,75,77,-1,76,77,78,-1,78,77,79,-1,80,81,79,-1,79,81,82,-1,79,82,78,-1,78,82,59,-1,78,59,83,-1,83,59,4,-1,84,67,78,-1,78,67,66,-1,78,66,76,-1,85,86,58,-1,58,86,87,-1,58,87,55,-1,55,87,64,-1,55,64,4,-1,4,64,73,-1,4,73,83,-1,69,88,70,-1,70,88,89,-1,70,89,90,-1,90,91,70,-1,70,91,92,-1,70,92,64,-1,64,92,93,-1,64,93,62,-1,57,55,94,-1,94,55,67,-1,94,67,70,-1,70,67,84,-1,70,84,68,-1,
        ]
    }
}
Shape{
    appearance Appearance {
        material  Material 	{
            diffuseColor 0.25098039215686274 0.25098039215686274 0.25098039215686274
            specularColor 0.12549019607843137 0.12549019607843137 0.12549019607843137
            ambientIntensity 0.2
            transparency 0
            shininess 0.5
        }
    }
    geometry IndexedFaceSet {
        ccw TRUE
        solid FALSE
        coord DEF co Coordinate {
            point [
                0.5906 0.5906 0.2874, 0.5906 -0.5906 0.2874, 0.5906 0.5906 0.0, 0.5906 -0.5906 0.0, 0.4882 0.5906 0.0, 0.4882 0.5906 0.0787, 0.3976 0.5906 0.0787, 0.2205 0.5906 0.0, 0.1339 0.5906 0.0, 0.2205 0.5906 0.0787, 0.1339 0.5906 0.0787, 0.3976 0.5906 0.0, 0.311 0.5906 0.0, 0.311 0.5906 0.0787, -0.5906 0.5906 0.2874, 0.0433 0.5906 0.0787, -0.1339 0.5906 0.0787, -0.1339 0.5906 0.0, -0.2205 0.5906 0.0, -0.2205 0.5906 0.0787, -0.311 0.5906 0.0787, -0.0433 0.5906 0.0787, -0.0433 0.5906 0.0, 0.0433 0.5906 0.0, -0.4882 0.5906 0.0, -0.5906 0.5906 0.0, -0.4882 0.5906 0.0787, -0.3976 0.5906 0.0787, -0.3976 0.5906 0.0, -0.311 0.5906 0.0, -0.5906 -0.5906 0.2874, -0.5906 -0.5906 0.0, -0.4882 -0.5906 0.0, -0.4882 -0.5906 0.0787, -0.3976 -0.5906 0.0787, -0.2205 -0.5906 0.0, -0.1339 -0.5906 0.0, -0.2205 -0.5906 0.0787, -0.1339 -0.5906 0.0787, -0.3976 -0.5906 0.0, -0.311 -0.5906 0.0, -0.311 -0.5906 0.0787, -0.0433 -0.5906 0.0787, 0.1339 -0.5906 0.0787, 0.1339 -0.5906 0.0, 0.2205 -0.5906 0.0, 0.2205 -0.5906 0.0787, 0.311 -0.5906 0.0787, 0.0433 -0.5906 0.0787, 0.0433 -0.5906 0.0, -0.0433 -0.5906 0.0, 0.4882 -0.5906 0.0, 0.4882 -0.5906 0.0787, 0.3976 -0.5906 0.0787, 0.3976 -0.5906 0.0, 0.311 -0.5906 0.0, -0.494 -0.5236 0.2874, -0.5059 -0.5187 0.2874, -0.4318 -0.4759 0.2874, -0.4335 -0.4887 0.2874, -0.4384 -0.5006 0.2874, -0.4463 -0.5109 0.2874, -0.5162 -0.5109 0.2874, -0.524 -0.5006 0.2874, -0.529 -0.4887 0.2874, -0.4565 -0.5187 0.2874, -0.4684 -0.5236 0.2874, -0.4812 -0.5253 0.2874, -0.5306 -0.4759 0.2874, -0.529 -0.4631 0.2874, -0.524 -0.4512 0.2874, -0.5162 -0.441 0.2874, -0.5059 -0.4331 0.2874, -0.494 -0.4282 0.2874, -0.4812 -0.4265 0.2874, -0.4684 -0.4282 0.2874, -0.4565 -0.4331 0.2874, -0.4463 -0.441 0.2874, -0.4384 -0.4512 0.2874, -0.4335 -0.4631 0.2874, 0.4882 0.4783 0.0, -0.4685 0.3248 0.0, -0.4685 -0.2264 0.0, 0.4685 -0.3248 0.0, 0.4685 0.3248 0.0, -0.254 -0.4346 0.0, -0.2657 -0.4331 0.0, -0.3701 -0.3248 0.0, -0.4429 -0.4331 0.0, -0.4312 -0.4346 0.0, -0.4203 -0.4391 0.0, 0.4312 -0.4346 0.0, 0.4203 -0.4391 0.0, -0.4882 0.4783 0.0, -0.4656 0.4391 0.0, -0.4546 0.4346 0.0, -0.2431 0.4391 0.0, -0.2337 0.4463 0.0, -0.1206 0.4463 0.0, 0.0566 0.4463 0.0, 0.0659 0.4391 0.0, -0.0494 0.4557 0.0, 0.254 0.4346 0.0, 0.2657 0.4331 0.0, -0.4546 -0.4346 0.0, -0.4656 -0.4391 0.0, -0.4749 -0.4463 0.0, -0.1003 0.4346 0.0, -0.1112 0.4391 0.0, -0.0566 0.4463 0.0, -0.4821 -0.4557 0.0, -0.4866 -0.4666 0.0, -0.4882 -0.4783 0.0, 0.4882 -0.4783 0.0, 0.4866 -0.4666 0.0, 0.4821 -0.4557 0.0, 0.4749 -0.4463 0.0, 0.4656 -0.4391 0.0, 0.4546 -0.4346 0.0, 0.4429 -0.4331 0.0, -0.2265 -0.4557 0.0, -0.2337 -0.4463 0.0, -0.1323 -0.4666 0.0, -0.2775 -0.4346 0.0, -0.2884 -0.4391 0.0, -0.2978 -0.4463 0.0, -0.4866 0.4666 0.0, -0.4821 0.4557 0.0, -0.4749 0.4463 0.0, -0.4429 0.4331 0.0, -0.4312 0.4346 0.0, -0.4203 0.4391 0.0, -0.2657 0.4331 0.0, -0.4109 0.4463 0.0, -0.2775 0.4346 0.0, -0.4037 0.4557 0.0, -0.2884 0.4391 0.0, -0.2978 0.4463 0.0, -0.2265 0.4557 0.0, -0.222 0.4666 0.0, -0.1278 0.4557 0.0, 0.2657 -0.4331 0.0, 0.4109 -0.4463 0.0, 0.2775 -0.4346 0.0, 0.4037 -0.4557 0.0, 0.2884 -0.4391 0.0, 0.2978 -0.4463 0.0, 0.254 -0.4346 0.0, 0.2431 -0.4391 0.0, 0.0886 -0.4331 0.0, 0.2337 -0.4463 0.0, 0.1003 -0.4346 0.0, -0.305 -0.4557 0.0, -0.4037 -0.4557 0.0, -0.3095 -0.4666 0.0, -0.4109 -0.4463 0.0, -0.254 0.4346 0.0, 0.0769 0.4346 0.0, 0.0886 0.4331 0.0, 0.1003 0.4346 0.0, 0.1112 0.4391 0.0, 0.1278 -0.4557 0.0, 0.1206 -0.4463 0.0, 0.222 -0.4666 0.0, 0.2265 -0.4557 0.0, 0.1112 -0.4391 0.0, 0.0566 -0.4463 0.0, 0.0494 -0.4557 0.0, -0.0566 -0.4463 0.0, 0.0449 -0.4666 0.0, -0.0494 -0.4557 0.0, -0.0659 -0.4391 0.0, -0.0769 -0.4346 0.0, -0.0886 -0.4331 0.0, -0.0886 0.4331 0.0, -0.0769 0.4346 0.0, -0.0659 0.4391 0.0, 0.1323 0.4666 0.0, 0.2265 0.4557 0.0, 0.1278 0.4557 0.0, 0.2337 0.4463 0.0, 0.2431 0.4391 0.0, 0.2884 0.4391 0.0, 0.2978 0.4463 0.0, 0.4037 0.4557 0.0, 0.305 0.4557 0.0, 0.3095 0.4666 0.0, -0.3976 0.4783 0.0, -0.311 0.4783 0.0, -0.3992 0.4666 0.0, -0.3095 0.4666 0.0, -0.305 0.4557 0.0, -0.2205 0.4783 0.0, -0.1339 0.4783 0.0, -0.1323 0.4666 0.0, -0.0433 0.4783 0.0, 0.0433 0.4783 0.0, -0.0449 0.4666 0.0, 0.0449 0.4666 0.0, 0.0494 0.4557 0.0, 0.1206 0.4463 0.0, 0.2775 0.4346 0.0, 0.4109 0.4463 0.0, 0.4312 0.4346 0.0, 0.4429 0.4331 0.0, 0.4546 0.4346 0.0, 0.4656 0.4391 0.0, 0.4749 0.4463 0.0, 0.4821 0.4557 0.0, 0.4866 0.4666 0.0, 0.0433 -0.4783 0.0, -0.0433 -0.4783 0.0, -0.0449 -0.4666 0.0, -0.1112 -0.4391 0.0, -0.1206 -0.4463 0.0, -0.1278 -0.4557 0.0, -0.311 -0.4783 0.0, -0.3976 -0.4783 0.0, -0.3992 -0.4666 0.0, 0.1339 0.4783 0.0, 0.2205 0.4783 0.0, 0.222 0.4666 0.0, 0.4203 0.4391 0.0, 0.3976 -0.4783 0.0, 0.311 -0.4783 0.0, 0.3992 -0.4666 0.0, 0.3095 -0.4666 0.0, 0.305 -0.4557 0.0, 0.2205 -0.4783 0.0, 0.1339 -0.4783 0.0, 0.1323 -0.4666 0.0, 0.0769 -0.4346 0.0, 0.0659 -0.4391 0.0, -0.2431 -0.4391 0.0, -0.1003 -0.4346 0.0, -0.1339 -0.4783 0.0, -0.2205 -0.4783 0.0, -0.222 -0.4666 0.0, 0.311 0.4783 0.0, 0.3976 0.4783 0.0, 0.3992 0.4666 0.0, 0.3992 0.4666 0.0
            ]
        }
        coordIndex [
            0,1,2,-1,2,1,3,-1,2,4,0,-1,0,4,5,-1,0,5,6,-1,7,8,9,-1,9,8,10,-1,11,12,6,-1,6,12,13,-1,6,13,0,-1,0,13,9,-1,0,9,14,-1,14,9,10,-1,14,10,15,-1,16,17,18,-1,19,20,14,-1,18,19,16,-1,16,19,14,-1,16,14,21,-1,21,14,15,-1,21,15,22,-1,22,15,23,-1,24,25,26,-1,26,25,14,-1,26,14,27,-1,27,14,20,-1,27,20,28,-1,28,20,29,-1,30,14,31,-1,31,14,25,-1,31,32,30,-1,30,32,33,-1,30,33,34,-1,35,36,37,-1,37,36,38,-1,39,40,34,-1,34,40,41,-1,34,41,30,-1,30,41,37,-1,30,37,1,-1,1,37,38,-1,1,38,42,-1,43,44,45,-1,46,47,1,-1,45,46,43,-1,43,46,1,-1,43,1,48,-1,48,1,42,-1,48,42,49,-1,49,42,50,-1,51,3,52,-1,52,3,1,-1,52,1,53,-1,53,1,47,-1,53,47,54,-1,54,47,55,-1,30,56,57,-1,58,59,1,-1,1,59,60,-1,1,60,61,-1,57,62,30,-1,30,62,63,-1,30,63,64,-1,61,65,1,-1,1,65,66,-1,1,66,30,-1,30,66,67,-1,30,67,56,-1,64,68,30,-1,30,68,69,-1,30,69,14,-1,14,69,70,-1,70,71,14,-1,14,71,72,-1,14,72,73,-1,73,74,14,-1,14,74,75,-1,14,75,0,-1,0,75,76,-1,76,77,0,-1,0,77,78,-1,0,78,1,-1,1,78,79,-1,1,79,58,-1,80,4,2,-1,25,81,31,-1,31,81,82,-1,3,83,2,-1,2,83,84,-1,85,86,87,-1,88,82,89,-1,89,82,87,-1,89,87,90,-1,91,92,83,-1,25,24,93,-1,94,95,81,-1,96,97,98,-1,99,100,101,-1,102,103,84,-1,88,104,82,-1,82,104,105,-1,82,105,106,-1,107,81,108,-1,108,81,98,-1,101,100,109,-1,106,110,82,-1,82,110,111,-1,82,111,31,-1,31,111,112,-1,31,112,32,-1,3,51,113,-1,113,114,3,-1,3,114,115,-1,3,115,83,-1,83,115,116,-1,83,116,117,-1,117,118,83,-1,83,118,119,-1,83,119,91,-1,120,121,122,-1,86,123,87,-1,87,123,124,-1,87,124,125,-1,93,126,25,-1,25,126,127,-1,25,127,81,-1,81,127,128,-1,81,128,94,-1,95,129,81,-1,81,129,130,-1,81,130,131,-1,132,133,134,-1,134,133,135,-1,134,135,136,-1,136,135,137,-1,97,138,98,-1,98,138,139,-1,98,139,140,-1,141,142,143,-1,143,142,144,-1,143,144,145,-1,145,144,146,-1,147,83,141,-1,141,83,92,-1,141,92,142,-1,147,148,149,-1,149,148,150,-1,149,150,151,-1,125,152,153,-1,153,152,154,-1,125,153,87,-1,87,153,155,-1,87,155,90,-1,96,98,156,-1,156,98,81,-1,156,81,132,-1,132,81,131,-1,132,131,133,-1,100,157,81,-1,81,157,158,-1,81,158,84,-1,84,158,159,-1,84,159,160,-1,161,162,163,-1,163,162,164,-1,164,162,150,-1,150,162,165,-1,150,165,151,-1,166,167,168,-1,168,167,169,-1,168,169,170,-1,83,168,171,-1,171,172,83,-1,83,172,173,-1,83,173,87,-1,107,174,81,-1,81,174,175,-1,81,175,100,-1,100,175,176,-1,100,176,109,-1,177,178,179,-1,179,178,180,-1,179,180,181,-1,182,183,184,-1,184,183,185,-1,184,185,186,-1,28,29,187,-1,187,29,188,-1,187,188,189,-1,189,188,190,-1,189,190,135,-1,135,190,191,-1,135,191,137,-1,18,17,192,-1,192,17,193,-1,192,193,139,-1,139,193,194,-1,139,194,140,-1,22,23,195,-1,195,23,196,-1,195,196,197,-1,197,196,198,-1,197,198,101,-1,101,198,199,-1,101,199,99,-1,160,200,84,-1,84,200,179,-1,84,179,102,-1,102,179,181,-1,182,184,201,-1,201,184,202,-1,201,202,103,-1,203,204,84,-1,84,204,205,-1,84,205,206,-1,206,207,84,-1,84,207,208,-1,84,208,2,-1,2,208,209,-1,2,209,80,-1,49,50,210,-1,210,50,211,-1,210,211,169,-1,169,211,212,-1,169,212,170,-1,213,214,121,-1,121,214,215,-1,121,215,122,-1,40,39,216,-1,216,39,217,-1,216,217,154,-1,154,217,218,-1,154,218,153,-1,8,7,219,-1,219,7,220,-1,219,220,177,-1,177,220,221,-1,177,221,178,-1,103,202,84,-1,84,202,222,-1,84,222,203,-1,54,55,223,-1,223,55,224,-1,223,224,225,-1,225,224,226,-1,225,226,144,-1,144,226,227,-1,144,227,146,-1,45,44,228,-1,228,44,229,-1,228,229,163,-1,163,229,230,-1,163,230,161,-1,147,149,83,-1,83,149,231,-1,83,231,168,-1,168,231,232,-1,168,232,166,-1,85,87,233,-1,233,87,173,-1,233,173,121,-1,121,173,234,-1,121,234,213,-1,36,35,235,-1,235,35,236,-1,235,236,122,-1,122,236,237,-1,122,237,120,-1,12,11,238,-1,238,11,239,-1,238,239,186,-1,186,239,240,-1,186,240,184,-1,
        ]
    }
}
Shape{
    appearance Appearance {
        material  Material 	{
            diffuseColor 0.7529411764705882 0.7529411764705882 0.7529411764705882
            specularColor 0.3764705882352941 0.3764705882352941 0.3764705882352941
            ambientIntensity 0.2
            transparency 0
            shininess 0.5
        }
    }
    geometry IndexedFaceSet {
        ccw TRUE
        solid FALSE
        coord DEF co Coordinate {
            point [
                -0.4318 -0.4759 0.2835, -0.4318 -0.4759 0.2874, -0.4335 -0.4631 0.2835, -0.4335 -0.4631 0.2874, -0.4384 -0.4512 0.2835, -0.4384 -0.4512 0.2874, -0.4463 -0.441 0.2835, -0.4463 -0.441 0.2874, -0.4565 -0.4331 0.2835, -0.4565 -0.4331 0.2874, -0.4684 -0.4282 0.2835, -0.4684 -0.4282 0.2874, -0.4812 -0.4265 0.2835, -0.4812 -0.4265 0.2874, -0.494 -0.4282 0.2835, -0.494 -0.4282 0.2874, -0.5059 -0.4331 0.2835, -0.5059 -0.4331 0.2874, -0.5162 -0.441 0.2835, -0.5162 -0.441 0.2874, -0.524 -0.4512 0.2835, -0.524 -0.4512 0.2874, -0.529 -0.4631 0.2835, -0.529 -0.4631 0.2874, -0.5306 -0.4759 0.2835, -0.5306 -0.4759 0.2874, -0.529 -0.4887 0.2835, -0.529 -0.4887 0.2874, -0.524 -0.5006 0.2835, -0.524 -0.5006 0.2874, -0.5162 -0.5109 0.2835, -0.5162 -0.5109 0.2874, -0.5059 -0.5187 0.2835, -0.5059 -0.5187 0.2874, -0.494 -0.5236 0.2835, -0.494 -0.5236 0.2874, -0.4812 -0.5253 0.2835, -0.4812 -0.5253 0.2874, -0.4684 -0.5236 0.2835, -0.4684 -0.5236 0.2874, -0.4565 -0.5187 0.2835, -0.4565 -0.5187 0.2874, -0.4463 -0.5109 0.2835, -0.4463 -0.5109 0.2874, -0.4384 -0.5006 0.2835, -0.4384 -0.5006 0.2874, -0.4335 -0.4887 0.2835, -0.4335 -0.4887 0.2874, -0.4812 -0.4759 0.2835, 0.1339 0.5906 0.0787, 0.1339 0.5945 0.0787, 0.0433 0.5906 0.0787, 0.0433 0.5945 0.0787, 0.0433 0.5906 0.0, 0.0433 0.5945 -0.0079, 0.0433 0.4783 0.0, 0.0433 0.4783 -0.0079, 0.0449 0.4666 -0.0079, 0.0449 0.4666 0.0, 0.0494 0.4557 -0.0079, 0.0494 0.4557 0.0, 0.0566 0.4463 -0.0079, 0.0566 0.4463 0.0, 0.0659 0.4391 -0.0079, 0.0659 0.4391 0.0, 0.0769 0.4346 -0.0079, 0.0769 0.4346 0.0, 0.0886 0.4331 -0.0079, 0.0886 0.4331 0.0, 0.1003 0.4346 -0.0079, 0.1003 0.4346 0.0, 0.1112 0.4391 -0.0079, 0.1112 0.4391 0.0, 0.1206 0.4463 -0.0079, 0.1206 0.4463 0.0, 0.1278 0.4557 -0.0079, 0.1278 0.4557 0.0, 0.1323 0.4666 -0.0079, 0.1323 0.4666 0.0, 0.1339 0.4783 -0.0079, 0.1339 0.4783 0.0, 0.1339 0.5906 0.0, 0.1339 0.5945 -0.0079, 0.4882 0.5945 0.0787, 0.3976 0.5945 0.0787, 0.4882 0.5906 0.0787, 0.3976 0.5906 0.0787, 0.3976 0.4783 0.0, 0.3976 0.4783 -0.0079, 0.3992 0.4666 -0.0079, 0.3992 0.4666 0.0, 0.4037 0.4557 -0.0079, 0.4037 0.4557 0.0, 0.4109 0.4463 -0.0079, 0.4109 0.4463 0.0, 0.4203 0.4391 -0.0079, 0.4203 0.4391 0.0, 0.4312 0.4346 -0.0079, 0.4312 0.4346 0.0, 0.4429 0.4331 -0.0079, 0.4429 0.4331 0.0, 0.4546 0.4346 -0.0079, 0.4546 0.4346 0.0, 0.4656 0.4391 -0.0079, 0.4656 0.4391 0.0, 0.4749 0.4463 -0.0079, 0.4749 0.4463 0.0, 0.4821 0.4557 -0.0079, 0.4821 0.4557 0.0, 0.4866 0.4666 -0.0079, 0.4866 0.4666 0.0, 0.4882 0.4783 -0.0079, 0.4882 0.4783 0.0, 0.4882 0.5906 0.0, 0.4882 0.5945 -0.0079, 0.3976 0.5906 0.0, 0.3976 0.5945 -0.0079, -0.0433 0.5906 0.0787, -0.0433 0.5945 0.0787, -0.1339 0.5906 0.0787, -0.1339 0.5945 0.0787, -0.1339 0.5906 0.0, -0.1339 0.5945 -0.0079, -0.1339 0.4783 0.0, -0.1339 0.4783 -0.0079, -0.1323 0.4666 -0.0079, -0.1323 0.4666 0.0, -0.1278 0.4557 -0.0079, -0.1278 0.4557 0.0, -0.1206 0.4463 -0.0079, -0.1206 0.4463 0.0, -0.1112 0.4391 -0.0079, -0.1112 0.4391 0.0, -0.1003 0.4346 -0.0079, -0.1003 0.4346 0.0, -0.0886 0.4331 -0.0079, -0.0886 0.4331 0.0, -0.0769 0.4346 -0.0079, -0.0769 0.4346 0.0, -0.0659 0.4391 -0.0079, -0.0659 0.4391 0.0, -0.0566 0.4463 -0.0079, -0.0566 0.4463 0.0, -0.0494 0.4557 -0.0079, -0.0494 0.4557 0.0, -0.0449 0.4666 -0.0079, -0.0449 0.4666 0.0, -0.0433 0.4783 -0.0079, -0.0433 0.4783 0.0, -0.0433 0.5906 0.0, -0.0433 0.5945 -0.0079, -0.2205 0.5906 0.0787, -0.2205 0.5945 0.0787, -0.311 0.5906 0.0787, -0.311 0.5945 0.0787, -0.311 0.5906 0.0, -0.311 0.5945 -0.0079, -0.311 0.4783 0.0, -0.311 0.4783 -0.0079, -0.3095 0.4666 -0.0079, -0.3095 0.4666 0.0, -0.305 0.4557 -0.0079, -0.305 0.4557 0.0, -0.2978 0.4463 -0.0079, -0.2978 0.4463 0.0, -0.2884 0.4391 -0.0079, -0.2884 0.4391 0.0, -0.2775 0.4346 -0.0079, -0.2775 0.4346 0.0, -0.2657 0.4331 -0.0079, -0.2657 0.4331 0.0, -0.254 0.4346 -0.0079, -0.254 0.4346 0.0, -0.2431 0.4391 -0.0079, -0.2431 0.4391 0.0, -0.2337 0.4463 -0.0079, -0.2337 0.4463 0.0, -0.2265 0.4557 -0.0079, -0.2265 0.4557 0.0, -0.222 0.4666 -0.0079, -0.222 0.4666 0.0, -0.2205 0.4783 -0.0079, -0.2205 0.4783 0.0, -0.2205 0.5906 0.0, -0.2205 0.5945 -0.0079, -0.3976 0.5906 0.0787, -0.3976 0.5945 0.0787, -0.4882 0.5906 0.0787, -0.4882 0.5945 0.0787, -0.4882 0.5906 0.0, -0.4882 0.5945 -0.0079, -0.4882 0.4783 0.0, -0.4882 0.4783 -0.0079, -0.4866 0.4666 -0.0079, -0.4866 0.4666 0.0, -0.4821 0.4557 -0.0079, -0.4821 0.4557 0.0, -0.4749 0.4463 -0.0079, -0.4749 0.4463 0.0, -0.4656 0.4391 -0.0079, -0.4656 0.4391 0.0, -0.4546 0.4346 -0.0079, -0.4546 0.4346 0.0, -0.4429 0.4331 -0.0079, -0.4429 0.4331 0.0, -0.4312 0.4346 -0.0079, -0.4312 0.4346 0.0, -0.4203 0.4391 -0.0079, -0.4203 0.4391 0.0, -0.4109 0.4463 -0.0079, -0.4109 0.4463 0.0, -0.4037 0.4557 -0.0079, -0.4037 0.4557 0.0, -0.3992 0.4666 -0.0079, -0.3992 0.4666 0.0, -0.3976 0.4783 -0.0079, -0.3976 0.4783 0.0, -0.3976 0.5906 0.0, -0.3976 0.5945 -0.0079, 0.311 0.5945 0.0787, 0.2205 0.5945 0.0787, 0.311 0.5906 0.0787, 0.2205 0.5906 0.0787, 0.2205 0.4783 0.0, 0.2205 0.4783 -0.0079, 0.222 0.4666 -0.0079, 0.222 0.4666 0.0, 0.2265 0.4557 -0.0079, 0.2265 0.4557 0.0, 0.2337 0.4463 -0.0079, 0.2337 0.4463 0.0, 0.2431 0.4391 -0.0079, 0.2431 0.4391 0.0, 0.254 0.4346 -0.0079, 0.254 0.4346 0.0, 0.2657 0.4331 -0.0079, 0.2657 0.4331 0.0, 0.2775 0.4346 -0.0079, 0.2775 0.4346 0.0, 0.2884 0.4391 -0.0079, 0.2884 0.4391 0.0, 0.2978 0.4463 -0.0079, 0.2978 0.4463 0.0, 0.305 0.4557 -0.0079, 0.305 0.4557 0.0, 0.3095 0.4666 -0.0079, 0.3095 0.4666 0.0, 0.311 0.4783 -0.0079, 0.311 0.4783 0.0, 0.311 0.5906 0.0, 0.311 0.5945 -0.0079, 0.2205 0.5906 0.0, 0.2205 0.5945 -0.0079, 0.0433 -0.5945 0.0787, 0.1339 -0.5945 0.0787, 0.0433 -0.5906 0.0787, 0.1339 -0.5906 0.0787, 0.1339 -0.4783 0.0, 0.1339 -0.4783 -0.0079, 0.1323 -0.4666 -0.0079, 0.1323 -0.4666 0.0, 0.1278 -0.4557 -0.0079, 0.1278 -0.4557 0.0, 0.1206 -0.4463 -0.0079, 0.1206 -0.4463 0.0, 0.1112 -0.4391 -0.0079, 0.1112 -0.4391 0.0, 0.1003 -0.4346 -0.0079, 0.1003 -0.4346 0.0, 0.0886 -0.4331 -0.0079, 0.0886 -0.4331 0.0, 0.0769 -0.4346 -0.0079, 0.0769 -0.4346 0.0, 0.0659 -0.4391 -0.0079, 0.0659 -0.4391 0.0, 0.0566 -0.4463 -0.0079, 0.0566 -0.4463 0.0, 0.0494 -0.4557 -0.0079, 0.0494 -0.4557 0.0, 0.0449 -0.4666 -0.0079, 0.0449 -0.4666 0.0, 0.0433 -0.4783 -0.0079, 0.0433 -0.4783 0.0, 0.0433 -0.5906 0.0, 0.0433 -0.5945 -0.0079, 0.1339 -0.5906 0.0, 0.1339 -0.5945 -0.0079, -0.1339 -0.5945 0.0787, -0.0433 -0.5945 0.0787, -0.1339 -0.5906 0.0787, -0.0433 -0.5906 0.0787, -0.0433 -0.4783 0.0, -0.0433 -0.4783 -0.0079, -0.0449 -0.4666 -0.0079, -0.0449 -0.4666 0.0, -0.0494 -0.4557 -0.0079, -0.0494 -0.4557 0.0, -0.0566 -0.4463 -0.0079, -0.0566 -0.4463 0.0, -0.0659 -0.4391 -0.0079, -0.0659 -0.4391 0.0, -0.0769 -0.4346 -0.0079, -0.0769 -0.4346 0.0, -0.0886 -0.4331 -0.0079, -0.0886 -0.4331 0.0, -0.1003 -0.4346 -0.0079, -0.1003 -0.4346 0.0, -0.1112 -0.4391 -0.0079, -0.1112 -0.4391 0.0, -0.1206 -0.4463 -0.0079, -0.1206 -0.4463 0.0, -0.1278 -0.4557 -0.0079, -0.1278 -0.4557 0.0, -0.1323 -0.4666 -0.0079, -0.1323 -0.4666 0.0, -0.1339 -0.4783 -0.0079, -0.1339 -0.4783 0.0, -0.1339 -0.5906 0.0, -0.1339 -0.5945 -0.0079, -0.0433 -0.5906 0.0, -0.0433 -0.5945 -0.0079, 0.2205 -0.5906 0.0787, 0.2205 -0.5945 0.0787, 0.311 -0.5906 0.0787, 0.311 -0.5945 0.0787, 0.311 -0.4783 0.0, 0.311 -0.4783 -0.0079, 0.3095 -0.4666 -0.0079, 0.3095 -0.4666 0.0, 0.305 -0.4557 -0.0079, 0.305 -0.4557 0.0, 0.2978 -0.4463 -0.0079, 0.2978 -0.4463 0.0, 0.2884 -0.4391 -0.0079, 0.2884 -0.4391 0.0, 0.2775 -0.4346 -0.0079, 0.2775 -0.4346 0.0, 0.2657 -0.4331 -0.0079, 0.2657 -0.4331 0.0, 0.254 -0.4346 -0.0079, 0.254 -0.4346 0.0, 0.2431 -0.4391 -0.0079, 0.2431 -0.4391 0.0, 0.2337 -0.4463 -0.0079, 0.2337 -0.4463 0.0, 0.2265 -0.4557 -0.0079, 0.2265 -0.4557 0.0, 0.222 -0.4666 -0.0079, 0.222 -0.4666 0.0, 0.2205 -0.4783 -0.0079, 0.2205 -0.4783 0.0, 0.2205 -0.5906 0.0, 0.2205 -0.5945 -0.0079, 0.311 -0.5906 0.0, 0.311 -0.5945 -0.0079, 0.3976 -0.5906 0.0787, 0.3976 -0.5945 0.0787, 0.4882 -0.5906 0.0787, 0.4882 -0.5945 0.0787, 0.4882 -0.4783 0.0, 0.4882 -0.4783 -0.0079, 0.4866 -0.4666 -0.0079, 0.4866 -0.4666 0.0, 0.4821 -0.4557 -0.0079, 0.4821 -0.4557 0.0, 0.4749 -0.4463 -0.0079, 0.4749 -0.4463 0.0, 0.4656 -0.4391 -0.0079, 0.4656 -0.4391 0.0, 0.4546 -0.4346 -0.0079, 0.4546 -0.4346 0.0, 0.4429 -0.4331 -0.0079, 0.4429 -0.4331 0.0, 0.4312 -0.4346 -0.0079, 0.4312 -0.4346 0.0, 0.4203 -0.4391 -0.0079, 0.4203 -0.4391 0.0, 0.4109 -0.4463 -0.0079, 0.4109 -0.4463 0.0, 0.4037 -0.4557 -0.0079, 0.4037 -0.4557 0.0, 0.3992 -0.4666 -0.0079, 0.3992 -0.4666 0.0, 0.3976 -0.4783 -0.0079, 0.3976 -0.4783 0.0, 0.3976 -0.5906 0.0, 0.3976 -0.5945 -0.0079, 0.4882 -0.5906 0.0, 0.4882 -0.5945 -0.0079, -0.4882 -0.5945 0.0787, -0.3976 -0.5945 0.0787, -0.4882 -0.5906 0.0787, -0.3976 -0.5906 0.0787, -0.3976 -0.4783 0.0, -0.3976 -0.4783 -0.0079, -0.3992 -0.4666 -0.0079, -0.3992 -0.4666 0.0, -0.4037 -0.4557 -0.0079, -0.4037 -0.4557 0.0, -0.4109 -0.4463 -0.0079, -0.4109 -0.4463 0.0, -0.4203 -0.4391 -0.0079, -0.4203 -0.4391 0.0, -0.4312 -0.4346 -0.0079, -0.4312 -0.4346 0.0, -0.4429 -0.4331 -0.0079, -0.4429 -0.4331 0.0, -0.4546 -0.4346 -0.0079, -0.4546 -0.4346 0.0, -0.4656 -0.4391 -0.0079, -0.4656 -0.4391 0.0, -0.4749 -0.4463 -0.0079, -0.4749 -0.4463 0.0, -0.4821 -0.4557 -0.0079, -0.4821 -0.4557 0.0, -0.4866 -0.4666 -0.0079, -0.4866 -0.4666 0.0, -0.4882 -0.4783 -0.0079, -0.4882 -0.4783 0.0, -0.4882 -0.5906 0.0, -0.4882 -0.5945 -0.0079, -0.3976 -0.5906 0.0, -0.3976 -0.5945 -0.0079, -0.311 -0.5945 0.0787, -0.2205 -0.5945 0.0787, -0.311 -0.5906 0.0787, -0.2205 -0.5906 0.0787, -0.2205 -0.4783 0.0, -0.2205 -0.4783 -0.0079, -0.222 -0.4666 -0.0079, -0.222 -0.4666 0.0, -0.2265 -0.4557 -0.0079, -0.2265 -0.4557 0.0, -0.2337 -0.4463 -0.0079, -0.2337 -0.4463 0.0, -0.2431 -0.4391 -0.0079, -0.2431 -0.4391 0.0, -0.254 -0.4346 -0.0079, -0.254 -0.4346 0.0, -0.2657 -0.4331 -0.0079, -0.2657 -0.4331 0.0, -0.2775 -0.4346 -0.0079, -0.2775 -0.4346 0.0, -0.2884 -0.4391 -0.0079, -0.2884 -0.4391 0.0, -0.2978 -0.4463 -0.0079, -0.2978 -0.4463 0.0, -0.305 -0.4557 -0.0079, -0.305 -0.4557 0.0, -0.3095 -0.4666 -0.0079, -0.3095 -0.4666 0.0, -0.311 -0.4783 -0.0079, -0.311 -0.4783 0.0, -0.311 -0.5906 0.0, -0.311 -0.5945 -0.0079, -0.2205 -0.5906 0.0, -0.2205 -0.5945 -0.0079, 0.4685 0.3248 -0.0079, 0.4685 0.3248 0.0, 0.4685 -0.0758 -0.0079, 0.4685 -0.3248 0.0, 0.4685 -0.3248 -0.0079, -0.4685 0.3248 -0.0079, -0.4685 0.3248 0.0, 0.0485 0.3248 -0.0079, -0.4685 -0.2264 -0.0079, -0.4685 -0.2264 0.0, -0.4685 -0.0758 -0.0079, -0.3701 -0.3248 -0.0079, -0.3701 -0.3248 0.0, 0.0485 -0.3248 -0.0079, 0.0485 -0.3248 -0.0079
            ]
        }
        coordIndex [
            0,1,2,-1,2,1,3,-1,2,3,4,-1,4,3,5,-1,4,5,6,-1,6,5,7,-1,6,7,8,-1,8,7,9,-1,8,9,10,-1,10,9,11,-1,10,11,12,-1,12,11,13,-1,12,13,14,-1,14,13,15,-1,14,15,16,-1,16,15,17,-1,16,17,18,-1,18,17,19,-1,18,19,20,-1,20,19,21,-1,20,21,22,-1,22,21,23,-1,22,23,24,-1,24,23,25,-1,24,25,26,-1,26,25,27,-1,26,27,28,-1,28,27,29,-1,28,29,30,-1,30,29,31,-1,30,31,32,-1,32,31,33,-1,32,33,34,-1,34,33,35,-1,34,35,36,-1,36,35,37,-1,36,37,38,-1,38,37,39,-1,38,39,40,-1,40,39,41,-1,40,41,42,-1,42,41,43,-1,42,43,44,-1,44,43,45,-1,44,45,46,-1,46,45,47,-1,46,47,0,-1,0,47,1,-1,44,46,48,-1,48,46,0,-1,48,0,2,-1,38,40,48,-1,48,40,42,-1,48,42,44,-1,32,34,48,-1,48,34,36,-1,48,36,38,-1,26,28,48,-1,48,28,30,-1,48,30,32,-1,20,22,48,-1,48,22,24,-1,48,24,26,-1,14,16,48,-1,48,16,18,-1,48,18,20,-1,8,10,48,-1,48,10,12,-1,48,12,14,-1,2,4,48,-1,48,4,6,-1,48,6,8,-1,49,50,51,-1,51,50,52,-1,51,52,53,-1,53,52,54,-1,53,54,55,-1,55,54,56,-1,55,56,57,-1,55,57,58,-1,58,57,59,-1,58,59,60,-1,60,59,61,-1,60,61,62,-1,62,61,63,-1,62,63,64,-1,64,63,65,-1,64,65,66,-1,66,65,67,-1,66,67,68,-1,68,67,69,-1,68,69,70,-1,70,69,71,-1,70,71,72,-1,72,71,73,-1,72,73,74,-1,74,73,75,-1,74,75,76,-1,76,75,77,-1,76,77,78,-1,78,77,79,-1,78,79,80,-1,80,79,81,-1,81,79,82,-1,81,82,49,-1,49,82,50,-1,54,52,82,-1,82,52,50,-1,75,73,65,-1,63,61,79,-1,79,61,59,-1,63,79,65,-1,65,79,77,-1,65,77,75,-1,73,71,65,-1,65,71,69,-1,65,69,67,-1,54,82,56,-1,56,82,79,-1,56,79,57,-1,57,79,59,-1,83,84,85,-1,85,84,86,-1,87,88,89,-1,87,89,90,-1,90,89,91,-1,90,91,92,-1,92,91,93,-1,92,93,94,-1,94,93,95,-1,94,95,96,-1,96,95,97,-1,96,97,98,-1,98,97,99,-1,98,99,100,-1,100,99,101,-1,100,101,102,-1,102,101,103,-1,102,103,104,-1,104,103,105,-1,104,105,106,-1,106,105,107,-1,106,107,108,-1,108,107,109,-1,108,109,110,-1,110,109,111,-1,110,111,112,-1,112,111,113,-1,113,111,114,-1,113,114,85,-1,85,114,83,-1,86,84,115,-1,115,84,116,-1,115,116,87,-1,87,116,88,-1,116,84,114,-1,114,84,83,-1,116,114,88,-1,88,114,111,-1,111,109,88,-1,88,109,107,-1,88,107,105,-1,105,103,88,-1,88,103,101,-1,88,101,89,-1,89,101,99,-1,89,99,97,-1,97,95,89,-1,89,95,93,-1,89,93,91,-1,117,118,119,-1,119,118,120,-1,119,120,121,-1,121,120,122,-1,121,122,123,-1,123,122,124,-1,123,124,125,-1,123,125,126,-1,126,125,127,-1,126,127,128,-1,128,127,129,-1,128,129,130,-1,130,129,131,-1,130,131,132,-1,132,131,133,-1,132,133,134,-1,134,133,135,-1,134,135,136,-1,136,135,137,-1,136,137,138,-1,138,137,139,-1,138,139,140,-1,140,139,141,-1,140,141,142,-1,142,141,143,-1,142,143,144,-1,144,143,145,-1,144,145,146,-1,146,145,147,-1,146,147,148,-1,148,147,149,-1,149,147,150,-1,149,150,117,-1,117,150,118,-1,122,120,150,-1,150,120,118,-1,137,135,133,-1,145,131,147,-1,147,131,129,-1,147,129,127,-1,122,150,124,-1,124,150,147,-1,124,147,125,-1,125,147,127,-1,145,143,131,-1,131,143,141,-1,131,141,133,-1,133,141,139,-1,133,139,137,-1,151,152,153,-1,153,152,154,-1,153,154,155,-1,155,154,156,-1,155,156,157,-1,157,156,158,-1,157,158,159,-1,157,159,160,-1,160,159,161,-1,160,161,162,-1,162,161,163,-1,162,163,164,-1,164,163,165,-1,164,165,166,-1,166,165,167,-1,166,167,168,-1,168,167,169,-1,168,169,170,-1,170,169,171,-1,170,171,172,-1,172,171,173,-1,172,173,174,-1,174,173,175,-1,174,175,176,-1,176,175,177,-1,176,177,178,-1,178,177,179,-1,178,179,180,-1,180,179,181,-1,180,181,182,-1,182,181,183,-1,183,181,184,-1,183,184,151,-1,151,184,152,-1,156,154,184,-1,184,154,152,-1,156,184,158,-1,158,184,181,-1,171,179,173,-1,173,179,177,-1,173,177,175,-1,163,161,181,-1,181,161,159,-1,181,159,158,-1,171,169,179,-1,179,169,167,-1,179,167,181,-1,181,167,165,-1,181,165,163,-1,185,186,187,-1,187,186,188,-1,187,188,189,-1,189,188,190,-1,189,190,191,-1,191,190,192,-1,191,192,193,-1,191,193,194,-1,194,193,195,-1,194,195,196,-1,196,195,197,-1,196,197,198,-1,198,197,199,-1,198,199,200,-1,200,199,201,-1,200,201,202,-1,202,201,203,-1,202,203,204,-1,204,203,205,-1,204,205,206,-1,206,205,207,-1,206,207,208,-1,208,207,209,-1,208,209,210,-1,210,209,211,-1,210,211,212,-1,212,211,213,-1,212,213,214,-1,214,213,215,-1,214,215,216,-1,216,215,217,-1,217,215,218,-1,217,218,185,-1,185,218,186,-1,190,188,218,-1,218,188,186,-1,190,218,192,-1,192,218,215,-1,215,213,192,-1,192,213,211,-1,192,211,209,-1,209,207,192,-1,192,207,205,-1,192,205,193,-1,193,205,203,-1,193,203,201,-1,201,199,193,-1,193,199,197,-1,193,197,195,-1,219,220,221,-1,221,220,222,-1,223,224,225,-1,223,225,226,-1,226,225,227,-1,226,227,228,-1,228,227,229,-1,228,229,230,-1,230,229,231,-1,230,231,232,-1,232,231,233,-1,232,233,234,-1,234,233,235,-1,234,235,236,-1,236,235,237,-1,236,237,238,-1,238,237,239,-1,238,239,240,-1,240,239,241,-1,240,241,242,-1,242,241,243,-1,242,243,244,-1,244,243,245,-1,244,245,246,-1,246,245,247,-1,246,247,248,-1,248,247,249,-1,249,247,250,-1,249,250,221,-1,221,250,219,-1,222,220,251,-1,251,220,252,-1,251,252,223,-1,223,252,224,-1,252,220,250,-1,250,220,219,-1,252,250,224,-1,224,250,247,-1,237,245,239,-1,239,245,243,-1,239,243,241,-1,229,227,247,-1,247,227,225,-1,247,225,224,-1,237,235,245,-1,245,235,233,-1,245,233,247,-1,247,233,231,-1,247,231,229,-1,253,254,255,-1,255,254,256,-1,257,258,259,-1,257,259,260,-1,260,259,261,-1,260,261,262,-1,262,261,263,-1,262,263,264,-1,264,263,265,-1,264,265,266,-1,266,265,267,-1,266,267,268,-1,268,267,269,-1,268,269,270,-1,270,269,271,-1,270,271,272,-1,272,271,273,-1,272,273,274,-1,274,273,275,-1,274,275,276,-1,276,275,277,-1,276,277,278,-1,278,277,279,-1,278,279,280,-1,280,279,281,-1,280,281,282,-1,282,281,283,-1,283,281,284,-1,283,284,255,-1,255,284,253,-1,256,254,285,-1,285,254,286,-1,285,286,257,-1,257,286,258,-1,286,254,284,-1,284,254,253,-1,277,275,267,-1,261,281,263,-1,263,281,265,-1,286,284,258,-1,258,284,281,-1,258,281,259,-1,259,281,261,-1,265,281,267,-1,267,281,279,-1,267,279,277,-1,275,273,267,-1,267,273,271,-1,267,271,269,-1,287,288,289,-1,289,288,290,-1,291,292,293,-1,291,293,294,-1,294,293,295,-1,294,295,296,-1,296,295,297,-1,296,297,298,-1,298,297,299,-1,298,299,300,-1,300,299,301,-1,300,301,302,-1,302,301,303,-1,302,303,304,-1,304,303,305,-1,304,305,306,-1,306,305,307,-1,306,307,308,-1,308,307,309,-1,308,309,310,-1,310,309,311,-1,310,311,312,-1,312,311,313,-1,312,313,314,-1,314,313,315,-1,314,315,316,-1,316,315,317,-1,317,315,318,-1,317,318,289,-1,289,318,287,-1,290,288,319,-1,319,288,320,-1,319,320,291,-1,291,320,292,-1,320,288,318,-1,318,288,287,-1,297,295,315,-1,320,318,292,-1,292,318,315,-1,292,315,293,-1,293,315,295,-1,311,309,299,-1,299,309,307,-1,299,307,301,-1,301,307,305,-1,301,305,303,-1,297,315,299,-1,299,315,313,-1,299,313,311,-1,321,322,323,-1,323,322,324,-1,325,326,327,-1,325,327,328,-1,328,327,329,-1,328,329,330,-1,330,329,331,-1,330,331,332,-1,332,331,333,-1,332,333,334,-1,334,333,335,-1,334,335,336,-1,336,335,337,-1,336,337,338,-1,338,337,339,-1,338,339,340,-1,340,339,341,-1,340,341,342,-1,342,341,343,-1,342,343,344,-1,344,343,345,-1,344,345,346,-1,346,345,347,-1,346,347,348,-1,348,347,349,-1,348,349,350,-1,350,349,351,-1,351,349,352,-1,351,352,321,-1,321,352,322,-1,323,324,353,-1,353,324,354,-1,353,354,325,-1,325,354,326,-1,354,324,352,-1,352,324,322,-1,326,354,352,-1,352,349,326,-1,326,349,347,-1,326,347,345,-1,345,343,326,-1,326,343,341,-1,326,341,339,-1,331,329,333,-1,333,329,327,-1,333,327,326,-1,339,337,326,-1,326,337,335,-1,326,335,333,-1,355,356,357,-1,357,356,358,-1,359,360,361,-1,359,361,362,-1,362,361,363,-1,362,363,364,-1,364,363,365,-1,364,365,366,-1,366,365,367,-1,366,367,368,-1,368,367,369,-1,368,369,370,-1,370,369,371,-1,370,371,372,-1,372,371,373,-1,372,373,374,-1,374,373,375,-1,374,375,376,-1,376,375,377,-1,376,377,378,-1,378,377,379,-1,378,379,380,-1,380,379,381,-1,380,381,382,-1,382,381,383,-1,382,383,384,-1,384,383,385,-1,385,383,386,-1,385,386,355,-1,355,386,356,-1,357,358,387,-1,387,358,388,-1,387,388,359,-1,359,388,360,-1,388,358,386,-1,386,358,356,-1,388,386,360,-1,360,386,383,-1,360,383,381,-1,381,379,360,-1,360,379,377,-1,360,377,375,-1,375,373,360,-1,360,373,371,-1,360,371,369,-1,369,367,365,-1,365,363,369,-1,369,363,361,-1,369,361,360,-1,389,390,391,-1,391,390,392,-1,393,394,395,-1,393,395,396,-1,396,395,397,-1,396,397,398,-1,398,397,399,-1,398,399,400,-1,400,399,401,-1,400,401,402,-1,402,401,403,-1,402,403,404,-1,404,403,405,-1,404,405,406,-1,406,405,407,-1,406,407,408,-1,408,407,409,-1,408,409,410,-1,410,409,411,-1,410,411,412,-1,412,411,413,-1,412,413,414,-1,414,413,415,-1,414,415,416,-1,416,415,417,-1,416,417,418,-1,418,417,419,-1,419,417,420,-1,419,420,391,-1,391,420,389,-1,392,390,421,-1,421,390,422,-1,421,422,393,-1,393,422,394,-1,422,390,420,-1,420,390,389,-1,422,420,394,-1,394,420,417,-1,394,417,415,-1,415,413,394,-1,394,413,411,-1,394,411,409,-1,409,407,394,-1,394,407,405,-1,394,405,403,-1,403,401,399,-1,399,397,403,-1,403,397,395,-1,403,395,394,-1,423,424,425,-1,425,424,426,-1,427,428,429,-1,427,429,430,-1,430,429,431,-1,430,431,432,-1,432,431,433,-1,432,433,434,-1,434,433,435,-1,434,435,436,-1,436,435,437,-1,436,437,438,-1,438,437,439,-1,438,439,440,-1,440,439,441,-1,440,441,442,-1,442,441,443,-1,442,443,444,-1,444,443,445,-1,444,445,446,-1,446,445,447,-1,446,447,448,-1,448,447,449,-1,448,449,450,-1,450,449,451,-1,450,451,452,-1,452,451,453,-1,453,451,454,-1,453,454,425,-1,425,454,423,-1,426,424,455,-1,455,424,456,-1,455,456,427,-1,427,456,428,-1,456,424,454,-1,454,424,423,-1,428,456,454,-1,454,451,428,-1,428,451,449,-1,428,449,447,-1,447,445,428,-1,428,445,443,-1,428,443,441,-1,433,431,435,-1,435,431,429,-1,435,429,428,-1,441,439,428,-1,428,439,437,-1,428,437,435,-1,457,458,459,-1,459,458,460,-1,459,460,461,-1,462,463,464,-1,464,463,458,-1,464,458,457,-1,465,466,467,-1,467,466,463,-1,467,463,462,-1,465,468,466,-1,466,468,469,-1,461,460,470,-1,470,460,469,-1,470,469,468,-1,
        ]
    }
}
Shape{
    appearance Appearance {
        material  Material 	{
            diffuseColor 0.0 0.0 0.0
            specularColor 0.0 0.0 0.0
            ambientIntensity 0.2
            transparency 0
            shininess 0.5
        }
    }
    geometry IndexedFaceSet {
        ccw TRUE
        solid FALSE
        coord DEF co Coordinate {
            point [
                -0.3235 -0.0307 -0.0039, -0.3235 -0.0307 -0.0079, -0.3395 -0.0749 -0.0039, -0.3395 -0.0749 -0.0079, -0.2585 -0.0307 -0.0039, -0.2585 -0.0307 -0.0079, -0.2434 -0.0749 -0.0039, -0.2434 -0.0749 -0.0079, -0.2204 -0.0749 -0.0039, -0.2204 -0.0749 -0.0079, -0.2799 0.0826 -0.0039, -0.2799 0.0826 -0.0079, -0.3011 0.0826 -0.0039, -0.3011 0.0826 -0.0079, -0.3625 -0.0749 -0.0039, -0.3625 -0.0749 -0.0079, -0.2638 -0.0134 -0.0039, -0.3164 -0.0134 -0.0039, -0.2873 0.0524 -0.0039, -0.2888 0.0578 -0.0039, -0.2898 0.0634 -0.0039, -0.2903 0.0634 -0.0039, -0.2913 0.0579 -0.0039, -0.2927 0.0524 -0.0039, -0.2903 0.0634 -0.0079, -0.2913 0.0579 -0.0079, -0.2927 0.0524 -0.0079, -0.2898 0.0634 -0.0079, -0.2873 0.0524 -0.0079, -0.2888 0.0578 -0.0079, -0.2638 -0.0134 -0.0079, -0.3164 -0.0134 -0.0079, -0.1266 0.0826 -0.0039, -0.1266 0.0826 -0.0079, -0.0821 0.0826 -0.0039, -0.0821 0.0826 -0.0079, -0.2089 0.0059 -0.0039, -0.2089 0.0059 -0.0079, -0.2069 0.025 -0.0079, -0.2069 0.025 -0.0039, -0.2017 0.0404 -0.0079, -0.2017 0.0404 -0.0039, -0.1933 0.0535 -0.0079, -0.1933 0.0535 -0.0039, -0.1818 0.0648 -0.0079, -0.1818 0.0648 -0.0039, -0.1659 0.0746 -0.0079, -0.1659 0.0746 -0.0039, -0.1472 0.0807 -0.0079, -0.1472 0.0807 -0.0039, -0.1249 -0.0749 -0.0039, -0.1249 -0.0749 -0.0079, -0.1458 -0.0729 -0.0079, -0.1458 -0.0729 -0.0039, -0.1639 -0.0672 -0.0079, -0.1639 -0.0672 -0.0039, -0.18 -0.0575 -0.0079, -0.18 -0.0575 -0.0039, -0.1927 -0.0448 -0.0079, -0.1927 -0.0448 -0.0039, -0.2015 -0.0306 -0.0079, -0.2015 -0.0306 -0.0039, -0.207 -0.0138 -0.0079, -0.207 -0.0138 -0.0039, -0.0821 -0.0749 -0.0039, -0.0821 -0.0749 -0.0079, -0.1256 -0.0576 -0.0039, -0.1422 -0.056 -0.0039, -0.1556 -0.0518 -0.0039, -0.1663 -0.0454 -0.0039, -0.1751 -0.0367 -0.0039, -0.1817 -0.0258 -0.0039, -0.1863 -0.011 -0.0039, -0.1877 0.0054 -0.0039, -0.1864 0.0211 -0.0039, -0.1827 0.0337 -0.0039, -0.1772 0.0434 -0.0039, -0.1695 0.0515 -0.0039, -0.158 0.0589 -0.0039, -0.145 0.0634 -0.0039, -0.1265 0.0653 -0.0039, -0.1032 0.0653 -0.0039, -0.1032 -0.0576 -0.0039, -0.1256 -0.0576 -0.0079, -0.1032 -0.0576 -0.0079, -0.1877 0.0054 -0.0079, -0.1863 -0.011 -0.0079, -0.1817 -0.0258 -0.0079, -0.1751 -0.0367 -0.0079, -0.1663 -0.0454 -0.0079, -0.1556 -0.0518 -0.0079, -0.1422 -0.056 -0.0079, -0.1265 0.0653 -0.0079, -0.145 0.0634 -0.0079, -0.158 0.0589 -0.0079, -0.1695 0.0515 -0.0079, -0.1772 0.0434 -0.0079, -0.1827 0.0337 -0.0079, -0.1864 0.0211 -0.0079, -0.1032 0.0653 -0.0079, 0.0331 0.0826 -0.0039, 0.0331 0.0826 -0.0079, 0.0331 -0.0749 -0.0039, 0.0331 -0.0749 -0.0079, -0.0475 0.0826 -0.0039, -0.0475 0.0826 -0.0079, -0.0475 0.0653 -0.0039, -0.0475 0.0653 -0.0079, 0.012 0.0653 -0.0039, 0.012 0.0653 -0.0079, 0.012 0.0135 -0.0039, 0.012 0.0135 -0.0079, -0.0437 0.0135 -0.0039, -0.0437 0.0135 -0.0079, -0.0437 -0.0038 -0.0039, -0.0437 -0.0038 -0.0079, 0.012 -0.0038 -0.0039, 0.012 -0.0038 -0.0079, 0.012 -0.0576 -0.0039, 0.012 -0.0576 -0.0079, -0.0514 -0.0576 -0.0039, -0.0514 -0.0576 -0.0079, -0.0514 -0.0749 -0.0039, -0.0514 -0.0749 -0.0079, 0.1072 -0.0768 -0.0079, 0.1072 -0.0768 -0.0039, 0.1167 -0.0758 -0.0079, 0.126 -0.0749 -0.0039, 0.126 -0.0749 -0.0079, 0.1416 -0.0696 -0.0039, 0.1416 -0.0696 -0.0079, 0.1543 -0.0616 -0.0039, 0.1543 -0.0616 -0.0079, 0.1662 -0.0492 -0.0039, 0.1662 -0.0492 -0.0079, 0.1746 -0.0343 -0.0039, 0.1746 -0.0343 -0.0079, 0.1794 -0.0176 -0.0039, 0.1794 -0.0176 -0.0079, 0.181 0.0009 -0.0039, 0.181 0.0009 -0.0079, 0.1009 0.0845 -0.0039, 0.1009 0.0845 -0.0079, 0.1182 0.083 -0.0079, 0.1182 0.083 -0.0039, 0.1357 0.0775 -0.0079, 0.1357 0.0775 -0.0039, 0.1506 0.0685 -0.0079, 0.1506 0.0685 -0.0039, 0.1644 0.0547 -0.0079, 0.1644 0.0547 -0.0039, 0.1733 0.0397 -0.0079, 0.1733 0.0397 -0.0039, 0.1792 0.0212 -0.0079, 0.1792 0.0212 -0.0039, 0.0638 0.0783 -0.0039, 0.0638 0.0783 -0.0079, 0.082 0.0832 -0.0079, 0.082 0.0832 -0.0039, 0.0638 0.0572 -0.0039, 0.0638 0.0572 -0.0079, 0.1007 0.0673 -0.0039, 0.1007 0.0673 -0.0079, 0.0816 0.0648 -0.0079, 0.0816 0.0648 -0.0039, 0.1599 0.0022 -0.0039, 0.1599 0.0022 -0.0079, 0.1591 0.0145 -0.0079, 0.1591 0.0145 -0.0039, 0.1549 0.0313 -0.0079, 0.1549 0.0313 -0.0039, 0.1484 0.0435 -0.0079, 0.1484 0.0435 -0.0039, 0.1389 0.054 -0.0079, 0.1389 0.054 -0.0039, 0.128 0.0613 -0.0079, 0.128 0.0613 -0.0039, 0.1162 0.0655 -0.0079, 0.1162 0.0655 -0.0039, 0.1043 -0.0595 -0.0039, 0.1043 -0.0595 -0.0079, 0.1192 -0.0578 -0.0079, 0.1192 -0.0578 -0.0039, 0.1307 -0.0535 -0.0079, 0.1307 -0.0535 -0.0039, 0.1403 -0.0469 -0.0079, 0.1403 -0.0469 -0.0039, 0.1474 -0.0394 -0.0079, 0.1474 -0.0394 -0.0039, 0.1539 -0.0285 -0.0079, 0.1539 -0.0285 -0.0039, 0.1583 -0.0148 -0.0079, 0.1583 -0.0148 -0.0039, 0.0638 -0.0494 -0.0039, 0.0638 -0.0494 -0.0079, 0.0667 -0.051 -0.0079, 0.0667 -0.051 -0.0039, 0.0834 -0.0572 -0.0079, 0.0834 -0.0572 -0.0039, 0.0638 -0.0667 -0.0039, 0.0638 -0.0667 -0.0079, 0.0806 -0.0736 -0.0039, 0.1029 -0.0767 -0.0079, 0.1029 -0.0767 -0.0039, 0.0965 -0.0758 -0.0079, 0.0806 -0.0736 -0.0079, 0.2751 0.0826 -0.0039, 0.2751 0.0826 -0.0079, 0.2751 -0.0749 -0.0039, 0.2751 -0.0749 -0.0079, 0.254 0.0826 -0.0039, 0.254 0.0826 -0.0079, 0.254 -0.0576 -0.0039, 0.254 -0.0576 -0.0079, 0.1944 -0.0576 -0.0039, 0.1944 -0.0576 -0.0079, 0.1944 -0.0749 -0.0039, 0.1944 -0.0749 -0.0079, 0.1944 -0.0749 -0.0079
            ]
        }
        coordIndex [
            0,1,2,-1,2,1,3,-1,4,5,0,-1,0,5,1,-1,6,7,4,-1,4,7,5,-1,8,9,6,-1,6,9,7,-1,10,11,8,-1,8,11,9,-1,12,13,10,-1,10,13,11,-1,14,15,12,-1,12,15,13,-1,14,2,15,-1,15,2,3,-1,16,4,17,-1,17,4,0,-1,18,10,16,-1,16,10,8,-1,16,8,4,-1,4,8,6,-1,18,19,10,-1,10,19,20,-1,10,20,12,-1,12,20,21,-1,12,21,22,-1,22,23,12,-1,12,23,17,-1,12,17,14,-1,14,17,0,-1,14,0,2,-1,21,24,25,-1,21,25,22,-1,22,25,26,-1,22,26,23,-1,20,27,21,-1,21,27,24,-1,18,28,29,-1,18,29,19,-1,19,29,27,-1,19,27,20,-1,16,30,18,-1,18,30,28,-1,17,31,16,-1,16,31,30,-1,26,31,23,-1,23,31,17,-1,32,33,34,-1,34,33,35,-1,36,37,38,-1,36,38,39,-1,39,38,40,-1,39,40,41,-1,41,40,42,-1,41,42,43,-1,43,42,44,-1,43,44,45,-1,45,44,46,-1,45,46,47,-1,47,46,48,-1,47,48,49,-1,49,48,33,-1,49,33,32,-1,50,51,52,-1,50,52,53,-1,53,52,54,-1,53,54,55,-1,55,54,56,-1,55,56,57,-1,57,56,58,-1,57,58,59,-1,59,58,60,-1,59,60,61,-1,61,60,62,-1,61,62,63,-1,63,62,37,-1,63,37,36,-1,64,65,50,-1,50,65,51,-1,64,34,65,-1,65,34,35,-1,66,50,67,-1,67,50,53,-1,67,53,68,-1,68,53,55,-1,68,55,69,-1,69,55,57,-1,69,57,70,-1,70,57,59,-1,70,59,71,-1,71,59,61,-1,71,61,72,-1,72,61,63,-1,72,63,73,-1,73,63,36,-1,73,36,74,-1,74,36,39,-1,74,39,75,-1,75,39,41,-1,75,41,76,-1,76,41,43,-1,76,43,77,-1,77,43,45,-1,77,45,78,-1,78,45,47,-1,78,47,79,-1,79,47,49,-1,79,49,80,-1,80,49,32,-1,80,32,81,-1,81,32,34,-1,81,34,82,-1,82,34,64,-1,82,64,66,-1,66,64,50,-1,66,83,82,-1,82,83,84,-1,73,85,86,-1,73,86,72,-1,72,86,87,-1,72,87,71,-1,71,87,88,-1,71,88,70,-1,70,88,89,-1,70,89,69,-1,69,89,90,-1,69,90,68,-1,68,90,91,-1,68,91,67,-1,67,91,83,-1,67,83,66,-1,80,92,93,-1,80,93,79,-1,79,93,94,-1,79,94,78,-1,78,94,95,-1,78,95,77,-1,77,95,96,-1,77,96,76,-1,76,96,97,-1,76,97,75,-1,75,97,98,-1,75,98,74,-1,74,98,85,-1,74,85,73,-1,81,99,80,-1,80,99,92,-1,84,99,82,-1,82,99,81,-1,100,101,102,-1,102,101,103,-1,104,105,100,-1,100,105,101,-1,106,107,104,-1,104,107,105,-1,108,109,106,-1,106,109,107,-1,110,111,108,-1,108,111,109,-1,112,113,110,-1,110,113,111,-1,114,115,112,-1,112,115,113,-1,116,117,114,-1,114,117,115,-1,118,119,116,-1,116,119,117,-1,120,121,118,-1,118,121,119,-1,122,123,120,-1,120,123,121,-1,122,102,123,-1,123,102,103,-1,102,122,120,-1,120,118,102,-1,102,118,116,-1,102,116,100,-1,106,104,108,-1,108,104,100,-1,108,100,110,-1,110,100,116,-1,110,116,112,-1,112,116,114,-1,124,125,126,-1,126,125,127,-1,126,127,128,-1,128,127,129,-1,128,129,130,-1,130,129,131,-1,130,131,132,-1,132,131,133,-1,132,133,134,-1,134,133,135,-1,134,135,136,-1,136,135,137,-1,136,137,138,-1,138,137,139,-1,138,139,140,-1,141,142,143,-1,141,143,144,-1,144,143,145,-1,144,145,146,-1,146,145,147,-1,146,147,148,-1,148,147,149,-1,148,149,150,-1,150,149,151,-1,150,151,152,-1,152,151,153,-1,152,153,154,-1,154,153,140,-1,154,140,139,-1,155,156,157,-1,155,157,158,-1,158,157,142,-1,158,142,141,-1,159,160,155,-1,155,160,156,-1,161,162,163,-1,161,163,164,-1,164,163,160,-1,164,160,159,-1,165,166,167,-1,165,167,168,-1,168,167,169,-1,168,169,170,-1,170,169,171,-1,170,171,172,-1,172,171,173,-1,172,173,174,-1,174,173,175,-1,174,175,176,-1,176,175,177,-1,176,177,178,-1,178,177,162,-1,178,162,161,-1,179,180,181,-1,179,181,182,-1,182,181,183,-1,182,183,184,-1,184,183,185,-1,184,185,186,-1,186,185,187,-1,186,187,188,-1,188,187,189,-1,188,189,190,-1,190,189,191,-1,190,191,192,-1,192,191,166,-1,192,166,165,-1,193,194,195,-1,193,195,196,-1,196,195,197,-1,196,197,198,-1,198,197,180,-1,198,180,179,-1,199,200,193,-1,193,200,194,-1,200,199,201,-1,125,124,202,-1,125,202,203,-1,203,202,204,-1,203,204,201,-1,201,204,205,-1,201,205,200,-1,182,125,179,-1,179,125,203,-1,179,203,198,-1,198,203,201,-1,198,201,196,-1,196,201,199,-1,196,199,193,-1,159,155,164,-1,164,155,158,-1,164,158,161,-1,161,158,141,-1,161,141,178,-1,178,141,144,-1,178,144,176,-1,176,144,146,-1,176,146,174,-1,174,146,148,-1,174,148,172,-1,172,148,150,-1,172,150,170,-1,170,150,152,-1,170,152,168,-1,168,152,154,-1,168,154,165,-1,165,154,139,-1,165,139,192,-1,192,139,137,-1,192,137,190,-1,190,137,135,-1,190,135,188,-1,188,135,133,-1,188,133,186,-1,186,133,131,-1,186,131,184,-1,184,131,129,-1,184,129,182,-1,182,129,127,-1,182,127,125,-1,206,207,208,-1,208,207,209,-1,210,211,206,-1,206,211,207,-1,212,213,210,-1,210,213,211,-1,214,215,212,-1,212,215,213,-1,216,217,214,-1,214,217,215,-1,216,208,217,-1,217,208,209,-1,210,206,212,-1,212,206,208,-1,212,208,214,-1,214,208,216,-1,
        ]
    }
}
Shape{
    appearance Appearance {
        material  Material 	{
            diffuseColor 0.7529411764705882 0.7529411764705882 0.7529411764705882
            specularColor 0.3764705882352941 0.3764705882352941 0.3764705882352941
            ambientIntensity 0.2
            transparency 0
            shininess 0.5
        }
    }
    geometry IndexedFaceSet {
        ccw TRUE
        solid FALSE
        coord DEF co Coordinate {
            point [
                -0.2638 -0.0134 -0.0079, -0.3164 -0.0134 -0.0079, -0.2873 0.0524 -0.0079, -0.2927 0.0524 -0.0079, -0.2888 0.0578 -0.0079, -0.2913 0.0579 -0.0079, -0.2898 0.0634 -0.0079, -0.2903 0.0634 -0.0079, -0.1032 0.0653 -0.0079, -0.1032 -0.0576 -0.0079, -0.1265 0.0653 -0.0079, -0.1256 -0.0576 -0.0079, -0.1422 -0.056 -0.0079, -0.1877 0.0054 -0.0079, -0.1864 0.0211 -0.0079, -0.1827 0.0337 -0.0079, -0.145 0.0634 -0.0079, -0.1556 -0.0518 -0.0079, -0.1663 -0.0454 -0.0079, -0.1751 -0.0367 -0.0079, -0.1817 -0.0258 -0.0079, -0.1863 -0.011 -0.0079, -0.1772 0.0434 -0.0079, -0.1695 0.0515 -0.0079, -0.158 0.0589 -0.0079, -0.158 0.0589 -0.0079
            ]
        }
        coordIndex [
            0,1,2,-1,2,1,3,-1,2,3,4,-1,4,3,5,-1,4,5,6,-1,6,5,7,-1,8,9,10,-1,10,9,11,-1,10,11,12,-1,13,14,10,-1,10,14,15,-1,10,15,16,-1,12,17,10,-1,10,17,18,-1,10,18,19,-1,19,20,10,-1,10,20,21,-1,10,21,13,-1,22,23,15,-1,15,23,24,-1,15,24,16,-1,
        ]
    }
}