#VRML V2.0 utf8
# 3D model generated by easyeda2kicad.py (https://github.com/uPesy/easyeda2kicad.py)

Shape{
    appearance Appearance {
        material  Material 	{
            diffuseColor 0.9686274509803922 0.8784313725490196 0.6
            specularColor 0.6784313725490196 0.615686274509804 0.4196078431372549
            ambientIntensity 0.2
            transparency 0
            shininess 0.5
        }
    }
    geometry IndexedFaceSet {
        ccw TRUE
        solid FALSE
        coord DEF co Coordinate {
            point [
                -0.1181 -0.4331 0.0079, -0.1181 -0.5906 0.0079, -0.1969 -0.4331 0.0079, -0.1969 -0.5906 0.0079, -0.1969 -0.4331 0.0787, -0.1181 -0.4331 0.0787, -0.1969 -0.5906 0.0787, -0.1181 -0.5906 0.0787, 0.5906 0.3543 0.0079, 0.4803 0.3543 0.0079, 0.5906 0.2756 0.0079, 0.4331 0.3071 0.0079, 0.4331 0.2756 0.0079, 0.5906 0.3543 0.0, 0.4803 0.3543 0.0, 0.4331 0.3071 0.0, 0.5906 0.2756 0.0, 0.4331 0.2756 0.0, -0.1181 0.5906 0.0079, -0.1969 0.5906 0.0079, -0.1181 0.4331 0.0079, -0.1969 0.4331 0.0079, -0.1969 0.5906 0.0, -0.1969 0.4331 0.0, -0.1181 0.5906 0.0, -0.1181 0.4331 0.0, 0.5906 0.1181 0.0079, 0.5906 0.1969 0.0079, 0.4331 0.1181 0.0079, 0.4331 0.1969 0.0079, 0.5906 0.1969 0.0, 0.4331 0.1969 0.0, 0.5906 0.1181 0.0, 0.4331 0.1181 0.0, 0.5906 -0.3543 0.0079, 0.4803 -0.3543 0.0079, 0.5906 -0.2756 0.0079, 0.4331 -0.3071 0.0079, 0.4331 -0.2756 0.0079, 0.4803 -0.3543 0.0787, 0.4331 -0.3071 0.0787, 0.5906 -0.3543 0.0787, 0.5906 -0.2756 0.0787, 0.4331 -0.2756 0.0787, -0.3543 0.5906 0.0079, -0.3543 0.4803 0.0079, -0.2756 0.5906 0.0079, -0.3071 0.4331 0.0079, -0.2756 0.4331 0.0079, -0.3543 0.5906 0.0, -0.3543 0.4803 0.0, -0.3071 0.4331 0.0, -0.2756 0.5906 0.0, -0.2756 0.4331 0.0, 0.5906 -0.0394 0.0079, 0.5906 -0.0394 0.0787, 0.4331 -0.0394 0.0079, 0.4331 -0.0394 0.0787, 0.4331 0.0394 0.0787, 0.4331 0.0394 0.0079, 0.5906 0.0394 0.0787, 0.5906 0.0394 0.0079, -0.5906 0.0394 0.0079, -0.5906 0.0394 0.0787, -0.4331 0.0394 0.0079, -0.4331 0.0394 0.0787, -0.4331 -0.0394 0.0787, -0.4331 -0.0394 0.0079, -0.5906 -0.0394 0.0787, -0.5906 -0.0394 0.0079, -0.5906 -0.1181 0.0079, -0.5906 -0.1969 0.0079, -0.4331 -0.1181 0.0079, -0.4331 -0.1969 0.0079, -0.5906 -0.1969 0.0, -0.4331 -0.1969 0.0, -0.5906 -0.1181 0.0, -0.4331 -0.1181 0.0, -0.5906 -0.3543 0.0079, -0.4803 -0.3543 0.0079, -0.5906 -0.2756 0.0079, -0.4331 -0.3071 0.0079, -0.4331 -0.2756 0.0079, -0.5906 -0.3543 0.0, -0.4803 -0.3543 0.0, -0.4331 -0.3071 0.0, -0.5906 -0.2756 0.0, -0.4331 -0.2756 0.0, 0.0394 -0.4331 0.0079, 0.0394 -0.5906 0.0079, -0.0394 -0.4331 0.0079, -0.0394 -0.5906 0.0079, -0.0394 -0.4331 0.0787, 0.0394 -0.4331 0.0787, -0.0394 -0.5906 0.0787, 0.0394 -0.5906 0.0787, 0.5906 -0.1969 0.0079, 0.5906 -0.1181 0.0079, 0.4331 -0.1969 0.0079, 0.4331 -0.1181 0.0079, 0.5906 -0.1181 0.0, 0.4331 -0.1181 0.0, 0.5906 -0.1969 0.0, 0.4331 -0.1969 0.0, 0.1969 0.5906 0.0079, 0.1181 0.5906 0.0079, 0.1969 0.4331 0.0079, 0.1181 0.4331 0.0079, 0.1181 0.5906 0.0, 0.1181 0.4331 0.0, 0.1969 0.5906 0.0, 0.1969 0.4331 0.0, -0.5906 -0.2756 0.0787, -0.4331 -0.2756 0.0787, -0.4331 -0.3071 0.0787, -0.5906 -0.3543 0.0787, -0.4803 -0.3543 0.0787, 0.5906 0.0394 0.0, 0.4331 0.0394 0.0, 0.5906 -0.0394 0.0, 0.4331 -0.0394 0.0, 0.1969 -0.5906 0.0079, 0.1969 -0.4331 0.0079, 0.1181 -0.5906 0.0079, 0.1181 -0.4331 0.0079, 0.1181 -0.5906 0.0, 0.1969 -0.5906 0.0, 0.1969 -0.4331 0.0, 0.1181 -0.4331 0.0, 0.1969 0.5906 0.0787, 0.1969 0.4331 0.0787, 0.1181 0.4331 0.0787, 0.1181 0.5906 0.0787, -0.2756 0.5906 0.0787, -0.2756 0.4331 0.0787, -0.3071 0.4331 0.0787, -0.3543 0.5906 0.0787, -0.3543 0.4803 0.0787, -0.5906 0.1969 0.0079, -0.5906 0.1181 0.0079, -0.4331 0.1969 0.0079, -0.4331 0.1181 0.0079, -0.5906 0.1181 0.0, -0.4331 0.1181 0.0, -0.5906 0.1969 0.0, -0.4331 0.1969 0.0, 0.3543 0.4803 0.0079, 0.3543 0.5906 0.0079, 0.3071 0.4331 0.0079, 0.2756 0.5906 0.0079, 0.2756 0.4331 0.0079, 0.3543 0.5906 0.0, 0.2756 0.5906 0.0, 0.2756 0.4331 0.0, 0.3543 0.4803 0.0, 0.3071 0.4331 0.0, 0.0394 0.5906 0.0079, 0.0394 0.5906 0.0787, 0.0394 0.4331 0.0079, 0.0394 0.4331 0.0787, -0.0394 0.4331 0.0787, -0.0394 0.4331 0.0079, -0.0394 0.5906 0.0787, -0.0394 0.5906 0.0079, -0.0394 -0.5906 0.0, 0.0394 -0.5906 0.0, 0.0394 -0.4331 0.0, -0.0394 -0.4331 0.0, 0.1181 -0.4331 0.0787, 0.1969 -0.4331 0.0787, 0.1181 -0.5906 0.0787, 0.1969 -0.5906 0.0787, 0.3543 -0.5906 0.0079, 0.3543 -0.4803 0.0079, 0.2756 -0.5906 0.0079, 0.3071 -0.4331 0.0079, 0.2756 -0.4331 0.0079, 0.3543 -0.5906 0.0, 0.3543 -0.4803 0.0, 0.3071 -0.4331 0.0, 0.2756 -0.5906 0.0, 0.2756 -0.4331 0.0, 0.5906 -0.1969 0.0787, 0.4331 -0.1969 0.0787, 0.4331 -0.1181 0.0787, 0.5906 -0.1181 0.0787, 0.5906 0.1181 0.0787, 0.4331 0.1181 0.0787, 0.4331 0.1969 0.0787, 0.5906 0.1969 0.0787, -0.5906 -0.1181 0.0787, -0.4331 -0.1181 0.0787, -0.4331 -0.1969 0.0787, -0.5906 -0.1969 0.0787, 0.2756 -0.5906 0.0787, 0.2756 -0.4331 0.0787, 0.3071 -0.4331 0.0787, 0.3543 -0.5906 0.0787, 0.3543 -0.4803 0.0787, -0.5906 -0.0394 0.0, -0.4331 -0.0394 0.0, -0.5906 0.0394 0.0, -0.4331 0.0394 0.0, -0.3071 -0.4331 0.0079, -0.2756 -0.4331 0.0079, -0.3543 -0.4803 0.0079, -0.2756 -0.5906 0.0079, -0.3543 -0.5906 0.0079, -0.3543 -0.5906 0.0787, -0.3543 -0.4803 0.0787, -0.3071 -0.4331 0.0787, -0.2756 -0.4331 0.0787, -0.2756 -0.5906 0.0787, 0.3543 0.4803 0.0787, 0.3071 0.4331 0.0787, 0.3543 0.5906 0.0787, 0.2756 0.5906 0.0787, 0.2756 0.4331 0.0787, -0.5906 0.1969 0.0787, -0.4331 0.1969 0.0787, -0.4331 0.1181 0.0787, -0.5906 0.1181 0.0787, -0.4331 0.2756 0.0079, -0.4331 0.3071 0.0079, -0.5906 0.2756 0.0079, -0.4803 0.3543 0.0079, -0.5906 0.3543 0.0079, -0.5906 0.3543 0.0, -0.5906 0.2756 0.0, -0.4331 0.2756 0.0, -0.4331 0.3071 0.0, -0.4803 0.3543 0.0, -0.4803 0.3543 0.0787, -0.4331 0.3071 0.0787, -0.5906 0.3543 0.0787, -0.4331 0.2756 0.0787, -0.5906 0.2756 0.0787, -0.1969 -0.5906 0.0, -0.1181 -0.5906 0.0, -0.1181 -0.4331 0.0, -0.1969 -0.4331 0.0, -0.0394 0.5906 0.0, -0.0394 0.4331 0.0, 0.0394 0.5906 0.0, 0.0394 0.4331 0.0, 0.5906 -0.3543 0.0, 0.5906 -0.2756 0.0, 0.4331 -0.2756 0.0, 0.4803 -0.3543 0.0, 0.4331 -0.3071 0.0, -0.3543 -0.5906 0.0, -0.3543 -0.4803 0.0, -0.2756 -0.5906 0.0, -0.3071 -0.4331 0.0, -0.2756 -0.4331 0.0, 0.5906 0.2756 0.0787, 0.4331 0.2756 0.0787, 0.4331 0.3071 0.0787, 0.5906 0.3543 0.0787, 0.4803 0.3543 0.0787, -0.1181 0.5906 0.0787, -0.1181 0.4331 0.0787, -0.1969 0.4331 0.0787, -0.1969 0.5906 0.0787, -0.1969 0.5906 0.0787
            ]
        }
        coordIndex [
            0,1,2,-1,2,1,3,-1,4,5,2,-1,2,5,0,-1,3,6,2,-1,2,6,4,-1,7,5,6,-1,6,5,4,-1,5,7,0,-1,0,7,1,-1,6,3,7,-1,7,3,1,-1,8,9,10,-1,10,9,11,-1,10,11,12,-1,8,13,9,-1,9,13,14,-1,9,14,11,-1,11,14,15,-1,16,13,10,-1,10,13,8,-1,14,13,15,-1,15,13,16,-1,15,16,17,-1,11,15,12,-1,12,15,17,-1,17,16,12,-1,12,16,10,-1,18,19,20,-1,20,19,21,-1,19,22,21,-1,21,22,23,-1,24,22,18,-1,18,22,19,-1,25,23,24,-1,24,23,22,-1,21,23,20,-1,20,23,25,-1,25,24,20,-1,20,24,18,-1,26,27,28,-1,28,27,29,-1,27,30,29,-1,29,30,31,-1,32,30,26,-1,26,30,27,-1,33,31,32,-1,32,31,30,-1,29,31,28,-1,28,31,33,-1,33,32,28,-1,28,32,26,-1,34,35,36,-1,36,35,37,-1,36,37,38,-1,39,40,35,-1,35,40,37,-1,34,41,35,-1,35,41,39,-1,39,41,40,-1,40,41,42,-1,40,42,43,-1,40,43,37,-1,37,43,38,-1,43,42,38,-1,38,42,36,-1,41,34,42,-1,42,34,36,-1,44,45,46,-1,46,45,47,-1,46,47,48,-1,44,49,45,-1,45,49,50,-1,45,50,47,-1,47,50,51,-1,52,49,46,-1,46,49,44,-1,50,49,51,-1,51,49,52,-1,51,52,53,-1,47,51,48,-1,48,51,53,-1,53,52,48,-1,48,52,46,-1,54,55,56,-1,56,55,57,-1,57,58,56,-1,56,58,59,-1,58,57,60,-1,60,57,55,-1,58,60,59,-1,59,60,61,-1,61,54,59,-1,59,54,56,-1,55,54,60,-1,60,54,61,-1,62,63,64,-1,64,63,65,-1,65,66,64,-1,64,66,67,-1,66,65,68,-1,68,65,63,-1,66,68,67,-1,67,68,69,-1,69,62,67,-1,67,62,64,-1,63,62,68,-1,68,62,69,-1,70,71,72,-1,72,71,73,-1,71,74,73,-1,73,74,75,-1,76,74,70,-1,70,74,71,-1,77,75,76,-1,76,75,74,-1,73,75,72,-1,72,75,77,-1,77,76,72,-1,72,76,70,-1,78,79,80,-1,80,79,81,-1,80,81,82,-1,78,83,79,-1,79,83,84,-1,79,84,81,-1,81,84,85,-1,86,83,80,-1,80,83,78,-1,84,83,85,-1,85,83,86,-1,85,86,87,-1,81,85,82,-1,82,85,87,-1,87,86,82,-1,82,86,80,-1,88,89,90,-1,90,89,91,-1,92,93,90,-1,90,93,88,-1,91,94,90,-1,90,94,92,-1,95,93,94,-1,94,93,92,-1,93,95,88,-1,88,95,89,-1,94,91,95,-1,95,91,89,-1,96,97,98,-1,98,97,99,-1,97,100,99,-1,99,100,101,-1,102,100,96,-1,96,100,97,-1,103,101,102,-1,102,101,100,-1,99,101,98,-1,98,101,103,-1,103,102,98,-1,98,102,96,-1,104,105,106,-1,106,105,107,-1,105,108,107,-1,107,108,109,-1,110,108,104,-1,104,108,105,-1,111,109,110,-1,110,109,108,-1,107,109,106,-1,106,109,111,-1,111,110,106,-1,106,110,104,-1,80,112,82,-1,82,112,113,-1,113,114,82,-1,82,114,81,-1,115,116,112,-1,112,116,114,-1,112,114,113,-1,114,116,81,-1,81,116,79,-1,116,115,79,-1,79,115,78,-1,79,78,81,-1,81,78,80,-1,81,80,82,-1,112,80,115,-1,115,80,78,-1,54,61,56,-1,56,61,59,-1,61,117,59,-1,59,117,118,-1,119,117,54,-1,54,117,61,-1,120,118,119,-1,119,118,117,-1,59,118,56,-1,56,118,120,-1,120,119,56,-1,56,119,54,-1,121,122,123,-1,123,122,124,-1,125,126,123,-1,123,126,121,-1,127,126,128,-1,128,126,125,-1,121,126,122,-1,122,126,127,-1,128,125,124,-1,124,125,123,-1,122,127,124,-1,124,127,128,-1,104,129,106,-1,106,129,130,-1,130,131,106,-1,106,131,107,-1,131,130,132,-1,132,130,129,-1,131,132,107,-1,107,132,105,-1,105,104,107,-1,107,104,106,-1,129,104,132,-1,132,104,105,-1,46,133,48,-1,48,133,134,-1,134,135,48,-1,48,135,47,-1,136,137,133,-1,133,137,135,-1,133,135,134,-1,135,137,47,-1,47,137,45,-1,137,136,45,-1,45,136,44,-1,45,44,47,-1,47,44,46,-1,47,46,48,-1,133,46,136,-1,136,46,44,-1,138,139,140,-1,140,139,141,-1,139,142,141,-1,141,142,143,-1,144,142,138,-1,138,142,139,-1,145,143,144,-1,144,143,142,-1,141,143,140,-1,140,143,145,-1,145,144,140,-1,140,144,138,-1,146,147,148,-1,148,147,149,-1,148,149,150,-1,151,152,147,-1,147,152,149,-1,149,152,150,-1,150,152,153,-1,151,154,152,-1,152,154,155,-1,152,155,153,-1,150,153,148,-1,148,153,155,-1,154,151,146,-1,146,151,147,-1,148,155,146,-1,146,155,154,-1,156,157,158,-1,158,157,159,-1,159,160,158,-1,158,160,161,-1,160,159,162,-1,162,159,157,-1,160,162,161,-1,161,162,163,-1,163,156,161,-1,161,156,158,-1,157,156,162,-1,162,156,163,-1,89,88,91,-1,91,88,90,-1,164,165,91,-1,91,165,89,-1,166,165,167,-1,167,165,164,-1,89,165,88,-1,88,165,166,-1,167,164,90,-1,90,164,91,-1,88,166,90,-1,90,166,167,-1,122,121,124,-1,124,121,123,-1,168,169,124,-1,124,169,122,-1,123,170,124,-1,124,170,168,-1,171,169,170,-1,170,169,168,-1,169,171,122,-1,122,171,121,-1,170,123,171,-1,171,123,121,-1,172,173,174,-1,174,173,175,-1,174,175,176,-1,172,177,173,-1,173,177,178,-1,173,178,175,-1,175,178,179,-1,180,177,174,-1,174,177,172,-1,178,177,179,-1,179,177,180,-1,179,180,181,-1,175,179,176,-1,176,179,181,-1,181,180,176,-1,176,180,174,-1,96,182,98,-1,98,182,183,-1,183,184,98,-1,98,184,99,-1,184,183,185,-1,185,183,182,-1,184,185,99,-1,99,185,97,-1,97,96,99,-1,99,96,98,-1,182,96,185,-1,185,96,97,-1,26,186,28,-1,28,186,187,-1,187,188,28,-1,28,188,29,-1,188,187,189,-1,189,187,186,-1,188,189,29,-1,29,189,27,-1,27,26,29,-1,29,26,28,-1,186,26,189,-1,189,26,27,-1,70,190,72,-1,72,190,191,-1,191,192,72,-1,72,192,73,-1,192,191,193,-1,193,191,190,-1,192,193,73,-1,73,193,71,-1,71,70,73,-1,73,70,72,-1,190,70,193,-1,193,70,71,-1,174,194,176,-1,176,194,195,-1,195,196,176,-1,176,196,175,-1,197,198,194,-1,194,198,196,-1,194,196,195,-1,196,198,175,-1,175,198,173,-1,198,197,173,-1,173,197,172,-1,173,172,175,-1,175,172,174,-1,175,174,176,-1,194,174,197,-1,197,174,172,-1,62,69,64,-1,64,69,67,-1,69,199,67,-1,67,199,200,-1,201,199,62,-1,62,199,69,-1,202,200,201,-1,201,200,199,-1,67,200,64,-1,64,200,202,-1,202,201,64,-1,64,201,62,-1,203,204,205,-1,205,204,206,-1,205,206,207,-1,207,208,205,-1,205,208,209,-1,209,210,205,-1,205,210,203,-1,211,212,204,-1,204,212,206,-1,210,211,203,-1,203,211,204,-1,209,208,210,-1,210,208,212,-1,210,212,211,-1,208,207,212,-1,212,207,206,-1,147,146,149,-1,149,146,148,-1,149,148,150,-1,213,214,146,-1,146,214,148,-1,147,215,146,-1,146,215,213,-1,213,215,214,-1,214,215,216,-1,214,216,217,-1,214,217,148,-1,148,217,150,-1,217,216,150,-1,150,216,149,-1,215,147,216,-1,216,147,149,-1,138,218,140,-1,140,218,219,-1,219,220,140,-1,140,220,141,-1,220,219,221,-1,221,219,218,-1,220,221,141,-1,141,221,139,-1,139,138,141,-1,141,138,140,-1,218,138,221,-1,221,138,139,-1,222,223,224,-1,224,223,225,-1,224,225,226,-1,227,228,226,-1,226,228,224,-1,224,228,222,-1,222,228,229,-1,230,229,231,-1,231,229,228,-1,231,228,227,-1,222,229,223,-1,223,229,230,-1,231,227,225,-1,225,227,226,-1,223,230,225,-1,225,230,231,-1,223,222,225,-1,225,222,224,-1,225,224,226,-1,232,233,225,-1,225,233,223,-1,226,234,225,-1,225,234,232,-1,235,233,236,-1,236,233,232,-1,236,232,234,-1,233,235,223,-1,223,235,222,-1,235,236,222,-1,222,236,224,-1,234,226,236,-1,236,226,224,-1,1,0,3,-1,3,0,2,-1,237,238,3,-1,3,238,1,-1,239,238,240,-1,240,238,237,-1,1,238,0,-1,0,238,239,-1,240,237,2,-1,2,237,3,-1,0,239,2,-1,2,239,240,-1,156,163,158,-1,158,163,161,-1,163,241,161,-1,161,241,242,-1,243,241,156,-1,156,241,163,-1,244,242,243,-1,243,242,241,-1,161,242,158,-1,158,242,244,-1,244,243,158,-1,158,243,156,-1,35,34,37,-1,37,34,36,-1,37,36,38,-1,245,246,34,-1,34,246,36,-1,36,246,38,-1,38,246,247,-1,245,248,246,-1,246,248,249,-1,246,249,247,-1,38,247,37,-1,37,247,249,-1,248,245,35,-1,35,245,34,-1,37,249,35,-1,35,249,248,-1,204,203,206,-1,206,203,205,-1,206,205,207,-1,250,251,252,-1,252,251,253,-1,252,253,254,-1,250,252,207,-1,207,252,206,-1,204,254,203,-1,203,254,253,-1,206,252,204,-1,204,252,254,-1,203,253,205,-1,205,253,251,-1,251,250,205,-1,205,250,207,-1,10,255,12,-1,12,255,256,-1,256,257,12,-1,12,257,11,-1,258,259,255,-1,255,259,257,-1,255,257,256,-1,257,259,11,-1,11,259,9,-1,259,258,9,-1,9,258,8,-1,9,8,11,-1,11,8,10,-1,11,10,12,-1,255,10,258,-1,258,10,8,-1,18,260,20,-1,20,260,261,-1,261,262,20,-1,20,262,21,-1,262,261,263,-1,263,261,260,-1,262,263,21,-1,21,263,19,-1,19,18,21,-1,21,18,20,-1,260,18,263,-1,263,18,19,-1,
        ]
    }
}
Shape{
    appearance Appearance {
        material  Material 	{
            diffuseColor 0.10980392156862745 0.10980392156862745 0.10980392156862745
            specularColor 0.0784313725490196 0.0784313725490196 0.0784313725490196
            ambientIntensity 0.2
            transparency 0
            shininess 0.5
        }
    }
    geometry IndexedFaceSet {
        ccw TRUE
        solid FALSE
        coord DEF co Coordinate {
            point [
                0.5906 -0.5906 0.0079, 0.5906 -0.5315 0.0669, 0.5906 -0.5906 0.3346, 0.5906 -0.4528 0.0669, 0.5906 0.5906 0.3346, 0.5906 0.5906 0.0079, 0.5906 0.5315 0.0669, 0.5906 0.4528 0.0669, 0.5906 -0.3937 0.0079, 0.5906 -0.3543 0.0079, 0.5906 -0.3543 0.0787, 0.5906 0.5315 0.0276, 0.5906 0.4528 0.0276, 0.5906 0.3543 0.0079, 0.5906 0.3543 0.0787, 0.5906 -0.2756 0.0787, 0.5906 -0.4528 0.0276, 0.5906 -0.5315 0.0276, 0.5906 -0.2756 0.0079, 0.5906 -0.1969 0.0079, 0.5906 -0.1969 0.0787, 0.5906 -0.1181 0.0787, 0.5906 -0.1181 0.0079, 0.5906 -0.0394 0.0079, 0.5906 -0.0394 0.0787, 0.5906 0.0394 0.0787, 0.5906 0.0394 0.0079, 0.5906 0.1181 0.0079, 0.5906 0.1181 0.0787, 0.5906 0.1969 0.0787, 0.5906 0.2756 0.0787, 0.5906 0.2756 0.0079, 0.5906 0.1969 0.0079, 0.5906 0.1969 0.0079
            ]
        }
        coordIndex [
            0,1,2,-1,2,1,3,-1,2,3,4,-1,5,4,6,-1,6,4,7,-1,8,9,10,-1,6,11,5,-1,5,11,12,-1,5,12,13,-1,13,12,14,-1,15,4,10,-1,10,4,3,-1,10,3,8,-1,8,3,16,-1,8,16,0,-1,0,16,17,-1,0,17,1,-1,18,19,15,-1,15,19,20,-1,15,20,4,-1,4,20,21,-1,22,23,21,-1,21,23,24,-1,21,24,4,-1,4,24,25,-1,26,27,25,-1,25,27,28,-1,25,28,4,-1,4,28,29,-1,12,7,14,-1,14,7,4,-1,14,4,30,-1,30,4,29,-1,30,29,31,-1,31,29,32,-1,
        ]
    }
}
Shape{
    appearance Appearance {
        material  Material 	{
            diffuseColor 0.9686274509803922 0.8784313725490196 0.6
            specularColor 0.6784313725490196 0.615686274509804 0.4196078431372549
            ambientIntensity 0.2
            transparency 0
            shininess 0.5
        }
    }
    geometry IndexedFaceSet {
        ccw TRUE
        solid FALSE
        coord DEF co Coordinate {
            point [
                0.5906 -0.5315 0.0669, 0.5906 -0.5315 0.0276, 0.5906 -0.4528 0.0669, 0.5906 -0.4528 0.0276, 0.5906 -0.4528 0.0276
            ]
        }
        coordIndex [
            0,1,2,-1,2,1,3,-1,
        ]
    }
}
Shape{
    appearance Appearance {
        material  Material 	{
            diffuseColor 0.10980392156862745 0.10980392156862745 0.10980392156862745
            specularColor 0.0784313725490196 0.0784313725490196 0.0784313725490196
            ambientIntensity 0.2
            transparency 0
            shininess 0.5
        }
    }
    geometry IndexedFaceSet {
        ccw TRUE
        solid FALSE
        coord DEF co Coordinate {
            point [
                -0.5906 0.0394 0.0787, -0.5906 -0.0394 0.0787, -0.5906 -0.5906 0.3346, -0.5906 -0.3543 0.0787, -0.5906 -0.3543 0.0079, -0.5906 -0.4528 0.0276, -0.5906 -0.3937 0.0079, -0.5906 -0.5315 0.0276, -0.5906 -0.5906 0.0079, -0.5906 -0.5315 0.0669, -0.5906 -0.4528 0.0669, -0.5906 0.5906 0.0079, -0.5906 0.5315 0.0669, -0.5906 0.5906 0.3346, -0.5906 0.4528 0.0669, -0.5906 0.1181 0.0787, -0.5906 0.1181 0.0079, -0.5906 0.0394 0.0079, -0.5906 0.2756 0.0787, -0.5906 0.3543 0.0787, -0.5906 0.3543 0.0079, -0.5906 0.4528 0.0276, -0.5906 0.5315 0.0276, -0.5906 0.1969 0.0787, -0.5906 0.1969 0.0079, -0.5906 0.2756 0.0079, -0.5906 -0.0394 0.0079, -0.5906 -0.1181 0.0079, -0.5906 -0.1181 0.0787, -0.5906 -0.1969 0.0787, -0.5906 -0.2756 0.0787, -0.5906 -0.2756 0.0079, -0.5906 -0.1969 0.0079, -0.5906 -0.1969 0.0079
            ]
        }
        coordIndex [
            0,1,2,-1,3,4,5,-1,5,4,6,-1,5,6,7,-1,7,6,8,-1,7,8,9,-1,9,8,2,-1,9,2,10,-1,11,12,13,-1,13,12,14,-1,13,14,2,-1,15,16,17,-1,18,2,19,-1,19,2,14,-1,19,14,20,-1,20,14,21,-1,20,21,11,-1,11,21,22,-1,11,22,12,-1,17,0,15,-1,15,0,2,-1,15,2,23,-1,23,2,18,-1,23,18,24,-1,24,18,25,-1,26,27,1,-1,1,27,28,-1,1,28,2,-1,2,28,29,-1,5,10,3,-1,3,10,2,-1,3,2,30,-1,30,2,29,-1,30,29,31,-1,31,29,32,-1,
        ]
    }
}
Shape{
    appearance Appearance {
        material  Material 	{
            diffuseColor 0.9686274509803922 0.8784313725490196 0.6
            specularColor 0.6784313725490196 0.615686274509804 0.4196078431372549
            ambientIntensity 0.2
            transparency 0
            shininess 0.5
        }
    }
    geometry IndexedFaceSet {
        ccw TRUE
        solid FALSE
        coord DEF co Coordinate {
            point [
                -0.5906 -0.5315 0.0276, -0.5906 -0.5315 0.0669, -0.5906 -0.4528 0.0276, -0.5906 -0.4528 0.0669, -0.5906 -0.4528 0.0669
            ]
        }
        coordIndex [
            0,1,2,-1,2,1,3,-1,
        ]
    }
}
Shape{
    appearance Appearance {
        material  Material 	{
            diffuseColor 0.10980392156862745 0.10980392156862745 0.10980392156862745
            specularColor 0.0784313725490196 0.0784313725490196 0.0784313725490196
            ambientIntensity 0.2
            transparency 0
            shininess 0.5
        }
    }
    geometry IndexedFaceSet {
        ccw TRUE
        solid FALSE
        coord DEF co Coordinate {
            point [
                0.2756 -0.5906 0.0787, 0.3543 -0.5906 0.0787, 0.5906 -0.5906 0.3346, 0.1969 -0.5906 0.0787, 0.1969 -0.5906 0.0079, 0.2756 -0.5906 0.0079, -0.0394 -0.5906 0.0787, 0.0394 -0.5906 0.0787, -0.1181 -0.5906 0.0787, -0.1181 -0.5906 0.0079, -0.0394 -0.5906 0.0079, -0.5906 -0.5906 0.0079, -0.5315 -0.5906 0.0669, -0.5906 -0.5906 0.3346, -0.4528 -0.5906 0.0669, -0.2756 -0.5906 0.0787, -0.3543 -0.5906 0.0787, -0.3543 -0.5906 0.0079, -0.4528 -0.5906 0.0276, -0.5315 -0.5906 0.0276, -0.1969 -0.5906 0.0787, -0.1969 -0.5906 0.0079, -0.2756 -0.5906 0.0079, 0.1181 -0.5906 0.0787, 0.1181 -0.5906 0.0079, 0.0394 -0.5906 0.0079, 0.5906 -0.5906 0.0079, 0.5315 -0.5906 0.0276, 0.4528 -0.5906 0.0276, 0.5315 -0.5906 0.0669, 0.4528 -0.5906 0.0669, 0.3543 -0.5906 0.0079, 0.3543 -0.5906 0.0079
            ]
        }
        coordIndex [
            0,1,2,-1,3,4,5,-1,6,7,2,-1,8,9,10,-1,11,12,13,-1,13,12,14,-1,13,14,2,-1,15,2,16,-1,16,2,14,-1,16,14,17,-1,17,14,18,-1,17,18,11,-1,11,18,19,-1,11,19,12,-1,10,6,8,-1,8,6,2,-1,8,2,20,-1,20,2,15,-1,20,15,21,-1,21,15,22,-1,5,0,3,-1,3,0,2,-1,3,2,23,-1,23,2,7,-1,23,7,24,-1,24,7,25,-1,26,27,28,-1,27,26,29,-1,29,26,2,-1,29,2,30,-1,30,2,1,-1,30,1,28,-1,28,1,31,-1,28,31,26,-1,
        ]
    }
}
Shape{
    appearance Appearance {
        material  Material 	{
            diffuseColor 0.9686274509803922 0.8784313725490196 0.6
            specularColor 0.6784313725490196 0.615686274509804 0.4196078431372549
            ambientIntensity 0.2
            transparency 0
            shininess 0.5
        }
    }
    geometry IndexedFaceSet {
        ccw TRUE
        solid FALSE
        coord DEF co Coordinate {
            point [
                -0.4528 -0.5906 0.0669, -0.5315 -0.5906 0.0669, -0.4528 -0.5906 0.0276, -0.5315 -0.5906 0.0276, -0.5315 -0.5906 0.0276
            ]
        }
        coordIndex [
            0,1,2,-1,2,1,3,-1,
        ]
    }
}
Shape{
    appearance Appearance {
        material  Material 	{
            diffuseColor 0.10980392156862745 0.10980392156862745 0.10980392156862745
            specularColor 0.0784313725490196 0.0784313725490196 0.0784313725490196
            ambientIntensity 0.2
            transparency 0
            shininess 0.5
        }
    }
    geometry IndexedFaceSet {
        ccw TRUE
        solid FALSE
        coord DEF co Coordinate {
            point [
                -0.3543 0.5906 0.0787, -0.4528 0.5906 0.0669, 0.5906 0.5906 0.3346, -0.4528 0.5906 0.0276, -0.3543 0.5906 0.0079, -0.5906 0.5906 0.0079, -0.0394 0.5906 0.0787, -0.0394 0.5906 0.0079, -0.1181 0.5906 0.0079, -0.5906 0.5906 0.3346, -0.5315 0.5906 0.0669, -0.5315 0.5906 0.0276, -0.1969 0.5906 0.0079, -0.2756 0.5906 0.0079, -0.1969 0.5906 0.0787, -0.2756 0.5906 0.0787, 0.5906 0.5906 0.0079, 0.5315 0.5906 0.0669, 0.4528 0.5906 0.0669, 0.2756 0.5906 0.0787, 0.3543 0.5906 0.0787, 0.3543 0.5906 0.0079, 0.4528 0.5906 0.0276, 0.5315 0.5906 0.0276, -0.1181 0.5906 0.0787, 0.2756 0.5906 0.0079, 0.1969 0.5906 0.0079, 0.1969 0.5906 0.0787, 0.1181 0.5906 0.0787, 0.1181 0.5906 0.0079, 0.0394 0.5906 0.0079, 0.0394 0.5906 0.0787, 0.0394 0.5906 0.0787
            ]
        }
        coordIndex [
            0,1,2,-1,1,0,3,-1,3,0,4,-1,3,4,5,-1,6,7,8,-1,2,1,9,-1,9,1,10,-1,9,10,5,-1,5,10,11,-1,5,11,3,-1,12,13,14,-1,14,13,15,-1,16,17,2,-1,2,17,18,-1,19,2,20,-1,20,2,18,-1,20,18,21,-1,21,18,22,-1,21,22,16,-1,16,22,23,-1,16,23,17,-1,24,14,2,-1,2,14,15,-1,2,15,0,-1,25,26,19,-1,19,26,27,-1,19,27,2,-1,2,27,28,-1,29,30,28,-1,28,30,31,-1,28,31,2,-1,2,31,6,-1,2,6,24,-1,24,6,8,-1,
        ]
    }
}
Shape{
    appearance Appearance {
        material  Material 	{
            diffuseColor 0.9686274509803922 0.8784313725490196 0.6
            specularColor 0.6784313725490196 0.615686274509804 0.4196078431372549
            ambientIntensity 0.2
            transparency 0
            shininess 0.5
        }
    }
    geometry IndexedFaceSet {
        ccw TRUE
        solid FALSE
        coord DEF co Coordinate {
            point [
                0.5315 0.5906 0.0276, 0.4528 0.5906 0.0276, 0.5315 0.5906 0.0669, 0.4528 0.5906 0.0669, 0.0394 -0.4331 0.0787, 0.0394 -0.5906 0.0787, -0.0394 -0.4331 0.0787, -0.0394 -0.5906 0.0787, 0.0394 -0.4331 0.0079, -0.0042 -0.4331 0.0079, -0.0394 -0.4331 0.0079, 0.0394 -0.5906 0.0079, -0.0394 -0.5906 0.0079, 0.1969 0.5906 0.0787, 0.1969 0.5906 0.0079, 0.1969 0.4331 0.0787, 0.1969 0.4331 0.0079, 0.1181 0.4331 0.0787, 0.1181 0.4331 0.0079, 0.1181 0.5906 0.0787, 0.1181 0.5906 0.0079, -0.2756 0.5906 0.0787, -0.2756 0.5906 0.0079, -0.2756 0.4331 0.0787, -0.2756 0.4331 0.0079, -0.3071 0.4331 0.0787, -0.3071 0.4331 0.0079, -0.3543 0.4803 0.0787, -0.3543 0.5906 0.0787, -0.3543 0.4803 0.0079, -0.3543 0.5906 0.0079, 0.5906 -0.0394 0.0787, 0.5906 -0.0394 0.0079, 0.4331 -0.0394 0.0787, 0.4331 -0.0394 0.0079, 0.4331 0.0394 0.0787, 0.4331 0.0394 0.0079, 0.5906 0.0394 0.0787, 0.5906 0.0394 0.0079, 0.3543 0.5906 0.0787, 0.3543 0.4803 0.0787, 0.2756 0.5906 0.0787, 0.3071 0.4331 0.0787, 0.2756 0.4331 0.0787, 0.3071 0.4331 0.0079, 0.3543 0.4803 0.0079, 0.2756 0.4331 0.0079, 0.2756 0.5906 0.0079, 0.3543 0.5906 0.0079, 0.2756 -0.5906 0.0787, 0.2756 -0.5906 0.0079, 0.2756 -0.4331 0.0787, 0.2756 -0.4331 0.0079, 0.3071 -0.4331 0.0787, 0.3071 -0.4331 0.0079, 0.3543 -0.4803 0.0787, 0.3543 -0.5906 0.0787, 0.3543 -0.4803 0.0079, 0.3543 -0.5906 0.0079, -0.5906 0.1969 0.0787, -0.5906 0.1969 0.0079, -0.4331 0.1969 0.0787, -0.4331 0.1969 0.0079, -0.4331 0.1181 0.0787, -0.4331 0.1181 0.0079, -0.5906 0.1181 0.0787, -0.5906 0.1181 0.0079, 0.5906 0.2756 0.0787, 0.5906 0.2756 0.0079, 0.4331 0.2756 0.0787, 0.4331 0.2756 0.0079, 0.4331 0.3071 0.0787, 0.4331 0.3071 0.0079, 0.4803 0.3543 0.0787, 0.5906 0.3543 0.0787, 0.4803 0.3543 0.0079, 0.5906 0.3543 0.0079, 0.1969 -0.4331 0.0787, 0.1969 -0.5906 0.0787, 0.1181 -0.4331 0.0787, 0.1181 -0.5906 0.0787, 0.1969 -0.4331 0.0079, 0.1181 -0.4331 0.0079, 0.1969 -0.5906 0.0079, 0.1181 -0.5906 0.0079, 0.5906 0.1181 0.0787, 0.5906 0.1181 0.0079, 0.4331 0.1181 0.0787, 0.4331 0.1181 0.0079, 0.4331 0.1969 0.0787, 0.4331 0.1969 0.0079, 0.5906 0.1969 0.0787, 0.5906 0.1969 0.0079, -0.1181 -0.4331 0.0787, -0.1181 -0.5906 0.0787, -0.1969 -0.4331 0.0787, -0.1969 -0.5906 0.0787, -0.1181 -0.4331 0.0079, -0.1969 -0.4331 0.0079, -0.1181 -0.5906 0.0079, -0.1969 -0.5906 0.0079, 0.5906 -0.3543 0.0787, 0.4803 -0.3543 0.0787, 0.5906 -0.2756 0.0787, 0.4331 -0.3071 0.0787, 0.4331 -0.2756 0.0787, 0.4331 -0.3071 0.0079, 0.4803 -0.3543 0.0079, 0.4331 -0.2756 0.0079, 0.5906 -0.2756 0.0079, 0.5906 -0.3543 0.0079, -0.5906 -0.1181 0.0787, -0.5906 -0.1181 0.0079, -0.4331 -0.1181 0.0787, -0.4331 -0.1181 0.0079, -0.4331 -0.1969 0.0787, -0.4331 -0.1969 0.0079, -0.5906 -0.1969 0.0787, -0.5906 -0.1969 0.0079, 0.5906 -0.1969 0.0787, 0.5906 -0.1969 0.0079, 0.4331 -0.1969 0.0787, 0.4331 -0.1969 0.0079, 0.4331 -0.1181 0.0787, 0.4331 -0.1181 0.0079, 0.5906 -0.1181 0.0787, 0.5906 -0.1181 0.0079, -0.4331 0.3071 0.0787, -0.4331 0.2756 0.0787, -0.4803 0.3543 0.0787, -0.5906 0.2756 0.0787, -0.5906 0.3543 0.0787, -0.4331 0.3071 0.0079, -0.4803 0.3543 0.0079, -0.4331 0.2756 0.0079, -0.5906 0.2756 0.0079, -0.5906 0.3543 0.0079, -0.5906 0.0394 0.0787, -0.5906 0.0394 0.0079, -0.4331 0.0394 0.0787, -0.4331 0.0394 0.0079, -0.4331 -0.0394 0.0787, -0.4331 -0.0394 0.0079, -0.5906 -0.0394 0.0787, -0.5906 -0.0394 0.0079, -0.5906 -0.2756 0.0787, -0.5906 -0.2756 0.0079, -0.4331 -0.2756 0.0787, -0.4331 -0.2756 0.0079, -0.4331 -0.3071 0.0787, -0.4331 -0.3071 0.0079, -0.4803 -0.3543 0.0787, -0.5906 -0.3543 0.0787, -0.4803 -0.3543 0.0079, -0.5906 -0.3543 0.0079, -0.1181 0.5906 0.0787, -0.1181 0.5906 0.0079, -0.1181 0.4331 0.0787, -0.1181 0.4331 0.0079, -0.1969 0.4331 0.0787, -0.1969 0.4331 0.0079, -0.1969 0.5906 0.0787, -0.1969 0.5906 0.0079, 0.0394 0.5906 0.0787, 0.0394 0.5906 0.0079, 0.0394 0.4331 0.0787, 0.0394 0.4331 0.0079, -0.0394 0.4331 0.0079, -0.0394 0.4331 0.0787, -0.0042 0.4331 0.0079, -0.0394 0.5906 0.0787, -0.0394 0.5906 0.0079, -0.3543 -0.5906 0.0787, -0.3543 -0.4803 0.0787, -0.2756 -0.5906 0.0787, -0.3071 -0.4331 0.0787, -0.2756 -0.4331 0.0787, -0.2756 -0.5906 0.0079, -0.2756 -0.4331 0.0079, -0.3543 -0.5906 0.0079, -0.3543 -0.4803 0.0079, -0.3071 -0.4331 0.0079, -0.3071 -0.4331 0.0079
            ]
        }
        coordIndex [
            0,1,2,-1,2,1,3,-1,4,5,6,-1,6,5,7,-1,8,4,9,-1,9,4,6,-1,9,6,10,-1,5,4,11,-1,11,4,8,-1,7,12,6,-1,6,12,10,-1,13,14,15,-1,15,14,16,-1,17,15,18,-1,18,15,16,-1,15,17,13,-1,13,17,19,-1,19,17,20,-1,20,17,18,-1,21,22,23,-1,23,22,24,-1,25,23,26,-1,26,23,24,-1,27,28,25,-1,25,28,21,-1,25,21,23,-1,27,25,29,-1,29,25,26,-1,28,27,30,-1,30,27,29,-1,31,32,33,-1,33,32,34,-1,35,33,36,-1,36,33,34,-1,33,35,31,-1,31,35,37,-1,37,35,38,-1,38,35,36,-1,39,40,41,-1,41,40,42,-1,41,42,43,-1,42,40,44,-1,44,40,45,-1,43,42,46,-1,46,42,44,-1,41,43,47,-1,47,43,46,-1,39,48,40,-1,40,48,45,-1,49,50,51,-1,51,50,52,-1,53,51,54,-1,54,51,52,-1,55,56,53,-1,53,56,49,-1,53,49,51,-1,55,53,57,-1,57,53,54,-1,56,55,58,-1,58,55,57,-1,59,60,61,-1,61,60,62,-1,63,61,64,-1,64,61,62,-1,61,63,59,-1,59,63,65,-1,65,63,66,-1,66,63,64,-1,67,68,69,-1,69,68,70,-1,71,69,72,-1,72,69,70,-1,73,74,71,-1,71,74,67,-1,71,67,69,-1,73,71,75,-1,75,71,72,-1,74,73,76,-1,76,73,75,-1,77,78,79,-1,79,78,80,-1,77,79,81,-1,81,79,82,-1,78,77,83,-1,83,77,81,-1,80,84,79,-1,79,84,82,-1,85,86,87,-1,87,86,88,-1,89,87,90,-1,90,87,88,-1,87,89,85,-1,85,89,91,-1,91,89,92,-1,92,89,90,-1,93,94,95,-1,95,94,96,-1,93,95,97,-1,97,95,98,-1,94,93,99,-1,99,93,97,-1,96,100,95,-1,95,100,98,-1,101,102,103,-1,103,102,104,-1,103,104,105,-1,104,102,106,-1,106,102,107,-1,105,104,108,-1,108,104,106,-1,103,105,109,-1,109,105,108,-1,101,110,102,-1,102,110,107,-1,111,112,113,-1,113,112,114,-1,115,113,116,-1,116,113,114,-1,113,115,111,-1,111,115,117,-1,117,115,118,-1,118,115,116,-1,119,120,121,-1,121,120,122,-1,123,121,124,-1,124,121,122,-1,121,123,119,-1,119,123,125,-1,125,123,126,-1,126,123,124,-1,127,128,129,-1,129,128,130,-1,129,130,131,-1,127,129,132,-1,132,129,133,-1,128,127,134,-1,134,127,132,-1,130,128,135,-1,135,128,134,-1,131,136,129,-1,129,136,133,-1,137,138,139,-1,139,138,140,-1,141,139,142,-1,142,139,140,-1,139,141,137,-1,137,141,143,-1,143,141,144,-1,144,141,142,-1,145,146,147,-1,147,146,148,-1,149,147,150,-1,150,147,148,-1,151,152,149,-1,149,152,145,-1,149,145,147,-1,151,149,153,-1,153,149,150,-1,152,151,154,-1,154,151,153,-1,155,156,157,-1,157,156,158,-1,159,157,160,-1,160,157,158,-1,157,159,155,-1,155,159,161,-1,161,159,162,-1,162,159,160,-1,163,164,165,-1,165,164,166,-1,167,168,169,-1,169,168,165,-1,169,165,166,-1,165,168,163,-1,163,168,170,-1,170,168,171,-1,171,168,167,-1,172,173,174,-1,174,173,175,-1,174,175,176,-1,174,176,177,-1,177,176,178,-1,172,179,173,-1,173,179,180,-1,175,173,181,-1,181,173,180,-1,176,175,178,-1,178,175,181,-1,
        ]
    }
}
Shape{
    appearance Appearance {
        material  Material 	{
            diffuseColor 0.10980392156862745 0.10980392156862745 0.10980392156862745
            specularColor 0.0784313725490196 0.0784313725490196 0.0784313725490196
            ambientIntensity 0.2
            transparency 0
            shininess 0.5
        }
    }
    geometry IndexedFaceSet {
        ccw TRUE
        solid FALSE
        coord DEF co Coordinate {
            point [
                -0.0087 -0.3761 0.0079, -0.0087 -0.3915 0.0079, -0.0116 -0.3761 0.0079, -0.0115 -0.3915 0.0079, -0.0136 -0.3913 0.0079, -0.0193 -0.3836 0.0079, -0.0191 -0.3816 0.0079, -0.0187 -0.3801 0.0079, -0.014 -0.3763 0.0079, -0.0153 -0.3907 0.0079, -0.0166 -0.3899 0.0079, -0.0177 -0.3889 0.0079, -0.0185 -0.3875 0.0079, -0.0191 -0.3856 0.0079, -0.018 -0.3788 0.0079, -0.017 -0.3778 0.0079, -0.0156 -0.3769 0.0079, -0.0288 -0.3859 0.0079, -0.0354 -0.3859 0.0079, -0.0317 -0.3777 0.0079, -0.0324 -0.3777 0.0079, -0.0319 -0.377 0.0079, -0.0323 -0.377 0.0079, -0.0321 -0.3763 0.0079, -0.0321 -0.3763 0.0079, -0.0321 -0.3763 0.0079
            ]
        }
        coordIndex [
            0,1,2,-1,2,1,3,-1,2,3,4,-1,5,6,2,-1,2,6,7,-1,2,7,8,-1,4,9,2,-1,2,9,10,-1,2,10,11,-1,11,12,2,-1,2,12,13,-1,2,13,5,-1,14,15,7,-1,7,15,16,-1,7,16,8,-1,17,18,19,-1,19,18,20,-1,19,20,21,-1,21,20,22,-1,21,22,23,-1,23,22,24,-1,
        ]
    }
}
Shape{
    appearance Appearance {
        material  Material 	{
            diffuseColor 0.4117647058823529 0.4117647058823529 0.4117647058823529
            specularColor 0.20392156862745098 0.20392156862745098 0.20392156862745098
            ambientIntensity 0.2
            transparency 0
            shininess 0.5
        }
    }
    geometry IndexedFaceSet {
        ccw TRUE
        solid FALSE
        coord DEF co Coordinate {
            point [
                -0.3649 0.3937 0.3268, -0.357 0.4127 0.3268, -0.4331 0.4331 0.3268, -0.3543 0.4331 0.3268, -0.357 0.4535 0.3268, -0.4127 0.357 0.3268, -0.3937 0.3649 0.3268, -0.3774 0.3774 0.3268, -0.4724 0.3649 0.3268, -0.4535 0.357 0.3268, -0.4331 0.3543 0.3268, -0.5091 0.4127 0.3268, -0.5013 0.3937 0.3268, -0.4887 0.3774 0.3268, -0.5013 0.4724 0.3268, -0.5091 0.4535 0.3268, -0.5118 0.4331 0.3268, -0.4535 0.5091 0.3268, -0.4724 0.5013 0.3268, -0.4887 0.4887 0.3268, -0.3937 0.5013 0.3268, -0.4127 0.5091 0.3268, -0.4331 0.5118 0.3268, -0.3649 0.4724 0.3268, -0.3774 0.4887 0.3268, -0.3774 0.4887 0.3268
            ]
        }
        coordIndex [
            0,1,2,-1,2,1,3,-1,2,3,4,-1,5,6,2,-1,2,6,7,-1,2,7,0,-1,8,9,2,-1,2,9,10,-1,2,10,5,-1,11,12,2,-1,2,12,13,-1,2,13,8,-1,14,15,2,-1,2,15,16,-1,2,16,11,-1,17,18,2,-1,2,18,19,-1,2,19,14,-1,20,21,2,-1,2,21,22,-1,2,22,17,-1,4,23,2,-1,2,23,24,-1,2,24,20,-1,
        ]
    }
}
Shape{
    appearance Appearance {
        material  Material 	{
            diffuseColor 0.792156862745098 0.8196078431372549 0.9333333333333333
            specularColor 0.396078431372549 0.4117647058823529 0.4666666666666667
            ambientIntensity 0.2
            transparency 0
            shininess 0.5
        }
    }
    geometry IndexedFaceSet {
        ccw TRUE
        solid FALSE
        coord DEF co Coordinate {
            point [
                -0.0115 -0.3915 0.0079, -0.0115 -0.3915 0.0118, -0.0136 -0.3913 0.0118, -0.0136 -0.3913 0.0079, -0.0153 -0.3907 0.0118, -0.0153 -0.3907 0.0079, -0.0166 -0.3899 0.0118, -0.0166 -0.3899 0.0079, -0.0177 -0.3889 0.0118, -0.0177 -0.3889 0.0079, -0.0185 -0.3875 0.0118, -0.0185 -0.3875 0.0079, -0.0191 -0.3856 0.0118, -0.0191 -0.3856 0.0079, -0.0193 -0.3836 0.0118, -0.0193 -0.3836 0.0079, -0.0191 -0.3816 0.0118, -0.0191 -0.3816 0.0079, -0.0187 -0.3801 0.0118, -0.0187 -0.3801 0.0079, -0.018 -0.3788 0.0118, -0.018 -0.3788 0.0079, -0.017 -0.3778 0.0118, -0.017 -0.3778 0.0079, -0.0156 -0.3769 0.0118, -0.0156 -0.3769 0.0079, -0.014 -0.3763 0.0118, -0.014 -0.3763 0.0079, -0.0116 -0.3761 0.0118, -0.0116 -0.3761 0.0079, -0.0087 -0.3761 0.0118, -0.0087 -0.3761 0.0079, -0.0087 -0.3915 0.0079, -0.0087 -0.3915 0.0118, -0.0324 -0.3777 0.0079, -0.0324 -0.3777 0.0118, -0.0323 -0.377 0.0118, -0.0323 -0.377 0.0079, -0.0321 -0.3763 0.0118, -0.0321 -0.3763 0.0079, -0.0321 -0.3763 0.0118, -0.0321 -0.3763 0.0079, -0.0319 -0.377 0.0118, -0.0319 -0.377 0.0079, -0.0317 -0.3777 0.0118, -0.0317 -0.3777 0.0079, -0.0288 -0.3859 0.0118, -0.0288 -0.3859 0.0079, -0.0354 -0.3859 0.0118, -0.0354 -0.3859 0.0079, -0.0354 -0.3859 0.0079
            ]
        }
        coordIndex [
            0,1,2,-1,0,2,3,-1,3,2,4,-1,3,4,5,-1,5,4,6,-1,5,6,7,-1,7,6,8,-1,7,8,9,-1,9,8,10,-1,9,10,11,-1,11,10,12,-1,11,12,13,-1,13,12,14,-1,13,14,15,-1,15,14,16,-1,15,16,17,-1,17,16,18,-1,17,18,19,-1,19,18,20,-1,19,20,21,-1,21,20,22,-1,21,22,23,-1,23,22,24,-1,23,24,25,-1,25,24,26,-1,25,26,27,-1,27,26,28,-1,27,28,29,-1,30,31,28,-1,28,31,29,-1,32,31,33,-1,33,31,30,-1,1,0,33,-1,33,0,32,-1,34,35,36,-1,34,36,37,-1,37,36,38,-1,37,38,39,-1,40,41,38,-1,38,41,39,-1,41,40,42,-1,41,42,43,-1,43,42,44,-1,43,44,45,-1,46,47,44,-1,44,47,45,-1,48,49,46,-1,46,49,47,-1,34,49,35,-1,35,49,48,-1,
        ]
    }
}
Shape{
    appearance Appearance {
        material  Material 	{
            diffuseColor 0.4117647058823529 0.4117647058823529 0.4117647058823529
            specularColor 0.20392156862745098 0.20392156862745098 0.20392156862745098
            ambientIntensity 0.2
            transparency 0
            shininess 0.5
        }
    }
    geometry IndexedFaceSet {
        ccw TRUE
        solid FALSE
        coord DEF co Coordinate {
            point [
                -0.3543 0.4331 0.3268, -0.3543 0.4331 0.3346, -0.357 0.4535 0.3268, -0.357 0.4535 0.3346, -0.3649 0.4724 0.3268, -0.3649 0.4724 0.3346, -0.3774 0.4887 0.3268, -0.3774 0.4887 0.3346, -0.3937 0.5013 0.3268, -0.3937 0.5013 0.3346, -0.4127 0.5091 0.3268, -0.4127 0.5091 0.3346, -0.4331 0.5118 0.3268, -0.4331 0.5118 0.3346, -0.4535 0.5091 0.3268, -0.4535 0.5091 0.3346, -0.4724 0.5013 0.3268, -0.4724 0.5013 0.3346, -0.4887 0.4887 0.3268, -0.4887 0.4887 0.3346, -0.5013 0.4724 0.3268, -0.5013 0.4724 0.3346, -0.5091 0.4535 0.3268, -0.5091 0.4535 0.3346, -0.5118 0.4331 0.3268, -0.5118 0.4331 0.3346, -0.5091 0.4127 0.3268, -0.5091 0.4127 0.3346, -0.5013 0.3937 0.3268, -0.5013 0.3937 0.3346, -0.4887 0.3774 0.3268, -0.4887 0.3774 0.3346, -0.4724 0.3649 0.3268, -0.4724 0.3649 0.3346, -0.4535 0.357 0.3268, -0.4535 0.357 0.3346, -0.4331 0.3543 0.3268, -0.4331 0.3543 0.3346, -0.4127 0.357 0.3268, -0.4127 0.357 0.3346, -0.3937 0.3649 0.3268, -0.3937 0.3649 0.3346, -0.3774 0.3774 0.3268, -0.3774 0.3774 0.3346, -0.3649 0.3937 0.3268, -0.3649 0.3937 0.3346, -0.357 0.4127 0.3268, -0.357 0.4127 0.3346, -0.357 0.4127 0.3346
            ]
        }
        coordIndex [
            0,1,2,-1,2,1,3,-1,2,3,4,-1,4,3,5,-1,4,5,6,-1,6,5,7,-1,6,7,8,-1,8,7,9,-1,8,9,10,-1,10,9,11,-1,10,11,12,-1,12,11,13,-1,12,13,14,-1,14,13,15,-1,14,15,16,-1,16,15,17,-1,16,17,18,-1,18,17,19,-1,18,19,20,-1,20,19,21,-1,20,21,22,-1,22,21,23,-1,22,23,24,-1,24,23,25,-1,24,25,26,-1,26,25,27,-1,26,27,28,-1,28,27,29,-1,28,29,30,-1,30,29,31,-1,30,31,32,-1,32,31,33,-1,32,33,34,-1,34,33,35,-1,34,35,36,-1,36,35,37,-1,36,37,38,-1,38,37,39,-1,38,39,40,-1,40,39,41,-1,40,41,42,-1,42,41,43,-1,42,43,44,-1,44,43,45,-1,44,45,46,-1,46,45,47,-1,46,47,0,-1,0,47,1,-1,
        ]
    }
}
Shape{
    appearance Appearance {
        material  Material 	{
            diffuseColor 0.792156862745098 0.8196078431372549 0.9333333333333333
            specularColor 0.396078431372549 0.4117647058823529 0.4666666666666667
            ambientIntensity 0.2
            transparency 0
            shininess 0.5
        }
    }
    geometry IndexedFaceSet {
        ccw TRUE
        solid FALSE
        coord DEF co Coordinate {
            point [
                0.0359 -0.3739 0.0118, 0.0385 -0.3739 0.0118, 0.0359 -0.3915 0.0118, 0.0385 -0.3936 0.0118, 0.0285 -0.3915 0.0118, 0.0285 -0.3936 0.0118, 0.019 -0.3915 0.0118, 0.0176 -0.3939 0.0118, 0.0172 -0.3917 0.0118, 0.017 -0.3938 0.0118, 0.0146 -0.3914 0.0118, 0.0142 -0.3935 0.0118, 0.0125 -0.3906 0.0118, 0.0121 -0.3926 0.0118, 0.0121 -0.3904 0.0118, 0.0121 -0.3771 0.0118, 0.0121 -0.3745 0.0118, 0.0144 -0.3762 0.0118, 0.0144 -0.3739 0.0118, 0.0168 -0.3758 0.0118, 0.0168 -0.3737 0.0118, 0.0187 -0.3761 0.0118, 0.0188 -0.3738 0.0118, 0.0202 -0.3766 0.0118, 0.0209 -0.3745 0.0118, 0.0215 -0.3775 0.0118, 0.0228 -0.3756 0.0118, 0.0227 -0.3788 0.0118, 0.0246 -0.3773 0.0118, 0.0235 -0.3803 0.0118, 0.0257 -0.3791 0.0118, 0.0241 -0.3824 0.0118, 0.0265 -0.3813 0.0118, 0.0241 -0.384 0.0118, 0.0268 -0.3841 0.0118, 0.0239 -0.3861 0.0118, 0.0266 -0.3864 0.0118, 0.0234 -0.3878 0.0118, 0.026 -0.3885 0.0118, 0.0226 -0.3892 0.0118, 0.025 -0.3904 0.0118, 0.0217 -0.3901 0.0118, 0.0235 -0.3919 0.0118, 0.0205 -0.391 0.0118, 0.0219 -0.3929 0.0118, 0.02 -0.3936 0.0118, 0.0083 -0.3936 0.0118, -0.0023 -0.3936 0.0118, -0.0023 -0.3915 0.0118, 0.0057 -0.3915 0.0118, 0.0057 -0.3847 0.0118, 0.0083 -0.3739 0.0118, -0.0018 -0.3761 0.0118, -0.0018 -0.3739 0.0118, 0.0057 -0.3761 0.0118, 0.0057 -0.3826 0.0118, -0.0013 -0.3826 0.0118, -0.0013 -0.3847 0.0118, -0.0213 -0.3797 0.0118, -0.0204 -0.378 0.0118, -0.018 -0.3788 0.0118, -0.019 -0.3765 0.0118, -0.017 -0.3778 0.0118, -0.0189 -0.3765 0.0118, -0.0156 -0.3769 0.0118, -0.0168 -0.375 0.0118, -0.014 -0.3763 0.0118, -0.0145 -0.3742 0.0118, -0.0116 -0.3761 0.0118, -0.0117 -0.3739 0.0118, -0.0087 -0.3761 0.0118, -0.0061 -0.3739 0.0118, -0.0087 -0.3915 0.0118, -0.0061 -0.3936 0.0118, -0.0115 -0.3915 0.0118, -0.0115 -0.3936 0.0118, -0.0136 -0.3913 0.0118, -0.0139 -0.3934 0.0118, -0.0153 -0.3907 0.0118, -0.0162 -0.3927 0.0118, -0.0166 -0.3899 0.0118, -0.0182 -0.3915 0.0118, -0.0177 -0.3889 0.0118, -0.0198 -0.39 0.0118, -0.0185 -0.3875 0.0118, -0.021 -0.3882 0.0118, -0.0191 -0.3856 0.0118, -0.0217 -0.3862 0.0118, -0.0193 -0.3836 0.0118, -0.0219 -0.3835 0.0118, -0.0191 -0.3816 0.0118, -0.0218 -0.3817 0.0118, -0.0187 -0.3801 0.0118, -0.0288 -0.3859 0.0118, -0.0281 -0.3881 0.0118, -0.0354 -0.3859 0.0118, -0.0363 -0.3881 0.0118, -0.0317 -0.3777 0.0118, -0.0308 -0.3739 0.0118, -0.0234 -0.3936 0.0118, -0.0263 -0.3936 0.0118, -0.0319 -0.377 0.0118, -0.0321 -0.3763 0.0118, -0.0335 -0.3739 0.0118, -0.0321 -0.3763 0.0118, -0.0323 -0.377 0.0118, -0.0324 -0.3777 0.0118, -0.0412 -0.3936 0.0118, -0.0383 -0.3936 0.0118, -0.0383 -0.3936 0.0118
            ]
        }
        coordIndex [
            0,1,2,-1,2,1,3,-1,2,3,4,-1,4,3,5,-1,6,7,8,-1,8,7,9,-1,8,9,10,-1,10,9,11,-1,10,11,12,-1,12,11,13,-1,12,13,14,-1,15,16,17,-1,17,16,18,-1,17,18,19,-1,19,18,20,-1,19,20,21,-1,21,20,22,-1,21,22,23,-1,23,22,24,-1,23,24,25,-1,25,24,26,-1,25,26,27,-1,27,26,28,-1,27,28,29,-1,29,28,30,-1,29,30,31,-1,31,30,32,-1,31,32,33,-1,33,32,34,-1,33,34,35,-1,35,34,36,-1,35,36,37,-1,37,36,38,-1,37,38,39,-1,39,38,40,-1,39,40,41,-1,41,40,42,-1,41,42,43,-1,43,42,44,-1,43,44,6,-1,6,44,45,-1,6,45,7,-1,46,47,48,-1,48,49,46,-1,46,49,50,-1,46,50,51,-1,52,53,54,-1,54,53,51,-1,54,51,55,-1,55,51,50,-1,55,50,56,-1,56,50,57,-1,58,59,60,-1,60,59,61,-1,60,61,62,-1,62,61,63,-1,62,63,64,-1,64,63,65,-1,64,65,66,-1,66,65,67,-1,66,67,68,-1,68,67,69,-1,68,69,70,-1,70,69,71,-1,70,71,72,-1,72,71,73,-1,72,73,74,-1,74,73,75,-1,74,75,76,-1,76,75,77,-1,76,77,78,-1,78,77,79,-1,78,79,80,-1,80,79,81,-1,80,81,82,-1,82,81,83,-1,82,83,84,-1,84,83,85,-1,84,85,86,-1,86,85,87,-1,86,87,88,-1,88,87,89,-1,88,89,90,-1,90,89,91,-1,90,91,92,-1,92,91,58,-1,92,58,60,-1,93,94,95,-1,95,94,96,-1,97,98,93,-1,93,98,99,-1,93,99,94,-1,94,99,100,-1,97,101,98,-1,98,101,102,-1,98,102,103,-1,103,102,104,-1,103,104,105,-1,105,106,103,-1,103,106,95,-1,103,95,107,-1,107,95,96,-1,107,96,108,-1,
        ]
    }
}
Shape{
    appearance Appearance {
        material  Material 	{
            diffuseColor 0.10980392156862745 0.10980392156862745 0.10980392156862745
            specularColor 0.0784313725490196 0.0784313725490196 0.0784313725490196
            ambientIntensity 0.2
            transparency 0
            shininess 0.5
        }
    }
    geometry IndexedFaceSet {
        ccw TRUE
        solid FALSE
        coord DEF co Coordinate {
            point [
                -0.4331 0.3543 0.3346, -0.4535 0.357 0.3346, -0.5906 -0.5906 0.3346, -0.4724 0.3649 0.3346, -0.4887 0.3774 0.3346, -0.5906 0.5906 0.3346, -0.5091 0.4535 0.3346, -0.5013 0.4724 0.3346, -0.3774 0.4887 0.3346, -0.3649 0.4724 0.3346, 0.5906 0.5906 0.3346, -0.357 0.4535 0.3346, -0.3543 0.4331 0.3346, -0.357 0.4127 0.3346, 0.5906 -0.5906 0.3346, -0.3649 0.3937 0.3346, -0.5013 0.3937 0.3346, -0.5091 0.4127 0.3346, -0.5118 0.4331 0.3346, -0.4887 0.4887 0.3346, -0.4724 0.5013 0.3346, -0.4535 0.5091 0.3346, -0.4331 0.5118 0.3346, -0.4127 0.5091 0.3346, -0.3937 0.5013 0.3346, -0.3774 0.3774 0.3346, -0.3937 0.3649 0.3346, -0.4127 0.357 0.3346, -0.4127 0.357 0.3346
            ]
        }
        coordIndex [
            0,1,2,-1,2,1,3,-1,2,3,4,-1,5,6,7,-1,8,9,10,-1,10,9,11,-1,11,12,10,-1,10,12,13,-1,10,13,14,-1,14,13,15,-1,4,16,2,-1,2,16,17,-1,2,17,5,-1,5,17,18,-1,5,18,6,-1,7,19,5,-1,5,19,20,-1,5,20,21,-1,21,22,5,-1,5,22,23,-1,5,23,10,-1,10,23,24,-1,10,24,8,-1,15,25,14,-1,14,25,26,-1,14,26,2,-1,2,26,27,-1,2,27,0,-1,
        ]
    }
}
Shape{
    appearance Appearance {
        material  Material 	{
            diffuseColor 0.792156862745098 0.8196078431372549 0.9333333333333333
            specularColor 0.396078431372549 0.4117647058823529 0.4666666666666667
            ambientIntensity 0.2
            transparency 0
            shininess 0.5
        }
    }
    geometry IndexedFaceSet {
        ccw TRUE
        solid FALSE
        coord DEF co Coordinate {
            point [
                0.0285 -0.3936 0.0118, 0.0285 -0.3936 0.0079, 0.0285 -0.3915 0.0118, 0.0285 -0.3915 0.0079, 0.0359 -0.3915 0.0118, 0.0359 -0.3915 0.0079, 0.0359 -0.3739 0.0118, 0.0359 -0.3739 0.0079, 0.0385 -0.3739 0.0118, 0.0385 -0.3739 0.0079, 0.0385 -0.3936 0.0118, 0.0385 -0.3936 0.0079, 0.0121 -0.3926 0.0118, 0.0121 -0.3926 0.0079, 0.0121 -0.3904 0.0118, 0.0121 -0.3904 0.0079, 0.0172 -0.3917 0.0079, 0.0172 -0.3917 0.0118, 0.0146 -0.3914 0.0118, 0.0146 -0.3914 0.0079, 0.0125 -0.3906 0.0118, 0.0125 -0.3906 0.0079, 0.0241 -0.384 0.0079, 0.0241 -0.384 0.0118, 0.0239 -0.3861 0.0118, 0.0239 -0.3861 0.0079, 0.0234 -0.3878 0.0118, 0.0234 -0.3878 0.0079, 0.0226 -0.3892 0.0118, 0.0226 -0.3892 0.0079, 0.0217 -0.3901 0.0118, 0.0217 -0.3901 0.0079, 0.0205 -0.391 0.0118, 0.0205 -0.391 0.0079, 0.019 -0.3915 0.0118, 0.019 -0.3915 0.0079, 0.0168 -0.3758 0.0079, 0.0168 -0.3758 0.0118, 0.0187 -0.3761 0.0118, 0.0187 -0.3761 0.0079, 0.0202 -0.3766 0.0118, 0.0202 -0.3766 0.0079, 0.0215 -0.3775 0.0118, 0.0215 -0.3775 0.0079, 0.0227 -0.3788 0.0118, 0.0227 -0.3788 0.0079, 0.0235 -0.3803 0.0118, 0.0235 -0.3803 0.0079, 0.0241 -0.3824 0.0118, 0.0241 -0.3824 0.0079, 0.0121 -0.3771 0.0079, 0.0121 -0.3771 0.0118, 0.0144 -0.3762 0.0118, 0.0144 -0.3762 0.0079, 0.0121 -0.3745 0.0118, 0.0121 -0.3745 0.0079, 0.0168 -0.3737 0.0079, 0.0168 -0.3737 0.0118, 0.0144 -0.3739 0.0118, 0.0144 -0.3739 0.0079, 0.0268 -0.3841 0.0079, 0.0268 -0.3841 0.0118, 0.0265 -0.3813 0.0118, 0.0265 -0.3813 0.0079, 0.0257 -0.3791 0.0118, 0.0257 -0.3791 0.0079, 0.0246 -0.3773 0.0118, 0.0246 -0.3773 0.0079, 0.0228 -0.3756 0.0118, 0.0228 -0.3756 0.0079, 0.0209 -0.3745 0.0118, 0.0209 -0.3745 0.0079, 0.0188 -0.3738 0.0118, 0.0188 -0.3738 0.0079, 0.0176 -0.3939 0.0079, 0.0176 -0.3939 0.0118, 0.0187 -0.3937 0.0079, 0.02 -0.3936 0.0118, 0.02 -0.3936 0.0079, 0.0219 -0.3929 0.0118, 0.0219 -0.3929 0.0079, 0.0235 -0.3919 0.0118, 0.0235 -0.3919 0.0079, 0.025 -0.3904 0.0118, 0.025 -0.3904 0.0079, 0.026 -0.3885 0.0118, 0.026 -0.3885 0.0079, 0.0266 -0.3864 0.0118, 0.0266 -0.3864 0.0079, 0.0142 -0.3935 0.0079, 0.0142 -0.3935 0.0118, 0.0162 -0.3937 0.0079, 0.017 -0.3938 0.0118, 0.017 -0.3938 0.0079, -0.0023 -0.3936 0.0118, -0.0023 -0.3936 0.0079, -0.0023 -0.3915 0.0118, -0.0023 -0.3915 0.0079, 0.0057 -0.3915 0.0118, 0.0057 -0.3915 0.0079, 0.0057 -0.3847 0.0118, 0.0057 -0.3847 0.0079, -0.0013 -0.3847 0.0118, -0.0013 -0.3847 0.0079, -0.0013 -0.3826 0.0118, -0.0013 -0.3826 0.0079, 0.0057 -0.3826 0.0118, 0.0057 -0.3826 0.0079, 0.0057 -0.3761 0.0118, 0.0057 -0.3761 0.0079, -0.0018 -0.3761 0.0118, -0.0018 -0.3761 0.0079, -0.0018 -0.3739 0.0118, -0.0018 -0.3739 0.0079, 0.0083 -0.3739 0.0118, 0.0083 -0.3739 0.0079, 0.0083 -0.3936 0.0118, 0.0083 -0.3936 0.0079, -0.0061 -0.3936 0.0118, -0.0061 -0.3936 0.0079, -0.0115 -0.3936 0.0118, -0.0115 -0.3936 0.0079, -0.0219 -0.3835 0.0079, -0.0219 -0.3835 0.0118, -0.0217 -0.3862 0.0118, -0.0217 -0.3862 0.0079, -0.021 -0.3882 0.0118, -0.021 -0.3882 0.0079, -0.0198 -0.39 0.0118, -0.0198 -0.39 0.0079, -0.0182 -0.3915 0.0118, -0.0182 -0.3915 0.0079, -0.0162 -0.3927 0.0118, -0.0162 -0.3927 0.0079, -0.0139 -0.3934 0.0118, -0.0139 -0.3934 0.0079, -0.0117 -0.3739 0.0079, -0.0117 -0.3739 0.0118, -0.0145 -0.3742 0.0118, -0.0145 -0.3742 0.0079, -0.0168 -0.375 0.0118, -0.0168 -0.375 0.0079, -0.0189 -0.3765 0.0118, -0.0189 -0.3765 0.0079, -0.019 -0.3765 0.0118, -0.019 -0.3765 0.0079, -0.0204 -0.378 0.0118, -0.0204 -0.378 0.0079, -0.0213 -0.3797 0.0118, -0.0213 -0.3797 0.0079, -0.0218 -0.3817 0.0118, -0.0218 -0.3817 0.0079, -0.0061 -0.3739 0.0118, -0.0061 -0.3739 0.0079, -0.0412 -0.3936 0.0118, -0.0412 -0.3936 0.0079, -0.0335 -0.3739 0.0118, -0.0335 -0.3739 0.0079, -0.0308 -0.3739 0.0118, -0.0308 -0.3739 0.0079, -0.0234 -0.3936 0.0118, -0.0234 -0.3936 0.0079, -0.0263 -0.3936 0.0118, -0.0263 -0.3936 0.0079, -0.0281 -0.3881 0.0118, -0.0281 -0.3881 0.0079, -0.0363 -0.3881 0.0118, -0.0363 -0.3881 0.0079, -0.0383 -0.3936 0.0118, -0.0383 -0.3936 0.0079, -0.0383 -0.3936 0.0079
            ]
        }
        coordIndex [
            0,1,2,-1,2,1,3,-1,2,3,4,-1,4,3,5,-1,4,5,6,-1,6,5,7,-1,6,7,8,-1,8,7,9,-1,8,9,10,-1,10,9,11,-1,0,10,1,-1,1,10,11,-1,12,13,14,-1,14,13,15,-1,16,17,18,-1,16,18,19,-1,19,18,20,-1,19,20,21,-1,21,20,14,-1,21,14,15,-1,22,23,24,-1,22,24,25,-1,25,24,26,-1,25,26,27,-1,27,26,28,-1,27,28,29,-1,29,28,30,-1,29,30,31,-1,31,30,32,-1,31,32,33,-1,33,32,34,-1,33,34,35,-1,35,34,17,-1,35,17,16,-1,36,37,38,-1,36,38,39,-1,39,38,40,-1,39,40,41,-1,41,40,42,-1,41,42,43,-1,43,42,44,-1,43,44,45,-1,45,44,46,-1,45,46,47,-1,47,46,48,-1,47,48,49,-1,49,48,23,-1,49,23,22,-1,50,51,52,-1,50,52,53,-1,53,52,37,-1,53,37,36,-1,51,50,54,-1,54,50,55,-1,56,57,58,-1,56,58,59,-1,59,58,54,-1,59,54,55,-1,60,61,62,-1,60,62,63,-1,63,62,64,-1,63,64,65,-1,65,64,66,-1,65,66,67,-1,67,66,68,-1,67,68,69,-1,69,68,70,-1,69,70,71,-1,71,70,72,-1,71,72,73,-1,73,72,57,-1,73,57,56,-1,74,75,76,-1,76,75,77,-1,76,77,78,-1,78,77,79,-1,78,79,80,-1,80,79,81,-1,80,81,82,-1,82,81,83,-1,82,83,84,-1,84,83,85,-1,84,85,86,-1,86,85,87,-1,86,87,88,-1,88,87,61,-1,88,61,60,-1,89,13,90,-1,90,13,12,-1,89,90,91,-1,91,90,92,-1,91,92,93,-1,93,92,75,-1,93,75,74,-1,94,95,96,-1,96,95,97,-1,96,97,98,-1,98,97,99,-1,98,99,100,-1,100,99,101,-1,100,101,102,-1,102,101,103,-1,102,103,104,-1,104,103,105,-1,104,105,106,-1,106,105,107,-1,106,107,108,-1,108,107,109,-1,108,109,110,-1,110,109,111,-1,110,111,112,-1,112,111,113,-1,112,113,114,-1,114,113,115,-1,114,115,116,-1,116,115,117,-1,94,116,95,-1,95,116,117,-1,118,119,120,-1,120,119,121,-1,122,123,124,-1,122,124,125,-1,125,124,126,-1,125,126,127,-1,127,126,128,-1,127,128,129,-1,129,128,130,-1,129,130,131,-1,131,130,132,-1,131,132,133,-1,133,132,134,-1,133,134,135,-1,135,134,120,-1,135,120,121,-1,136,137,138,-1,136,138,139,-1,139,138,140,-1,139,140,141,-1,141,140,142,-1,141,142,143,-1,143,142,144,-1,143,144,145,-1,145,144,146,-1,145,146,147,-1,147,146,148,-1,147,148,149,-1,149,148,150,-1,149,150,151,-1,151,150,123,-1,151,123,122,-1,137,136,152,-1,152,136,153,-1,118,152,119,-1,119,152,153,-1,154,155,156,-1,156,155,157,-1,156,157,158,-1,158,157,159,-1,158,159,160,-1,160,159,161,-1,160,161,162,-1,162,161,163,-1,162,163,164,-1,164,163,165,-1,164,165,166,-1,166,165,167,-1,166,167,168,-1,168,167,169,-1,154,168,155,-1,155,168,169,-1,
        ]
    }
}
Shape{
    appearance Appearance {
        material  Material 	{
            diffuseColor 0.9686274509803922 0.8784313725490196 0.6
            specularColor 0.6784313725490196 0.615686274509804 0.4196078431372549
            ambientIntensity 0.2
            transparency 0
            shininess 0.5
        }
    }
    geometry IndexedFaceSet {
        ccw TRUE
        solid FALSE
        coord DEF co Coordinate {
            point [
                0.5906 0.4528 0.0669, 0.5906 0.4528 0.0276, 0.5906 0.5315 0.0669, 0.5906 0.5315 0.0276, -0.5315 0.5906 0.0669, -0.4528 0.5906 0.0669, -0.5315 0.5906 0.0276, -0.4528 0.5906 0.0276, -0.5906 0.4528 0.0276, -0.5906 0.4528 0.0669, -0.5906 0.5315 0.0276, -0.5906 0.5315 0.0669, 0.4528 -0.5906 0.0276, 0.5315 -0.5906 0.0276, 0.4528 -0.5906 0.0669, 0.5315 -0.5906 0.0669, 0.5315 -0.5906 0.0669
            ]
        }
        coordIndex [
            0,1,2,-1,2,1,3,-1,4,5,6,-1,6,5,7,-1,8,9,10,-1,10,9,11,-1,12,13,14,-1,14,13,15,-1,
        ]
    }
}
Shape{
    appearance Appearance {
        material  Material 	{
            diffuseColor 0.10980392156862745 0.10980392156862745 0.10980392156862745
            specularColor 0.0784313725490196 0.0784313725490196 0.0784313725490196
            ambientIntensity 0.2
            transparency 0
            shininess 0.5
        }
    }
    geometry IndexedFaceSet {
        ccw TRUE
        solid FALSE
        coord DEF co Coordinate {
            point [
                0.4331 0.1181 0.0079, 0.5906 0.1181 0.0079, 0.5906 0.0394 0.0079, 0.0083 -0.3936 0.0079, 0.0083 -0.3739 0.0079, 0.0121 -0.3904 0.0079, 0.0121 -0.3926 0.0079, 0.0142 -0.3935 0.0079, 0.0162 -0.3937 0.0079, 0.0394 0.4331 0.0079, 0.0394 0.5906 0.0079, 0.1181 0.5906 0.0079, 0.4331 -0.1969 0.0079, 0.5906 -0.1969 0.0079, 0.5906 -0.2756 0.0079, 0.3543 0.4803 0.0079, 0.3543 0.5906 0.0079, 0.5906 0.5906 0.0079, 0.5906 0.2756 0.0079, 0.5906 0.1969 0.0079, 0.4331 0.2756 0.0079, 0.4331 0.1969 0.0079, 0.0121 -0.3771 0.0079, 0.0144 -0.3762 0.0079, 0.0125 -0.3906 0.0079, 0.0168 -0.3758 0.0079, 0.0187 -0.3761 0.0079, 0.1181 0.4331 0.0079, 0.4331 0.0394 0.0079, -0.0042 0.4331 0.0079, 0.4331 -0.0394 0.0079, 0.5906 -0.0394 0.0079, 0.5906 -0.1181 0.0079, 0.4331 -0.1181 0.0079, 0.4331 -0.2756 0.0079, 0.4331 0.3071 0.0079, 0.1969 0.4331 0.0079, 0.0202 -0.3766 0.0079, 0.0215 -0.3775 0.0079, 0.0227 -0.3788 0.0079, 0.0241 -0.384 0.0079, 0.0239 -0.3861 0.0079, 0.0234 -0.3878 0.0079, 0.019 -0.3915 0.0079, 0.0172 -0.3917 0.0079, 0.0205 -0.391 0.0079, 0.0217 -0.3901 0.0079, 0.0226 -0.3892 0.0079, 0.0146 -0.3914 0.0079, -0.0023 -0.3915 0.0079, -0.0023 -0.3936 0.0079, -0.0042 -0.3937 0.0079, 0.1969 0.5906 0.0079, 0.2756 0.5906 0.0079, 0.2756 0.4331 0.0079, 0.3071 0.4331 0.0079, 0.4803 0.3543 0.0079, 0.5906 0.3543 0.0079, 0.0235 -0.3803 0.0079, 0.0241 -0.3824 0.0079, 0.0385 -0.3936 0.0079, 0.4803 -0.3543 0.0079, 0.5906 -0.3543 0.0079, -0.0018 -0.3739 0.0079, -0.0018 -0.3761 0.0079, 0.0257 -0.3791 0.0079, 0.0246 -0.3773 0.0079, 0.0359 -0.3739 0.0079, 0.0385 -0.3739 0.0079, 0.4331 -0.3071 0.0079, 0.5906 -0.3937 0.0079, 0.0187 -0.3937 0.0079, 0.0285 -0.3936 0.0079, 0.02 -0.3936 0.0079, 0.0219 -0.3929 0.0079, -0.0013 -0.3847 0.0079, 0.0057 -0.3847 0.0079, 0.0057 -0.3915 0.0079, 0.0235 -0.3919 0.0079, 0.025 -0.3904 0.0079, 0.0285 -0.3915 0.0079, 0.026 -0.3885 0.0079, 0.0359 -0.3915 0.0079, -0.0013 -0.3826 0.0079, 0.0057 -0.3826 0.0079, 0.0057 -0.3761 0.0079, 0.0228 -0.3756 0.0079, 0.0209 -0.3745 0.0079, 0.0188 -0.3738 0.0079, 0.0266 -0.3864 0.0079, 0.0268 -0.3841 0.0079, 0.0265 -0.3813 0.0079, 0.0168 -0.3737 0.0079, 0.0144 -0.3739 0.0079, 0.0121 -0.3745 0.0079, 0.1181 -0.5906 0.0079, 0.0394 -0.5906 0.0079, 0.1181 -0.4331 0.0079, 0.0394 -0.4331 0.0079, 0.2756 -0.5906 0.0079, 0.1969 -0.5906 0.0079, 0.2756 -0.4331 0.0079, 0.1969 -0.4331 0.0079, 0.5906 -0.5906 0.0079, 0.3543 -0.5906 0.0079, 0.3543 -0.4803 0.0079, 0.3071 -0.4331 0.0079, -0.0042 -0.4331 0.0079, 0.017 -0.3938 0.0079, 0.0176 -0.3939 0.0079, -0.0115 -0.3936 0.0079, -0.0061 -0.3936 0.0079, -0.1181 0.4331 0.0079, -0.1181 0.5906 0.0079, -0.0394 0.5906 0.0079, -0.5906 -0.1181 0.0079, -0.5906 -0.0394 0.0079, -0.4331 -0.1181 0.0079, -0.4331 -0.0394 0.0079, -0.4331 0.0394 0.0079, -0.5906 0.0394 0.0079, -0.5906 0.1181 0.0079, -0.0234 -0.3936 0.0079, -0.021 -0.3882 0.0079, -0.0198 -0.39 0.0079, -0.4803 -0.3543 0.0079, -0.4331 -0.3071 0.0079, -0.0412 -0.3936 0.0079, -0.5906 -0.2756 0.0079, -0.5906 -0.1969 0.0079, -0.4331 -0.2756 0.0079, -0.4331 -0.1969 0.0079, -0.4803 0.3543 0.0079, -0.5906 0.3543 0.0079, -0.5906 0.5906 0.0079, -0.2756 0.5906 0.0079, -0.1969 0.5906 0.0079, -0.2756 0.4331 0.0079, -0.1969 0.4331 0.0079, -0.0383 -0.3936 0.0079, -0.0182 -0.3915 0.0079, -0.0162 -0.3927 0.0079, -0.0139 -0.3934 0.0079, -0.0061 -0.3739 0.0079, -0.0335 -0.3739 0.0079, -0.0308 -0.3739 0.0079, -0.3071 0.4331 0.0079, -0.4331 0.1969 0.0079, -0.4331 0.1181 0.0079, -0.0394 0.4331 0.0079, -0.0263 -0.3936 0.0079, -0.0281 -0.3881 0.0079, -0.0363 -0.3881 0.0079, -0.0168 -0.375 0.0079, -0.0189 -0.3765 0.0079, -0.0117 -0.3739 0.0079, -0.0145 -0.3742 0.0079, -0.019 -0.3765 0.0079, -0.0204 -0.378 0.0079, -0.0213 -0.3797 0.0079, -0.5906 0.1969 0.0079, -0.5906 0.2756 0.0079, -0.4331 0.2756 0.0079, -0.4331 0.3071 0.0079, -0.3543 0.4803 0.0079, -0.3543 0.5906 0.0079, -0.0218 -0.3817 0.0079, -0.0219 -0.3835 0.0079, -0.0217 -0.3862 0.0079, -0.0394 -0.4331 0.0079, -0.5906 -0.3937 0.0079, -0.5906 -0.3543 0.0079, -0.1969 -0.4331 0.0079, -0.1969 -0.5906 0.0079, -0.2756 -0.5906 0.0079, -0.2756 -0.4331 0.0079, -0.1181 -0.4331 0.0079, -0.1181 -0.5906 0.0079, -0.0394 -0.5906 0.0079, -0.3543 -0.5906 0.0079, -0.5906 -0.5906 0.0079, -0.3543 -0.4803 0.0079, -0.3071 -0.4331 0.0079, -0.3071 -0.4331 0.0079
            ]
        }
        coordIndex [
            0,1,2,-1,3,4,5,-1,5,6,3,-1,3,6,7,-1,3,7,8,-1,9,10,11,-1,12,13,14,-1,15,16,17,-1,18,19,20,-1,20,19,21,-1,4,22,5,-1,5,22,23,-1,5,23,24,-1,24,23,25,-1,24,25,26,-1,11,27,9,-1,9,27,28,-1,9,28,29,-1,29,28,30,-1,31,32,30,-1,30,32,33,-1,30,33,29,-1,29,33,12,-1,29,12,34,-1,34,12,14,-1,35,20,36,-1,36,20,21,-1,36,21,27,-1,27,21,0,-1,27,0,28,-1,28,0,2,-1,26,37,24,-1,24,37,38,-1,24,38,39,-1,40,41,24,-1,24,41,42,-1,43,44,45,-1,45,44,46,-1,42,47,24,-1,24,47,46,-1,24,46,48,-1,48,46,44,-1,49,50,51,-1,52,53,36,-1,36,53,54,-1,36,54,35,-1,35,54,55,-1,35,55,56,-1,56,55,15,-1,56,15,57,-1,57,15,17,-1,39,58,24,-1,24,58,59,-1,24,59,40,-1,60,61,62,-1,63,64,51,-1,65,66,67,-1,67,66,29,-1,67,29,68,-1,68,29,34,-1,68,34,60,-1,60,34,69,-1,60,69,61,-1,62,70,60,-1,60,70,71,-1,60,71,72,-1,72,71,73,-1,72,73,74,-1,75,76,77,-1,74,78,72,-1,72,78,79,-1,72,79,80,-1,80,79,81,-1,80,81,82,-1,77,49,75,-1,75,49,51,-1,75,51,83,-1,83,51,64,-1,83,64,84,-1,84,64,85,-1,66,86,29,-1,29,86,87,-1,29,87,88,-1,81,89,82,-1,82,89,90,-1,82,90,67,-1,67,90,91,-1,67,91,65,-1,88,92,29,-1,29,92,93,-1,29,93,4,-1,4,93,94,-1,4,94,22,-1,95,96,97,-1,97,96,98,-1,99,100,101,-1,101,100,102,-1,103,104,70,-1,70,104,105,-1,70,105,106,-1,50,3,51,-1,51,3,8,-1,51,8,107,-1,107,8,108,-1,107,108,98,-1,98,108,109,-1,98,109,97,-1,97,109,71,-1,97,71,102,-1,102,71,70,-1,102,70,101,-1,101,70,106,-1,110,111,51,-1,112,113,114,-1,115,116,117,-1,117,116,118,-1,119,120,121,-1,122,123,124,-1,125,126,127,-1,128,129,130,-1,130,129,131,-1,132,133,134,-1,135,136,137,-1,137,136,138,-1,51,127,139,-1,124,140,122,-1,122,140,141,-1,122,141,142,-1,111,143,51,-1,51,143,29,-1,51,29,63,-1,63,29,4,-1,126,130,127,-1,127,130,131,-1,127,131,144,-1,144,131,145,-1,146,137,147,-1,147,137,138,-1,147,138,148,-1,148,138,112,-1,148,112,149,-1,149,112,114,-1,142,110,122,-1,122,110,51,-1,122,51,150,-1,150,51,139,-1,150,139,151,-1,151,139,152,-1,145,153,154,-1,121,148,119,-1,119,148,149,-1,119,149,118,-1,118,149,29,-1,118,29,117,-1,117,29,143,-1,117,143,131,-1,131,143,155,-1,131,155,145,-1,145,155,156,-1,145,156,153,-1,154,157,145,-1,145,157,158,-1,145,158,159,-1,160,161,147,-1,147,161,162,-1,147,162,146,-1,146,162,163,-1,146,163,164,-1,164,163,132,-1,164,132,165,-1,165,132,134,-1,159,166,145,-1,145,166,167,-1,145,167,122,-1,122,167,168,-1,122,168,123,-1,107,169,51,-1,51,169,170,-1,51,170,127,-1,127,170,171,-1,127,171,125,-1,172,173,174,-1,174,175,172,-1,172,175,170,-1,172,170,176,-1,176,170,169,-1,176,169,177,-1,177,169,178,-1,179,180,181,-1,181,180,170,-1,181,170,182,-1,182,170,175,-1,
        ]
    }
}
Shape{
    appearance Appearance {
        material  Material 	{
            diffuseColor 0.9686274509803922 0.8784313725490196 0.6
            specularColor 0.6784313725490196 0.615686274509804 0.4196078431372549
            ambientIntensity 0.2
            transparency 0
            shininess 0.5
        }
    }
    geometry IndexedFaceSet {
        ccw TRUE
        solid FALSE
        coord DEF co Coordinate {
            point [
                0.3346 -0.3346 0.0787, -0.3346 -0.3346 0.0787, 0.3346 -0.3346 0.0, -0.3346 -0.3346 0.0, 0.3346 0.3346 0.0787, 0.3346 0.3346 0.0, -0.2165 0.3346 0.0787, -0.2165 0.3346 0.0, -0.3346 0.2165 0.0787, -0.3346 0.2165 0.0, -0.3346 0.2165 0.0
            ]
        }
        coordIndex [
            0,1,2,-1,2,1,3,-1,4,0,5,-1,5,0,2,-1,6,4,7,-1,7,4,5,-1,8,6,9,-1,9,6,7,-1,1,8,3,-1,3,8,9,-1,8,1,6,-1,6,1,0,-1,6,0,4,-1,3,9,2,-1,2,9,7,-1,2,7,5,-1,
        ]
    }
}