#VRML V2.0 utf8
# 3D model generated by easyeda2kicad.py (https://github.com/uPesy/easyeda2kicad.py)

Shape{
    appearance Appearance {
        material  Material 	{
            diffuseColor 0.9686274509803922 0.8784313725490196 0.6
            specularColor 0.6784313725490196 0.615686274509804 0.4196078431372549
            ambientIntensity 0.2
            transparency 0
            shininess 0.5
        }
    }
    geometry IndexedFaceSet {
        ccw TRUE
        solid FALSE
        coord DEF co Coordinate {
            point [
                0.1181 -0.0394 0.0079, 0.1181 -0.1181 0.0079, 0.2756 -0.0394 0.0079, 0.2756 -0.1181 0.0079, 0.1181 -0.0394 0.0, 0.1181 -0.1181 0.0, 0.2756 -0.0394 0.0, 0.2756 -0.1181 0.0, 0.1181 0.0394 0.0079, 0.1181 0.0394 0.0433, 0.1181 0.1181 0.0079, 0.1181 0.1181 0.0433, 0.2756 0.1181 0.0079, 0.2756 0.1181 0.0433, 0.2756 0.0394 0.0433, 0.2756 0.0394 0.0079, 0.1969 -0.1969 0.0079, 0.1181 -0.1969 0.0079, 0.1969 -0.3543 0.0079, 0.1181 -0.3543 0.0079, 0.1181 -0.3543 0.0, 0.1969 -0.3543 0.0, 0.1181 -0.1969 0.0, 0.1969 -0.1969 0.0, -0.1969 -0.1969 0.0079, -0.1969 -0.3543 0.0079, -0.1181 -0.1969 0.0079, -0.1181 -0.3543 0.0079, -0.1181 -0.3543 0.0, -0.1181 -0.1969 0.0, -0.1969 -0.3543 0.0, -0.1969 -0.1969 0.0, -0.1181 0.3543 0.0433, -0.1181 0.1969 0.0433, -0.1969 0.3543 0.0433, -0.1969 0.1969 0.0433, -0.1181 0.1969 0.0079, -0.1181 0.3543 0.0079, -0.1969 0.1969 0.0079, -0.1969 0.3543 0.0079, 0.1181 -0.1969 0.0433, 0.1969 -0.1969 0.0433, 0.1969 -0.3543 0.0433, 0.1181 -0.3543 0.0433, -0.2756 0.1181 0.0433, -0.126 0.1181 0.0433, -0.2756 0.0394 0.0433, -0.0787 0.0709 0.0433, -0.0787 0.0394 0.0433, -0.0787 0.0394 0.0079, -0.0787 0.0709 0.0079, -0.2756 0.0394 0.0079, -0.2756 0.1181 0.0079, -0.126 0.1181 0.0079, -0.0394 -0.1969 0.0433, -0.0394 -0.1969 0.0079, 0.0394 -0.1969 0.0433, 0.001 -0.1969 0.0079, 0.0394 -0.1969 0.0079, 0.0394 -0.3543 0.0433, 0.0394 -0.3543 0.0079, -0.0394 -0.3543 0.0433, -0.0394 -0.3543 0.0079, -0.1181 -0.0394 0.0433, -0.1181 -0.1181 0.0433, -0.2756 -0.0394 0.0433, -0.2756 -0.1181 0.0433, -0.1181 -0.0394 0.0079, -0.2756 -0.0394 0.0079, -0.1181 -0.1181 0.0079, -0.1181 -0.0403 0.0079, -0.2756 -0.1181 0.0079, 0.0394 0.1969 0.0433, 0.0394 0.3543 0.0433, 0.0394 0.1969 0.0079, 0.0394 0.3543 0.0079, -0.0394 0.1969 0.0433, -0.0394 0.1969 0.0079, -0.0394 0.3543 0.0433, -0.0394 0.3543 0.0079, 0.001 0.1969 0.0079, -0.1969 -0.3543 0.0433, -0.1969 -0.1969 0.0433, -0.1181 -0.3543 0.0433, -0.1181 -0.1969 0.0433, 0.1969 0.3543 0.0433, 0.1969 0.1969 0.0433, 0.1181 0.3543 0.0433, 0.1181 0.1969 0.0433, 0.1969 0.1969 0.0079, 0.1969 0.3543 0.0079, 0.1181 0.1969 0.0079, 0.1181 0.3543 0.0079, 0.1181 -0.1181 0.0433, 0.2756 -0.1181 0.0433, 0.1181 -0.0394 0.0433, 0.2756 -0.0394 0.0433, 0.1181 -0.0403 0.0079, 0.1181 -0.0403 0.0079
            ]
        }
        coordIndex [
            0,1,2,-1,2,1,3,-1,4,5,0,-1,0,5,1,-1,6,7,4,-1,4,7,5,-1,7,6,3,-1,3,6,2,-1,6,4,2,-1,2,4,0,-1,1,5,3,-1,3,5,7,-1,8,9,10,-1,10,9,11,-1,10,11,12,-1,12,11,13,-1,14,9,15,-1,15,9,8,-1,14,13,9,-1,9,13,11,-1,8,10,15,-1,15,10,12,-1,14,15,13,-1,13,15,12,-1,16,17,18,-1,18,17,19,-1,20,21,19,-1,19,21,18,-1,17,22,19,-1,19,22,20,-1,23,21,22,-1,22,21,20,-1,21,23,18,-1,18,23,16,-1,23,22,16,-1,16,22,17,-1,24,25,26,-1,26,25,27,-1,28,29,27,-1,27,29,26,-1,30,31,28,-1,28,31,29,-1,29,31,26,-1,26,31,24,-1,30,28,25,-1,25,28,27,-1,24,31,25,-1,25,31,30,-1,32,33,34,-1,34,33,35,-1,33,32,36,-1,36,32,37,-1,35,33,38,-1,38,33,36,-1,35,38,34,-1,34,38,39,-1,40,17,41,-1,41,17,16,-1,41,16,42,-1,42,16,18,-1,40,43,17,-1,17,43,19,-1,41,42,40,-1,40,42,43,-1,44,45,46,-1,46,45,47,-1,46,47,48,-1,48,47,49,-1,49,47,50,-1,46,48,51,-1,51,48,49,-1,44,52,45,-1,45,52,53,-1,45,53,47,-1,47,53,50,-1,9,8,11,-1,11,8,10,-1,11,10,13,-1,13,10,12,-1,9,14,8,-1,8,14,15,-1,13,14,11,-1,11,14,9,-1,54,55,56,-1,56,55,57,-1,56,57,58,-1,56,58,59,-1,59,58,60,-1,54,61,55,-1,55,61,62,-1,56,59,54,-1,54,59,61,-1,63,64,65,-1,65,64,66,-1,63,65,67,-1,67,65,68,-1,69,64,70,-1,70,64,63,-1,70,63,67,-1,64,69,66,-1,66,69,71,-1,72,73,74,-1,74,73,75,-1,76,77,78,-1,78,77,79,-1,77,76,80,-1,80,76,72,-1,80,72,74,-1,73,72,78,-1,78,72,76,-1,81,82,83,-1,83,82,84,-1,82,81,24,-1,24,81,25,-1,82,24,84,-1,84,24,26,-1,84,26,83,-1,83,26,27,-1,85,86,87,-1,87,86,88,-1,86,85,89,-1,89,85,90,-1,88,86,91,-1,91,86,89,-1,88,91,87,-1,87,91,92,-1,93,94,1,-1,1,94,3,-1,95,0,96,-1,96,0,2,-1,0,95,97,-1,97,95,93,-1,97,93,1,-1,96,94,95,-1,95,94,93,-1,
        ]
    }
}
Shape{
    appearance Appearance {
        material  Material 	{
            diffuseColor 0.10980392156862745 0.10980392156862745 0.10980392156862745
            specularColor 0.0784313725490196 0.0784313725490196 0.0784313725490196
            ambientIntensity 0.2
            transparency 0
            shininess 0.5
        }
    }
    geometry IndexedFaceSet {
        ccw TRUE
        solid FALSE
        coord DEF co Coordinate {
            point [
                -0.0036 -0.0226 0.0079, -0.0036 -0.038 0.0079, -0.0065 -0.0226 0.0079, -0.0064 -0.038 0.0079, -0.0084 -0.0378 0.0079, -0.0141 -0.0301 0.0079, -0.014 -0.0282 0.0079, -0.0135 -0.0266 0.0079, -0.0088 -0.0229 0.0079, -0.0101 -0.0373 0.0079, -0.0114 -0.0365 0.0079, -0.0125 -0.0354 0.0079, -0.0134 -0.0341 0.0079, -0.014 -0.0322 0.0079, -0.0128 -0.0254 0.0079, -0.0119 -0.0244 0.0079, -0.0104 -0.0235 0.0079, -0.0236 -0.0325 0.0079, -0.0302 -0.0325 0.0079, -0.0266 -0.0243 0.0079, -0.0273 -0.0243 0.0079, -0.0268 -0.0236 0.0079, -0.0271 -0.0236 0.0079, -0.0269 -0.0229 0.0079, -0.027 -0.0229 0.0079, -0.027 -0.0229 0.0079
            ]
        }
        coordIndex [
            0,1,2,-1,2,1,3,-1,2,3,4,-1,5,6,2,-1,2,6,7,-1,2,7,8,-1,4,9,2,-1,2,9,10,-1,2,10,11,-1,11,12,2,-1,2,12,13,-1,2,13,5,-1,14,15,7,-1,7,15,16,-1,7,16,8,-1,17,18,19,-1,19,18,20,-1,19,20,21,-1,21,20,22,-1,21,22,23,-1,23,22,24,-1,
        ]
    }
}
Shape{
    appearance Appearance {
        material  Material 	{
            diffuseColor 0.4117647058823529 0.4117647058823529 0.4117647058823529
            specularColor 0.20392156862745098 0.20392156862745098 0.20392156862745098
            ambientIntensity 0.2
            transparency 0
            shininess 0.5
        }
    }
    geometry IndexedFaceSet {
        ccw TRUE
        solid FALSE
        coord DEF co Coordinate {
            point [
                -0.1628 0.2559 0.189, -0.1588 0.2654 0.189, -0.1969 0.2756 0.189, -0.1575 0.2756 0.189, -0.1588 0.2858 0.189, -0.1867 0.2376 0.189, -0.1772 0.2415 0.189, -0.169 0.2478 0.189, -0.2165 0.2415 0.189, -0.207 0.2376 0.189, -0.1969 0.2362 0.189, -0.2349 0.2654 0.189, -0.2309 0.2559 0.189, -0.2247 0.2478 0.189, -0.2309 0.2953 0.189, -0.2349 0.2858 0.189, -0.2362 0.2756 0.189, -0.207 0.3136 0.189, -0.2165 0.3097 0.189, -0.2247 0.3034 0.189, -0.1772 0.3097 0.189, -0.1867 0.3136 0.189, -0.1969 0.315 0.189, -0.1628 0.2953 0.189, -0.169 0.3034 0.189, -0.169 0.3034 0.189
            ]
        }
        coordIndex [
            0,1,2,-1,2,1,3,-1,2,3,4,-1,5,6,2,-1,2,6,7,-1,2,7,0,-1,8,9,2,-1,2,9,10,-1,2,10,5,-1,11,12,2,-1,2,12,13,-1,2,13,8,-1,14,15,2,-1,2,15,16,-1,2,16,11,-1,17,18,2,-1,2,18,19,-1,2,19,14,-1,20,21,2,-1,2,21,22,-1,2,22,17,-1,4,23,2,-1,2,23,24,-1,2,24,20,-1,
        ]
    }
}
Shape{
    appearance Appearance {
        material  Material 	{
            diffuseColor 0.792156862745098 0.8196078431372549 0.9333333333333333
            specularColor 0.396078431372549 0.4117647058823529 0.4666666666666667
            ambientIntensity 0.2
            transparency 0
            shininess 0.5
        }
    }
    geometry IndexedFaceSet {
        ccw TRUE
        solid FALSE
        coord DEF co Coordinate {
            point [
                -0.0064 -0.038 0.0079, -0.0064 -0.038 0.0118, -0.0084 -0.0378 0.0118, -0.0084 -0.0378 0.0079, -0.0101 -0.0373 0.0118, -0.0101 -0.0373 0.0079, -0.0114 -0.0365 0.0118, -0.0114 -0.0365 0.0079, -0.0125 -0.0354 0.0118, -0.0125 -0.0354 0.0079, -0.0134 -0.0341 0.0118, -0.0134 -0.0341 0.0079, -0.014 -0.0322 0.0118, -0.014 -0.0322 0.0079, -0.0141 -0.0301 0.0118, -0.0141 -0.0301 0.0079, -0.0141 -0.0301 0.0079
            ]
        }
        coordIndex [
            0,1,2,-1,0,2,3,-1,3,2,4,-1,3,4,5,-1,5,4,6,-1,5,6,7,-1,7,6,8,-1,7,8,9,-1,9,8,10,-1,9,10,11,-1,11,10,12,-1,11,12,13,-1,13,12,14,-1,13,14,15,-1,
        ]
    }
}
Shape{
    appearance Appearance {
        material  Material 	{
            diffuseColor 0.9686274509803922 0.8784313725490196 0.6
            specularColor 0.6784313725490196 0.615686274509804 0.4196078431372549
            ambientIntensity 0.2
            transparency 0
            shininess 0.5
        }
    }
    geometry IndexedFaceSet {
        ccw TRUE
        solid FALSE
        coord DEF co Coordinate {
            point [
                -0.0141 -0.0301 0.0079, -0.0141 -0.0301 0.0118, -0.014 -0.0282 0.0118, -0.014 -0.0282 0.0079, -0.0135 -0.0266 0.0118, -0.0135 -0.0266 0.0079, -0.0128 -0.0254 0.0118, -0.0128 -0.0254 0.0079, -0.0119 -0.0244 0.0118, -0.0119 -0.0244 0.0079, -0.0104 -0.0235 0.0118, -0.0104 -0.0235 0.0079, -0.0088 -0.0229 0.0118, -0.0088 -0.0229 0.0079, -0.0065 -0.0226 0.0118, -0.0065 -0.0226 0.0079, -0.0065 -0.0226 0.0079
            ]
        }
        coordIndex [
            0,1,2,-1,0,2,3,-1,3,2,4,-1,3,4,5,-1,5,4,6,-1,5,6,7,-1,7,6,8,-1,7,8,9,-1,9,8,10,-1,9,10,11,-1,11,10,12,-1,11,12,13,-1,13,12,14,-1,13,14,15,-1,
        ]
    }
}
Shape{
    appearance Appearance {
        material  Material 	{
            diffuseColor 0.792156862745098 0.8196078431372549 0.9333333333333333
            specularColor 0.396078431372549 0.4117647058823529 0.4666666666666667
            ambientIntensity 0.2
            transparency 0
            shininess 0.5
        }
    }
    geometry IndexedFaceSet {
        ccw TRUE
        solid FALSE
        coord DEF co Coordinate {
            point [
                -0.0036 -0.0226 0.0118, -0.0036 -0.0226 0.0079, -0.0065 -0.0226 0.0118, -0.0065 -0.0226 0.0079, -0.0036 -0.038 0.0079, -0.0036 -0.038 0.0118, -0.0064 -0.038 0.0118, -0.0064 -0.038 0.0079, -0.0064 -0.038 0.0079
            ]
        }
        coordIndex [
            0,1,2,-1,2,1,3,-1,4,1,5,-1,5,1,0,-1,6,7,5,-1,5,7,4,-1,
        ]
    }
}
Shape{
    appearance Appearance {
        material  Material 	{
            diffuseColor 0.9686274509803922 0.8784313725490196 0.6
            specularColor 0.6784313725490196 0.615686274509804 0.4196078431372549
            ambientIntensity 0.2
            transparency 0
            shininess 0.5
        }
    }
    geometry IndexedFaceSet {
        ccw TRUE
        solid FALSE
        coord DEF co Coordinate {
            point [
                -0.0273 -0.0243 0.0079, -0.0273 -0.0243 0.0118, -0.0271 -0.0236 0.0118, -0.0271 -0.0236 0.0079, -0.027 -0.0229 0.0118, -0.027 -0.0229 0.0079, -0.027 -0.0229 0.0079
            ]
        }
        coordIndex [
            0,1,2,-1,0,2,3,-1,3,2,4,-1,3,4,5,-1,
        ]
    }
}
Shape{
    appearance Appearance {
        material  Material 	{
            diffuseColor 0.792156862745098 0.8196078431372549 0.9333333333333333
            specularColor 0.396078431372549 0.4117647058823529 0.4666666666666667
            ambientIntensity 0.2
            transparency 0
            shininess 0.5
        }
    }
    geometry IndexedFaceSet {
        ccw TRUE
        solid FALSE
        coord DEF co Coordinate {
            point [
                -0.0269 -0.0229 0.0118, -0.0269 -0.0229 0.0079, -0.027 -0.0229 0.0118, -0.027 -0.0229 0.0079, -0.0268 -0.0236 0.0118, -0.0268 -0.0236 0.0079, -0.0266 -0.0243 0.0118, -0.0266 -0.0243 0.0079, -0.0236 -0.0325 0.0118, -0.0236 -0.0325 0.0079, -0.0302 -0.0325 0.0118, -0.0302 -0.0325 0.0079, -0.0273 -0.0243 0.0079, -0.0273 -0.0243 0.0118, -0.0273 -0.0243 0.0118
            ]
        }
        coordIndex [
            0,1,2,-1,2,1,3,-1,1,0,4,-1,1,4,5,-1,5,4,6,-1,5,6,7,-1,8,9,6,-1,6,9,7,-1,10,11,8,-1,8,11,9,-1,12,11,13,-1,13,11,10,-1,
        ]
    }
}
Shape{
    appearance Appearance {
        material  Material 	{
            diffuseColor 0.4117647058823529 0.4117647058823529 0.4117647058823529
            specularColor 0.20392156862745098 0.20392156862745098 0.20392156862745098
            ambientIntensity 0.2
            transparency 0
            shininess 0.5
        }
    }
    geometry IndexedFaceSet {
        ccw TRUE
        solid FALSE
        coord DEF co Coordinate {
            point [
                -0.1575 0.2756 0.189, -0.1575 0.2756 0.1969, -0.1588 0.2858 0.189, -0.1588 0.2858 0.1969, -0.1628 0.2953 0.189, -0.1628 0.2953 0.1969, -0.169 0.3034 0.189, -0.169 0.3034 0.1969, -0.1772 0.3097 0.189, -0.1772 0.3097 0.1969, -0.1867 0.3136 0.189, -0.1867 0.3136 0.1969, -0.1969 0.315 0.189, -0.1969 0.315 0.1969, -0.207 0.3136 0.189, -0.207 0.3136 0.1969, -0.2165 0.3097 0.189, -0.2165 0.3097 0.1969, -0.2247 0.3034 0.189, -0.2247 0.3034 0.1969, -0.2309 0.2953 0.189, -0.2309 0.2953 0.1969, -0.2349 0.2858 0.189, -0.2349 0.2858 0.1969, -0.2362 0.2756 0.189, -0.2362 0.2756 0.1969, -0.2349 0.2654 0.189, -0.2349 0.2654 0.1969, -0.2309 0.2559 0.189, -0.2309 0.2559 0.1969, -0.2247 0.2478 0.189, -0.2247 0.2478 0.1969, -0.2165 0.2415 0.189, -0.2165 0.2415 0.1969, -0.207 0.2376 0.189, -0.207 0.2376 0.1969, -0.1969 0.2362 0.189, -0.1969 0.2362 0.1969, -0.1867 0.2376 0.189, -0.1867 0.2376 0.1969, -0.1772 0.2415 0.189, -0.1772 0.2415 0.1969, -0.169 0.2478 0.189, -0.169 0.2478 0.1969, -0.1628 0.2559 0.189, -0.1628 0.2559 0.1969, -0.1588 0.2654 0.189, -0.1588 0.2654 0.1969, -0.1588 0.2654 0.1969
            ]
        }
        coordIndex [
            0,1,2,-1,2,1,3,-1,2,3,4,-1,4,3,5,-1,4,5,6,-1,6,5,7,-1,6,7,8,-1,8,7,9,-1,8,9,10,-1,10,9,11,-1,10,11,12,-1,12,11,13,-1,12,13,14,-1,14,13,15,-1,14,15,16,-1,16,15,17,-1,16,17,18,-1,18,17,19,-1,18,19,20,-1,20,19,21,-1,20,21,22,-1,22,21,23,-1,22,23,24,-1,24,23,25,-1,24,25,26,-1,26,25,27,-1,26,27,28,-1,28,27,29,-1,28,29,30,-1,30,29,31,-1,30,31,32,-1,32,31,33,-1,32,33,34,-1,34,33,35,-1,34,35,36,-1,36,35,37,-1,36,37,38,-1,38,37,39,-1,38,39,40,-1,40,39,41,-1,40,41,42,-1,42,41,43,-1,42,43,44,-1,44,43,45,-1,44,45,46,-1,46,45,47,-1,46,47,0,-1,0,47,1,-1,
        ]
    }
}
Shape{
    appearance Appearance {
        material  Material 	{
            diffuseColor 0.792156862745098 0.8196078431372549 0.9333333333333333
            specularColor 0.396078431372549 0.4117647058823529 0.4666666666666667
            ambientIntensity 0.2
            transparency 0
            shininess 0.5
        }
    }
    geometry IndexedFaceSet {
        ccw TRUE
        solid FALSE
        coord DEF co Coordinate {
            point [
                0.0411 -0.0205 0.0118, 0.0437 -0.0205 0.0118, 0.0411 -0.038 0.0118, 0.0437 -0.0402 0.0118, 0.0336 -0.038 0.0118, 0.0336 -0.0402 0.0118, 0.0242 -0.038 0.0118, 0.0227 -0.0404 0.0118, 0.0224 -0.0383 0.0118, 0.0222 -0.0404 0.0118, 0.0198 -0.038 0.0118, 0.0194 -0.04 0.0118, 0.0177 -0.0372 0.0118, 0.0173 -0.0392 0.0118, 0.0173 -0.037 0.0118, 0.0173 -0.0237 0.0118, 0.0173 -0.021 0.0118, 0.0195 -0.0227 0.0118, 0.0196 -0.0204 0.0118, 0.0219 -0.0224 0.0118, 0.0219 -0.0202 0.0118, 0.0239 -0.0226 0.0118, 0.0239 -0.0204 0.0118, 0.0253 -0.0232 0.0118, 0.0261 -0.021 0.0118, 0.0267 -0.0241 0.0118, 0.028 -0.0221 0.0118, 0.0279 -0.0254 0.0118, 0.0298 -0.0238 0.0118, 0.0287 -0.0269 0.0118, 0.0309 -0.0257 0.0118, 0.0292 -0.029 0.0118, 0.0317 -0.0279 0.0118, 0.0293 -0.0305 0.0118, 0.032 -0.0307 0.0118, 0.0291 -0.0327 0.0118, 0.0318 -0.033 0.0118, 0.0286 -0.0344 0.0118, 0.0312 -0.0351 0.0118, 0.0278 -0.0357 0.0118, 0.0301 -0.0369 0.0118, 0.0268 -0.0367 0.0118, 0.0286 -0.0385 0.0118, 0.0256 -0.0375 0.0118, 0.0271 -0.0395 0.0118, 0.0252 -0.0402 0.0118, 0.0135 -0.0402 0.0118, 0.0029 -0.0402 0.0118, 0.0029 -0.038 0.0118, 0.0108 -0.038 0.0118, 0.0108 -0.0313 0.0118, 0.0135 -0.0205 0.0118, 0.0034 -0.0226 0.0118, 0.0034 -0.0205 0.0118, 0.0108 -0.0226 0.0118, 0.0108 -0.0291 0.0118, 0.0039 -0.0291 0.0118, 0.0039 -0.0313 0.0118, -0.0161 -0.0263 0.0118, -0.0152 -0.0246 0.0118, -0.0128 -0.0254 0.0118, -0.0138 -0.0231 0.0118, -0.0119 -0.0244 0.0118, -0.0138 -0.023 0.0118, -0.0104 -0.0235 0.0118, -0.0116 -0.0216 0.0118, -0.0088 -0.0229 0.0118, -0.0093 -0.0208 0.0118, -0.0065 -0.0226 0.0118, -0.0065 -0.0205 0.0118, -0.0036 -0.0226 0.0118, -0.0009 -0.0205 0.0118, -0.0036 -0.038 0.0118, -0.0009 -0.0402 0.0118, -0.0064 -0.038 0.0118, -0.0063 -0.0402 0.0118, -0.0084 -0.0378 0.0118, -0.0087 -0.04 0.0118, -0.0101 -0.0373 0.0118, -0.011 -0.0393 0.0118, -0.0114 -0.0365 0.0118, -0.013 -0.0381 0.0118, -0.0125 -0.0354 0.0118, -0.0147 -0.0365 0.0118, -0.0134 -0.0341 0.0118, -0.0158 -0.0348 0.0118, -0.014 -0.0322 0.0118, -0.0165 -0.0327 0.0118, -0.0141 -0.0301 0.0118, -0.0168 -0.0301 0.0118, -0.014 -0.0282 0.0118, -0.0166 -0.0282 0.0118, -0.0135 -0.0266 0.0118, -0.0236 -0.0325 0.0118, -0.023 -0.0346 0.0118, -0.0302 -0.0325 0.0118, -0.0311 -0.0346 0.0118, -0.0266 -0.0243 0.0118, -0.0257 -0.0205 0.0118, -0.0182 -0.0402 0.0118, -0.0211 -0.0402 0.0118, -0.0268 -0.0236 0.0118, -0.0269 -0.0229 0.0118, -0.0283 -0.0205 0.0118, -0.027 -0.0229 0.0118, -0.0271 -0.0236 0.0118, -0.0273 -0.0243 0.0118, -0.036 -0.0402 0.0118, -0.0331 -0.0402 0.0118, -0.0331 -0.0402 0.0118
            ]
        }
        coordIndex [
            0,1,2,-1,2,1,3,-1,2,3,4,-1,4,3,5,-1,6,7,8,-1,8,7,9,-1,8,9,10,-1,10,9,11,-1,10,11,12,-1,12,11,13,-1,12,13,14,-1,15,16,17,-1,17,16,18,-1,17,18,19,-1,19,18,20,-1,19,20,21,-1,21,20,22,-1,21,22,23,-1,23,22,24,-1,23,24,25,-1,25,24,26,-1,25,26,27,-1,27,26,28,-1,27,28,29,-1,29,28,30,-1,29,30,31,-1,31,30,32,-1,31,32,33,-1,33,32,34,-1,33,34,35,-1,35,34,36,-1,35,36,37,-1,37,36,38,-1,37,38,39,-1,39,38,40,-1,39,40,41,-1,41,40,42,-1,41,42,43,-1,43,42,44,-1,43,44,6,-1,6,44,45,-1,6,45,7,-1,46,47,48,-1,48,49,46,-1,46,49,50,-1,46,50,51,-1,52,53,54,-1,54,53,51,-1,54,51,55,-1,55,51,50,-1,55,50,56,-1,56,50,57,-1,58,59,60,-1,60,59,61,-1,60,61,62,-1,62,61,63,-1,62,63,64,-1,64,63,65,-1,64,65,66,-1,66,65,67,-1,66,67,68,-1,68,67,69,-1,68,69,70,-1,70,69,71,-1,70,71,72,-1,72,71,73,-1,72,73,74,-1,74,73,75,-1,74,75,76,-1,76,75,77,-1,76,77,78,-1,78,77,79,-1,78,79,80,-1,80,79,81,-1,80,81,82,-1,82,81,83,-1,82,83,84,-1,84,83,85,-1,84,85,86,-1,86,85,87,-1,86,87,88,-1,88,87,89,-1,88,89,90,-1,90,89,91,-1,90,91,92,-1,92,91,58,-1,92,58,60,-1,93,94,95,-1,95,94,96,-1,97,98,93,-1,93,98,99,-1,93,99,94,-1,94,99,100,-1,97,101,98,-1,98,101,102,-1,98,102,103,-1,103,102,104,-1,103,104,105,-1,105,106,103,-1,103,106,95,-1,103,95,107,-1,107,95,96,-1,107,96,108,-1,
        ]
    }
}
Shape{
    appearance Appearance {
        material  Material 	{
            diffuseColor 0.10980392156862745 0.10980392156862745 0.10980392156862745
            specularColor 0.0784313725490196 0.0784313725490196 0.0784313725490196
            ambientIntensity 0.2
            transparency 0
            shininess 0.5
        }
    }
    geometry IndexedFaceSet {
        ccw TRUE
        solid FALSE
        coord DEF co Coordinate {
            point [
                -0.169 0.3034 0.1969, -0.1628 0.2953 0.1969, 0.2756 0.3543 0.1969, -0.1588 0.2858 0.1969, -0.1575 0.2756 0.1969, -0.1588 0.2654 0.1969, 0.2756 -0.3543 0.1969, -0.1628 0.2559 0.1969, -0.169 0.2478 0.1969, -0.207 0.3136 0.1969, -0.1969 0.315 0.1969, -0.2756 0.3543 0.1969, -0.1867 0.3136 0.1969, -0.1772 0.3097 0.1969, -0.2247 0.2478 0.1969, -0.2756 -0.3543 0.1969, -0.2165 0.2415 0.1969, -0.207 0.2376 0.1969, -0.2349 0.2858 0.1969, -0.2309 0.2953 0.1969, -0.1772 0.2415 0.1969, -0.1867 0.2376 0.1969, -0.1969 0.2362 0.1969, -0.2247 0.3034 0.1969, -0.2165 0.3097 0.1969, -0.2309 0.2559 0.1969, -0.2349 0.2654 0.1969, -0.2362 0.2756 0.1969, -0.2756 0.0394 0.0433, -0.2756 0.1181 0.0433, -0.2756 0.1181 0.0079, -0.2756 0.3543 0.0079, -0.2756 -0.1181 0.0079, -0.2756 -0.3543 0.0079, -0.2756 -0.1181 0.0433, -0.2756 -0.0394 0.0433, -0.2756 -0.0394 0.0079, -0.2756 0.0394 0.0079, -0.1181 -0.3543 0.0433, -0.1181 -0.3543 0.0079, -0.0394 -0.3543 0.0079, -0.0394 -0.3543 0.0433, 0.0394 -0.3543 0.0433, -0.1969 -0.3543 0.0433, -0.1969 -0.3543 0.0079, 0.1969 -0.3543 0.0079, 0.2756 -0.3543 0.0079, 0.1969 -0.3543 0.0433, 0.1181 -0.3543 0.0433, 0.1181 -0.3543 0.0079, 0.0394 -0.3543 0.0079, 0.2756 -0.1181 0.0079, 0.2756 -0.1181 0.0433, 0.2756 -0.0394 0.0433, 0.2756 0.1181 0.0079, 0.2756 0.3543 0.0079, 0.2756 0.1181 0.0433, 0.2756 0.0394 0.0433, 0.2756 0.0394 0.0079, 0.2756 -0.0394 0.0079, 0.1181 0.3543 0.0433, 0.1181 0.3543 0.0079, 0.0394 0.3543 0.0079, 0.0394 0.3543 0.0433, -0.0394 0.3543 0.0433, 0.1969 0.3543 0.0433, 0.1969 0.3543 0.0079, -0.1969 0.3543 0.0079, -0.1969 0.3543 0.0433, -0.1181 0.3543 0.0433, -0.1181 0.3543 0.0079, -0.0394 0.3543 0.0079, -0.0394 0.3543 0.0079
            ]
        }
        coordIndex [
            0,1,2,-1,2,1,3,-1,3,4,2,-1,2,4,5,-1,2,5,6,-1,6,5,7,-1,6,7,8,-1,9,10,11,-1,11,10,12,-1,11,12,2,-1,2,12,13,-1,2,13,0,-1,14,15,16,-1,16,15,17,-1,11,18,19,-1,8,20,6,-1,6,20,21,-1,6,21,15,-1,15,21,22,-1,15,22,17,-1,19,23,11,-1,11,23,24,-1,11,24,9,-1,14,25,15,-1,15,25,26,-1,15,26,11,-1,11,26,27,-1,11,27,18,-1,28,15,29,-1,29,15,11,-1,29,11,30,-1,30,11,31,-1,32,33,34,-1,34,33,15,-1,34,15,35,-1,35,15,28,-1,35,28,36,-1,36,28,37,-1,38,39,40,-1,41,42,6,-1,40,41,38,-1,38,41,6,-1,38,6,43,-1,43,6,15,-1,43,15,44,-1,44,15,33,-1,45,46,47,-1,47,46,6,-1,47,6,48,-1,48,6,42,-1,48,42,49,-1,49,42,50,-1,46,51,6,-1,6,51,52,-1,6,52,2,-1,2,52,53,-1,54,55,56,-1,56,55,2,-1,56,2,57,-1,57,2,53,-1,57,53,58,-1,58,53,59,-1,60,61,62,-1,63,64,11,-1,62,63,60,-1,60,63,11,-1,60,11,65,-1,65,11,2,-1,65,2,66,-1,66,2,55,-1,67,31,68,-1,68,31,11,-1,68,11,69,-1,69,11,64,-1,69,64,70,-1,70,64,71,-1,
        ]
    }
}
Shape{
    appearance Appearance {
        material  Material 	{
            diffuseColor 0.792156862745098 0.8196078431372549 0.9333333333333333
            specularColor 0.396078431372549 0.4117647058823529 0.4666666666666667
            ambientIntensity 0.2
            transparency 0
            shininess 0.5
        }
    }
    geometry IndexedFaceSet {
        ccw TRUE
        solid FALSE
        coord DEF co Coordinate {
            point [
                0.0336 -0.0402 0.0118, 0.0336 -0.0402 0.0079, 0.0336 -0.038 0.0118, 0.0336 -0.038 0.0079, 0.0411 -0.038 0.0118, 0.0411 -0.038 0.0079, 0.0411 -0.0205 0.0118, 0.0411 -0.0205 0.0079, 0.0437 -0.0205 0.0118, 0.0437 -0.0205 0.0079, 0.0437 -0.0402 0.0118, 0.0437 -0.0402 0.0079, 0.0173 -0.0392 0.0118, 0.0173 -0.0392 0.0079, 0.0173 -0.037 0.0118, 0.0173 -0.037 0.0079, 0.0224 -0.0383 0.0079, 0.0224 -0.0383 0.0118, 0.0198 -0.038 0.0118, 0.0198 -0.038 0.0079, 0.0177 -0.0372 0.0118, 0.0177 -0.0372 0.0079, 0.0293 -0.0305 0.0079, 0.0293 -0.0305 0.0118, 0.0291 -0.0327 0.0118, 0.0291 -0.0327 0.0079, 0.0286 -0.0344 0.0118, 0.0286 -0.0344 0.0079, 0.0278 -0.0357 0.0118, 0.0278 -0.0357 0.0079, 0.0268 -0.0367 0.0118, 0.0268 -0.0367 0.0079, 0.0256 -0.0375 0.0118, 0.0256 -0.0375 0.0079, 0.0242 -0.038 0.0118, 0.0242 -0.038 0.0079, 0.0219 -0.0224 0.0079, 0.0219 -0.0224 0.0118, 0.0239 -0.0226 0.0118, 0.0239 -0.0226 0.0079, 0.0253 -0.0232 0.0118, 0.0253 -0.0232 0.0079, 0.0267 -0.0241 0.0118, 0.0267 -0.0241 0.0079, 0.0279 -0.0254 0.0118, 0.0279 -0.0254 0.0079, 0.0287 -0.0269 0.0118, 0.0287 -0.0269 0.0079, 0.0292 -0.029 0.0118, 0.0292 -0.029 0.0079, 0.0173 -0.0237 0.0079, 0.0173 -0.0237 0.0118, 0.0195 -0.0227 0.0118, 0.0195 -0.0227 0.0079, 0.0173 -0.021 0.0118, 0.0173 -0.021 0.0079, 0.0219 -0.0202 0.0079, 0.0219 -0.0202 0.0118, 0.0196 -0.0204 0.0118, 0.0196 -0.0204 0.0079, 0.032 -0.0307 0.0079, 0.032 -0.0307 0.0118, 0.0317 -0.0279 0.0118, 0.0317 -0.0279 0.0079, 0.0309 -0.0257 0.0118, 0.0309 -0.0257 0.0079, 0.0298 -0.0238 0.0118, 0.0298 -0.0238 0.0079, 0.028 -0.0221 0.0118, 0.028 -0.0221 0.0079, 0.0261 -0.021 0.0118, 0.0261 -0.021 0.0079, 0.0239 -0.0204 0.0118, 0.0239 -0.0204 0.0079, 0.0227 -0.0404 0.0079, 0.0227 -0.0404 0.0118, 0.0239 -0.0403 0.0079, 0.0252 -0.0402 0.0118, 0.0252 -0.0402 0.0079, 0.0271 -0.0395 0.0118, 0.0271 -0.0395 0.0079, 0.0286 -0.0385 0.0118, 0.0286 -0.0385 0.0079, 0.0301 -0.0369 0.0118, 0.0301 -0.0369 0.0079, 0.0312 -0.0351 0.0118, 0.0312 -0.0351 0.0079, 0.0318 -0.033 0.0118, 0.0318 -0.033 0.0079, 0.0194 -0.04 0.0079, 0.0194 -0.04 0.0118, 0.0214 -0.0403 0.0079, 0.0222 -0.0404 0.0118, 0.0222 -0.0404 0.0079, 0.0029 -0.0402 0.0118, 0.0029 -0.0402 0.0079, 0.0029 -0.038 0.0118, 0.0029 -0.038 0.0079, 0.0108 -0.038 0.0118, 0.0108 -0.038 0.0079, 0.0108 -0.0313 0.0118, 0.0108 -0.0313 0.0079, 0.0039 -0.0313 0.0118, 0.0039 -0.0313 0.0079, 0.0039 -0.0291 0.0118, 0.0039 -0.0291 0.0079, 0.0108 -0.0291 0.0118, 0.0108 -0.0291 0.0079, 0.0108 -0.0226 0.0118, 0.0108 -0.0226 0.0079, 0.0034 -0.0226 0.0118, 0.0034 -0.0226 0.0079, 0.0034 -0.0205 0.0118, 0.0034 -0.0205 0.0079, 0.0135 -0.0205 0.0118, 0.0135 -0.0205 0.0079, 0.0135 -0.0402 0.0118, 0.0135 -0.0402 0.0079, -0.0009 -0.0402 0.0118, -0.0009 -0.0402 0.0079, -0.0063 -0.0402 0.0118, -0.0063 -0.0402 0.0079, -0.0168 -0.0301 0.0079, -0.0168 -0.0301 0.0118, -0.0165 -0.0327 0.0118, -0.0165 -0.0327 0.0079, -0.0158 -0.0348 0.0118, -0.0158 -0.0348 0.0079, -0.0147 -0.0365 0.0118, -0.0147 -0.0365 0.0079, -0.013 -0.0381 0.0118, -0.013 -0.0381 0.0079, -0.011 -0.0393 0.0118, -0.011 -0.0393 0.0079, -0.0087 -0.04 0.0118, -0.0087 -0.04 0.0079, -0.0065 -0.0205 0.0079, -0.0065 -0.0205 0.0118, -0.0093 -0.0208 0.0118, -0.0093 -0.0208 0.0079, -0.0116 -0.0216 0.0118, -0.0116 -0.0216 0.0079, -0.0138 -0.023 0.0118, -0.0138 -0.023 0.0079, -0.0138 -0.0231 0.0118, -0.0138 -0.0231 0.0079, -0.0152 -0.0246 0.0118, -0.0152 -0.0246 0.0079, -0.0161 -0.0263 0.0118, -0.0161 -0.0263 0.0079, -0.0166 -0.0282 0.0118, -0.0166 -0.0282 0.0079, -0.0009 -0.0205 0.0118, -0.0009 -0.0205 0.0079, -0.036 -0.0402 0.0118, -0.036 -0.0402 0.0079, -0.0283 -0.0205 0.0118, -0.0283 -0.0205 0.0079, -0.0257 -0.0205 0.0118, -0.0257 -0.0205 0.0079, -0.0182 -0.0402 0.0118, -0.0182 -0.0402 0.0079, -0.0211 -0.0402 0.0118, -0.0211 -0.0402 0.0079, -0.023 -0.0346 0.0118, -0.023 -0.0346 0.0079, -0.0311 -0.0346 0.0118, -0.0311 -0.0346 0.0079, -0.0331 -0.0402 0.0118, -0.0331 -0.0402 0.0079, -0.0331 -0.0402 0.0079
            ]
        }
        coordIndex [
            0,1,2,-1,2,1,3,-1,2,3,4,-1,4,3,5,-1,4,5,6,-1,6,5,7,-1,6,7,8,-1,8,7,9,-1,8,9,10,-1,10,9,11,-1,0,10,1,-1,1,10,11,-1,12,13,14,-1,14,13,15,-1,16,17,18,-1,16,18,19,-1,19,18,20,-1,19,20,21,-1,21,20,14,-1,21,14,15,-1,22,23,24,-1,22,24,25,-1,25,24,26,-1,25,26,27,-1,27,26,28,-1,27,28,29,-1,29,28,30,-1,29,30,31,-1,31,30,32,-1,31,32,33,-1,33,32,34,-1,33,34,35,-1,35,34,17,-1,35,17,16,-1,36,37,38,-1,36,38,39,-1,39,38,40,-1,39,40,41,-1,41,40,42,-1,41,42,43,-1,43,42,44,-1,43,44,45,-1,45,44,46,-1,45,46,47,-1,47,46,48,-1,47,48,49,-1,49,48,23,-1,49,23,22,-1,50,51,52,-1,50,52,53,-1,53,52,37,-1,53,37,36,-1,51,50,54,-1,54,50,55,-1,56,57,58,-1,56,58,59,-1,59,58,54,-1,59,54,55,-1,60,61,62,-1,60,62,63,-1,63,62,64,-1,63,64,65,-1,65,64,66,-1,65,66,67,-1,67,66,68,-1,67,68,69,-1,69,68,70,-1,69,70,71,-1,71,70,72,-1,71,72,73,-1,73,72,57,-1,73,57,56,-1,74,75,76,-1,76,75,77,-1,76,77,78,-1,78,77,79,-1,78,79,80,-1,80,79,81,-1,80,81,82,-1,82,81,83,-1,82,83,84,-1,84,83,85,-1,84,85,86,-1,86,85,87,-1,86,87,88,-1,88,87,61,-1,88,61,60,-1,89,13,90,-1,90,13,12,-1,89,90,91,-1,91,90,92,-1,91,92,93,-1,93,92,75,-1,93,75,74,-1,94,95,96,-1,96,95,97,-1,96,97,98,-1,98,97,99,-1,98,99,100,-1,100,99,101,-1,100,101,102,-1,102,101,103,-1,102,103,104,-1,104,103,105,-1,104,105,106,-1,106,105,107,-1,106,107,108,-1,108,107,109,-1,108,109,110,-1,110,109,111,-1,110,111,112,-1,112,111,113,-1,112,113,114,-1,114,113,115,-1,114,115,116,-1,116,115,117,-1,94,116,95,-1,95,116,117,-1,118,119,120,-1,120,119,121,-1,122,123,124,-1,122,124,125,-1,125,124,126,-1,125,126,127,-1,127,126,128,-1,127,128,129,-1,129,128,130,-1,129,130,131,-1,131,130,132,-1,131,132,133,-1,133,132,134,-1,133,134,135,-1,135,134,120,-1,135,120,121,-1,136,137,138,-1,136,138,139,-1,139,138,140,-1,139,140,141,-1,141,140,142,-1,141,142,143,-1,143,142,144,-1,143,144,145,-1,145,144,146,-1,145,146,147,-1,147,146,148,-1,147,148,149,-1,149,148,150,-1,149,150,151,-1,151,150,123,-1,151,123,122,-1,137,136,152,-1,152,136,153,-1,118,152,119,-1,119,152,153,-1,154,155,156,-1,156,155,157,-1,156,157,158,-1,158,157,159,-1,158,159,160,-1,160,159,161,-1,160,161,162,-1,162,161,163,-1,162,163,164,-1,164,163,165,-1,164,165,166,-1,166,165,167,-1,166,167,168,-1,168,167,169,-1,154,168,155,-1,155,168,169,-1,
        ]
    }
}
Shape{
    appearance Appearance {
        material  Material 	{
            diffuseColor 0.10980392156862745 0.10980392156862745 0.10980392156862745
            specularColor 0.0784313725490196 0.0784313725490196 0.0784313725490196
            ambientIntensity 0.2
            transparency 0
            shininess 0.5
        }
    }
    geometry IndexedFaceSet {
        ccw TRUE
        solid FALSE
        coord DEF co Coordinate {
            point [
                0.1181 -0.1969 0.0079, 0.1181 -0.3543 0.0079, 0.0394 -0.3543 0.0079, -0.0063 -0.0402 0.0079, -0.0009 -0.0402 0.0079, 0.001 -0.0403 0.0079, -0.1181 0.3543 0.0079, -0.0394 0.3543 0.0079, -0.1181 0.1969 0.0079, -0.0394 0.1969 0.0079, -0.0009 -0.0205 0.0079, 0.001 0.1969 0.0079, -0.0065 -0.0205 0.0079, -0.0093 -0.0208 0.0079, -0.0257 -0.0205 0.0079, -0.0116 -0.0216 0.0079, -0.0138 -0.023 0.0079, -0.2756 0.3543 0.0079, -0.1969 0.3543 0.0079, -0.2756 0.1181 0.0079, -0.1969 0.1969 0.0079, -0.126 0.1181 0.0079, -0.0787 0.0709 0.0079, -0.036 -0.0402 0.0079, -0.1181 -0.0403 0.0079, -0.1181 -0.0394 0.0079, -0.0138 -0.0231 0.0079, -0.0152 -0.0246 0.0079, -0.0161 -0.0263 0.0079, -0.0283 -0.0205 0.0079, -0.0182 -0.0402 0.0079, -0.0158 -0.0348 0.0079, -0.0147 -0.0365 0.0079, -0.0166 -0.0282 0.0079, -0.0168 -0.0301 0.0079, -0.0165 -0.0327 0.0079, -0.013 -0.0381 0.0079, -0.011 -0.0393 0.0079, -0.0087 -0.04 0.0079, -0.0787 0.0394 0.0079, -0.2756 0.0394 0.0079, -0.2756 -0.0394 0.0079, -0.0211 -0.0402 0.0079, -0.0331 -0.0402 0.0079, -0.023 -0.0346 0.0079, -0.0311 -0.0346 0.0079, -0.0394 -0.3543 0.0079, -0.1181 -0.3543 0.0079, -0.0394 -0.1969 0.0079, -0.1181 -0.1969 0.0079, -0.1969 -0.3543 0.0079, -0.2756 -0.3543 0.0079, -0.1969 -0.1969 0.0079, -0.2756 -0.1181 0.0079, -0.1181 -0.1181 0.0079, 0.0214 -0.0403 0.0079, 0.0222 -0.0404 0.0079, 0.001 -0.1969 0.0079, 0.0394 -0.1969 0.0079, 0.1181 -0.0403 0.0079, 0.1181 -0.1181 0.0079, 0.0239 -0.0403 0.0079, 0.0227 -0.0404 0.0079, 0.2756 -0.3543 0.0079, 0.1969 -0.3543 0.0079, 0.2756 -0.1181 0.0079, 0.1969 -0.1969 0.0079, 0.0029 -0.038 0.0079, 0.0029 -0.0402 0.0079, 0.0135 -0.0402 0.0079, 0.0034 -0.0205 0.0079, 0.0034 -0.0226 0.0079, 0.0173 -0.0392 0.0079, 0.0173 -0.037 0.0079, 0.0135 -0.0205 0.0079, 0.0194 -0.04 0.0079, 0.1181 0.3543 0.0079, 0.1181 0.1969 0.0079, 0.0394 0.3543 0.0079, 0.0394 0.1969 0.0079, 0.2756 -0.0394 0.0079, 0.1181 -0.0394 0.0079, 0.2756 0.0394 0.0079, 0.1181 0.0394 0.0079, 0.0039 -0.0313 0.0079, 0.0108 -0.0313 0.0079, 0.0108 -0.038 0.0079, 0.1181 0.1181 0.0079, 0.0437 -0.0205 0.0079, 0.0437 -0.0402 0.0079, 0.0039 -0.0291 0.0079, 0.0108 -0.0291 0.0079, 0.0108 -0.0226 0.0079, 0.1969 0.3543 0.0079, 0.2756 0.3543 0.0079, 0.1969 0.1969 0.0079, 0.2756 0.1181 0.0079, 0.0411 -0.0205 0.0079, 0.0336 -0.038 0.0079, 0.0411 -0.038 0.0079, 0.0239 -0.0226 0.0079, 0.0253 -0.0232 0.0079, 0.0177 -0.0372 0.0079, 0.0267 -0.0241 0.0079, 0.0279 -0.0254 0.0079, 0.0293 -0.0305 0.0079, 0.0291 -0.0327 0.0079, 0.0286 -0.0344 0.0079, 0.0242 -0.038 0.0079, 0.0224 -0.0383 0.0079, 0.0256 -0.0375 0.0079, 0.0268 -0.0367 0.0079, 0.0278 -0.0357 0.0079, 0.0198 -0.038 0.0079, 0.0287 -0.0269 0.0079, 0.0292 -0.029 0.0079, 0.0298 -0.0238 0.0079, 0.028 -0.0221 0.0079, 0.0336 -0.0402 0.0079, 0.0252 -0.0402 0.0079, 0.0271 -0.0395 0.0079, 0.0286 -0.0385 0.0079, 0.0301 -0.0369 0.0079, 0.0312 -0.0351 0.0079, 0.0318 -0.033 0.0079, 0.0261 -0.021 0.0079, 0.0239 -0.0204 0.0079, 0.0219 -0.0202 0.0079, 0.032 -0.0307 0.0079, 0.0317 -0.0279 0.0079, 0.0309 -0.0257 0.0079, 0.0196 -0.0204 0.0079, 0.0173 -0.021 0.0079, 0.0173 -0.0237 0.0079, 0.0195 -0.0227 0.0079, 0.0219 -0.0224 0.0079, 0.0219 -0.0224 0.0079
            ]
        }
        coordIndex [
            0,1,2,-1,3,4,5,-1,6,7,8,-1,8,7,9,-1,8,9,10,-1,10,9,11,-1,12,13,14,-1,14,13,15,-1,14,15,16,-1,17,18,19,-1,19,18,20,-1,19,20,21,-1,21,20,8,-1,21,8,22,-1,23,24,25,-1,16,26,14,-1,14,26,27,-1,14,27,28,-1,23,25,29,-1,30,31,32,-1,28,33,14,-1,14,33,34,-1,14,34,30,-1,30,34,35,-1,30,35,31,-1,32,36,30,-1,30,36,37,-1,30,37,38,-1,10,12,8,-1,8,12,14,-1,8,14,22,-1,22,14,29,-1,22,29,39,-1,39,29,25,-1,39,25,40,-1,40,25,41,-1,38,3,30,-1,30,3,5,-1,30,5,42,-1,42,5,43,-1,42,43,44,-1,44,43,45,-1,46,47,48,-1,48,47,49,-1,50,51,52,-1,52,51,53,-1,52,53,49,-1,49,53,54,-1,49,54,48,-1,48,54,24,-1,48,24,5,-1,5,24,23,-1,5,23,43,-1,55,56,57,-1,57,56,58,-1,59,60,61,-1,61,60,58,-1,61,58,62,-1,62,58,56,-1,63,64,65,-1,65,64,66,-1,65,66,60,-1,60,66,0,-1,60,0,58,-1,58,0,2,-1,67,68,5,-1,5,68,69,-1,70,71,5,-1,72,69,73,-1,73,69,74,-1,72,75,69,-1,69,75,55,-1,69,55,5,-1,5,55,57,-1,5,57,48,-1,76,77,78,-1,78,77,79,-1,80,81,82,-1,82,81,83,-1,84,85,86,-1,4,10,5,-1,5,10,11,-1,5,11,70,-1,70,11,74,-1,87,83,88,-1,88,83,81,-1,88,81,89,-1,86,67,84,-1,84,67,5,-1,84,5,90,-1,90,5,71,-1,90,71,91,-1,91,71,92,-1,93,94,95,-1,95,94,96,-1,95,96,77,-1,77,96,87,-1,77,87,79,-1,79,87,88,-1,79,88,11,-1,11,88,97,-1,11,97,98,-1,98,97,99,-1,100,101,102,-1,102,101,103,-1,102,103,104,-1,105,106,102,-1,102,106,107,-1,108,109,110,-1,110,109,111,-1,107,112,102,-1,102,112,111,-1,102,111,113,-1,113,111,109,-1,104,114,102,-1,102,114,115,-1,102,115,105,-1,11,116,117,-1,81,59,89,-1,89,59,61,-1,89,61,118,-1,118,61,119,-1,118,119,120,-1,120,121,118,-1,118,121,122,-1,118,122,98,-1,98,122,123,-1,98,123,124,-1,117,125,11,-1,11,125,126,-1,11,126,127,-1,124,128,98,-1,98,128,129,-1,98,129,11,-1,11,129,130,-1,11,130,116,-1,127,131,11,-1,11,131,132,-1,11,132,74,-1,74,132,133,-1,74,133,73,-1,73,133,134,-1,73,134,102,-1,102,134,135,-1,102,135,100,-1,
        ]
    }
}
Shape{
    appearance Appearance {
        material  Material 	{
            diffuseColor 0.9686274509803922 0.8784313725490196 0.6
            specularColor 0.6784313725490196 0.615686274509804 0.4196078431372549
            ambientIntensity 0.2
            transparency 0
            shininess 0.5
        }
    }
    geometry IndexedFaceSet {
        ccw TRUE
        solid FALSE
        coord DEF co Coordinate {
            point [
                -0.126 0.1181 0.0079, -0.2756 0.1181 0.0079, -0.0787 0.0709 0.0079, -0.2756 0.0394 0.0079, -0.0787 0.0394 0.0079, -0.2756 0.1181 0.0, -0.2756 0.0394 0.0, -0.126 0.1181 0.0, -0.0787 0.0709 0.0, -0.0787 0.0394 0.0, -0.2756 -0.0394 0.0079, -0.1181 -0.0394 0.0079, -0.2756 -0.1181 0.0079, -0.1181 -0.1181 0.0079, -0.2756 -0.0394 0.0433, -0.1181 -0.0394 0.0433, -0.1181 -0.1181 0.0433, -0.2756 -0.1181 0.0433, 0.1181 0.1181 0.0079, 0.1181 0.0394 0.0079, 0.2756 0.1181 0.0079, 0.2756 0.0394 0.0079, 0.2756 0.0394 0.0, 0.2756 0.1181 0.0, 0.1181 0.0394 0.0, 0.1181 0.1181 0.0, -0.0394 -0.1969 0.0079, -0.0394 -0.1969 0.0433, 0.0394 -0.1969 0.0079, 0.0394 -0.1969 0.0433, 0.0394 -0.3543 0.0079, 0.0394 -0.3543 0.0433, -0.0394 -0.3543 0.0433, -0.0394 -0.3543 0.0079, 0.1969 0.3543 0.0079, 0.1969 0.1969 0.0079, 0.1181 0.3543 0.0079, 0.1181 0.1969 0.0079, 0.1969 0.3543 0.0433, 0.1969 0.1969 0.0433, 0.1181 0.1969 0.0433, 0.1181 0.3543 0.0433, -0.0394 -0.3543 0.0, 0.0394 -0.3543 0.0, -0.0394 -0.1969 0.0, 0.0394 -0.1969 0.0, -0.2756 -0.1181 0.0, -0.1181 -0.1181 0.0, -0.1181 -0.0394 0.0, -0.2756 -0.0394 0.0, 0.2756 -0.1181 0.0433, 0.1181 -0.1181 0.0433, 0.2756 -0.1181 0.0079, 0.1181 -0.1181 0.0079, 0.1181 -0.0394 0.0079, 0.1181 -0.0394 0.0433, 0.2756 -0.0394 0.0079, 0.2756 -0.0394 0.0433, -0.2756 0.1181 0.0433, -0.126 0.1181 0.0433, -0.0787 0.0709 0.0433, -0.0787 0.0394 0.0433, -0.2756 0.0394 0.0433, 0.1181 -0.1969 0.0079, 0.1181 -0.1969 0.0433, 0.1969 -0.1969 0.0079, 0.1969 -0.1969 0.0433, 0.1969 -0.3543 0.0079, 0.1969 -0.3543 0.0433, 0.1181 -0.3543 0.0433, 0.1181 -0.3543 0.0079, -0.1969 -0.3543 0.0079, -0.1969 -0.1969 0.0079, -0.1181 -0.3543 0.0079, -0.1181 -0.1969 0.0079, -0.1969 -0.3543 0.0433, -0.1969 -0.1969 0.0433, -0.1181 -0.1969 0.0433, -0.1181 -0.3543 0.0433, -0.0394 0.1969 0.0079, 0.0394 0.1969 0.0079, -0.0394 0.3543 0.0079, 0.0394 0.3543 0.0079, -0.0394 0.1969 0.0, 0.0394 0.1969 0.0, 0.0394 0.3543 0.0, -0.0394 0.3543 0.0, -0.1181 0.3543 0.0079, -0.1181 0.1969 0.0079, -0.1969 0.3543 0.0079, -0.1969 0.1969 0.0079, -0.1181 0.3543 0.0433, -0.1181 0.1969 0.0433, -0.1969 0.1969 0.0433, -0.1969 0.3543 0.0433, -0.1969 0.3543 0.0, -0.1969 0.1969 0.0, -0.1181 0.3543 0.0, -0.1181 0.1969 0.0, 0.0394 0.3543 0.0433, 0.0394 0.1969 0.0433, -0.0394 0.1969 0.0433, -0.0394 0.3543 0.0433, 0.1181 0.3543 0.0, 0.1181 0.1969 0.0, 0.1969 0.3543 0.0, 0.1969 0.1969 0.0, 0.1969 0.1969 0.0
            ]
        }
        coordIndex [
            0,1,2,-1,2,1,3,-1,2,3,4,-1,5,6,1,-1,1,6,3,-1,5,7,6,-1,6,7,8,-1,6,8,9,-1,3,6,4,-1,4,6,9,-1,8,7,2,-1,2,7,0,-1,4,9,2,-1,2,9,8,-1,7,5,0,-1,0,5,1,-1,10,11,12,-1,12,11,13,-1,14,15,10,-1,10,15,11,-1,16,15,17,-1,17,15,14,-1,15,16,11,-1,11,16,13,-1,13,16,12,-1,12,16,17,-1,14,10,17,-1,17,10,12,-1,18,19,20,-1,20,19,21,-1,22,23,21,-1,21,23,20,-1,19,24,21,-1,21,24,22,-1,23,22,25,-1,25,22,24,-1,23,25,20,-1,20,25,18,-1,25,24,18,-1,18,24,19,-1,26,27,28,-1,28,27,29,-1,28,29,30,-1,30,29,31,-1,32,27,33,-1,33,27,26,-1,31,29,32,-1,32,29,27,-1,26,28,33,-1,33,28,30,-1,32,33,31,-1,31,33,30,-1,34,35,36,-1,36,35,37,-1,38,39,34,-1,34,39,35,-1,39,38,40,-1,40,38,41,-1,39,40,35,-1,35,40,37,-1,37,40,36,-1,36,40,41,-1,38,34,41,-1,41,34,36,-1,28,26,30,-1,30,26,33,-1,42,43,33,-1,33,43,30,-1,26,44,33,-1,33,44,42,-1,45,43,44,-1,44,43,42,-1,43,45,30,-1,30,45,28,-1,45,44,28,-1,28,44,26,-1,11,10,13,-1,13,10,12,-1,46,47,12,-1,12,47,13,-1,48,47,49,-1,49,47,46,-1,13,47,11,-1,11,47,48,-1,49,46,10,-1,10,46,12,-1,11,48,10,-1,10,48,49,-1,50,51,52,-1,52,51,53,-1,54,55,56,-1,56,55,57,-1,53,51,54,-1,54,51,55,-1,50,57,51,-1,51,57,55,-1,53,54,52,-1,52,54,56,-1,50,52,57,-1,57,52,56,-1,1,0,3,-1,3,0,2,-1,3,2,4,-1,1,58,0,-1,0,58,59,-1,60,61,2,-1,2,61,4,-1,0,59,2,-1,2,59,60,-1,61,60,62,-1,62,60,59,-1,62,59,58,-1,61,62,4,-1,4,62,3,-1,58,1,62,-1,62,1,3,-1,63,64,65,-1,65,64,66,-1,65,66,67,-1,67,66,68,-1,69,64,70,-1,70,64,63,-1,68,66,69,-1,69,66,64,-1,63,65,70,-1,70,65,67,-1,69,70,68,-1,68,70,67,-1,71,72,73,-1,73,72,74,-1,75,76,71,-1,71,76,72,-1,76,75,77,-1,77,75,78,-1,72,76,74,-1,74,76,77,-1,74,77,73,-1,73,77,78,-1,75,71,78,-1,78,71,73,-1,79,80,81,-1,81,80,82,-1,79,83,80,-1,80,83,84,-1,85,84,86,-1,86,84,83,-1,85,86,82,-1,82,86,81,-1,86,83,81,-1,81,83,79,-1,80,84,82,-1,82,84,85,-1,87,88,89,-1,89,88,90,-1,91,92,87,-1,87,92,88,-1,92,91,93,-1,93,91,94,-1,92,93,88,-1,88,93,90,-1,90,93,89,-1,89,93,94,-1,91,87,94,-1,94,87,89,-1,88,87,90,-1,90,87,89,-1,95,96,89,-1,89,96,90,-1,97,98,95,-1,95,98,96,-1,90,96,88,-1,88,96,98,-1,97,95,87,-1,87,95,89,-1,88,98,87,-1,87,98,97,-1,99,100,82,-1,82,100,80,-1,79,101,81,-1,81,101,102,-1,100,101,80,-1,80,101,79,-1,100,99,101,-1,101,99,102,-1,80,79,82,-1,82,79,81,-1,99,82,102,-1,102,82,81,-1,35,34,37,-1,37,34,36,-1,103,104,36,-1,36,104,37,-1,105,106,103,-1,103,106,104,-1,37,104,35,-1,35,104,106,-1,105,103,34,-1,34,103,36,-1,35,106,34,-1,34,106,105,-1,
        ]
    }
}