M48
; DRILL file {KiCad 7.0.2} date Tue Mar 26 23:12:30 2024
; FORMAT={-:-/ absolute / metric / decimal}
; #@! TF.CreationDate,2024-03-26T23:12:30-04:00
; #@! TF.GenerationSoftware,Kicad,Pcbnew,7.0.2
; #@! TF.FileFunction,Plated,1,4,PTH
FMAT,2
METRIC
; #@! TA.AperFunction,Plated,PTH,ViaDrill
T1C0.300
; #@! TA.AperFunction,Plated,PTH,ComponentDrill
T2C0.300
; #@! TA.AperFunction,Plated,PTH,ViaDrill
T3C0.400
; #@! TA.AperFunction,Plated,PTH,ComponentDrill
T4C0.600
; #@! TA.AperFunction,Plated,PTH,ComponentDrill
T5C1.016
; #@! TA.AperFunction,Plated,PTH,ComponentDrill
T6C1.320
%
G90
G05
T1
X118.782Y-86.689
X118.872Y-62.332
X119.638Y-86.494
X119.728Y-62.136
X122.643Y-86.13
X122.643Y-86.943
X122.733Y-61.773
X122.733Y-62.586
X123.931Y-89.839
X124.13Y-67.539
X124.312Y-86.546
X124.352Y-84.426
X124.402Y-62.188
X124.442Y-60.068
X125.0Y-90.673
X125.072Y-73.406
X125.476Y-79.006
X125.49Y-57.47
X125.6Y-91.35
X125.625Y-82.29
X125.943Y-83.249
X126.492Y-67.64
X126.746Y-73.406
X127.0Y-65.5
X127.104Y-59.503
X127.422Y-79.763
X127.74Y-82.47
X127.94Y-59.503
X127.94Y-62.941
X128.4Y-65.619
X128.59Y-81.71
X128.778Y-58.42
X129.421Y-63.28
X129.428Y-88.977
X129.446Y-64.7
X129.908Y-57.568
X130.328Y-89.153
X131.0Y-71.5
X131.115Y-89.014
X131.15Y-67.15
X131.6Y-61.1
X131.775Y-88.074
X132.1Y-82.95
X132.79Y-65.5
X132.957Y-63.543
X133.2Y-82.75
X133.7Y-66.7
X135.6Y-66.075
X136.1Y-64.1
X136.9Y-79.3
X137.7Y-63.4
X138.5Y-79.0
X139.4Y-82.1
X139.599Y-65.785
X140.25Y-78.75
X141.4Y-67.9
X141.524Y-89.9
X142.113Y-79.513
X143.5Y-84.3
X144.532Y-78.282
X144.56Y-67.876
X146.107Y-77.707
X148.5Y-77.1
X150.9Y-80.01
X152.0Y-81.0
X152.654Y-87.884
X153.86Y-67.924
X153.9Y-66.586
X154.145Y-70.779
X154.391Y-67.3
X154.686Y-89.3
X154.686Y-94.234
X154.693Y-66.007
X155.299Y-82.0
X155.448Y-84.836
X156.0Y-60.3
X156.2Y-64.6
X156.21Y-87.884
X156.322Y-78.681
X156.343Y-79.579
X156.464Y-71.46
X156.878Y-80.222
X157.0Y-64.075
X157.2Y-66.7
X157.326Y-65.828
X157.48Y-84.455
X157.48Y-87.884
X157.628Y-80.972
X157.734Y-63.246
X157.826Y-78.75
X158.283Y-79.502
X158.328Y-81.672
X158.496Y-83.82
X158.6Y-78.3
X158.941Y-80.159
X159.044Y-82.434
X159.591Y-80.809
X159.778Y-83.122
X160.1Y-62.3
X160.191Y-81.409
X160.2Y-59.7
X160.42Y-83.809
X160.528Y-87.63
X160.6Y-78.621
X160.891Y-82.109
X161.036Y-88.392
X161.544Y-81.026
X161.591Y-82.809
X164.126Y-88.723
X164.338Y-84.582
X164.8Y-87.517
X165.608Y-75.692
X166.274Y-83.564
X166.878Y-75.692
X167.64Y-88.392
X168.148Y-75.692
X168.402Y-87.63
X168.5Y-85.9
X169.418Y-75.692
X169.926Y-86.614
X170.688Y-75.692
X171.45Y-87.884
X171.958Y-75.692
X173.228Y-75.692
X173.482Y-59.93
X175.0Y-82.6
X175.006Y-71.882
X175.006Y-73.152
X175.006Y-74.422
X175.126Y-61.574
X177.77Y-81.48
X177.8Y-87.6
T2
X125.39Y-85.094
X125.39Y-85.894
X125.482Y-60.736
X125.482Y-61.536
X126.29Y-85.094
X126.29Y-85.894
X126.382Y-60.736
X126.382Y-61.536
T3
X116.735Y-74.676
X119.38Y-76.708
X120.038Y-72.644
X120.904Y-70.612
X121.92Y-73.66
X122.852Y-69.148
X123.338Y-73.66
X125.624Y-65.25
X135.689Y-89.802
X137.52Y-60.904
X137.9Y-68.5
X137.9Y-70.975
X138.0Y-73.75
X139.05Y-60.93
X141.732Y-92.456
X144.78Y-93.472
X146.812Y-88.392
X146.812Y-91.44
X148.185Y-87.725
X148.844Y-90.932
X150.07Y-59.79
X164.735Y-65.597
X164.74Y-66.98
X164.74Y-68.38
X166.14Y-65.58
X166.14Y-66.98
X166.14Y-68.38
X167.54Y-65.58
X167.54Y-66.98
X167.54Y-68.38
X170.83Y-80.73
X172.53Y-79.34
X174.8Y-59.2
X174.94Y-63.42
T5
X116.174Y-83.032
X116.174Y-88.112
X116.257Y-58.674
X116.257Y-63.754
X116.428Y-85.572
X116.511Y-61.214
X182.344Y-66.29
X182.344Y-71.37
X182.344Y-76.45
X182.344Y-81.53
X182.344Y-86.61
X182.515Y-60.882
X182.515Y-63.778
X182.598Y-68.83
X182.598Y-73.91
X182.598Y-78.99
X182.598Y-84.07
T6
X145.668Y-53.472
X150.668Y-53.472
T4
G00X160.054Y-90.051
M15
G01X160.054Y-90.851
M16
G05
G00X160.054Y-94.251
M15
G01X160.054Y-95.051
M16
G05
G00X168.704Y-90.051
M15
G01X168.704Y-90.851
M16
G05
G00X168.704Y-94.251
M15
G01X168.704Y-95.051
M16
G05
T0
M30
