%TF.GenerationSoftware,KiCad,Pcbnew,7.0.2*%
%TF.CreationDate,2024-03-26T23:12:22-04:00*%
%TF.ProjectId,mini_motor_go_V1_rev3,6d696e69-5f6d-46f7-946f-725f676f5f56,rev?*%
%TF.SameCoordinates,Original*%
%TF.FileFunction,Paste,Top*%
%TF.FilePolarity,Positive*%
%FSLAX46Y46*%
G04 Gerber Fmt 4.6, Leading zero omitted, Abs format (unit mm)*
G04 Created by KiCad (PCBNEW 7.0.2) date 2024-03-26 23:12:22*
%MOMM*%
%LPD*%
G01*
G04 APERTURE LIST*
G04 Aperture macros list*
%AMRoundRect*
0 Rectangle with rounded corners*
0 $1 Rounding radius*
0 $2 $3 $4 $5 $6 $7 $8 $9 X,Y pos of 4 corners*
0 Add a 4 corners polygon primitive as box body*
4,1,4,$2,$3,$4,$5,$6,$7,$8,$9,$2,$3,0*
0 Add four circle primitives for the rounded corners*
1,1,$1+$1,$2,$3*
1,1,$1+$1,$4,$5*
1,1,$1+$1,$6,$7*
1,1,$1+$1,$8,$9*
0 Add four rect primitives between the rounded corners*
20,1,$1+$1,$2,$3,$4,$5,0*
20,1,$1+$1,$4,$5,$6,$7,0*
20,1,$1+$1,$6,$7,$8,$9,0*
20,1,$1+$1,$8,$9,$2,$3,0*%
%AMFreePoly0*
4,1,14,0.289644,0.110355,0.410355,-0.010356,0.425000,-0.045711,0.425000,-0.075000,0.410355,-0.110355,0.375000,-0.125000,-0.375000,-0.125000,-0.410355,-0.110355,-0.425000,-0.075000,-0.425000,0.075000,-0.410355,0.110355,-0.375000,0.125000,0.254289,0.125000,0.289644,0.110355,0.289644,0.110355,$1*%
%AMFreePoly1*
4,1,14,0.410355,0.110355,0.425000,0.075000,0.425000,0.045711,0.410355,0.010356,0.289644,-0.110355,0.254289,-0.125000,-0.375000,-0.125000,-0.410355,-0.110355,-0.425000,-0.075000,-0.425000,0.075000,-0.410355,0.110355,-0.375000,0.125000,0.375000,0.125000,0.410355,0.110355,0.410355,0.110355,$1*%
%AMFreePoly2*
4,1,14,0.110355,0.410355,0.125000,0.375000,0.125000,-0.375000,0.110355,-0.410355,0.075000,-0.425000,-0.075000,-0.425000,-0.110355,-0.410355,-0.125000,-0.375000,-0.125000,0.254289,-0.110355,0.289644,0.010356,0.410355,0.045711,0.425000,0.075000,0.425000,0.110355,0.410355,0.110355,0.410355,$1*%
%AMFreePoly3*
4,1,14,-0.010356,0.410355,0.110355,0.289644,0.125000,0.254289,0.125000,-0.375000,0.110355,-0.410355,0.075000,-0.425000,-0.075000,-0.425000,-0.110355,-0.410355,-0.125000,-0.375000,-0.125000,0.375000,-0.110355,0.410355,-0.075000,0.425000,-0.045711,0.425000,-0.010356,0.410355,-0.010356,0.410355,$1*%
%AMFreePoly4*
4,1,14,0.410355,0.110355,0.425000,0.075000,0.425000,-0.075000,0.410355,-0.110355,0.375000,-0.125000,-0.254289,-0.125000,-0.289644,-0.110355,-0.410355,0.010356,-0.425000,0.045711,-0.425000,0.075000,-0.410355,0.110355,-0.375000,0.125000,0.375000,0.125000,0.410355,0.110355,0.410355,0.110355,$1*%
%AMFreePoly5*
4,1,14,0.410355,0.110355,0.425000,0.075000,0.425000,-0.075000,0.410355,-0.110355,0.375000,-0.125000,-0.375000,-0.125000,-0.410355,-0.110355,-0.425000,-0.075000,-0.425000,-0.045711,-0.410355,-0.010356,-0.289644,0.110355,-0.254289,0.125000,0.375000,0.125000,0.410355,0.110355,0.410355,0.110355,$1*%
%AMFreePoly6*
4,1,14,0.110355,0.410355,0.125000,0.375000,0.125000,-0.254289,0.110355,-0.289644,-0.010356,-0.410355,-0.045711,-0.425000,-0.075000,-0.425000,-0.110355,-0.410355,-0.125000,-0.375000,-0.125000,0.375000,-0.110355,0.410355,-0.075000,0.425000,0.075000,0.425000,0.110355,0.410355,0.110355,0.410355,$1*%
%AMFreePoly7*
4,1,14,0.110355,0.410355,0.125000,0.375000,0.125000,-0.375000,0.110355,-0.410355,0.075000,-0.425000,0.045711,-0.425000,0.010356,-0.410355,-0.110355,-0.289644,-0.125000,-0.254289,-0.125000,0.375000,-0.110355,0.410355,-0.075000,0.425000,0.075000,0.425000,0.110355,0.410355,0.110355,0.410355,$1*%
%AMFreePoly8*
4,1,9,3.862500,-0.866500,0.737500,-0.866500,0.737500,-0.450000,-0.737500,-0.450000,-0.737500,0.450000,0.737500,0.450000,0.737500,0.866500,3.862500,0.866500,3.862500,-0.866500,3.862500,-0.866500,$1*%
G04 Aperture macros list end*
%ADD10RoundRect,0.155000X0.040659X0.259862X-0.259862X-0.040659X-0.040659X-0.259862X0.259862X0.040659X0*%
%ADD11RoundRect,0.160000X0.160000X-0.197500X0.160000X0.197500X-0.160000X0.197500X-0.160000X-0.197500X0*%
%ADD12RoundRect,0.250000X0.250000X0.475000X-0.250000X0.475000X-0.250000X-0.475000X0.250000X-0.475000X0*%
%ADD13RoundRect,0.030000X0.120000X-0.695000X0.120000X0.695000X-0.120000X0.695000X-0.120000X-0.695000X0*%
%ADD14RoundRect,0.172500X0.172500X-0.172500X0.172500X0.172500X-0.172500X0.172500X-0.172500X-0.172500X0*%
%ADD15FreePoly0,90.000000*%
%ADD16RoundRect,0.062500X0.062500X-0.362500X0.062500X0.362500X-0.062500X0.362500X-0.062500X-0.362500X0*%
%ADD17FreePoly1,90.000000*%
%ADD18FreePoly2,90.000000*%
%ADD19RoundRect,0.062500X0.362500X-0.062500X0.362500X0.062500X-0.362500X0.062500X-0.362500X-0.062500X0*%
%ADD20FreePoly3,90.000000*%
%ADD21FreePoly4,90.000000*%
%ADD22RoundRect,0.062500X0.062500X-0.350000X0.062500X0.350000X-0.062500X0.350000X-0.062500X-0.350000X0*%
%ADD23FreePoly5,90.000000*%
%ADD24FreePoly6,90.000000*%
%ADD25FreePoly7,90.000000*%
%ADD26RoundRect,0.250000X-0.250000X-0.475000X0.250000X-0.475000X0.250000X0.475000X-0.250000X0.475000X0*%
%ADD27RoundRect,0.243750X0.150260X-0.494975X0.494975X-0.150260X-0.150260X0.494975X-0.494975X0.150260X0*%
%ADD28RoundRect,0.160000X-0.252791X0.026517X0.026517X-0.252791X0.252791X-0.026517X-0.026517X0.252791X0*%
%ADD29RoundRect,0.160000X0.197500X0.160000X-0.197500X0.160000X-0.197500X-0.160000X0.197500X-0.160000X0*%
%ADD30RoundRect,0.160000X-0.197500X-0.160000X0.197500X-0.160000X0.197500X0.160000X-0.197500X0.160000X0*%
%ADD31RoundRect,0.155000X-0.212500X-0.155000X0.212500X-0.155000X0.212500X0.155000X-0.212500X0.155000X0*%
%ADD32R,4.200000X1.400000*%
%ADD33RoundRect,0.250000X0.262500X0.450000X-0.262500X0.450000X-0.262500X-0.450000X0.262500X-0.450000X0*%
%ADD34R,0.600000X1.550000*%
%ADD35R,1.200000X1.800000*%
%ADD36RoundRect,0.160000X-0.160000X0.197500X-0.160000X-0.197500X0.160000X-0.197500X0.160000X0.197500X0*%
%ADD37R,0.599440X1.348740*%
%ADD38R,1.198880X1.998980*%
%ADD39R,0.700000X1.000000*%
%ADD40RoundRect,0.155000X0.212500X0.155000X-0.212500X0.155000X-0.212500X-0.155000X0.212500X-0.155000X0*%
%ADD41R,1.500000X0.900000*%
%ADD42R,0.900000X1.500000*%
%ADD43R,0.900000X0.900000*%
%ADD44RoundRect,0.237500X0.380070X-0.044194X-0.044194X0.380070X-0.380070X0.044194X0.044194X-0.380070X0*%
%ADD45R,1.560000X0.650000*%
%ADD46R,0.600000X1.100000*%
%ADD47R,0.300000X1.100000*%
%ADD48RoundRect,0.250001X1.999999X0.799999X-1.999999X0.799999X-1.999999X-0.799999X1.999999X-0.799999X0*%
%ADD49R,0.900000X1.300000*%
%ADD50FreePoly8,90.000000*%
%ADD51RoundRect,0.250000X-0.475000X0.250000X-0.475000X-0.250000X0.475000X-0.250000X0.475000X0.250000X0*%
G04 APERTURE END LIST*
D10*
%TO.C,C2*%
X125134280Y-88444457D03*
X124331714Y-89247023D03*
%TD*%
D11*
%TO.C,R14*%
X135331749Y-70060966D03*
X135331749Y-68865966D03*
%TD*%
D12*
%TO.C,C13*%
X147475000Y-58675000D03*
X145575000Y-58675000D03*
%TD*%
D13*
%TO.C,U4*%
X129570599Y-63370400D03*
X130070599Y-63370400D03*
X130570599Y-63370400D03*
X131070599Y-63370400D03*
X131570599Y-63370400D03*
X131570599Y-58970400D03*
X131070599Y-58970400D03*
X130570599Y-58970400D03*
X130070599Y-58970400D03*
X129570599Y-58970400D03*
%TD*%
D14*
%TO.C,U2*%
X125531600Y-61536400D03*
X126331600Y-61536400D03*
X125531600Y-60736400D03*
X126331600Y-60736400D03*
D15*
X125131600Y-62586400D03*
D16*
X125531600Y-62586400D03*
X125931600Y-62586400D03*
X126331600Y-62586400D03*
D17*
X126731600Y-62586400D03*
D18*
X127381600Y-61936400D03*
D19*
X127381600Y-61536400D03*
X127381600Y-61136400D03*
X127381600Y-60736400D03*
D20*
X127381600Y-60336400D03*
D21*
X126731600Y-59686400D03*
D16*
X126331600Y-59686400D03*
D22*
X125931600Y-59698900D03*
D16*
X125531600Y-59686400D03*
D23*
X125131600Y-59686400D03*
D24*
X124481600Y-60336400D03*
D19*
X124481600Y-60736400D03*
X124481600Y-61136400D03*
X124481600Y-61536400D03*
D25*
X124481600Y-61936400D03*
%TD*%
D11*
%TO.C,R7*%
X133052632Y-70058317D03*
X133052632Y-68863317D03*
%TD*%
D26*
%TO.C,C18*%
X169445000Y-79365000D03*
X171345000Y-79365000D03*
%TD*%
D27*
%TO.C,D3*%
X144042618Y-81685208D03*
X145368444Y-80359382D03*
%TD*%
D26*
%TO.C,C17*%
X164655001Y-79405000D03*
X166555001Y-79405000D03*
%TD*%
D28*
%TO.C,R20*%
X161356561Y-84630176D03*
X162201553Y-85475168D03*
%TD*%
D13*
%TO.C,U3*%
X129479524Y-87726458D03*
X129979524Y-87726458D03*
X130479524Y-87726458D03*
X130979524Y-87726458D03*
X131479524Y-87726458D03*
X131479524Y-83326458D03*
X130979524Y-83326458D03*
X130479524Y-83326458D03*
X129979524Y-83326458D03*
X129479524Y-83326458D03*
%TD*%
D12*
%TO.C,C9*%
X150916079Y-60751361D03*
X149016079Y-60751361D03*
%TD*%
D29*
%TO.C,R25*%
X173781468Y-82714817D03*
X172586468Y-82714817D03*
%TD*%
D30*
%TO.C,R17*%
X143572500Y-64182000D03*
X144767500Y-64182000D03*
%TD*%
D29*
%TO.C,R33*%
X143730100Y-85160104D03*
X144925100Y-85160104D03*
%TD*%
D31*
%TO.C,C6*%
X120616900Y-62664000D03*
X121751900Y-62664000D03*
%TD*%
D32*
%TO.C,L1*%
X150223141Y-62751128D03*
X150223141Y-66451128D03*
%TD*%
D33*
%TO.C,R1*%
X122804801Y-88508832D03*
X120979801Y-88508832D03*
%TD*%
D29*
%TO.C,R22*%
X144932658Y-86282843D03*
X143737658Y-86282843D03*
%TD*%
D34*
%TO.C,J12*%
X122035000Y-75300000D03*
X121035000Y-75300000D03*
X120035000Y-75300000D03*
X119035000Y-75300000D03*
X118035000Y-75300000D03*
D35*
X123335000Y-77825000D03*
X116735000Y-77825000D03*
%TD*%
D11*
%TO.C,R5*%
X131909969Y-70061889D03*
X131909969Y-68866889D03*
%TD*%
D29*
%TO.C,R24*%
X170642456Y-87745727D03*
X169447456Y-87745727D03*
%TD*%
D28*
%TO.C,R21*%
X162181073Y-83771645D03*
X163026065Y-84616637D03*
%TD*%
D36*
%TO.C,R19*%
X140401910Y-68155397D03*
X140401910Y-69350397D03*
%TD*%
D37*
%TO.C,J5*%
X134931920Y-91075680D03*
X135932680Y-91075680D03*
X136928360Y-91075680D03*
X137929120Y-91075680D03*
D38*
X139229600Y-94748520D03*
X133631440Y-94748520D03*
%TD*%
D12*
%TO.C,C8*%
X128505000Y-57245000D03*
X126605000Y-57245000D03*
%TD*%
D39*
%TO.C,J7*%
X173084000Y-94138000D03*
X173084000Y-88138000D03*
X176784000Y-94138000D03*
X176784000Y-88138000D03*
%TD*%
D40*
%TO.C,C5*%
X121749900Y-61643600D03*
X120614900Y-61643600D03*
%TD*%
D12*
%TO.C,C11*%
X150906078Y-58691361D03*
X149006078Y-58691361D03*
%TD*%
D11*
%TO.C,R9*%
X130769483Y-70064606D03*
X130769483Y-68869606D03*
%TD*%
D41*
%TO.C,U1*%
X158890000Y-59260000D03*
X158890000Y-60530000D03*
X158890000Y-61800000D03*
X158890000Y-63070000D03*
X158890000Y-64340000D03*
X158890000Y-65610000D03*
X158890000Y-66880000D03*
X158890000Y-68150000D03*
X158890000Y-69420000D03*
X158890000Y-70690000D03*
X158890000Y-71960000D03*
X158890000Y-73230000D03*
X158890000Y-74500000D03*
X158890000Y-75770000D03*
D42*
X160655000Y-77020000D03*
X161925000Y-77020000D03*
X163195000Y-77020000D03*
X164465000Y-77020000D03*
X165735000Y-77020000D03*
X167005000Y-77020000D03*
X168275000Y-77020000D03*
X169545000Y-77020000D03*
X170815000Y-77020000D03*
X172085000Y-77020000D03*
X173355000Y-77020000D03*
X174625000Y-77020000D03*
D41*
X176390000Y-75770000D03*
X176390000Y-74500000D03*
X176390000Y-73230000D03*
X176390000Y-71960000D03*
X176390000Y-70690000D03*
X176390000Y-69420000D03*
X176390000Y-68150000D03*
X176390000Y-66880000D03*
X176390000Y-65610000D03*
X176390000Y-64340000D03*
X176390000Y-63070000D03*
X176390000Y-61800000D03*
X176390000Y-60530000D03*
X176390000Y-59260000D03*
D43*
X164740000Y-65580000D03*
X164740000Y-66980000D03*
X164740000Y-68380000D03*
X166140000Y-65580000D03*
X166140000Y-66980000D03*
X166140000Y-68380000D03*
X167540000Y-65580000D03*
X167540000Y-66980000D03*
X167540000Y-68380000D03*
%TD*%
D27*
%TO.C,D2*%
X145913411Y-83556001D03*
X147239237Y-82230175D03*
%TD*%
D11*
%TO.C,R10*%
X136472512Y-70058831D03*
X136472512Y-68863831D03*
%TD*%
D30*
%TO.C,R23*%
X158335161Y-87723495D03*
X159530161Y-87723495D03*
%TD*%
D36*
%TO.C,R11*%
X138669287Y-74616736D03*
X138669287Y-75811736D03*
%TD*%
%TO.C,R3*%
X140923006Y-74617427D03*
X140923006Y-75812427D03*
%TD*%
D30*
%TO.C,R27*%
X175035536Y-80395264D03*
X176230536Y-80395264D03*
%TD*%
%TO.C,R26*%
X175034864Y-81603353D03*
X176229864Y-81603353D03*
%TD*%
D40*
%TO.C,C1*%
X121565890Y-85977162D03*
X120430890Y-85977162D03*
%TD*%
D44*
%TO.C,C20*%
X159722421Y-85046421D03*
X158502661Y-83826661D03*
%TD*%
D31*
%TO.C,C3*%
X120435690Y-87000768D03*
X121570690Y-87000768D03*
%TD*%
D39*
%TO.C,J6*%
X151024197Y-94152726D03*
X151024197Y-88152726D03*
X154724197Y-94152726D03*
X154724197Y-88152726D03*
%TD*%
D33*
%TO.C,R2*%
X122878683Y-82673249D03*
X121053683Y-82673249D03*
%TD*%
D36*
%TO.C,R13*%
X136395397Y-74608928D03*
X136395397Y-75803928D03*
%TD*%
D45*
%TO.C,U7*%
X145856000Y-67934001D03*
X145856000Y-66984001D03*
X145856000Y-66034001D03*
X143156000Y-66034001D03*
X143156000Y-66984001D03*
X143156000Y-67934001D03*
%TD*%
D37*
%TO.C,J3*%
X142834173Y-90985775D03*
X143834933Y-90985775D03*
X144830613Y-90985775D03*
X145831373Y-90985775D03*
D38*
X147131853Y-94658615D03*
X141533693Y-94658615D03*
%TD*%
D46*
%TO.C,J11*%
X161170000Y-90000000D03*
X161970000Y-90000000D03*
D47*
X163120000Y-90000000D03*
X164120000Y-90000000D03*
X164620000Y-90000000D03*
X165620000Y-90000000D03*
D46*
X167570000Y-90000000D03*
X166770000Y-90000000D03*
D47*
X166120000Y-90000000D03*
X165120000Y-90000000D03*
X163620000Y-90000000D03*
X162620000Y-90000000D03*
%TD*%
D30*
%TO.C,R29*%
X145240150Y-88987791D03*
X146435150Y-88987791D03*
%TD*%
%TO.C,R31*%
X125072469Y-74246958D03*
X126267469Y-74246958D03*
%TD*%
D34*
%TO.C,J13*%
X122037570Y-69301563D03*
X121037570Y-69301563D03*
X120037570Y-69301563D03*
X119037570Y-69301563D03*
X118037570Y-69301563D03*
D35*
X123337570Y-71826563D03*
X116737570Y-71826563D03*
%TD*%
D36*
%TO.C,R30*%
X156723042Y-60354469D03*
X156723042Y-61549469D03*
%TD*%
D33*
%TO.C,R15*%
X123014799Y-64202415D03*
X121189799Y-64202415D03*
%TD*%
D48*
%TO.C,C10*%
X141935605Y-61085748D03*
X134735605Y-61085748D03*
%TD*%
D44*
%TO.C,C19*%
X162791634Y-82231208D03*
X161571874Y-81011448D03*
%TD*%
D36*
%TO.C,R6*%
X139819775Y-74626944D03*
X139819775Y-75821944D03*
%TD*%
D29*
%TO.C,R32*%
X144924463Y-87422886D03*
X143729463Y-87422886D03*
%TD*%
D26*
%TO.C,C16*%
X138820000Y-66616001D03*
X140720000Y-66616001D03*
%TD*%
D27*
%TO.C,D1*%
X149216663Y-84207601D03*
X147890837Y-85533427D03*
%TD*%
D11*
%TO.C,R12*%
X134192940Y-70059409D03*
X134192940Y-68864409D03*
%TD*%
D10*
%TO.C,C7*%
X125290615Y-64145637D03*
X124488049Y-64948203D03*
%TD*%
D33*
%TO.C,R16*%
X122970423Y-58313966D03*
X121145423Y-58313966D03*
%TD*%
D12*
%TO.C,C12*%
X147485000Y-60715000D03*
X145585000Y-60715000D03*
%TD*%
D14*
%TO.C,U5*%
X125439938Y-85894093D03*
X126239938Y-85894093D03*
X125439938Y-85094093D03*
X126239938Y-85094093D03*
D15*
X125039938Y-86944093D03*
D16*
X125439938Y-86944093D03*
X125839938Y-86944093D03*
X126239938Y-86944093D03*
D17*
X126639938Y-86944093D03*
D18*
X127289938Y-86294093D03*
D19*
X127289938Y-85894093D03*
X127289938Y-85494093D03*
X127289938Y-85094093D03*
D20*
X127289938Y-84694093D03*
D21*
X126639938Y-84044093D03*
D16*
X126239938Y-84044093D03*
D22*
X125839938Y-84056593D03*
D16*
X125439938Y-84044093D03*
D23*
X125039938Y-84044093D03*
D24*
X124389938Y-84694093D03*
D19*
X124389938Y-85094093D03*
X124389938Y-85494093D03*
X124389938Y-85894093D03*
D25*
X124389938Y-86294093D03*
%TD*%
D29*
%TO.C,R28*%
X148409250Y-89929808D03*
X147214250Y-89929808D03*
%TD*%
D12*
%TO.C,C4*%
X126625000Y-81815000D03*
X124725000Y-81815000D03*
%TD*%
D36*
%TO.C,R8*%
X135252962Y-74610975D03*
X135252962Y-75805975D03*
%TD*%
D12*
%TO.C,C15*%
X145722000Y-69528000D03*
X143822000Y-69528000D03*
%TD*%
D49*
%TO.C,U6*%
X166140001Y-84754000D03*
D50*
X167640001Y-84666500D03*
D49*
X169140001Y-84754000D03*
%TD*%
D51*
%TO.C,C14*%
X146465000Y-62495000D03*
X146465000Y-64395000D03*
%TD*%
D11*
%TO.C,R18*%
X139324867Y-69361496D03*
X139324867Y-68166496D03*
%TD*%
D36*
%TO.C,R4*%
X137516133Y-74612031D03*
X137516133Y-75807031D03*
%TD*%
M02*
