%TF.GenerationSoftware,KiCad,Pcbnew,7.0.2*%
%TF.CreationDate,2024-03-26T23:12:22-04:00*%
%TF.ProjectId,mini_motor_go_V1_rev3,6d696e69-5f6d-46f7-946f-725f676f5f56,rev?*%
%TF.SameCoordinates,Original*%
%TF.FileFunction,Soldermask,Top*%
%TF.FilePolarity,Negative*%
%FSLAX46Y46*%
G04 Gerber Fmt 4.6, Leading zero omitted, Abs format (unit mm)*
G04 Created by KiCad (PCBNEW 7.0.2) date 2024-03-26 23:12:22*
%MOMM*%
%LPD*%
G01*
G04 APERTURE LIST*
G04 Aperture macros list*
%AMRoundRect*
0 Rectangle with rounded corners*
0 $1 Rounding radius*
0 $2 $3 $4 $5 $6 $7 $8 $9 X,Y pos of 4 corners*
0 Add a 4 corners polygon primitive as box body*
4,1,4,$2,$3,$4,$5,$6,$7,$8,$9,$2,$3,0*
0 Add four circle primitives for the rounded corners*
1,1,$1+$1,$2,$3*
1,1,$1+$1,$4,$5*
1,1,$1+$1,$6,$7*
1,1,$1+$1,$8,$9*
0 Add four rect primitives between the rounded corners*
20,1,$1+$1,$2,$3,$4,$5,0*
20,1,$1+$1,$4,$5,$6,$7,0*
20,1,$1+$1,$6,$7,$8,$9,0*
20,1,$1+$1,$8,$9,$2,$3,0*%
%AMRotRect*
0 Rectangle, with rotation*
0 The origin of the aperture is its center*
0 $1 length*
0 $2 width*
0 $3 Rotation angle, in degrees counterclockwise*
0 Add horizontal line*
21,1,$1,$2,0,0,$3*%
%AMFreePoly0*
4,1,14,0.289644,0.110355,0.410355,-0.010356,0.425000,-0.045711,0.425000,-0.075000,0.410355,-0.110355,0.375000,-0.125000,-0.375000,-0.125000,-0.410355,-0.110355,-0.425000,-0.075000,-0.425000,0.075000,-0.410355,0.110355,-0.375000,0.125000,0.254289,0.125000,0.289644,0.110355,0.289644,0.110355,$1*%
%AMFreePoly1*
4,1,14,0.410355,0.110355,0.425000,0.075000,0.425000,0.045711,0.410355,0.010356,0.289644,-0.110355,0.254289,-0.125000,-0.375000,-0.125000,-0.410355,-0.110355,-0.425000,-0.075000,-0.425000,0.075000,-0.410355,0.110355,-0.375000,0.125000,0.375000,0.125000,0.410355,0.110355,0.410355,0.110355,$1*%
%AMFreePoly2*
4,1,14,0.110355,0.410355,0.125000,0.375000,0.125000,-0.375000,0.110355,-0.410355,0.075000,-0.425000,-0.075000,-0.425000,-0.110355,-0.410355,-0.125000,-0.375000,-0.125000,0.254289,-0.110355,0.289644,0.010356,0.410355,0.045711,0.425000,0.075000,0.425000,0.110355,0.410355,0.110355,0.410355,$1*%
%AMFreePoly3*
4,1,14,-0.010356,0.410355,0.110355,0.289644,0.125000,0.254289,0.125000,-0.375000,0.110355,-0.410355,0.075000,-0.425000,-0.075000,-0.425000,-0.110355,-0.410355,-0.125000,-0.375000,-0.125000,0.375000,-0.110355,0.410355,-0.075000,0.425000,-0.045711,0.425000,-0.010356,0.410355,-0.010356,0.410355,$1*%
%AMFreePoly4*
4,1,14,0.410355,0.110355,0.425000,0.075000,0.425000,-0.075000,0.410355,-0.110355,0.375000,-0.125000,-0.254289,-0.125000,-0.289644,-0.110355,-0.410355,0.010356,-0.425000,0.045711,-0.425000,0.075000,-0.410355,0.110355,-0.375000,0.125000,0.375000,0.125000,0.410355,0.110355,0.410355,0.110355,$1*%
%AMFreePoly5*
4,1,14,0.410355,0.110355,0.425000,0.075000,0.425000,-0.075000,0.410355,-0.110355,0.375000,-0.125000,-0.375000,-0.125000,-0.410355,-0.110355,-0.425000,-0.075000,-0.425000,-0.045711,-0.410355,-0.010356,-0.289644,0.110355,-0.254289,0.125000,0.375000,0.125000,0.410355,0.110355,0.410355,0.110355,$1*%
%AMFreePoly6*
4,1,14,0.110355,0.410355,0.125000,0.375000,0.125000,-0.254289,0.110355,-0.289644,-0.010356,-0.410355,-0.045711,-0.425000,-0.075000,-0.425000,-0.110355,-0.410355,-0.125000,-0.375000,-0.125000,0.375000,-0.110355,0.410355,-0.075000,0.425000,0.075000,0.425000,0.110355,0.410355,0.110355,0.410355,$1*%
%AMFreePoly7*
4,1,14,0.110355,0.410355,0.125000,0.375000,0.125000,-0.375000,0.110355,-0.410355,0.075000,-0.425000,0.045711,-0.425000,0.010356,-0.410355,-0.110355,-0.289644,-0.125000,-0.254289,-0.125000,0.375000,-0.110355,0.410355,-0.075000,0.425000,0.075000,0.425000,0.110355,0.410355,0.110355,0.410355,$1*%
%AMFreePoly8*
4,1,9,3.862500,-0.866500,0.737500,-0.866500,0.737500,-0.450000,-0.737500,-0.450000,-0.737500,0.450000,0.737500,0.450000,0.737500,0.866500,3.862500,0.866500,3.862500,-0.866500,3.862500,-0.866500,$1*%
G04 Aperture macros list end*
%ADD10C,2.750000*%
%ADD11C,0.750000*%
%ADD12C,0.010000*%
%ADD13RoundRect,0.155000X0.040659X0.259862X-0.259862X-0.040659X-0.040659X-0.259862X0.259862X0.040659X0*%
%ADD14RoundRect,0.160000X0.160000X-0.197500X0.160000X0.197500X-0.160000X0.197500X-0.160000X-0.197500X0*%
%ADD15RotRect,1.000000X1.500000X45.000000*%
%ADD16RoundRect,0.250000X0.250000X0.475000X-0.250000X0.475000X-0.250000X-0.475000X0.250000X-0.475000X0*%
%ADD17RoundRect,0.030000X0.120000X-0.695000X0.120000X0.695000X-0.120000X0.695000X-0.120000X-0.695000X0*%
%ADD18FreePoly0,90.000000*%
%ADD19RoundRect,0.062500X0.062500X-0.362500X0.062500X0.362500X-0.062500X0.362500X-0.062500X-0.362500X0*%
%ADD20FreePoly1,90.000000*%
%ADD21FreePoly2,90.000000*%
%ADD22RoundRect,0.062500X0.362500X-0.062500X0.362500X0.062500X-0.362500X0.062500X-0.362500X-0.062500X0*%
%ADD23FreePoly3,90.000000*%
%ADD24FreePoly4,90.000000*%
%ADD25RoundRect,0.062500X0.062500X-0.350000X0.062500X0.350000X-0.062500X0.350000X-0.062500X-0.350000X0*%
%ADD26FreePoly5,90.000000*%
%ADD27FreePoly6,90.000000*%
%ADD28FreePoly7,90.000000*%
%ADD29R,1.700000X1.700000*%
%ADD30RoundRect,0.250000X-0.250000X-0.475000X0.250000X-0.475000X0.250000X0.475000X-0.250000X0.475000X0*%
%ADD31RoundRect,0.243750X0.150260X-0.494975X0.494975X-0.150260X-0.150260X0.494975X-0.494975X0.150260X0*%
%ADD32RoundRect,0.160000X-0.252791X0.026517X0.026517X-0.252791X0.252791X-0.026517X-0.026517X0.252791X0*%
%ADD33RoundRect,0.160000X0.197500X0.160000X-0.197500X0.160000X-0.197500X-0.160000X0.197500X-0.160000X0*%
%ADD34RoundRect,0.160000X-0.197500X-0.160000X0.197500X-0.160000X0.197500X0.160000X-0.197500X0.160000X0*%
%ADD35RoundRect,0.155000X-0.212500X-0.155000X0.212500X-0.155000X0.212500X0.155000X-0.212500X0.155000X0*%
%ADD36R,4.200000X1.400000*%
%ADD37RoundRect,0.250000X0.262500X0.450000X-0.262500X0.450000X-0.262500X-0.450000X0.262500X-0.450000X0*%
%ADD38RoundRect,0.102000X0.300000X0.775000X-0.300000X0.775000X-0.300000X-0.775000X0.300000X-0.775000X0*%
%ADD39RoundRect,0.102000X0.600000X0.900000X-0.600000X0.900000X-0.600000X-0.900000X0.600000X-0.900000X0*%
%ADD40RoundRect,0.160000X-0.160000X0.197500X-0.160000X-0.197500X0.160000X-0.197500X0.160000X0.197500X0*%
%ADD41RoundRect,0.101600X-0.299720X-0.674370X0.299720X-0.674370X0.299720X0.674370X-0.299720X0.674370X0*%
%ADD42RoundRect,0.101600X-0.599440X-0.999490X0.599440X-0.999490X0.599440X0.999490X-0.599440X0.999490X0*%
%ADD43R,0.700000X1.000000*%
%ADD44RoundRect,0.155000X0.212500X0.155000X-0.212500X0.155000X-0.212500X-0.155000X0.212500X-0.155000X0*%
%ADD45R,1.500000X0.900000*%
%ADD46R,0.900000X1.500000*%
%ADD47R,0.900000X0.900000*%
%ADD48RoundRect,0.237500X0.380070X-0.044194X-0.044194X0.380070X-0.380070X0.044194X0.044194X-0.380070X0*%
%ADD49C,2.082800*%
%ADD50R,1.560000X0.650000*%
%ADD51R,0.600000X1.100000*%
%ADD52R,0.300000X1.100000*%
%ADD53RoundRect,0.250001X1.999999X0.799999X-1.999999X0.799999X-1.999999X-0.799999X1.999999X-0.799999X0*%
%ADD54R,1.980000X3.960000*%
%ADD55O,1.980000X3.960000*%
%ADD56R,0.900000X1.300000*%
%ADD57FreePoly8,90.000000*%
%ADD58RoundRect,0.250000X-0.475000X0.250000X-0.475000X-0.250000X0.475000X-0.250000X0.475000X0.250000X0*%
G04 APERTURE END LIST*
D10*
X119375000Y-93000000D02*
G75*
G03*
X119375000Y-93000000I-1375000J0D01*
G01*
X119375000Y-53000000D02*
G75*
G03*
X119375000Y-53000000I-1375000J0D01*
G01*
X184375000Y-53000000D02*
G75*
G03*
X184375000Y-53000000I-1375000J0D01*
G01*
X184375000Y-93000000D02*
G75*
G03*
X184375000Y-93000000I-1375000J0D01*
G01*
D11*
X131065284Y-79022684D02*
X131267315Y-79022684D01*
X131267315Y-79022684D02*
X131267315Y-79224714D01*
X131267315Y-79224714D02*
X131065284Y-79224714D01*
X131065284Y-79224714D02*
X131065284Y-79022684D01*
X131065284Y-79022684D02*
X131267315Y-79224714D01*
X129954116Y-77911516D02*
X130156147Y-77911516D01*
X130156147Y-77911516D02*
X130156147Y-78113546D01*
X130156147Y-78113546D02*
X129954116Y-78113546D01*
X129954116Y-78113546D02*
X129954116Y-77911516D01*
X129954116Y-77911516D02*
X130156147Y-78113546D01*
X132883558Y-79224714D02*
X132883558Y-79022684D01*
X132883558Y-79022684D02*
X132782543Y-78517608D01*
X132782543Y-78517608D02*
X132681528Y-78214562D01*
X132681528Y-78214562D02*
X132479497Y-77810501D01*
X132479497Y-77810501D02*
X132075436Y-77204409D01*
X132075436Y-77204409D02*
X131671375Y-76800348D01*
X131671375Y-76800348D02*
X131065284Y-76396287D01*
X131065284Y-76396287D02*
X130661223Y-76194257D01*
X130661223Y-76194257D02*
X130358177Y-76093241D01*
X130358177Y-76093241D02*
X129853101Y-75992226D01*
X129853101Y-75992226D02*
X129651070Y-75992226D01*
%TO.C,J11*%
D12*
X160084600Y-89451700D02*
X160116600Y-89453700D01*
X160147600Y-89457700D01*
X160178600Y-89463700D01*
X160208600Y-89470700D01*
X160238600Y-89479700D01*
X160268600Y-89490700D01*
X160297600Y-89502700D01*
X160325600Y-89515700D01*
X160353600Y-89530700D01*
X160380600Y-89547700D01*
X160406600Y-89565700D01*
X160431600Y-89584700D01*
X160454600Y-89604700D01*
X160477600Y-89626700D01*
X160499600Y-89649700D01*
X160519600Y-89672700D01*
X160538600Y-89697700D01*
X160556600Y-89723700D01*
X160573600Y-89750700D01*
X160588600Y-89778700D01*
X160601600Y-89806700D01*
X160613600Y-89835700D01*
X160624600Y-89865700D01*
X160633600Y-89895700D01*
X160640600Y-89925700D01*
X160646600Y-89956700D01*
X160650600Y-89987700D01*
X160652600Y-90019700D01*
X160653600Y-90050700D01*
X160653600Y-90850700D01*
X160652600Y-90881700D01*
X160650600Y-90913700D01*
X160646600Y-90944700D01*
X160640600Y-90975700D01*
X160633600Y-91005700D01*
X160624600Y-91035700D01*
X160613600Y-91065700D01*
X160601600Y-91094700D01*
X160588600Y-91122700D01*
X160573600Y-91150700D01*
X160556600Y-91177700D01*
X160538600Y-91203700D01*
X160519600Y-91228700D01*
X160499600Y-91251700D01*
X160477600Y-91274700D01*
X160454600Y-91296700D01*
X160431600Y-91316700D01*
X160406600Y-91335700D01*
X160380600Y-91353700D01*
X160353600Y-91370700D01*
X160325600Y-91385700D01*
X160297600Y-91398700D01*
X160268600Y-91410700D01*
X160238600Y-91421700D01*
X160208600Y-91430700D01*
X160178600Y-91437700D01*
X160147600Y-91443700D01*
X160116600Y-91447700D01*
X160084600Y-91449700D01*
X160053600Y-91450700D01*
X160022600Y-91449700D01*
X159990600Y-91447700D01*
X159959600Y-91443700D01*
X159928600Y-91437700D01*
X159898600Y-91430700D01*
X159868600Y-91421700D01*
X159838600Y-91410700D01*
X159809600Y-91398700D01*
X159781600Y-91385700D01*
X159753600Y-91370700D01*
X159726600Y-91353700D01*
X159700600Y-91335700D01*
X159675600Y-91316700D01*
X159652600Y-91296700D01*
X159629600Y-91274700D01*
X159607600Y-91251700D01*
X159587600Y-91228700D01*
X159568600Y-91203700D01*
X159550600Y-91177700D01*
X159533600Y-91150700D01*
X159518600Y-91122700D01*
X159505600Y-91094700D01*
X159493600Y-91065700D01*
X159482600Y-91035700D01*
X159473600Y-91005700D01*
X159466600Y-90975700D01*
X159460600Y-90944700D01*
X159456600Y-90913700D01*
X159454600Y-90881700D01*
X159453600Y-90850700D01*
X159453600Y-90050700D01*
X159454600Y-90019700D01*
X159456600Y-89987700D01*
X159460600Y-89956700D01*
X159466600Y-89925700D01*
X159473600Y-89895700D01*
X159482600Y-89865700D01*
X159493600Y-89835700D01*
X159505600Y-89806700D01*
X159518600Y-89778700D01*
X159533600Y-89750700D01*
X159550600Y-89723700D01*
X159568600Y-89697700D01*
X159587600Y-89672700D01*
X159607600Y-89649700D01*
X159629600Y-89626700D01*
X159652600Y-89604700D01*
X159675600Y-89584700D01*
X159700600Y-89565700D01*
X159726600Y-89547700D01*
X159753600Y-89530700D01*
X159781600Y-89515700D01*
X159809600Y-89502700D01*
X159838600Y-89490700D01*
X159868600Y-89479700D01*
X159898600Y-89470700D01*
X159928600Y-89463700D01*
X159959600Y-89457700D01*
X159990600Y-89453700D01*
X160022600Y-89451700D01*
X160053600Y-89450700D01*
X160084600Y-89451700D01*
G36*
X160084600Y-89451700D02*
G01*
X160116600Y-89453700D01*
X160147600Y-89457700D01*
X160178600Y-89463700D01*
X160208600Y-89470700D01*
X160238600Y-89479700D01*
X160268600Y-89490700D01*
X160297600Y-89502700D01*
X160325600Y-89515700D01*
X160353600Y-89530700D01*
X160380600Y-89547700D01*
X160406600Y-89565700D01*
X160431600Y-89584700D01*
X160454600Y-89604700D01*
X160477600Y-89626700D01*
X160499600Y-89649700D01*
X160519600Y-89672700D01*
X160538600Y-89697700D01*
X160556600Y-89723700D01*
X160573600Y-89750700D01*
X160588600Y-89778700D01*
X160601600Y-89806700D01*
X160613600Y-89835700D01*
X160624600Y-89865700D01*
X160633600Y-89895700D01*
X160640600Y-89925700D01*
X160646600Y-89956700D01*
X160650600Y-89987700D01*
X160652600Y-90019700D01*
X160653600Y-90050700D01*
X160653600Y-90850700D01*
X160652600Y-90881700D01*
X160650600Y-90913700D01*
X160646600Y-90944700D01*
X160640600Y-90975700D01*
X160633600Y-91005700D01*
X160624600Y-91035700D01*
X160613600Y-91065700D01*
X160601600Y-91094700D01*
X160588600Y-91122700D01*
X160573600Y-91150700D01*
X160556600Y-91177700D01*
X160538600Y-91203700D01*
X160519600Y-91228700D01*
X160499600Y-91251700D01*
X160477600Y-91274700D01*
X160454600Y-91296700D01*
X160431600Y-91316700D01*
X160406600Y-91335700D01*
X160380600Y-91353700D01*
X160353600Y-91370700D01*
X160325600Y-91385700D01*
X160297600Y-91398700D01*
X160268600Y-91410700D01*
X160238600Y-91421700D01*
X160208600Y-91430700D01*
X160178600Y-91437700D01*
X160147600Y-91443700D01*
X160116600Y-91447700D01*
X160084600Y-91449700D01*
X160053600Y-91450700D01*
X160022600Y-91449700D01*
X159990600Y-91447700D01*
X159959600Y-91443700D01*
X159928600Y-91437700D01*
X159898600Y-91430700D01*
X159868600Y-91421700D01*
X159838600Y-91410700D01*
X159809600Y-91398700D01*
X159781600Y-91385700D01*
X159753600Y-91370700D01*
X159726600Y-91353700D01*
X159700600Y-91335700D01*
X159675600Y-91316700D01*
X159652600Y-91296700D01*
X159629600Y-91274700D01*
X159607600Y-91251700D01*
X159587600Y-91228700D01*
X159568600Y-91203700D01*
X159550600Y-91177700D01*
X159533600Y-91150700D01*
X159518600Y-91122700D01*
X159505600Y-91094700D01*
X159493600Y-91065700D01*
X159482600Y-91035700D01*
X159473600Y-91005700D01*
X159466600Y-90975700D01*
X159460600Y-90944700D01*
X159456600Y-90913700D01*
X159454600Y-90881700D01*
X159453600Y-90850700D01*
X159453600Y-90050700D01*
X159454600Y-90019700D01*
X159456600Y-89987700D01*
X159460600Y-89956700D01*
X159466600Y-89925700D01*
X159473600Y-89895700D01*
X159482600Y-89865700D01*
X159493600Y-89835700D01*
X159505600Y-89806700D01*
X159518600Y-89778700D01*
X159533600Y-89750700D01*
X159550600Y-89723700D01*
X159568600Y-89697700D01*
X159587600Y-89672700D01*
X159607600Y-89649700D01*
X159629600Y-89626700D01*
X159652600Y-89604700D01*
X159675600Y-89584700D01*
X159700600Y-89565700D01*
X159726600Y-89547700D01*
X159753600Y-89530700D01*
X159781600Y-89515700D01*
X159809600Y-89502700D01*
X159838600Y-89490700D01*
X159868600Y-89479700D01*
X159898600Y-89470700D01*
X159928600Y-89463700D01*
X159959600Y-89457700D01*
X159990600Y-89453700D01*
X160022600Y-89451700D01*
X160053600Y-89450700D01*
X160084600Y-89451700D01*
G37*
X160084600Y-93501700D02*
X160116600Y-93503700D01*
X160147600Y-93507700D01*
X160178600Y-93513700D01*
X160208600Y-93520700D01*
X160238600Y-93529700D01*
X160268600Y-93540700D01*
X160297600Y-93552700D01*
X160325600Y-93565700D01*
X160353600Y-93580700D01*
X160380600Y-93597700D01*
X160406600Y-93615700D01*
X160431600Y-93634700D01*
X160454600Y-93654700D01*
X160477600Y-93676700D01*
X160499600Y-93699700D01*
X160519600Y-93722700D01*
X160538600Y-93747700D01*
X160556600Y-93773700D01*
X160573600Y-93800700D01*
X160588600Y-93828700D01*
X160601600Y-93856700D01*
X160613600Y-93885700D01*
X160624600Y-93915700D01*
X160633600Y-93945700D01*
X160640600Y-93975700D01*
X160646600Y-94006700D01*
X160650600Y-94037700D01*
X160652600Y-94069700D01*
X160653600Y-94100700D01*
X160653600Y-95300700D01*
X160652600Y-95331700D01*
X160650600Y-95363700D01*
X160646600Y-95394700D01*
X160640600Y-95425700D01*
X160633600Y-95455700D01*
X160624600Y-95485700D01*
X160613600Y-95515700D01*
X160601600Y-95544700D01*
X160588600Y-95572700D01*
X160573600Y-95600700D01*
X160556600Y-95627700D01*
X160538600Y-95653700D01*
X160519600Y-95678700D01*
X160499600Y-95701700D01*
X160477600Y-95724700D01*
X160454600Y-95746700D01*
X160431600Y-95766700D01*
X160406600Y-95785700D01*
X160380600Y-95803700D01*
X160353600Y-95820700D01*
X160325600Y-95835700D01*
X160297600Y-95848700D01*
X160268600Y-95860700D01*
X160238600Y-95871700D01*
X160208600Y-95880700D01*
X160178600Y-95887700D01*
X160147600Y-95893700D01*
X160116600Y-95897700D01*
X160084600Y-95899700D01*
X160053600Y-95900700D01*
X160022600Y-95899700D01*
X159990600Y-95897700D01*
X159959600Y-95893700D01*
X159928600Y-95887700D01*
X159898600Y-95880700D01*
X159868600Y-95871700D01*
X159838600Y-95860700D01*
X159809600Y-95848700D01*
X159781600Y-95835700D01*
X159753600Y-95820700D01*
X159726600Y-95803700D01*
X159700600Y-95785700D01*
X159675600Y-95766700D01*
X159652600Y-95746700D01*
X159629600Y-95724700D01*
X159607600Y-95701700D01*
X159587600Y-95678700D01*
X159568600Y-95653700D01*
X159550600Y-95627700D01*
X159533600Y-95600700D01*
X159518600Y-95572700D01*
X159505600Y-95544700D01*
X159493600Y-95515700D01*
X159482600Y-95485700D01*
X159473600Y-95455700D01*
X159466600Y-95425700D01*
X159460600Y-95394700D01*
X159456600Y-95363700D01*
X159454600Y-95331700D01*
X159453600Y-95300700D01*
X159453600Y-94100700D01*
X159454600Y-94069700D01*
X159456600Y-94037700D01*
X159460600Y-94006700D01*
X159466600Y-93975700D01*
X159473600Y-93945700D01*
X159482600Y-93915700D01*
X159493600Y-93885700D01*
X159505600Y-93856700D01*
X159518600Y-93828700D01*
X159533600Y-93800700D01*
X159550600Y-93773700D01*
X159568600Y-93747700D01*
X159587600Y-93722700D01*
X159607600Y-93699700D01*
X159629600Y-93676700D01*
X159652600Y-93654700D01*
X159675600Y-93634700D01*
X159700600Y-93615700D01*
X159726600Y-93597700D01*
X159753600Y-93580700D01*
X159781600Y-93565700D01*
X159809600Y-93552700D01*
X159838600Y-93540700D01*
X159868600Y-93529700D01*
X159898600Y-93520700D01*
X159928600Y-93513700D01*
X159959600Y-93507700D01*
X159990600Y-93503700D01*
X160022600Y-93501700D01*
X160053600Y-93500700D01*
X160084600Y-93501700D01*
G36*
X160084600Y-93501700D02*
G01*
X160116600Y-93503700D01*
X160147600Y-93507700D01*
X160178600Y-93513700D01*
X160208600Y-93520700D01*
X160238600Y-93529700D01*
X160268600Y-93540700D01*
X160297600Y-93552700D01*
X160325600Y-93565700D01*
X160353600Y-93580700D01*
X160380600Y-93597700D01*
X160406600Y-93615700D01*
X160431600Y-93634700D01*
X160454600Y-93654700D01*
X160477600Y-93676700D01*
X160499600Y-93699700D01*
X160519600Y-93722700D01*
X160538600Y-93747700D01*
X160556600Y-93773700D01*
X160573600Y-93800700D01*
X160588600Y-93828700D01*
X160601600Y-93856700D01*
X160613600Y-93885700D01*
X160624600Y-93915700D01*
X160633600Y-93945700D01*
X160640600Y-93975700D01*
X160646600Y-94006700D01*
X160650600Y-94037700D01*
X160652600Y-94069700D01*
X160653600Y-94100700D01*
X160653600Y-95300700D01*
X160652600Y-95331700D01*
X160650600Y-95363700D01*
X160646600Y-95394700D01*
X160640600Y-95425700D01*
X160633600Y-95455700D01*
X160624600Y-95485700D01*
X160613600Y-95515700D01*
X160601600Y-95544700D01*
X160588600Y-95572700D01*
X160573600Y-95600700D01*
X160556600Y-95627700D01*
X160538600Y-95653700D01*
X160519600Y-95678700D01*
X160499600Y-95701700D01*
X160477600Y-95724700D01*
X160454600Y-95746700D01*
X160431600Y-95766700D01*
X160406600Y-95785700D01*
X160380600Y-95803700D01*
X160353600Y-95820700D01*
X160325600Y-95835700D01*
X160297600Y-95848700D01*
X160268600Y-95860700D01*
X160238600Y-95871700D01*
X160208600Y-95880700D01*
X160178600Y-95887700D01*
X160147600Y-95893700D01*
X160116600Y-95897700D01*
X160084600Y-95899700D01*
X160053600Y-95900700D01*
X160022600Y-95899700D01*
X159990600Y-95897700D01*
X159959600Y-95893700D01*
X159928600Y-95887700D01*
X159898600Y-95880700D01*
X159868600Y-95871700D01*
X159838600Y-95860700D01*
X159809600Y-95848700D01*
X159781600Y-95835700D01*
X159753600Y-95820700D01*
X159726600Y-95803700D01*
X159700600Y-95785700D01*
X159675600Y-95766700D01*
X159652600Y-95746700D01*
X159629600Y-95724700D01*
X159607600Y-95701700D01*
X159587600Y-95678700D01*
X159568600Y-95653700D01*
X159550600Y-95627700D01*
X159533600Y-95600700D01*
X159518600Y-95572700D01*
X159505600Y-95544700D01*
X159493600Y-95515700D01*
X159482600Y-95485700D01*
X159473600Y-95455700D01*
X159466600Y-95425700D01*
X159460600Y-95394700D01*
X159456600Y-95363700D01*
X159454600Y-95331700D01*
X159453600Y-95300700D01*
X159453600Y-94100700D01*
X159454600Y-94069700D01*
X159456600Y-94037700D01*
X159460600Y-94006700D01*
X159466600Y-93975700D01*
X159473600Y-93945700D01*
X159482600Y-93915700D01*
X159493600Y-93885700D01*
X159505600Y-93856700D01*
X159518600Y-93828700D01*
X159533600Y-93800700D01*
X159550600Y-93773700D01*
X159568600Y-93747700D01*
X159587600Y-93722700D01*
X159607600Y-93699700D01*
X159629600Y-93676700D01*
X159652600Y-93654700D01*
X159675600Y-93634700D01*
X159700600Y-93615700D01*
X159726600Y-93597700D01*
X159753600Y-93580700D01*
X159781600Y-93565700D01*
X159809600Y-93552700D01*
X159838600Y-93540700D01*
X159868600Y-93529700D01*
X159898600Y-93520700D01*
X159928600Y-93513700D01*
X159959600Y-93507700D01*
X159990600Y-93503700D01*
X160022600Y-93501700D01*
X160053600Y-93500700D01*
X160084600Y-93501700D01*
G37*
X168734600Y-89451700D02*
X168766600Y-89453700D01*
X168797600Y-89457700D01*
X168828600Y-89463700D01*
X168858600Y-89470700D01*
X168888600Y-89479700D01*
X168918600Y-89490700D01*
X168947600Y-89502700D01*
X168975600Y-89515700D01*
X169003600Y-89530700D01*
X169030600Y-89547700D01*
X169056600Y-89565700D01*
X169081600Y-89584700D01*
X169104600Y-89604700D01*
X169127600Y-89626700D01*
X169149600Y-89649700D01*
X169169600Y-89672700D01*
X169188600Y-89697700D01*
X169206600Y-89723700D01*
X169223600Y-89750700D01*
X169238600Y-89778700D01*
X169251600Y-89806700D01*
X169263600Y-89835700D01*
X169274600Y-89865700D01*
X169283600Y-89895700D01*
X169290600Y-89925700D01*
X169296600Y-89956700D01*
X169300600Y-89987700D01*
X169302600Y-90019700D01*
X169303600Y-90050700D01*
X169303600Y-90850700D01*
X169302600Y-90881700D01*
X169300600Y-90913700D01*
X169296600Y-90944700D01*
X169290600Y-90975700D01*
X169283600Y-91005700D01*
X169274600Y-91035700D01*
X169263600Y-91065700D01*
X169251600Y-91094700D01*
X169238600Y-91122700D01*
X169223600Y-91150700D01*
X169206600Y-91177700D01*
X169188600Y-91203700D01*
X169169600Y-91228700D01*
X169149600Y-91251700D01*
X169127600Y-91274700D01*
X169104600Y-91296700D01*
X169081600Y-91316700D01*
X169056600Y-91335700D01*
X169030600Y-91353700D01*
X169003600Y-91370700D01*
X168975600Y-91385700D01*
X168947600Y-91398700D01*
X168918600Y-91410700D01*
X168888600Y-91421700D01*
X168858600Y-91430700D01*
X168828600Y-91437700D01*
X168797600Y-91443700D01*
X168766600Y-91447700D01*
X168734600Y-91449700D01*
X168703600Y-91450700D01*
X168672600Y-91449700D01*
X168640600Y-91447700D01*
X168609600Y-91443700D01*
X168578600Y-91437700D01*
X168548600Y-91430700D01*
X168518600Y-91421700D01*
X168488600Y-91410700D01*
X168459600Y-91398700D01*
X168431600Y-91385700D01*
X168403600Y-91370700D01*
X168376600Y-91353700D01*
X168350600Y-91335700D01*
X168325600Y-91316700D01*
X168302600Y-91296700D01*
X168279600Y-91274700D01*
X168257600Y-91251700D01*
X168237600Y-91228700D01*
X168218600Y-91203700D01*
X168200600Y-91177700D01*
X168183600Y-91150700D01*
X168168600Y-91122700D01*
X168155600Y-91094700D01*
X168143600Y-91065700D01*
X168132600Y-91035700D01*
X168123600Y-91005700D01*
X168116600Y-90975700D01*
X168110600Y-90944700D01*
X168106600Y-90913700D01*
X168104600Y-90881700D01*
X168103600Y-90850700D01*
X168103600Y-90050700D01*
X168104600Y-90019700D01*
X168106600Y-89987700D01*
X168110600Y-89956700D01*
X168116600Y-89925700D01*
X168123600Y-89895700D01*
X168132600Y-89865700D01*
X168143600Y-89835700D01*
X168155600Y-89806700D01*
X168168600Y-89778700D01*
X168183600Y-89750700D01*
X168200600Y-89723700D01*
X168218600Y-89697700D01*
X168237600Y-89672700D01*
X168257600Y-89649700D01*
X168279600Y-89626700D01*
X168302600Y-89604700D01*
X168325600Y-89584700D01*
X168350600Y-89565700D01*
X168376600Y-89547700D01*
X168403600Y-89530700D01*
X168431600Y-89515700D01*
X168459600Y-89502700D01*
X168488600Y-89490700D01*
X168518600Y-89479700D01*
X168548600Y-89470700D01*
X168578600Y-89463700D01*
X168609600Y-89457700D01*
X168640600Y-89453700D01*
X168672600Y-89451700D01*
X168703600Y-89450700D01*
X168734600Y-89451700D01*
G36*
X168734600Y-89451700D02*
G01*
X168766600Y-89453700D01*
X168797600Y-89457700D01*
X168828600Y-89463700D01*
X168858600Y-89470700D01*
X168888600Y-89479700D01*
X168918600Y-89490700D01*
X168947600Y-89502700D01*
X168975600Y-89515700D01*
X169003600Y-89530700D01*
X169030600Y-89547700D01*
X169056600Y-89565700D01*
X169081600Y-89584700D01*
X169104600Y-89604700D01*
X169127600Y-89626700D01*
X169149600Y-89649700D01*
X169169600Y-89672700D01*
X169188600Y-89697700D01*
X169206600Y-89723700D01*
X169223600Y-89750700D01*
X169238600Y-89778700D01*
X169251600Y-89806700D01*
X169263600Y-89835700D01*
X169274600Y-89865700D01*
X169283600Y-89895700D01*
X169290600Y-89925700D01*
X169296600Y-89956700D01*
X169300600Y-89987700D01*
X169302600Y-90019700D01*
X169303600Y-90050700D01*
X169303600Y-90850700D01*
X169302600Y-90881700D01*
X169300600Y-90913700D01*
X169296600Y-90944700D01*
X169290600Y-90975700D01*
X169283600Y-91005700D01*
X169274600Y-91035700D01*
X169263600Y-91065700D01*
X169251600Y-91094700D01*
X169238600Y-91122700D01*
X169223600Y-91150700D01*
X169206600Y-91177700D01*
X169188600Y-91203700D01*
X169169600Y-91228700D01*
X169149600Y-91251700D01*
X169127600Y-91274700D01*
X169104600Y-91296700D01*
X169081600Y-91316700D01*
X169056600Y-91335700D01*
X169030600Y-91353700D01*
X169003600Y-91370700D01*
X168975600Y-91385700D01*
X168947600Y-91398700D01*
X168918600Y-91410700D01*
X168888600Y-91421700D01*
X168858600Y-91430700D01*
X168828600Y-91437700D01*
X168797600Y-91443700D01*
X168766600Y-91447700D01*
X168734600Y-91449700D01*
X168703600Y-91450700D01*
X168672600Y-91449700D01*
X168640600Y-91447700D01*
X168609600Y-91443700D01*
X168578600Y-91437700D01*
X168548600Y-91430700D01*
X168518600Y-91421700D01*
X168488600Y-91410700D01*
X168459600Y-91398700D01*
X168431600Y-91385700D01*
X168403600Y-91370700D01*
X168376600Y-91353700D01*
X168350600Y-91335700D01*
X168325600Y-91316700D01*
X168302600Y-91296700D01*
X168279600Y-91274700D01*
X168257600Y-91251700D01*
X168237600Y-91228700D01*
X168218600Y-91203700D01*
X168200600Y-91177700D01*
X168183600Y-91150700D01*
X168168600Y-91122700D01*
X168155600Y-91094700D01*
X168143600Y-91065700D01*
X168132600Y-91035700D01*
X168123600Y-91005700D01*
X168116600Y-90975700D01*
X168110600Y-90944700D01*
X168106600Y-90913700D01*
X168104600Y-90881700D01*
X168103600Y-90850700D01*
X168103600Y-90050700D01*
X168104600Y-90019700D01*
X168106600Y-89987700D01*
X168110600Y-89956700D01*
X168116600Y-89925700D01*
X168123600Y-89895700D01*
X168132600Y-89865700D01*
X168143600Y-89835700D01*
X168155600Y-89806700D01*
X168168600Y-89778700D01*
X168183600Y-89750700D01*
X168200600Y-89723700D01*
X168218600Y-89697700D01*
X168237600Y-89672700D01*
X168257600Y-89649700D01*
X168279600Y-89626700D01*
X168302600Y-89604700D01*
X168325600Y-89584700D01*
X168350600Y-89565700D01*
X168376600Y-89547700D01*
X168403600Y-89530700D01*
X168431600Y-89515700D01*
X168459600Y-89502700D01*
X168488600Y-89490700D01*
X168518600Y-89479700D01*
X168548600Y-89470700D01*
X168578600Y-89463700D01*
X168609600Y-89457700D01*
X168640600Y-89453700D01*
X168672600Y-89451700D01*
X168703600Y-89450700D01*
X168734600Y-89451700D01*
G37*
X168734600Y-93451700D02*
X168766600Y-93453700D01*
X168797600Y-93457700D01*
X168828600Y-93463700D01*
X168858600Y-93470700D01*
X168888600Y-93479700D01*
X168918600Y-93490700D01*
X168947600Y-93502700D01*
X168975600Y-93515700D01*
X169003600Y-93530700D01*
X169030600Y-93547700D01*
X169056600Y-93565700D01*
X169081600Y-93584700D01*
X169104600Y-93604700D01*
X169127600Y-93626700D01*
X169149600Y-93649700D01*
X169169600Y-93672700D01*
X169188600Y-93697700D01*
X169206600Y-93723700D01*
X169223600Y-93750700D01*
X169238600Y-93778700D01*
X169251600Y-93806700D01*
X169263600Y-93835700D01*
X169274600Y-93865700D01*
X169283600Y-93895700D01*
X169290600Y-93925700D01*
X169296600Y-93956700D01*
X169300600Y-93987700D01*
X169302600Y-94019700D01*
X169303600Y-94050700D01*
X169303600Y-94650700D01*
X169303600Y-95250700D01*
X169302600Y-95281700D01*
X169300600Y-95313700D01*
X169296600Y-95344700D01*
X169290600Y-95375700D01*
X169283600Y-95405700D01*
X169274600Y-95435700D01*
X169263600Y-95465700D01*
X169251600Y-95494700D01*
X169238600Y-95522700D01*
X169223600Y-95550700D01*
X169206600Y-95577700D01*
X169188600Y-95603700D01*
X169169600Y-95628700D01*
X169149600Y-95651700D01*
X169127600Y-95674700D01*
X169104600Y-95696700D01*
X169081600Y-95716700D01*
X169056600Y-95735700D01*
X169030600Y-95753700D01*
X169003600Y-95770700D01*
X168975600Y-95785700D01*
X168947600Y-95798700D01*
X168918600Y-95810700D01*
X168888600Y-95821700D01*
X168858600Y-95830700D01*
X168828600Y-95837700D01*
X168797600Y-95843700D01*
X168766600Y-95847700D01*
X168734600Y-95849700D01*
X168703600Y-95850700D01*
X168672600Y-95849700D01*
X168640600Y-95847700D01*
X168609600Y-95843700D01*
X168578600Y-95837700D01*
X168548600Y-95830700D01*
X168518600Y-95821700D01*
X168488600Y-95810700D01*
X168459600Y-95798700D01*
X168431600Y-95785700D01*
X168403600Y-95770700D01*
X168376600Y-95753700D01*
X168350600Y-95735700D01*
X168325600Y-95716700D01*
X168302600Y-95696700D01*
X168279600Y-95674700D01*
X168257600Y-95651700D01*
X168237600Y-95628700D01*
X168218600Y-95603700D01*
X168200600Y-95577700D01*
X168183600Y-95550700D01*
X168168600Y-95522700D01*
X168155600Y-95494700D01*
X168143600Y-95465700D01*
X168132600Y-95435700D01*
X168123600Y-95405700D01*
X168116600Y-95375700D01*
X168110600Y-95344700D01*
X168106600Y-95313700D01*
X168104600Y-95281700D01*
X168103600Y-95250700D01*
X168103600Y-94650700D01*
X168103600Y-94050700D01*
X168104600Y-94019700D01*
X168106600Y-93987700D01*
X168110600Y-93956700D01*
X168116600Y-93925700D01*
X168123600Y-93895700D01*
X168132600Y-93865700D01*
X168143600Y-93835700D01*
X168155600Y-93806700D01*
X168168600Y-93778700D01*
X168183600Y-93750700D01*
X168200600Y-93723700D01*
X168218600Y-93697700D01*
X168237600Y-93672700D01*
X168257600Y-93649700D01*
X168279600Y-93626700D01*
X168302600Y-93604700D01*
X168325600Y-93584700D01*
X168350600Y-93565700D01*
X168376600Y-93547700D01*
X168403600Y-93530700D01*
X168431600Y-93515700D01*
X168459600Y-93502700D01*
X168488600Y-93490700D01*
X168518600Y-93479700D01*
X168548600Y-93470700D01*
X168578600Y-93463700D01*
X168609600Y-93457700D01*
X168640600Y-93453700D01*
X168672600Y-93451700D01*
X168703600Y-93450700D01*
X168734600Y-93451700D01*
G36*
X168734600Y-93451700D02*
G01*
X168766600Y-93453700D01*
X168797600Y-93457700D01*
X168828600Y-93463700D01*
X168858600Y-93470700D01*
X168888600Y-93479700D01*
X168918600Y-93490700D01*
X168947600Y-93502700D01*
X168975600Y-93515700D01*
X169003600Y-93530700D01*
X169030600Y-93547700D01*
X169056600Y-93565700D01*
X169081600Y-93584700D01*
X169104600Y-93604700D01*
X169127600Y-93626700D01*
X169149600Y-93649700D01*
X169169600Y-93672700D01*
X169188600Y-93697700D01*
X169206600Y-93723700D01*
X169223600Y-93750700D01*
X169238600Y-93778700D01*
X169251600Y-93806700D01*
X169263600Y-93835700D01*
X169274600Y-93865700D01*
X169283600Y-93895700D01*
X169290600Y-93925700D01*
X169296600Y-93956700D01*
X169300600Y-93987700D01*
X169302600Y-94019700D01*
X169303600Y-94050700D01*
X169303600Y-94650700D01*
X169303600Y-95250700D01*
X169302600Y-95281700D01*
X169300600Y-95313700D01*
X169296600Y-95344700D01*
X169290600Y-95375700D01*
X169283600Y-95405700D01*
X169274600Y-95435700D01*
X169263600Y-95465700D01*
X169251600Y-95494700D01*
X169238600Y-95522700D01*
X169223600Y-95550700D01*
X169206600Y-95577700D01*
X169188600Y-95603700D01*
X169169600Y-95628700D01*
X169149600Y-95651700D01*
X169127600Y-95674700D01*
X169104600Y-95696700D01*
X169081600Y-95716700D01*
X169056600Y-95735700D01*
X169030600Y-95753700D01*
X169003600Y-95770700D01*
X168975600Y-95785700D01*
X168947600Y-95798700D01*
X168918600Y-95810700D01*
X168888600Y-95821700D01*
X168858600Y-95830700D01*
X168828600Y-95837700D01*
X168797600Y-95843700D01*
X168766600Y-95847700D01*
X168734600Y-95849700D01*
X168703600Y-95850700D01*
X168672600Y-95849700D01*
X168640600Y-95847700D01*
X168609600Y-95843700D01*
X168578600Y-95837700D01*
X168548600Y-95830700D01*
X168518600Y-95821700D01*
X168488600Y-95810700D01*
X168459600Y-95798700D01*
X168431600Y-95785700D01*
X168403600Y-95770700D01*
X168376600Y-95753700D01*
X168350600Y-95735700D01*
X168325600Y-95716700D01*
X168302600Y-95696700D01*
X168279600Y-95674700D01*
X168257600Y-95651700D01*
X168237600Y-95628700D01*
X168218600Y-95603700D01*
X168200600Y-95577700D01*
X168183600Y-95550700D01*
X168168600Y-95522700D01*
X168155600Y-95494700D01*
X168143600Y-95465700D01*
X168132600Y-95435700D01*
X168123600Y-95405700D01*
X168116600Y-95375700D01*
X168110600Y-95344700D01*
X168106600Y-95313700D01*
X168104600Y-95281700D01*
X168103600Y-95250700D01*
X168103600Y-94650700D01*
X168103600Y-94050700D01*
X168104600Y-94019700D01*
X168106600Y-93987700D01*
X168110600Y-93956700D01*
X168116600Y-93925700D01*
X168123600Y-93895700D01*
X168132600Y-93865700D01*
X168143600Y-93835700D01*
X168155600Y-93806700D01*
X168168600Y-93778700D01*
X168183600Y-93750700D01*
X168200600Y-93723700D01*
X168218600Y-93697700D01*
X168237600Y-93672700D01*
X168257600Y-93649700D01*
X168279600Y-93626700D01*
X168302600Y-93604700D01*
X168325600Y-93584700D01*
X168350600Y-93565700D01*
X168376600Y-93547700D01*
X168403600Y-93530700D01*
X168431600Y-93515700D01*
X168459600Y-93502700D01*
X168488600Y-93490700D01*
X168518600Y-93479700D01*
X168548600Y-93470700D01*
X168578600Y-93463700D01*
X168609600Y-93457700D01*
X168640600Y-93453700D01*
X168672600Y-93451700D01*
X168703600Y-93450700D01*
X168734600Y-93451700D01*
G37*
%TD*%
D13*
%TO.C,C2*%
X125134280Y-88444457D03*
X124331714Y-89247023D03*
%TD*%
D14*
%TO.C,R14*%
X135331749Y-70060966D03*
X135331749Y-68865966D03*
%TD*%
D15*
%TO.C,JP1*%
X150566269Y-82976012D03*
X151485507Y-82056774D03*
%TD*%
D16*
%TO.C,C13*%
X147475000Y-58675000D03*
X145575000Y-58675000D03*
%TD*%
D17*
%TO.C,U4*%
X129570599Y-63370400D03*
X130070599Y-63370400D03*
X130570599Y-63370400D03*
X131070599Y-63370400D03*
X131570599Y-63370400D03*
X131570599Y-58970400D03*
X131070599Y-58970400D03*
X130570599Y-58970400D03*
X130070599Y-58970400D03*
X129570599Y-58970400D03*
%TD*%
D18*
%TO.C,U2*%
X125131600Y-62586400D03*
D19*
X125531600Y-62586400D03*
X125931600Y-62586400D03*
X126331600Y-62586400D03*
D20*
X126731600Y-62586400D03*
D21*
X127381600Y-61936400D03*
D22*
X127381600Y-61536400D03*
X127381600Y-61136400D03*
X127381600Y-60736400D03*
D23*
X127381600Y-60336400D03*
D24*
X126731600Y-59686400D03*
D19*
X126331600Y-59686400D03*
D25*
X125931600Y-59698900D03*
D19*
X125531600Y-59686400D03*
D26*
X125131600Y-59686400D03*
D27*
X124481600Y-60336400D03*
D22*
X124481600Y-60736400D03*
X124481600Y-61136400D03*
X124481600Y-61536400D03*
D28*
X124481600Y-61936400D03*
D29*
X125931600Y-61136400D03*
%TD*%
D14*
%TO.C,R7*%
X133052632Y-70058317D03*
X133052632Y-68863317D03*
%TD*%
D30*
%TO.C,C18*%
X169445000Y-79365000D03*
X171345000Y-79365000D03*
%TD*%
D31*
%TO.C,D3*%
X144042618Y-81685208D03*
X145368444Y-80359382D03*
%TD*%
D30*
%TO.C,C17*%
X164655001Y-79405000D03*
X166555001Y-79405000D03*
%TD*%
D32*
%TO.C,R20*%
X161356561Y-84630176D03*
X162201553Y-85475168D03*
%TD*%
D17*
%TO.C,U3*%
X129479524Y-87726458D03*
X129979524Y-87726458D03*
X130479524Y-87726458D03*
X130979524Y-87726458D03*
X131479524Y-87726458D03*
X131479524Y-83326458D03*
X130979524Y-83326458D03*
X130479524Y-83326458D03*
X129979524Y-83326458D03*
X129479524Y-83326458D03*
%TD*%
D16*
%TO.C,C9*%
X150916079Y-60751361D03*
X149016079Y-60751361D03*
%TD*%
D33*
%TO.C,R25*%
X173781468Y-82714817D03*
X172586468Y-82714817D03*
%TD*%
D34*
%TO.C,R17*%
X143572500Y-64182000D03*
X144767500Y-64182000D03*
%TD*%
D33*
%TO.C,R33*%
X143730100Y-85160104D03*
X144925100Y-85160104D03*
%TD*%
D35*
%TO.C,C6*%
X120616900Y-62664000D03*
X121751900Y-62664000D03*
%TD*%
D36*
%TO.C,L1*%
X150223141Y-62751128D03*
X150223141Y-66451128D03*
%TD*%
D37*
%TO.C,R1*%
X122804801Y-88508832D03*
X120979801Y-88508832D03*
%TD*%
D33*
%TO.C,R22*%
X144932658Y-86282843D03*
X143737658Y-86282843D03*
%TD*%
D38*
%TO.C,J12*%
X122035000Y-75300000D03*
X121035000Y-75300000D03*
X120035000Y-75300000D03*
X119035000Y-75300000D03*
X118035000Y-75300000D03*
D39*
X123335000Y-77825000D03*
X116735000Y-77825000D03*
%TD*%
D14*
%TO.C,R5*%
X131909969Y-70061889D03*
X131909969Y-68866889D03*
%TD*%
D33*
%TO.C,R24*%
X170642456Y-87745727D03*
X169447456Y-87745727D03*
%TD*%
D15*
%TO.C,JP3*%
X146751784Y-78939106D03*
X147671022Y-78019868D03*
%TD*%
D32*
%TO.C,R21*%
X162181073Y-83771645D03*
X163026065Y-84616637D03*
%TD*%
D40*
%TO.C,R19*%
X140401910Y-68155397D03*
X140401910Y-69350397D03*
%TD*%
D41*
%TO.C,J5*%
X134931920Y-91075680D03*
X135932680Y-91075680D03*
X136928360Y-91075680D03*
X137929120Y-91075680D03*
D42*
X139229600Y-94748520D03*
X133631440Y-94748520D03*
%TD*%
D16*
%TO.C,C8*%
X128505000Y-57245000D03*
X126605000Y-57245000D03*
%TD*%
D43*
%TO.C,J7*%
X173084000Y-94138000D03*
X173084000Y-88138000D03*
X176784000Y-94138000D03*
X176784000Y-88138000D03*
%TD*%
D44*
%TO.C,C5*%
X121749900Y-61643600D03*
X120614900Y-61643600D03*
%TD*%
D16*
%TO.C,C11*%
X150906078Y-58691361D03*
X149006078Y-58691361D03*
%TD*%
D14*
%TO.C,R9*%
X130769483Y-70064606D03*
X130769483Y-68869606D03*
%TD*%
D45*
%TO.C,U1*%
X158890000Y-59260000D03*
X158890000Y-60530000D03*
X158890000Y-61800000D03*
X158890000Y-63070000D03*
X158890000Y-64340000D03*
X158890000Y-65610000D03*
X158890000Y-66880000D03*
X158890000Y-68150000D03*
X158890000Y-69420000D03*
X158890000Y-70690000D03*
X158890000Y-71960000D03*
X158890000Y-73230000D03*
X158890000Y-74500000D03*
X158890000Y-75770000D03*
D46*
X160655000Y-77020000D03*
X161925000Y-77020000D03*
X163195000Y-77020000D03*
X164465000Y-77020000D03*
X165735000Y-77020000D03*
X167005000Y-77020000D03*
X168275000Y-77020000D03*
X169545000Y-77020000D03*
X170815000Y-77020000D03*
X172085000Y-77020000D03*
X173355000Y-77020000D03*
X174625000Y-77020000D03*
D45*
X176390000Y-75770000D03*
X176390000Y-74500000D03*
X176390000Y-73230000D03*
X176390000Y-71960000D03*
X176390000Y-70690000D03*
X176390000Y-69420000D03*
X176390000Y-68150000D03*
X176390000Y-66880000D03*
X176390000Y-65610000D03*
X176390000Y-64340000D03*
X176390000Y-63070000D03*
X176390000Y-61800000D03*
X176390000Y-60530000D03*
X176390000Y-59260000D03*
D47*
X164740000Y-65580000D03*
X164740000Y-66980000D03*
X164740000Y-68380000D03*
X166140000Y-65580000D03*
X166140000Y-66980000D03*
X166140000Y-68380000D03*
X167540000Y-65580000D03*
X167540000Y-66980000D03*
X167540000Y-68380000D03*
%TD*%
D31*
%TO.C,D2*%
X145913411Y-83556001D03*
X147239237Y-82230175D03*
%TD*%
D14*
%TO.C,R10*%
X136472512Y-70058831D03*
X136472512Y-68863831D03*
%TD*%
D34*
%TO.C,R23*%
X158335161Y-87723495D03*
X159530161Y-87723495D03*
%TD*%
D40*
%TO.C,R11*%
X138669287Y-74616736D03*
X138669287Y-75811736D03*
%TD*%
%TO.C,R3*%
X140923006Y-74617427D03*
X140923006Y-75812427D03*
%TD*%
D34*
%TO.C,R27*%
X175035536Y-80395264D03*
X176230536Y-80395264D03*
%TD*%
%TO.C,R26*%
X175034864Y-81603353D03*
X176229864Y-81603353D03*
%TD*%
D44*
%TO.C,C1*%
X121565890Y-85977162D03*
X120430890Y-85977162D03*
%TD*%
D48*
%TO.C,C20*%
X159722421Y-85046421D03*
X158502661Y-83826661D03*
%TD*%
D35*
%TO.C,C3*%
X120435690Y-87000768D03*
X121570690Y-87000768D03*
%TD*%
D43*
%TO.C,J6*%
X151024197Y-94152726D03*
X151024197Y-88152726D03*
X154724197Y-94152726D03*
X154724197Y-88152726D03*
%TD*%
D49*
%TO.C,J2*%
X116174213Y-88112054D03*
X116428213Y-85572054D03*
X116174213Y-83032054D03*
%TD*%
D37*
%TO.C,R2*%
X122878683Y-82673249D03*
X121053683Y-82673249D03*
%TD*%
D40*
%TO.C,R13*%
X136395397Y-74608928D03*
X136395397Y-75803928D03*
%TD*%
D50*
%TO.C,U7*%
X145856000Y-67934001D03*
X145856000Y-66984001D03*
X145856000Y-66034001D03*
X143156000Y-66034001D03*
X143156000Y-66984001D03*
X143156000Y-67934001D03*
%TD*%
D41*
%TO.C,J3*%
X142834173Y-90985775D03*
X143834933Y-90985775D03*
X144830613Y-90985775D03*
X145831373Y-90985775D03*
D42*
X147131853Y-94658615D03*
X141533693Y-94658615D03*
%TD*%
D51*
%TO.C,J11*%
X161170000Y-90000000D03*
X161970000Y-90000000D03*
D52*
X163120000Y-90000000D03*
X164120000Y-90000000D03*
X164620000Y-90000000D03*
X165620000Y-90000000D03*
D51*
X167570000Y-90000000D03*
X166770000Y-90000000D03*
D52*
X166120000Y-90000000D03*
X165120000Y-90000000D03*
X163620000Y-90000000D03*
X162620000Y-90000000D03*
%TD*%
D49*
%TO.C,J10*%
X182515000Y-63777800D03*
X182515000Y-60882200D03*
%TD*%
D34*
%TO.C,R29*%
X145240150Y-88987791D03*
X146435150Y-88987791D03*
%TD*%
%TO.C,R31*%
X125072469Y-74246958D03*
X126267469Y-74246958D03*
%TD*%
D38*
%TO.C,J13*%
X122037570Y-69301563D03*
X121037570Y-69301563D03*
X120037570Y-69301563D03*
X119037570Y-69301563D03*
X118037570Y-69301563D03*
D39*
X123337570Y-71826563D03*
X116737570Y-71826563D03*
%TD*%
D40*
%TO.C,R30*%
X156723042Y-60354469D03*
X156723042Y-61549469D03*
%TD*%
D37*
%TO.C,R15*%
X123014799Y-64202415D03*
X121189799Y-64202415D03*
%TD*%
D53*
%TO.C,C10*%
X141935605Y-61085748D03*
X134735605Y-61085748D03*
%TD*%
D15*
%TO.C,JP2*%
X148682816Y-80975349D03*
X149602054Y-80056111D03*
%TD*%
D48*
%TO.C,C19*%
X162791634Y-82231208D03*
X161571874Y-81011448D03*
%TD*%
D40*
%TO.C,R6*%
X139819775Y-74626944D03*
X139819775Y-75821944D03*
%TD*%
D33*
%TO.C,R32*%
X144924463Y-87422886D03*
X143729463Y-87422886D03*
%TD*%
D30*
%TO.C,C16*%
X138820000Y-66616001D03*
X140720000Y-66616001D03*
%TD*%
D31*
%TO.C,D1*%
X149216663Y-84207601D03*
X147890837Y-85533427D03*
%TD*%
D14*
%TO.C,R12*%
X134192940Y-70059409D03*
X134192940Y-68864409D03*
%TD*%
D13*
%TO.C,C7*%
X125290615Y-64145637D03*
X124488049Y-64948203D03*
%TD*%
D37*
%TO.C,R16*%
X122970423Y-58313966D03*
X121145423Y-58313966D03*
%TD*%
D16*
%TO.C,C12*%
X147485000Y-60715000D03*
X145585000Y-60715000D03*
%TD*%
D18*
%TO.C,U5*%
X125039938Y-86944093D03*
D19*
X125439938Y-86944093D03*
X125839938Y-86944093D03*
X126239938Y-86944093D03*
D20*
X126639938Y-86944093D03*
D21*
X127289938Y-86294093D03*
D22*
X127289938Y-85894093D03*
X127289938Y-85494093D03*
X127289938Y-85094093D03*
D23*
X127289938Y-84694093D03*
D24*
X126639938Y-84044093D03*
D19*
X126239938Y-84044093D03*
D25*
X125839938Y-84056593D03*
D19*
X125439938Y-84044093D03*
D26*
X125039938Y-84044093D03*
D27*
X124389938Y-84694093D03*
D22*
X124389938Y-85094093D03*
X124389938Y-85494093D03*
X124389938Y-85894093D03*
D28*
X124389938Y-86294093D03*
D29*
X125839938Y-85494093D03*
%TD*%
D33*
%TO.C,R28*%
X148409250Y-89929808D03*
X147214250Y-89929808D03*
%TD*%
D16*
%TO.C,C4*%
X126625000Y-81815000D03*
X124725000Y-81815000D03*
%TD*%
D54*
%TO.C,J8*%
X150668062Y-53472238D03*
D55*
X145668062Y-53472238D03*
%TD*%
D49*
%TO.C,J1*%
X116257000Y-63754000D03*
X116511000Y-61214000D03*
X116257000Y-58674000D03*
%TD*%
D40*
%TO.C,R8*%
X135252962Y-74610975D03*
X135252962Y-75805975D03*
%TD*%
D16*
%TO.C,C15*%
X145722000Y-69528000D03*
X143822000Y-69528000D03*
%TD*%
D49*
%TO.C,J9*%
X182344000Y-86610000D03*
X182598000Y-84070000D03*
X182344000Y-81530000D03*
X182598000Y-78990000D03*
X182344000Y-76450000D03*
X182598000Y-73910000D03*
X182344000Y-71370000D03*
X182598000Y-68830000D03*
X182344000Y-66290000D03*
%TD*%
D56*
%TO.C,U6*%
X166140001Y-84754000D03*
D57*
X167640001Y-84666500D03*
D56*
X169140001Y-84754000D03*
%TD*%
D58*
%TO.C,C14*%
X146465000Y-62495000D03*
X146465000Y-64395000D03*
%TD*%
D14*
%TO.C,R18*%
X139324867Y-69361496D03*
X139324867Y-68166496D03*
%TD*%
D40*
%TO.C,R4*%
X137516133Y-74612031D03*
X137516133Y-75807031D03*
%TD*%
M02*
