%TF.GenerationSoftware,KiCad,Pcbnew,7.0.9*%
%TF.CreationDate,2023-12-08T19:14:30-07:00*%
%TF.ProjectId,mini_motor_go_V1_rev3,6d696e69-5f6d-46f7-946f-725f676f5f56,rev?*%
%TF.SameCoordinates,Original*%
%TF.FileFunction,Copper,L2,Inr*%
%TF.FilePolarity,Positive*%
%FSLAX46Y46*%
G04 Gerber Fmt 4.6, Leading zero omitted, Abs format (unit mm)*
G04 Created by KiCad (PCBNEW 7.0.9) date 2023-12-08 19:14:30*
%MOMM*%
%LPD*%
G01*
G04 APERTURE LIST*
%TA.AperFunction,ComponentPad*%
%ADD10C,0.600000*%
%TD*%
%TA.AperFunction,ComponentPad*%
%ADD11C,1.879600*%
%TD*%
%TA.AperFunction,ComponentPad*%
%ADD12O,0.800000X1.600000*%
%TD*%
%TA.AperFunction,ComponentPad*%
%ADD13R,1.980000X3.960000*%
%TD*%
%TA.AperFunction,ComponentPad*%
%ADD14O,1.980000X3.960000*%
%TD*%
%TA.AperFunction,ViaPad*%
%ADD15C,0.600000*%
%TD*%
%TA.AperFunction,ViaPad*%
%ADD16C,0.800000*%
%TD*%
G04 APERTURE END LIST*
D10*
%TO.N,GND*%
%TO.C,U2*%
X125481600Y-61536400D03*
X126381600Y-61536400D03*
X125481600Y-60736400D03*
X126381600Y-60736400D03*
%TD*%
D11*
%TO.N,Net-(U3-in+1)*%
%TO.C,J2*%
X116174213Y-88112054D03*
%TO.N,Net-(U5-V)*%
X116428213Y-85572054D03*
%TO.N,Net-(U3-in+2)*%
X116174213Y-83032054D03*
%TD*%
D12*
%TO.N,unconnected-(J11-SHELL_GND-PadS1)*%
%TO.C,J11*%
X160053600Y-94650700D03*
%TO.N,unconnected-(J11-SHELL_GND-PadS2)*%
X168703600Y-90450700D03*
%TO.N,unconnected-(J11-SHELL_GND-PadS3)*%
X160053600Y-90450700D03*
%TO.N,unconnected-(J11-SHELL_GND-PadS4)*%
X168703600Y-94650700D03*
%TD*%
D11*
%TO.N,Net-(J10-Pin_1)*%
%TO.C,J10*%
X182515000Y-63777800D03*
%TO.N,Net-(J10-Pin_2)*%
X182515000Y-60882200D03*
%TD*%
D10*
%TO.N,GND*%
%TO.C,U5*%
X125389938Y-85894093D03*
X126289938Y-85894093D03*
X125389938Y-85094093D03*
X126289938Y-85094093D03*
%TD*%
D11*
%TO.N,Net-(U4-in+1)*%
%TO.C,J1*%
X116257000Y-63754000D03*
%TO.N,Net-(U2-V)*%
X116511000Y-61214000D03*
%TO.N,Net-(U4-in+2)*%
X116257000Y-58674000D03*
%TD*%
%TO.N,+3.3V*%
%TO.C,J9*%
X182344000Y-86610000D03*
%TO.N,+5V*%
X182598000Y-84070000D03*
%TO.N,GND*%
X182344000Y-81530000D03*
%TO.N,gpio47*%
X182598000Y-78990000D03*
%TO.N,gpio38*%
X182344000Y-76450000D03*
%TO.N,Net-(J9-Pin_6)*%
X182598000Y-73910000D03*
%TO.N,Net-(J9-Pin_7)*%
X182344000Y-71370000D03*
%TO.N,Net-(J9-Pin_8)*%
X182598000Y-68830000D03*
%TO.N,Net-(J9-Pin_9)*%
X182344000Y-66290000D03*
%TD*%
D13*
%TO.N,+BATT*%
%TO.C,J8*%
X150668062Y-53472238D03*
D14*
%TO.N,GND*%
X145668062Y-53472238D03*
%TD*%
D15*
%TO.N,+BATT*%
X122642802Y-86943201D03*
D16*
X125624500Y-65250000D03*
X139050000Y-60930000D03*
D15*
X123535134Y-89300134D03*
X122732800Y-62585600D03*
X122732800Y-61772800D03*
X122642802Y-86130401D03*
%TO.N,GND*%
X161544000Y-81026000D03*
X158328060Y-81671940D03*
X166274001Y-83563600D03*
D16*
X164740000Y-66980000D03*
D15*
X118782002Y-86689201D03*
X154686000Y-94234000D03*
D16*
X164740000Y-68380000D03*
D15*
X161590842Y-82809158D03*
X124401600Y-62188400D03*
D16*
X116735000Y-74676000D03*
D15*
X157628060Y-80971940D03*
X159044166Y-82433634D03*
D16*
X166140000Y-65580000D03*
D15*
X159590842Y-80809158D03*
D16*
X123337570Y-73660000D03*
D15*
X171450000Y-87884000D03*
D16*
X135689493Y-89801810D03*
D15*
X159778060Y-83121940D03*
D16*
X166140000Y-68380000D03*
D15*
X177800000Y-87600000D03*
X157480000Y-87884000D03*
X131000000Y-71500000D03*
D16*
X137520000Y-60904365D03*
D15*
X132956940Y-63543060D03*
X157825500Y-78750000D03*
X124351602Y-84426001D03*
D16*
X164735137Y-65597355D03*
D15*
X156878060Y-80221940D03*
D16*
X137900000Y-70975500D03*
X166140000Y-66980000D03*
D15*
X143500000Y-84300000D03*
X160419981Y-83809449D03*
D16*
X167540000Y-66980000D03*
D15*
X156342637Y-79578908D03*
D16*
X167540000Y-68380000D03*
X174800000Y-59200000D03*
D15*
X141524000Y-89900000D03*
X119727546Y-62136006D03*
D16*
X138000000Y-73750000D03*
D15*
X158496000Y-83820000D03*
X124311602Y-86546001D03*
X124441600Y-60068400D03*
X125625500Y-82290000D03*
X160890842Y-82109158D03*
X118872000Y-62331600D03*
X161036000Y-88392000D03*
X144559980Y-67875500D03*
D16*
X167540000Y-65580000D03*
D15*
X158283364Y-79501678D03*
X167640000Y-88392000D03*
X160200000Y-59700000D03*
D16*
X172530000Y-79340000D03*
D15*
X131114800Y-89013600D03*
X119637548Y-86493607D03*
X156322500Y-78680558D03*
X125490000Y-57470000D03*
D16*
X137900000Y-68500000D03*
D15*
X158940842Y-80159158D03*
X160190842Y-81409158D03*
X154686000Y-89300000D03*
D16*
%TO.N,+3.3V*%
X148185362Y-87725395D03*
X148844000Y-90932000D03*
D15*
X156000000Y-60300000D03*
X125476000Y-79006000D03*
X148500000Y-77100000D03*
D16*
X119380000Y-76708000D03*
D15*
X175000000Y-82600000D03*
X125072469Y-73406000D03*
X128778000Y-58420000D03*
X128590000Y-81710000D03*
X126746000Y-73406000D03*
D16*
X170830000Y-80730000D03*
D15*
X124129800Y-67538600D03*
%TO.N,Net-(U3-in-1)*%
X125000000Y-90673500D03*
X129427830Y-88977500D03*
%TO.N,Net-(U3-in+1)*%
X130327526Y-89152900D03*
X125600000Y-91350000D03*
%TO.N,Net-(U3-ref_1)*%
X131775200Y-88073800D03*
X132100000Y-82950000D03*
X125943348Y-83248850D03*
%TO.N,/motor_controls/standby*%
X127421731Y-79763000D03*
X126492000Y-67640200D03*
X127104261Y-59503500D03*
X127740000Y-82470000D03*
%TO.N,+5V*%
X160528000Y-87630000D03*
X169926000Y-86614000D03*
X157480000Y-84455000D03*
X139599292Y-65785500D03*
X156210000Y-87884000D03*
X164338000Y-84582000D03*
X168500000Y-85900000D03*
X152654000Y-87884000D03*
D16*
X150070000Y-59790000D03*
D15*
X168402000Y-87630000D03*
X155448000Y-84836000D03*
%TO.N,Net-(U7-VFB)*%
X141400000Y-67900000D03*
D16*
%TO.N,m1_enc_cs*%
X122851991Y-69148009D03*
D15*
X175006000Y-71882000D03*
D16*
%TO.N,m2_enc_cs*%
X121920000Y-73660000D03*
D15*
X173228000Y-75692000D03*
%TO.N,m2_uh*%
X158600000Y-78300000D03*
X146106940Y-77706940D03*
%TO.N,m2_ul*%
X140250000Y-78750000D03*
X168148000Y-75692000D03*
%TO.N,m2_vh*%
X144531940Y-78281940D03*
X160600000Y-78621500D03*
%TO.N,m2_vl*%
X136900000Y-79300000D03*
X170688000Y-75692000D03*
%TO.N,m2_wh*%
X165608000Y-75692000D03*
X142113440Y-79513440D03*
%TO.N,m2_wl*%
X138500000Y-79000000D03*
X169418000Y-75692000D03*
%TO.N,m1_uh*%
X131150000Y-67150000D03*
X127000000Y-65500000D03*
X154391439Y-67300500D03*
%TO.N,m1_ul*%
X157200000Y-66700000D03*
X132789823Y-65500000D03*
X127939800Y-62941200D03*
%TO.N,m1_vh*%
X133700000Y-66700000D03*
X128400000Y-65618700D03*
X153900000Y-66585969D03*
%TO.N,m1_vl*%
X157000000Y-64075500D03*
X137700000Y-63400000D03*
X127939800Y-59503500D03*
%TO.N,m1_wh*%
X135600000Y-66075500D03*
X129446099Y-64700000D03*
X154693060Y-66006940D03*
%TO.N,m1_wl*%
X136100000Y-64100000D03*
X156200000Y-64600000D03*
X131600000Y-61100000D03*
%TO.N,Net-(J11-DP1)*%
X164800000Y-87517500D03*
X164126101Y-88722573D03*
%TO.N,Net-(U1-EN)*%
X160100000Y-62300000D03*
X153400000Y-67900000D03*
%TO.N,m2_current_sense_u*%
X133200000Y-82750000D03*
D16*
X156464000Y-71460500D03*
D15*
%TO.N,m2_current_sense_w*%
X139400000Y-82100000D03*
X166878000Y-75692000D03*
D16*
%TO.N,Net-(J10-Pin_1)*%
X174940000Y-63420000D03*
D15*
%TO.N,m1_current_sense_w*%
X129908326Y-57568045D03*
X157734000Y-63246000D03*
%TO.N,m1_current_sense_u*%
X129421099Y-63280167D03*
X157325503Y-65828100D03*
%TO.N,enc_scl*%
X175006000Y-73152000D03*
D16*
X120904000Y-70612000D03*
%TO.N,enc_sda*%
X120037570Y-72644000D03*
D15*
X175006000Y-74422000D03*
D16*
%TO.N,sda*%
X141732000Y-92456000D03*
D15*
X175125750Y-61574250D03*
D16*
X146812000Y-88392000D03*
D15*
X173482000Y-59930500D03*
D16*
%TO.N,scl*%
X146812000Y-91440000D03*
X144780000Y-93472000D03*
D15*
%TO.N,gpio38*%
X177770000Y-81480000D03*
X150900000Y-80010000D03*
D16*
%TO.N,gpio47*%
X154144667Y-70779500D03*
D15*
X152000000Y-81000000D03*
X155299500Y-82000000D03*
X171958000Y-75692000D03*
%TD*%
%TA.AperFunction,Conductor*%
%TO.N,GND*%
G36*
X144239454Y-51769685D02*
G01*
X144285209Y-51822489D01*
X144295153Y-51891647D01*
X144285971Y-51923811D01*
X144253963Y-51996780D01*
X144193346Y-52236147D01*
X144178062Y-52420607D01*
X144178062Y-53222238D01*
X145053894Y-53222238D01*
X145046419Y-53236480D01*
X145008062Y-53392100D01*
X145008062Y-53552376D01*
X145046419Y-53707996D01*
X145053894Y-53722238D01*
X144178062Y-53722238D01*
X144178062Y-54523869D01*
X144193346Y-54708328D01*
X144253963Y-54947698D01*
X144353154Y-55173829D01*
X144488210Y-55380549D01*
X144655456Y-55562226D01*
X144655460Y-55562229D01*
X144850307Y-55713885D01*
X144850313Y-55713889D01*
X145067483Y-55831416D01*
X145067491Y-55831419D01*
X145301032Y-55911594D01*
X145418061Y-55931123D01*
X145418062Y-55931122D01*
X145418062Y-54083295D01*
X145508954Y-54117766D01*
X145628143Y-54132238D01*
X145707981Y-54132238D01*
X145827170Y-54117766D01*
X145918062Y-54083295D01*
X145918062Y-55931123D01*
X146035091Y-55911594D01*
X146268632Y-55831419D01*
X146268640Y-55831416D01*
X146485810Y-55713889D01*
X146485816Y-55713885D01*
X146680663Y-55562229D01*
X146680667Y-55562226D01*
X146847913Y-55380549D01*
X146982969Y-55173829D01*
X147082160Y-54947698D01*
X147142777Y-54708328D01*
X147158062Y-54523869D01*
X147158062Y-53722238D01*
X146282230Y-53722238D01*
X146289705Y-53707996D01*
X146328062Y-53552376D01*
X146328062Y-53392100D01*
X146289705Y-53236480D01*
X146282230Y-53222238D01*
X147158062Y-53222238D01*
X147158062Y-52420607D01*
X147142777Y-52236147D01*
X147082160Y-51996780D01*
X147050153Y-51923811D01*
X147041250Y-51854511D01*
X147071227Y-51791398D01*
X147130566Y-51754511D01*
X147163709Y-51750000D01*
X149353562Y-51750000D01*
X149420601Y-51769685D01*
X149466356Y-51822489D01*
X149477562Y-51874000D01*
X149477562Y-55471990D01*
X149489193Y-55530467D01*
X149489194Y-55530468D01*
X149533509Y-55596790D01*
X149599831Y-55641105D01*
X149599832Y-55641106D01*
X149658309Y-55652737D01*
X149658312Y-55652738D01*
X149658314Y-55652738D01*
X151677812Y-55652738D01*
X151677813Y-55652737D01*
X151692630Y-55649790D01*
X151736291Y-55641106D01*
X151736291Y-55641105D01*
X151736293Y-55641105D01*
X151802614Y-55596790D01*
X151846929Y-55530469D01*
X151846929Y-55530467D01*
X151846930Y-55530467D01*
X151858561Y-55471990D01*
X151858562Y-55471988D01*
X151858562Y-53331260D01*
X151878247Y-53264221D01*
X151931051Y-53218466D01*
X152000209Y-53208522D01*
X152063765Y-53237547D01*
X152068008Y-53241399D01*
X154854482Y-55891734D01*
X155651697Y-56649999D01*
X156482706Y-57440407D01*
X156482707Y-57440408D01*
X157158576Y-57710501D01*
X157345000Y-57785000D01*
X176665000Y-57785000D01*
X177665000Y-57785000D01*
X182698645Y-57785000D01*
X182765684Y-57804685D01*
X182786317Y-57821309D01*
X183213792Y-58248691D01*
X183247283Y-58310011D01*
X183250120Y-58336355D01*
X183250432Y-59773723D01*
X183230762Y-59840767D01*
X183177968Y-59886533D01*
X183108812Y-59896492D01*
X183061154Y-59879177D01*
X183025454Y-59857072D01*
X183025452Y-59857071D01*
X182852321Y-59790001D01*
X182828395Y-59780732D01*
X182620664Y-59741900D01*
X182409336Y-59741900D01*
X182201605Y-59780732D01*
X182201602Y-59780732D01*
X182201602Y-59780733D01*
X182004547Y-59857071D01*
X182004546Y-59857072D01*
X181824870Y-59968324D01*
X181668699Y-60110691D01*
X181541344Y-60279337D01*
X181447147Y-60468509D01*
X181447144Y-60468515D01*
X181389314Y-60671770D01*
X181389313Y-60671773D01*
X181369815Y-60882199D01*
X181369815Y-60882200D01*
X181389313Y-61092626D01*
X181389314Y-61092629D01*
X181447144Y-61295884D01*
X181447147Y-61295890D01*
X181541344Y-61485062D01*
X181668699Y-61653708D01*
X181799338Y-61772800D01*
X181824872Y-61796077D01*
X182004547Y-61907328D01*
X182201605Y-61983668D01*
X182409336Y-62022500D01*
X182409338Y-62022500D01*
X182620662Y-62022500D01*
X182620664Y-62022500D01*
X182828395Y-61983668D01*
X183025453Y-61907328D01*
X183060372Y-61885707D01*
X183061635Y-61884925D01*
X183128996Y-61866368D01*
X183195695Y-61887176D01*
X183240557Y-61940740D01*
X183250914Y-61990324D01*
X183251062Y-62669713D01*
X183231392Y-62736757D01*
X183178598Y-62782523D01*
X183109442Y-62792482D01*
X183061785Y-62775167D01*
X183025459Y-62752675D01*
X183025452Y-62752671D01*
X182843395Y-62682143D01*
X182828395Y-62676332D01*
X182620664Y-62637500D01*
X182409336Y-62637500D01*
X182201605Y-62676332D01*
X182201602Y-62676332D01*
X182201602Y-62676333D01*
X182004547Y-62752671D01*
X182004546Y-62752672D01*
X181824870Y-62863924D01*
X181668699Y-63006291D01*
X181541344Y-63174937D01*
X181447147Y-63364109D01*
X181447144Y-63364115D01*
X181389314Y-63567370D01*
X181389313Y-63567373D01*
X181369815Y-63777799D01*
X181369815Y-63777800D01*
X181389313Y-63988226D01*
X181389314Y-63988229D01*
X181447144Y-64191484D01*
X181447147Y-64191490D01*
X181541344Y-64380662D01*
X181668699Y-64549308D01*
X181785698Y-64655965D01*
X181824872Y-64691677D01*
X182004547Y-64802928D01*
X182201605Y-64879268D01*
X182332901Y-64903811D01*
X182395181Y-64935479D01*
X182430454Y-64995792D01*
X182427520Y-65065600D01*
X182387311Y-65122740D01*
X182322593Y-65149071D01*
X182310115Y-65149700D01*
X182238336Y-65149700D01*
X182030605Y-65188532D01*
X182030602Y-65188532D01*
X182030602Y-65188533D01*
X181833547Y-65264871D01*
X181833546Y-65264872D01*
X181653870Y-65376124D01*
X181497699Y-65518491D01*
X181370344Y-65687137D01*
X181276147Y-65876309D01*
X181276144Y-65876315D01*
X181218314Y-66079570D01*
X181218313Y-66079573D01*
X181198815Y-66289999D01*
X181198815Y-66290000D01*
X181218313Y-66500426D01*
X181218314Y-66500429D01*
X181276144Y-66703684D01*
X181276147Y-66703690D01*
X181370344Y-66892862D01*
X181497699Y-67061508D01*
X181609886Y-67163779D01*
X181653872Y-67203877D01*
X181833547Y-67315128D01*
X182030605Y-67391468D01*
X182238336Y-67430300D01*
X182238338Y-67430300D01*
X182449662Y-67430300D01*
X182449664Y-67430300D01*
X182657395Y-67391468D01*
X182854453Y-67315128D01*
X183034128Y-67203877D01*
X183044524Y-67194399D01*
X183107325Y-67163779D01*
X183176713Y-67171973D01*
X183230655Y-67216380D01*
X183252026Y-67282900D01*
X183252066Y-67286005D01*
X183252152Y-67679496D01*
X183232482Y-67746540D01*
X183179688Y-67792306D01*
X183110532Y-67802265D01*
X183083359Y-67795150D01*
X182911399Y-67728533D01*
X182911396Y-67728532D01*
X182911395Y-67728532D01*
X182703664Y-67689700D01*
X182492336Y-67689700D01*
X182284605Y-67728532D01*
X182284602Y-67728532D01*
X182284602Y-67728533D01*
X182087547Y-67804871D01*
X182087546Y-67804872D01*
X181907870Y-67916124D01*
X181751699Y-68058491D01*
X181624344Y-68227137D01*
X181530147Y-68416309D01*
X181530144Y-68416315D01*
X181472314Y-68619570D01*
X181472313Y-68619573D01*
X181452815Y-68829999D01*
X181452815Y-68830000D01*
X181472313Y-69040426D01*
X181472314Y-69040429D01*
X181530144Y-69243684D01*
X181530147Y-69243690D01*
X181624344Y-69432862D01*
X181751699Y-69601508D01*
X181829624Y-69672545D01*
X181907872Y-69743877D01*
X182087547Y-69855128D01*
X182284605Y-69931468D01*
X182492336Y-69970300D01*
X182492338Y-69970300D01*
X182703662Y-69970300D01*
X182703664Y-69970300D01*
X182911395Y-69931468D01*
X183083858Y-69864655D01*
X183153481Y-69858793D01*
X183215221Y-69891503D01*
X183249476Y-69952399D01*
X183252652Y-69980255D01*
X183252738Y-70374552D01*
X183233068Y-70441596D01*
X183180274Y-70487362D01*
X183111118Y-70497321D01*
X183047556Y-70468310D01*
X183045200Y-70466216D01*
X183034129Y-70456124D01*
X183034128Y-70456123D01*
X182854453Y-70344872D01*
X182854452Y-70344871D01*
X182710365Y-70289052D01*
X182657395Y-70268532D01*
X182449664Y-70229700D01*
X182238336Y-70229700D01*
X182030605Y-70268532D01*
X182030602Y-70268532D01*
X182030602Y-70268533D01*
X181833547Y-70344871D01*
X181833546Y-70344872D01*
X181653870Y-70456124D01*
X181497699Y-70598491D01*
X181370344Y-70767137D01*
X181276147Y-70956309D01*
X181276144Y-70956315D01*
X181218314Y-71159570D01*
X181218313Y-71159573D01*
X181198815Y-71369999D01*
X181198815Y-71370000D01*
X181218313Y-71580426D01*
X181218314Y-71580429D01*
X181276144Y-71783684D01*
X181276147Y-71783690D01*
X181370344Y-71972862D01*
X181497699Y-72141508D01*
X181608782Y-72242772D01*
X181653872Y-72283877D01*
X181833547Y-72395128D01*
X182030605Y-72471468D01*
X182238336Y-72510300D01*
X182238338Y-72510300D01*
X182449662Y-72510300D01*
X182449664Y-72510300D01*
X182657395Y-72471468D01*
X182854453Y-72395128D01*
X183034128Y-72283877D01*
X183045632Y-72273389D01*
X183108432Y-72242772D01*
X183177819Y-72250967D01*
X183231761Y-72295374D01*
X183253132Y-72361895D01*
X183253171Y-72364998D01*
X183253257Y-72759924D01*
X183233587Y-72826968D01*
X183180793Y-72872734D01*
X183111637Y-72882693D01*
X183084464Y-72875578D01*
X182911399Y-72808533D01*
X182911396Y-72808532D01*
X182911395Y-72808532D01*
X182703664Y-72769700D01*
X182492336Y-72769700D01*
X182284605Y-72808532D01*
X182284602Y-72808532D01*
X182284602Y-72808533D01*
X182087547Y-72884871D01*
X182087546Y-72884872D01*
X181907870Y-72996124D01*
X181751699Y-73138491D01*
X181624344Y-73307137D01*
X181530147Y-73496309D01*
X181530144Y-73496315D01*
X181472314Y-73699570D01*
X181472313Y-73699573D01*
X181452815Y-73909999D01*
X181452815Y-73910000D01*
X181472313Y-74120426D01*
X181472314Y-74120429D01*
X181530144Y-74323684D01*
X181530147Y-74323690D01*
X181624344Y-74512862D01*
X181751699Y-74681508D01*
X181886050Y-74803983D01*
X181907872Y-74823877D01*
X182087547Y-74935128D01*
X182284605Y-75011468D01*
X182492336Y-75050300D01*
X182492338Y-75050300D01*
X182703662Y-75050300D01*
X182703664Y-75050300D01*
X182911395Y-75011468D01*
X183084963Y-74944228D01*
X183154586Y-74938365D01*
X183216326Y-74971075D01*
X183250581Y-75031971D01*
X183253757Y-75059827D01*
X183253844Y-75455560D01*
X183234174Y-75522604D01*
X183181380Y-75568370D01*
X183112224Y-75578329D01*
X183048662Y-75549318D01*
X183046307Y-75547225D01*
X183034129Y-75536124D01*
X183034128Y-75536123D01*
X182854453Y-75424872D01*
X182854452Y-75424871D01*
X182710365Y-75369052D01*
X182657395Y-75348532D01*
X182449664Y-75309700D01*
X182238336Y-75309700D01*
X182030605Y-75348532D01*
X182030602Y-75348532D01*
X182030602Y-75348533D01*
X181833547Y-75424871D01*
X181833546Y-75424872D01*
X181653870Y-75536124D01*
X181497699Y-75678491D01*
X181370344Y-75847137D01*
X181276147Y-76036309D01*
X181276144Y-76036315D01*
X181218314Y-76239570D01*
X181218313Y-76239573D01*
X181198815Y-76449999D01*
X181198815Y-76450000D01*
X181218313Y-76660426D01*
X181218314Y-76660429D01*
X181276144Y-76863684D01*
X181276147Y-76863690D01*
X181370344Y-77052862D01*
X181497699Y-77221508D01*
X181607677Y-77321765D01*
X181653872Y-77363877D01*
X181833547Y-77475128D01*
X182030605Y-77551468D01*
X182238336Y-77590300D01*
X182238338Y-77590300D01*
X182449662Y-77590300D01*
X182449664Y-77590300D01*
X182657395Y-77551468D01*
X182854453Y-77475128D01*
X183034128Y-77363877D01*
X183046735Y-77352383D01*
X183109538Y-77321765D01*
X183178925Y-77329961D01*
X183232866Y-77374370D01*
X183254236Y-77440892D01*
X183254275Y-77443992D01*
X183254362Y-77840352D01*
X183234692Y-77907396D01*
X183181898Y-77953162D01*
X183112742Y-77963121D01*
X183085569Y-77956006D01*
X182911399Y-77888533D01*
X182911396Y-77888532D01*
X182911395Y-77888532D01*
X182703664Y-77849700D01*
X182492336Y-77849700D01*
X182284605Y-77888532D01*
X182284602Y-77888532D01*
X182284602Y-77888533D01*
X182087547Y-77964871D01*
X182087546Y-77964872D01*
X181907870Y-78076124D01*
X181751699Y-78218491D01*
X181624344Y-78387137D01*
X181530147Y-78576309D01*
X181530144Y-78576315D01*
X181472314Y-78779570D01*
X181472313Y-78779573D01*
X181452815Y-78989999D01*
X181452815Y-78990000D01*
X181472313Y-79200426D01*
X181472314Y-79200429D01*
X181530144Y-79403684D01*
X181530147Y-79403690D01*
X181624344Y-79592862D01*
X181751699Y-79761508D01*
X181907871Y-79903876D01*
X181907873Y-79903878D01*
X181948852Y-79929251D01*
X181995488Y-79981279D01*
X182006592Y-80050260D01*
X181978639Y-80114295D01*
X181923838Y-80151959D01*
X181763661Y-80206948D01*
X181763650Y-80206953D01*
X181553807Y-80320514D01*
X181553802Y-80320517D01*
X181516840Y-80349286D01*
X181516840Y-80349287D01*
X182204400Y-81036847D01*
X182199408Y-81037565D01*
X182066530Y-81098248D01*
X181956131Y-81193910D01*
X181877155Y-81316799D01*
X181854478Y-81394030D01*
X181164057Y-80703609D01*
X181073392Y-80842382D01*
X180977545Y-81060895D01*
X180918969Y-81292203D01*
X180918967Y-81292211D01*
X180899265Y-81529993D01*
X180899265Y-81530006D01*
X180918967Y-81767788D01*
X180918969Y-81767796D01*
X180977545Y-81999104D01*
X181073391Y-82217614D01*
X181164057Y-82356389D01*
X181854477Y-81665969D01*
X181877155Y-81743201D01*
X181956131Y-81866090D01*
X182066530Y-81961752D01*
X182199408Y-82022435D01*
X182204398Y-82023152D01*
X181516839Y-82710711D01*
X181516840Y-82710712D01*
X181553802Y-82739481D01*
X181553808Y-82739486D01*
X181763650Y-82853046D01*
X181763660Y-82853051D01*
X181923838Y-82908040D01*
X181980853Y-82948425D01*
X182006984Y-83013225D01*
X181993933Y-83081865D01*
X181948854Y-83130747D01*
X181907872Y-83156122D01*
X181907871Y-83156123D01*
X181751699Y-83298491D01*
X181624344Y-83467137D01*
X181530147Y-83656309D01*
X181530144Y-83656315D01*
X181472314Y-83859570D01*
X181472313Y-83859573D01*
X181452815Y-84069999D01*
X181452815Y-84070000D01*
X181472313Y-84280426D01*
X181472314Y-84280429D01*
X181530144Y-84483684D01*
X181530147Y-84483690D01*
X181624344Y-84672862D01*
X181751699Y-84841508D01*
X181864231Y-84944093D01*
X181907872Y-84983877D01*
X182087547Y-85095128D01*
X182284605Y-85171468D01*
X182492336Y-85210300D01*
X182492338Y-85210300D01*
X182703662Y-85210300D01*
X182703664Y-85210300D01*
X182911395Y-85171468D01*
X183087175Y-85103370D01*
X183156797Y-85097509D01*
X183218538Y-85130219D01*
X183252793Y-85191115D01*
X183255968Y-85218971D01*
X183256055Y-85617576D01*
X183236385Y-85684620D01*
X183183591Y-85730386D01*
X183114435Y-85740345D01*
X183050873Y-85711334D01*
X183048517Y-85709240D01*
X183034129Y-85696124D01*
X183034128Y-85696123D01*
X182854453Y-85584872D01*
X182854452Y-85584871D01*
X182710365Y-85529052D01*
X182657395Y-85508532D01*
X182449664Y-85469700D01*
X182238336Y-85469700D01*
X182030605Y-85508532D01*
X182030602Y-85508532D01*
X182030602Y-85508533D01*
X181833547Y-85584871D01*
X181833546Y-85584872D01*
X181653870Y-85696124D01*
X181497699Y-85838491D01*
X181370344Y-86007137D01*
X181276147Y-86196309D01*
X181276144Y-86196315D01*
X181218314Y-86399570D01*
X181218313Y-86399573D01*
X181198815Y-86609999D01*
X181198815Y-86610000D01*
X181218313Y-86820426D01*
X181218314Y-86820429D01*
X181276144Y-87023684D01*
X181276147Y-87023690D01*
X181370344Y-87212862D01*
X181497699Y-87381508D01*
X181605466Y-87479749D01*
X181653872Y-87523877D01*
X181833547Y-87635128D01*
X182030605Y-87711468D01*
X182238336Y-87750300D01*
X182238338Y-87750300D01*
X182449662Y-87750300D01*
X182449664Y-87750300D01*
X182657395Y-87711468D01*
X182854453Y-87635128D01*
X183034128Y-87523877D01*
X183048949Y-87510365D01*
X183111752Y-87479749D01*
X183181139Y-87487946D01*
X183235080Y-87532356D01*
X183256448Y-87598878D01*
X183256487Y-87601976D01*
X183256860Y-89314895D01*
X183237190Y-89381939D01*
X183227903Y-89394564D01*
X183205947Y-89420766D01*
X182793637Y-89912804D01*
X182735494Y-89951544D01*
X182720266Y-89955253D01*
X180312307Y-90382623D01*
X180312306Y-90382623D01*
X180312305Y-90382624D01*
X180013248Y-90736776D01*
X179816319Y-90969986D01*
X179784054Y-95352361D01*
X179763876Y-95419254D01*
X179747371Y-95439494D01*
X179316302Y-95866979D01*
X179254840Y-95900208D01*
X179228866Y-95902933D01*
X172028205Y-95895828D01*
X171961185Y-95876077D01*
X171940452Y-95859315D01*
X171514777Y-95431750D01*
X171481428Y-95370353D01*
X171478653Y-95343836D01*
X171498278Y-89645997D01*
X171000000Y-89146000D01*
X164675898Y-89146000D01*
X164608859Y-89126315D01*
X164563104Y-89073511D01*
X164553160Y-89004353D01*
X164563104Y-88970488D01*
X164587079Y-88917991D01*
X164611266Y-88865030D01*
X164631748Y-88722573D01*
X164611266Y-88580116D01*
X164551478Y-88449200D01*
X164457229Y-88340430D01*
X164336154Y-88262620D01*
X164336152Y-88262619D01*
X164336150Y-88262618D01*
X164336151Y-88262618D01*
X164198064Y-88222073D01*
X164198062Y-88222073D01*
X164054140Y-88222073D01*
X164054137Y-88222073D01*
X163916050Y-88262618D01*
X163794974Y-88340429D01*
X163794973Y-88340429D01*
X163794973Y-88340430D01*
X163789132Y-88347171D01*
X163700724Y-88449199D01*
X163700723Y-88449201D01*
X163640935Y-88580116D01*
X163620454Y-88722573D01*
X163640935Y-88865029D01*
X163689098Y-88970488D01*
X163699042Y-89039646D01*
X163670017Y-89103202D01*
X163611240Y-89140977D01*
X163576304Y-89146000D01*
X157979999Y-89146000D01*
X157480000Y-89645999D01*
X157480000Y-95452638D01*
X157460315Y-95519677D01*
X157443681Y-95540319D01*
X157135319Y-95848681D01*
X157073996Y-95882166D01*
X157047638Y-95885000D01*
X136580500Y-95885000D01*
X135580770Y-95868584D01*
X121924802Y-95419990D01*
X121858445Y-95398115D01*
X121846047Y-95388338D01*
X121796465Y-95343836D01*
X121343411Y-94937202D01*
X121306670Y-94877776D01*
X121303467Y-94862329D01*
X121106513Y-93472001D01*
X144174318Y-93472001D01*
X144194955Y-93628760D01*
X144194956Y-93628762D01*
X144247511Y-93755642D01*
X144255464Y-93774841D01*
X144351718Y-93900282D01*
X144477159Y-93996536D01*
X144623238Y-94057044D01*
X144701619Y-94067363D01*
X144779999Y-94077682D01*
X144780000Y-94077682D01*
X144780001Y-94077682D01*
X144832254Y-94070802D01*
X144936762Y-94057044D01*
X145082841Y-93996536D01*
X145208282Y-93900282D01*
X145304536Y-93774841D01*
X145365044Y-93628762D01*
X145385682Y-93472000D01*
X145365044Y-93315238D01*
X145304536Y-93169159D01*
X145208282Y-93043718D01*
X145082841Y-92947464D01*
X144936762Y-92886956D01*
X144936760Y-92886955D01*
X144780001Y-92866318D01*
X144779999Y-92866318D01*
X144623239Y-92886955D01*
X144623237Y-92886956D01*
X144477160Y-92947463D01*
X144351718Y-93043718D01*
X144255463Y-93169160D01*
X144194956Y-93315237D01*
X144194955Y-93315239D01*
X144174318Y-93471998D01*
X144174318Y-93472001D01*
X121106513Y-93472001D01*
X120962586Y-92456001D01*
X141126318Y-92456001D01*
X141146955Y-92612760D01*
X141146956Y-92612762D01*
X141204704Y-92752179D01*
X141207464Y-92758841D01*
X141303718Y-92884282D01*
X141429159Y-92980536D01*
X141575238Y-93041044D01*
X141653619Y-93051363D01*
X141731999Y-93061682D01*
X141732000Y-93061682D01*
X141732001Y-93061682D01*
X141784254Y-93054802D01*
X141888762Y-93041044D01*
X142034841Y-92980536D01*
X142160282Y-92884282D01*
X142256536Y-92758841D01*
X142317044Y-92612762D01*
X142337682Y-92456000D01*
X142317044Y-92299238D01*
X142256536Y-92153159D01*
X142160282Y-92027718D01*
X142034841Y-91931464D01*
X141951111Y-91896782D01*
X141888762Y-91870956D01*
X141888760Y-91870955D01*
X141732001Y-91850318D01*
X141731999Y-91850318D01*
X141575239Y-91870955D01*
X141575237Y-91870956D01*
X141429160Y-91931463D01*
X141303718Y-92027718D01*
X141207463Y-92153160D01*
X141146956Y-92299237D01*
X141146955Y-92299239D01*
X141126318Y-92455998D01*
X141126318Y-92456001D01*
X120962586Y-92456001D01*
X120730130Y-90815057D01*
X120583922Y-90673500D01*
X124494353Y-90673500D01*
X124514834Y-90815956D01*
X124574453Y-90946500D01*
X124574623Y-90946873D01*
X124668872Y-91055643D01*
X124789947Y-91133453D01*
X124789950Y-91133454D01*
X124789949Y-91133454D01*
X124928036Y-91173999D01*
X124928038Y-91174000D01*
X124976554Y-91174000D01*
X125043593Y-91193685D01*
X125089348Y-91246489D01*
X125099292Y-91315646D01*
X125094353Y-91349999D01*
X125114834Y-91492456D01*
X125136743Y-91540429D01*
X125174623Y-91623373D01*
X125268872Y-91732143D01*
X125389947Y-91809953D01*
X125389950Y-91809954D01*
X125389949Y-91809954D01*
X125497107Y-91841417D01*
X125527419Y-91850318D01*
X125528036Y-91850499D01*
X125528038Y-91850500D01*
X125528039Y-91850500D01*
X125671962Y-91850500D01*
X125671962Y-91850499D01*
X125810053Y-91809953D01*
X125931128Y-91732143D01*
X126025377Y-91623373D01*
X126085165Y-91492457D01*
X126092707Y-91440001D01*
X146206318Y-91440001D01*
X146226955Y-91596760D01*
X146226956Y-91596762D01*
X146287464Y-91742841D01*
X146383718Y-91868282D01*
X146509159Y-91964536D01*
X146655238Y-92025044D01*
X146733619Y-92035363D01*
X146811999Y-92045682D01*
X146812000Y-92045682D01*
X146812001Y-92045682D01*
X146864254Y-92038802D01*
X146968762Y-92025044D01*
X147114841Y-91964536D01*
X147240282Y-91868282D01*
X147336536Y-91742841D01*
X147397044Y-91596762D01*
X147417682Y-91440000D01*
X147405168Y-91344950D01*
X147397044Y-91283239D01*
X147397044Y-91283238D01*
X147336536Y-91137159D01*
X147240282Y-91011718D01*
X147136392Y-90932001D01*
X148238318Y-90932001D01*
X148258955Y-91088760D01*
X148258956Y-91088762D01*
X148302416Y-91193685D01*
X148319464Y-91234841D01*
X148415718Y-91360282D01*
X148541159Y-91456536D01*
X148687238Y-91517044D01*
X148765619Y-91527363D01*
X148843999Y-91537682D01*
X148844000Y-91537682D01*
X148844001Y-91537682D01*
X148896254Y-91530802D01*
X149000762Y-91517044D01*
X149146841Y-91456536D01*
X149272282Y-91360282D01*
X149368536Y-91234841D01*
X149429044Y-91088762D01*
X149444961Y-90967857D01*
X149449682Y-90932001D01*
X149449682Y-90931998D01*
X149431070Y-90790625D01*
X149429044Y-90775238D01*
X149368536Y-90629159D01*
X149272282Y-90503718D01*
X149146841Y-90407464D01*
X149129130Y-90400128D01*
X149000762Y-90346956D01*
X149000760Y-90346955D01*
X148844001Y-90326318D01*
X148843999Y-90326318D01*
X148687239Y-90346955D01*
X148687237Y-90346956D01*
X148541160Y-90407463D01*
X148415718Y-90503718D01*
X148319463Y-90629160D01*
X148258956Y-90775237D01*
X148258955Y-90775239D01*
X148238318Y-90931998D01*
X148238318Y-90932001D01*
X147136392Y-90932001D01*
X147114841Y-90915464D01*
X146968762Y-90854956D01*
X146968760Y-90854955D01*
X146812001Y-90834318D01*
X146811999Y-90834318D01*
X146655239Y-90854955D01*
X146655237Y-90854956D01*
X146509160Y-90915463D01*
X146383718Y-91011718D01*
X146287463Y-91137160D01*
X146226956Y-91283237D01*
X146226955Y-91283239D01*
X146206318Y-91439998D01*
X146206318Y-91440001D01*
X126092707Y-91440001D01*
X126105647Y-91350000D01*
X126085165Y-91207543D01*
X126025377Y-91076627D01*
X125931128Y-90967857D01*
X125810053Y-90890047D01*
X125810051Y-90890046D01*
X125810049Y-90890045D01*
X125810050Y-90890045D01*
X125671963Y-90849500D01*
X125671961Y-90849500D01*
X125623446Y-90849500D01*
X125556407Y-90829815D01*
X125510652Y-90777011D01*
X125500708Y-90707854D01*
X125505647Y-90673500D01*
X125485165Y-90531043D01*
X125472686Y-90503718D01*
X125425377Y-90400127D01*
X125331128Y-90291357D01*
X125210053Y-90213547D01*
X125210051Y-90213546D01*
X125210049Y-90213545D01*
X125210050Y-90213545D01*
X125071963Y-90173000D01*
X125071961Y-90173000D01*
X124928039Y-90173000D01*
X124928036Y-90173000D01*
X124789949Y-90213545D01*
X124668873Y-90291356D01*
X124574623Y-90400126D01*
X124574622Y-90400128D01*
X124514834Y-90531043D01*
X124494353Y-90673500D01*
X120583922Y-90673500D01*
X120162935Y-90265905D01*
X119681817Y-90213545D01*
X116334191Y-89849223D01*
X116269675Y-89822401D01*
X116255378Y-89808836D01*
X115936428Y-89453929D01*
X115906258Y-89390908D01*
X115914949Y-89321581D01*
X115932864Y-89300134D01*
X123029487Y-89300134D01*
X123049968Y-89442590D01*
X123101598Y-89555642D01*
X123109757Y-89573507D01*
X123204006Y-89682277D01*
X123325081Y-89760087D01*
X123325084Y-89760088D01*
X123325083Y-89760088D01*
X123463170Y-89800633D01*
X123463172Y-89800634D01*
X123463173Y-89800634D01*
X123607096Y-89800634D01*
X123607096Y-89800633D01*
X123745187Y-89760087D01*
X123866262Y-89682277D01*
X123960511Y-89573507D01*
X124020299Y-89442591D01*
X124040781Y-89300134D01*
X124020299Y-89157677D01*
X123960511Y-89026761D01*
X123917826Y-88977500D01*
X128922183Y-88977500D01*
X128942664Y-89119956D01*
X128985394Y-89213520D01*
X129002453Y-89250873D01*
X129096702Y-89359643D01*
X129217777Y-89437453D01*
X129217780Y-89437454D01*
X129217779Y-89437454D01*
X129355866Y-89477999D01*
X129355868Y-89478000D01*
X129355869Y-89478000D01*
X129499792Y-89478000D01*
X129499792Y-89477999D01*
X129606951Y-89446535D01*
X129637880Y-89437454D01*
X129637881Y-89437454D01*
X129655279Y-89426273D01*
X129725748Y-89380985D01*
X129792787Y-89361301D01*
X129859826Y-89380985D01*
X129894315Y-89420766D01*
X129897355Y-89418813D01*
X129902148Y-89426271D01*
X129902149Y-89426273D01*
X129996398Y-89535043D01*
X130117473Y-89612853D01*
X130117476Y-89612854D01*
X130117475Y-89612854D01*
X130255562Y-89653399D01*
X130255564Y-89653400D01*
X130255565Y-89653400D01*
X130399488Y-89653400D01*
X130399488Y-89653399D01*
X130537579Y-89612853D01*
X130658654Y-89535043D01*
X130752903Y-89426273D01*
X130812691Y-89295357D01*
X130833173Y-89152900D01*
X130812691Y-89010443D01*
X130752903Y-88879527D01*
X130658654Y-88770757D01*
X130537579Y-88692947D01*
X130537577Y-88692946D01*
X130537575Y-88692945D01*
X130537576Y-88692945D01*
X130399489Y-88652400D01*
X130399487Y-88652400D01*
X130255565Y-88652400D01*
X130255562Y-88652400D01*
X130117475Y-88692945D01*
X130117472Y-88692946D01*
X130029606Y-88749414D01*
X129962567Y-88769098D01*
X129895528Y-88749413D01*
X129861052Y-88709625D01*
X129858001Y-88711587D01*
X129853206Y-88704126D01*
X129758958Y-88595357D01*
X129637883Y-88517547D01*
X129637881Y-88517546D01*
X129637879Y-88517545D01*
X129637880Y-88517545D01*
X129499793Y-88477000D01*
X129499791Y-88477000D01*
X129355869Y-88477000D01*
X129355866Y-88477000D01*
X129217779Y-88517545D01*
X129096703Y-88595356D01*
X129002453Y-88704126D01*
X129002452Y-88704128D01*
X128942664Y-88835043D01*
X128922183Y-88977500D01*
X123917826Y-88977500D01*
X123866262Y-88917991D01*
X123745187Y-88840181D01*
X123745185Y-88840180D01*
X123745183Y-88840179D01*
X123745184Y-88840179D01*
X123607097Y-88799634D01*
X123607095Y-88799634D01*
X123463173Y-88799634D01*
X123463170Y-88799634D01*
X123325083Y-88840179D01*
X123204007Y-88917990D01*
X123109757Y-89026760D01*
X123109756Y-89026762D01*
X123049968Y-89157677D01*
X123029487Y-89300134D01*
X115932864Y-89300134D01*
X115959742Y-89267958D01*
X116026414Y-89247064D01*
X116051437Y-89249155D01*
X116068549Y-89252354D01*
X116068551Y-89252354D01*
X116279875Y-89252354D01*
X116279877Y-89252354D01*
X116487608Y-89213522D01*
X116684666Y-89137182D01*
X116864341Y-89025931D01*
X117020515Y-88883560D01*
X117147869Y-88714916D01*
X117242066Y-88525743D01*
X117242066Y-88525740D01*
X117242068Y-88525738D01*
X117282253Y-88384499D01*
X117299899Y-88322481D01*
X117319398Y-88112054D01*
X117317276Y-88089159D01*
X117315853Y-88073800D01*
X131269553Y-88073800D01*
X131290034Y-88216256D01*
X131348352Y-88343953D01*
X131349823Y-88347173D01*
X131444072Y-88455943D01*
X131565147Y-88533753D01*
X131565150Y-88533754D01*
X131565149Y-88533754D01*
X131703236Y-88574299D01*
X131703238Y-88574300D01*
X131703239Y-88574300D01*
X131847162Y-88574300D01*
X131847162Y-88574299D01*
X131985253Y-88533753D01*
X132106328Y-88455943D01*
X132161734Y-88392001D01*
X146206318Y-88392001D01*
X146226955Y-88548760D01*
X146226956Y-88548762D01*
X146286678Y-88692945D01*
X146287464Y-88694841D01*
X146383718Y-88820282D01*
X146509159Y-88916536D01*
X146655238Y-88977044D01*
X146733619Y-88987363D01*
X146811999Y-88997682D01*
X146812000Y-88997682D01*
X146812001Y-88997682D01*
X146864254Y-88990802D01*
X146968762Y-88977044D01*
X147114841Y-88916536D01*
X147240282Y-88820282D01*
X147336536Y-88694841D01*
X147397044Y-88548762D01*
X147417682Y-88392000D01*
X147416694Y-88384499D01*
X147397044Y-88235239D01*
X147397044Y-88235238D01*
X147336536Y-88089159D01*
X147240282Y-87963718D01*
X147114841Y-87867464D01*
X146968762Y-87806956D01*
X146968760Y-87806955D01*
X146812001Y-87786318D01*
X146811999Y-87786318D01*
X146655239Y-87806955D01*
X146655237Y-87806956D01*
X146509160Y-87867463D01*
X146383718Y-87963718D01*
X146287463Y-88089160D01*
X146226956Y-88235237D01*
X146226955Y-88235239D01*
X146206318Y-88391998D01*
X146206318Y-88392001D01*
X132161734Y-88392001D01*
X132200577Y-88347173D01*
X132260365Y-88216257D01*
X132280847Y-88073800D01*
X132260365Y-87931343D01*
X132200577Y-87800427D01*
X132135563Y-87725396D01*
X147579680Y-87725396D01*
X147600317Y-87882155D01*
X147600318Y-87882157D01*
X147620691Y-87931343D01*
X147660826Y-88028236D01*
X147757080Y-88153677D01*
X147882521Y-88249931D01*
X148028600Y-88310439D01*
X148106981Y-88320758D01*
X148185361Y-88331077D01*
X148185362Y-88331077D01*
X148185363Y-88331077D01*
X148250663Y-88322480D01*
X148342124Y-88310439D01*
X148488203Y-88249931D01*
X148613644Y-88153677D01*
X148709898Y-88028236D01*
X148769643Y-87884000D01*
X152148353Y-87884000D01*
X152168834Y-88026456D01*
X152197833Y-88089953D01*
X152228623Y-88157373D01*
X152322872Y-88266143D01*
X152443947Y-88343953D01*
X152443950Y-88343954D01*
X152443949Y-88343954D01*
X152582036Y-88384499D01*
X152582038Y-88384500D01*
X152582039Y-88384500D01*
X152725962Y-88384500D01*
X152725962Y-88384499D01*
X152853087Y-88347173D01*
X152864050Y-88343954D01*
X152864050Y-88343953D01*
X152864053Y-88343953D01*
X152985128Y-88266143D01*
X153079377Y-88157373D01*
X153139165Y-88026457D01*
X153159647Y-87884000D01*
X155704353Y-87884000D01*
X155724834Y-88026456D01*
X155753833Y-88089953D01*
X155784623Y-88157373D01*
X155878872Y-88266143D01*
X155999947Y-88343953D01*
X155999950Y-88343954D01*
X155999949Y-88343954D01*
X156138036Y-88384499D01*
X156138038Y-88384500D01*
X156138039Y-88384500D01*
X156281962Y-88384500D01*
X156281962Y-88384499D01*
X156409087Y-88347173D01*
X156420050Y-88343954D01*
X156420050Y-88343953D01*
X156420053Y-88343953D01*
X156541128Y-88266143D01*
X156635377Y-88157373D01*
X156695165Y-88026457D01*
X156715647Y-87884000D01*
X156695165Y-87741543D01*
X156644224Y-87630000D01*
X160022353Y-87630000D01*
X160042834Y-87772456D01*
X160101824Y-87901624D01*
X160102623Y-87903373D01*
X160196872Y-88012143D01*
X160317947Y-88089953D01*
X160317950Y-88089954D01*
X160317949Y-88089954D01*
X160456036Y-88130499D01*
X160456038Y-88130500D01*
X160456039Y-88130500D01*
X160599962Y-88130500D01*
X160599962Y-88130499D01*
X160738053Y-88089953D01*
X160859128Y-88012143D01*
X160953377Y-87903373D01*
X161013165Y-87772457D01*
X161033647Y-87630000D01*
X161017472Y-87517500D01*
X164294353Y-87517500D01*
X164314834Y-87659956D01*
X164372543Y-87786318D01*
X164374623Y-87790873D01*
X164468872Y-87899643D01*
X164589947Y-87977453D01*
X164589950Y-87977454D01*
X164589949Y-87977454D01*
X164728036Y-88017999D01*
X164728038Y-88018000D01*
X164728039Y-88018000D01*
X164871962Y-88018000D01*
X164871962Y-88017999D01*
X165010053Y-87977453D01*
X165131128Y-87899643D01*
X165225377Y-87790873D01*
X165285165Y-87659957D01*
X165289472Y-87630000D01*
X167896353Y-87630000D01*
X167916834Y-87772456D01*
X167975824Y-87901624D01*
X167976623Y-87903373D01*
X168070872Y-88012143D01*
X168191947Y-88089953D01*
X168191950Y-88089954D01*
X168191949Y-88089954D01*
X168330036Y-88130499D01*
X168330038Y-88130500D01*
X168330039Y-88130500D01*
X168473962Y-88130500D01*
X168473962Y-88130499D01*
X168612053Y-88089953D01*
X168733128Y-88012143D01*
X168827377Y-87903373D01*
X168887165Y-87772457D01*
X168907647Y-87630000D01*
X168887165Y-87487543D01*
X168827377Y-87356627D01*
X168733128Y-87247857D01*
X168612053Y-87170047D01*
X168612051Y-87170046D01*
X168612049Y-87170045D01*
X168612050Y-87170045D01*
X168473963Y-87129500D01*
X168473961Y-87129500D01*
X168330039Y-87129500D01*
X168330036Y-87129500D01*
X168191949Y-87170045D01*
X168070873Y-87247856D01*
X167976623Y-87356626D01*
X167976622Y-87356628D01*
X167916834Y-87487543D01*
X167896353Y-87630000D01*
X165289472Y-87630000D01*
X165305647Y-87517500D01*
X165285165Y-87375043D01*
X165225377Y-87244127D01*
X165131128Y-87135357D01*
X165010053Y-87057547D01*
X165010051Y-87057546D01*
X165010049Y-87057545D01*
X165010050Y-87057545D01*
X164871963Y-87017000D01*
X164871961Y-87017000D01*
X164728039Y-87017000D01*
X164728036Y-87017000D01*
X164589949Y-87057545D01*
X164468873Y-87135356D01*
X164374623Y-87244126D01*
X164374622Y-87244128D01*
X164314834Y-87375043D01*
X164294353Y-87517500D01*
X161017472Y-87517500D01*
X161013165Y-87487543D01*
X160953377Y-87356627D01*
X160859128Y-87247857D01*
X160738053Y-87170047D01*
X160738051Y-87170046D01*
X160738049Y-87170045D01*
X160738050Y-87170045D01*
X160599963Y-87129500D01*
X160599961Y-87129500D01*
X160456039Y-87129500D01*
X160456036Y-87129500D01*
X160317949Y-87170045D01*
X160196873Y-87247856D01*
X160102623Y-87356626D01*
X160102622Y-87356628D01*
X160042834Y-87487543D01*
X160022353Y-87630000D01*
X156644224Y-87630000D01*
X156635377Y-87610627D01*
X156541128Y-87501857D01*
X156420053Y-87424047D01*
X156420051Y-87424046D01*
X156420049Y-87424045D01*
X156420050Y-87424045D01*
X156281963Y-87383500D01*
X156281961Y-87383500D01*
X156138039Y-87383500D01*
X156138036Y-87383500D01*
X155999949Y-87424045D01*
X155878873Y-87501856D01*
X155784623Y-87610626D01*
X155784622Y-87610628D01*
X155724834Y-87741543D01*
X155704353Y-87884000D01*
X153159647Y-87884000D01*
X153139165Y-87741543D01*
X153079377Y-87610627D01*
X152985128Y-87501857D01*
X152864053Y-87424047D01*
X152864051Y-87424046D01*
X152864049Y-87424045D01*
X152864050Y-87424045D01*
X152725963Y-87383500D01*
X152725961Y-87383500D01*
X152582039Y-87383500D01*
X152582036Y-87383500D01*
X152443949Y-87424045D01*
X152322873Y-87501856D01*
X152228623Y-87610626D01*
X152228622Y-87610628D01*
X152168834Y-87741543D01*
X152148353Y-87884000D01*
X148769643Y-87884000D01*
X148770406Y-87882157D01*
X148791044Y-87725395D01*
X148789210Y-87711468D01*
X148777285Y-87620887D01*
X148770406Y-87568633D01*
X148709898Y-87422554D01*
X148613644Y-87297113D01*
X148488203Y-87200859D01*
X148413816Y-87170047D01*
X148342124Y-87140351D01*
X148342122Y-87140350D01*
X148185363Y-87119713D01*
X148185361Y-87119713D01*
X148028601Y-87140350D01*
X148028599Y-87140351D01*
X147882522Y-87200858D01*
X147757080Y-87297113D01*
X147660825Y-87422555D01*
X147600318Y-87568632D01*
X147600317Y-87568634D01*
X147579680Y-87725393D01*
X147579680Y-87725396D01*
X132135563Y-87725396D01*
X132106328Y-87691657D01*
X131985253Y-87613847D01*
X131985251Y-87613846D01*
X131985249Y-87613845D01*
X131985250Y-87613845D01*
X131847163Y-87573300D01*
X131847161Y-87573300D01*
X131703239Y-87573300D01*
X131703236Y-87573300D01*
X131565149Y-87613845D01*
X131444073Y-87691656D01*
X131349823Y-87800426D01*
X131349822Y-87800428D01*
X131290034Y-87931343D01*
X131269553Y-88073800D01*
X117315853Y-88073800D01*
X117299899Y-87901627D01*
X117299898Y-87901624D01*
X117299334Y-87899643D01*
X117272963Y-87806955D01*
X117242068Y-87698369D01*
X117242065Y-87698363D01*
X117222941Y-87659957D01*
X117147869Y-87509192D01*
X117086768Y-87428281D01*
X117020513Y-87340545D01*
X116864342Y-87198178D01*
X116864341Y-87198177D01*
X116684666Y-87086926D01*
X116684665Y-87086925D01*
X116540578Y-87031106D01*
X116487608Y-87010586D01*
X116279877Y-86971754D01*
X116068549Y-86971754D01*
X115947792Y-86994327D01*
X115938081Y-86996143D01*
X115931586Y-86997357D01*
X115862071Y-86990326D01*
X115807392Y-86946828D01*
X115806159Y-86943201D01*
X122137155Y-86943201D01*
X122157636Y-87085657D01*
X122209023Y-87198177D01*
X122217425Y-87216574D01*
X122311674Y-87325344D01*
X122432749Y-87403154D01*
X122432752Y-87403155D01*
X122432751Y-87403155D01*
X122570838Y-87443700D01*
X122570840Y-87443701D01*
X122570841Y-87443701D01*
X122714764Y-87443701D01*
X122714764Y-87443700D01*
X122852855Y-87403154D01*
X122973930Y-87325344D01*
X123068179Y-87216574D01*
X123127967Y-87085658D01*
X123148449Y-86943201D01*
X123127967Y-86800744D01*
X123068179Y-86669828D01*
X123023272Y-86618002D01*
X123019962Y-86610753D01*
X125026829Y-86610753D01*
X125040635Y-86619428D01*
X125040639Y-86619430D01*
X125210796Y-86678970D01*
X125210799Y-86678971D01*
X125389935Y-86699155D01*
X125389941Y-86699155D01*
X125569076Y-86678971D01*
X125739244Y-86619426D01*
X125753267Y-86610614D01*
X125753185Y-86610561D01*
X125926523Y-86610561D01*
X125940635Y-86619428D01*
X125940639Y-86619430D01*
X126110796Y-86678970D01*
X126110799Y-86678971D01*
X126289935Y-86699155D01*
X126289941Y-86699155D01*
X126469076Y-86678971D01*
X126639245Y-86619426D01*
X126647880Y-86614000D01*
X169420353Y-86614000D01*
X169440834Y-86756456D01*
X169497564Y-86880674D01*
X169500623Y-86887373D01*
X169594872Y-86996143D01*
X169715947Y-87073953D01*
X169715950Y-87073954D01*
X169715949Y-87073954D01*
X169854036Y-87114499D01*
X169854038Y-87114500D01*
X169854039Y-87114500D01*
X169997962Y-87114500D01*
X169997962Y-87114499D01*
X170136053Y-87073953D01*
X170257128Y-86996143D01*
X170351377Y-86887373D01*
X170411165Y-86756457D01*
X170431647Y-86614000D01*
X170411165Y-86471543D01*
X170351377Y-86340627D01*
X170257128Y-86231857D01*
X170136053Y-86154047D01*
X170136051Y-86154046D01*
X170136049Y-86154045D01*
X170136050Y-86154045D01*
X169997963Y-86113500D01*
X169997961Y-86113500D01*
X169854039Y-86113500D01*
X169854036Y-86113500D01*
X169715949Y-86154045D01*
X169594873Y-86231856D01*
X169500623Y-86340626D01*
X169500622Y-86340628D01*
X169440834Y-86471543D01*
X169420353Y-86614000D01*
X126647880Y-86614000D01*
X126653045Y-86610754D01*
X126653045Y-86610753D01*
X126289939Y-86247646D01*
X126289938Y-86247646D01*
X125927618Y-86609964D01*
X125926523Y-86610561D01*
X125753185Y-86610561D01*
X125752256Y-86609964D01*
X125389939Y-86247646D01*
X125389938Y-86247646D01*
X125026829Y-86610753D01*
X123019962Y-86610753D01*
X122994248Y-86554448D01*
X123004192Y-86485290D01*
X123023271Y-86455600D01*
X123068179Y-86403774D01*
X123127967Y-86272858D01*
X123148449Y-86130401D01*
X123127967Y-85987944D01*
X123085107Y-85894095D01*
X124584876Y-85894095D01*
X124605059Y-86073231D01*
X124605060Y-86073234D01*
X124664600Y-86243391D01*
X124664605Y-86243401D01*
X124673276Y-86257201D01*
X125036384Y-85894093D01*
X125234647Y-85894093D01*
X125255452Y-85971738D01*
X125312293Y-86028579D01*
X125370192Y-86044093D01*
X125409684Y-86044093D01*
X125467583Y-86028579D01*
X125524424Y-85971739D01*
X125545229Y-85894093D01*
X125743491Y-85894093D01*
X125839938Y-85990540D01*
X125936385Y-85894093D01*
X126134647Y-85894093D01*
X126155452Y-85971738D01*
X126212293Y-86028579D01*
X126270192Y-86044093D01*
X126309684Y-86044093D01*
X126367583Y-86028579D01*
X126424424Y-85971739D01*
X126445229Y-85894093D01*
X126424424Y-85816448D01*
X126367583Y-85759607D01*
X126309684Y-85744093D01*
X126270192Y-85744093D01*
X126212293Y-85759607D01*
X126155452Y-85816447D01*
X126134647Y-85894093D01*
X125936385Y-85894093D01*
X125882881Y-85840589D01*
X125853739Y-85832032D01*
X125822725Y-85832032D01*
X125799320Y-85844812D01*
X125791983Y-85845600D01*
X125743491Y-85894093D01*
X125545229Y-85894093D01*
X125524424Y-85816448D01*
X125467583Y-85759607D01*
X125409684Y-85744093D01*
X125370192Y-85744093D01*
X125312293Y-85759607D01*
X125255452Y-85816447D01*
X125234647Y-85894093D01*
X125036384Y-85894093D01*
X125436385Y-85494093D01*
X126243491Y-85494093D01*
X127006598Y-86257200D01*
X127006599Y-86257200D01*
X127015271Y-86243400D01*
X127074816Y-86073231D01*
X127094335Y-85900000D01*
X167994353Y-85900000D01*
X168014834Y-86042456D01*
X168054998Y-86130401D01*
X168074623Y-86173373D01*
X168168872Y-86282143D01*
X168289947Y-86359953D01*
X168289950Y-86359954D01*
X168289949Y-86359954D01*
X168428036Y-86400499D01*
X168428038Y-86400500D01*
X168428039Y-86400500D01*
X168571962Y-86400500D01*
X168571962Y-86400499D01*
X168710053Y-86359953D01*
X168831128Y-86282143D01*
X168925377Y-86173373D01*
X168985165Y-86042457D01*
X169005647Y-85900000D01*
X168985165Y-85757543D01*
X168925377Y-85626627D01*
X168831128Y-85517857D01*
X168710053Y-85440047D01*
X168710051Y-85440046D01*
X168710049Y-85440045D01*
X168710050Y-85440045D01*
X168571963Y-85399500D01*
X168571961Y-85399500D01*
X168428039Y-85399500D01*
X168428036Y-85399500D01*
X168289949Y-85440045D01*
X168168873Y-85517856D01*
X168074623Y-85626626D01*
X168074622Y-85626628D01*
X168014834Y-85757543D01*
X167994353Y-85900000D01*
X127094335Y-85900000D01*
X127095000Y-85894095D01*
X127095000Y-85894090D01*
X127074816Y-85714954D01*
X127074815Y-85714951D01*
X127012974Y-85538217D01*
X127015057Y-85537487D01*
X127005415Y-85478966D01*
X127013840Y-85450272D01*
X127012974Y-85449969D01*
X127074815Y-85273234D01*
X127074816Y-85273231D01*
X127095000Y-85094095D01*
X127095000Y-85094090D01*
X127074816Y-84914952D01*
X127074815Y-84914951D01*
X127047189Y-84836000D01*
X154942353Y-84836000D01*
X154962834Y-84978456D01*
X154980185Y-85016448D01*
X155022623Y-85109373D01*
X155116872Y-85218143D01*
X155237947Y-85295953D01*
X155237950Y-85295954D01*
X155237949Y-85295954D01*
X155376036Y-85336499D01*
X155376038Y-85336500D01*
X155376039Y-85336500D01*
X155519962Y-85336500D01*
X155519962Y-85336499D01*
X155658053Y-85295953D01*
X155779128Y-85218143D01*
X155873377Y-85109373D01*
X155933165Y-84978457D01*
X155953647Y-84836000D01*
X155933165Y-84693543D01*
X155873377Y-84562627D01*
X155780118Y-84455000D01*
X156974353Y-84455000D01*
X156994834Y-84597456D01*
X157038716Y-84693543D01*
X157054623Y-84728373D01*
X157148872Y-84837143D01*
X157269947Y-84914953D01*
X157269950Y-84914954D01*
X157269949Y-84914954D01*
X157408036Y-84955499D01*
X157408038Y-84955500D01*
X157408039Y-84955500D01*
X157551962Y-84955500D01*
X157551962Y-84955499D01*
X157690053Y-84914953D01*
X157811128Y-84837143D01*
X157905377Y-84728373D01*
X157965165Y-84597457D01*
X157967387Y-84582000D01*
X163832353Y-84582000D01*
X163852834Y-84724456D01*
X163906290Y-84841506D01*
X163912623Y-84855373D01*
X164006872Y-84964143D01*
X164127947Y-85041953D01*
X164127950Y-85041954D01*
X164127949Y-85041954D01*
X164266036Y-85082499D01*
X164266038Y-85082500D01*
X164266039Y-85082500D01*
X164409962Y-85082500D01*
X164409962Y-85082499D01*
X164548053Y-85041953D01*
X164669128Y-84964143D01*
X164763377Y-84855373D01*
X164823165Y-84724457D01*
X164843647Y-84582000D01*
X164823165Y-84439543D01*
X164763377Y-84308627D01*
X164669128Y-84199857D01*
X164548053Y-84122047D01*
X164548051Y-84122046D01*
X164548049Y-84122045D01*
X164548050Y-84122045D01*
X164409963Y-84081500D01*
X164409961Y-84081500D01*
X164266039Y-84081500D01*
X164266036Y-84081500D01*
X164127949Y-84122045D01*
X164006873Y-84199856D01*
X163912623Y-84308626D01*
X163912622Y-84308628D01*
X163852834Y-84439543D01*
X163832353Y-84582000D01*
X157967387Y-84582000D01*
X157985647Y-84455000D01*
X157965165Y-84312543D01*
X157905377Y-84181627D01*
X157811128Y-84072857D01*
X157690053Y-83995047D01*
X157690051Y-83995046D01*
X157690049Y-83995045D01*
X157690050Y-83995045D01*
X157551963Y-83954500D01*
X157551961Y-83954500D01*
X157408039Y-83954500D01*
X157408036Y-83954500D01*
X157269949Y-83995045D01*
X157148873Y-84072856D01*
X157054623Y-84181626D01*
X157054622Y-84181628D01*
X156994834Y-84312543D01*
X156974353Y-84455000D01*
X155780118Y-84455000D01*
X155779128Y-84453857D01*
X155658053Y-84376047D01*
X155658051Y-84376046D01*
X155658049Y-84376045D01*
X155658050Y-84376045D01*
X155519963Y-84335500D01*
X155519961Y-84335500D01*
X155376039Y-84335500D01*
X155376036Y-84335500D01*
X155237949Y-84376045D01*
X155116873Y-84453856D01*
X155022623Y-84562626D01*
X155022622Y-84562628D01*
X154962834Y-84693543D01*
X154942353Y-84836000D01*
X127047189Y-84836000D01*
X127015275Y-84744794D01*
X127015273Y-84744790D01*
X127006598Y-84730984D01*
X126289938Y-85447646D01*
X126243491Y-85494093D01*
X125436385Y-85494093D01*
X125389938Y-85447646D01*
X125036385Y-85094093D01*
X125234647Y-85094093D01*
X125255452Y-85171738D01*
X125312293Y-85228579D01*
X125370192Y-85244093D01*
X125409684Y-85244093D01*
X125467583Y-85228579D01*
X125524424Y-85171739D01*
X125545229Y-85094093D01*
X125743491Y-85094093D01*
X125796994Y-85147596D01*
X125826134Y-85156153D01*
X125857152Y-85156153D01*
X125880559Y-85143373D01*
X125887893Y-85142584D01*
X125936385Y-85094093D01*
X126134647Y-85094093D01*
X126155452Y-85171738D01*
X126212293Y-85228579D01*
X126270192Y-85244093D01*
X126309684Y-85244093D01*
X126367583Y-85228579D01*
X126424424Y-85171739D01*
X126445229Y-85094093D01*
X126424424Y-85016448D01*
X126367583Y-84959607D01*
X126309684Y-84944093D01*
X126270192Y-84944093D01*
X126212293Y-84959607D01*
X126155452Y-85016447D01*
X126134647Y-85094093D01*
X125936385Y-85094093D01*
X125839938Y-84997646D01*
X125743491Y-85094093D01*
X125545229Y-85094093D01*
X125524424Y-85016448D01*
X125467583Y-84959607D01*
X125409684Y-84944093D01*
X125370192Y-84944093D01*
X125312293Y-84959607D01*
X125255452Y-85016447D01*
X125234647Y-85094093D01*
X125036385Y-85094093D01*
X124673276Y-84730983D01*
X124673276Y-84730984D01*
X124664602Y-84744789D01*
X124605060Y-84914951D01*
X124605060Y-84914952D01*
X124584876Y-85094090D01*
X124584876Y-85094095D01*
X124605059Y-85273231D01*
X124605060Y-85273234D01*
X124666902Y-85449969D01*
X124664823Y-85450696D01*
X124674456Y-85509251D01*
X124666039Y-85537915D01*
X124666902Y-85538217D01*
X124605060Y-85714951D01*
X124605059Y-85714954D01*
X124584876Y-85894090D01*
X124584876Y-85894095D01*
X123085107Y-85894095D01*
X123068179Y-85857028D01*
X122973930Y-85748258D01*
X122852855Y-85670448D01*
X122852853Y-85670447D01*
X122852851Y-85670446D01*
X122852852Y-85670446D01*
X122714765Y-85629901D01*
X122714763Y-85629901D01*
X122570841Y-85629901D01*
X122570838Y-85629901D01*
X122432751Y-85670446D01*
X122311675Y-85748257D01*
X122217425Y-85857027D01*
X122217424Y-85857029D01*
X122157636Y-85987944D01*
X122137155Y-86130401D01*
X122157636Y-86272857D01*
X122197412Y-86359953D01*
X122217425Y-86403774D01*
X122251819Y-86443467D01*
X122262331Y-86455599D01*
X122291355Y-86519155D01*
X122281411Y-86588313D01*
X122262331Y-86618003D01*
X122217425Y-86669828D01*
X122217424Y-86669829D01*
X122157636Y-86800744D01*
X122137155Y-86943201D01*
X115806159Y-86943201D01*
X115784910Y-86880674D01*
X115784801Y-86875734D01*
X115784536Y-86726805D01*
X115804100Y-86659735D01*
X115856822Y-86613886D01*
X115925963Y-86603819D01*
X115953325Y-86610960D01*
X116114818Y-86673522D01*
X116322549Y-86712354D01*
X116322551Y-86712354D01*
X116533875Y-86712354D01*
X116533877Y-86712354D01*
X116741608Y-86673522D01*
X116938666Y-86597182D01*
X117118341Y-86485931D01*
X117274515Y-86343560D01*
X117401869Y-86174916D01*
X117496066Y-85985743D01*
X117496066Y-85985740D01*
X117496068Y-85985738D01*
X117532688Y-85857029D01*
X117553899Y-85782481D01*
X117573398Y-85572054D01*
X117563913Y-85469700D01*
X117553899Y-85361627D01*
X117553898Y-85361624D01*
X117496068Y-85158369D01*
X117496065Y-85158363D01*
X117464061Y-85094090D01*
X117401869Y-84969192D01*
X117274515Y-84800548D01*
X117274513Y-84800545D01*
X117118342Y-84658178D01*
X117118341Y-84658177D01*
X116938666Y-84546926D01*
X116938665Y-84546925D01*
X116794578Y-84491106D01*
X116741608Y-84470586D01*
X116533877Y-84431754D01*
X116322549Y-84431754D01*
X116114818Y-84470586D01*
X116114813Y-84470587D01*
X115949213Y-84534740D01*
X115879590Y-84540602D01*
X115817850Y-84507891D01*
X115783595Y-84446995D01*
X115780420Y-84419340D01*
X115780345Y-84377431D01*
X125026828Y-84377431D01*
X125389938Y-84740540D01*
X125389939Y-84740540D01*
X125752256Y-84378221D01*
X125753351Y-84377623D01*
X125753267Y-84377570D01*
X125926605Y-84377570D01*
X125927618Y-84378221D01*
X126289938Y-84740540D01*
X126289939Y-84740540D01*
X126653046Y-84377431D01*
X126653046Y-84377430D01*
X126639246Y-84368760D01*
X126639236Y-84368755D01*
X126469079Y-84309215D01*
X126469076Y-84309214D01*
X126289941Y-84289031D01*
X126289935Y-84289031D01*
X126110799Y-84309214D01*
X126110796Y-84309215D01*
X125940632Y-84368758D01*
X125940629Y-84368759D01*
X125926605Y-84377570D01*
X125753267Y-84377570D01*
X125739239Y-84368757D01*
X125739236Y-84368755D01*
X125569079Y-84309215D01*
X125569076Y-84309214D01*
X125389941Y-84289031D01*
X125389935Y-84289031D01*
X125210799Y-84309214D01*
X125210796Y-84309215D01*
X125040634Y-84368757D01*
X125026829Y-84377431D01*
X125026828Y-84377431D01*
X115780345Y-84377431D01*
X115780150Y-84267988D01*
X115799715Y-84200917D01*
X115852437Y-84155068D01*
X115921578Y-84145001D01*
X115926912Y-84145877D01*
X116068549Y-84172354D01*
X116068551Y-84172354D01*
X116279875Y-84172354D01*
X116279877Y-84172354D01*
X116487608Y-84133522D01*
X116684666Y-84057182D01*
X116864341Y-83945931D01*
X117020515Y-83803560D01*
X117147869Y-83634916D01*
X117242066Y-83445743D01*
X117242066Y-83445740D01*
X117242068Y-83445738D01*
X117297617Y-83250500D01*
X117298087Y-83248850D01*
X125437701Y-83248850D01*
X125458182Y-83391306D01*
X125485215Y-83450499D01*
X125517971Y-83522223D01*
X125612220Y-83630993D01*
X125733295Y-83708803D01*
X125733298Y-83708804D01*
X125733297Y-83708804D01*
X125871384Y-83749349D01*
X125871386Y-83749350D01*
X125871387Y-83749350D01*
X126015310Y-83749350D01*
X126015310Y-83749349D01*
X126153401Y-83708803D01*
X126274476Y-83630993D01*
X126368725Y-83522223D01*
X126428513Y-83391307D01*
X126448995Y-83248850D01*
X126428513Y-83106393D01*
X126368725Y-82975477D01*
X126274476Y-82866707D01*
X126153401Y-82788897D01*
X126153399Y-82788896D01*
X126153397Y-82788895D01*
X126153398Y-82788895D01*
X126015311Y-82748350D01*
X126015309Y-82748350D01*
X125871387Y-82748350D01*
X125871384Y-82748350D01*
X125733297Y-82788895D01*
X125612221Y-82866706D01*
X125517971Y-82975476D01*
X125517970Y-82975478D01*
X125458182Y-83106393D01*
X125437701Y-83248850D01*
X117298087Y-83248850D01*
X117299899Y-83242481D01*
X117319398Y-83032054D01*
X117314155Y-82975478D01*
X117299899Y-82821627D01*
X117299898Y-82821624D01*
X117242068Y-82618369D01*
X117242065Y-82618363D01*
X117183376Y-82500500D01*
X117168189Y-82470000D01*
X127234353Y-82470000D01*
X127254834Y-82612456D01*
X127312848Y-82739486D01*
X127314623Y-82743373D01*
X127408872Y-82852143D01*
X127529947Y-82929953D01*
X127529950Y-82929954D01*
X127529949Y-82929954D01*
X127668036Y-82970499D01*
X127668038Y-82970500D01*
X127668039Y-82970500D01*
X127811962Y-82970500D01*
X127811962Y-82970499D01*
X127881777Y-82950000D01*
X131594353Y-82950000D01*
X131614834Y-83092456D01*
X131668494Y-83209953D01*
X131674623Y-83223373D01*
X131768872Y-83332143D01*
X131889947Y-83409953D01*
X131889950Y-83409954D01*
X131889949Y-83409954D01*
X131997107Y-83441417D01*
X132011841Y-83445744D01*
X132028036Y-83450499D01*
X132028038Y-83450500D01*
X132028039Y-83450500D01*
X132171962Y-83450500D01*
X132171962Y-83450499D01*
X132310053Y-83409953D01*
X132431128Y-83332143D01*
X132525377Y-83223373D01*
X132585165Y-83092457D01*
X132585165Y-83092456D01*
X132588849Y-83084390D01*
X132590816Y-83085288D01*
X132622049Y-83036674D01*
X132685600Y-83007640D01*
X132754760Y-83017573D01*
X132796977Y-83049171D01*
X132868872Y-83132143D01*
X132989947Y-83209953D01*
X132989950Y-83209954D01*
X132989949Y-83209954D01*
X133097107Y-83241417D01*
X133100728Y-83242481D01*
X133128036Y-83250499D01*
X133128038Y-83250500D01*
X133128039Y-83250500D01*
X133271962Y-83250500D01*
X133271962Y-83250499D01*
X133410053Y-83209953D01*
X133531128Y-83132143D01*
X133625377Y-83023373D01*
X133685165Y-82892457D01*
X133705647Y-82750000D01*
X133685165Y-82607543D01*
X133625377Y-82476627D01*
X133531128Y-82367857D01*
X133410053Y-82290047D01*
X133410051Y-82290046D01*
X133410049Y-82290045D01*
X133410050Y-82290045D01*
X133271963Y-82249500D01*
X133271961Y-82249500D01*
X133128039Y-82249500D01*
X133128036Y-82249500D01*
X132989949Y-82290045D01*
X132868873Y-82367856D01*
X132774623Y-82476626D01*
X132774622Y-82476628D01*
X132763720Y-82500500D01*
X132718052Y-82600500D01*
X132711151Y-82615610D01*
X132709187Y-82614713D01*
X132677930Y-82663343D01*
X132614372Y-82692363D01*
X132545215Y-82682415D01*
X132503021Y-82650827D01*
X132431128Y-82567857D01*
X132310053Y-82490047D01*
X132310051Y-82490046D01*
X132310049Y-82490045D01*
X132310050Y-82490045D01*
X132171963Y-82449500D01*
X132171961Y-82449500D01*
X132028039Y-82449500D01*
X132028036Y-82449500D01*
X131889949Y-82490045D01*
X131768873Y-82567856D01*
X131674623Y-82676626D01*
X131674622Y-82676628D01*
X131614834Y-82807543D01*
X131594353Y-82950000D01*
X127881777Y-82950000D01*
X127950053Y-82929953D01*
X128071128Y-82852143D01*
X128165377Y-82743373D01*
X128225165Y-82612457D01*
X128245647Y-82470000D01*
X128225165Y-82327543D01*
X128225164Y-82327541D01*
X128223901Y-82323239D01*
X128223900Y-82253370D01*
X128261674Y-82194591D01*
X128325229Y-82165565D01*
X128377813Y-82169326D01*
X128379945Y-82169952D01*
X128379947Y-82169953D01*
X128459381Y-82193276D01*
X128518038Y-82210500D01*
X128518039Y-82210500D01*
X128661962Y-82210500D01*
X128661962Y-82210499D01*
X128800053Y-82169953D01*
X128908902Y-82100000D01*
X138894353Y-82100000D01*
X138914834Y-82242456D01*
X138972103Y-82367856D01*
X138974623Y-82373373D01*
X139068872Y-82482143D01*
X139189947Y-82559953D01*
X139189950Y-82559954D01*
X139189949Y-82559954D01*
X139297107Y-82591417D01*
X139326336Y-82600000D01*
X139328036Y-82600499D01*
X139328038Y-82600500D01*
X139328039Y-82600500D01*
X139471962Y-82600500D01*
X139471962Y-82600499D01*
X139473661Y-82600000D01*
X174494353Y-82600000D01*
X174514834Y-82742456D01*
X174550991Y-82821627D01*
X174574623Y-82873373D01*
X174668872Y-82982143D01*
X174789947Y-83059953D01*
X174789950Y-83059954D01*
X174789949Y-83059954D01*
X174928036Y-83100499D01*
X174928038Y-83100500D01*
X174928039Y-83100500D01*
X175071962Y-83100500D01*
X175071962Y-83100499D01*
X175210053Y-83059953D01*
X175331128Y-82982143D01*
X175425377Y-82873373D01*
X175485165Y-82742457D01*
X175505647Y-82600000D01*
X175485165Y-82457543D01*
X175425377Y-82326627D01*
X175331128Y-82217857D01*
X175210053Y-82140047D01*
X175210051Y-82140046D01*
X175210049Y-82140045D01*
X175210050Y-82140045D01*
X175071963Y-82099500D01*
X175071961Y-82099500D01*
X174928039Y-82099500D01*
X174928036Y-82099500D01*
X174789949Y-82140045D01*
X174668873Y-82217856D01*
X174574623Y-82326626D01*
X174574622Y-82326628D01*
X174514834Y-82457543D01*
X174494353Y-82600000D01*
X139473661Y-82600000D01*
X139610053Y-82559953D01*
X139731128Y-82482143D01*
X139825377Y-82373373D01*
X139885165Y-82242457D01*
X139905647Y-82100000D01*
X139891269Y-82000000D01*
X154793853Y-82000000D01*
X154814334Y-82142456D01*
X154868266Y-82260548D01*
X154874123Y-82273373D01*
X154968372Y-82382143D01*
X155089447Y-82459953D01*
X155089450Y-82459954D01*
X155089449Y-82459954D01*
X155227536Y-82500499D01*
X155227538Y-82500500D01*
X155227539Y-82500500D01*
X155371462Y-82500500D01*
X155371462Y-82500499D01*
X155509553Y-82459953D01*
X155630628Y-82382143D01*
X155724877Y-82273373D01*
X155784665Y-82142457D01*
X155805147Y-82000000D01*
X155784665Y-81857543D01*
X155724877Y-81726627D01*
X155630628Y-81617857D01*
X155509553Y-81540047D01*
X155509551Y-81540046D01*
X155509549Y-81540045D01*
X155509550Y-81540045D01*
X155371463Y-81499500D01*
X155371461Y-81499500D01*
X155227539Y-81499500D01*
X155227536Y-81499500D01*
X155089449Y-81540045D01*
X154968373Y-81617856D01*
X154874123Y-81726626D01*
X154874122Y-81726628D01*
X154814334Y-81857543D01*
X154793853Y-82000000D01*
X139891269Y-82000000D01*
X139885165Y-81957543D01*
X139825377Y-81826627D01*
X139731128Y-81717857D01*
X139610053Y-81640047D01*
X139610051Y-81640046D01*
X139610049Y-81640045D01*
X139610050Y-81640045D01*
X139471963Y-81599500D01*
X139471961Y-81599500D01*
X139328039Y-81599500D01*
X139328036Y-81599500D01*
X139189949Y-81640045D01*
X139068873Y-81717856D01*
X138974623Y-81826626D01*
X138974622Y-81826628D01*
X138914834Y-81957543D01*
X138894353Y-82100000D01*
X128908902Y-82100000D01*
X128921128Y-82092143D01*
X129015377Y-81983373D01*
X129075165Y-81852457D01*
X129095647Y-81710000D01*
X129075165Y-81567543D01*
X129015377Y-81436627D01*
X128921128Y-81327857D01*
X128800053Y-81250047D01*
X128800051Y-81250046D01*
X128800049Y-81250045D01*
X128800050Y-81250045D01*
X128661963Y-81209500D01*
X128661961Y-81209500D01*
X128518039Y-81209500D01*
X128518036Y-81209500D01*
X128379949Y-81250045D01*
X128258873Y-81327856D01*
X128164623Y-81436626D01*
X128164622Y-81436628D01*
X128104834Y-81567543D01*
X128084353Y-81710000D01*
X128104835Y-81852463D01*
X128106099Y-81856766D01*
X128106097Y-81926635D01*
X128068320Y-81985412D01*
X128004763Y-82014435D01*
X127952187Y-82010673D01*
X127811963Y-81969500D01*
X127811961Y-81969500D01*
X127668039Y-81969500D01*
X127668036Y-81969500D01*
X127529949Y-82010045D01*
X127408873Y-82087856D01*
X127314623Y-82196626D01*
X127314622Y-82196628D01*
X127254834Y-82327543D01*
X127234353Y-82470000D01*
X117168189Y-82470000D01*
X117147869Y-82429192D01*
X117030200Y-82273373D01*
X117020513Y-82260545D01*
X116864342Y-82118178D01*
X116864341Y-82118177D01*
X116684666Y-82006926D01*
X116684665Y-82006925D01*
X116540578Y-81951106D01*
X116487608Y-81930586D01*
X116279877Y-81891754D01*
X116068549Y-81891754D01*
X115987406Y-81906922D01*
X115922528Y-81919050D01*
X115853013Y-81912019D01*
X115798334Y-81868521D01*
X115775852Y-81802367D01*
X115775744Y-81797448D01*
X115774322Y-81000000D01*
X151494353Y-81000000D01*
X151514834Y-81142456D01*
X151544141Y-81206628D01*
X151574623Y-81273373D01*
X151668872Y-81382143D01*
X151789947Y-81459953D01*
X151789950Y-81459954D01*
X151789949Y-81459954D01*
X151897107Y-81491417D01*
X151924633Y-81499500D01*
X151928036Y-81500499D01*
X151928038Y-81500500D01*
X151928039Y-81500500D01*
X152071962Y-81500500D01*
X152071962Y-81500499D01*
X152141777Y-81480000D01*
X177264353Y-81480000D01*
X177284834Y-81622456D01*
X177344622Y-81753371D01*
X177344623Y-81753373D01*
X177438872Y-81862143D01*
X177559947Y-81939953D01*
X177559950Y-81939954D01*
X177559949Y-81939954D01*
X177698036Y-81980499D01*
X177698038Y-81980500D01*
X177698039Y-81980500D01*
X177841962Y-81980500D01*
X177841962Y-81980499D01*
X177980053Y-81939953D01*
X178101128Y-81862143D01*
X178195377Y-81753373D01*
X178255165Y-81622457D01*
X178275647Y-81480000D01*
X178255165Y-81337543D01*
X178195377Y-81206627D01*
X178101128Y-81097857D01*
X177980053Y-81020047D01*
X177980051Y-81020046D01*
X177980049Y-81020045D01*
X177980050Y-81020045D01*
X177841963Y-80979500D01*
X177841961Y-80979500D01*
X177698039Y-80979500D01*
X177698036Y-80979500D01*
X177559949Y-81020045D01*
X177438873Y-81097856D01*
X177344623Y-81206626D01*
X177344622Y-81206628D01*
X177284834Y-81337543D01*
X177264353Y-81480000D01*
X152141777Y-81480000D01*
X152210053Y-81459953D01*
X152331128Y-81382143D01*
X152425377Y-81273373D01*
X152485165Y-81142457D01*
X152505647Y-81000000D01*
X152485165Y-80857543D01*
X152426918Y-80730001D01*
X170224318Y-80730001D01*
X170244955Y-80886760D01*
X170244956Y-80886762D01*
X170300973Y-81022000D01*
X170305464Y-81032841D01*
X170401718Y-81158282D01*
X170527159Y-81254536D01*
X170673238Y-81315044D01*
X170686569Y-81316799D01*
X170829999Y-81335682D01*
X170830000Y-81335682D01*
X170830001Y-81335682D01*
X170889445Y-81327856D01*
X170986762Y-81315044D01*
X171132841Y-81254536D01*
X171258282Y-81158282D01*
X171354536Y-81032841D01*
X171415044Y-80886762D01*
X171435682Y-80730000D01*
X171415044Y-80573238D01*
X171354536Y-80427159D01*
X171258282Y-80301718D01*
X171132841Y-80205464D01*
X170986762Y-80144956D01*
X170986760Y-80144955D01*
X170830001Y-80124318D01*
X170829999Y-80124318D01*
X170673239Y-80144955D01*
X170673237Y-80144956D01*
X170527160Y-80205463D01*
X170401718Y-80301718D01*
X170305463Y-80427160D01*
X170244956Y-80573237D01*
X170244955Y-80573239D01*
X170224318Y-80729998D01*
X170224318Y-80730001D01*
X152426918Y-80730001D01*
X152425377Y-80726627D01*
X152331128Y-80617857D01*
X152210053Y-80540047D01*
X152210051Y-80540046D01*
X152210049Y-80540045D01*
X152210050Y-80540045D01*
X152071963Y-80499500D01*
X152071961Y-80499500D01*
X151928039Y-80499500D01*
X151928036Y-80499500D01*
X151789949Y-80540045D01*
X151668873Y-80617856D01*
X151574623Y-80726626D01*
X151574622Y-80726628D01*
X151514834Y-80857543D01*
X151494353Y-81000000D01*
X115774322Y-81000000D01*
X115772115Y-79763000D01*
X126916084Y-79763000D01*
X126936565Y-79905456D01*
X126996353Y-80036371D01*
X126996354Y-80036373D01*
X127090603Y-80145143D01*
X127211678Y-80222953D01*
X127211681Y-80222954D01*
X127211680Y-80222954D01*
X127349767Y-80263499D01*
X127349769Y-80263500D01*
X127349770Y-80263500D01*
X127493693Y-80263500D01*
X127493693Y-80263499D01*
X127631784Y-80222953D01*
X127752859Y-80145143D01*
X127847108Y-80036373D01*
X127906896Y-79905457D01*
X127927378Y-79763000D01*
X127906896Y-79620543D01*
X127847108Y-79489627D01*
X127752859Y-79380857D01*
X127631784Y-79303047D01*
X127631782Y-79303046D01*
X127631780Y-79303045D01*
X127631781Y-79303045D01*
X127621410Y-79300000D01*
X136394353Y-79300000D01*
X136414834Y-79442456D01*
X136445453Y-79509500D01*
X136474623Y-79573373D01*
X136568872Y-79682143D01*
X136689947Y-79759953D01*
X136689950Y-79759954D01*
X136689949Y-79759954D01*
X136828036Y-79800499D01*
X136828038Y-79800500D01*
X136828039Y-79800500D01*
X136971962Y-79800500D01*
X136971962Y-79800499D01*
X137110053Y-79759953D01*
X137231128Y-79682143D01*
X137325377Y-79573373D01*
X137352748Y-79513440D01*
X141607793Y-79513440D01*
X141628274Y-79655896D01*
X141676506Y-79761508D01*
X141688063Y-79786813D01*
X141782312Y-79895583D01*
X141903387Y-79973393D01*
X141903390Y-79973394D01*
X141903389Y-79973394D01*
X142010547Y-80004857D01*
X142028060Y-80010000D01*
X142041476Y-80013939D01*
X142041478Y-80013940D01*
X142041479Y-80013940D01*
X142185402Y-80013940D01*
X142185402Y-80013939D01*
X142198817Y-80010000D01*
X150394353Y-80010000D01*
X150414834Y-80152456D01*
X150447030Y-80222953D01*
X150474623Y-80283373D01*
X150568872Y-80392143D01*
X150689947Y-80469953D01*
X150689950Y-80469954D01*
X150689949Y-80469954D01*
X150828036Y-80510499D01*
X150828038Y-80510500D01*
X150828039Y-80510500D01*
X150971962Y-80510500D01*
X150971962Y-80510499D01*
X151110053Y-80469953D01*
X151231128Y-80392143D01*
X151325377Y-80283373D01*
X151385165Y-80152457D01*
X151405647Y-80010000D01*
X151385165Y-79867543D01*
X151325377Y-79736627D01*
X151231128Y-79627857D01*
X151110053Y-79550047D01*
X151110051Y-79550046D01*
X151110049Y-79550045D01*
X151110050Y-79550045D01*
X150971963Y-79509500D01*
X150971961Y-79509500D01*
X150828039Y-79509500D01*
X150828036Y-79509500D01*
X150689949Y-79550045D01*
X150568873Y-79627856D01*
X150474623Y-79736626D01*
X150474622Y-79736628D01*
X150414834Y-79867543D01*
X150394353Y-80010000D01*
X142198817Y-80010000D01*
X142323493Y-79973393D01*
X142444568Y-79895583D01*
X142538817Y-79786813D01*
X142598605Y-79655897D01*
X142619087Y-79513440D01*
X142598605Y-79370983D01*
X142538817Y-79240067D01*
X142444568Y-79131297D01*
X142323493Y-79053487D01*
X142323491Y-79053486D01*
X142323489Y-79053485D01*
X142323490Y-79053485D01*
X142185403Y-79012940D01*
X142185401Y-79012940D01*
X142041479Y-79012940D01*
X142041476Y-79012940D01*
X141903389Y-79053485D01*
X141782313Y-79131296D01*
X141688063Y-79240066D01*
X141688062Y-79240068D01*
X141628274Y-79370983D01*
X141607793Y-79513440D01*
X137352748Y-79513440D01*
X137385165Y-79442457D01*
X137405647Y-79300000D01*
X137385165Y-79157543D01*
X137325377Y-79026627D01*
X137302305Y-79000000D01*
X137994353Y-79000000D01*
X138014834Y-79142456D01*
X138045660Y-79209954D01*
X138074623Y-79273373D01*
X138168872Y-79382143D01*
X138289947Y-79459953D01*
X138289950Y-79459954D01*
X138289949Y-79459954D01*
X138428036Y-79500499D01*
X138428038Y-79500500D01*
X138428039Y-79500500D01*
X138571962Y-79500500D01*
X138571962Y-79500499D01*
X138710053Y-79459953D01*
X138831128Y-79382143D01*
X138925377Y-79273373D01*
X138985165Y-79142457D01*
X139005647Y-79000000D01*
X138985165Y-78857543D01*
X138936051Y-78750000D01*
X139744353Y-78750000D01*
X139764834Y-78892456D01*
X139816689Y-79006000D01*
X139824623Y-79023373D01*
X139918872Y-79132143D01*
X140039947Y-79209953D01*
X140039950Y-79209954D01*
X140039949Y-79209954D01*
X140178036Y-79250499D01*
X140178038Y-79250500D01*
X140178039Y-79250500D01*
X140321962Y-79250500D01*
X140321962Y-79250499D01*
X140460053Y-79209953D01*
X140581128Y-79132143D01*
X140675377Y-79023373D01*
X140735165Y-78892457D01*
X140755647Y-78750000D01*
X140735165Y-78607543D01*
X140675377Y-78476627D01*
X140581128Y-78367857D01*
X140460053Y-78290047D01*
X140460051Y-78290046D01*
X140460049Y-78290045D01*
X140460050Y-78290045D01*
X140432446Y-78281940D01*
X144026293Y-78281940D01*
X144046774Y-78424396D01*
X144083814Y-78505500D01*
X144106563Y-78555313D01*
X144200812Y-78664083D01*
X144321887Y-78741893D01*
X144321890Y-78741894D01*
X144321889Y-78741894D01*
X144459976Y-78782439D01*
X144459978Y-78782440D01*
X144459979Y-78782440D01*
X144603902Y-78782440D01*
X144603902Y-78782439D01*
X144741993Y-78741893D01*
X144863068Y-78664083D01*
X144957317Y-78555313D01*
X145017105Y-78424397D01*
X145034990Y-78300000D01*
X158094353Y-78300000D01*
X158114834Y-78442456D01*
X158162143Y-78546047D01*
X158174623Y-78573373D01*
X158268872Y-78682143D01*
X158389947Y-78759953D01*
X158389950Y-78759954D01*
X158389949Y-78759954D01*
X158497107Y-78791417D01*
X158524633Y-78799500D01*
X158528036Y-78800499D01*
X158528038Y-78800500D01*
X158528039Y-78800500D01*
X158671962Y-78800500D01*
X158671962Y-78800499D01*
X158779121Y-78769035D01*
X158810050Y-78759954D01*
X158810050Y-78759953D01*
X158810053Y-78759953D01*
X158931128Y-78682143D01*
X158983675Y-78621500D01*
X160094353Y-78621500D01*
X160114834Y-78763956D01*
X160157575Y-78857543D01*
X160174623Y-78894873D01*
X160268872Y-79003643D01*
X160389947Y-79081453D01*
X160389950Y-79081454D01*
X160389949Y-79081454D01*
X160528036Y-79121999D01*
X160528038Y-79122000D01*
X160528039Y-79122000D01*
X160671962Y-79122000D01*
X160671962Y-79121999D01*
X160810053Y-79081453D01*
X160931128Y-79003643D01*
X161025377Y-78894873D01*
X161085165Y-78763957D01*
X161105647Y-78621500D01*
X161085165Y-78479043D01*
X161025377Y-78348127D01*
X160931128Y-78239357D01*
X160810053Y-78161547D01*
X160810051Y-78161546D01*
X160810049Y-78161545D01*
X160810050Y-78161545D01*
X160671963Y-78121000D01*
X160671961Y-78121000D01*
X160528039Y-78121000D01*
X160528036Y-78121000D01*
X160389949Y-78161545D01*
X160268873Y-78239356D01*
X160174623Y-78348126D01*
X160174622Y-78348128D01*
X160114834Y-78479043D01*
X160094353Y-78621500D01*
X158983675Y-78621500D01*
X159025377Y-78573373D01*
X159085165Y-78442457D01*
X159105647Y-78300000D01*
X159085165Y-78157543D01*
X159025377Y-78026627D01*
X158931128Y-77917857D01*
X158810053Y-77840047D01*
X158810051Y-77840046D01*
X158810049Y-77840045D01*
X158810050Y-77840045D01*
X158671963Y-77799500D01*
X158671961Y-77799500D01*
X158528039Y-77799500D01*
X158528036Y-77799500D01*
X158389949Y-77840045D01*
X158268873Y-77917856D01*
X158174623Y-78026626D01*
X158174622Y-78026628D01*
X158114834Y-78157543D01*
X158094353Y-78300000D01*
X145034990Y-78300000D01*
X145037587Y-78281940D01*
X145017105Y-78139483D01*
X144957317Y-78008567D01*
X144863068Y-77899797D01*
X144741993Y-77821987D01*
X144741991Y-77821986D01*
X144741989Y-77821985D01*
X144741990Y-77821985D01*
X144603903Y-77781440D01*
X144603901Y-77781440D01*
X144459979Y-77781440D01*
X144459976Y-77781440D01*
X144321889Y-77821985D01*
X144200813Y-77899796D01*
X144200812Y-77899796D01*
X144200812Y-77899797D01*
X144188230Y-77914317D01*
X144106563Y-78008566D01*
X144106562Y-78008568D01*
X144046774Y-78139483D01*
X144026293Y-78281940D01*
X140432446Y-78281940D01*
X140321963Y-78249500D01*
X140321961Y-78249500D01*
X140178039Y-78249500D01*
X140178036Y-78249500D01*
X140039949Y-78290045D01*
X139918873Y-78367856D01*
X139824623Y-78476626D01*
X139824622Y-78476628D01*
X139764834Y-78607543D01*
X139744353Y-78750000D01*
X138936051Y-78750000D01*
X138925377Y-78726627D01*
X138831128Y-78617857D01*
X138710053Y-78540047D01*
X138710051Y-78540046D01*
X138710049Y-78540045D01*
X138710050Y-78540045D01*
X138571963Y-78499500D01*
X138571961Y-78499500D01*
X138428039Y-78499500D01*
X138428036Y-78499500D01*
X138289949Y-78540045D01*
X138168873Y-78617856D01*
X138074623Y-78726626D01*
X138074622Y-78726628D01*
X138014834Y-78857543D01*
X137994353Y-79000000D01*
X137302305Y-79000000D01*
X137231128Y-78917857D01*
X137110053Y-78840047D01*
X137110051Y-78840046D01*
X137110049Y-78840045D01*
X137110050Y-78840045D01*
X136971963Y-78799500D01*
X136971961Y-78799500D01*
X136828039Y-78799500D01*
X136828036Y-78799500D01*
X136689949Y-78840045D01*
X136568873Y-78917856D01*
X136474623Y-79026626D01*
X136474622Y-79026628D01*
X136414834Y-79157543D01*
X136394353Y-79300000D01*
X127621410Y-79300000D01*
X127493694Y-79262500D01*
X127493692Y-79262500D01*
X127349770Y-79262500D01*
X127349767Y-79262500D01*
X127211680Y-79303045D01*
X127090604Y-79380856D01*
X126996354Y-79489626D01*
X126996353Y-79489628D01*
X126936565Y-79620543D01*
X126916084Y-79763000D01*
X115772115Y-79763000D01*
X115770765Y-79006000D01*
X124970353Y-79006000D01*
X124990834Y-79148456D01*
X125037437Y-79250500D01*
X125050623Y-79279373D01*
X125144872Y-79388143D01*
X125265947Y-79465953D01*
X125265950Y-79465954D01*
X125265949Y-79465954D01*
X125404036Y-79506499D01*
X125404038Y-79506500D01*
X125404039Y-79506500D01*
X125547962Y-79506500D01*
X125547962Y-79506499D01*
X125686053Y-79465953D01*
X125807128Y-79388143D01*
X125901377Y-79279373D01*
X125961165Y-79148457D01*
X125981647Y-79006000D01*
X125961165Y-78863543D01*
X125901377Y-78732627D01*
X125807128Y-78623857D01*
X125686053Y-78546047D01*
X125686051Y-78546046D01*
X125686049Y-78546045D01*
X125686050Y-78546045D01*
X125547963Y-78505500D01*
X125547961Y-78505500D01*
X125404039Y-78505500D01*
X125404036Y-78505500D01*
X125265949Y-78546045D01*
X125144873Y-78623856D01*
X125050623Y-78732626D01*
X125050622Y-78732628D01*
X124990834Y-78863543D01*
X124970353Y-79006000D01*
X115770765Y-79006000D01*
X115768448Y-77706940D01*
X145601293Y-77706940D01*
X145621774Y-77849396D01*
X145674511Y-77964871D01*
X145681563Y-77980313D01*
X145775812Y-78089083D01*
X145896887Y-78166893D01*
X145896890Y-78166894D01*
X145896889Y-78166894D01*
X146034976Y-78207439D01*
X146034978Y-78207440D01*
X146034979Y-78207440D01*
X146178902Y-78207440D01*
X146178902Y-78207439D01*
X146316993Y-78166893D01*
X146438068Y-78089083D01*
X146532317Y-77980313D01*
X146592105Y-77849397D01*
X146612587Y-77706940D01*
X146592105Y-77564483D01*
X146532317Y-77433567D01*
X146438068Y-77324797D01*
X146316993Y-77246987D01*
X146316991Y-77246986D01*
X146316989Y-77246985D01*
X146316990Y-77246985D01*
X146178903Y-77206440D01*
X146178901Y-77206440D01*
X146034979Y-77206440D01*
X146034976Y-77206440D01*
X145896889Y-77246985D01*
X145775813Y-77324796D01*
X145681563Y-77433566D01*
X145681562Y-77433568D01*
X145621774Y-77564483D01*
X145601293Y-77706940D01*
X115768448Y-77706940D01*
X115766667Y-76708001D01*
X118774318Y-76708001D01*
X118794955Y-76864760D01*
X118794956Y-76864762D01*
X118855464Y-77010841D01*
X118951718Y-77136282D01*
X119077159Y-77232536D01*
X119223238Y-77293044D01*
X119301619Y-77303363D01*
X119379999Y-77313682D01*
X119380000Y-77313682D01*
X119380001Y-77313682D01*
X119432254Y-77306802D01*
X119536762Y-77293044D01*
X119682841Y-77232536D01*
X119808282Y-77136282D01*
X119836122Y-77100000D01*
X147994353Y-77100000D01*
X148014834Y-77242456D01*
X148070285Y-77363875D01*
X148074623Y-77373373D01*
X148168872Y-77482143D01*
X148289947Y-77559953D01*
X148289950Y-77559954D01*
X148289949Y-77559954D01*
X148428036Y-77600499D01*
X148428038Y-77600500D01*
X148428039Y-77600500D01*
X148571962Y-77600500D01*
X148571962Y-77600499D01*
X148710053Y-77559953D01*
X148831128Y-77482143D01*
X148925377Y-77373373D01*
X148985165Y-77242457D01*
X149005647Y-77100000D01*
X148985165Y-76957543D01*
X148925377Y-76826627D01*
X148831128Y-76717857D01*
X148710053Y-76640047D01*
X148710051Y-76640046D01*
X148710049Y-76640045D01*
X148710050Y-76640045D01*
X148571963Y-76599500D01*
X148571961Y-76599500D01*
X148428039Y-76599500D01*
X148428036Y-76599500D01*
X148289949Y-76640045D01*
X148168873Y-76717856D01*
X148074623Y-76826626D01*
X148074622Y-76826628D01*
X148014834Y-76957543D01*
X147994353Y-77100000D01*
X119836122Y-77100000D01*
X119904536Y-77010841D01*
X119965044Y-76864762D01*
X119984384Y-76717857D01*
X119985682Y-76708001D01*
X119985682Y-76707998D01*
X119965044Y-76551239D01*
X119965044Y-76551238D01*
X119904536Y-76405159D01*
X119808282Y-76279718D01*
X119682841Y-76183464D01*
X119536762Y-76122956D01*
X119536760Y-76122955D01*
X119380001Y-76102318D01*
X119379999Y-76102318D01*
X119223239Y-76122955D01*
X119223237Y-76122956D01*
X119077160Y-76183463D01*
X118951718Y-76279718D01*
X118855463Y-76405160D01*
X118794956Y-76551237D01*
X118794955Y-76551239D01*
X118774318Y-76707998D01*
X118774318Y-76708001D01*
X115766667Y-76708001D01*
X115764855Y-75692000D01*
X165102353Y-75692000D01*
X165122834Y-75834456D01*
X165128626Y-75847138D01*
X165182623Y-75965373D01*
X165276872Y-76074143D01*
X165397947Y-76151953D01*
X165397950Y-76151954D01*
X165397949Y-76151954D01*
X165536036Y-76192499D01*
X165536038Y-76192500D01*
X165536039Y-76192500D01*
X165679962Y-76192500D01*
X165679962Y-76192499D01*
X165818053Y-76151953D01*
X165939128Y-76074143D01*
X166033377Y-75965373D01*
X166093165Y-75834457D01*
X166113647Y-75692000D01*
X166372353Y-75692000D01*
X166392834Y-75834456D01*
X166398626Y-75847138D01*
X166452623Y-75965373D01*
X166546872Y-76074143D01*
X166667947Y-76151953D01*
X166667950Y-76151954D01*
X166667949Y-76151954D01*
X166806036Y-76192499D01*
X166806038Y-76192500D01*
X166806039Y-76192500D01*
X166949962Y-76192500D01*
X166949962Y-76192499D01*
X167088053Y-76151953D01*
X167209128Y-76074143D01*
X167303377Y-75965373D01*
X167363165Y-75834457D01*
X167383647Y-75692000D01*
X167642353Y-75692000D01*
X167662834Y-75834456D01*
X167668626Y-75847138D01*
X167722623Y-75965373D01*
X167816872Y-76074143D01*
X167937947Y-76151953D01*
X167937950Y-76151954D01*
X167937949Y-76151954D01*
X168076036Y-76192499D01*
X168076038Y-76192500D01*
X168076039Y-76192500D01*
X168219962Y-76192500D01*
X168219962Y-76192499D01*
X168358053Y-76151953D01*
X168479128Y-76074143D01*
X168573377Y-75965373D01*
X168633165Y-75834457D01*
X168653647Y-75692000D01*
X168912353Y-75692000D01*
X168932834Y-75834456D01*
X168938626Y-75847138D01*
X168992623Y-75965373D01*
X169086872Y-76074143D01*
X169207947Y-76151953D01*
X169207950Y-76151954D01*
X169207949Y-76151954D01*
X169346036Y-76192499D01*
X169346038Y-76192500D01*
X169346039Y-76192500D01*
X169489962Y-76192500D01*
X169489962Y-76192499D01*
X169628053Y-76151953D01*
X169749128Y-76074143D01*
X169843377Y-75965373D01*
X169903165Y-75834457D01*
X169923647Y-75692000D01*
X170182353Y-75692000D01*
X170202834Y-75834456D01*
X170208626Y-75847138D01*
X170262623Y-75965373D01*
X170356872Y-76074143D01*
X170477947Y-76151953D01*
X170477950Y-76151954D01*
X170477949Y-76151954D01*
X170616036Y-76192499D01*
X170616038Y-76192500D01*
X170616039Y-76192500D01*
X170759962Y-76192500D01*
X170759962Y-76192499D01*
X170898053Y-76151953D01*
X171019128Y-76074143D01*
X171113377Y-75965373D01*
X171173165Y-75834457D01*
X171193647Y-75692000D01*
X171452353Y-75692000D01*
X171472834Y-75834456D01*
X171478626Y-75847138D01*
X171532623Y-75965373D01*
X171626872Y-76074143D01*
X171747947Y-76151953D01*
X171747950Y-76151954D01*
X171747949Y-76151954D01*
X171886036Y-76192499D01*
X171886038Y-76192500D01*
X171886039Y-76192500D01*
X172029962Y-76192500D01*
X172029962Y-76192499D01*
X172168053Y-76151953D01*
X172289128Y-76074143D01*
X172383377Y-75965373D01*
X172443165Y-75834457D01*
X172463647Y-75692000D01*
X172722353Y-75692000D01*
X172742834Y-75834456D01*
X172748626Y-75847138D01*
X172802623Y-75965373D01*
X172896872Y-76074143D01*
X173017947Y-76151953D01*
X173017950Y-76151954D01*
X173017949Y-76151954D01*
X173156036Y-76192499D01*
X173156038Y-76192500D01*
X173156039Y-76192500D01*
X173299962Y-76192500D01*
X173299962Y-76192499D01*
X173438053Y-76151953D01*
X173559128Y-76074143D01*
X173653377Y-75965373D01*
X173713165Y-75834457D01*
X173733647Y-75692000D01*
X173713165Y-75549543D01*
X173653377Y-75418627D01*
X173559128Y-75309857D01*
X173438053Y-75232047D01*
X173438051Y-75232046D01*
X173438049Y-75232045D01*
X173438050Y-75232045D01*
X173299963Y-75191500D01*
X173299961Y-75191500D01*
X173156039Y-75191500D01*
X173156036Y-75191500D01*
X173017949Y-75232045D01*
X172896873Y-75309856D01*
X172802623Y-75418626D01*
X172802622Y-75418628D01*
X172742834Y-75549543D01*
X172722353Y-75692000D01*
X172463647Y-75692000D01*
X172443165Y-75549543D01*
X172383377Y-75418627D01*
X172289128Y-75309857D01*
X172168053Y-75232047D01*
X172168051Y-75232046D01*
X172168049Y-75232045D01*
X172168050Y-75232045D01*
X172029963Y-75191500D01*
X172029961Y-75191500D01*
X171886039Y-75191500D01*
X171886036Y-75191500D01*
X171747949Y-75232045D01*
X171626873Y-75309856D01*
X171532623Y-75418626D01*
X171532622Y-75418628D01*
X171472834Y-75549543D01*
X171452353Y-75692000D01*
X171193647Y-75692000D01*
X171173165Y-75549543D01*
X171113377Y-75418627D01*
X171019128Y-75309857D01*
X170898053Y-75232047D01*
X170898051Y-75232046D01*
X170898049Y-75232045D01*
X170898050Y-75232045D01*
X170759963Y-75191500D01*
X170759961Y-75191500D01*
X170616039Y-75191500D01*
X170616036Y-75191500D01*
X170477949Y-75232045D01*
X170356873Y-75309856D01*
X170262623Y-75418626D01*
X170262622Y-75418628D01*
X170202834Y-75549543D01*
X170182353Y-75692000D01*
X169923647Y-75692000D01*
X169903165Y-75549543D01*
X169843377Y-75418627D01*
X169749128Y-75309857D01*
X169628053Y-75232047D01*
X169628051Y-75232046D01*
X169628049Y-75232045D01*
X169628050Y-75232045D01*
X169489963Y-75191500D01*
X169489961Y-75191500D01*
X169346039Y-75191500D01*
X169346036Y-75191500D01*
X169207949Y-75232045D01*
X169086873Y-75309856D01*
X168992623Y-75418626D01*
X168992622Y-75418628D01*
X168932834Y-75549543D01*
X168912353Y-75692000D01*
X168653647Y-75692000D01*
X168633165Y-75549543D01*
X168573377Y-75418627D01*
X168479128Y-75309857D01*
X168358053Y-75232047D01*
X168358051Y-75232046D01*
X168358049Y-75232045D01*
X168358050Y-75232045D01*
X168219963Y-75191500D01*
X168219961Y-75191500D01*
X168076039Y-75191500D01*
X168076036Y-75191500D01*
X167937949Y-75232045D01*
X167816873Y-75309856D01*
X167722623Y-75418626D01*
X167722622Y-75418628D01*
X167662834Y-75549543D01*
X167642353Y-75692000D01*
X167383647Y-75692000D01*
X167363165Y-75549543D01*
X167303377Y-75418627D01*
X167209128Y-75309857D01*
X167088053Y-75232047D01*
X167088051Y-75232046D01*
X167088049Y-75232045D01*
X167088050Y-75232045D01*
X166949963Y-75191500D01*
X166949961Y-75191500D01*
X166806039Y-75191500D01*
X166806036Y-75191500D01*
X166667949Y-75232045D01*
X166546873Y-75309856D01*
X166452623Y-75418626D01*
X166452622Y-75418628D01*
X166392834Y-75549543D01*
X166372353Y-75692000D01*
X166113647Y-75692000D01*
X166093165Y-75549543D01*
X166033377Y-75418627D01*
X165939128Y-75309857D01*
X165818053Y-75232047D01*
X165818051Y-75232046D01*
X165818049Y-75232045D01*
X165818050Y-75232045D01*
X165679963Y-75191500D01*
X165679961Y-75191500D01*
X165536039Y-75191500D01*
X165536036Y-75191500D01*
X165397949Y-75232045D01*
X165276873Y-75309856D01*
X165182623Y-75418626D01*
X165182622Y-75418628D01*
X165122834Y-75549543D01*
X165102353Y-75692000D01*
X115764855Y-75692000D01*
X115762589Y-74422000D01*
X174500353Y-74422000D01*
X174520834Y-74564456D01*
X174574290Y-74681506D01*
X174580623Y-74695373D01*
X174674872Y-74804143D01*
X174795947Y-74881953D01*
X174795950Y-74881954D01*
X174795949Y-74881954D01*
X174934036Y-74922499D01*
X174934038Y-74922500D01*
X174934039Y-74922500D01*
X175077962Y-74922500D01*
X175077962Y-74922499D01*
X175216053Y-74881953D01*
X175337128Y-74804143D01*
X175431377Y-74695373D01*
X175491165Y-74564457D01*
X175511647Y-74422000D01*
X175491165Y-74279543D01*
X175431377Y-74148627D01*
X175337128Y-74039857D01*
X175216053Y-73962047D01*
X175216051Y-73962046D01*
X175216049Y-73962045D01*
X175216050Y-73962045D01*
X175077963Y-73921500D01*
X175077961Y-73921500D01*
X174934039Y-73921500D01*
X174934036Y-73921500D01*
X174795949Y-73962045D01*
X174674873Y-74039856D01*
X174580623Y-74148626D01*
X174580622Y-74148628D01*
X174520834Y-74279543D01*
X174500353Y-74422000D01*
X115762589Y-74422000D01*
X115761230Y-73660001D01*
X121314318Y-73660001D01*
X121334955Y-73816760D01*
X121334956Y-73816762D01*
X121373576Y-73910000D01*
X121395464Y-73962841D01*
X121491718Y-74088282D01*
X121617159Y-74184536D01*
X121763238Y-74245044D01*
X121841619Y-74255363D01*
X121919999Y-74265682D01*
X121920000Y-74265682D01*
X121920001Y-74265682D01*
X121972254Y-74258802D01*
X122076762Y-74245044D01*
X122222841Y-74184536D01*
X122348282Y-74088282D01*
X122444536Y-73962841D01*
X122505044Y-73816762D01*
X122525682Y-73660000D01*
X122524694Y-73652499D01*
X122505044Y-73503239D01*
X122505044Y-73503238D01*
X122464767Y-73406000D01*
X124566822Y-73406000D01*
X124587303Y-73548456D01*
X124638245Y-73660001D01*
X124647092Y-73679373D01*
X124741341Y-73788143D01*
X124862416Y-73865953D01*
X124862419Y-73865954D01*
X124862418Y-73865954D01*
X125000505Y-73906499D01*
X125000507Y-73906500D01*
X125000508Y-73906500D01*
X125144431Y-73906500D01*
X125144431Y-73906499D01*
X125282522Y-73865953D01*
X125403597Y-73788143D01*
X125497846Y-73679373D01*
X125557634Y-73548457D01*
X125578116Y-73406000D01*
X126240353Y-73406000D01*
X126260834Y-73548456D01*
X126311776Y-73660001D01*
X126320623Y-73679373D01*
X126414872Y-73788143D01*
X126535947Y-73865953D01*
X126535950Y-73865954D01*
X126535949Y-73865954D01*
X126674036Y-73906499D01*
X126674038Y-73906500D01*
X126674039Y-73906500D01*
X126817962Y-73906500D01*
X126817962Y-73906499D01*
X126956053Y-73865953D01*
X127077128Y-73788143D01*
X127171377Y-73679373D01*
X127231165Y-73548457D01*
X127251647Y-73406000D01*
X127231165Y-73263543D01*
X127180224Y-73152000D01*
X174500353Y-73152000D01*
X174520834Y-73294456D01*
X174580622Y-73425371D01*
X174580623Y-73425373D01*
X174674872Y-73534143D01*
X174795947Y-73611953D01*
X174795950Y-73611954D01*
X174795949Y-73611954D01*
X174934036Y-73652499D01*
X174934038Y-73652500D01*
X174934039Y-73652500D01*
X175077962Y-73652500D01*
X175077962Y-73652499D01*
X175216053Y-73611953D01*
X175337128Y-73534143D01*
X175431377Y-73425373D01*
X175491165Y-73294457D01*
X175511647Y-73152000D01*
X175491165Y-73009543D01*
X175431377Y-72878627D01*
X175337128Y-72769857D01*
X175216053Y-72692047D01*
X175216051Y-72692046D01*
X175216049Y-72692045D01*
X175216050Y-72692045D01*
X175077963Y-72651500D01*
X175077961Y-72651500D01*
X174934039Y-72651500D01*
X174934036Y-72651500D01*
X174795949Y-72692045D01*
X174674873Y-72769856D01*
X174580623Y-72878626D01*
X174580622Y-72878628D01*
X174520834Y-73009543D01*
X174500353Y-73152000D01*
X127180224Y-73152000D01*
X127171377Y-73132627D01*
X127077128Y-73023857D01*
X126956053Y-72946047D01*
X126956051Y-72946046D01*
X126956049Y-72946045D01*
X126956050Y-72946045D01*
X126817963Y-72905500D01*
X126817961Y-72905500D01*
X126674039Y-72905500D01*
X126674036Y-72905500D01*
X126535949Y-72946045D01*
X126414873Y-73023856D01*
X126320623Y-73132626D01*
X126320622Y-73132628D01*
X126260834Y-73263543D01*
X126240353Y-73406000D01*
X125578116Y-73406000D01*
X125557634Y-73263543D01*
X125497846Y-73132627D01*
X125403597Y-73023857D01*
X125282522Y-72946047D01*
X125282520Y-72946046D01*
X125282518Y-72946045D01*
X125282519Y-72946045D01*
X125144432Y-72905500D01*
X125144430Y-72905500D01*
X125000508Y-72905500D01*
X125000505Y-72905500D01*
X124862418Y-72946045D01*
X124741342Y-73023856D01*
X124647092Y-73132626D01*
X124647091Y-73132628D01*
X124587303Y-73263543D01*
X124566822Y-73406000D01*
X122464767Y-73406000D01*
X122444536Y-73357159D01*
X122348282Y-73231718D01*
X122222841Y-73135464D01*
X122215994Y-73132628D01*
X122076762Y-73074956D01*
X122076760Y-73074955D01*
X121920001Y-73054318D01*
X121919999Y-73054318D01*
X121763239Y-73074955D01*
X121763237Y-73074956D01*
X121617160Y-73135463D01*
X121491718Y-73231718D01*
X121395463Y-73357160D01*
X121334956Y-73503237D01*
X121334955Y-73503239D01*
X121314318Y-73659998D01*
X121314318Y-73660001D01*
X115761230Y-73660001D01*
X115759418Y-72644001D01*
X119431888Y-72644001D01*
X119452525Y-72800760D01*
X119452526Y-72800762D01*
X119487365Y-72884872D01*
X119513034Y-72946841D01*
X119609288Y-73072282D01*
X119734729Y-73168536D01*
X119880808Y-73229044D01*
X119959189Y-73239363D01*
X120037569Y-73249682D01*
X120037570Y-73249682D01*
X120037571Y-73249682D01*
X120089824Y-73242802D01*
X120194332Y-73229044D01*
X120340411Y-73168536D01*
X120465852Y-73072282D01*
X120562106Y-72946841D01*
X120622614Y-72800762D01*
X120643252Y-72644000D01*
X120622614Y-72487238D01*
X120562106Y-72341159D01*
X120465852Y-72215718D01*
X120340411Y-72119464D01*
X120194332Y-72058956D01*
X120194330Y-72058955D01*
X120037571Y-72038318D01*
X120037569Y-72038318D01*
X119880809Y-72058955D01*
X119880807Y-72058956D01*
X119734730Y-72119463D01*
X119609288Y-72215718D01*
X119513033Y-72341160D01*
X119452526Y-72487237D01*
X119452525Y-72487239D01*
X119431888Y-72643998D01*
X119431888Y-72644001D01*
X115759418Y-72644001D01*
X115757307Y-71460501D01*
X155858318Y-71460501D01*
X155878955Y-71617260D01*
X155878956Y-71617262D01*
X155929606Y-71739543D01*
X155939464Y-71763341D01*
X156035718Y-71888782D01*
X156161159Y-71985036D01*
X156307238Y-72045544D01*
X156385619Y-72055863D01*
X156463999Y-72066182D01*
X156464000Y-72066182D01*
X156464001Y-72066182D01*
X156518895Y-72058955D01*
X156620762Y-72045544D01*
X156766841Y-71985036D01*
X156892282Y-71888782D01*
X156897486Y-71882000D01*
X174500353Y-71882000D01*
X174520834Y-72024456D01*
X174536590Y-72058956D01*
X174580623Y-72155373D01*
X174674872Y-72264143D01*
X174795947Y-72341953D01*
X174795950Y-72341954D01*
X174795949Y-72341954D01*
X174934036Y-72382499D01*
X174934038Y-72382500D01*
X174934039Y-72382500D01*
X175077962Y-72382500D01*
X175077962Y-72382499D01*
X175216053Y-72341953D01*
X175337128Y-72264143D01*
X175431377Y-72155373D01*
X175491165Y-72024457D01*
X175511647Y-71882000D01*
X175491165Y-71739543D01*
X175431377Y-71608627D01*
X175337128Y-71499857D01*
X175216053Y-71422047D01*
X175216051Y-71422046D01*
X175216049Y-71422045D01*
X175216050Y-71422045D01*
X175077963Y-71381500D01*
X175077961Y-71381500D01*
X174934039Y-71381500D01*
X174934036Y-71381500D01*
X174795949Y-71422045D01*
X174674873Y-71499856D01*
X174580623Y-71608626D01*
X174580622Y-71608628D01*
X174520834Y-71739543D01*
X174500353Y-71882000D01*
X156897486Y-71882000D01*
X156988536Y-71763341D01*
X157049044Y-71617262D01*
X157069682Y-71460500D01*
X157049044Y-71303738D01*
X156988536Y-71157659D01*
X156892282Y-71032218D01*
X156766841Y-70935964D01*
X156620762Y-70875456D01*
X156620760Y-70875455D01*
X156464001Y-70854818D01*
X156463999Y-70854818D01*
X156307239Y-70875455D01*
X156307237Y-70875456D01*
X156161160Y-70935963D01*
X156035718Y-71032218D01*
X155939463Y-71157660D01*
X155878956Y-71303737D01*
X155878955Y-71303739D01*
X155858318Y-71460498D01*
X155858318Y-71460501D01*
X115757307Y-71460501D01*
X115755794Y-70612001D01*
X120298318Y-70612001D01*
X120318955Y-70768760D01*
X120318956Y-70768762D01*
X120379464Y-70914841D01*
X120475718Y-71040282D01*
X120601159Y-71136536D01*
X120747238Y-71197044D01*
X120825619Y-71207363D01*
X120903999Y-71217682D01*
X120904000Y-71217682D01*
X120904001Y-71217682D01*
X120979206Y-71207781D01*
X121060762Y-71197044D01*
X121206841Y-71136536D01*
X121332282Y-71040282D01*
X121428536Y-70914841D01*
X121484596Y-70779501D01*
X153538985Y-70779501D01*
X153559622Y-70936260D01*
X153559623Y-70936262D01*
X153602709Y-71040282D01*
X153620131Y-71082341D01*
X153716385Y-71207782D01*
X153841826Y-71304036D01*
X153987905Y-71364544D01*
X154029348Y-71370000D01*
X154144666Y-71385182D01*
X154144667Y-71385182D01*
X154144668Y-71385182D01*
X154196921Y-71378302D01*
X154301429Y-71364544D01*
X154447508Y-71304036D01*
X154572949Y-71207782D01*
X154669203Y-71082341D01*
X154729711Y-70936262D01*
X154750349Y-70779500D01*
X154748935Y-70768762D01*
X154729711Y-70622739D01*
X154729711Y-70622738D01*
X154669203Y-70476659D01*
X154572949Y-70351218D01*
X154447508Y-70254964D01*
X154386515Y-70229700D01*
X154301429Y-70194456D01*
X154301427Y-70194455D01*
X154144668Y-70173818D01*
X154144666Y-70173818D01*
X153987906Y-70194455D01*
X153987904Y-70194456D01*
X153841827Y-70254963D01*
X153716385Y-70351218D01*
X153620130Y-70476660D01*
X153559623Y-70622737D01*
X153559622Y-70622739D01*
X153538985Y-70779498D01*
X153538985Y-70779501D01*
X121484596Y-70779501D01*
X121489044Y-70768762D01*
X121508268Y-70622738D01*
X121509682Y-70612001D01*
X121509682Y-70611998D01*
X121489161Y-70456124D01*
X121489044Y-70455238D01*
X121428536Y-70309159D01*
X121332282Y-70183718D01*
X121206841Y-70087464D01*
X121060762Y-70026956D01*
X121060760Y-70026955D01*
X120904001Y-70006318D01*
X120903999Y-70006318D01*
X120747239Y-70026955D01*
X120747237Y-70026956D01*
X120601160Y-70087463D01*
X120475718Y-70183718D01*
X120379463Y-70309160D01*
X120318956Y-70455237D01*
X120318955Y-70455239D01*
X120298318Y-70611998D01*
X120298318Y-70612001D01*
X115755794Y-70612001D01*
X115753183Y-69148010D01*
X122246309Y-69148010D01*
X122266946Y-69304769D01*
X122266947Y-69304771D01*
X122327455Y-69450850D01*
X122423709Y-69576291D01*
X122549150Y-69672545D01*
X122695229Y-69733053D01*
X122773610Y-69743372D01*
X122851990Y-69753691D01*
X122851991Y-69753691D01*
X122851992Y-69753691D01*
X122926551Y-69743875D01*
X123008753Y-69733053D01*
X123154832Y-69672545D01*
X123280273Y-69576291D01*
X123376527Y-69450850D01*
X123437035Y-69304771D01*
X123457673Y-69148009D01*
X123437035Y-68991247D01*
X123376527Y-68845168D01*
X123280273Y-68719727D01*
X123154832Y-68623473D01*
X123145409Y-68619570D01*
X123008753Y-68562965D01*
X123008751Y-68562964D01*
X122851992Y-68542327D01*
X122851990Y-68542327D01*
X122695230Y-68562964D01*
X122695228Y-68562965D01*
X122549151Y-68623472D01*
X122423709Y-68719727D01*
X122327454Y-68845169D01*
X122266947Y-68991246D01*
X122266946Y-68991248D01*
X122246309Y-69148007D01*
X122246309Y-69148010D01*
X115753183Y-69148010D01*
X115750312Y-67538600D01*
X123624153Y-67538600D01*
X123644634Y-67681056D01*
X123701180Y-67804872D01*
X123704423Y-67811973D01*
X123798672Y-67920743D01*
X123919747Y-67998553D01*
X123919750Y-67998554D01*
X123919749Y-67998554D01*
X124057836Y-68039099D01*
X124057838Y-68039100D01*
X124057839Y-68039100D01*
X124201762Y-68039100D01*
X124201762Y-68039099D01*
X124339853Y-67998553D01*
X124460928Y-67920743D01*
X124555177Y-67811973D01*
X124614965Y-67681057D01*
X124620839Y-67640200D01*
X125986353Y-67640200D01*
X126006834Y-67782656D01*
X126060424Y-67900000D01*
X126066623Y-67913573D01*
X126160872Y-68022343D01*
X126281947Y-68100153D01*
X126281950Y-68100154D01*
X126281949Y-68100154D01*
X126420036Y-68140699D01*
X126420038Y-68140700D01*
X126420039Y-68140700D01*
X126563962Y-68140700D01*
X126563962Y-68140699D01*
X126702053Y-68100153D01*
X126823128Y-68022343D01*
X126917377Y-67913573D01*
X126923576Y-67900000D01*
X140894353Y-67900000D01*
X140914834Y-68042456D01*
X140974622Y-68173371D01*
X140974623Y-68173373D01*
X141068872Y-68282143D01*
X141189947Y-68359953D01*
X141189950Y-68359954D01*
X141189949Y-68359954D01*
X141328036Y-68400499D01*
X141328038Y-68400500D01*
X141328039Y-68400500D01*
X141471962Y-68400500D01*
X141471962Y-68400499D01*
X141610053Y-68359953D01*
X141731128Y-68282143D01*
X141825377Y-68173373D01*
X141885165Y-68042457D01*
X141905647Y-67900000D01*
X152894353Y-67900000D01*
X152914834Y-68042456D01*
X152974622Y-68173371D01*
X152974623Y-68173373D01*
X153068872Y-68282143D01*
X153189947Y-68359953D01*
X153189950Y-68359954D01*
X153189949Y-68359954D01*
X153328036Y-68400499D01*
X153328038Y-68400500D01*
X153328039Y-68400500D01*
X153471962Y-68400500D01*
X153471962Y-68400499D01*
X153610053Y-68359953D01*
X153731128Y-68282143D01*
X153825377Y-68173373D01*
X153885165Y-68042457D01*
X153905647Y-67900000D01*
X153894109Y-67819754D01*
X153904052Y-67750599D01*
X153949807Y-67697795D01*
X154016846Y-67678110D01*
X154083886Y-67697794D01*
X154181386Y-67760453D01*
X154181389Y-67760454D01*
X154181388Y-67760454D01*
X154288546Y-67791917D01*
X154299554Y-67795150D01*
X154319475Y-67800999D01*
X154319477Y-67801000D01*
X154319478Y-67801000D01*
X154463401Y-67801000D01*
X154463401Y-67800999D01*
X154601492Y-67760453D01*
X154722567Y-67682643D01*
X154816816Y-67573873D01*
X154876604Y-67442957D01*
X154897086Y-67300500D01*
X154876604Y-67158043D01*
X154816816Y-67027127D01*
X154722567Y-66918357D01*
X154601492Y-66840547D01*
X154601490Y-66840546D01*
X154601488Y-66840545D01*
X154601489Y-66840545D01*
X154481555Y-66805330D01*
X154422776Y-66767556D01*
X154393751Y-66704000D01*
X154393751Y-66700000D01*
X156694353Y-66700000D01*
X156714834Y-66842456D01*
X156772220Y-66968112D01*
X156774623Y-66973373D01*
X156868872Y-67082143D01*
X156989947Y-67159953D01*
X156989950Y-67159954D01*
X156989949Y-67159954D01*
X157128036Y-67200499D01*
X157128038Y-67200500D01*
X157128039Y-67200500D01*
X157271962Y-67200500D01*
X157271962Y-67200499D01*
X157410053Y-67159953D01*
X157531128Y-67082143D01*
X157625377Y-66973373D01*
X157685165Y-66842457D01*
X157705647Y-66700000D01*
X157685165Y-66557543D01*
X157625377Y-66426627D01*
X157609835Y-66408691D01*
X157580811Y-66345136D01*
X157590755Y-66275978D01*
X157636507Y-66223175D01*
X157656631Y-66210243D01*
X157750880Y-66101473D01*
X157810668Y-65970557D01*
X157831150Y-65828100D01*
X157810668Y-65685643D01*
X157750880Y-65554727D01*
X157656631Y-65445957D01*
X157535556Y-65368147D01*
X157535554Y-65368146D01*
X157535552Y-65368145D01*
X157535553Y-65368145D01*
X157397466Y-65327600D01*
X157397464Y-65327600D01*
X157253542Y-65327600D01*
X157253539Y-65327600D01*
X157115452Y-65368145D01*
X156994376Y-65445956D01*
X156900126Y-65554726D01*
X156900125Y-65554728D01*
X156840337Y-65685643D01*
X156819856Y-65828100D01*
X156840337Y-65970556D01*
X156888264Y-66075500D01*
X156900126Y-66101473D01*
X156915486Y-66119200D01*
X156915666Y-66119407D01*
X156944691Y-66182963D01*
X156934747Y-66252122D01*
X156888995Y-66304924D01*
X156868873Y-66317855D01*
X156774623Y-66426626D01*
X156774622Y-66426628D01*
X156714834Y-66557543D01*
X156694353Y-66700000D01*
X154393751Y-66700000D01*
X154393751Y-66668707D01*
X154404842Y-66591566D01*
X154433865Y-66528013D01*
X154492643Y-66490238D01*
X154562514Y-66490238D01*
X154621098Y-66507440D01*
X154621099Y-66507440D01*
X154765022Y-66507440D01*
X154765022Y-66507439D01*
X154903113Y-66466893D01*
X155024188Y-66389083D01*
X155118437Y-66280313D01*
X155178225Y-66149397D01*
X155198707Y-66006940D01*
X155178225Y-65864483D01*
X155118437Y-65733567D01*
X155024188Y-65624797D01*
X154903113Y-65546987D01*
X154903111Y-65546986D01*
X154903109Y-65546985D01*
X154903110Y-65546985D01*
X154765023Y-65506440D01*
X154765021Y-65506440D01*
X154621099Y-65506440D01*
X154621096Y-65506440D01*
X154483009Y-65546985D01*
X154361933Y-65624796D01*
X154267683Y-65733566D01*
X154267682Y-65733568D01*
X154207894Y-65864483D01*
X154188218Y-66001340D01*
X154159193Y-66064896D01*
X154100415Y-66102670D01*
X154030546Y-66102670D01*
X153971964Y-66085469D01*
X153971961Y-66085469D01*
X153828039Y-66085469D01*
X153828036Y-66085469D01*
X153689949Y-66126014D01*
X153568873Y-66203825D01*
X153474623Y-66312595D01*
X153474622Y-66312597D01*
X153414834Y-66443512D01*
X153394353Y-66585969D01*
X153414834Y-66728425D01*
X153466911Y-66842456D01*
X153474623Y-66859342D01*
X153568872Y-66968112D01*
X153689947Y-67045922D01*
X153689950Y-67045923D01*
X153689949Y-67045923D01*
X153809883Y-67081138D01*
X153868661Y-67118911D01*
X153897687Y-67182467D01*
X153897687Y-67217761D01*
X153886948Y-67292457D01*
X153885792Y-67300500D01*
X153897329Y-67380742D01*
X153887385Y-67449901D01*
X153841630Y-67502705D01*
X153774591Y-67522389D01*
X153707552Y-67502705D01*
X153610050Y-67440045D01*
X153471963Y-67399500D01*
X153471961Y-67399500D01*
X153328039Y-67399500D01*
X153328036Y-67399500D01*
X153189949Y-67440045D01*
X153068873Y-67517856D01*
X152974623Y-67626626D01*
X152974622Y-67626628D01*
X152914834Y-67757543D01*
X152894353Y-67900000D01*
X141905647Y-67900000D01*
X141885165Y-67757543D01*
X141825377Y-67626627D01*
X141731128Y-67517857D01*
X141610053Y-67440047D01*
X141610051Y-67440046D01*
X141610049Y-67440045D01*
X141610050Y-67440045D01*
X141471963Y-67399500D01*
X141471961Y-67399500D01*
X141328039Y-67399500D01*
X141328036Y-67399500D01*
X141189949Y-67440045D01*
X141068873Y-67517856D01*
X140974623Y-67626626D01*
X140974622Y-67626628D01*
X140914834Y-67757543D01*
X140894353Y-67900000D01*
X126923576Y-67900000D01*
X126977165Y-67782657D01*
X126997647Y-67640200D01*
X126977165Y-67497743D01*
X126917377Y-67366827D01*
X126823128Y-67258057D01*
X126702053Y-67180247D01*
X126702051Y-67180246D01*
X126702049Y-67180245D01*
X126702050Y-67180245D01*
X126599042Y-67150000D01*
X130644353Y-67150000D01*
X130664834Y-67292456D01*
X130698799Y-67366827D01*
X130724623Y-67423373D01*
X130818872Y-67532143D01*
X130939947Y-67609953D01*
X130939950Y-67609954D01*
X130939949Y-67609954D01*
X131078036Y-67650499D01*
X131078038Y-67650500D01*
X131078039Y-67650500D01*
X131221962Y-67650500D01*
X131221962Y-67650499D01*
X131360053Y-67609953D01*
X131481128Y-67532143D01*
X131575377Y-67423373D01*
X131635165Y-67292457D01*
X131655647Y-67150000D01*
X131635165Y-67007543D01*
X131575377Y-66876627D01*
X131481128Y-66767857D01*
X131375540Y-66700000D01*
X133194353Y-66700000D01*
X133214834Y-66842456D01*
X133272220Y-66968112D01*
X133274623Y-66973373D01*
X133368872Y-67082143D01*
X133489947Y-67159953D01*
X133489950Y-67159954D01*
X133489949Y-67159954D01*
X133628036Y-67200499D01*
X133628038Y-67200500D01*
X133628039Y-67200500D01*
X133771962Y-67200500D01*
X133771962Y-67200499D01*
X133910053Y-67159953D01*
X134031128Y-67082143D01*
X134125377Y-66973373D01*
X134185165Y-66842457D01*
X134205647Y-66700000D01*
X134185165Y-66557543D01*
X134125377Y-66426627D01*
X134031128Y-66317857D01*
X133910053Y-66240047D01*
X133910051Y-66240046D01*
X133910049Y-66240045D01*
X133910050Y-66240045D01*
X133771963Y-66199500D01*
X133771961Y-66199500D01*
X133628039Y-66199500D01*
X133628036Y-66199500D01*
X133489949Y-66240045D01*
X133368873Y-66317856D01*
X133274623Y-66426626D01*
X133274622Y-66426628D01*
X133214834Y-66557543D01*
X133194353Y-66700000D01*
X131375540Y-66700000D01*
X131360053Y-66690047D01*
X131360051Y-66690046D01*
X131360049Y-66690045D01*
X131360050Y-66690045D01*
X131221963Y-66649500D01*
X131221961Y-66649500D01*
X131078039Y-66649500D01*
X131078036Y-66649500D01*
X130939949Y-66690045D01*
X130818873Y-66767856D01*
X130724623Y-66876626D01*
X130724622Y-66876628D01*
X130664834Y-67007543D01*
X130644353Y-67150000D01*
X126599042Y-67150000D01*
X126563963Y-67139700D01*
X126563961Y-67139700D01*
X126420039Y-67139700D01*
X126420036Y-67139700D01*
X126281949Y-67180245D01*
X126160873Y-67258056D01*
X126066623Y-67366826D01*
X126066622Y-67366828D01*
X126006834Y-67497743D01*
X125986353Y-67640200D01*
X124620839Y-67640200D01*
X124635447Y-67538600D01*
X124614965Y-67396143D01*
X124555177Y-67265227D01*
X124460928Y-67156457D01*
X124339853Y-67078647D01*
X124339851Y-67078646D01*
X124339849Y-67078645D01*
X124339850Y-67078645D01*
X124201763Y-67038100D01*
X124201761Y-67038100D01*
X124057839Y-67038100D01*
X124057836Y-67038100D01*
X123919749Y-67078645D01*
X123798673Y-67156456D01*
X123704423Y-67265226D01*
X123704422Y-67265228D01*
X123644634Y-67396143D01*
X123624153Y-67538600D01*
X115750312Y-67538600D01*
X115746230Y-65250001D01*
X125018818Y-65250001D01*
X125039455Y-65406760D01*
X125039456Y-65406762D01*
X125078076Y-65500000D01*
X125099964Y-65552841D01*
X125196218Y-65678282D01*
X125321659Y-65774536D01*
X125467738Y-65835044D01*
X125546119Y-65845363D01*
X125624499Y-65855682D01*
X125624500Y-65855682D01*
X125624501Y-65855682D01*
X125676754Y-65848802D01*
X125781262Y-65835044D01*
X125927341Y-65774536D01*
X126052782Y-65678282D01*
X126149036Y-65552841D01*
X126170923Y-65500000D01*
X126494353Y-65500000D01*
X126514834Y-65642456D01*
X126569044Y-65761157D01*
X126574623Y-65773373D01*
X126668872Y-65882143D01*
X126789947Y-65959953D01*
X126789950Y-65959954D01*
X126789949Y-65959954D01*
X126928036Y-66000499D01*
X126928038Y-66000500D01*
X126928039Y-66000500D01*
X127071962Y-66000500D01*
X127071962Y-66000499D01*
X127210053Y-65959953D01*
X127331128Y-65882143D01*
X127425377Y-65773373D01*
X127485165Y-65642457D01*
X127488581Y-65618700D01*
X127894353Y-65618700D01*
X127914834Y-65761156D01*
X127962023Y-65864483D01*
X127974623Y-65892073D01*
X128068872Y-66000843D01*
X128189947Y-66078653D01*
X128189950Y-66078654D01*
X128189949Y-66078654D01*
X128328036Y-66119199D01*
X128328038Y-66119200D01*
X128328039Y-66119200D01*
X128471962Y-66119200D01*
X128471962Y-66119199D01*
X128610053Y-66078653D01*
X128614959Y-66075500D01*
X135094353Y-66075500D01*
X135114834Y-66217956D01*
X135158056Y-66312597D01*
X135174623Y-66348873D01*
X135268872Y-66457643D01*
X135389947Y-66535453D01*
X135389950Y-66535454D01*
X135389949Y-66535454D01*
X135528036Y-66575999D01*
X135528038Y-66576000D01*
X135528039Y-66576000D01*
X135671962Y-66576000D01*
X135671962Y-66575999D01*
X135810053Y-66535453D01*
X135931128Y-66457643D01*
X136025377Y-66348873D01*
X136085165Y-66217957D01*
X136105647Y-66075500D01*
X136085165Y-65933043D01*
X136025377Y-65802127D01*
X136010970Y-65785500D01*
X139093645Y-65785500D01*
X139114126Y-65927956D01*
X139173914Y-66058871D01*
X139173915Y-66058873D01*
X139268164Y-66167643D01*
X139389239Y-66245453D01*
X139389242Y-66245454D01*
X139389241Y-66245454D01*
X139527328Y-66285999D01*
X139527330Y-66286000D01*
X139527331Y-66286000D01*
X139671254Y-66286000D01*
X139671254Y-66285999D01*
X139809345Y-66245453D01*
X139930420Y-66167643D01*
X140024669Y-66058873D01*
X140084457Y-65927957D01*
X140104939Y-65785500D01*
X140084457Y-65643043D01*
X140024669Y-65512127D01*
X139930420Y-65403357D01*
X139809345Y-65325547D01*
X139809343Y-65325546D01*
X139809341Y-65325545D01*
X139809342Y-65325545D01*
X139671255Y-65285000D01*
X139671253Y-65285000D01*
X139527331Y-65285000D01*
X139527328Y-65285000D01*
X139389241Y-65325545D01*
X139268165Y-65403356D01*
X139173915Y-65512126D01*
X139173914Y-65512128D01*
X139114126Y-65643043D01*
X139093645Y-65785500D01*
X136010970Y-65785500D01*
X135931128Y-65693357D01*
X135810053Y-65615547D01*
X135810051Y-65615546D01*
X135810049Y-65615545D01*
X135810050Y-65615545D01*
X135671963Y-65575000D01*
X135671961Y-65575000D01*
X135528039Y-65575000D01*
X135528036Y-65575000D01*
X135389949Y-65615545D01*
X135268873Y-65693356D01*
X135174623Y-65802126D01*
X135174622Y-65802128D01*
X135114834Y-65933043D01*
X135094353Y-66075500D01*
X128614959Y-66075500D01*
X128731128Y-66000843D01*
X128825377Y-65892073D01*
X128885165Y-65761157D01*
X128905647Y-65618700D01*
X128888581Y-65500000D01*
X132284176Y-65500000D01*
X132304657Y-65642456D01*
X132358867Y-65761157D01*
X132364446Y-65773373D01*
X132458695Y-65882143D01*
X132579770Y-65959953D01*
X132579773Y-65959954D01*
X132579772Y-65959954D01*
X132717859Y-66000499D01*
X132717861Y-66000500D01*
X132717862Y-66000500D01*
X132861785Y-66000500D01*
X132861785Y-66000499D01*
X132999876Y-65959953D01*
X133120951Y-65882143D01*
X133215200Y-65773373D01*
X133274988Y-65642457D01*
X133295470Y-65500000D01*
X133274988Y-65357543D01*
X133215200Y-65226627D01*
X133120951Y-65117857D01*
X132999876Y-65040047D01*
X132999874Y-65040046D01*
X132999872Y-65040045D01*
X132999873Y-65040045D01*
X132861786Y-64999500D01*
X132861784Y-64999500D01*
X132717862Y-64999500D01*
X132717859Y-64999500D01*
X132579772Y-65040045D01*
X132458696Y-65117856D01*
X132364446Y-65226626D01*
X132364445Y-65226628D01*
X132304657Y-65357543D01*
X132284176Y-65500000D01*
X128888581Y-65500000D01*
X128885165Y-65476243D01*
X128825377Y-65345327D01*
X128731128Y-65236557D01*
X128610053Y-65158747D01*
X128610051Y-65158746D01*
X128610049Y-65158745D01*
X128610050Y-65158745D01*
X128471963Y-65118200D01*
X128471961Y-65118200D01*
X128328039Y-65118200D01*
X128328036Y-65118200D01*
X128189949Y-65158745D01*
X128068873Y-65236556D01*
X127974623Y-65345326D01*
X127974622Y-65345328D01*
X127914834Y-65476243D01*
X127894353Y-65618700D01*
X127488581Y-65618700D01*
X127505647Y-65500000D01*
X127485165Y-65357543D01*
X127425377Y-65226627D01*
X127331128Y-65117857D01*
X127210053Y-65040047D01*
X127210051Y-65040046D01*
X127210049Y-65040045D01*
X127210050Y-65040045D01*
X127071963Y-64999500D01*
X127071961Y-64999500D01*
X126928039Y-64999500D01*
X126928036Y-64999500D01*
X126789949Y-65040045D01*
X126668873Y-65117856D01*
X126574623Y-65226626D01*
X126574622Y-65226628D01*
X126514834Y-65357543D01*
X126494353Y-65500000D01*
X126170923Y-65500000D01*
X126209544Y-65406762D01*
X126230182Y-65250000D01*
X126218858Y-65163989D01*
X126209544Y-65093239D01*
X126209544Y-65093238D01*
X126149036Y-64947159D01*
X126052782Y-64821718D01*
X125927341Y-64725464D01*
X125865866Y-64700000D01*
X128940452Y-64700000D01*
X128960933Y-64842456D01*
X129020721Y-64973371D01*
X129020722Y-64973373D01*
X129114971Y-65082143D01*
X129236046Y-65159953D01*
X129236049Y-65159954D01*
X129236048Y-65159954D01*
X129374135Y-65200499D01*
X129374137Y-65200500D01*
X129374138Y-65200500D01*
X129518061Y-65200500D01*
X129518061Y-65200499D01*
X129625220Y-65169035D01*
X129656149Y-65159954D01*
X129656149Y-65159953D01*
X129656152Y-65159953D01*
X129777227Y-65082143D01*
X129871476Y-64973373D01*
X129931264Y-64842457D01*
X129951746Y-64700000D01*
X129931264Y-64557543D01*
X129871476Y-64426627D01*
X129777227Y-64317857D01*
X129656152Y-64240047D01*
X129656150Y-64240046D01*
X129656148Y-64240045D01*
X129656149Y-64240045D01*
X129518062Y-64199500D01*
X129518060Y-64199500D01*
X129374138Y-64199500D01*
X129374135Y-64199500D01*
X129236048Y-64240045D01*
X129114972Y-64317856D01*
X129020722Y-64426626D01*
X129020721Y-64426628D01*
X128960933Y-64557543D01*
X128940452Y-64700000D01*
X125865866Y-64700000D01*
X125781262Y-64664956D01*
X125781260Y-64664955D01*
X125624501Y-64644318D01*
X125624499Y-64644318D01*
X125467739Y-64664955D01*
X125467737Y-64664956D01*
X125321660Y-64725463D01*
X125196218Y-64821718D01*
X125099963Y-64947160D01*
X125039456Y-65093237D01*
X125039455Y-65093239D01*
X125018818Y-65249998D01*
X125018818Y-65250001D01*
X115746230Y-65250001D01*
X115745713Y-64960037D01*
X115765277Y-64892969D01*
X115817999Y-64847120D01*
X115887140Y-64837053D01*
X115914505Y-64844194D01*
X115943605Y-64855468D01*
X116151336Y-64894300D01*
X116151338Y-64894300D01*
X116362662Y-64894300D01*
X116362664Y-64894300D01*
X116570395Y-64855468D01*
X116767453Y-64779128D01*
X116947128Y-64667877D01*
X117103302Y-64525506D01*
X117230656Y-64356862D01*
X117324853Y-64167689D01*
X117324853Y-64167686D01*
X117324855Y-64167684D01*
X117344113Y-64100000D01*
X135594353Y-64100000D01*
X135614834Y-64242456D01*
X135674622Y-64373371D01*
X135674623Y-64373373D01*
X135768872Y-64482143D01*
X135889947Y-64559953D01*
X135889950Y-64559954D01*
X135889949Y-64559954D01*
X135997107Y-64591417D01*
X136026336Y-64600000D01*
X136028036Y-64600499D01*
X136028038Y-64600500D01*
X136028039Y-64600500D01*
X136171962Y-64600500D01*
X136171962Y-64600499D01*
X136173661Y-64600000D01*
X155694353Y-64600000D01*
X155714834Y-64742456D01*
X155766445Y-64855466D01*
X155774623Y-64873373D01*
X155868872Y-64982143D01*
X155989947Y-65059953D01*
X155989950Y-65059954D01*
X155989949Y-65059954D01*
X156128036Y-65100499D01*
X156128038Y-65100500D01*
X156128039Y-65100500D01*
X156271962Y-65100500D01*
X156271962Y-65100499D01*
X156410053Y-65059953D01*
X156531128Y-64982143D01*
X156625377Y-64873373D01*
X156685165Y-64742457D01*
X156697600Y-64655963D01*
X156726624Y-64592409D01*
X156785402Y-64554634D01*
X156855272Y-64554634D01*
X156873391Y-64559954D01*
X156928038Y-64576000D01*
X156928039Y-64576000D01*
X157071962Y-64576000D01*
X157071962Y-64575999D01*
X157210053Y-64535453D01*
X157331128Y-64457643D01*
X157425377Y-64348873D01*
X157485165Y-64217957D01*
X157505647Y-64075500D01*
X157485165Y-63933043D01*
X157472183Y-63904617D01*
X157462240Y-63835463D01*
X157491264Y-63771906D01*
X157550042Y-63734131D01*
X157619910Y-63734130D01*
X157619912Y-63734130D01*
X157619913Y-63734131D01*
X157662038Y-63746500D01*
X157662039Y-63746500D01*
X157805962Y-63746500D01*
X157805962Y-63746499D01*
X157944053Y-63705953D01*
X158065128Y-63628143D01*
X158159377Y-63519373D01*
X158204759Y-63420001D01*
X174334318Y-63420001D01*
X174354955Y-63576760D01*
X174354956Y-63576762D01*
X174413399Y-63717857D01*
X174415464Y-63722841D01*
X174511718Y-63848282D01*
X174637159Y-63944536D01*
X174783238Y-64005044D01*
X174861619Y-64015363D01*
X174939999Y-64025682D01*
X174940000Y-64025682D01*
X174940001Y-64025682D01*
X174992254Y-64018802D01*
X175096762Y-64005044D01*
X175242841Y-63944536D01*
X175368282Y-63848282D01*
X175464536Y-63722841D01*
X175525044Y-63576762D01*
X175545682Y-63420000D01*
X175525044Y-63263238D01*
X175464536Y-63117159D01*
X175368282Y-62991718D01*
X175242841Y-62895464D01*
X175166694Y-62863923D01*
X175096762Y-62834956D01*
X175096760Y-62834955D01*
X174940001Y-62814318D01*
X174939999Y-62814318D01*
X174783239Y-62834955D01*
X174783237Y-62834956D01*
X174637160Y-62895463D01*
X174511718Y-62991718D01*
X174415463Y-63117160D01*
X174354956Y-63263237D01*
X174354955Y-63263239D01*
X174334318Y-63419998D01*
X174334318Y-63420001D01*
X158204759Y-63420001D01*
X158219165Y-63388457D01*
X158239647Y-63246000D01*
X158219165Y-63103543D01*
X158159377Y-62972627D01*
X158065128Y-62863857D01*
X157944053Y-62786047D01*
X157944051Y-62786046D01*
X157944049Y-62786045D01*
X157944050Y-62786045D01*
X157805963Y-62745500D01*
X157805961Y-62745500D01*
X157662039Y-62745500D01*
X157662036Y-62745500D01*
X157523949Y-62786045D01*
X157402873Y-62863856D01*
X157308623Y-62972626D01*
X157308622Y-62972628D01*
X157248834Y-63103543D01*
X157228353Y-63246000D01*
X157248834Y-63388456D01*
X157261815Y-63416879D01*
X157271759Y-63486038D01*
X157242734Y-63549594D01*
X157183956Y-63587368D01*
X157114088Y-63587369D01*
X157071961Y-63575000D01*
X156928039Y-63575000D01*
X156928036Y-63575000D01*
X156789949Y-63615545D01*
X156668873Y-63693356D01*
X156574623Y-63802126D01*
X156574622Y-63802128D01*
X156514834Y-63933043D01*
X156502399Y-64019535D01*
X156473374Y-64083091D01*
X156414596Y-64120865D01*
X156344727Y-64120865D01*
X156271963Y-64099500D01*
X156271961Y-64099500D01*
X156128039Y-64099500D01*
X156128036Y-64099500D01*
X155989949Y-64140045D01*
X155868873Y-64217856D01*
X155774623Y-64326626D01*
X155774622Y-64326628D01*
X155714834Y-64457543D01*
X155694353Y-64600000D01*
X136173661Y-64600000D01*
X136310053Y-64559953D01*
X136431128Y-64482143D01*
X136525377Y-64373373D01*
X136585165Y-64242457D01*
X136605647Y-64100000D01*
X136585165Y-63957543D01*
X136525377Y-63826627D01*
X136431128Y-63717857D01*
X136310053Y-63640047D01*
X136310051Y-63640046D01*
X136310049Y-63640045D01*
X136310050Y-63640045D01*
X136171963Y-63599500D01*
X136171961Y-63599500D01*
X136028039Y-63599500D01*
X136028036Y-63599500D01*
X135889949Y-63640045D01*
X135768873Y-63717856D01*
X135674623Y-63826626D01*
X135674622Y-63826628D01*
X135614834Y-63957543D01*
X135594353Y-64100000D01*
X117344113Y-64100000D01*
X117371130Y-64005043D01*
X117382686Y-63964427D01*
X117402185Y-63754000D01*
X117399297Y-63722839D01*
X117382686Y-63543573D01*
X117382685Y-63543570D01*
X117375800Y-63519373D01*
X117353701Y-63441700D01*
X117324855Y-63340315D01*
X117324852Y-63340309D01*
X117294905Y-63280167D01*
X117230656Y-63151138D01*
X117103302Y-62982494D01*
X117103300Y-62982491D01*
X116947129Y-62840124D01*
X116947128Y-62840123D01*
X116767453Y-62728872D01*
X116767452Y-62728871D01*
X116603792Y-62665470D01*
X116570395Y-62652532D01*
X116362664Y-62613700D01*
X116151336Y-62613700D01*
X115943605Y-62652532D01*
X115943600Y-62652533D01*
X115910205Y-62665470D01*
X115840582Y-62671330D01*
X115778842Y-62638619D01*
X115749020Y-62585600D01*
X122227153Y-62585600D01*
X122247634Y-62728056D01*
X122289721Y-62820212D01*
X122307423Y-62858973D01*
X122401672Y-62967743D01*
X122522747Y-63045553D01*
X122522750Y-63045554D01*
X122522749Y-63045554D01*
X122629907Y-63077017D01*
X122652515Y-63083656D01*
X122660836Y-63086099D01*
X122660838Y-63086100D01*
X122660839Y-63086100D01*
X122804762Y-63086100D01*
X122804762Y-63086099D01*
X122942853Y-63045553D01*
X123063928Y-62967743D01*
X123086927Y-62941200D01*
X127434153Y-62941200D01*
X127454634Y-63083656D01*
X127496322Y-63174938D01*
X127514423Y-63214573D01*
X127608672Y-63323343D01*
X127729747Y-63401153D01*
X127729750Y-63401154D01*
X127729749Y-63401154D01*
X127867836Y-63441699D01*
X127867838Y-63441700D01*
X127867839Y-63441700D01*
X128011762Y-63441700D01*
X128011762Y-63441699D01*
X128149853Y-63401153D01*
X128270928Y-63323343D01*
X128308340Y-63280167D01*
X128915452Y-63280167D01*
X128935933Y-63422623D01*
X128991169Y-63543570D01*
X128995722Y-63553540D01*
X129089971Y-63662310D01*
X129211046Y-63740120D01*
X129211049Y-63740121D01*
X129211048Y-63740121D01*
X129258317Y-63754000D01*
X129339370Y-63777799D01*
X129349135Y-63780666D01*
X129349137Y-63780667D01*
X129349138Y-63780667D01*
X129493061Y-63780667D01*
X129493061Y-63780666D01*
X129600220Y-63749202D01*
X129631149Y-63740121D01*
X129631149Y-63740120D01*
X129631152Y-63740120D01*
X129752227Y-63662310D01*
X129846476Y-63553540D01*
X129906264Y-63422624D01*
X129909517Y-63400000D01*
X137194353Y-63400000D01*
X137214834Y-63542456D01*
X137248214Y-63615547D01*
X137274623Y-63673373D01*
X137368872Y-63782143D01*
X137489947Y-63859953D01*
X137489950Y-63859954D01*
X137489949Y-63859954D01*
X137628036Y-63900499D01*
X137628038Y-63900500D01*
X137628039Y-63900500D01*
X137771962Y-63900500D01*
X137771962Y-63900499D01*
X137910053Y-63859953D01*
X138031128Y-63782143D01*
X138125377Y-63673373D01*
X138185165Y-63542457D01*
X138205647Y-63400000D01*
X138185165Y-63257543D01*
X138125377Y-63126627D01*
X138031128Y-63017857D01*
X137910053Y-62940047D01*
X137910051Y-62940046D01*
X137910049Y-62940045D01*
X137910050Y-62940045D01*
X137771963Y-62899500D01*
X137771961Y-62899500D01*
X137628039Y-62899500D01*
X137628036Y-62899500D01*
X137489949Y-62940045D01*
X137368873Y-63017856D01*
X137274623Y-63126626D01*
X137274622Y-63126628D01*
X137214834Y-63257543D01*
X137194353Y-63400000D01*
X129909517Y-63400000D01*
X129926746Y-63280167D01*
X129906264Y-63137710D01*
X129846476Y-63006794D01*
X129752227Y-62898024D01*
X129631152Y-62820214D01*
X129631150Y-62820213D01*
X129631148Y-62820212D01*
X129631149Y-62820212D01*
X129493062Y-62779667D01*
X129493060Y-62779667D01*
X129349138Y-62779667D01*
X129349135Y-62779667D01*
X129211048Y-62820212D01*
X129089972Y-62898023D01*
X128995722Y-63006793D01*
X128995721Y-63006795D01*
X128935933Y-63137710D01*
X128915452Y-63280167D01*
X128308340Y-63280167D01*
X128365177Y-63214573D01*
X128424965Y-63083657D01*
X128445447Y-62941200D01*
X128424965Y-62798743D01*
X128365177Y-62667827D01*
X128270928Y-62559057D01*
X128149853Y-62481247D01*
X128149851Y-62481246D01*
X128149849Y-62481245D01*
X128149850Y-62481245D01*
X128011763Y-62440700D01*
X128011761Y-62440700D01*
X127867839Y-62440700D01*
X127867836Y-62440700D01*
X127729749Y-62481245D01*
X127608673Y-62559056D01*
X127514423Y-62667826D01*
X127514422Y-62667828D01*
X127454634Y-62798743D01*
X127434153Y-62941200D01*
X123086927Y-62941200D01*
X123158177Y-62858973D01*
X123217965Y-62728057D01*
X123238447Y-62585600D01*
X123217965Y-62443143D01*
X123158177Y-62312227D01*
X123113270Y-62260401D01*
X123109917Y-62253060D01*
X125118491Y-62253060D01*
X125132297Y-62261735D01*
X125132301Y-62261737D01*
X125302458Y-62321277D01*
X125302461Y-62321278D01*
X125481597Y-62341462D01*
X125481603Y-62341462D01*
X125660738Y-62321278D01*
X125830906Y-62261733D01*
X125844929Y-62252921D01*
X125844847Y-62252868D01*
X126018185Y-62252868D01*
X126032297Y-62261735D01*
X126032301Y-62261737D01*
X126202458Y-62321277D01*
X126202461Y-62321278D01*
X126381597Y-62341462D01*
X126381603Y-62341462D01*
X126560738Y-62321278D01*
X126621547Y-62300000D01*
X159594353Y-62300000D01*
X159614834Y-62442456D01*
X159668085Y-62559057D01*
X159674623Y-62573373D01*
X159768872Y-62682143D01*
X159889947Y-62759953D01*
X159889950Y-62759954D01*
X159889949Y-62759954D01*
X160028036Y-62800499D01*
X160028038Y-62800500D01*
X160028039Y-62800500D01*
X160171962Y-62800500D01*
X160171962Y-62800499D01*
X160310053Y-62759953D01*
X160431128Y-62682143D01*
X160525377Y-62573373D01*
X160585165Y-62442457D01*
X160605647Y-62300000D01*
X160585165Y-62157543D01*
X160525377Y-62026627D01*
X160431128Y-61917857D01*
X160310053Y-61840047D01*
X160310051Y-61840046D01*
X160310049Y-61840045D01*
X160310050Y-61840045D01*
X160171963Y-61799500D01*
X160171961Y-61799500D01*
X160028039Y-61799500D01*
X160028036Y-61799500D01*
X159889949Y-61840045D01*
X159768873Y-61917856D01*
X159674623Y-62026626D01*
X159674622Y-62026628D01*
X159614834Y-62157543D01*
X159594353Y-62300000D01*
X126621547Y-62300000D01*
X126730907Y-62261733D01*
X126744707Y-62253061D01*
X126744707Y-62253060D01*
X126381601Y-61889953D01*
X126381600Y-61889953D01*
X126019280Y-62252271D01*
X126018185Y-62252868D01*
X125844847Y-62252868D01*
X125843918Y-62252271D01*
X125481601Y-61889953D01*
X125481600Y-61889953D01*
X125118491Y-62253060D01*
X123109917Y-62253060D01*
X123084246Y-62196847D01*
X123094190Y-62127689D01*
X123113269Y-62097999D01*
X123158177Y-62046173D01*
X123217965Y-61915257D01*
X123238447Y-61772800D01*
X123217965Y-61630343D01*
X123175063Y-61536402D01*
X124676538Y-61536402D01*
X124696721Y-61715538D01*
X124696722Y-61715541D01*
X124756262Y-61885698D01*
X124756267Y-61885708D01*
X124764938Y-61899508D01*
X125128046Y-61536400D01*
X125326309Y-61536400D01*
X125347114Y-61614045D01*
X125403955Y-61670886D01*
X125461854Y-61686400D01*
X125501346Y-61686400D01*
X125559245Y-61670886D01*
X125616086Y-61614046D01*
X125636891Y-61536400D01*
X125835153Y-61536400D01*
X125931600Y-61632847D01*
X126028047Y-61536400D01*
X126226309Y-61536400D01*
X126247114Y-61614045D01*
X126303955Y-61670886D01*
X126361854Y-61686400D01*
X126401346Y-61686400D01*
X126459245Y-61670886D01*
X126516086Y-61614046D01*
X126536891Y-61536400D01*
X126516086Y-61458755D01*
X126459245Y-61401914D01*
X126401346Y-61386400D01*
X126361854Y-61386400D01*
X126303955Y-61401914D01*
X126247114Y-61458754D01*
X126226309Y-61536400D01*
X126028047Y-61536400D01*
X125974543Y-61482896D01*
X125945401Y-61474339D01*
X125914387Y-61474339D01*
X125890982Y-61487119D01*
X125883645Y-61487907D01*
X125835153Y-61536400D01*
X125636891Y-61536400D01*
X125616086Y-61458755D01*
X125559245Y-61401914D01*
X125501346Y-61386400D01*
X125461854Y-61386400D01*
X125403955Y-61401914D01*
X125347114Y-61458754D01*
X125326309Y-61536400D01*
X125128046Y-61536400D01*
X125528047Y-61136400D01*
X126335153Y-61136400D01*
X127098260Y-61899507D01*
X127098261Y-61899507D01*
X127106933Y-61885707D01*
X127166478Y-61715538D01*
X127186662Y-61536402D01*
X127186662Y-61536397D01*
X127166478Y-61357261D01*
X127166477Y-61357258D01*
X127104636Y-61180524D01*
X127106719Y-61179794D01*
X127097077Y-61121273D01*
X127103323Y-61100000D01*
X131094353Y-61100000D01*
X131114834Y-61242456D01*
X131167731Y-61358282D01*
X131174623Y-61373373D01*
X131268872Y-61482143D01*
X131389947Y-61559953D01*
X131389950Y-61559954D01*
X131389949Y-61559954D01*
X131528036Y-61600499D01*
X131528038Y-61600500D01*
X131528039Y-61600500D01*
X131671962Y-61600500D01*
X131671962Y-61600499D01*
X131761360Y-61574250D01*
X174620103Y-61574250D01*
X174640584Y-61716706D01*
X174686325Y-61816862D01*
X174700373Y-61847623D01*
X174794622Y-61956393D01*
X174915697Y-62034203D01*
X174915700Y-62034204D01*
X174915699Y-62034204D01*
X175053786Y-62074749D01*
X175053788Y-62074750D01*
X175053789Y-62074750D01*
X175197712Y-62074750D01*
X175197712Y-62074749D01*
X175335803Y-62034203D01*
X175456878Y-61956393D01*
X175551127Y-61847623D01*
X175610915Y-61716707D01*
X175631397Y-61574250D01*
X175610915Y-61431793D01*
X175551127Y-61300877D01*
X175456878Y-61192107D01*
X175335803Y-61114297D01*
X175335801Y-61114296D01*
X175335799Y-61114295D01*
X175335800Y-61114295D01*
X175197713Y-61073750D01*
X175197711Y-61073750D01*
X175053789Y-61073750D01*
X175053786Y-61073750D01*
X174915699Y-61114295D01*
X174794623Y-61192106D01*
X174700373Y-61300876D01*
X174700372Y-61300878D01*
X174640584Y-61431793D01*
X174620103Y-61574250D01*
X131761360Y-61574250D01*
X131810053Y-61559953D01*
X131931128Y-61482143D01*
X132025377Y-61373373D01*
X132085165Y-61242457D01*
X132105647Y-61100000D01*
X132085165Y-60957543D01*
X132072587Y-60930001D01*
X138444318Y-60930001D01*
X138464955Y-61086760D01*
X138464956Y-61086762D01*
X138503793Y-61180524D01*
X138525464Y-61232841D01*
X138621718Y-61358282D01*
X138747159Y-61454536D01*
X138893238Y-61515044D01*
X138971619Y-61525363D01*
X139049999Y-61535682D01*
X139050000Y-61535682D01*
X139050001Y-61535682D01*
X139102254Y-61528802D01*
X139206762Y-61515044D01*
X139352841Y-61454536D01*
X139478282Y-61358282D01*
X139574536Y-61232841D01*
X139635044Y-61086762D01*
X139655682Y-60930000D01*
X139653778Y-60915541D01*
X139638608Y-60800309D01*
X139635044Y-60773238D01*
X139574536Y-60627159D01*
X139478282Y-60501718D01*
X139352841Y-60405464D01*
X139329225Y-60395682D01*
X139206762Y-60344956D01*
X139206760Y-60344955D01*
X139050001Y-60324318D01*
X139049999Y-60324318D01*
X138893239Y-60344955D01*
X138893237Y-60344956D01*
X138747160Y-60405463D01*
X138621718Y-60501718D01*
X138525463Y-60627160D01*
X138464956Y-60773237D01*
X138464955Y-60773239D01*
X138444318Y-60929998D01*
X138444318Y-60930001D01*
X132072587Y-60930001D01*
X132025377Y-60826627D01*
X131931128Y-60717857D01*
X131810053Y-60640047D01*
X131810051Y-60640046D01*
X131810049Y-60640045D01*
X131810050Y-60640045D01*
X131671963Y-60599500D01*
X131671961Y-60599500D01*
X131528039Y-60599500D01*
X131528036Y-60599500D01*
X131389949Y-60640045D01*
X131268873Y-60717856D01*
X131174623Y-60826626D01*
X131174622Y-60826628D01*
X131114834Y-60957543D01*
X131094353Y-61100000D01*
X127103323Y-61100000D01*
X127105502Y-61092579D01*
X127104636Y-61092276D01*
X127166477Y-60915541D01*
X127166478Y-60915538D01*
X127186662Y-60736402D01*
X127186662Y-60736397D01*
X127166478Y-60557261D01*
X127166477Y-60557258D01*
X127106937Y-60387101D01*
X127106935Y-60387097D01*
X127098260Y-60373291D01*
X126381600Y-61089953D01*
X126335153Y-61136400D01*
X125528047Y-61136400D01*
X125481600Y-61089953D01*
X125128047Y-60736400D01*
X125326309Y-60736400D01*
X125347114Y-60814045D01*
X125403955Y-60870886D01*
X125461854Y-60886400D01*
X125501346Y-60886400D01*
X125559245Y-60870886D01*
X125616086Y-60814046D01*
X125636891Y-60736400D01*
X125835153Y-60736400D01*
X125888656Y-60789903D01*
X125917796Y-60798460D01*
X125948814Y-60798460D01*
X125972221Y-60785680D01*
X125979555Y-60784891D01*
X126028047Y-60736400D01*
X126226309Y-60736400D01*
X126247114Y-60814045D01*
X126303955Y-60870886D01*
X126361854Y-60886400D01*
X126401346Y-60886400D01*
X126459245Y-60870886D01*
X126516086Y-60814046D01*
X126536891Y-60736400D01*
X126516086Y-60658755D01*
X126459245Y-60601914D01*
X126401346Y-60586400D01*
X126361854Y-60586400D01*
X126303955Y-60601914D01*
X126247114Y-60658754D01*
X126226309Y-60736400D01*
X126028047Y-60736400D01*
X125931600Y-60639953D01*
X125835153Y-60736400D01*
X125636891Y-60736400D01*
X125616086Y-60658755D01*
X125559245Y-60601914D01*
X125501346Y-60586400D01*
X125461854Y-60586400D01*
X125403955Y-60601914D01*
X125347114Y-60658754D01*
X125326309Y-60736400D01*
X125128047Y-60736400D01*
X124764938Y-60373290D01*
X124764938Y-60373291D01*
X124756264Y-60387096D01*
X124696722Y-60557258D01*
X124696721Y-60557261D01*
X124676538Y-60736397D01*
X124676538Y-60736402D01*
X124696721Y-60915538D01*
X124696722Y-60915541D01*
X124758564Y-61092276D01*
X124756485Y-61093003D01*
X124766118Y-61151558D01*
X124757701Y-61180222D01*
X124758564Y-61180524D01*
X124696722Y-61357258D01*
X124696721Y-61357261D01*
X124676538Y-61536397D01*
X124676538Y-61536402D01*
X123175063Y-61536402D01*
X123158177Y-61499427D01*
X123063928Y-61390657D01*
X122942853Y-61312847D01*
X122942851Y-61312846D01*
X122942849Y-61312845D01*
X122942850Y-61312845D01*
X122804763Y-61272300D01*
X122804761Y-61272300D01*
X122660839Y-61272300D01*
X122660836Y-61272300D01*
X122522749Y-61312845D01*
X122401673Y-61390656D01*
X122307423Y-61499426D01*
X122307422Y-61499428D01*
X122247634Y-61630343D01*
X122227153Y-61772800D01*
X122247634Y-61915256D01*
X122298497Y-62026628D01*
X122307423Y-62046173D01*
X122332184Y-62074749D01*
X122352329Y-62097998D01*
X122381353Y-62161554D01*
X122371409Y-62230712D01*
X122352329Y-62260402D01*
X122307423Y-62312227D01*
X122307422Y-62312228D01*
X122247634Y-62443143D01*
X122227153Y-62585600D01*
X115749020Y-62585600D01*
X115744589Y-62577722D01*
X115741415Y-62550073D01*
X115740971Y-62301243D01*
X115760535Y-62234174D01*
X115813257Y-62188325D01*
X115882398Y-62178258D01*
X115930248Y-62195601D01*
X116000538Y-62239123D01*
X116000545Y-62239127D01*
X116000547Y-62239128D01*
X116197605Y-62315468D01*
X116405336Y-62354300D01*
X116405338Y-62354300D01*
X116616662Y-62354300D01*
X116616664Y-62354300D01*
X116824395Y-62315468D01*
X117021453Y-62239128D01*
X117201128Y-62127877D01*
X117357302Y-61985506D01*
X117484656Y-61816862D01*
X117578853Y-61627689D01*
X117578853Y-61627686D01*
X117578855Y-61627684D01*
X117618624Y-61487907D01*
X117636686Y-61424427D01*
X117656185Y-61214000D01*
X117636686Y-61003573D01*
X117611638Y-60915538D01*
X117578855Y-60800315D01*
X117578852Y-60800309D01*
X117565372Y-60773237D01*
X117484656Y-60611138D01*
X117357302Y-60442494D01*
X117357300Y-60442491D01*
X117201129Y-60300124D01*
X117201128Y-60300123D01*
X117021453Y-60188872D01*
X117021452Y-60188871D01*
X116868443Y-60129596D01*
X116824395Y-60112532D01*
X116616664Y-60073700D01*
X116405336Y-60073700D01*
X116197605Y-60112532D01*
X116197602Y-60112532D01*
X116197602Y-60112533D01*
X116000547Y-60188871D01*
X116000540Y-60188875D01*
X115926374Y-60234797D01*
X115859014Y-60253352D01*
X115792314Y-60232544D01*
X115747453Y-60178979D01*
X115737098Y-60129596D01*
X115736902Y-60019738D01*
X125118490Y-60019738D01*
X125481600Y-60382847D01*
X125481601Y-60382847D01*
X125843918Y-60020528D01*
X125845013Y-60019930D01*
X125844929Y-60019877D01*
X126018267Y-60019877D01*
X126019280Y-60020528D01*
X126381600Y-60382847D01*
X126381601Y-60382847D01*
X126770127Y-59994319D01*
X126831450Y-59960834D01*
X126892743Y-59963023D01*
X127032299Y-60004000D01*
X127032300Y-60004000D01*
X127176223Y-60004000D01*
X127176223Y-60003999D01*
X127314314Y-59963453D01*
X127435389Y-59885643D01*
X127435392Y-59885639D01*
X127440824Y-59880933D01*
X127504379Y-59851906D01*
X127573537Y-59861847D01*
X127603232Y-59880930D01*
X127608668Y-59885640D01*
X127608671Y-59885642D01*
X127608672Y-59885643D01*
X127729747Y-59963453D01*
X127729750Y-59963454D01*
X127729749Y-59963454D01*
X127867836Y-60003999D01*
X127867838Y-60004000D01*
X127867839Y-60004000D01*
X128011762Y-60004000D01*
X128011762Y-60003999D01*
X128149853Y-59963453D01*
X128270928Y-59885643D01*
X128353802Y-59790001D01*
X149464318Y-59790001D01*
X149484955Y-59946760D01*
X149484956Y-59946762D01*
X149537535Y-60073700D01*
X149545464Y-60092841D01*
X149641718Y-60218282D01*
X149767159Y-60314536D01*
X149913238Y-60375044D01*
X149972508Y-60382847D01*
X150069999Y-60395682D01*
X150070000Y-60395682D01*
X150070001Y-60395682D01*
X150122254Y-60388802D01*
X150226762Y-60375044D01*
X150372841Y-60314536D01*
X150391785Y-60300000D01*
X155494353Y-60300000D01*
X155514834Y-60442456D01*
X155526735Y-60468515D01*
X155574623Y-60573373D01*
X155668872Y-60682143D01*
X155789947Y-60759953D01*
X155789950Y-60759954D01*
X155789949Y-60759954D01*
X155897107Y-60791417D01*
X155927395Y-60800311D01*
X155928036Y-60800499D01*
X155928038Y-60800500D01*
X155928039Y-60800500D01*
X156071962Y-60800500D01*
X156071962Y-60800499D01*
X156210053Y-60759953D01*
X156331128Y-60682143D01*
X156425377Y-60573373D01*
X156485165Y-60442457D01*
X156505647Y-60300000D01*
X156485165Y-60157543D01*
X156425377Y-60026627D01*
X156342083Y-59930500D01*
X172976353Y-59930500D01*
X172996834Y-60072956D01*
X173056622Y-60203871D01*
X173056623Y-60203873D01*
X173150872Y-60312643D01*
X173271947Y-60390453D01*
X173271950Y-60390454D01*
X173271949Y-60390454D01*
X173410036Y-60430999D01*
X173410038Y-60431000D01*
X173410039Y-60431000D01*
X173553962Y-60431000D01*
X173553962Y-60430999D01*
X173661121Y-60399535D01*
X173692050Y-60390454D01*
X173692050Y-60390453D01*
X173692053Y-60390453D01*
X173813128Y-60312643D01*
X173907377Y-60203873D01*
X173967165Y-60072957D01*
X173987647Y-59930500D01*
X173967165Y-59788043D01*
X173907377Y-59657127D01*
X173813128Y-59548357D01*
X173692053Y-59470547D01*
X173692051Y-59470546D01*
X173692049Y-59470545D01*
X173692050Y-59470545D01*
X173553963Y-59430000D01*
X173553961Y-59430000D01*
X173410039Y-59430000D01*
X173410036Y-59430000D01*
X173271949Y-59470545D01*
X173150873Y-59548356D01*
X173056623Y-59657126D01*
X173056622Y-59657128D01*
X172996834Y-59788043D01*
X172976353Y-59930500D01*
X156342083Y-59930500D01*
X156331128Y-59917857D01*
X156210053Y-59840047D01*
X156210051Y-59840046D01*
X156210049Y-59840045D01*
X156210050Y-59840045D01*
X156071963Y-59799500D01*
X156071961Y-59799500D01*
X155928039Y-59799500D01*
X155928036Y-59799500D01*
X155789949Y-59840045D01*
X155668873Y-59917856D01*
X155574623Y-60026626D01*
X155574622Y-60026628D01*
X155514834Y-60157543D01*
X155494353Y-60300000D01*
X150391785Y-60300000D01*
X150498282Y-60218282D01*
X150594536Y-60092841D01*
X150655044Y-59946762D01*
X150672483Y-59814300D01*
X150675682Y-59790001D01*
X150675682Y-59789998D01*
X150655044Y-59633239D01*
X150655044Y-59633238D01*
X150594536Y-59487159D01*
X150498282Y-59361718D01*
X150372841Y-59265464D01*
X150287532Y-59230128D01*
X150226762Y-59204956D01*
X150226760Y-59204955D01*
X150070001Y-59184318D01*
X150069999Y-59184318D01*
X149913239Y-59204955D01*
X149913237Y-59204956D01*
X149767160Y-59265463D01*
X149641718Y-59361718D01*
X149545463Y-59487160D01*
X149484956Y-59633237D01*
X149484955Y-59633239D01*
X149464318Y-59789998D01*
X149464318Y-59790001D01*
X128353802Y-59790001D01*
X128365177Y-59776873D01*
X128424965Y-59645957D01*
X128445447Y-59503500D01*
X128424965Y-59361043D01*
X128365177Y-59230127D01*
X128270928Y-59121357D01*
X128149853Y-59043547D01*
X128149851Y-59043546D01*
X128149849Y-59043545D01*
X128149850Y-59043545D01*
X128011763Y-59003000D01*
X128011761Y-59003000D01*
X127867839Y-59003000D01*
X127867836Y-59003000D01*
X127729749Y-59043545D01*
X127608668Y-59121359D01*
X127603228Y-59126073D01*
X127539671Y-59155095D01*
X127470513Y-59145148D01*
X127440828Y-59126070D01*
X127435388Y-59121356D01*
X127382993Y-59087684D01*
X127314314Y-59043547D01*
X127314312Y-59043546D01*
X127314310Y-59043545D01*
X127314311Y-59043545D01*
X127176224Y-59003000D01*
X127176222Y-59003000D01*
X127032300Y-59003000D01*
X127032297Y-59003000D01*
X126894210Y-59043545D01*
X126773134Y-59121356D01*
X126678884Y-59230126D01*
X126678883Y-59230128D01*
X126619095Y-59361043D01*
X126598614Y-59503500D01*
X126619095Y-59645957D01*
X126619096Y-59645958D01*
X126678380Y-59775772D01*
X126688324Y-59844930D01*
X126659299Y-59908486D01*
X126600521Y-59946260D01*
X126551703Y-59950503D01*
X126381604Y-59931338D01*
X126381597Y-59931338D01*
X126202461Y-59951521D01*
X126202458Y-59951522D01*
X126032294Y-60011065D01*
X126032291Y-60011066D01*
X126018267Y-60019877D01*
X125844929Y-60019877D01*
X125830901Y-60011064D01*
X125830898Y-60011062D01*
X125660741Y-59951522D01*
X125660738Y-59951521D01*
X125481603Y-59931338D01*
X125481597Y-59931338D01*
X125302461Y-59951521D01*
X125302458Y-59951522D01*
X125132296Y-60011064D01*
X125118491Y-60019738D01*
X125118490Y-60019738D01*
X115736902Y-60019738D01*
X115736646Y-59876528D01*
X115756211Y-59809457D01*
X115808934Y-59763608D01*
X115878074Y-59753541D01*
X115905439Y-59760683D01*
X115938969Y-59773672D01*
X115943605Y-59775468D01*
X116151336Y-59814300D01*
X116151338Y-59814300D01*
X116362662Y-59814300D01*
X116362664Y-59814300D01*
X116570395Y-59775468D01*
X116767453Y-59699128D01*
X116947128Y-59587877D01*
X117103302Y-59445506D01*
X117230656Y-59276862D01*
X117324853Y-59087689D01*
X117324853Y-59087686D01*
X117324855Y-59087684D01*
X117372422Y-58920500D01*
X117382686Y-58884427D01*
X117402185Y-58674000D01*
X117382686Y-58463573D01*
X117370288Y-58420000D01*
X128272353Y-58420000D01*
X128292834Y-58562456D01*
X128352622Y-58693371D01*
X128352623Y-58693373D01*
X128446872Y-58802143D01*
X128567947Y-58879953D01*
X128567950Y-58879954D01*
X128567949Y-58879954D01*
X128706036Y-58920499D01*
X128706038Y-58920500D01*
X128706039Y-58920500D01*
X128849962Y-58920500D01*
X128849962Y-58920499D01*
X128988053Y-58879953D01*
X129109128Y-58802143D01*
X129203377Y-58693373D01*
X129263165Y-58562457D01*
X129283647Y-58420000D01*
X129263165Y-58277543D01*
X129203377Y-58146627D01*
X129109128Y-58037857D01*
X128988053Y-57960047D01*
X128988051Y-57960046D01*
X128988049Y-57960045D01*
X128988050Y-57960045D01*
X128849963Y-57919500D01*
X128849961Y-57919500D01*
X128706039Y-57919500D01*
X128706036Y-57919500D01*
X128567949Y-57960045D01*
X128446873Y-58037856D01*
X128352623Y-58146626D01*
X128352622Y-58146628D01*
X128292834Y-58277543D01*
X128272353Y-58420000D01*
X117370288Y-58420000D01*
X117324855Y-58260315D01*
X117324852Y-58260309D01*
X117319067Y-58248691D01*
X117230656Y-58071138D01*
X117146764Y-57960047D01*
X117103300Y-57902491D01*
X116947129Y-57760124D01*
X116947128Y-57760123D01*
X116767453Y-57648872D01*
X116767452Y-57648871D01*
X116612845Y-57588977D01*
X116570395Y-57572532D01*
X116546392Y-57568045D01*
X129402679Y-57568045D01*
X129423160Y-57710501D01*
X129457183Y-57785000D01*
X129482949Y-57841418D01*
X129577198Y-57950188D01*
X129698273Y-58027998D01*
X129698276Y-58027999D01*
X129698275Y-58027999D01*
X129836362Y-58068544D01*
X129836364Y-58068545D01*
X129836365Y-58068545D01*
X129980288Y-58068545D01*
X129980288Y-58068544D01*
X130118379Y-58027998D01*
X130239454Y-57950188D01*
X130333703Y-57841418D01*
X130393491Y-57710502D01*
X130413973Y-57568045D01*
X130393491Y-57425588D01*
X130333703Y-57294672D01*
X130239454Y-57185902D01*
X130118379Y-57108092D01*
X130118377Y-57108091D01*
X130118375Y-57108090D01*
X130118376Y-57108090D01*
X129980289Y-57067545D01*
X129980287Y-57067545D01*
X129836365Y-57067545D01*
X129836362Y-57067545D01*
X129698275Y-57108090D01*
X129577199Y-57185901D01*
X129482949Y-57294671D01*
X129482948Y-57294673D01*
X129423160Y-57425588D01*
X129402679Y-57568045D01*
X116546392Y-57568045D01*
X116362664Y-57533700D01*
X116151336Y-57533700D01*
X115999261Y-57562128D01*
X115943599Y-57572533D01*
X115901153Y-57588977D01*
X115831529Y-57594838D01*
X115769789Y-57562128D01*
X115735535Y-57501231D01*
X115732360Y-57473579D01*
X115730979Y-56699130D01*
X115750544Y-56632059D01*
X115764477Y-56614145D01*
X116195402Y-56154123D01*
X116255598Y-56118656D01*
X116278021Y-56115147D01*
X119791008Y-55891734D01*
X120465437Y-55391789D01*
X121640958Y-52254518D01*
X121682912Y-52198650D01*
X121686395Y-52196144D01*
X122298132Y-51772091D01*
X122364443Y-51750076D01*
X122368775Y-51750000D01*
X144172415Y-51750000D01*
X144239454Y-51769685D01*
G37*
%TD.AperFunction*%
%TD*%
M02*
