%TF.GenerationSoftware,KiCad,Pcbnew,7.0.9*%
%TF.CreationDate,2023-12-08T19:14:30-07:00*%
%TF.ProjectId,mini_motor_go_V1_rev3,6d696e69-5f6d-46f7-946f-725f676f5f56,rev?*%
%TF.SameCoordinates,Original*%
%TF.FileFunction,Legend,Top*%
%TF.FilePolarity,Positive*%
%FSLAX46Y46*%
G04 Gerber Fmt 4.6, Leading zero omitted, Abs format (unit mm)*
G04 Created by KiCad (PCBNEW 7.0.9) date 2023-12-08 19:14:30*
%MOMM*%
%LPD*%
G01*
G04 APERTURE LIST*
%ADD10C,0.150000*%
%ADD11C,0.200000*%
%ADD12C,0.254000*%
%ADD13C,0.127000*%
%ADD14C,0.120000*%
%ADD15C,0.398780*%
%ADD16C,0.100000*%
%ADD17C,0.203200*%
G04 APERTURE END LIST*
D10*
X124353553Y-63250000D02*
G75*
G03*
X124353553Y-63250000I-353553J0D01*
G01*
X124103553Y-87500000D02*
G75*
G03*
X124103553Y-87500000I-353553J0D01*
G01*
D11*
X160937292Y-52408028D02*
X160937292Y-53479457D01*
X160937292Y-53479457D02*
X160865863Y-53693742D01*
X160865863Y-53693742D02*
X160723006Y-53836600D01*
X160723006Y-53836600D02*
X160508720Y-53908028D01*
X160508720Y-53908028D02*
X160365863Y-53908028D01*
X162365863Y-53908028D02*
X161651577Y-53908028D01*
X161651577Y-53908028D02*
X161651577Y-52408028D01*
X163723006Y-53765171D02*
X163651578Y-53836600D01*
X163651578Y-53836600D02*
X163437292Y-53908028D01*
X163437292Y-53908028D02*
X163294435Y-53908028D01*
X163294435Y-53908028D02*
X163080149Y-53836600D01*
X163080149Y-53836600D02*
X162937292Y-53693742D01*
X162937292Y-53693742D02*
X162865863Y-53550885D01*
X162865863Y-53550885D02*
X162794435Y-53265171D01*
X162794435Y-53265171D02*
X162794435Y-53050885D01*
X162794435Y-53050885D02*
X162865863Y-52765171D01*
X162865863Y-52765171D02*
X162937292Y-52622314D01*
X162937292Y-52622314D02*
X163080149Y-52479457D01*
X163080149Y-52479457D02*
X163294435Y-52408028D01*
X163294435Y-52408028D02*
X163437292Y-52408028D01*
X163437292Y-52408028D02*
X163651578Y-52479457D01*
X163651578Y-52479457D02*
X163723006Y-52550885D01*
X164794435Y-52408028D02*
X164794435Y-53479457D01*
X164794435Y-53479457D02*
X164723006Y-53693742D01*
X164723006Y-53693742D02*
X164580149Y-53836600D01*
X164580149Y-53836600D02*
X164365863Y-53908028D01*
X164365863Y-53908028D02*
X164223006Y-53908028D01*
X166223006Y-53908028D02*
X165508720Y-53908028D01*
X165508720Y-53908028D02*
X165508720Y-52408028D01*
X167580149Y-53765171D02*
X167508721Y-53836600D01*
X167508721Y-53836600D02*
X167294435Y-53908028D01*
X167294435Y-53908028D02*
X167151578Y-53908028D01*
X167151578Y-53908028D02*
X166937292Y-53836600D01*
X166937292Y-53836600D02*
X166794435Y-53693742D01*
X166794435Y-53693742D02*
X166723006Y-53550885D01*
X166723006Y-53550885D02*
X166651578Y-53265171D01*
X166651578Y-53265171D02*
X166651578Y-53050885D01*
X166651578Y-53050885D02*
X166723006Y-52765171D01*
X166723006Y-52765171D02*
X166794435Y-52622314D01*
X166794435Y-52622314D02*
X166937292Y-52479457D01*
X166937292Y-52479457D02*
X167151578Y-52408028D01*
X167151578Y-52408028D02*
X167294435Y-52408028D01*
X167294435Y-52408028D02*
X167508721Y-52479457D01*
X167508721Y-52479457D02*
X167580149Y-52550885D01*
X168651578Y-52408028D02*
X168651578Y-53479457D01*
X168651578Y-53479457D02*
X168580149Y-53693742D01*
X168580149Y-53693742D02*
X168437292Y-53836600D01*
X168437292Y-53836600D02*
X168223006Y-53908028D01*
X168223006Y-53908028D02*
X168080149Y-53908028D01*
X170080149Y-53908028D02*
X169365863Y-53908028D01*
X169365863Y-53908028D02*
X169365863Y-52408028D01*
X171437292Y-53765171D02*
X171365864Y-53836600D01*
X171365864Y-53836600D02*
X171151578Y-53908028D01*
X171151578Y-53908028D02*
X171008721Y-53908028D01*
X171008721Y-53908028D02*
X170794435Y-53836600D01*
X170794435Y-53836600D02*
X170651578Y-53693742D01*
X170651578Y-53693742D02*
X170580149Y-53550885D01*
X170580149Y-53550885D02*
X170508721Y-53265171D01*
X170508721Y-53265171D02*
X170508721Y-53050885D01*
X170508721Y-53050885D02*
X170580149Y-52765171D01*
X170580149Y-52765171D02*
X170651578Y-52622314D01*
X170651578Y-52622314D02*
X170794435Y-52479457D01*
X170794435Y-52479457D02*
X171008721Y-52408028D01*
X171008721Y-52408028D02*
X171151578Y-52408028D01*
X171151578Y-52408028D02*
X171365864Y-52479457D01*
X171365864Y-52479457D02*
X171437292Y-52550885D01*
X172508721Y-52408028D02*
X172508721Y-53479457D01*
X172508721Y-53479457D02*
X172437292Y-53693742D01*
X172437292Y-53693742D02*
X172294435Y-53836600D01*
X172294435Y-53836600D02*
X172080149Y-53908028D01*
X172080149Y-53908028D02*
X171937292Y-53908028D01*
X173937292Y-53908028D02*
X173223006Y-53908028D01*
X173223006Y-53908028D02*
X173223006Y-52408028D01*
X175294435Y-53765171D02*
X175223007Y-53836600D01*
X175223007Y-53836600D02*
X175008721Y-53908028D01*
X175008721Y-53908028D02*
X174865864Y-53908028D01*
X174865864Y-53908028D02*
X174651578Y-53836600D01*
X174651578Y-53836600D02*
X174508721Y-53693742D01*
X174508721Y-53693742D02*
X174437292Y-53550885D01*
X174437292Y-53550885D02*
X174365864Y-53265171D01*
X174365864Y-53265171D02*
X174365864Y-53050885D01*
X174365864Y-53050885D02*
X174437292Y-52765171D01*
X174437292Y-52765171D02*
X174508721Y-52622314D01*
X174508721Y-52622314D02*
X174651578Y-52479457D01*
X174651578Y-52479457D02*
X174865864Y-52408028D01*
X174865864Y-52408028D02*
X175008721Y-52408028D01*
X175008721Y-52408028D02*
X175223007Y-52479457D01*
X175223007Y-52479457D02*
X175294435Y-52550885D01*
D10*
X134753445Y-89215057D02*
X134658207Y-89167438D01*
X134658207Y-89167438D02*
X134562969Y-89072200D01*
X134562969Y-89072200D02*
X134420112Y-88929342D01*
X134420112Y-88929342D02*
X134324874Y-88881723D01*
X134324874Y-88881723D02*
X134229636Y-88881723D01*
X134277255Y-89119819D02*
X134182017Y-89072200D01*
X134182017Y-89072200D02*
X134086779Y-88976961D01*
X134086779Y-88976961D02*
X134039160Y-88786485D01*
X134039160Y-88786485D02*
X134039160Y-88453152D01*
X134039160Y-88453152D02*
X134086779Y-88262676D01*
X134086779Y-88262676D02*
X134182017Y-88167438D01*
X134182017Y-88167438D02*
X134277255Y-88119819D01*
X134277255Y-88119819D02*
X134467731Y-88119819D01*
X134467731Y-88119819D02*
X134562969Y-88167438D01*
X134562969Y-88167438D02*
X134658207Y-88262676D01*
X134658207Y-88262676D02*
X134705826Y-88453152D01*
X134705826Y-88453152D02*
X134705826Y-88786485D01*
X134705826Y-88786485D02*
X134658207Y-88976961D01*
X134658207Y-88976961D02*
X134562969Y-89072200D01*
X134562969Y-89072200D02*
X134467731Y-89119819D01*
X134467731Y-89119819D02*
X134277255Y-89119819D01*
X135039160Y-88453152D02*
X135229636Y-89119819D01*
X135229636Y-89119819D02*
X135420112Y-88643628D01*
X135420112Y-88643628D02*
X135610588Y-89119819D01*
X135610588Y-89119819D02*
X135801064Y-88453152D01*
X136182017Y-89119819D02*
X136182017Y-88453152D01*
X136182017Y-88119819D02*
X136134398Y-88167438D01*
X136134398Y-88167438D02*
X136182017Y-88215057D01*
X136182017Y-88215057D02*
X136229636Y-88167438D01*
X136229636Y-88167438D02*
X136182017Y-88119819D01*
X136182017Y-88119819D02*
X136182017Y-88215057D01*
X136658207Y-89119819D02*
X136658207Y-88453152D01*
X136658207Y-88119819D02*
X136610588Y-88167438D01*
X136610588Y-88167438D02*
X136658207Y-88215057D01*
X136658207Y-88215057D02*
X136705826Y-88167438D01*
X136705826Y-88167438D02*
X136658207Y-88119819D01*
X136658207Y-88119819D02*
X136658207Y-88215057D01*
X137562968Y-89072200D02*
X137467730Y-89119819D01*
X137467730Y-89119819D02*
X137277254Y-89119819D01*
X137277254Y-89119819D02*
X137182016Y-89072200D01*
X137182016Y-89072200D02*
X137134397Y-89024580D01*
X137134397Y-89024580D02*
X137086778Y-88929342D01*
X137086778Y-88929342D02*
X137086778Y-88643628D01*
X137086778Y-88643628D02*
X137134397Y-88548390D01*
X137134397Y-88548390D02*
X137182016Y-88500771D01*
X137182016Y-88500771D02*
X137277254Y-88453152D01*
X137277254Y-88453152D02*
X137467730Y-88453152D01*
X137467730Y-88453152D02*
X137562968Y-88500771D01*
X138801064Y-89072200D02*
X138801064Y-89119819D01*
X138801064Y-89119819D02*
X138753445Y-89215057D01*
X138753445Y-89215057D02*
X138705826Y-89262676D01*
X138753445Y-88500771D02*
X138801064Y-88548390D01*
X138801064Y-88548390D02*
X138753445Y-88596009D01*
X138753445Y-88596009D02*
X138705826Y-88548390D01*
X138705826Y-88548390D02*
X138753445Y-88500771D01*
X138753445Y-88500771D02*
X138753445Y-88596009D01*
X139134397Y-89500771D02*
X139182016Y-89453152D01*
X139182016Y-89453152D02*
X139277254Y-89310295D01*
X139277254Y-89310295D02*
X139324873Y-89215057D01*
X139324873Y-89215057D02*
X139372492Y-89072200D01*
X139372492Y-89072200D02*
X139420111Y-88834104D01*
X139420111Y-88834104D02*
X139420111Y-88643628D01*
X139420111Y-88643628D02*
X139372492Y-88405533D01*
X139372492Y-88405533D02*
X139324873Y-88262676D01*
X139324873Y-88262676D02*
X139277254Y-88167438D01*
X139277254Y-88167438D02*
X139182016Y-88024580D01*
X139182016Y-88024580D02*
X139134397Y-87976961D01*
D11*
X159965863Y-55946028D02*
X160251578Y-56946028D01*
X160251578Y-56946028D02*
X160537292Y-56231742D01*
X160537292Y-56231742D02*
X160823006Y-56946028D01*
X160823006Y-56946028D02*
X161108720Y-55946028D01*
X162323007Y-56946028D02*
X162323007Y-56160314D01*
X162323007Y-56160314D02*
X162251578Y-56017457D01*
X162251578Y-56017457D02*
X162108721Y-55946028D01*
X162108721Y-55946028D02*
X161823007Y-55946028D01*
X161823007Y-55946028D02*
X161680149Y-56017457D01*
X162323007Y-56874600D02*
X162180149Y-56946028D01*
X162180149Y-56946028D02*
X161823007Y-56946028D01*
X161823007Y-56946028D02*
X161680149Y-56874600D01*
X161680149Y-56874600D02*
X161608721Y-56731742D01*
X161608721Y-56731742D02*
X161608721Y-56588885D01*
X161608721Y-56588885D02*
X161680149Y-56446028D01*
X161680149Y-56446028D02*
X161823007Y-56374600D01*
X161823007Y-56374600D02*
X162180149Y-56374600D01*
X162180149Y-56374600D02*
X162323007Y-56303171D01*
X162894435Y-55946028D02*
X163251578Y-56946028D01*
X163608721Y-55946028D02*
X163251578Y-56946028D01*
X163251578Y-56946028D02*
X163108721Y-57303171D01*
X163108721Y-57303171D02*
X163037292Y-57374600D01*
X163037292Y-57374600D02*
X162894435Y-57446028D01*
X164037292Y-55946028D02*
X164323007Y-56946028D01*
X164323007Y-56946028D02*
X164608721Y-56231742D01*
X164608721Y-56231742D02*
X164894435Y-56946028D01*
X164894435Y-56946028D02*
X165180149Y-55946028D01*
X166394436Y-56946028D02*
X166394436Y-56160314D01*
X166394436Y-56160314D02*
X166323007Y-56017457D01*
X166323007Y-56017457D02*
X166180150Y-55946028D01*
X166180150Y-55946028D02*
X165894436Y-55946028D01*
X165894436Y-55946028D02*
X165751578Y-56017457D01*
X166394436Y-56874600D02*
X166251578Y-56946028D01*
X166251578Y-56946028D02*
X165894436Y-56946028D01*
X165894436Y-56946028D02*
X165751578Y-56874600D01*
X165751578Y-56874600D02*
X165680150Y-56731742D01*
X165680150Y-56731742D02*
X165680150Y-56588885D01*
X165680150Y-56588885D02*
X165751578Y-56446028D01*
X165751578Y-56446028D02*
X165894436Y-56374600D01*
X165894436Y-56374600D02*
X166251578Y-56374600D01*
X166251578Y-56374600D02*
X166394436Y-56303171D01*
X166965864Y-55946028D02*
X167323007Y-56946028D01*
X167680150Y-55946028D02*
X167323007Y-56946028D01*
X167323007Y-56946028D02*
X167180150Y-57303171D01*
X167180150Y-57303171D02*
X167108721Y-57374600D01*
X167108721Y-57374600D02*
X166965864Y-57446028D01*
X168108721Y-55946028D02*
X168394436Y-56946028D01*
X168394436Y-56946028D02*
X168680150Y-56231742D01*
X168680150Y-56231742D02*
X168965864Y-56946028D01*
X168965864Y-56946028D02*
X169251578Y-55946028D01*
X170465865Y-56946028D02*
X170465865Y-56160314D01*
X170465865Y-56160314D02*
X170394436Y-56017457D01*
X170394436Y-56017457D02*
X170251579Y-55946028D01*
X170251579Y-55946028D02*
X169965865Y-55946028D01*
X169965865Y-55946028D02*
X169823007Y-56017457D01*
X170465865Y-56874600D02*
X170323007Y-56946028D01*
X170323007Y-56946028D02*
X169965865Y-56946028D01*
X169965865Y-56946028D02*
X169823007Y-56874600D01*
X169823007Y-56874600D02*
X169751579Y-56731742D01*
X169751579Y-56731742D02*
X169751579Y-56588885D01*
X169751579Y-56588885D02*
X169823007Y-56446028D01*
X169823007Y-56446028D02*
X169965865Y-56374600D01*
X169965865Y-56374600D02*
X170323007Y-56374600D01*
X170323007Y-56374600D02*
X170465865Y-56303171D01*
X171037293Y-55946028D02*
X171394436Y-56946028D01*
X171751579Y-55946028D02*
X171394436Y-56946028D01*
X171394436Y-56946028D02*
X171251579Y-57303171D01*
X171251579Y-57303171D02*
X171180150Y-57374600D01*
X171180150Y-57374600D02*
X171037293Y-57446028D01*
X172180150Y-55946028D02*
X172465865Y-56946028D01*
X172465865Y-56946028D02*
X172751579Y-56231742D01*
X172751579Y-56231742D02*
X173037293Y-56946028D01*
X173037293Y-56946028D02*
X173323007Y-55946028D01*
X174537294Y-56946028D02*
X174537294Y-56160314D01*
X174537294Y-56160314D02*
X174465865Y-56017457D01*
X174465865Y-56017457D02*
X174323008Y-55946028D01*
X174323008Y-55946028D02*
X174037294Y-55946028D01*
X174037294Y-55946028D02*
X173894436Y-56017457D01*
X174537294Y-56874600D02*
X174394436Y-56946028D01*
X174394436Y-56946028D02*
X174037294Y-56946028D01*
X174037294Y-56946028D02*
X173894436Y-56874600D01*
X173894436Y-56874600D02*
X173823008Y-56731742D01*
X173823008Y-56731742D02*
X173823008Y-56588885D01*
X173823008Y-56588885D02*
X173894436Y-56446028D01*
X173894436Y-56446028D02*
X174037294Y-56374600D01*
X174037294Y-56374600D02*
X174394436Y-56374600D01*
X174394436Y-56374600D02*
X174537294Y-56303171D01*
X175108722Y-55946028D02*
X175465865Y-56946028D01*
X175823008Y-55946028D02*
X175465865Y-56946028D01*
X175465865Y-56946028D02*
X175323008Y-57303171D01*
X175323008Y-57303171D02*
X175251579Y-57374600D01*
X175251579Y-57374600D02*
X175108722Y-57446028D01*
D10*
X125659652Y-90008096D02*
X125659652Y-90075440D01*
X125659652Y-90075440D02*
X125592308Y-90210127D01*
X125592308Y-90210127D02*
X125524965Y-90277470D01*
X125524965Y-90277470D02*
X125390278Y-90344814D01*
X125390278Y-90344814D02*
X125255591Y-90344814D01*
X125255591Y-90344814D02*
X125154576Y-90311142D01*
X125154576Y-90311142D02*
X124986217Y-90210127D01*
X124986217Y-90210127D02*
X124885202Y-90109112D01*
X124885202Y-90109112D02*
X124784186Y-89940753D01*
X124784186Y-89940753D02*
X124750515Y-89839738D01*
X124750515Y-89839738D02*
X124750515Y-89705051D01*
X124750515Y-89705051D02*
X124817858Y-89570364D01*
X124817858Y-89570364D02*
X124885202Y-89503020D01*
X124885202Y-89503020D02*
X125019889Y-89435677D01*
X125019889Y-89435677D02*
X125087232Y-89435677D01*
X125356606Y-89166303D02*
X125356606Y-89098959D01*
X125356606Y-89098959D02*
X125390278Y-88997944D01*
X125390278Y-88997944D02*
X125558637Y-88829585D01*
X125558637Y-88829585D02*
X125659652Y-88795913D01*
X125659652Y-88795913D02*
X125726995Y-88795913D01*
X125726995Y-88795913D02*
X125828011Y-88829585D01*
X125828011Y-88829585D02*
X125895354Y-88896929D01*
X125895354Y-88896929D02*
X125962698Y-89031616D01*
X125962698Y-89031616D02*
X125962698Y-89839738D01*
X125962698Y-89839738D02*
X126400430Y-89402005D01*
X135686568Y-72656323D02*
X135210377Y-72989656D01*
X135686568Y-73227751D02*
X134686568Y-73227751D01*
X134686568Y-73227751D02*
X134686568Y-72846799D01*
X134686568Y-72846799D02*
X134734187Y-72751561D01*
X134734187Y-72751561D02*
X134781806Y-72703942D01*
X134781806Y-72703942D02*
X134877044Y-72656323D01*
X134877044Y-72656323D02*
X135019901Y-72656323D01*
X135019901Y-72656323D02*
X135115139Y-72703942D01*
X135115139Y-72703942D02*
X135162758Y-72751561D01*
X135162758Y-72751561D02*
X135210377Y-72846799D01*
X135210377Y-72846799D02*
X135210377Y-73227751D01*
X135686568Y-71703942D02*
X135686568Y-72275370D01*
X135686568Y-71989656D02*
X134686568Y-71989656D01*
X134686568Y-71989656D02*
X134829425Y-72084894D01*
X134829425Y-72084894D02*
X134924663Y-72180132D01*
X134924663Y-72180132D02*
X134972282Y-72275370D01*
X135019901Y-70846799D02*
X135686568Y-70846799D01*
X134638949Y-71084894D02*
X135353234Y-71322989D01*
X135353234Y-71322989D02*
X135353234Y-70703942D01*
X148778339Y-81447355D02*
X149283415Y-81952431D01*
X149283415Y-81952431D02*
X149350758Y-82087118D01*
X149350758Y-82087118D02*
X149350758Y-82221805D01*
X149350758Y-82221805D02*
X149283415Y-82356492D01*
X149283415Y-82356492D02*
X149216071Y-82423836D01*
X149822163Y-81817744D02*
X149115056Y-81110637D01*
X149115056Y-81110637D02*
X149384430Y-80841263D01*
X149384430Y-80841263D02*
X149485446Y-80807592D01*
X149485446Y-80807592D02*
X149552789Y-80807592D01*
X149552789Y-80807592D02*
X149653804Y-80841263D01*
X149653804Y-80841263D02*
X149754820Y-80942279D01*
X149754820Y-80942279D02*
X149788491Y-81043294D01*
X149788491Y-81043294D02*
X149788491Y-81110637D01*
X149788491Y-81110637D02*
X149754820Y-81211653D01*
X149754820Y-81211653D02*
X149485446Y-81481027D01*
X150899659Y-80740248D02*
X150495598Y-81144309D01*
X150697629Y-80942279D02*
X149990522Y-80235172D01*
X149990522Y-80235172D02*
X150024194Y-80403531D01*
X150024194Y-80403531D02*
X150024194Y-80538218D01*
X150024194Y-80538218D02*
X149990522Y-80639233D01*
X145862142Y-57404580D02*
X145814523Y-57452200D01*
X145814523Y-57452200D02*
X145671666Y-57499819D01*
X145671666Y-57499819D02*
X145576428Y-57499819D01*
X145576428Y-57499819D02*
X145433571Y-57452200D01*
X145433571Y-57452200D02*
X145338333Y-57356961D01*
X145338333Y-57356961D02*
X145290714Y-57261723D01*
X145290714Y-57261723D02*
X145243095Y-57071247D01*
X145243095Y-57071247D02*
X145243095Y-56928390D01*
X145243095Y-56928390D02*
X145290714Y-56737914D01*
X145290714Y-56737914D02*
X145338333Y-56642676D01*
X145338333Y-56642676D02*
X145433571Y-56547438D01*
X145433571Y-56547438D02*
X145576428Y-56499819D01*
X145576428Y-56499819D02*
X145671666Y-56499819D01*
X145671666Y-56499819D02*
X145814523Y-56547438D01*
X145814523Y-56547438D02*
X145862142Y-56595057D01*
X146814523Y-57499819D02*
X146243095Y-57499819D01*
X146528809Y-57499819D02*
X146528809Y-56499819D01*
X146528809Y-56499819D02*
X146433571Y-56642676D01*
X146433571Y-56642676D02*
X146338333Y-56737914D01*
X146338333Y-56737914D02*
X146243095Y-56785533D01*
X147147857Y-56499819D02*
X147766904Y-56499819D01*
X147766904Y-56499819D02*
X147433571Y-56880771D01*
X147433571Y-56880771D02*
X147576428Y-56880771D01*
X147576428Y-56880771D02*
X147671666Y-56928390D01*
X147671666Y-56928390D02*
X147719285Y-56976009D01*
X147719285Y-56976009D02*
X147766904Y-57071247D01*
X147766904Y-57071247D02*
X147766904Y-57309342D01*
X147766904Y-57309342D02*
X147719285Y-57404580D01*
X147719285Y-57404580D02*
X147671666Y-57452200D01*
X147671666Y-57452200D02*
X147576428Y-57499819D01*
X147576428Y-57499819D02*
X147290714Y-57499819D01*
X147290714Y-57499819D02*
X147195476Y-57452200D01*
X147195476Y-57452200D02*
X147147857Y-57404580D01*
X130058418Y-61970304D02*
X130867941Y-61970304D01*
X130867941Y-61970304D02*
X130963179Y-61922685D01*
X130963179Y-61922685D02*
X131010799Y-61875066D01*
X131010799Y-61875066D02*
X131058418Y-61779828D01*
X131058418Y-61779828D02*
X131058418Y-61589352D01*
X131058418Y-61589352D02*
X131010799Y-61494114D01*
X131010799Y-61494114D02*
X130963179Y-61446495D01*
X130963179Y-61446495D02*
X130867941Y-61398876D01*
X130867941Y-61398876D02*
X130058418Y-61398876D01*
X130391751Y-60494114D02*
X131058418Y-60494114D01*
X130010799Y-60732209D02*
X130725084Y-60970304D01*
X130725084Y-60970304D02*
X130725084Y-60351257D01*
X123682095Y-57781619D02*
X123682095Y-58591142D01*
X123682095Y-58591142D02*
X123729714Y-58686380D01*
X123729714Y-58686380D02*
X123777333Y-58734000D01*
X123777333Y-58734000D02*
X123872571Y-58781619D01*
X123872571Y-58781619D02*
X124063047Y-58781619D01*
X124063047Y-58781619D02*
X124158285Y-58734000D01*
X124158285Y-58734000D02*
X124205904Y-58686380D01*
X124205904Y-58686380D02*
X124253523Y-58591142D01*
X124253523Y-58591142D02*
X124253523Y-57781619D01*
X124682095Y-57876857D02*
X124729714Y-57829238D01*
X124729714Y-57829238D02*
X124824952Y-57781619D01*
X124824952Y-57781619D02*
X125063047Y-57781619D01*
X125063047Y-57781619D02*
X125158285Y-57829238D01*
X125158285Y-57829238D02*
X125205904Y-57876857D01*
X125205904Y-57876857D02*
X125253523Y-57972095D01*
X125253523Y-57972095D02*
X125253523Y-58067333D01*
X125253523Y-58067333D02*
X125205904Y-58210190D01*
X125205904Y-58210190D02*
X124634476Y-58781619D01*
X124634476Y-58781619D02*
X125253523Y-58781619D01*
X133407451Y-72177483D02*
X132931260Y-72510816D01*
X133407451Y-72748911D02*
X132407451Y-72748911D01*
X132407451Y-72748911D02*
X132407451Y-72367959D01*
X132407451Y-72367959D02*
X132455070Y-72272721D01*
X132455070Y-72272721D02*
X132502689Y-72225102D01*
X132502689Y-72225102D02*
X132597927Y-72177483D01*
X132597927Y-72177483D02*
X132740784Y-72177483D01*
X132740784Y-72177483D02*
X132836022Y-72225102D01*
X132836022Y-72225102D02*
X132883641Y-72272721D01*
X132883641Y-72272721D02*
X132931260Y-72367959D01*
X132931260Y-72367959D02*
X132931260Y-72748911D01*
X132407451Y-71844149D02*
X132407451Y-71177483D01*
X132407451Y-71177483D02*
X133407451Y-71606054D01*
X169752142Y-78044580D02*
X169704523Y-78092200D01*
X169704523Y-78092200D02*
X169561666Y-78139819D01*
X169561666Y-78139819D02*
X169466428Y-78139819D01*
X169466428Y-78139819D02*
X169323571Y-78092200D01*
X169323571Y-78092200D02*
X169228333Y-77996961D01*
X169228333Y-77996961D02*
X169180714Y-77901723D01*
X169180714Y-77901723D02*
X169133095Y-77711247D01*
X169133095Y-77711247D02*
X169133095Y-77568390D01*
X169133095Y-77568390D02*
X169180714Y-77377914D01*
X169180714Y-77377914D02*
X169228333Y-77282676D01*
X169228333Y-77282676D02*
X169323571Y-77187438D01*
X169323571Y-77187438D02*
X169466428Y-77139819D01*
X169466428Y-77139819D02*
X169561666Y-77139819D01*
X169561666Y-77139819D02*
X169704523Y-77187438D01*
X169704523Y-77187438D02*
X169752142Y-77235057D01*
X170704523Y-78139819D02*
X170133095Y-78139819D01*
X170418809Y-78139819D02*
X170418809Y-77139819D01*
X170418809Y-77139819D02*
X170323571Y-77282676D01*
X170323571Y-77282676D02*
X170228333Y-77377914D01*
X170228333Y-77377914D02*
X170133095Y-77425533D01*
X171275952Y-77568390D02*
X171180714Y-77520771D01*
X171180714Y-77520771D02*
X171133095Y-77473152D01*
X171133095Y-77473152D02*
X171085476Y-77377914D01*
X171085476Y-77377914D02*
X171085476Y-77330295D01*
X171085476Y-77330295D02*
X171133095Y-77235057D01*
X171133095Y-77235057D02*
X171180714Y-77187438D01*
X171180714Y-77187438D02*
X171275952Y-77139819D01*
X171275952Y-77139819D02*
X171466428Y-77139819D01*
X171466428Y-77139819D02*
X171561666Y-77187438D01*
X171561666Y-77187438D02*
X171609285Y-77235057D01*
X171609285Y-77235057D02*
X171656904Y-77330295D01*
X171656904Y-77330295D02*
X171656904Y-77377914D01*
X171656904Y-77377914D02*
X171609285Y-77473152D01*
X171609285Y-77473152D02*
X171561666Y-77520771D01*
X171561666Y-77520771D02*
X171466428Y-77568390D01*
X171466428Y-77568390D02*
X171275952Y-77568390D01*
X171275952Y-77568390D02*
X171180714Y-77616009D01*
X171180714Y-77616009D02*
X171133095Y-77663628D01*
X171133095Y-77663628D02*
X171085476Y-77758866D01*
X171085476Y-77758866D02*
X171085476Y-77949342D01*
X171085476Y-77949342D02*
X171133095Y-78044580D01*
X171133095Y-78044580D02*
X171180714Y-78092200D01*
X171180714Y-78092200D02*
X171275952Y-78139819D01*
X171275952Y-78139819D02*
X171466428Y-78139819D01*
X171466428Y-78139819D02*
X171561666Y-78092200D01*
X171561666Y-78092200D02*
X171609285Y-78044580D01*
X171609285Y-78044580D02*
X171656904Y-77949342D01*
X171656904Y-77949342D02*
X171656904Y-77758866D01*
X171656904Y-77758866D02*
X171609285Y-77663628D01*
X171609285Y-77663628D02*
X171561666Y-77616009D01*
X171561666Y-77616009D02*
X171466428Y-77568390D01*
X164962143Y-78084580D02*
X164914524Y-78132200D01*
X164914524Y-78132200D02*
X164771667Y-78179819D01*
X164771667Y-78179819D02*
X164676429Y-78179819D01*
X164676429Y-78179819D02*
X164533572Y-78132200D01*
X164533572Y-78132200D02*
X164438334Y-78036961D01*
X164438334Y-78036961D02*
X164390715Y-77941723D01*
X164390715Y-77941723D02*
X164343096Y-77751247D01*
X164343096Y-77751247D02*
X164343096Y-77608390D01*
X164343096Y-77608390D02*
X164390715Y-77417914D01*
X164390715Y-77417914D02*
X164438334Y-77322676D01*
X164438334Y-77322676D02*
X164533572Y-77227438D01*
X164533572Y-77227438D02*
X164676429Y-77179819D01*
X164676429Y-77179819D02*
X164771667Y-77179819D01*
X164771667Y-77179819D02*
X164914524Y-77227438D01*
X164914524Y-77227438D02*
X164962143Y-77275057D01*
X165914524Y-78179819D02*
X165343096Y-78179819D01*
X165628810Y-78179819D02*
X165628810Y-77179819D01*
X165628810Y-77179819D02*
X165533572Y-77322676D01*
X165533572Y-77322676D02*
X165438334Y-77417914D01*
X165438334Y-77417914D02*
X165343096Y-77465533D01*
X166247858Y-77179819D02*
X166914524Y-77179819D01*
X166914524Y-77179819D02*
X166485953Y-78179819D01*
X161830197Y-84092393D02*
X161931212Y-83519974D01*
X161426136Y-83688332D02*
X162133243Y-82981226D01*
X162133243Y-82981226D02*
X162402617Y-83250600D01*
X162402617Y-83250600D02*
X162436289Y-83351615D01*
X162436289Y-83351615D02*
X162436289Y-83418958D01*
X162436289Y-83418958D02*
X162402617Y-83519974D01*
X162402617Y-83519974D02*
X162301602Y-83620989D01*
X162301602Y-83620989D02*
X162200586Y-83654661D01*
X162200586Y-83654661D02*
X162133243Y-83654661D01*
X162133243Y-83654661D02*
X162032228Y-83620989D01*
X162032228Y-83620989D02*
X161762854Y-83351615D01*
X162739334Y-83722004D02*
X162806678Y-83722004D01*
X162806678Y-83722004D02*
X162907693Y-83755676D01*
X162907693Y-83755676D02*
X163076052Y-83924035D01*
X163076052Y-83924035D02*
X163109724Y-84025050D01*
X163109724Y-84025050D02*
X163109724Y-84092393D01*
X163109724Y-84092393D02*
X163076052Y-84193409D01*
X163076052Y-84193409D02*
X163008708Y-84260752D01*
X163008708Y-84260752D02*
X162874021Y-84328096D01*
X162874021Y-84328096D02*
X162065899Y-84328096D01*
X162065899Y-84328096D02*
X162503632Y-84765828D01*
X163648472Y-84496455D02*
X163715815Y-84563798D01*
X163715815Y-84563798D02*
X163749487Y-84664813D01*
X163749487Y-84664813D02*
X163749487Y-84732157D01*
X163749487Y-84732157D02*
X163715815Y-84833172D01*
X163715815Y-84833172D02*
X163614800Y-85001531D01*
X163614800Y-85001531D02*
X163446441Y-85169890D01*
X163446441Y-85169890D02*
X163278083Y-85270905D01*
X163278083Y-85270905D02*
X163177067Y-85304577D01*
X163177067Y-85304577D02*
X163109724Y-85304577D01*
X163109724Y-85304577D02*
X163008709Y-85270905D01*
X163008709Y-85270905D02*
X162941365Y-85203561D01*
X162941365Y-85203561D02*
X162907693Y-85102546D01*
X162907693Y-85102546D02*
X162907693Y-85035203D01*
X162907693Y-85035203D02*
X162941365Y-84934187D01*
X162941365Y-84934187D02*
X163042380Y-84765829D01*
X163042380Y-84765829D02*
X163210739Y-84597470D01*
X163210739Y-84597470D02*
X163379098Y-84496455D01*
X163379098Y-84496455D02*
X163480113Y-84462783D01*
X163480113Y-84462783D02*
X163547457Y-84462783D01*
X163547457Y-84462783D02*
X163648472Y-84496455D01*
X129434343Y-86288362D02*
X130243866Y-86288362D01*
X130243866Y-86288362D02*
X130339104Y-86240743D01*
X130339104Y-86240743D02*
X130386724Y-86193124D01*
X130386724Y-86193124D02*
X130434343Y-86097886D01*
X130434343Y-86097886D02*
X130434343Y-85907410D01*
X130434343Y-85907410D02*
X130386724Y-85812172D01*
X130386724Y-85812172D02*
X130339104Y-85764553D01*
X130339104Y-85764553D02*
X130243866Y-85716934D01*
X130243866Y-85716934D02*
X129434343Y-85716934D01*
X129434343Y-85335981D02*
X129434343Y-84716934D01*
X129434343Y-84716934D02*
X129815295Y-85050267D01*
X129815295Y-85050267D02*
X129815295Y-84907410D01*
X129815295Y-84907410D02*
X129862914Y-84812172D01*
X129862914Y-84812172D02*
X129910533Y-84764553D01*
X129910533Y-84764553D02*
X130005771Y-84716934D01*
X130005771Y-84716934D02*
X130243866Y-84716934D01*
X130243866Y-84716934D02*
X130339104Y-84764553D01*
X130339104Y-84764553D02*
X130386724Y-84812172D01*
X130386724Y-84812172D02*
X130434343Y-84907410D01*
X130434343Y-84907410D02*
X130434343Y-85193124D01*
X130434343Y-85193124D02*
X130386724Y-85288362D01*
X130386724Y-85288362D02*
X130339104Y-85335981D01*
X152379412Y-61010941D02*
X152331793Y-61058561D01*
X152331793Y-61058561D02*
X152188936Y-61106180D01*
X152188936Y-61106180D02*
X152093698Y-61106180D01*
X152093698Y-61106180D02*
X151950841Y-61058561D01*
X151950841Y-61058561D02*
X151855603Y-60963322D01*
X151855603Y-60963322D02*
X151807984Y-60868084D01*
X151807984Y-60868084D02*
X151760365Y-60677608D01*
X151760365Y-60677608D02*
X151760365Y-60534751D01*
X151760365Y-60534751D02*
X151807984Y-60344275D01*
X151807984Y-60344275D02*
X151855603Y-60249037D01*
X151855603Y-60249037D02*
X151950841Y-60153799D01*
X151950841Y-60153799D02*
X152093698Y-60106180D01*
X152093698Y-60106180D02*
X152188936Y-60106180D01*
X152188936Y-60106180D02*
X152331793Y-60153799D01*
X152331793Y-60153799D02*
X152379412Y-60201418D01*
X152855603Y-61106180D02*
X153046079Y-61106180D01*
X153046079Y-61106180D02*
X153141317Y-61058561D01*
X153141317Y-61058561D02*
X153188936Y-61010941D01*
X153188936Y-61010941D02*
X153284174Y-60868084D01*
X153284174Y-60868084D02*
X153331793Y-60677608D01*
X153331793Y-60677608D02*
X153331793Y-60296656D01*
X153331793Y-60296656D02*
X153284174Y-60201418D01*
X153284174Y-60201418D02*
X153236555Y-60153799D01*
X153236555Y-60153799D02*
X153141317Y-60106180D01*
X153141317Y-60106180D02*
X152950841Y-60106180D01*
X152950841Y-60106180D02*
X152855603Y-60153799D01*
X152855603Y-60153799D02*
X152807984Y-60201418D01*
X152807984Y-60201418D02*
X152760365Y-60296656D01*
X152760365Y-60296656D02*
X152760365Y-60534751D01*
X152760365Y-60534751D02*
X152807984Y-60629989D01*
X152807984Y-60629989D02*
X152855603Y-60677608D01*
X152855603Y-60677608D02*
X152950841Y-60725227D01*
X152950841Y-60725227D02*
X153141317Y-60725227D01*
X153141317Y-60725227D02*
X153236555Y-60677608D01*
X153236555Y-60677608D02*
X153284174Y-60629989D01*
X153284174Y-60629989D02*
X153331793Y-60534751D01*
X172541110Y-84339636D02*
X172207777Y-83863445D01*
X171969682Y-84339636D02*
X171969682Y-83339636D01*
X171969682Y-83339636D02*
X172350634Y-83339636D01*
X172350634Y-83339636D02*
X172445872Y-83387255D01*
X172445872Y-83387255D02*
X172493491Y-83434874D01*
X172493491Y-83434874D02*
X172541110Y-83530112D01*
X172541110Y-83530112D02*
X172541110Y-83672969D01*
X172541110Y-83672969D02*
X172493491Y-83768207D01*
X172493491Y-83768207D02*
X172445872Y-83815826D01*
X172445872Y-83815826D02*
X172350634Y-83863445D01*
X172350634Y-83863445D02*
X171969682Y-83863445D01*
X172922063Y-83434874D02*
X172969682Y-83387255D01*
X172969682Y-83387255D02*
X173064920Y-83339636D01*
X173064920Y-83339636D02*
X173303015Y-83339636D01*
X173303015Y-83339636D02*
X173398253Y-83387255D01*
X173398253Y-83387255D02*
X173445872Y-83434874D01*
X173445872Y-83434874D02*
X173493491Y-83530112D01*
X173493491Y-83530112D02*
X173493491Y-83625350D01*
X173493491Y-83625350D02*
X173445872Y-83768207D01*
X173445872Y-83768207D02*
X172874444Y-84339636D01*
X172874444Y-84339636D02*
X173493491Y-84339636D01*
X174398253Y-83339636D02*
X173922063Y-83339636D01*
X173922063Y-83339636D02*
X173874444Y-83815826D01*
X173874444Y-83815826D02*
X173922063Y-83768207D01*
X173922063Y-83768207D02*
X174017301Y-83720588D01*
X174017301Y-83720588D02*
X174255396Y-83720588D01*
X174255396Y-83720588D02*
X174350634Y-83768207D01*
X174350634Y-83768207D02*
X174398253Y-83815826D01*
X174398253Y-83815826D02*
X174445872Y-83911064D01*
X174445872Y-83911064D02*
X174445872Y-84149159D01*
X174445872Y-84149159D02*
X174398253Y-84244397D01*
X174398253Y-84244397D02*
X174350634Y-84292017D01*
X174350634Y-84292017D02*
X174255396Y-84339636D01*
X174255396Y-84339636D02*
X174017301Y-84339636D01*
X174017301Y-84339636D02*
X173922063Y-84292017D01*
X173922063Y-84292017D02*
X173874444Y-84244397D01*
X143817142Y-63446819D02*
X143483809Y-62970628D01*
X143245714Y-63446819D02*
X143245714Y-62446819D01*
X143245714Y-62446819D02*
X143626666Y-62446819D01*
X143626666Y-62446819D02*
X143721904Y-62494438D01*
X143721904Y-62494438D02*
X143769523Y-62542057D01*
X143769523Y-62542057D02*
X143817142Y-62637295D01*
X143817142Y-62637295D02*
X143817142Y-62780152D01*
X143817142Y-62780152D02*
X143769523Y-62875390D01*
X143769523Y-62875390D02*
X143721904Y-62923009D01*
X143721904Y-62923009D02*
X143626666Y-62970628D01*
X143626666Y-62970628D02*
X143245714Y-62970628D01*
X144769523Y-63446819D02*
X144198095Y-63446819D01*
X144483809Y-63446819D02*
X144483809Y-62446819D01*
X144483809Y-62446819D02*
X144388571Y-62589676D01*
X144388571Y-62589676D02*
X144293333Y-62684914D01*
X144293333Y-62684914D02*
X144198095Y-62732533D01*
X145102857Y-62446819D02*
X145769523Y-62446819D01*
X145769523Y-62446819D02*
X145340952Y-63446819D01*
X143684742Y-86784923D02*
X143351409Y-86308732D01*
X143113314Y-86784923D02*
X143113314Y-85784923D01*
X143113314Y-85784923D02*
X143494266Y-85784923D01*
X143494266Y-85784923D02*
X143589504Y-85832542D01*
X143589504Y-85832542D02*
X143637123Y-85880161D01*
X143637123Y-85880161D02*
X143684742Y-85975399D01*
X143684742Y-85975399D02*
X143684742Y-86118256D01*
X143684742Y-86118256D02*
X143637123Y-86213494D01*
X143637123Y-86213494D02*
X143589504Y-86261113D01*
X143589504Y-86261113D02*
X143494266Y-86308732D01*
X143494266Y-86308732D02*
X143113314Y-86308732D01*
X144018076Y-85784923D02*
X144637123Y-85784923D01*
X144637123Y-85784923D02*
X144303790Y-86165875D01*
X144303790Y-86165875D02*
X144446647Y-86165875D01*
X144446647Y-86165875D02*
X144541885Y-86213494D01*
X144541885Y-86213494D02*
X144589504Y-86261113D01*
X144589504Y-86261113D02*
X144637123Y-86356351D01*
X144637123Y-86356351D02*
X144637123Y-86594446D01*
X144637123Y-86594446D02*
X144589504Y-86689684D01*
X144589504Y-86689684D02*
X144541885Y-86737304D01*
X144541885Y-86737304D02*
X144446647Y-86784923D01*
X144446647Y-86784923D02*
X144160933Y-86784923D01*
X144160933Y-86784923D02*
X144065695Y-86737304D01*
X144065695Y-86737304D02*
X144018076Y-86689684D01*
X144970457Y-85784923D02*
X145589504Y-85784923D01*
X145589504Y-85784923D02*
X145256171Y-86165875D01*
X145256171Y-86165875D02*
X145399028Y-86165875D01*
X145399028Y-86165875D02*
X145494266Y-86213494D01*
X145494266Y-86213494D02*
X145541885Y-86261113D01*
X145541885Y-86261113D02*
X145589504Y-86356351D01*
X145589504Y-86356351D02*
X145589504Y-86594446D01*
X145589504Y-86594446D02*
X145541885Y-86689684D01*
X145541885Y-86689684D02*
X145494266Y-86737304D01*
X145494266Y-86737304D02*
X145399028Y-86784923D01*
X145399028Y-86784923D02*
X145113314Y-86784923D01*
X145113314Y-86784923D02*
X145018076Y-86737304D01*
X145018076Y-86737304D02*
X144970457Y-86689684D01*
X121017733Y-61863580D02*
X120970114Y-61911200D01*
X120970114Y-61911200D02*
X120827257Y-61958819D01*
X120827257Y-61958819D02*
X120732019Y-61958819D01*
X120732019Y-61958819D02*
X120589162Y-61911200D01*
X120589162Y-61911200D02*
X120493924Y-61815961D01*
X120493924Y-61815961D02*
X120446305Y-61720723D01*
X120446305Y-61720723D02*
X120398686Y-61530247D01*
X120398686Y-61530247D02*
X120398686Y-61387390D01*
X120398686Y-61387390D02*
X120446305Y-61196914D01*
X120446305Y-61196914D02*
X120493924Y-61101676D01*
X120493924Y-61101676D02*
X120589162Y-61006438D01*
X120589162Y-61006438D02*
X120732019Y-60958819D01*
X120732019Y-60958819D02*
X120827257Y-60958819D01*
X120827257Y-60958819D02*
X120970114Y-61006438D01*
X120970114Y-61006438D02*
X121017733Y-61054057D01*
X121874876Y-60958819D02*
X121684400Y-60958819D01*
X121684400Y-60958819D02*
X121589162Y-61006438D01*
X121589162Y-61006438D02*
X121541543Y-61054057D01*
X121541543Y-61054057D02*
X121446305Y-61196914D01*
X121446305Y-61196914D02*
X121398686Y-61387390D01*
X121398686Y-61387390D02*
X121398686Y-61768342D01*
X121398686Y-61768342D02*
X121446305Y-61863580D01*
X121446305Y-61863580D02*
X121493924Y-61911200D01*
X121493924Y-61911200D02*
X121589162Y-61958819D01*
X121589162Y-61958819D02*
X121779638Y-61958819D01*
X121779638Y-61958819D02*
X121874876Y-61911200D01*
X121874876Y-61911200D02*
X121922495Y-61863580D01*
X121922495Y-61863580D02*
X121970114Y-61768342D01*
X121970114Y-61768342D02*
X121970114Y-61530247D01*
X121970114Y-61530247D02*
X121922495Y-61435009D01*
X121922495Y-61435009D02*
X121874876Y-61387390D01*
X121874876Y-61387390D02*
X121779638Y-61339771D01*
X121779638Y-61339771D02*
X121589162Y-61339771D01*
X121589162Y-61339771D02*
X121493924Y-61387390D01*
X121493924Y-61387390D02*
X121446305Y-61435009D01*
X121446305Y-61435009D02*
X121398686Y-61530247D01*
D12*
X150317459Y-65142794D02*
X150317459Y-65747556D01*
X150317459Y-65747556D02*
X149047459Y-65747556D01*
X150317459Y-64054222D02*
X150317459Y-64779937D01*
X150317459Y-64417080D02*
X149047459Y-64417080D01*
X149047459Y-64417080D02*
X149228887Y-64538032D01*
X149228887Y-64538032D02*
X149349840Y-64658984D01*
X149349840Y-64658984D02*
X149410316Y-64779937D01*
X121740634Y-88863150D02*
X121317300Y-88258388D01*
X121014919Y-88863150D02*
X121014919Y-87593150D01*
X121014919Y-87593150D02*
X121498729Y-87593150D01*
X121498729Y-87593150D02*
X121619681Y-87653626D01*
X121619681Y-87653626D02*
X121680158Y-87714102D01*
X121680158Y-87714102D02*
X121740634Y-87835054D01*
X121740634Y-87835054D02*
X121740634Y-88016483D01*
X121740634Y-88016483D02*
X121680158Y-88137435D01*
X121680158Y-88137435D02*
X121619681Y-88197912D01*
X121619681Y-88197912D02*
X121498729Y-88258388D01*
X121498729Y-88258388D02*
X121014919Y-88258388D01*
X122950158Y-88863150D02*
X122224443Y-88863150D01*
X122587300Y-88863150D02*
X122587300Y-87593150D01*
X122587300Y-87593150D02*
X122466348Y-87774578D01*
X122466348Y-87774578D02*
X122345396Y-87895531D01*
X122345396Y-87895531D02*
X122224443Y-87956007D01*
D10*
X143692300Y-87907662D02*
X143358967Y-87431471D01*
X143120872Y-87907662D02*
X143120872Y-86907662D01*
X143120872Y-86907662D02*
X143501824Y-86907662D01*
X143501824Y-86907662D02*
X143597062Y-86955281D01*
X143597062Y-86955281D02*
X143644681Y-87002900D01*
X143644681Y-87002900D02*
X143692300Y-87098138D01*
X143692300Y-87098138D02*
X143692300Y-87240995D01*
X143692300Y-87240995D02*
X143644681Y-87336233D01*
X143644681Y-87336233D02*
X143597062Y-87383852D01*
X143597062Y-87383852D02*
X143501824Y-87431471D01*
X143501824Y-87431471D02*
X143120872Y-87431471D01*
X144073253Y-87002900D02*
X144120872Y-86955281D01*
X144120872Y-86955281D02*
X144216110Y-86907662D01*
X144216110Y-86907662D02*
X144454205Y-86907662D01*
X144454205Y-86907662D02*
X144549443Y-86955281D01*
X144549443Y-86955281D02*
X144597062Y-87002900D01*
X144597062Y-87002900D02*
X144644681Y-87098138D01*
X144644681Y-87098138D02*
X144644681Y-87193376D01*
X144644681Y-87193376D02*
X144597062Y-87336233D01*
X144597062Y-87336233D02*
X144025634Y-87907662D01*
X144025634Y-87907662D02*
X144644681Y-87907662D01*
X145025634Y-87002900D02*
X145073253Y-86955281D01*
X145073253Y-86955281D02*
X145168491Y-86907662D01*
X145168491Y-86907662D02*
X145406586Y-86907662D01*
X145406586Y-86907662D02*
X145501824Y-86955281D01*
X145501824Y-86955281D02*
X145549443Y-87002900D01*
X145549443Y-87002900D02*
X145597062Y-87098138D01*
X145597062Y-87098138D02*
X145597062Y-87193376D01*
X145597062Y-87193376D02*
X145549443Y-87336233D01*
X145549443Y-87336233D02*
X144978015Y-87907662D01*
X144978015Y-87907662D02*
X145597062Y-87907662D01*
X120200476Y-80064819D02*
X120200476Y-80779104D01*
X120200476Y-80779104D02*
X120152857Y-80921961D01*
X120152857Y-80921961D02*
X120057619Y-81017200D01*
X120057619Y-81017200D02*
X119914762Y-81064819D01*
X119914762Y-81064819D02*
X119819524Y-81064819D01*
X121200476Y-81064819D02*
X120629048Y-81064819D01*
X120914762Y-81064819D02*
X120914762Y-80064819D01*
X120914762Y-80064819D02*
X120819524Y-80207676D01*
X120819524Y-80207676D02*
X120724286Y-80302914D01*
X120724286Y-80302914D02*
X120629048Y-80350533D01*
X121581429Y-80160057D02*
X121629048Y-80112438D01*
X121629048Y-80112438D02*
X121724286Y-80064819D01*
X121724286Y-80064819D02*
X121962381Y-80064819D01*
X121962381Y-80064819D02*
X122057619Y-80112438D01*
X122057619Y-80112438D02*
X122105238Y-80160057D01*
X122105238Y-80160057D02*
X122152857Y-80255295D01*
X122152857Y-80255295D02*
X122152857Y-80350533D01*
X122152857Y-80350533D02*
X122105238Y-80493390D01*
X122105238Y-80493390D02*
X121533810Y-81064819D01*
X121533810Y-81064819D02*
X122152857Y-81064819D01*
X132264788Y-72181055D02*
X131788597Y-72514388D01*
X132264788Y-72752483D02*
X131264788Y-72752483D01*
X131264788Y-72752483D02*
X131264788Y-72371531D01*
X131264788Y-72371531D02*
X131312407Y-72276293D01*
X131312407Y-72276293D02*
X131360026Y-72228674D01*
X131360026Y-72228674D02*
X131455264Y-72181055D01*
X131455264Y-72181055D02*
X131598121Y-72181055D01*
X131598121Y-72181055D02*
X131693359Y-72228674D01*
X131693359Y-72228674D02*
X131740978Y-72276293D01*
X131740978Y-72276293D02*
X131788597Y-72371531D01*
X131788597Y-72371531D02*
X131788597Y-72752483D01*
X131264788Y-71276293D02*
X131264788Y-71752483D01*
X131264788Y-71752483D02*
X131740978Y-71800102D01*
X131740978Y-71800102D02*
X131693359Y-71752483D01*
X131693359Y-71752483D02*
X131645740Y-71657245D01*
X131645740Y-71657245D02*
X131645740Y-71419150D01*
X131645740Y-71419150D02*
X131693359Y-71323912D01*
X131693359Y-71323912D02*
X131740978Y-71276293D01*
X131740978Y-71276293D02*
X131836216Y-71228674D01*
X131836216Y-71228674D02*
X132074311Y-71228674D01*
X132074311Y-71228674D02*
X132169549Y-71276293D01*
X132169549Y-71276293D02*
X132217169Y-71323912D01*
X132217169Y-71323912D02*
X132264788Y-71419150D01*
X132264788Y-71419150D02*
X132264788Y-71657245D01*
X132264788Y-71657245D02*
X132217169Y-71752483D01*
X132217169Y-71752483D02*
X132169549Y-71800102D01*
X169402098Y-89370546D02*
X169068765Y-88894355D01*
X168830670Y-89370546D02*
X168830670Y-88370546D01*
X168830670Y-88370546D02*
X169211622Y-88370546D01*
X169211622Y-88370546D02*
X169306860Y-88418165D01*
X169306860Y-88418165D02*
X169354479Y-88465784D01*
X169354479Y-88465784D02*
X169402098Y-88561022D01*
X169402098Y-88561022D02*
X169402098Y-88703879D01*
X169402098Y-88703879D02*
X169354479Y-88799117D01*
X169354479Y-88799117D02*
X169306860Y-88846736D01*
X169306860Y-88846736D02*
X169211622Y-88894355D01*
X169211622Y-88894355D02*
X168830670Y-88894355D01*
X169783051Y-88465784D02*
X169830670Y-88418165D01*
X169830670Y-88418165D02*
X169925908Y-88370546D01*
X169925908Y-88370546D02*
X170164003Y-88370546D01*
X170164003Y-88370546D02*
X170259241Y-88418165D01*
X170259241Y-88418165D02*
X170306860Y-88465784D01*
X170306860Y-88465784D02*
X170354479Y-88561022D01*
X170354479Y-88561022D02*
X170354479Y-88656260D01*
X170354479Y-88656260D02*
X170306860Y-88799117D01*
X170306860Y-88799117D02*
X169735432Y-89370546D01*
X169735432Y-89370546D02*
X170354479Y-89370546D01*
X171211622Y-88703879D02*
X171211622Y-89370546D01*
X170973527Y-88322927D02*
X170735432Y-89037212D01*
X170735432Y-89037212D02*
X171354479Y-89037212D01*
X144963854Y-77410449D02*
X145468930Y-77915525D01*
X145468930Y-77915525D02*
X145536273Y-78050212D01*
X145536273Y-78050212D02*
X145536273Y-78184899D01*
X145536273Y-78184899D02*
X145468930Y-78319586D01*
X145468930Y-78319586D02*
X145401586Y-78386930D01*
X146007678Y-77780838D02*
X145300571Y-77073731D01*
X145300571Y-77073731D02*
X145569945Y-76804357D01*
X145569945Y-76804357D02*
X145670961Y-76770686D01*
X145670961Y-76770686D02*
X145738304Y-76770686D01*
X145738304Y-76770686D02*
X145839319Y-76804357D01*
X145839319Y-76804357D02*
X145940335Y-76905373D01*
X145940335Y-76905373D02*
X145974006Y-77006388D01*
X145974006Y-77006388D02*
X145974006Y-77073731D01*
X145974006Y-77073731D02*
X145940335Y-77174747D01*
X145940335Y-77174747D02*
X145670961Y-77444121D01*
X145940335Y-76433968D02*
X146378067Y-75996235D01*
X146378067Y-75996235D02*
X146411739Y-76501312D01*
X146411739Y-76501312D02*
X146512754Y-76400296D01*
X146512754Y-76400296D02*
X146613770Y-76366625D01*
X146613770Y-76366625D02*
X146681113Y-76366625D01*
X146681113Y-76366625D02*
X146782128Y-76400296D01*
X146782128Y-76400296D02*
X146950487Y-76568655D01*
X146950487Y-76568655D02*
X146984159Y-76669670D01*
X146984159Y-76669670D02*
X146984159Y-76737014D01*
X146984159Y-76737014D02*
X146950487Y-76838029D01*
X146950487Y-76838029D02*
X146748457Y-77040060D01*
X146748457Y-77040060D02*
X146647441Y-77073731D01*
X146647441Y-77073731D02*
X146580098Y-77073731D01*
X162654709Y-83233862D02*
X162755724Y-82661443D01*
X162250648Y-82829801D02*
X162957755Y-82122695D01*
X162957755Y-82122695D02*
X163227129Y-82392069D01*
X163227129Y-82392069D02*
X163260801Y-82493084D01*
X163260801Y-82493084D02*
X163260801Y-82560427D01*
X163260801Y-82560427D02*
X163227129Y-82661443D01*
X163227129Y-82661443D02*
X163126114Y-82762458D01*
X163126114Y-82762458D02*
X163025098Y-82796130D01*
X163025098Y-82796130D02*
X162957755Y-82796130D01*
X162957755Y-82796130D02*
X162856740Y-82762458D01*
X162856740Y-82762458D02*
X162587366Y-82493084D01*
X163563846Y-82863473D02*
X163631190Y-82863473D01*
X163631190Y-82863473D02*
X163732205Y-82897145D01*
X163732205Y-82897145D02*
X163900564Y-83065504D01*
X163900564Y-83065504D02*
X163934236Y-83166519D01*
X163934236Y-83166519D02*
X163934236Y-83233862D01*
X163934236Y-83233862D02*
X163900564Y-83334878D01*
X163900564Y-83334878D02*
X163833220Y-83402221D01*
X163833220Y-83402221D02*
X163698533Y-83469565D01*
X163698533Y-83469565D02*
X162890411Y-83469565D01*
X162890411Y-83469565D02*
X163328144Y-83907297D01*
X164001579Y-84580733D02*
X163597518Y-84176672D01*
X163799549Y-84378702D02*
X164506656Y-83671595D01*
X164506656Y-83671595D02*
X164338297Y-83705267D01*
X164338297Y-83705267D02*
X164203610Y-83705267D01*
X164203610Y-83705267D02*
X164102595Y-83671595D01*
X142026729Y-69395754D02*
X141550538Y-69729087D01*
X142026729Y-69967182D02*
X141026729Y-69967182D01*
X141026729Y-69967182D02*
X141026729Y-69586230D01*
X141026729Y-69586230D02*
X141074348Y-69490992D01*
X141074348Y-69490992D02*
X141121967Y-69443373D01*
X141121967Y-69443373D02*
X141217205Y-69395754D01*
X141217205Y-69395754D02*
X141360062Y-69395754D01*
X141360062Y-69395754D02*
X141455300Y-69443373D01*
X141455300Y-69443373D02*
X141502919Y-69490992D01*
X141502919Y-69490992D02*
X141550538Y-69586230D01*
X141550538Y-69586230D02*
X141550538Y-69967182D01*
X142026729Y-68443373D02*
X142026729Y-69014801D01*
X142026729Y-68729087D02*
X141026729Y-68729087D01*
X141026729Y-68729087D02*
X141169586Y-68824325D01*
X141169586Y-68824325D02*
X141264824Y-68919563D01*
X141264824Y-68919563D02*
X141312443Y-69014801D01*
X142026729Y-67967182D02*
X142026729Y-67776706D01*
X142026729Y-67776706D02*
X141979110Y-67681468D01*
X141979110Y-67681468D02*
X141931490Y-67633849D01*
X141931490Y-67633849D02*
X141788633Y-67538611D01*
X141788633Y-67538611D02*
X141598157Y-67490992D01*
X141598157Y-67490992D02*
X141217205Y-67490992D01*
X141217205Y-67490992D02*
X141121967Y-67538611D01*
X141121967Y-67538611D02*
X141074348Y-67586230D01*
X141074348Y-67586230D02*
X141026729Y-67681468D01*
X141026729Y-67681468D02*
X141026729Y-67871944D01*
X141026729Y-67871944D02*
X141074348Y-67967182D01*
X141074348Y-67967182D02*
X141121967Y-68014801D01*
X141121967Y-68014801D02*
X141217205Y-68062420D01*
X141217205Y-68062420D02*
X141455300Y-68062420D01*
X141455300Y-68062420D02*
X141550538Y-68014801D01*
X141550538Y-68014801D02*
X141598157Y-67967182D01*
X141598157Y-67967182D02*
X141645776Y-67871944D01*
X141645776Y-67871944D02*
X141645776Y-67681468D01*
X141645776Y-67681468D02*
X141598157Y-67586230D01*
X141598157Y-67586230D02*
X141550538Y-67538611D01*
X141550538Y-67538611D02*
X141455300Y-67490992D01*
D13*
X132413328Y-92167879D02*
X132848757Y-92167879D01*
X132848757Y-92167879D02*
X132935842Y-92196908D01*
X132935842Y-92196908D02*
X132993900Y-92254965D01*
X132993900Y-92254965D02*
X133022928Y-92342051D01*
X133022928Y-92342051D02*
X133022928Y-92400108D01*
X132413328Y-91587308D02*
X132413328Y-91877594D01*
X132413328Y-91877594D02*
X132703614Y-91906622D01*
X132703614Y-91906622D02*
X132674585Y-91877594D01*
X132674585Y-91877594D02*
X132645557Y-91819537D01*
X132645557Y-91819537D02*
X132645557Y-91674394D01*
X132645557Y-91674394D02*
X132674585Y-91616337D01*
X132674585Y-91616337D02*
X132703614Y-91587308D01*
X132703614Y-91587308D02*
X132761671Y-91558279D01*
X132761671Y-91558279D02*
X132906814Y-91558279D01*
X132906814Y-91558279D02*
X132964871Y-91587308D01*
X132964871Y-91587308D02*
X132993900Y-91616337D01*
X132993900Y-91616337D02*
X133022928Y-91674394D01*
X133022928Y-91674394D02*
X133022928Y-91819537D01*
X133022928Y-91819537D02*
X132993900Y-91877594D01*
X132993900Y-91877594D02*
X132964871Y-91906622D01*
D10*
X127388333Y-59284580D02*
X127340714Y-59332200D01*
X127340714Y-59332200D02*
X127197857Y-59379819D01*
X127197857Y-59379819D02*
X127102619Y-59379819D01*
X127102619Y-59379819D02*
X126959762Y-59332200D01*
X126959762Y-59332200D02*
X126864524Y-59236961D01*
X126864524Y-59236961D02*
X126816905Y-59141723D01*
X126816905Y-59141723D02*
X126769286Y-58951247D01*
X126769286Y-58951247D02*
X126769286Y-58808390D01*
X126769286Y-58808390D02*
X126816905Y-58617914D01*
X126816905Y-58617914D02*
X126864524Y-58522676D01*
X126864524Y-58522676D02*
X126959762Y-58427438D01*
X126959762Y-58427438D02*
X127102619Y-58379819D01*
X127102619Y-58379819D02*
X127197857Y-58379819D01*
X127197857Y-58379819D02*
X127340714Y-58427438D01*
X127340714Y-58427438D02*
X127388333Y-58475057D01*
X127959762Y-58808390D02*
X127864524Y-58760771D01*
X127864524Y-58760771D02*
X127816905Y-58713152D01*
X127816905Y-58713152D02*
X127769286Y-58617914D01*
X127769286Y-58617914D02*
X127769286Y-58570295D01*
X127769286Y-58570295D02*
X127816905Y-58475057D01*
X127816905Y-58475057D02*
X127864524Y-58427438D01*
X127864524Y-58427438D02*
X127959762Y-58379819D01*
X127959762Y-58379819D02*
X128150238Y-58379819D01*
X128150238Y-58379819D02*
X128245476Y-58427438D01*
X128245476Y-58427438D02*
X128293095Y-58475057D01*
X128293095Y-58475057D02*
X128340714Y-58570295D01*
X128340714Y-58570295D02*
X128340714Y-58617914D01*
X128340714Y-58617914D02*
X128293095Y-58713152D01*
X128293095Y-58713152D02*
X128245476Y-58760771D01*
X128245476Y-58760771D02*
X128150238Y-58808390D01*
X128150238Y-58808390D02*
X127959762Y-58808390D01*
X127959762Y-58808390D02*
X127864524Y-58856009D01*
X127864524Y-58856009D02*
X127816905Y-58903628D01*
X127816905Y-58903628D02*
X127769286Y-58998866D01*
X127769286Y-58998866D02*
X127769286Y-59189342D01*
X127769286Y-59189342D02*
X127816905Y-59284580D01*
X127816905Y-59284580D02*
X127864524Y-59332200D01*
X127864524Y-59332200D02*
X127959762Y-59379819D01*
X127959762Y-59379819D02*
X128150238Y-59379819D01*
X128150238Y-59379819D02*
X128245476Y-59332200D01*
X128245476Y-59332200D02*
X128293095Y-59284580D01*
X128293095Y-59284580D02*
X128340714Y-59189342D01*
X128340714Y-59189342D02*
X128340714Y-58998866D01*
X128340714Y-58998866D02*
X128293095Y-58903628D01*
X128293095Y-58903628D02*
X128245476Y-58856009D01*
X128245476Y-58856009D02*
X128150238Y-58808390D01*
D12*
X174238318Y-92011332D02*
X175145461Y-92011332D01*
X175145461Y-92011332D02*
X175326889Y-92071809D01*
X175326889Y-92071809D02*
X175447842Y-92192761D01*
X175447842Y-92192761D02*
X175508318Y-92374190D01*
X175508318Y-92374190D02*
X175508318Y-92495142D01*
X174238318Y-91527523D02*
X174238318Y-90680856D01*
X174238318Y-90680856D02*
X175508318Y-91225142D01*
D10*
X121015733Y-63163180D02*
X120968114Y-63210800D01*
X120968114Y-63210800D02*
X120825257Y-63258419D01*
X120825257Y-63258419D02*
X120730019Y-63258419D01*
X120730019Y-63258419D02*
X120587162Y-63210800D01*
X120587162Y-63210800D02*
X120491924Y-63115561D01*
X120491924Y-63115561D02*
X120444305Y-63020323D01*
X120444305Y-63020323D02*
X120396686Y-62829847D01*
X120396686Y-62829847D02*
X120396686Y-62686990D01*
X120396686Y-62686990D02*
X120444305Y-62496514D01*
X120444305Y-62496514D02*
X120491924Y-62401276D01*
X120491924Y-62401276D02*
X120587162Y-62306038D01*
X120587162Y-62306038D02*
X120730019Y-62258419D01*
X120730019Y-62258419D02*
X120825257Y-62258419D01*
X120825257Y-62258419D02*
X120968114Y-62306038D01*
X120968114Y-62306038D02*
X121015733Y-62353657D01*
X121920495Y-62258419D02*
X121444305Y-62258419D01*
X121444305Y-62258419D02*
X121396686Y-62734609D01*
X121396686Y-62734609D02*
X121444305Y-62686990D01*
X121444305Y-62686990D02*
X121539543Y-62639371D01*
X121539543Y-62639371D02*
X121777638Y-62639371D01*
X121777638Y-62639371D02*
X121872876Y-62686990D01*
X121872876Y-62686990D02*
X121920495Y-62734609D01*
X121920495Y-62734609D02*
X121968114Y-62829847D01*
X121968114Y-62829847D02*
X121968114Y-63067942D01*
X121968114Y-63067942D02*
X121920495Y-63163180D01*
X121920495Y-63163180D02*
X121872876Y-63210800D01*
X121872876Y-63210800D02*
X121777638Y-63258419D01*
X121777638Y-63258419D02*
X121539543Y-63258419D01*
X121539543Y-63258419D02*
X121444305Y-63210800D01*
X121444305Y-63210800D02*
X121396686Y-63163180D01*
X149263220Y-57320941D02*
X149215601Y-57368561D01*
X149215601Y-57368561D02*
X149072744Y-57416180D01*
X149072744Y-57416180D02*
X148977506Y-57416180D01*
X148977506Y-57416180D02*
X148834649Y-57368561D01*
X148834649Y-57368561D02*
X148739411Y-57273322D01*
X148739411Y-57273322D02*
X148691792Y-57178084D01*
X148691792Y-57178084D02*
X148644173Y-56987608D01*
X148644173Y-56987608D02*
X148644173Y-56844751D01*
X148644173Y-56844751D02*
X148691792Y-56654275D01*
X148691792Y-56654275D02*
X148739411Y-56559037D01*
X148739411Y-56559037D02*
X148834649Y-56463799D01*
X148834649Y-56463799D02*
X148977506Y-56416180D01*
X148977506Y-56416180D02*
X149072744Y-56416180D01*
X149072744Y-56416180D02*
X149215601Y-56463799D01*
X149215601Y-56463799D02*
X149263220Y-56511418D01*
X150215601Y-57416180D02*
X149644173Y-57416180D01*
X149929887Y-57416180D02*
X149929887Y-56416180D01*
X149929887Y-56416180D02*
X149834649Y-56559037D01*
X149834649Y-56559037D02*
X149739411Y-56654275D01*
X149739411Y-56654275D02*
X149644173Y-56701894D01*
X151167982Y-57416180D02*
X150596554Y-57416180D01*
X150882268Y-57416180D02*
X150882268Y-56416180D01*
X150882268Y-56416180D02*
X150787030Y-56559037D01*
X150787030Y-56559037D02*
X150691792Y-56654275D01*
X150691792Y-56654275D02*
X150596554Y-56701894D01*
X131124302Y-72183772D02*
X130648111Y-72517105D01*
X131124302Y-72755200D02*
X130124302Y-72755200D01*
X130124302Y-72755200D02*
X130124302Y-72374248D01*
X130124302Y-72374248D02*
X130171921Y-72279010D01*
X130171921Y-72279010D02*
X130219540Y-72231391D01*
X130219540Y-72231391D02*
X130314778Y-72183772D01*
X130314778Y-72183772D02*
X130457635Y-72183772D01*
X130457635Y-72183772D02*
X130552873Y-72231391D01*
X130552873Y-72231391D02*
X130600492Y-72279010D01*
X130600492Y-72279010D02*
X130648111Y-72374248D01*
X130648111Y-72374248D02*
X130648111Y-72755200D01*
X131124302Y-71707581D02*
X131124302Y-71517105D01*
X131124302Y-71517105D02*
X131076683Y-71421867D01*
X131076683Y-71421867D02*
X131029063Y-71374248D01*
X131029063Y-71374248D02*
X130886206Y-71279010D01*
X130886206Y-71279010D02*
X130695730Y-71231391D01*
X130695730Y-71231391D02*
X130314778Y-71231391D01*
X130314778Y-71231391D02*
X130219540Y-71279010D01*
X130219540Y-71279010D02*
X130171921Y-71326629D01*
X130171921Y-71326629D02*
X130124302Y-71421867D01*
X130124302Y-71421867D02*
X130124302Y-71612343D01*
X130124302Y-71612343D02*
X130171921Y-71707581D01*
X130171921Y-71707581D02*
X130219540Y-71755200D01*
X130219540Y-71755200D02*
X130314778Y-71802819D01*
X130314778Y-71802819D02*
X130552873Y-71802819D01*
X130552873Y-71802819D02*
X130648111Y-71755200D01*
X130648111Y-71755200D02*
X130695730Y-71707581D01*
X130695730Y-71707581D02*
X130743349Y-71612343D01*
X130743349Y-71612343D02*
X130743349Y-71421867D01*
X130743349Y-71421867D02*
X130695730Y-71326629D01*
X130695730Y-71326629D02*
X130648111Y-71279010D01*
X130648111Y-71279010D02*
X130552873Y-71231391D01*
X166878095Y-60338819D02*
X166878095Y-61148342D01*
X166878095Y-61148342D02*
X166925714Y-61243580D01*
X166925714Y-61243580D02*
X166973333Y-61291200D01*
X166973333Y-61291200D02*
X167068571Y-61338819D01*
X167068571Y-61338819D02*
X167259047Y-61338819D01*
X167259047Y-61338819D02*
X167354285Y-61291200D01*
X167354285Y-61291200D02*
X167401904Y-61243580D01*
X167401904Y-61243580D02*
X167449523Y-61148342D01*
X167449523Y-61148342D02*
X167449523Y-60338819D01*
X168449523Y-61338819D02*
X167878095Y-61338819D01*
X168163809Y-61338819D02*
X168163809Y-60338819D01*
X168163809Y-60338819D02*
X168068571Y-60481676D01*
X168068571Y-60481676D02*
X167973333Y-60576914D01*
X167973333Y-60576914D02*
X167878095Y-60624533D01*
X136827331Y-72654188D02*
X136351140Y-72987521D01*
X136827331Y-73225616D02*
X135827331Y-73225616D01*
X135827331Y-73225616D02*
X135827331Y-72844664D01*
X135827331Y-72844664D02*
X135874950Y-72749426D01*
X135874950Y-72749426D02*
X135922569Y-72701807D01*
X135922569Y-72701807D02*
X136017807Y-72654188D01*
X136017807Y-72654188D02*
X136160664Y-72654188D01*
X136160664Y-72654188D02*
X136255902Y-72701807D01*
X136255902Y-72701807D02*
X136303521Y-72749426D01*
X136303521Y-72749426D02*
X136351140Y-72844664D01*
X136351140Y-72844664D02*
X136351140Y-73225616D01*
X136827331Y-71701807D02*
X136827331Y-72273235D01*
X136827331Y-71987521D02*
X135827331Y-71987521D01*
X135827331Y-71987521D02*
X135970188Y-72082759D01*
X135970188Y-72082759D02*
X136065426Y-72177997D01*
X136065426Y-72177997D02*
X136113045Y-72273235D01*
X135827331Y-71082759D02*
X135827331Y-70987521D01*
X135827331Y-70987521D02*
X135874950Y-70892283D01*
X135874950Y-70892283D02*
X135922569Y-70844664D01*
X135922569Y-70844664D02*
X136017807Y-70797045D01*
X136017807Y-70797045D02*
X136208283Y-70749426D01*
X136208283Y-70749426D02*
X136446378Y-70749426D01*
X136446378Y-70749426D02*
X136636854Y-70797045D01*
X136636854Y-70797045D02*
X136732092Y-70844664D01*
X136732092Y-70844664D02*
X136779712Y-70892283D01*
X136779712Y-70892283D02*
X136827331Y-70987521D01*
X136827331Y-70987521D02*
X136827331Y-71082759D01*
X136827331Y-71082759D02*
X136779712Y-71177997D01*
X136779712Y-71177997D02*
X136732092Y-71225616D01*
X136732092Y-71225616D02*
X136636854Y-71273235D01*
X136636854Y-71273235D02*
X136446378Y-71320854D01*
X136446378Y-71320854D02*
X136208283Y-71320854D01*
X136208283Y-71320854D02*
X136017807Y-71273235D01*
X136017807Y-71273235D02*
X135922569Y-71225616D01*
X135922569Y-71225616D02*
X135874950Y-71177997D01*
X135874950Y-71177997D02*
X135827331Y-71082759D01*
X158289803Y-87008314D02*
X157956470Y-86532123D01*
X157718375Y-87008314D02*
X157718375Y-86008314D01*
X157718375Y-86008314D02*
X158099327Y-86008314D01*
X158099327Y-86008314D02*
X158194565Y-86055933D01*
X158194565Y-86055933D02*
X158242184Y-86103552D01*
X158242184Y-86103552D02*
X158289803Y-86198790D01*
X158289803Y-86198790D02*
X158289803Y-86341647D01*
X158289803Y-86341647D02*
X158242184Y-86436885D01*
X158242184Y-86436885D02*
X158194565Y-86484504D01*
X158194565Y-86484504D02*
X158099327Y-86532123D01*
X158099327Y-86532123D02*
X157718375Y-86532123D01*
X158670756Y-86103552D02*
X158718375Y-86055933D01*
X158718375Y-86055933D02*
X158813613Y-86008314D01*
X158813613Y-86008314D02*
X159051708Y-86008314D01*
X159051708Y-86008314D02*
X159146946Y-86055933D01*
X159146946Y-86055933D02*
X159194565Y-86103552D01*
X159194565Y-86103552D02*
X159242184Y-86198790D01*
X159242184Y-86198790D02*
X159242184Y-86294028D01*
X159242184Y-86294028D02*
X159194565Y-86436885D01*
X159194565Y-86436885D02*
X158623137Y-87008314D01*
X158623137Y-87008314D02*
X159242184Y-87008314D01*
X159575518Y-86008314D02*
X160194565Y-86008314D01*
X160194565Y-86008314D02*
X159861232Y-86389266D01*
X159861232Y-86389266D02*
X160004089Y-86389266D01*
X160004089Y-86389266D02*
X160099327Y-86436885D01*
X160099327Y-86436885D02*
X160146946Y-86484504D01*
X160146946Y-86484504D02*
X160194565Y-86579742D01*
X160194565Y-86579742D02*
X160194565Y-86817837D01*
X160194565Y-86817837D02*
X160146946Y-86913075D01*
X160146946Y-86913075D02*
X160099327Y-86960695D01*
X160099327Y-86960695D02*
X160004089Y-87008314D01*
X160004089Y-87008314D02*
X159718375Y-87008314D01*
X159718375Y-87008314D02*
X159623137Y-86960695D01*
X159623137Y-86960695D02*
X159575518Y-86913075D01*
X139104106Y-78407093D02*
X138627915Y-78740426D01*
X139104106Y-78978521D02*
X138104106Y-78978521D01*
X138104106Y-78978521D02*
X138104106Y-78597569D01*
X138104106Y-78597569D02*
X138151725Y-78502331D01*
X138151725Y-78502331D02*
X138199344Y-78454712D01*
X138199344Y-78454712D02*
X138294582Y-78407093D01*
X138294582Y-78407093D02*
X138437439Y-78407093D01*
X138437439Y-78407093D02*
X138532677Y-78454712D01*
X138532677Y-78454712D02*
X138580296Y-78502331D01*
X138580296Y-78502331D02*
X138627915Y-78597569D01*
X138627915Y-78597569D02*
X138627915Y-78978521D01*
X139104106Y-77454712D02*
X139104106Y-78026140D01*
X139104106Y-77740426D02*
X138104106Y-77740426D01*
X138104106Y-77740426D02*
X138246963Y-77835664D01*
X138246963Y-77835664D02*
X138342201Y-77930902D01*
X138342201Y-77930902D02*
X138389820Y-78026140D01*
X139104106Y-76502331D02*
X139104106Y-77073759D01*
X139104106Y-76788045D02*
X138104106Y-76788045D01*
X138104106Y-76788045D02*
X138246963Y-76883283D01*
X138246963Y-76883283D02*
X138342201Y-76978521D01*
X138342201Y-76978521D02*
X138389820Y-77073759D01*
X141357825Y-77931593D02*
X140881634Y-78264926D01*
X141357825Y-78503021D02*
X140357825Y-78503021D01*
X140357825Y-78503021D02*
X140357825Y-78122069D01*
X140357825Y-78122069D02*
X140405444Y-78026831D01*
X140405444Y-78026831D02*
X140453063Y-77979212D01*
X140453063Y-77979212D02*
X140548301Y-77931593D01*
X140548301Y-77931593D02*
X140691158Y-77931593D01*
X140691158Y-77931593D02*
X140786396Y-77979212D01*
X140786396Y-77979212D02*
X140834015Y-78026831D01*
X140834015Y-78026831D02*
X140881634Y-78122069D01*
X140881634Y-78122069D02*
X140881634Y-78503021D01*
X140357825Y-77598259D02*
X140357825Y-76979212D01*
X140357825Y-76979212D02*
X140738777Y-77312545D01*
X140738777Y-77312545D02*
X140738777Y-77169688D01*
X140738777Y-77169688D02*
X140786396Y-77074450D01*
X140786396Y-77074450D02*
X140834015Y-77026831D01*
X140834015Y-77026831D02*
X140929253Y-76979212D01*
X140929253Y-76979212D02*
X141167348Y-76979212D01*
X141167348Y-76979212D02*
X141262586Y-77026831D01*
X141262586Y-77026831D02*
X141310206Y-77074450D01*
X141310206Y-77074450D02*
X141357825Y-77169688D01*
X141357825Y-77169688D02*
X141357825Y-77455402D01*
X141357825Y-77455402D02*
X141310206Y-77550640D01*
X141310206Y-77550640D02*
X141262586Y-77598259D01*
X174990178Y-79680083D02*
X174656845Y-79203892D01*
X174418750Y-79680083D02*
X174418750Y-78680083D01*
X174418750Y-78680083D02*
X174799702Y-78680083D01*
X174799702Y-78680083D02*
X174894940Y-78727702D01*
X174894940Y-78727702D02*
X174942559Y-78775321D01*
X174942559Y-78775321D02*
X174990178Y-78870559D01*
X174990178Y-78870559D02*
X174990178Y-79013416D01*
X174990178Y-79013416D02*
X174942559Y-79108654D01*
X174942559Y-79108654D02*
X174894940Y-79156273D01*
X174894940Y-79156273D02*
X174799702Y-79203892D01*
X174799702Y-79203892D02*
X174418750Y-79203892D01*
X175371131Y-78775321D02*
X175418750Y-78727702D01*
X175418750Y-78727702D02*
X175513988Y-78680083D01*
X175513988Y-78680083D02*
X175752083Y-78680083D01*
X175752083Y-78680083D02*
X175847321Y-78727702D01*
X175847321Y-78727702D02*
X175894940Y-78775321D01*
X175894940Y-78775321D02*
X175942559Y-78870559D01*
X175942559Y-78870559D02*
X175942559Y-78965797D01*
X175942559Y-78965797D02*
X175894940Y-79108654D01*
X175894940Y-79108654D02*
X175323512Y-79680083D01*
X175323512Y-79680083D02*
X175942559Y-79680083D01*
X176275893Y-78680083D02*
X176942559Y-78680083D01*
X176942559Y-78680083D02*
X176513988Y-79680083D01*
X174989506Y-80888172D02*
X174656173Y-80411981D01*
X174418078Y-80888172D02*
X174418078Y-79888172D01*
X174418078Y-79888172D02*
X174799030Y-79888172D01*
X174799030Y-79888172D02*
X174894268Y-79935791D01*
X174894268Y-79935791D02*
X174941887Y-79983410D01*
X174941887Y-79983410D02*
X174989506Y-80078648D01*
X174989506Y-80078648D02*
X174989506Y-80221505D01*
X174989506Y-80221505D02*
X174941887Y-80316743D01*
X174941887Y-80316743D02*
X174894268Y-80364362D01*
X174894268Y-80364362D02*
X174799030Y-80411981D01*
X174799030Y-80411981D02*
X174418078Y-80411981D01*
X175370459Y-79983410D02*
X175418078Y-79935791D01*
X175418078Y-79935791D02*
X175513316Y-79888172D01*
X175513316Y-79888172D02*
X175751411Y-79888172D01*
X175751411Y-79888172D02*
X175846649Y-79935791D01*
X175846649Y-79935791D02*
X175894268Y-79983410D01*
X175894268Y-79983410D02*
X175941887Y-80078648D01*
X175941887Y-80078648D02*
X175941887Y-80173886D01*
X175941887Y-80173886D02*
X175894268Y-80316743D01*
X175894268Y-80316743D02*
X175322840Y-80888172D01*
X175322840Y-80888172D02*
X175941887Y-80888172D01*
X176799030Y-79888172D02*
X176608554Y-79888172D01*
X176608554Y-79888172D02*
X176513316Y-79935791D01*
X176513316Y-79935791D02*
X176465697Y-79983410D01*
X176465697Y-79983410D02*
X176370459Y-80126267D01*
X176370459Y-80126267D02*
X176322840Y-80316743D01*
X176322840Y-80316743D02*
X176322840Y-80697695D01*
X176322840Y-80697695D02*
X176370459Y-80792933D01*
X176370459Y-80792933D02*
X176418078Y-80840553D01*
X176418078Y-80840553D02*
X176513316Y-80888172D01*
X176513316Y-80888172D02*
X176703792Y-80888172D01*
X176703792Y-80888172D02*
X176799030Y-80840553D01*
X176799030Y-80840553D02*
X176846649Y-80792933D01*
X176846649Y-80792933D02*
X176894268Y-80697695D01*
X176894268Y-80697695D02*
X176894268Y-80459600D01*
X176894268Y-80459600D02*
X176846649Y-80364362D01*
X176846649Y-80364362D02*
X176799030Y-80316743D01*
X176799030Y-80316743D02*
X176703792Y-80269124D01*
X176703792Y-80269124D02*
X176513316Y-80269124D01*
X176513316Y-80269124D02*
X176418078Y-80316743D01*
X176418078Y-80316743D02*
X176370459Y-80364362D01*
X176370459Y-80364362D02*
X176322840Y-80459600D01*
X120831723Y-87496742D02*
X120784104Y-87544362D01*
X120784104Y-87544362D02*
X120641247Y-87591981D01*
X120641247Y-87591981D02*
X120546009Y-87591981D01*
X120546009Y-87591981D02*
X120403152Y-87544362D01*
X120403152Y-87544362D02*
X120307914Y-87449123D01*
X120307914Y-87449123D02*
X120260295Y-87353885D01*
X120260295Y-87353885D02*
X120212676Y-87163409D01*
X120212676Y-87163409D02*
X120212676Y-87020552D01*
X120212676Y-87020552D02*
X120260295Y-86830076D01*
X120260295Y-86830076D02*
X120307914Y-86734838D01*
X120307914Y-86734838D02*
X120403152Y-86639600D01*
X120403152Y-86639600D02*
X120546009Y-86591981D01*
X120546009Y-86591981D02*
X120641247Y-86591981D01*
X120641247Y-86591981D02*
X120784104Y-86639600D01*
X120784104Y-86639600D02*
X120831723Y-86687219D01*
X121784104Y-87591981D02*
X121212676Y-87591981D01*
X121498390Y-87591981D02*
X121498390Y-86591981D01*
X121498390Y-86591981D02*
X121403152Y-86734838D01*
X121403152Y-86734838D02*
X121307914Y-86830076D01*
X121307914Y-86830076D02*
X121212676Y-86877695D01*
X156122547Y-81945397D02*
X156055203Y-81945397D01*
X156055203Y-81945397D02*
X155920516Y-81878053D01*
X155920516Y-81878053D02*
X155853173Y-81810710D01*
X155853173Y-81810710D02*
X155785829Y-81676023D01*
X155785829Y-81676023D02*
X155785829Y-81541336D01*
X155785829Y-81541336D02*
X155819501Y-81440321D01*
X155819501Y-81440321D02*
X155920516Y-81271962D01*
X155920516Y-81271962D02*
X156021531Y-81170947D01*
X156021531Y-81170947D02*
X156189890Y-81069931D01*
X156189890Y-81069931D02*
X156290905Y-81036260D01*
X156290905Y-81036260D02*
X156425592Y-81036260D01*
X156425592Y-81036260D02*
X156560279Y-81103603D01*
X156560279Y-81103603D02*
X156627623Y-81170947D01*
X156627623Y-81170947D02*
X156694966Y-81305634D01*
X156694966Y-81305634D02*
X156694966Y-81372977D01*
X156964340Y-81642351D02*
X157031684Y-81642351D01*
X157031684Y-81642351D02*
X157132699Y-81676023D01*
X157132699Y-81676023D02*
X157301058Y-81844382D01*
X157301058Y-81844382D02*
X157334730Y-81945397D01*
X157334730Y-81945397D02*
X157334730Y-82012740D01*
X157334730Y-82012740D02*
X157301058Y-82113756D01*
X157301058Y-82113756D02*
X157233714Y-82181099D01*
X157233714Y-82181099D02*
X157099027Y-82248443D01*
X157099027Y-82248443D02*
X156290905Y-82248443D01*
X156290905Y-82248443D02*
X156728638Y-82686175D01*
X157873478Y-82416802D02*
X157940821Y-82484145D01*
X157940821Y-82484145D02*
X157974493Y-82585160D01*
X157974493Y-82585160D02*
X157974493Y-82652504D01*
X157974493Y-82652504D02*
X157940821Y-82753519D01*
X157940821Y-82753519D02*
X157839806Y-82921878D01*
X157839806Y-82921878D02*
X157671447Y-83090237D01*
X157671447Y-83090237D02*
X157503089Y-83191252D01*
X157503089Y-83191252D02*
X157402073Y-83224924D01*
X157402073Y-83224924D02*
X157334730Y-83224924D01*
X157334730Y-83224924D02*
X157233715Y-83191252D01*
X157233715Y-83191252D02*
X157166371Y-83123908D01*
X157166371Y-83123908D02*
X157132699Y-83022893D01*
X157132699Y-83022893D02*
X157132699Y-82955550D01*
X157132699Y-82955550D02*
X157166371Y-82854534D01*
X157166371Y-82854534D02*
X157267386Y-82686176D01*
X157267386Y-82686176D02*
X157435745Y-82517817D01*
X157435745Y-82517817D02*
X157604104Y-82416802D01*
X157604104Y-82416802D02*
X157705119Y-82383130D01*
X157705119Y-82383130D02*
X157772463Y-82383130D01*
X157772463Y-82383130D02*
X157873478Y-82416802D01*
X120836523Y-86200348D02*
X120788904Y-86247968D01*
X120788904Y-86247968D02*
X120646047Y-86295587D01*
X120646047Y-86295587D02*
X120550809Y-86295587D01*
X120550809Y-86295587D02*
X120407952Y-86247968D01*
X120407952Y-86247968D02*
X120312714Y-86152729D01*
X120312714Y-86152729D02*
X120265095Y-86057491D01*
X120265095Y-86057491D02*
X120217476Y-85867015D01*
X120217476Y-85867015D02*
X120217476Y-85724158D01*
X120217476Y-85724158D02*
X120265095Y-85533682D01*
X120265095Y-85533682D02*
X120312714Y-85438444D01*
X120312714Y-85438444D02*
X120407952Y-85343206D01*
X120407952Y-85343206D02*
X120550809Y-85295587D01*
X120550809Y-85295587D02*
X120646047Y-85295587D01*
X120646047Y-85295587D02*
X120788904Y-85343206D01*
X120788904Y-85343206D02*
X120836523Y-85390825D01*
X121169857Y-85295587D02*
X121788904Y-85295587D01*
X121788904Y-85295587D02*
X121455571Y-85676539D01*
X121455571Y-85676539D02*
X121598428Y-85676539D01*
X121598428Y-85676539D02*
X121693666Y-85724158D01*
X121693666Y-85724158D02*
X121741285Y-85771777D01*
X121741285Y-85771777D02*
X121788904Y-85867015D01*
X121788904Y-85867015D02*
X121788904Y-86105110D01*
X121788904Y-86105110D02*
X121741285Y-86200348D01*
X121741285Y-86200348D02*
X121693666Y-86247968D01*
X121693666Y-86247968D02*
X121598428Y-86295587D01*
X121598428Y-86295587D02*
X121312714Y-86295587D01*
X121312714Y-86295587D02*
X121217476Y-86247968D01*
X121217476Y-86247968D02*
X121169857Y-86200348D01*
D12*
X152178515Y-92026058D02*
X153085658Y-92026058D01*
X153085658Y-92026058D02*
X153267086Y-92086535D01*
X153267086Y-92086535D02*
X153388039Y-92207487D01*
X153388039Y-92207487D02*
X153448515Y-92388916D01*
X153448515Y-92388916D02*
X153448515Y-92509868D01*
X152178515Y-90877011D02*
X152178515Y-91118916D01*
X152178515Y-91118916D02*
X152238991Y-91239868D01*
X152238991Y-91239868D02*
X152299467Y-91300344D01*
X152299467Y-91300344D02*
X152480896Y-91421297D01*
X152480896Y-91421297D02*
X152722800Y-91481773D01*
X152722800Y-91481773D02*
X153206610Y-91481773D01*
X153206610Y-91481773D02*
X153327562Y-91421297D01*
X153327562Y-91421297D02*
X153388039Y-91360820D01*
X153388039Y-91360820D02*
X153448515Y-91239868D01*
X153448515Y-91239868D02*
X153448515Y-90997963D01*
X153448515Y-90997963D02*
X153388039Y-90877011D01*
X153388039Y-90877011D02*
X153327562Y-90816535D01*
X153327562Y-90816535D02*
X153206610Y-90756058D01*
X153206610Y-90756058D02*
X152904229Y-90756058D01*
X152904229Y-90756058D02*
X152783277Y-90816535D01*
X152783277Y-90816535D02*
X152722800Y-90877011D01*
X152722800Y-90877011D02*
X152662324Y-90997963D01*
X152662324Y-90997963D02*
X152662324Y-91239868D01*
X152662324Y-91239868D02*
X152722800Y-91360820D01*
X152722800Y-91360820D02*
X152783277Y-91421297D01*
X152783277Y-91421297D02*
X152904229Y-91481773D01*
D13*
X115312021Y-90565253D02*
X115747450Y-90565253D01*
X115747450Y-90565253D02*
X115834535Y-90594282D01*
X115834535Y-90594282D02*
X115892593Y-90652339D01*
X115892593Y-90652339D02*
X115921621Y-90739425D01*
X115921621Y-90739425D02*
X115921621Y-90797482D01*
X115370078Y-90303996D02*
X115341050Y-90274968D01*
X115341050Y-90274968D02*
X115312021Y-90216911D01*
X115312021Y-90216911D02*
X115312021Y-90071768D01*
X115312021Y-90071768D02*
X115341050Y-90013711D01*
X115341050Y-90013711D02*
X115370078Y-89984682D01*
X115370078Y-89984682D02*
X115428135Y-89955653D01*
X115428135Y-89955653D02*
X115486193Y-89955653D01*
X115486193Y-89955653D02*
X115573278Y-89984682D01*
X115573278Y-89984682D02*
X115921621Y-90333025D01*
X115921621Y-90333025D02*
X115921621Y-89955653D01*
D12*
X121754516Y-83247567D02*
X121331182Y-82642805D01*
X121028801Y-83247567D02*
X121028801Y-81977567D01*
X121028801Y-81977567D02*
X121512611Y-81977567D01*
X121512611Y-81977567D02*
X121633563Y-82038043D01*
X121633563Y-82038043D02*
X121694040Y-82098519D01*
X121694040Y-82098519D02*
X121754516Y-82219471D01*
X121754516Y-82219471D02*
X121754516Y-82400900D01*
X121754516Y-82400900D02*
X121694040Y-82521852D01*
X121694040Y-82521852D02*
X121633563Y-82582329D01*
X121633563Y-82582329D02*
X121512611Y-82642805D01*
X121512611Y-82642805D02*
X121028801Y-82642805D01*
X122238325Y-82098519D02*
X122298801Y-82038043D01*
X122298801Y-82038043D02*
X122419754Y-81977567D01*
X122419754Y-81977567D02*
X122722135Y-81977567D01*
X122722135Y-81977567D02*
X122843087Y-82038043D01*
X122843087Y-82038043D02*
X122903563Y-82098519D01*
X122903563Y-82098519D02*
X122964040Y-82219471D01*
X122964040Y-82219471D02*
X122964040Y-82340424D01*
X122964040Y-82340424D02*
X122903563Y-82521852D01*
X122903563Y-82521852D02*
X122177849Y-83247567D01*
X122177849Y-83247567D02*
X122964040Y-83247567D01*
D10*
X136830216Y-78399285D02*
X136354025Y-78732618D01*
X136830216Y-78970713D02*
X135830216Y-78970713D01*
X135830216Y-78970713D02*
X135830216Y-78589761D01*
X135830216Y-78589761D02*
X135877835Y-78494523D01*
X135877835Y-78494523D02*
X135925454Y-78446904D01*
X135925454Y-78446904D02*
X136020692Y-78399285D01*
X136020692Y-78399285D02*
X136163549Y-78399285D01*
X136163549Y-78399285D02*
X136258787Y-78446904D01*
X136258787Y-78446904D02*
X136306406Y-78494523D01*
X136306406Y-78494523D02*
X136354025Y-78589761D01*
X136354025Y-78589761D02*
X136354025Y-78970713D01*
X136830216Y-77446904D02*
X136830216Y-78018332D01*
X136830216Y-77732618D02*
X135830216Y-77732618D01*
X135830216Y-77732618D02*
X135973073Y-77827856D01*
X135973073Y-77827856D02*
X136068311Y-77923094D01*
X136068311Y-77923094D02*
X136115930Y-78018332D01*
X135830216Y-77113570D02*
X135830216Y-76494523D01*
X135830216Y-76494523D02*
X136211168Y-76827856D01*
X136211168Y-76827856D02*
X136211168Y-76684999D01*
X136211168Y-76684999D02*
X136258787Y-76589761D01*
X136258787Y-76589761D02*
X136306406Y-76542142D01*
X136306406Y-76542142D02*
X136401644Y-76494523D01*
X136401644Y-76494523D02*
X136639739Y-76494523D01*
X136639739Y-76494523D02*
X136734977Y-76542142D01*
X136734977Y-76542142D02*
X136782597Y-76589761D01*
X136782597Y-76589761D02*
X136830216Y-76684999D01*
X136830216Y-76684999D02*
X136830216Y-76970713D01*
X136830216Y-76970713D02*
X136782597Y-77065951D01*
X136782597Y-77065951D02*
X136734977Y-77113570D01*
X143744095Y-69338820D02*
X143744095Y-70148343D01*
X143744095Y-70148343D02*
X143791714Y-70243581D01*
X143791714Y-70243581D02*
X143839333Y-70291201D01*
X143839333Y-70291201D02*
X143934571Y-70338820D01*
X143934571Y-70338820D02*
X144125047Y-70338820D01*
X144125047Y-70338820D02*
X144220285Y-70291201D01*
X144220285Y-70291201D02*
X144267904Y-70243581D01*
X144267904Y-70243581D02*
X144315523Y-70148343D01*
X144315523Y-70148343D02*
X144315523Y-69338820D01*
X144696476Y-69338820D02*
X145363142Y-69338820D01*
X145363142Y-69338820D02*
X144934571Y-70338820D01*
D13*
X140315581Y-92077974D02*
X140751010Y-92077974D01*
X140751010Y-92077974D02*
X140838095Y-92107003D01*
X140838095Y-92107003D02*
X140896153Y-92165060D01*
X140896153Y-92165060D02*
X140925181Y-92252146D01*
X140925181Y-92252146D02*
X140925181Y-92310203D01*
X140315581Y-91845746D02*
X140315581Y-91468374D01*
X140315581Y-91468374D02*
X140547810Y-91671574D01*
X140547810Y-91671574D02*
X140547810Y-91584489D01*
X140547810Y-91584489D02*
X140576838Y-91526432D01*
X140576838Y-91526432D02*
X140605867Y-91497403D01*
X140605867Y-91497403D02*
X140663924Y-91468374D01*
X140663924Y-91468374D02*
X140809067Y-91468374D01*
X140809067Y-91468374D02*
X140867124Y-91497403D01*
X140867124Y-91497403D02*
X140896153Y-91526432D01*
X140896153Y-91526432D02*
X140925181Y-91584489D01*
X140925181Y-91584489D02*
X140925181Y-91758660D01*
X140925181Y-91758660D02*
X140896153Y-91816717D01*
X140896153Y-91816717D02*
X140867124Y-91845746D01*
X182026515Y-58838808D02*
X182026515Y-59274237D01*
X182026515Y-59274237D02*
X181997486Y-59361322D01*
X181997486Y-59361322D02*
X181939429Y-59419380D01*
X181939429Y-59419380D02*
X181852343Y-59448408D01*
X181852343Y-59448408D02*
X181794286Y-59448408D01*
X182636115Y-59448408D02*
X182287772Y-59448408D01*
X182461943Y-59448408D02*
X182461943Y-58838808D01*
X182461943Y-58838808D02*
X182403886Y-58925894D01*
X182403886Y-58925894D02*
X182345829Y-58983951D01*
X182345829Y-58983951D02*
X182287772Y-59012980D01*
X183013486Y-58838808D02*
X183071543Y-58838808D01*
X183071543Y-58838808D02*
X183129600Y-58867837D01*
X183129600Y-58867837D02*
X183158629Y-58896865D01*
X183158629Y-58896865D02*
X183187657Y-58954922D01*
X183187657Y-58954922D02*
X183216686Y-59071037D01*
X183216686Y-59071037D02*
X183216686Y-59216180D01*
X183216686Y-59216180D02*
X183187657Y-59332294D01*
X183187657Y-59332294D02*
X183158629Y-59390351D01*
X183158629Y-59390351D02*
X183129600Y-59419380D01*
X183129600Y-59419380D02*
X183071543Y-59448408D01*
X183071543Y-59448408D02*
X183013486Y-59448408D01*
X183013486Y-59448408D02*
X182955429Y-59419380D01*
X182955429Y-59419380D02*
X182926400Y-59390351D01*
X182926400Y-59390351D02*
X182897371Y-59332294D01*
X182897371Y-59332294D02*
X182868343Y-59216180D01*
X182868343Y-59216180D02*
X182868343Y-59071037D01*
X182868343Y-59071037D02*
X182897371Y-58954922D01*
X182897371Y-58954922D02*
X182926400Y-58896865D01*
X182926400Y-58896865D02*
X182955429Y-58867837D01*
X182955429Y-58867837D02*
X183013486Y-58838808D01*
D10*
X145194792Y-88272610D02*
X144861459Y-87796419D01*
X144623364Y-88272610D02*
X144623364Y-87272610D01*
X144623364Y-87272610D02*
X145004316Y-87272610D01*
X145004316Y-87272610D02*
X145099554Y-87320229D01*
X145099554Y-87320229D02*
X145147173Y-87367848D01*
X145147173Y-87367848D02*
X145194792Y-87463086D01*
X145194792Y-87463086D02*
X145194792Y-87605943D01*
X145194792Y-87605943D02*
X145147173Y-87701181D01*
X145147173Y-87701181D02*
X145099554Y-87748800D01*
X145099554Y-87748800D02*
X145004316Y-87796419D01*
X145004316Y-87796419D02*
X144623364Y-87796419D01*
X145575745Y-87367848D02*
X145623364Y-87320229D01*
X145623364Y-87320229D02*
X145718602Y-87272610D01*
X145718602Y-87272610D02*
X145956697Y-87272610D01*
X145956697Y-87272610D02*
X146051935Y-87320229D01*
X146051935Y-87320229D02*
X146099554Y-87367848D01*
X146099554Y-87367848D02*
X146147173Y-87463086D01*
X146147173Y-87463086D02*
X146147173Y-87558324D01*
X146147173Y-87558324D02*
X146099554Y-87701181D01*
X146099554Y-87701181D02*
X145528126Y-88272610D01*
X145528126Y-88272610D02*
X146147173Y-88272610D01*
X146623364Y-88272610D02*
X146813840Y-88272610D01*
X146813840Y-88272610D02*
X146909078Y-88224991D01*
X146909078Y-88224991D02*
X146956697Y-88177371D01*
X146956697Y-88177371D02*
X147051935Y-88034514D01*
X147051935Y-88034514D02*
X147099554Y-87844038D01*
X147099554Y-87844038D02*
X147099554Y-87463086D01*
X147099554Y-87463086D02*
X147051935Y-87367848D01*
X147051935Y-87367848D02*
X147004316Y-87320229D01*
X147004316Y-87320229D02*
X146909078Y-87272610D01*
X146909078Y-87272610D02*
X146718602Y-87272610D01*
X146718602Y-87272610D02*
X146623364Y-87320229D01*
X146623364Y-87320229D02*
X146575745Y-87367848D01*
X146575745Y-87367848D02*
X146528126Y-87463086D01*
X146528126Y-87463086D02*
X146528126Y-87701181D01*
X146528126Y-87701181D02*
X146575745Y-87796419D01*
X146575745Y-87796419D02*
X146623364Y-87844038D01*
X146623364Y-87844038D02*
X146718602Y-87891657D01*
X146718602Y-87891657D02*
X146909078Y-87891657D01*
X146909078Y-87891657D02*
X147004316Y-87844038D01*
X147004316Y-87844038D02*
X147051935Y-87796419D01*
X147051935Y-87796419D02*
X147099554Y-87701181D01*
X125027111Y-73531777D02*
X124693778Y-73055586D01*
X124455683Y-73531777D02*
X124455683Y-72531777D01*
X124455683Y-72531777D02*
X124836635Y-72531777D01*
X124836635Y-72531777D02*
X124931873Y-72579396D01*
X124931873Y-72579396D02*
X124979492Y-72627015D01*
X124979492Y-72627015D02*
X125027111Y-72722253D01*
X125027111Y-72722253D02*
X125027111Y-72865110D01*
X125027111Y-72865110D02*
X124979492Y-72960348D01*
X124979492Y-72960348D02*
X124931873Y-73007967D01*
X124931873Y-73007967D02*
X124836635Y-73055586D01*
X124836635Y-73055586D02*
X124455683Y-73055586D01*
X125360445Y-72531777D02*
X125979492Y-72531777D01*
X125979492Y-72531777D02*
X125646159Y-72912729D01*
X125646159Y-72912729D02*
X125789016Y-72912729D01*
X125789016Y-72912729D02*
X125884254Y-72960348D01*
X125884254Y-72960348D02*
X125931873Y-73007967D01*
X125931873Y-73007967D02*
X125979492Y-73103205D01*
X125979492Y-73103205D02*
X125979492Y-73341300D01*
X125979492Y-73341300D02*
X125931873Y-73436538D01*
X125931873Y-73436538D02*
X125884254Y-73484158D01*
X125884254Y-73484158D02*
X125789016Y-73531777D01*
X125789016Y-73531777D02*
X125503302Y-73531777D01*
X125503302Y-73531777D02*
X125408064Y-73484158D01*
X125408064Y-73484158D02*
X125360445Y-73436538D01*
X126931873Y-73531777D02*
X126360445Y-73531777D01*
X126646159Y-73531777D02*
X126646159Y-72531777D01*
X126646159Y-72531777D02*
X126550921Y-72674634D01*
X126550921Y-72674634D02*
X126455683Y-72769872D01*
X126455683Y-72769872D02*
X126360445Y-72817491D01*
X120203046Y-74066382D02*
X120203046Y-74780667D01*
X120203046Y-74780667D02*
X120155427Y-74923524D01*
X120155427Y-74923524D02*
X120060189Y-75018763D01*
X120060189Y-75018763D02*
X119917332Y-75066382D01*
X119917332Y-75066382D02*
X119822094Y-75066382D01*
X121203046Y-75066382D02*
X120631618Y-75066382D01*
X120917332Y-75066382D02*
X120917332Y-74066382D01*
X120917332Y-74066382D02*
X120822094Y-74209239D01*
X120822094Y-74209239D02*
X120726856Y-74304477D01*
X120726856Y-74304477D02*
X120631618Y-74352096D01*
X121536380Y-74066382D02*
X122155427Y-74066382D01*
X122155427Y-74066382D02*
X121822094Y-74447334D01*
X121822094Y-74447334D02*
X121964951Y-74447334D01*
X121964951Y-74447334D02*
X122060189Y-74494953D01*
X122060189Y-74494953D02*
X122107808Y-74542572D01*
X122107808Y-74542572D02*
X122155427Y-74637810D01*
X122155427Y-74637810D02*
X122155427Y-74875905D01*
X122155427Y-74875905D02*
X122107808Y-74971143D01*
X122107808Y-74971143D02*
X122060189Y-75018763D01*
X122060189Y-75018763D02*
X121964951Y-75066382D01*
X121964951Y-75066382D02*
X121679237Y-75066382D01*
X121679237Y-75066382D02*
X121583999Y-75018763D01*
X121583999Y-75018763D02*
X121536380Y-74971143D01*
X158347861Y-61594826D02*
X157871670Y-61928159D01*
X158347861Y-62166254D02*
X157347861Y-62166254D01*
X157347861Y-62166254D02*
X157347861Y-61785302D01*
X157347861Y-61785302D02*
X157395480Y-61690064D01*
X157395480Y-61690064D02*
X157443099Y-61642445D01*
X157443099Y-61642445D02*
X157538337Y-61594826D01*
X157538337Y-61594826D02*
X157681194Y-61594826D01*
X157681194Y-61594826D02*
X157776432Y-61642445D01*
X157776432Y-61642445D02*
X157824051Y-61690064D01*
X157824051Y-61690064D02*
X157871670Y-61785302D01*
X157871670Y-61785302D02*
X157871670Y-62166254D01*
X157347861Y-61261492D02*
X157347861Y-60642445D01*
X157347861Y-60642445D02*
X157728813Y-60975778D01*
X157728813Y-60975778D02*
X157728813Y-60832921D01*
X157728813Y-60832921D02*
X157776432Y-60737683D01*
X157776432Y-60737683D02*
X157824051Y-60690064D01*
X157824051Y-60690064D02*
X157919289Y-60642445D01*
X157919289Y-60642445D02*
X158157384Y-60642445D01*
X158157384Y-60642445D02*
X158252622Y-60690064D01*
X158252622Y-60690064D02*
X158300242Y-60737683D01*
X158300242Y-60737683D02*
X158347861Y-60832921D01*
X158347861Y-60832921D02*
X158347861Y-61118635D01*
X158347861Y-61118635D02*
X158300242Y-61213873D01*
X158300242Y-61213873D02*
X158252622Y-61261492D01*
X157347861Y-60023397D02*
X157347861Y-59928159D01*
X157347861Y-59928159D02*
X157395480Y-59832921D01*
X157395480Y-59832921D02*
X157443099Y-59785302D01*
X157443099Y-59785302D02*
X157538337Y-59737683D01*
X157538337Y-59737683D02*
X157728813Y-59690064D01*
X157728813Y-59690064D02*
X157966908Y-59690064D01*
X157966908Y-59690064D02*
X158157384Y-59737683D01*
X158157384Y-59737683D02*
X158252622Y-59785302D01*
X158252622Y-59785302D02*
X158300242Y-59832921D01*
X158300242Y-59832921D02*
X158347861Y-59928159D01*
X158347861Y-59928159D02*
X158347861Y-60023397D01*
X158347861Y-60023397D02*
X158300242Y-60118635D01*
X158300242Y-60118635D02*
X158252622Y-60166254D01*
X158252622Y-60166254D02*
X158157384Y-60213873D01*
X158157384Y-60213873D02*
X157966908Y-60261492D01*
X157966908Y-60261492D02*
X157728813Y-60261492D01*
X157728813Y-60261492D02*
X157538337Y-60213873D01*
X157538337Y-60213873D02*
X157443099Y-60166254D01*
X157443099Y-60166254D02*
X157395480Y-60118635D01*
X157395480Y-60118635D02*
X157347861Y-60023397D01*
D12*
X121225870Y-64506733D02*
X120802536Y-63901971D01*
X120500155Y-64506733D02*
X120500155Y-63236733D01*
X120500155Y-63236733D02*
X120983965Y-63236733D01*
X120983965Y-63236733D02*
X121104917Y-63297209D01*
X121104917Y-63297209D02*
X121165394Y-63357685D01*
X121165394Y-63357685D02*
X121225870Y-63478637D01*
X121225870Y-63478637D02*
X121225870Y-63660066D01*
X121225870Y-63660066D02*
X121165394Y-63781018D01*
X121165394Y-63781018D02*
X121104917Y-63841495D01*
X121104917Y-63841495D02*
X120983965Y-63901971D01*
X120983965Y-63901971D02*
X120500155Y-63901971D01*
X122435394Y-64506733D02*
X121709679Y-64506733D01*
X122072536Y-64506733D02*
X122072536Y-63236733D01*
X122072536Y-63236733D02*
X121951584Y-63418161D01*
X121951584Y-63418161D02*
X121830632Y-63539114D01*
X121830632Y-63539114D02*
X121709679Y-63599590D01*
X123584441Y-63236733D02*
X122979679Y-63236733D01*
X122979679Y-63236733D02*
X122919203Y-63841495D01*
X122919203Y-63841495D02*
X122979679Y-63781018D01*
X122979679Y-63781018D02*
X123100632Y-63720542D01*
X123100632Y-63720542D02*
X123403013Y-63720542D01*
X123403013Y-63720542D02*
X123523965Y-63781018D01*
X123523965Y-63781018D02*
X123584441Y-63841495D01*
X123584441Y-63841495D02*
X123644918Y-63962447D01*
X123644918Y-63962447D02*
X123644918Y-64264828D01*
X123644918Y-64264828D02*
X123584441Y-64385780D01*
X123584441Y-64385780D02*
X123523965Y-64446257D01*
X123523965Y-64446257D02*
X123403013Y-64506733D01*
X123403013Y-64506733D02*
X123100632Y-64506733D01*
X123100632Y-64506733D02*
X122979679Y-64446257D01*
X122979679Y-64446257D02*
X122919203Y-64385780D01*
D10*
X137692747Y-66645328D02*
X137645128Y-66692948D01*
X137645128Y-66692948D02*
X137502271Y-66740567D01*
X137502271Y-66740567D02*
X137407033Y-66740567D01*
X137407033Y-66740567D02*
X137264176Y-66692948D01*
X137264176Y-66692948D02*
X137168938Y-66597709D01*
X137168938Y-66597709D02*
X137121319Y-66502471D01*
X137121319Y-66502471D02*
X137073700Y-66311995D01*
X137073700Y-66311995D02*
X137073700Y-66169138D01*
X137073700Y-66169138D02*
X137121319Y-65978662D01*
X137121319Y-65978662D02*
X137168938Y-65883424D01*
X137168938Y-65883424D02*
X137264176Y-65788186D01*
X137264176Y-65788186D02*
X137407033Y-65740567D01*
X137407033Y-65740567D02*
X137502271Y-65740567D01*
X137502271Y-65740567D02*
X137645128Y-65788186D01*
X137645128Y-65788186D02*
X137692747Y-65835805D01*
X138645128Y-66740567D02*
X138073700Y-66740567D01*
X138359414Y-66740567D02*
X138359414Y-65740567D01*
X138359414Y-65740567D02*
X138264176Y-65883424D01*
X138264176Y-65883424D02*
X138168938Y-65978662D01*
X138168938Y-65978662D02*
X138073700Y-66026281D01*
X139264176Y-65740567D02*
X139359414Y-65740567D01*
X139359414Y-65740567D02*
X139454652Y-65788186D01*
X139454652Y-65788186D02*
X139502271Y-65835805D01*
X139502271Y-65835805D02*
X139549890Y-65931043D01*
X139549890Y-65931043D02*
X139597509Y-66121519D01*
X139597509Y-66121519D02*
X139597509Y-66359614D01*
X139597509Y-66359614D02*
X139549890Y-66550090D01*
X139549890Y-66550090D02*
X139502271Y-66645328D01*
X139502271Y-66645328D02*
X139454652Y-66692948D01*
X139454652Y-66692948D02*
X139359414Y-66740567D01*
X139359414Y-66740567D02*
X139264176Y-66740567D01*
X139264176Y-66740567D02*
X139168938Y-66692948D01*
X139168938Y-66692948D02*
X139121319Y-66645328D01*
X139121319Y-66645328D02*
X139073700Y-66550090D01*
X139073700Y-66550090D02*
X139026081Y-66359614D01*
X139026081Y-66359614D02*
X139026081Y-66121519D01*
X139026081Y-66121519D02*
X139073700Y-65931043D01*
X139073700Y-65931043D02*
X139121319Y-65835805D01*
X139121319Y-65835805D02*
X139168938Y-65788186D01*
X139168938Y-65788186D02*
X139264176Y-65740567D01*
X146894886Y-79446692D02*
X147399962Y-79951768D01*
X147399962Y-79951768D02*
X147467305Y-80086455D01*
X147467305Y-80086455D02*
X147467305Y-80221142D01*
X147467305Y-80221142D02*
X147399962Y-80355829D01*
X147399962Y-80355829D02*
X147332618Y-80423173D01*
X147938710Y-79817081D02*
X147231603Y-79109974D01*
X147231603Y-79109974D02*
X147500977Y-78840600D01*
X147500977Y-78840600D02*
X147601993Y-78806929D01*
X147601993Y-78806929D02*
X147669336Y-78806929D01*
X147669336Y-78806929D02*
X147770351Y-78840600D01*
X147770351Y-78840600D02*
X147871367Y-78941616D01*
X147871367Y-78941616D02*
X147905038Y-79042631D01*
X147905038Y-79042631D02*
X147905038Y-79109974D01*
X147905038Y-79109974D02*
X147871367Y-79210990D01*
X147871367Y-79210990D02*
X147601993Y-79480364D01*
X147972382Y-78503883D02*
X147972382Y-78436539D01*
X147972382Y-78436539D02*
X148006054Y-78335524D01*
X148006054Y-78335524D02*
X148174412Y-78167165D01*
X148174412Y-78167165D02*
X148275428Y-78133494D01*
X148275428Y-78133494D02*
X148342771Y-78133494D01*
X148342771Y-78133494D02*
X148443786Y-78167165D01*
X148443786Y-78167165D02*
X148511130Y-78234509D01*
X148511130Y-78234509D02*
X148578473Y-78369196D01*
X148578473Y-78369196D02*
X148578473Y-79177318D01*
X148578473Y-79177318D02*
X149016206Y-78739585D01*
X159191760Y-79130184D02*
X159124416Y-79130184D01*
X159124416Y-79130184D02*
X158989729Y-79062840D01*
X158989729Y-79062840D02*
X158922386Y-78995497D01*
X158922386Y-78995497D02*
X158855042Y-78860810D01*
X158855042Y-78860810D02*
X158855042Y-78726123D01*
X158855042Y-78726123D02*
X158888714Y-78625108D01*
X158888714Y-78625108D02*
X158989729Y-78456749D01*
X158989729Y-78456749D02*
X159090744Y-78355734D01*
X159090744Y-78355734D02*
X159259103Y-78254718D01*
X159259103Y-78254718D02*
X159360118Y-78221047D01*
X159360118Y-78221047D02*
X159494805Y-78221047D01*
X159494805Y-78221047D02*
X159629492Y-78288390D01*
X159629492Y-78288390D02*
X159696836Y-78355734D01*
X159696836Y-78355734D02*
X159764179Y-78490421D01*
X159764179Y-78490421D02*
X159764179Y-78557764D01*
X159797851Y-79870962D02*
X159393790Y-79466901D01*
X159595821Y-79668932D02*
X160302927Y-78961825D01*
X160302927Y-78961825D02*
X160134569Y-78995497D01*
X160134569Y-78995497D02*
X159999882Y-78995497D01*
X159999882Y-78995497D02*
X159898866Y-78961825D01*
X160134569Y-80207680D02*
X160269256Y-80342367D01*
X160269256Y-80342367D02*
X160370271Y-80376039D01*
X160370271Y-80376039D02*
X160437615Y-80376039D01*
X160437615Y-80376039D02*
X160605973Y-80342367D01*
X160605973Y-80342367D02*
X160774332Y-80241352D01*
X160774332Y-80241352D02*
X161043706Y-79971978D01*
X161043706Y-79971978D02*
X161077378Y-79870963D01*
X161077378Y-79870963D02*
X161077378Y-79803619D01*
X161077378Y-79803619D02*
X161043706Y-79702604D01*
X161043706Y-79702604D02*
X160909019Y-79567917D01*
X160909019Y-79567917D02*
X160808004Y-79534245D01*
X160808004Y-79534245D02*
X160740660Y-79534245D01*
X160740660Y-79534245D02*
X160639645Y-79567917D01*
X160639645Y-79567917D02*
X160471286Y-79736276D01*
X160471286Y-79736276D02*
X160437615Y-79837291D01*
X160437615Y-79837291D02*
X160437615Y-79904634D01*
X160437615Y-79904634D02*
X160471286Y-80005650D01*
X160471286Y-80005650D02*
X160605973Y-80140337D01*
X160605973Y-80140337D02*
X160706989Y-80174008D01*
X160706989Y-80174008D02*
X160774332Y-80174008D01*
X160774332Y-80174008D02*
X160875347Y-80140337D01*
X140254594Y-77941110D02*
X139778403Y-78274443D01*
X140254594Y-78512538D02*
X139254594Y-78512538D01*
X139254594Y-78512538D02*
X139254594Y-78131586D01*
X139254594Y-78131586D02*
X139302213Y-78036348D01*
X139302213Y-78036348D02*
X139349832Y-77988729D01*
X139349832Y-77988729D02*
X139445070Y-77941110D01*
X139445070Y-77941110D02*
X139587927Y-77941110D01*
X139587927Y-77941110D02*
X139683165Y-77988729D01*
X139683165Y-77988729D02*
X139730784Y-78036348D01*
X139730784Y-78036348D02*
X139778403Y-78131586D01*
X139778403Y-78131586D02*
X139778403Y-78512538D01*
X139254594Y-77083967D02*
X139254594Y-77274443D01*
X139254594Y-77274443D02*
X139302213Y-77369681D01*
X139302213Y-77369681D02*
X139349832Y-77417300D01*
X139349832Y-77417300D02*
X139492689Y-77512538D01*
X139492689Y-77512538D02*
X139683165Y-77560157D01*
X139683165Y-77560157D02*
X140064117Y-77560157D01*
X140064117Y-77560157D02*
X140159355Y-77512538D01*
X140159355Y-77512538D02*
X140206975Y-77464919D01*
X140206975Y-77464919D02*
X140254594Y-77369681D01*
X140254594Y-77369681D02*
X140254594Y-77179205D01*
X140254594Y-77179205D02*
X140206975Y-77083967D01*
X140206975Y-77083967D02*
X140159355Y-77036348D01*
X140159355Y-77036348D02*
X140064117Y-76988729D01*
X140064117Y-76988729D02*
X139826022Y-76988729D01*
X139826022Y-76988729D02*
X139730784Y-77036348D01*
X139730784Y-77036348D02*
X139683165Y-77083967D01*
X139683165Y-77083967D02*
X139635546Y-77179205D01*
X139635546Y-77179205D02*
X139635546Y-77369681D01*
X139635546Y-77369681D02*
X139683165Y-77464919D01*
X139683165Y-77464919D02*
X139730784Y-77512538D01*
X139730784Y-77512538D02*
X139826022Y-77560157D01*
X143684105Y-89047705D02*
X143350772Y-88571514D01*
X143112677Y-89047705D02*
X143112677Y-88047705D01*
X143112677Y-88047705D02*
X143493629Y-88047705D01*
X143493629Y-88047705D02*
X143588867Y-88095324D01*
X143588867Y-88095324D02*
X143636486Y-88142943D01*
X143636486Y-88142943D02*
X143684105Y-88238181D01*
X143684105Y-88238181D02*
X143684105Y-88381038D01*
X143684105Y-88381038D02*
X143636486Y-88476276D01*
X143636486Y-88476276D02*
X143588867Y-88523895D01*
X143588867Y-88523895D02*
X143493629Y-88571514D01*
X143493629Y-88571514D02*
X143112677Y-88571514D01*
X144017439Y-88047705D02*
X144636486Y-88047705D01*
X144636486Y-88047705D02*
X144303153Y-88428657D01*
X144303153Y-88428657D02*
X144446010Y-88428657D01*
X144446010Y-88428657D02*
X144541248Y-88476276D01*
X144541248Y-88476276D02*
X144588867Y-88523895D01*
X144588867Y-88523895D02*
X144636486Y-88619133D01*
X144636486Y-88619133D02*
X144636486Y-88857228D01*
X144636486Y-88857228D02*
X144588867Y-88952466D01*
X144588867Y-88952466D02*
X144541248Y-89000086D01*
X144541248Y-89000086D02*
X144446010Y-89047705D01*
X144446010Y-89047705D02*
X144160296Y-89047705D01*
X144160296Y-89047705D02*
X144065058Y-89000086D01*
X144065058Y-89000086D02*
X144017439Y-88952466D01*
X145017439Y-88142943D02*
X145065058Y-88095324D01*
X145065058Y-88095324D02*
X145160296Y-88047705D01*
X145160296Y-88047705D02*
X145398391Y-88047705D01*
X145398391Y-88047705D02*
X145493629Y-88095324D01*
X145493629Y-88095324D02*
X145541248Y-88142943D01*
X145541248Y-88142943D02*
X145588867Y-88238181D01*
X145588867Y-88238181D02*
X145588867Y-88333419D01*
X145588867Y-88333419D02*
X145541248Y-88476276D01*
X145541248Y-88476276D02*
X144969820Y-89047705D01*
X144969820Y-89047705D02*
X145588867Y-89047705D01*
X139127142Y-65295581D02*
X139079523Y-65343201D01*
X139079523Y-65343201D02*
X138936666Y-65390820D01*
X138936666Y-65390820D02*
X138841428Y-65390820D01*
X138841428Y-65390820D02*
X138698571Y-65343201D01*
X138698571Y-65343201D02*
X138603333Y-65247962D01*
X138603333Y-65247962D02*
X138555714Y-65152724D01*
X138555714Y-65152724D02*
X138508095Y-64962248D01*
X138508095Y-64962248D02*
X138508095Y-64819391D01*
X138508095Y-64819391D02*
X138555714Y-64628915D01*
X138555714Y-64628915D02*
X138603333Y-64533677D01*
X138603333Y-64533677D02*
X138698571Y-64438439D01*
X138698571Y-64438439D02*
X138841428Y-64390820D01*
X138841428Y-64390820D02*
X138936666Y-64390820D01*
X138936666Y-64390820D02*
X139079523Y-64438439D01*
X139079523Y-64438439D02*
X139127142Y-64486058D01*
X140079523Y-65390820D02*
X139508095Y-65390820D01*
X139793809Y-65390820D02*
X139793809Y-64390820D01*
X139793809Y-64390820D02*
X139698571Y-64533677D01*
X139698571Y-64533677D02*
X139603333Y-64628915D01*
X139603333Y-64628915D02*
X139508095Y-64676534D01*
X140936666Y-64390820D02*
X140746190Y-64390820D01*
X140746190Y-64390820D02*
X140650952Y-64438439D01*
X140650952Y-64438439D02*
X140603333Y-64486058D01*
X140603333Y-64486058D02*
X140508095Y-64628915D01*
X140508095Y-64628915D02*
X140460476Y-64819391D01*
X140460476Y-64819391D02*
X140460476Y-65200343D01*
X140460476Y-65200343D02*
X140508095Y-65295581D01*
X140508095Y-65295581D02*
X140555714Y-65343201D01*
X140555714Y-65343201D02*
X140650952Y-65390820D01*
X140650952Y-65390820D02*
X140841428Y-65390820D01*
X140841428Y-65390820D02*
X140936666Y-65343201D01*
X140936666Y-65343201D02*
X140984285Y-65295581D01*
X140984285Y-65295581D02*
X141031904Y-65200343D01*
X141031904Y-65200343D02*
X141031904Y-64962248D01*
X141031904Y-64962248D02*
X140984285Y-64867010D01*
X140984285Y-64867010D02*
X140936666Y-64819391D01*
X140936666Y-64819391D02*
X140841428Y-64771772D01*
X140841428Y-64771772D02*
X140650952Y-64771772D01*
X140650952Y-64771772D02*
X140555714Y-64819391D01*
X140555714Y-64819391D02*
X140508095Y-64867010D01*
X140508095Y-64867010D02*
X140460476Y-64962248D01*
X134547759Y-72654766D02*
X134071568Y-72988099D01*
X134547759Y-73226194D02*
X133547759Y-73226194D01*
X133547759Y-73226194D02*
X133547759Y-72845242D01*
X133547759Y-72845242D02*
X133595378Y-72750004D01*
X133595378Y-72750004D02*
X133642997Y-72702385D01*
X133642997Y-72702385D02*
X133738235Y-72654766D01*
X133738235Y-72654766D02*
X133881092Y-72654766D01*
X133881092Y-72654766D02*
X133976330Y-72702385D01*
X133976330Y-72702385D02*
X134023949Y-72750004D01*
X134023949Y-72750004D02*
X134071568Y-72845242D01*
X134071568Y-72845242D02*
X134071568Y-73226194D01*
X134547759Y-71702385D02*
X134547759Y-72273813D01*
X134547759Y-71988099D02*
X133547759Y-71988099D01*
X133547759Y-71988099D02*
X133690616Y-72083337D01*
X133690616Y-72083337D02*
X133785854Y-72178575D01*
X133785854Y-72178575D02*
X133833473Y-72273813D01*
X133642997Y-71321432D02*
X133595378Y-71273813D01*
X133595378Y-71273813D02*
X133547759Y-71178575D01*
X133547759Y-71178575D02*
X133547759Y-70940480D01*
X133547759Y-70940480D02*
X133595378Y-70845242D01*
X133595378Y-70845242D02*
X133642997Y-70797623D01*
X133642997Y-70797623D02*
X133738235Y-70750004D01*
X133738235Y-70750004D02*
X133833473Y-70750004D01*
X133833473Y-70750004D02*
X133976330Y-70797623D01*
X133976330Y-70797623D02*
X134547759Y-71369051D01*
X134547759Y-71369051D02*
X134547759Y-70750004D01*
X125845987Y-65739276D02*
X125845987Y-65806620D01*
X125845987Y-65806620D02*
X125778643Y-65941307D01*
X125778643Y-65941307D02*
X125711300Y-66008650D01*
X125711300Y-66008650D02*
X125576613Y-66075994D01*
X125576613Y-66075994D02*
X125441926Y-66075994D01*
X125441926Y-66075994D02*
X125340911Y-66042322D01*
X125340911Y-66042322D02*
X125172552Y-65941307D01*
X125172552Y-65941307D02*
X125071537Y-65840292D01*
X125071537Y-65840292D02*
X124970521Y-65671933D01*
X124970521Y-65671933D02*
X124936850Y-65570918D01*
X124936850Y-65570918D02*
X124936850Y-65436231D01*
X124936850Y-65436231D02*
X125004193Y-65301544D01*
X125004193Y-65301544D02*
X125071537Y-65234200D01*
X125071537Y-65234200D02*
X125206224Y-65166857D01*
X125206224Y-65166857D02*
X125273567Y-65166857D01*
X125441926Y-64863811D02*
X125913330Y-64392406D01*
X125913330Y-64392406D02*
X126317391Y-65402559D01*
D12*
X121241494Y-58888284D02*
X120818160Y-58283522D01*
X120515779Y-58888284D02*
X120515779Y-57618284D01*
X120515779Y-57618284D02*
X120999589Y-57618284D01*
X120999589Y-57618284D02*
X121120541Y-57678760D01*
X121120541Y-57678760D02*
X121181018Y-57739236D01*
X121181018Y-57739236D02*
X121241494Y-57860188D01*
X121241494Y-57860188D02*
X121241494Y-58041617D01*
X121241494Y-58041617D02*
X121181018Y-58162569D01*
X121181018Y-58162569D02*
X121120541Y-58223046D01*
X121120541Y-58223046D02*
X120999589Y-58283522D01*
X120999589Y-58283522D02*
X120515779Y-58283522D01*
X122451018Y-58888284D02*
X121725303Y-58888284D01*
X122088160Y-58888284D02*
X122088160Y-57618284D01*
X122088160Y-57618284D02*
X121967208Y-57799712D01*
X121967208Y-57799712D02*
X121846256Y-57920665D01*
X121846256Y-57920665D02*
X121725303Y-57981141D01*
X123539589Y-57618284D02*
X123297684Y-57618284D01*
X123297684Y-57618284D02*
X123176732Y-57678760D01*
X123176732Y-57678760D02*
X123116256Y-57739236D01*
X123116256Y-57739236D02*
X122995303Y-57920665D01*
X122995303Y-57920665D02*
X122934827Y-58162569D01*
X122934827Y-58162569D02*
X122934827Y-58646379D01*
X122934827Y-58646379D02*
X122995303Y-58767331D01*
X122995303Y-58767331D02*
X123055780Y-58827808D01*
X123055780Y-58827808D02*
X123176732Y-58888284D01*
X123176732Y-58888284D02*
X123418637Y-58888284D01*
X123418637Y-58888284D02*
X123539589Y-58827808D01*
X123539589Y-58827808D02*
X123600065Y-58767331D01*
X123600065Y-58767331D02*
X123660542Y-58646379D01*
X123660542Y-58646379D02*
X123660542Y-58343998D01*
X123660542Y-58343998D02*
X123600065Y-58223046D01*
X123600065Y-58223046D02*
X123539589Y-58162569D01*
X123539589Y-58162569D02*
X123418637Y-58102093D01*
X123418637Y-58102093D02*
X123176732Y-58102093D01*
X123176732Y-58102093D02*
X123055780Y-58162569D01*
X123055780Y-58162569D02*
X122995303Y-58223046D01*
X122995303Y-58223046D02*
X122934827Y-58343998D01*
D10*
X126713729Y-87804150D02*
X126713729Y-88613673D01*
X126713729Y-88613673D02*
X126761348Y-88708911D01*
X126761348Y-88708911D02*
X126808967Y-88756531D01*
X126808967Y-88756531D02*
X126904205Y-88804150D01*
X126904205Y-88804150D02*
X127094681Y-88804150D01*
X127094681Y-88804150D02*
X127189919Y-88756531D01*
X127189919Y-88756531D02*
X127237538Y-88708911D01*
X127237538Y-88708911D02*
X127285157Y-88613673D01*
X127285157Y-88613673D02*
X127285157Y-87804150D01*
X128237538Y-87804150D02*
X127761348Y-87804150D01*
X127761348Y-87804150D02*
X127713729Y-88280340D01*
X127713729Y-88280340D02*
X127761348Y-88232721D01*
X127761348Y-88232721D02*
X127856586Y-88185102D01*
X127856586Y-88185102D02*
X128094681Y-88185102D01*
X128094681Y-88185102D02*
X128189919Y-88232721D01*
X128189919Y-88232721D02*
X128237538Y-88280340D01*
X128237538Y-88280340D02*
X128285157Y-88375578D01*
X128285157Y-88375578D02*
X128285157Y-88613673D01*
X128285157Y-88613673D02*
X128237538Y-88708911D01*
X128237538Y-88708911D02*
X128189919Y-88756531D01*
X128189919Y-88756531D02*
X128094681Y-88804150D01*
X128094681Y-88804150D02*
X127856586Y-88804150D01*
X127856586Y-88804150D02*
X127761348Y-88756531D01*
X127761348Y-88756531D02*
X127713729Y-88708911D01*
X147168892Y-91554627D02*
X146835559Y-91078436D01*
X146597464Y-91554627D02*
X146597464Y-90554627D01*
X146597464Y-90554627D02*
X146978416Y-90554627D01*
X146978416Y-90554627D02*
X147073654Y-90602246D01*
X147073654Y-90602246D02*
X147121273Y-90649865D01*
X147121273Y-90649865D02*
X147168892Y-90745103D01*
X147168892Y-90745103D02*
X147168892Y-90887960D01*
X147168892Y-90887960D02*
X147121273Y-90983198D01*
X147121273Y-90983198D02*
X147073654Y-91030817D01*
X147073654Y-91030817D02*
X146978416Y-91078436D01*
X146978416Y-91078436D02*
X146597464Y-91078436D01*
X147549845Y-90649865D02*
X147597464Y-90602246D01*
X147597464Y-90602246D02*
X147692702Y-90554627D01*
X147692702Y-90554627D02*
X147930797Y-90554627D01*
X147930797Y-90554627D02*
X148026035Y-90602246D01*
X148026035Y-90602246D02*
X148073654Y-90649865D01*
X148073654Y-90649865D02*
X148121273Y-90745103D01*
X148121273Y-90745103D02*
X148121273Y-90840341D01*
X148121273Y-90840341D02*
X148073654Y-90983198D01*
X148073654Y-90983198D02*
X147502226Y-91554627D01*
X147502226Y-91554627D02*
X148121273Y-91554627D01*
X148692702Y-90983198D02*
X148597464Y-90935579D01*
X148597464Y-90935579D02*
X148549845Y-90887960D01*
X148549845Y-90887960D02*
X148502226Y-90792722D01*
X148502226Y-90792722D02*
X148502226Y-90745103D01*
X148502226Y-90745103D02*
X148549845Y-90649865D01*
X148549845Y-90649865D02*
X148597464Y-90602246D01*
X148597464Y-90602246D02*
X148692702Y-90554627D01*
X148692702Y-90554627D02*
X148883178Y-90554627D01*
X148883178Y-90554627D02*
X148978416Y-90602246D01*
X148978416Y-90602246D02*
X149026035Y-90649865D01*
X149026035Y-90649865D02*
X149073654Y-90745103D01*
X149073654Y-90745103D02*
X149073654Y-90792722D01*
X149073654Y-90792722D02*
X149026035Y-90887960D01*
X149026035Y-90887960D02*
X148978416Y-90935579D01*
X148978416Y-90935579D02*
X148883178Y-90983198D01*
X148883178Y-90983198D02*
X148692702Y-90983198D01*
X148692702Y-90983198D02*
X148597464Y-91030817D01*
X148597464Y-91030817D02*
X148549845Y-91078436D01*
X148549845Y-91078436D02*
X148502226Y-91173674D01*
X148502226Y-91173674D02*
X148502226Y-91364150D01*
X148502226Y-91364150D02*
X148549845Y-91459388D01*
X148549845Y-91459388D02*
X148597464Y-91507008D01*
X148597464Y-91507008D02*
X148692702Y-91554627D01*
X148692702Y-91554627D02*
X148883178Y-91554627D01*
X148883178Y-91554627D02*
X148978416Y-91507008D01*
X148978416Y-91507008D02*
X149026035Y-91459388D01*
X149026035Y-91459388D02*
X149073654Y-91364150D01*
X149073654Y-91364150D02*
X149073654Y-91173674D01*
X149073654Y-91173674D02*
X149026035Y-91078436D01*
X149026035Y-91078436D02*
X148978416Y-91030817D01*
X148978416Y-91030817D02*
X148883178Y-90983198D01*
X125508333Y-83854580D02*
X125460714Y-83902200D01*
X125460714Y-83902200D02*
X125317857Y-83949819D01*
X125317857Y-83949819D02*
X125222619Y-83949819D01*
X125222619Y-83949819D02*
X125079762Y-83902200D01*
X125079762Y-83902200D02*
X124984524Y-83806961D01*
X124984524Y-83806961D02*
X124936905Y-83711723D01*
X124936905Y-83711723D02*
X124889286Y-83521247D01*
X124889286Y-83521247D02*
X124889286Y-83378390D01*
X124889286Y-83378390D02*
X124936905Y-83187914D01*
X124936905Y-83187914D02*
X124984524Y-83092676D01*
X124984524Y-83092676D02*
X125079762Y-82997438D01*
X125079762Y-82997438D02*
X125222619Y-82949819D01*
X125222619Y-82949819D02*
X125317857Y-82949819D01*
X125317857Y-82949819D02*
X125460714Y-82997438D01*
X125460714Y-82997438D02*
X125508333Y-83045057D01*
X126365476Y-83283152D02*
X126365476Y-83949819D01*
X126127381Y-82902200D02*
X125889286Y-83616485D01*
X125889286Y-83616485D02*
X126508333Y-83616485D01*
D13*
X116144808Y-66457199D02*
X116580237Y-66457199D01*
X116580237Y-66457199D02*
X116667322Y-66486228D01*
X116667322Y-66486228D02*
X116725380Y-66544285D01*
X116725380Y-66544285D02*
X116754408Y-66631371D01*
X116754408Y-66631371D02*
X116754408Y-66689428D01*
X116754408Y-65847599D02*
X116754408Y-66195942D01*
X116754408Y-66021771D02*
X116144808Y-66021771D01*
X116144808Y-66021771D02*
X116231894Y-66079828D01*
X116231894Y-66079828D02*
X116289951Y-66137885D01*
X116289951Y-66137885D02*
X116318980Y-66195942D01*
D10*
X135687781Y-77925141D02*
X135211590Y-78258474D01*
X135687781Y-78496569D02*
X134687781Y-78496569D01*
X134687781Y-78496569D02*
X134687781Y-78115617D01*
X134687781Y-78115617D02*
X134735400Y-78020379D01*
X134735400Y-78020379D02*
X134783019Y-77972760D01*
X134783019Y-77972760D02*
X134878257Y-77925141D01*
X134878257Y-77925141D02*
X135021114Y-77925141D01*
X135021114Y-77925141D02*
X135116352Y-77972760D01*
X135116352Y-77972760D02*
X135163971Y-78020379D01*
X135163971Y-78020379D02*
X135211590Y-78115617D01*
X135211590Y-78115617D02*
X135211590Y-78496569D01*
X135116352Y-77353712D02*
X135068733Y-77448950D01*
X135068733Y-77448950D02*
X135021114Y-77496569D01*
X135021114Y-77496569D02*
X134925876Y-77544188D01*
X134925876Y-77544188D02*
X134878257Y-77544188D01*
X134878257Y-77544188D02*
X134783019Y-77496569D01*
X134783019Y-77496569D02*
X134735400Y-77448950D01*
X134735400Y-77448950D02*
X134687781Y-77353712D01*
X134687781Y-77353712D02*
X134687781Y-77163236D01*
X134687781Y-77163236D02*
X134735400Y-77067998D01*
X134735400Y-77067998D02*
X134783019Y-77020379D01*
X134783019Y-77020379D02*
X134878257Y-76972760D01*
X134878257Y-76972760D02*
X134925876Y-76972760D01*
X134925876Y-76972760D02*
X135021114Y-77020379D01*
X135021114Y-77020379D02*
X135068733Y-77067998D01*
X135068733Y-77067998D02*
X135116352Y-77163236D01*
X135116352Y-77163236D02*
X135116352Y-77353712D01*
X135116352Y-77353712D02*
X135163971Y-77448950D01*
X135163971Y-77448950D02*
X135211590Y-77496569D01*
X135211590Y-77496569D02*
X135306828Y-77544188D01*
X135306828Y-77544188D02*
X135497304Y-77544188D01*
X135497304Y-77544188D02*
X135592542Y-77496569D01*
X135592542Y-77496569D02*
X135640162Y-77448950D01*
X135640162Y-77448950D02*
X135687781Y-77353712D01*
X135687781Y-77353712D02*
X135687781Y-77163236D01*
X135687781Y-77163236D02*
X135640162Y-77067998D01*
X135640162Y-77067998D02*
X135592542Y-77020379D01*
X135592542Y-77020379D02*
X135497304Y-76972760D01*
X135497304Y-76972760D02*
X135306828Y-76972760D01*
X135306828Y-76972760D02*
X135211590Y-77020379D01*
X135211590Y-77020379D02*
X135163971Y-77067998D01*
X135163971Y-77067998D02*
X135116352Y-77163236D01*
X144129142Y-71567580D02*
X144081523Y-71615200D01*
X144081523Y-71615200D02*
X143938666Y-71662819D01*
X143938666Y-71662819D02*
X143843428Y-71662819D01*
X143843428Y-71662819D02*
X143700571Y-71615200D01*
X143700571Y-71615200D02*
X143605333Y-71519961D01*
X143605333Y-71519961D02*
X143557714Y-71424723D01*
X143557714Y-71424723D02*
X143510095Y-71234247D01*
X143510095Y-71234247D02*
X143510095Y-71091390D01*
X143510095Y-71091390D02*
X143557714Y-70900914D01*
X143557714Y-70900914D02*
X143605333Y-70805676D01*
X143605333Y-70805676D02*
X143700571Y-70710438D01*
X143700571Y-70710438D02*
X143843428Y-70662819D01*
X143843428Y-70662819D02*
X143938666Y-70662819D01*
X143938666Y-70662819D02*
X144081523Y-70710438D01*
X144081523Y-70710438D02*
X144129142Y-70758057D01*
X145081523Y-71662819D02*
X144510095Y-71662819D01*
X144795809Y-71662819D02*
X144795809Y-70662819D01*
X144795809Y-70662819D02*
X144700571Y-70805676D01*
X144700571Y-70805676D02*
X144605333Y-70900914D01*
X144605333Y-70900914D02*
X144510095Y-70948533D01*
X145986285Y-70662819D02*
X145510095Y-70662819D01*
X145510095Y-70662819D02*
X145462476Y-71139009D01*
X145462476Y-71139009D02*
X145510095Y-71091390D01*
X145510095Y-71091390D02*
X145605333Y-71043771D01*
X145605333Y-71043771D02*
X145843428Y-71043771D01*
X145843428Y-71043771D02*
X145938666Y-71091390D01*
X145938666Y-71091390D02*
X145986285Y-71139009D01*
X145986285Y-71139009D02*
X146033904Y-71234247D01*
X146033904Y-71234247D02*
X146033904Y-71472342D01*
X146033904Y-71472342D02*
X145986285Y-71567580D01*
X145986285Y-71567580D02*
X145938666Y-71615200D01*
X145938666Y-71615200D02*
X145843428Y-71662819D01*
X145843428Y-71662819D02*
X145605333Y-71662819D01*
X145605333Y-71662819D02*
X145510095Y-71615200D01*
X145510095Y-71615200D02*
X145462476Y-71567580D01*
D13*
X182446800Y-88313808D02*
X182446800Y-88749237D01*
X182446800Y-88749237D02*
X182417771Y-88836322D01*
X182417771Y-88836322D02*
X182359714Y-88894380D01*
X182359714Y-88894380D02*
X182272628Y-88923408D01*
X182272628Y-88923408D02*
X182214571Y-88923408D01*
X182766114Y-88923408D02*
X182882228Y-88923408D01*
X182882228Y-88923408D02*
X182940285Y-88894380D01*
X182940285Y-88894380D02*
X182969314Y-88865351D01*
X182969314Y-88865351D02*
X183027371Y-88778265D01*
X183027371Y-88778265D02*
X183056400Y-88662151D01*
X183056400Y-88662151D02*
X183056400Y-88429922D01*
X183056400Y-88429922D02*
X183027371Y-88371865D01*
X183027371Y-88371865D02*
X182998343Y-88342837D01*
X182998343Y-88342837D02*
X182940285Y-88313808D01*
X182940285Y-88313808D02*
X182824171Y-88313808D01*
X182824171Y-88313808D02*
X182766114Y-88342837D01*
X182766114Y-88342837D02*
X182737085Y-88371865D01*
X182737085Y-88371865D02*
X182708057Y-88429922D01*
X182708057Y-88429922D02*
X182708057Y-88575065D01*
X182708057Y-88575065D02*
X182737085Y-88633122D01*
X182737085Y-88633122D02*
X182766114Y-88662151D01*
X182766114Y-88662151D02*
X182824171Y-88691180D01*
X182824171Y-88691180D02*
X182940285Y-88691180D01*
X182940285Y-88691180D02*
X182998343Y-88662151D01*
X182998343Y-88662151D02*
X183027371Y-88633122D01*
X183027371Y-88633122D02*
X183056400Y-88575065D01*
D10*
X163594820Y-83565904D02*
X164404343Y-83565904D01*
X164404343Y-83565904D02*
X164499581Y-83518285D01*
X164499581Y-83518285D02*
X164547201Y-83470666D01*
X164547201Y-83470666D02*
X164594820Y-83375428D01*
X164594820Y-83375428D02*
X164594820Y-83184952D01*
X164594820Y-83184952D02*
X164547201Y-83089714D01*
X164547201Y-83089714D02*
X164499581Y-83042095D01*
X164499581Y-83042095D02*
X164404343Y-82994476D01*
X164404343Y-82994476D02*
X163594820Y-82994476D01*
X163594820Y-82089714D02*
X163594820Y-82280190D01*
X163594820Y-82280190D02*
X163642439Y-82375428D01*
X163642439Y-82375428D02*
X163690058Y-82423047D01*
X163690058Y-82423047D02*
X163832915Y-82518285D01*
X163832915Y-82518285D02*
X164023391Y-82565904D01*
X164023391Y-82565904D02*
X164404343Y-82565904D01*
X164404343Y-82565904D02*
X164499581Y-82518285D01*
X164499581Y-82518285D02*
X164547201Y-82470666D01*
X164547201Y-82470666D02*
X164594820Y-82375428D01*
X164594820Y-82375428D02*
X164594820Y-82184952D01*
X164594820Y-82184952D02*
X164547201Y-82089714D01*
X164547201Y-82089714D02*
X164499581Y-82042095D01*
X164499581Y-82042095D02*
X164404343Y-81994476D01*
X164404343Y-81994476D02*
X164166248Y-81994476D01*
X164166248Y-81994476D02*
X164071010Y-82042095D01*
X164071010Y-82042095D02*
X164023391Y-82089714D01*
X164023391Y-82089714D02*
X163975772Y-82184952D01*
X163975772Y-82184952D02*
X163975772Y-82375428D01*
X163975772Y-82375428D02*
X164023391Y-82470666D01*
X164023391Y-82470666D02*
X164071010Y-82518285D01*
X164071010Y-82518285D02*
X164166248Y-82565904D01*
X148642142Y-62534580D02*
X148594523Y-62582200D01*
X148594523Y-62582200D02*
X148451666Y-62629819D01*
X148451666Y-62629819D02*
X148356428Y-62629819D01*
X148356428Y-62629819D02*
X148213571Y-62582200D01*
X148213571Y-62582200D02*
X148118333Y-62486961D01*
X148118333Y-62486961D02*
X148070714Y-62391723D01*
X148070714Y-62391723D02*
X148023095Y-62201247D01*
X148023095Y-62201247D02*
X148023095Y-62058390D01*
X148023095Y-62058390D02*
X148070714Y-61867914D01*
X148070714Y-61867914D02*
X148118333Y-61772676D01*
X148118333Y-61772676D02*
X148213571Y-61677438D01*
X148213571Y-61677438D02*
X148356428Y-61629819D01*
X148356428Y-61629819D02*
X148451666Y-61629819D01*
X148451666Y-61629819D02*
X148594523Y-61677438D01*
X148594523Y-61677438D02*
X148642142Y-61725057D01*
X149594523Y-62629819D02*
X149023095Y-62629819D01*
X149308809Y-62629819D02*
X149308809Y-61629819D01*
X149308809Y-61629819D02*
X149213571Y-61772676D01*
X149213571Y-61772676D02*
X149118333Y-61867914D01*
X149118333Y-61867914D02*
X149023095Y-61915533D01*
X150451666Y-61963152D02*
X150451666Y-62629819D01*
X150213571Y-61582200D02*
X149975476Y-62296485D01*
X149975476Y-62296485D02*
X150594523Y-62296485D01*
X138609686Y-69406853D02*
X138133495Y-69740186D01*
X138609686Y-69978281D02*
X137609686Y-69978281D01*
X137609686Y-69978281D02*
X137609686Y-69597329D01*
X137609686Y-69597329D02*
X137657305Y-69502091D01*
X137657305Y-69502091D02*
X137704924Y-69454472D01*
X137704924Y-69454472D02*
X137800162Y-69406853D01*
X137800162Y-69406853D02*
X137943019Y-69406853D01*
X137943019Y-69406853D02*
X138038257Y-69454472D01*
X138038257Y-69454472D02*
X138085876Y-69502091D01*
X138085876Y-69502091D02*
X138133495Y-69597329D01*
X138133495Y-69597329D02*
X138133495Y-69978281D01*
X138609686Y-68454472D02*
X138609686Y-69025900D01*
X138609686Y-68740186D02*
X137609686Y-68740186D01*
X137609686Y-68740186D02*
X137752543Y-68835424D01*
X137752543Y-68835424D02*
X137847781Y-68930662D01*
X137847781Y-68930662D02*
X137895400Y-69025900D01*
X138038257Y-67883043D02*
X137990638Y-67978281D01*
X137990638Y-67978281D02*
X137943019Y-68025900D01*
X137943019Y-68025900D02*
X137847781Y-68073519D01*
X137847781Y-68073519D02*
X137800162Y-68073519D01*
X137800162Y-68073519D02*
X137704924Y-68025900D01*
X137704924Y-68025900D02*
X137657305Y-67978281D01*
X137657305Y-67978281D02*
X137609686Y-67883043D01*
X137609686Y-67883043D02*
X137609686Y-67692567D01*
X137609686Y-67692567D02*
X137657305Y-67597329D01*
X137657305Y-67597329D02*
X137704924Y-67549710D01*
X137704924Y-67549710D02*
X137800162Y-67502091D01*
X137800162Y-67502091D02*
X137847781Y-67502091D01*
X137847781Y-67502091D02*
X137943019Y-67549710D01*
X137943019Y-67549710D02*
X137990638Y-67597329D01*
X137990638Y-67597329D02*
X138038257Y-67692567D01*
X138038257Y-67692567D02*
X138038257Y-67883043D01*
X138038257Y-67883043D02*
X138085876Y-67978281D01*
X138085876Y-67978281D02*
X138133495Y-68025900D01*
X138133495Y-68025900D02*
X138228733Y-68073519D01*
X138228733Y-68073519D02*
X138419209Y-68073519D01*
X138419209Y-68073519D02*
X138514447Y-68025900D01*
X138514447Y-68025900D02*
X138562067Y-67978281D01*
X138562067Y-67978281D02*
X138609686Y-67883043D01*
X138609686Y-67883043D02*
X138609686Y-67692567D01*
X138609686Y-67692567D02*
X138562067Y-67597329D01*
X138562067Y-67597329D02*
X138514447Y-67549710D01*
X138514447Y-67549710D02*
X138419209Y-67502091D01*
X138419209Y-67502091D02*
X138228733Y-67502091D01*
X138228733Y-67502091D02*
X138133495Y-67549710D01*
X138133495Y-67549710D02*
X138085876Y-67597329D01*
X138085876Y-67597329D02*
X138038257Y-67692567D01*
X137950952Y-77926197D02*
X137474761Y-78259530D01*
X137950952Y-78497625D02*
X136950952Y-78497625D01*
X136950952Y-78497625D02*
X136950952Y-78116673D01*
X136950952Y-78116673D02*
X136998571Y-78021435D01*
X136998571Y-78021435D02*
X137046190Y-77973816D01*
X137046190Y-77973816D02*
X137141428Y-77926197D01*
X137141428Y-77926197D02*
X137284285Y-77926197D01*
X137284285Y-77926197D02*
X137379523Y-77973816D01*
X137379523Y-77973816D02*
X137427142Y-78021435D01*
X137427142Y-78021435D02*
X137474761Y-78116673D01*
X137474761Y-78116673D02*
X137474761Y-78497625D01*
X137284285Y-77069054D02*
X137950952Y-77069054D01*
X136903333Y-77307149D02*
X137617618Y-77545244D01*
X137617618Y-77545244D02*
X137617618Y-76926197D01*
D14*
%TO.C,C2*%
X125039463Y-88988391D02*
X124875648Y-89152206D01*
X124530346Y-88479274D02*
X124366531Y-88643089D01*
%TO.C,R14*%
X134951749Y-69631087D02*
X134951749Y-69295845D01*
X135711749Y-69631087D02*
X135711749Y-69295845D01*
%TO.C,kibuzzard-65733C2B*%
G36*
X179600442Y-73411516D02*
G01*
X179667117Y-73492479D01*
X179702836Y-73603207D01*
X179713552Y-73723460D01*
X179712361Y-73777038D01*
X179708789Y-73823473D01*
X179627827Y-73849666D01*
X179532577Y-73859191D01*
X179426611Y-73844309D01*
X179356364Y-73799660D01*
X179303977Y-73628210D01*
X179314692Y-73532960D01*
X179348030Y-73454379D01*
X179407561Y-73400801D01*
X179496858Y-73380560D01*
X179600442Y-73411516D01*
G37*
G36*
X181368035Y-73902054D02*
G01*
X180511932Y-75186209D01*
X179999302Y-75186209D01*
X179118239Y-75186209D01*
X178227652Y-75186209D01*
X177818077Y-75186209D01*
X177305447Y-75186209D01*
X177305447Y-74592616D01*
X177818077Y-74592616D01*
X177891896Y-74618810D01*
X177995480Y-74645004D01*
X178112161Y-74665245D01*
X178227652Y-74673579D01*
X178365169Y-74664947D01*
X178482446Y-74639051D01*
X178580077Y-74597379D01*
X178658658Y-74541420D01*
X178761052Y-74392591D01*
X178794389Y-74204473D01*
X178778613Y-74084815D01*
X178731286Y-73983016D01*
X178655384Y-73901459D01*
X178553883Y-73842523D01*
X178687233Y-73718698D01*
X178712588Y-73632973D01*
X179018227Y-73632973D01*
X179044421Y-73815138D01*
X179127764Y-73963966D01*
X179275402Y-74065170D01*
X179375414Y-74092852D01*
X179494477Y-74102079D01*
X179661164Y-74061598D01*
X179577225Y-74210128D01*
X179449233Y-74312820D01*
X179289094Y-74373244D01*
X179108714Y-74394973D01*
X179118239Y-74647385D01*
X179309037Y-74632800D01*
X179481380Y-74589045D01*
X179632589Y-74517309D01*
X179759986Y-74418785D01*
X179862082Y-74293472D01*
X179937389Y-74141370D01*
X179983824Y-73963669D01*
X179999302Y-73761560D01*
X179984750Y-73577675D01*
X179941093Y-73422894D01*
X179868333Y-73297216D01*
X179768056Y-73204612D01*
X179641850Y-73149050D01*
X179489714Y-73130529D01*
X179378391Y-73142138D01*
X179282546Y-73176963D01*
X179136099Y-73296026D01*
X179047992Y-73457951D01*
X179018227Y-73632973D01*
X178712588Y-73632973D01*
X178737239Y-73549629D01*
X178708664Y-73385323D01*
X178620558Y-73253163D01*
X178469349Y-73166248D01*
X178369634Y-73143031D01*
X178253846Y-73135291D01*
X178127342Y-73146305D01*
X178014530Y-73179345D01*
X177844271Y-73266260D01*
X177949046Y-73480573D01*
X178090730Y-73412707D01*
X178256227Y-73385323D01*
X178390767Y-73431757D01*
X178439583Y-73559154D01*
X178416961Y-73649641D01*
X178358621Y-73706791D01*
X178277658Y-73737748D01*
X178187171Y-73747273D01*
X178077633Y-73747273D01*
X178077633Y-73990160D01*
X178168121Y-73990160D01*
X178298494Y-74001769D01*
X178403864Y-74036595D01*
X178473516Y-74100591D01*
X178496733Y-74199710D01*
X178436011Y-74359254D01*
X178352965Y-74407474D01*
X178225271Y-74423548D01*
X178112459Y-74416999D01*
X178016911Y-74397354D01*
X177875227Y-74347348D01*
X177818077Y-74592616D01*
X177305447Y-74592616D01*
X177305447Y-72617899D01*
X177818077Y-72617899D01*
X179999302Y-72617899D01*
X180511932Y-72617899D01*
X181368035Y-73902054D01*
G37*
%TO.C,JP1*%
X149328832Y-82799236D02*
X151308731Y-80819337D01*
X150743045Y-84213449D02*
X149328832Y-82799236D01*
X151308731Y-80819337D02*
X152722944Y-82233550D01*
X152722944Y-82233550D02*
X150743045Y-84213449D01*
%TO.C,C13*%
X146786252Y-59410000D02*
X146263748Y-59410000D01*
X146786252Y-57940000D02*
X146263748Y-57940000D01*
%TO.C,U4*%
X128970599Y-63270400D02*
X132170599Y-63270400D01*
X132170599Y-63270400D02*
X132170599Y-59070400D01*
X132170599Y-59070400D02*
X128970599Y-59070400D01*
X128970599Y-59070400D02*
X128970599Y-63270400D01*
X129170599Y-63270400D02*
G75*
G03*
X129170599Y-63270400I-200000J0D01*
G01*
%TO.C,U2*%
X127541600Y-62746400D02*
X127216600Y-62746400D01*
X124321600Y-62421400D02*
X124321600Y-62746400D01*
X127541600Y-62421400D02*
X127541600Y-62746400D01*
X124321600Y-59851400D02*
X124321600Y-59526400D01*
X127541600Y-59851400D02*
X127541600Y-59526400D01*
X124321600Y-59526400D02*
X124646600Y-59526400D01*
X127541600Y-59526400D02*
X127216600Y-59526400D01*
%TO.C,R7*%
X132672632Y-69628438D02*
X132672632Y-69293196D01*
X133432632Y-69628438D02*
X133432632Y-69293196D01*
%TO.C,C18*%
X170133748Y-78630000D02*
X170656252Y-78630000D01*
X170133748Y-80100000D02*
X170656252Y-80100000D01*
%TO.C,kibuzzard-65733C60*%
G36*
X181438679Y-84078126D02*
G01*
X180595276Y-85343231D01*
X180082646Y-85343231D01*
X179387321Y-85343231D01*
X178215746Y-85343231D01*
X177818077Y-85343231D01*
X177305447Y-85343231D01*
X177305447Y-84754401D01*
X177818077Y-84754401D01*
X177885943Y-84780595D01*
X177984764Y-84805598D01*
X178099064Y-84823457D01*
X178215746Y-84830601D01*
X178352072Y-84821671D01*
X178470539Y-84794882D01*
X178571147Y-84752020D01*
X178653896Y-84694870D01*
X178763433Y-84543660D01*
X178799152Y-84354351D01*
X178783012Y-84216238D01*
X178734594Y-84100351D01*
X178653896Y-84006688D01*
X178540389Y-83935780D01*
X178393546Y-83888155D01*
X178213364Y-83863813D01*
X178225271Y-83728082D01*
X178228825Y-83680457D01*
X178958696Y-83680457D01*
X179009372Y-83846177D01*
X179061387Y-84005200D01*
X179114742Y-84157526D01*
X179169436Y-84303154D01*
X179242858Y-84484791D01*
X179315486Y-84650287D01*
X179387321Y-84799645D01*
X179632589Y-84799645D01*
X179705614Y-84650287D01*
X179781814Y-84484791D01*
X179861189Y-84303154D01*
X179920572Y-84157526D01*
X179977275Y-84005200D01*
X180031300Y-83846177D01*
X180082646Y-83680457D01*
X179784989Y-83680457D01*
X179760284Y-83773921D01*
X179729030Y-83873338D01*
X179693907Y-83976030D01*
X179657593Y-84079317D01*
X179620385Y-84181413D01*
X179582583Y-84280532D01*
X179513527Y-84459126D01*
X179448043Y-84280532D01*
X179413812Y-84181413D01*
X179380177Y-84079317D01*
X179347732Y-83976030D01*
X179317074Y-83873338D01*
X179289392Y-83773921D01*
X179265877Y-83680457D01*
X178958696Y-83680457D01*
X178228825Y-83680457D01*
X178237177Y-83568538D01*
X178744383Y-83568538D01*
X178744383Y-83325651D01*
X177991908Y-83325651D01*
X177982978Y-83507519D01*
X177970477Y-83695935D01*
X177953808Y-83889710D01*
X177932377Y-84087651D01*
X178096088Y-84092711D01*
X178225271Y-84107892D01*
X178397911Y-84165042D01*
X178478874Y-84253148D01*
X178499114Y-84366257D01*
X178487208Y-84444838D01*
X178443155Y-84512704D01*
X178355049Y-84561520D01*
X178213364Y-84580570D01*
X178102041Y-84575212D01*
X178010958Y-84559138D01*
X177877608Y-84511513D01*
X177818077Y-84754401D01*
X177305447Y-84754401D01*
X177305447Y-82813021D01*
X177818077Y-82813021D01*
X180082646Y-82813021D01*
X180595276Y-82813021D01*
X181438679Y-84078126D01*
G37*
%TO.C,D3*%
X142835234Y-81534947D02*
X144192879Y-82892592D01*
X144192879Y-82892592D02*
X146091460Y-80994011D01*
X144733815Y-79636366D02*
X142835234Y-81534947D01*
%TO.C,C17*%
X165343749Y-78670000D02*
X165866253Y-78670000D01*
X165343749Y-80140000D02*
X165866253Y-80140000D01*
%TO.C,kibuzzard-65733C66*%
G36*
X181435505Y-86590000D02*
G01*
X180580989Y-87871774D01*
X180068359Y-87871774D01*
X179373034Y-87871774D01*
X178227652Y-87871774D01*
X177818077Y-87871774D01*
X177305447Y-87871774D01*
X177305447Y-87278181D01*
X177818077Y-87278181D01*
X177891896Y-87304375D01*
X177995481Y-87330569D01*
X178112162Y-87350809D01*
X178227652Y-87359144D01*
X178365170Y-87350512D01*
X178482446Y-87324616D01*
X178580077Y-87282944D01*
X178658659Y-87226984D01*
X178761052Y-87078156D01*
X178794390Y-86890037D01*
X178778614Y-86770380D01*
X178731287Y-86668581D01*
X178655384Y-86587023D01*
X178553884Y-86528087D01*
X178687234Y-86404262D01*
X178737240Y-86235194D01*
X178732685Y-86209000D01*
X178944409Y-86209000D01*
X178995085Y-86374720D01*
X179047100Y-86533743D01*
X179100455Y-86686069D01*
X179155149Y-86831697D01*
X179228571Y-87013333D01*
X179301199Y-87178830D01*
X179373034Y-87328187D01*
X179618302Y-87328187D01*
X179691327Y-87178830D01*
X179767527Y-87013333D01*
X179846902Y-86831697D01*
X179906285Y-86686069D01*
X179962988Y-86533743D01*
X180017013Y-86374720D01*
X180068359Y-86209000D01*
X179770702Y-86209000D01*
X179745997Y-86302464D01*
X179714743Y-86401881D01*
X179679620Y-86504573D01*
X179643306Y-86607859D01*
X179606098Y-86709955D01*
X179568296Y-86809075D01*
X179499240Y-86987669D01*
X179433756Y-86809075D01*
X179399525Y-86709955D01*
X179365890Y-86607859D01*
X179333445Y-86504573D01*
X179302787Y-86401881D01*
X179275105Y-86302464D01*
X179251590Y-86209000D01*
X178944409Y-86209000D01*
X178732685Y-86209000D01*
X178708665Y-86070887D01*
X178620559Y-85938728D01*
X178469349Y-85851812D01*
X178369634Y-85828595D01*
X178253846Y-85820856D01*
X178127342Y-85831870D01*
X178014531Y-85864909D01*
X177844271Y-85951825D01*
X177949046Y-86166137D01*
X178090731Y-86098272D01*
X178256227Y-86070887D01*
X178390768Y-86117322D01*
X178439584Y-86244719D01*
X178416962Y-86335206D01*
X178358621Y-86392356D01*
X178277659Y-86423312D01*
X178187171Y-86432837D01*
X178077634Y-86432837D01*
X178077634Y-86675725D01*
X178168121Y-86675725D01*
X178298495Y-86687334D01*
X178403865Y-86722159D01*
X178473516Y-86786155D01*
X178496734Y-86885275D01*
X178436012Y-87044819D01*
X178352966Y-87093039D01*
X178225271Y-87109112D01*
X178112459Y-87102564D01*
X178016912Y-87082919D01*
X177875227Y-87032912D01*
X177818077Y-87278181D01*
X177305447Y-87278181D01*
X177305447Y-85308226D01*
X177818077Y-85308226D01*
X180068359Y-85308226D01*
X180580989Y-85308226D01*
X181435505Y-86590000D01*
G37*
%TO.C,R20*%
X161929232Y-84665445D02*
X162166284Y-84902497D01*
X161391830Y-85202847D02*
X161628882Y-85439899D01*
%TO.C,kibuzzard-65733C85*%
G36*
X180789878Y-81457433D02*
G01*
X180866078Y-81489580D01*
X180866078Y-82099180D01*
X180801784Y-82106324D01*
X180735109Y-82108705D01*
X180628250Y-82084892D01*
X180555324Y-82013455D01*
X180513355Y-81904513D01*
X180499365Y-81768186D01*
X180511271Y-81629478D01*
X180546990Y-81527680D01*
X180608903Y-81465172D01*
X180699390Y-81444336D01*
X180789878Y-81457433D01*
G37*
G36*
X185038469Y-81524108D02*
G01*
X184135534Y-82878510D01*
X181158971Y-82878510D01*
X180732728Y-82878510D01*
X179994540Y-82878510D01*
X178420534Y-82878510D01*
X177818078Y-82878510D01*
X177305447Y-82878510D01*
X177305447Y-81596736D01*
X177818078Y-81596736D01*
X177828793Y-81775628D01*
X177860940Y-81931302D01*
X177912732Y-82063461D01*
X177982384Y-82171808D01*
X178069002Y-82256342D01*
X178171693Y-82317064D01*
X178289267Y-82353676D01*
X178420534Y-82365880D01*
X178566088Y-82359927D01*
X178688424Y-82342067D01*
X178715607Y-82334924D01*
X179094428Y-82334924D01*
X179387321Y-82334924D01*
X179387321Y-81456242D01*
X179455187Y-81449099D01*
X179520671Y-81446717D01*
X179665928Y-81515774D01*
X179692717Y-81606856D01*
X179701646Y-81741992D01*
X179701646Y-82334924D01*
X179994540Y-82334924D01*
X179994540Y-81782474D01*
X180201709Y-81782474D01*
X180216658Y-81949161D01*
X180261505Y-82090449D01*
X180336249Y-82206336D01*
X180440098Y-82292326D01*
X180572258Y-82343919D01*
X180732728Y-82361117D01*
X180845837Y-82356950D01*
X180961328Y-82344449D01*
X181069079Y-82325399D01*
X181158971Y-82301586D01*
X181158971Y-80682336D01*
X180866078Y-80732342D01*
X180866078Y-81241930D01*
X180766065Y-81205020D01*
X180649384Y-81191924D01*
X180513785Y-81209518D01*
X180402263Y-81262303D01*
X180314818Y-81350277D01*
X180251980Y-81468678D01*
X180214277Y-81612743D01*
X180201709Y-81782474D01*
X179994540Y-81782474D01*
X179994540Y-81703892D01*
X179989182Y-81594653D01*
X179973109Y-81495533D01*
X179900481Y-81333608D01*
X179761178Y-81228833D01*
X179661760Y-81201151D01*
X179539721Y-81191924D01*
X179409050Y-81196686D01*
X179288499Y-81210974D01*
X179182236Y-81230619D01*
X179094428Y-81251455D01*
X179094428Y-82334924D01*
X178715607Y-82334924D01*
X178851540Y-82299205D01*
X178851540Y-81563399D01*
X178558646Y-81563399D01*
X178558646Y-82101561D01*
X178501496Y-82108705D01*
X178444346Y-82111086D01*
X178302067Y-82079832D01*
X178199078Y-81986071D01*
X178152776Y-81887249D01*
X178124994Y-81757470D01*
X178115734Y-81596736D01*
X178120794Y-81487496D01*
X178135974Y-81388377D01*
X178202649Y-81226452D01*
X178320521Y-81120486D01*
X178496734Y-81082386D01*
X178653896Y-81108580D01*
X178782484Y-81168111D01*
X178858684Y-80934749D01*
X178809868Y-80906174D01*
X178727715Y-80870455D01*
X178609843Y-80840689D01*
X178456253Y-80827592D01*
X178327070Y-80839796D01*
X178206221Y-80876408D01*
X178097279Y-80937428D01*
X178003815Y-81022855D01*
X177927020Y-81132095D01*
X177868084Y-81264552D01*
X177830579Y-81419631D01*
X177818078Y-81596736D01*
X177305447Y-81596736D01*
X177305447Y-80169706D01*
X177818078Y-80169706D01*
X181158971Y-80169706D01*
X184135534Y-80169706D01*
X185038469Y-81524108D01*
G37*
%TO.C,U3*%
X128879524Y-87626458D02*
X132079524Y-87626458D01*
X132079524Y-87626458D02*
X132079524Y-83426458D01*
X132079524Y-83426458D02*
X128879524Y-83426458D01*
X128879524Y-83426458D02*
X128879524Y-87626458D01*
X129079524Y-87626458D02*
G75*
G03*
X129079524Y-87626458I-200000J0D01*
G01*
%TO.C,C9*%
X150227331Y-61486361D02*
X149704827Y-61486361D01*
X150227331Y-60016361D02*
X149704827Y-60016361D01*
%TO.C,R25*%
X173351589Y-83094817D02*
X173016347Y-83094817D01*
X173351589Y-82334817D02*
X173016347Y-82334817D01*
%TO.C,R17*%
X144292379Y-63782000D02*
X144627621Y-63782000D01*
X144292379Y-64542000D02*
X144627621Y-64542000D01*
%TO.C,R33*%
X144495221Y-85540104D02*
X144159979Y-85540104D01*
X144495221Y-84780104D02*
X144159979Y-84780104D01*
%TO.C,C6*%
X121068565Y-62304000D02*
X121300235Y-62304000D01*
X121068565Y-63024000D02*
X121300235Y-63024000D01*
%TO.C,kibuzzard-65733FF1*%
G36*
X154142798Y-51091756D02*
G01*
X155395336Y-51091756D01*
X155395733Y-51091756D01*
X155636683Y-51103593D01*
X155875312Y-51138991D01*
X156109323Y-51197607D01*
X156336462Y-51278879D01*
X156554541Y-51382023D01*
X156761460Y-51506045D01*
X156955226Y-51649752D01*
X157133974Y-51811759D01*
X157295981Y-51990507D01*
X157439688Y-52184273D01*
X157563710Y-52391192D01*
X157666854Y-52609271D01*
X157748125Y-52836410D01*
X157806742Y-53070420D01*
X157842139Y-53309050D01*
X157853977Y-53550000D01*
X157842139Y-53790950D01*
X157806742Y-54029580D01*
X157748125Y-54263590D01*
X157666854Y-54490729D01*
X157563710Y-54708808D01*
X157439688Y-54915727D01*
X157295981Y-55109493D01*
X157133974Y-55288241D01*
X156955226Y-55450248D01*
X156761460Y-55593955D01*
X156554541Y-55717977D01*
X156336462Y-55821121D01*
X156109323Y-55902393D01*
X155875312Y-55961009D01*
X155636683Y-55996407D01*
X155395733Y-56008244D01*
X155395336Y-56008244D01*
X153395086Y-56008244D01*
X152006023Y-56008244D01*
X152006023Y-53790506D01*
X153395086Y-53790506D01*
X154142798Y-53790506D01*
X154142798Y-54619181D01*
X154647623Y-54619181D01*
X154647623Y-53790506D01*
X155395336Y-53790506D01*
X155395336Y-53309494D01*
X154647623Y-53309494D01*
X154647623Y-52480819D01*
X154142798Y-52480819D01*
X154142798Y-53309494D01*
X153395086Y-53309494D01*
X153395086Y-53790506D01*
X152006023Y-53790506D01*
X152006023Y-51091756D01*
X153395086Y-51091756D01*
X154142798Y-51091756D01*
G37*
D11*
%TO.C,L1*%
X150893141Y-64931128D02*
X148593141Y-64931128D01*
D14*
%TO.C,R22*%
X144502779Y-86662843D02*
X144167537Y-86662843D01*
X144502779Y-85902843D02*
X144167537Y-85902843D01*
D13*
%TO.C,J12*%
X123535000Y-75625000D02*
X123535000Y-76605000D01*
X122655000Y-75625000D02*
X123535000Y-75625000D01*
X122415000Y-78525000D02*
X117655000Y-78525000D01*
X116535000Y-75625000D02*
X117415000Y-75625000D01*
X116535000Y-75625000D02*
X116535000Y-76605000D01*
D11*
X122135000Y-73825000D02*
G75*
G03*
X122135000Y-73825000I-100000J0D01*
G01*
%TO.C,kibuzzard-65733FCF*%
G36*
X124578857Y-53067004D02*
G01*
X124660464Y-53147222D01*
X124707345Y-53271196D01*
X124722972Y-53429202D01*
X124705956Y-53587555D01*
X124654908Y-53712570D01*
X124570522Y-53793830D01*
X124453494Y-53820917D01*
X124333687Y-53793830D01*
X124252080Y-53712570D01*
X124205199Y-53587555D01*
X124189572Y-53429202D01*
X124206588Y-53271196D01*
X124257636Y-53147222D01*
X124342021Y-53067004D01*
X124459050Y-53040264D01*
X124578857Y-53067004D01*
G37*
G36*
X127356982Y-53067004D02*
G01*
X127438589Y-53147222D01*
X127485470Y-53271196D01*
X127501097Y-53429202D01*
X127484081Y-53587555D01*
X127433033Y-53712570D01*
X127348647Y-53793830D01*
X127231619Y-53820917D01*
X127111812Y-53793830D01*
X127030205Y-53712570D01*
X126983324Y-53587555D01*
X126967697Y-53429202D01*
X126984713Y-53271196D01*
X127035761Y-53147222D01*
X127120146Y-53067004D01*
X127237175Y-53040264D01*
X127356982Y-53067004D01*
G37*
G36*
X142714958Y-53150000D02*
G01*
X141683657Y-54696953D01*
X141683425Y-54696953D01*
X141022231Y-54696953D01*
X139738738Y-54696953D01*
X138927525Y-54696953D01*
X136780034Y-54696953D01*
X134413072Y-54696953D01*
X133321269Y-54696953D01*
X131634947Y-54696953D01*
X130643156Y-54696953D01*
X129004062Y-54696953D01*
X127237175Y-54696953D01*
X125928678Y-54696953D01*
X124459050Y-54696953D01*
X123697844Y-54696953D01*
X122436575Y-54696953D01*
X122436343Y-54696953D01*
X122026415Y-54082061D01*
X122436575Y-54082061D01*
X122750503Y-54082061D01*
X122736613Y-52745783D01*
X122939416Y-53473652D01*
X123189447Y-53473652D01*
X123400584Y-52745783D01*
X123383916Y-54082061D01*
X123697844Y-54082061D01*
X123691593Y-53862242D01*
X123683953Y-53647284D01*
X123674577Y-53435452D01*
X123674085Y-53426423D01*
X123842306Y-53426423D01*
X123853419Y-53574706D01*
X123886756Y-53708403D01*
X123940582Y-53826126D01*
X124013161Y-53926486D01*
X124102755Y-54007746D01*
X124207630Y-54068170D01*
X124326742Y-54105675D01*
X124459050Y-54118177D01*
X124591358Y-54105675D01*
X124710470Y-54068170D01*
X124814997Y-54007746D01*
X124903550Y-53926486D01*
X124975087Y-53826126D01*
X125028566Y-53708403D01*
X125061903Y-53574706D01*
X125073016Y-53426423D01*
X125061903Y-53280225D01*
X125047019Y-53220842D01*
X125225812Y-53220842D01*
X125238314Y-53429549D01*
X125275819Y-53611169D01*
X125336243Y-53765355D01*
X125417503Y-53891759D01*
X125518557Y-53990383D01*
X125638364Y-54061225D01*
X125775534Y-54103939D01*
X125928678Y-54118177D01*
X126098491Y-54111231D01*
X126241217Y-54090395D01*
X126431519Y-54040389D01*
X126431519Y-53426423D01*
X126620431Y-53426423D01*
X126631544Y-53574706D01*
X126664881Y-53708403D01*
X126718707Y-53826126D01*
X126791286Y-53926486D01*
X126880880Y-54007746D01*
X126985755Y-54068170D01*
X127104867Y-54105675D01*
X127237175Y-54118177D01*
X127369483Y-54105675D01*
X127444479Y-54082061D01*
X129381887Y-54082061D01*
X129695816Y-54082061D01*
X129681925Y-52745783D01*
X129884728Y-53473652D01*
X130134759Y-53473652D01*
X130345897Y-52745783D01*
X130329228Y-54082061D01*
X130643156Y-54082061D01*
X130636905Y-53862242D01*
X130629266Y-53647284D01*
X130619889Y-53435452D01*
X130608430Y-53225009D01*
X130597537Y-53059711D01*
X130807066Y-53059711D01*
X131168222Y-53059711D01*
X131168222Y-53540327D01*
X131173778Y-53668815D01*
X131190447Y-53782023D01*
X131266845Y-53961212D01*
X131411308Y-54073727D01*
X131512362Y-54102897D01*
X131634947Y-54112620D01*
X131805802Y-54094563D01*
X131842287Y-54082061D01*
X132271137Y-54082061D01*
X132612847Y-54082061D01*
X132612847Y-53056933D01*
X132692023Y-53048598D01*
X132768422Y-53045820D01*
X132937888Y-53126386D01*
X132969141Y-53232649D01*
X132979559Y-53390308D01*
X132979559Y-54082061D01*
X133321269Y-54082061D01*
X133321269Y-53345858D01*
X133315018Y-53218411D01*
X133296266Y-53102772D01*
X133276952Y-53059711D01*
X133585191Y-53059711D01*
X133946347Y-53059711D01*
X133946347Y-53540327D01*
X133951903Y-53668815D01*
X133968572Y-53782023D01*
X134044970Y-53961212D01*
X134189433Y-54073727D01*
X134290487Y-54102897D01*
X134413072Y-54112620D01*
X134583927Y-54094563D01*
X134782562Y-54026498D01*
X134738112Y-53751464D01*
X134588094Y-53802859D01*
X134474191Y-53815361D01*
X134331117Y-53758409D01*
X134288056Y-53584777D01*
X134288056Y-52776342D01*
X134057472Y-52776342D01*
X133585191Y-52776342D01*
X133585191Y-53059711D01*
X133276952Y-53059711D01*
X133211533Y-52913859D01*
X133049012Y-52791622D01*
X132933026Y-52759326D01*
X132790647Y-52748561D01*
X132638197Y-52754117D01*
X132497555Y-52770786D01*
X132373581Y-52793705D01*
X132271137Y-52818014D01*
X132271137Y-54082061D01*
X131842287Y-54082061D01*
X132004437Y-54026498D01*
X131959987Y-53751464D01*
X131809969Y-53802859D01*
X131696066Y-53815361D01*
X131552992Y-53758409D01*
X131509931Y-53584777D01*
X131509931Y-52776342D01*
X131279347Y-52776342D01*
X130807066Y-52776342D01*
X130807066Y-53059711D01*
X130597537Y-53059711D01*
X130594539Y-53014219D01*
X130577870Y-52801345D01*
X130559465Y-52584652D01*
X130543708Y-52401295D01*
X131065431Y-52401295D01*
X131127939Y-52559648D01*
X131279347Y-52617989D01*
X131432144Y-52559648D01*
X131496041Y-52401295D01*
X133843556Y-52401295D01*
X133906064Y-52559648D01*
X134057472Y-52617989D01*
X134210269Y-52559648D01*
X134274166Y-52401295D01*
X134258743Y-52362402D01*
X136299419Y-52362402D01*
X136331367Y-52517977D01*
X136377206Y-52712445D01*
X136413939Y-52857988D01*
X136453759Y-53009396D01*
X136496666Y-53166669D01*
X136542042Y-53327028D01*
X136589270Y-53487697D01*
X136638350Y-53648673D01*
X136711276Y-53877869D01*
X136780034Y-54082061D01*
X137132856Y-54082061D01*
X137185949Y-53934049D01*
X137237808Y-53782641D01*
X137288431Y-53627838D01*
X137337048Y-53472263D01*
X137382887Y-53318540D01*
X137425948Y-53166669D01*
X137484984Y-52945461D01*
X137537073Y-52734670D01*
X137540250Y-52720780D01*
X137785716Y-52720780D01*
X137896841Y-53004148D01*
X138066306Y-52936084D01*
X138244106Y-52837461D01*
X138244106Y-53798692D01*
X137882950Y-53798692D01*
X137882950Y-54082061D01*
X138927525Y-54082061D01*
X138927525Y-53862589D01*
X139488706Y-53862589D01*
X139509542Y-53969547D01*
X139565105Y-54047334D01*
X139644281Y-54095952D01*
X139738738Y-54112620D01*
X139910981Y-54048723D01*
X139921057Y-54023720D01*
X140544394Y-54023720D01*
X140630516Y-54054280D01*
X140751364Y-54084839D01*
X140887492Y-54108453D01*
X141022231Y-54118177D01*
X141182668Y-54108106D01*
X141319491Y-54077894D01*
X141433394Y-54029277D01*
X141525072Y-53963991D01*
X141644531Y-53790358D01*
X141683425Y-53570886D01*
X141665020Y-53431285D01*
X141609805Y-53312520D01*
X141521252Y-53217370D01*
X141402834Y-53148611D01*
X141558409Y-53004148D01*
X141616750Y-52806902D01*
X141583413Y-52615211D01*
X141480622Y-52461025D01*
X141304211Y-52359623D01*
X141187877Y-52332537D01*
X141052791Y-52323508D01*
X140905203Y-52336357D01*
X140773589Y-52374903D01*
X140574953Y-52476305D01*
X140697191Y-52726336D01*
X140862489Y-52647159D01*
X141055569Y-52615211D01*
X141212533Y-52669384D01*
X141269484Y-52818014D01*
X141243092Y-52923583D01*
X141175028Y-52990258D01*
X141080572Y-53026373D01*
X140975003Y-53037486D01*
X140847209Y-53037486D01*
X140847209Y-53320855D01*
X140952778Y-53320855D01*
X141104880Y-53334398D01*
X141227813Y-53375028D01*
X141309073Y-53449690D01*
X141336159Y-53565330D01*
X141265317Y-53751464D01*
X141168430Y-53807721D01*
X141019453Y-53826473D01*
X140887839Y-53818834D01*
X140776367Y-53795914D01*
X140611069Y-53737573D01*
X140544394Y-54023720D01*
X139921057Y-54023720D01*
X139985991Y-53862589D01*
X139910981Y-53682011D01*
X139738738Y-53618114D01*
X139644281Y-53634783D01*
X139565105Y-53682011D01*
X139509542Y-53758409D01*
X139488706Y-53862589D01*
X138927525Y-53862589D01*
X138927525Y-53798692D01*
X138585816Y-53798692D01*
X138585816Y-52362402D01*
X138352453Y-52362402D01*
X138232994Y-52470748D01*
X138085753Y-52570761D01*
X137930178Y-52656883D01*
X137785716Y-52720780D01*
X137540250Y-52720780D01*
X137581871Y-52538812D01*
X137619028Y-52362402D01*
X137260650Y-52362402D01*
X137235647Y-52506864D01*
X137205087Y-52673552D01*
X137170361Y-52853782D01*
X137132856Y-53038875D01*
X137092573Y-53225009D01*
X137049513Y-53408366D01*
X137005063Y-53580262D01*
X136960612Y-53732017D01*
X136915815Y-53578179D01*
X136870323Y-53405587D01*
X136825873Y-53222231D01*
X136784202Y-53036097D01*
X136745655Y-52851352D01*
X136710581Y-52672162D01*
X136681411Y-52506517D01*
X136660575Y-52362402D01*
X136299419Y-52362402D01*
X134258743Y-52362402D01*
X134210269Y-52240164D01*
X134057472Y-52181823D01*
X133906064Y-52240164D01*
X133843556Y-52401295D01*
X131496041Y-52401295D01*
X131432144Y-52240164D01*
X131279347Y-52181823D01*
X131127939Y-52240164D01*
X131065431Y-52401295D01*
X130543708Y-52401295D01*
X130540366Y-52362402D01*
X130256997Y-52362402D01*
X130206991Y-52509642D01*
X130145872Y-52699944D01*
X130076419Y-52911081D01*
X130006966Y-53123608D01*
X129943069Y-52923583D01*
X129876394Y-52709667D01*
X129813886Y-52512420D01*
X129765269Y-52362402D01*
X129481900Y-52362402D01*
X129463495Y-52550620D01*
X129447173Y-52754117D01*
X129432936Y-52968727D01*
X129420781Y-53190283D01*
X129410016Y-53416005D01*
X129399945Y-53643117D01*
X129390569Y-53866756D01*
X129381887Y-54082061D01*
X127444479Y-54082061D01*
X127488595Y-54068170D01*
X127593122Y-54007746D01*
X127681675Y-53926486D01*
X127753212Y-53826126D01*
X127806691Y-53708403D01*
X127840028Y-53574706D01*
X127851141Y-53426423D01*
X127840028Y-53280225D01*
X127820269Y-53201395D01*
X128242856Y-53201395D01*
X128242856Y-53537548D01*
X129004062Y-53537548D01*
X129004062Y-53201395D01*
X128242856Y-53201395D01*
X127820269Y-53201395D01*
X127806691Y-53147222D01*
X127752864Y-53029846D01*
X127680286Y-52930528D01*
X127590691Y-52850657D01*
X127485817Y-52791622D01*
X127367400Y-52755159D01*
X127237175Y-52743005D01*
X127108687Y-52755159D01*
X126989922Y-52791622D01*
X126884006Y-52850657D01*
X126794064Y-52930528D01*
X126721138Y-53029846D01*
X126666270Y-53147222D01*
X126631891Y-53280225D01*
X126620431Y-53426423D01*
X126431519Y-53426423D01*
X126431519Y-53181948D01*
X126089809Y-53181948D01*
X126089809Y-53809805D01*
X126023134Y-53818139D01*
X125956459Y-53820917D01*
X125790466Y-53784454D01*
X125670312Y-53675066D01*
X125616293Y-53559773D01*
X125583882Y-53408366D01*
X125573078Y-53220842D01*
X125578982Y-53093396D01*
X125596692Y-52977756D01*
X125674480Y-52788844D01*
X125811997Y-52665217D01*
X126017578Y-52620767D01*
X126200934Y-52651327D01*
X126350953Y-52720780D01*
X126439853Y-52448523D01*
X126382902Y-52415186D01*
X126287056Y-52373514D01*
X126149539Y-52338787D01*
X125970350Y-52323508D01*
X125819637Y-52337746D01*
X125678647Y-52380459D01*
X125551548Y-52451649D01*
X125442506Y-52551314D01*
X125352912Y-52678761D01*
X125284153Y-52833294D01*
X125240398Y-53014219D01*
X125225812Y-53220842D01*
X125047019Y-53220842D01*
X125028566Y-53147222D01*
X124974739Y-53029846D01*
X124902161Y-52930528D01*
X124812566Y-52850657D01*
X124707692Y-52791622D01*
X124589275Y-52755159D01*
X124459050Y-52743005D01*
X124330562Y-52755159D01*
X124211797Y-52791622D01*
X124105881Y-52850657D01*
X124015939Y-52930528D01*
X123943013Y-53029846D01*
X123888145Y-53147222D01*
X123853766Y-53280225D01*
X123842306Y-53426423D01*
X123674085Y-53426423D01*
X123663117Y-53225009D01*
X123649227Y-53014219D01*
X123632558Y-52801345D01*
X123614153Y-52584652D01*
X123595053Y-52362402D01*
X123311684Y-52362402D01*
X123261678Y-52509642D01*
X123200559Y-52699944D01*
X123131106Y-52911081D01*
X123061653Y-53123608D01*
X122997756Y-52923583D01*
X122931081Y-52709667D01*
X122868573Y-52512420D01*
X122819956Y-52362402D01*
X122536587Y-52362402D01*
X122518182Y-52550620D01*
X122501861Y-52754117D01*
X122487623Y-52968727D01*
X122475469Y-53190283D01*
X122464704Y-53416005D01*
X122454633Y-53643117D01*
X122445257Y-53866756D01*
X122436575Y-54082061D01*
X122026415Y-54082061D01*
X121405042Y-53150000D01*
X122436343Y-51603047D01*
X122436575Y-51603047D01*
X141683425Y-51603047D01*
X141683657Y-51603047D01*
X142714958Y-53150000D01*
G37*
%TO.C,kibuzzard-65733972*%
G36*
X156374868Y-76608612D02*
G01*
X156465794Y-76757909D01*
X156480386Y-76970067D01*
X156317059Y-77027877D01*
X156195263Y-77048645D01*
X156015658Y-76972312D01*
X155951674Y-76798320D01*
X156038109Y-76631063D01*
X156204244Y-76543505D01*
X156374868Y-76608612D01*
G37*
G36*
X156991139Y-77182225D02*
G01*
X157086554Y-77243966D01*
X157142681Y-77419080D01*
X157030428Y-77627872D01*
X156832862Y-77733389D01*
X156633051Y-77661548D01*
X156544371Y-77505515D01*
X156525287Y-77293356D01*
X156723976Y-77213657D01*
X156875518Y-77174368D01*
X156991139Y-77182225D01*
G37*
G36*
X155657571Y-78089793D02*
G01*
X155797887Y-78204852D01*
X155912106Y-78346572D01*
X155971879Y-78488853D01*
X155969354Y-78622715D01*
X155896669Y-78739178D01*
X155777963Y-78814106D01*
X155646345Y-78814387D01*
X155507433Y-78751245D01*
X155366834Y-78635905D01*
X155252898Y-78494466D01*
X155193965Y-78353027D01*
X155197333Y-78220006D01*
X155270297Y-78103825D01*
X155388724Y-78028615D01*
X155519499Y-78027492D01*
X155657571Y-78089793D01*
G37*
G36*
X158464837Y-77376424D02*
G01*
X158102352Y-77738909D01*
X157617418Y-78223843D01*
X156503866Y-79337394D01*
X155567675Y-80273586D01*
X154898646Y-80942615D01*
X154536161Y-81305099D01*
X152628013Y-80923469D01*
X152342472Y-79495765D01*
X153451795Y-79495765D01*
X153680791Y-79724761D01*
X153972650Y-79432903D01*
X154361046Y-79821299D01*
X154469370Y-79920643D01*
X154574327Y-79998659D01*
X154780873Y-80081726D01*
X154988542Y-80055908D01*
X155093779Y-79997816D01*
X155200700Y-79906611D01*
X155324179Y-79753947D01*
X155429697Y-79538421D01*
X155171514Y-79352080D01*
X155091814Y-79514848D01*
X155009869Y-79616998D01*
X154848225Y-79686595D01*
X154673110Y-79581077D01*
X154019797Y-78927764D01*
X153833456Y-79114104D01*
X153451795Y-79495765D01*
X152342472Y-79495765D01*
X152246383Y-79015321D01*
X152458541Y-78803162D01*
X153277803Y-78803162D01*
X153357502Y-78983890D01*
X153535985Y-79061344D01*
X153705487Y-78986135D01*
X153781819Y-78815510D01*
X153705487Y-78635905D01*
X153523637Y-78557328D01*
X153353012Y-78633660D01*
X153277803Y-78803162D01*
X152458541Y-78803162D01*
X152608867Y-78652836D01*
X152888471Y-78373232D01*
X154823530Y-78373232D01*
X154844857Y-78512426D01*
X154895372Y-78651620D01*
X154975071Y-78786886D01*
X155083956Y-78914293D01*
X155212767Y-79025143D01*
X155347752Y-79106246D01*
X155486385Y-79157883D01*
X155626140Y-79180332D01*
X155764211Y-79173597D01*
X155897792Y-79137676D01*
X156024358Y-79071728D01*
X156141382Y-78974910D01*
X156238201Y-78857885D01*
X156304149Y-78731320D01*
X156339789Y-78598019D01*
X156345682Y-78460790D01*
X156322391Y-78321877D01*
X156270473Y-78183525D01*
X156189370Y-78048540D01*
X156078520Y-77919729D01*
X155951393Y-77810563D01*
X155816970Y-77730022D01*
X155678618Y-77678665D01*
X155539705Y-77657057D01*
X155402756Y-77664915D01*
X155270297Y-77701958D01*
X155145135Y-77768187D01*
X155030075Y-77863603D01*
X154936064Y-77977259D01*
X154869553Y-78102702D01*
X154831668Y-78236003D01*
X154823530Y-78373232D01*
X152888471Y-78373232D01*
X154381438Y-76880265D01*
X155600321Y-76880265D01*
X155656448Y-77086811D01*
X155773191Y-77250700D01*
X155970757Y-77376424D01*
X156096480Y-77398874D01*
X156249145Y-77385404D01*
X156234833Y-77554065D01*
X156259248Y-77705326D01*
X156318462Y-77838626D01*
X156408545Y-77953406D01*
X156600497Y-78078007D01*
X156814901Y-78101580D01*
X157037163Y-78027492D01*
X157147732Y-77955650D01*
X157254934Y-77861358D01*
X157369994Y-77728338D01*
X157445764Y-77598686D01*
X157504136Y-77358463D01*
X157462602Y-77150795D01*
X157351472Y-76988028D01*
X157237253Y-76900190D01*
X157105638Y-76847712D01*
X156949886Y-76835083D01*
X156763264Y-76866794D01*
X156780383Y-76708798D01*
X156755407Y-76562588D01*
X156696755Y-76433216D01*
X156612845Y-76325734D01*
X156434083Y-76205903D01*
X156230062Y-76178682D01*
X156017623Y-76242947D01*
X155813602Y-76397576D01*
X155707523Y-76522738D01*
X155640732Y-76646778D01*
X155600321Y-76880265D01*
X154381438Y-76880265D01*
X155812573Y-75449130D01*
X156175058Y-75086645D01*
X158464837Y-77376424D01*
G37*
%TO.C,kibuzzard-65733C45*%
G36*
X178432439Y-79138918D02*
G01*
X178099064Y-79138918D01*
X178170502Y-79003187D01*
X178255036Y-78866265D01*
X178344333Y-78736487D01*
X178432439Y-78619806D01*
X178432439Y-79138918D01*
G37*
G36*
X181368829Y-78990090D02*
G01*
X180535745Y-80239717D01*
X180023114Y-80239717D01*
X179258733Y-80239717D01*
X178725333Y-80239717D01*
X177818077Y-80239717D01*
X177305447Y-80239717D01*
X177305447Y-79379424D01*
X177818077Y-79379424D01*
X178432439Y-79379424D01*
X178432439Y-79727087D01*
X178725333Y-79727087D01*
X178725333Y-79379424D01*
X178884877Y-79379424D01*
X178884877Y-79138918D01*
X178725333Y-79138918D01*
X178725333Y-78253093D01*
X179061089Y-78253093D01*
X179061089Y-78495981D01*
X179680214Y-78495981D01*
X179614135Y-78613555D01*
X179544483Y-78751965D01*
X179475725Y-78905258D01*
X179412324Y-79067481D01*
X179356067Y-79235061D01*
X179308739Y-79404428D01*
X179274807Y-79570222D01*
X179258733Y-79727087D01*
X179556389Y-79727087D01*
X179578118Y-79536289D01*
X179619493Y-79344896D01*
X179674857Y-79158861D01*
X179738555Y-78984137D01*
X179808504Y-78823998D01*
X179882621Y-78681718D01*
X179955844Y-78563251D01*
X180023114Y-78474549D01*
X180023114Y-78253093D01*
X179061089Y-78253093D01*
X178725333Y-78253093D01*
X178463396Y-78253093D01*
X178368146Y-78354594D01*
X178272896Y-78468596D01*
X178180027Y-78589742D01*
X178091921Y-78712674D01*
X178009768Y-78835011D01*
X177934758Y-78954371D01*
X177869869Y-79065992D01*
X177818077Y-79165112D01*
X177818077Y-79379424D01*
X177305447Y-79379424D01*
X177305447Y-77740463D01*
X177818077Y-77740463D01*
X180023114Y-77740463D01*
X180535745Y-77740463D01*
X181368829Y-78990090D01*
G37*
D14*
%TO.C,R5*%
X131529969Y-69632010D02*
X131529969Y-69296768D01*
X132289969Y-69632010D02*
X132289969Y-69296768D01*
%TO.C,R24*%
X170212577Y-88125727D02*
X169877335Y-88125727D01*
X170212577Y-87365727D02*
X169877335Y-87365727D01*
%TO.C,JP3*%
X145514347Y-78762330D02*
X147494246Y-76782431D01*
X146928560Y-80176543D02*
X145514347Y-78762330D01*
X147494246Y-76782431D02*
X148908459Y-78196644D01*
X148908459Y-78196644D02*
X146928560Y-80176543D01*
%TO.C,R21*%
X162753744Y-83806914D02*
X162990796Y-84043966D01*
X162216342Y-84344316D02*
X162453394Y-84581368D01*
%TO.C,R19*%
X140781910Y-68585276D02*
X140781910Y-68920518D01*
X140021910Y-68585276D02*
X140021910Y-68920518D01*
%TO.C,kibuzzard-65733C3A*%
G36*
X179640924Y-75960297D02*
G01*
X179696883Y-76085313D01*
X179665927Y-76212709D01*
X179561152Y-76332963D01*
X179443875Y-76277003D01*
X179368271Y-76223425D01*
X179313502Y-76087694D01*
X179371843Y-75961488D01*
X179506383Y-75918625D01*
X179640924Y-75960297D01*
G37*
G36*
X179561152Y-76591328D02*
G01*
X179662355Y-76650859D01*
X179719505Y-76716344D01*
X179737364Y-76799688D01*
X179674261Y-76922322D01*
X179504002Y-76973519D01*
X179343268Y-76924703D01*
X179275402Y-76780638D01*
X179311121Y-76650859D01*
X179413514Y-76528225D01*
X179561152Y-76591328D01*
G37*
G36*
X181381529Y-76446072D02*
G01*
X180526220Y-77729037D01*
X180013589Y-77729037D01*
X179499239Y-77729037D01*
X178227652Y-77729037D01*
X177818077Y-77729037D01*
X177305447Y-77729037D01*
X177305447Y-77135444D01*
X177818077Y-77135444D01*
X177891896Y-77161638D01*
X177995480Y-77187831D01*
X178112161Y-77208072D01*
X178227652Y-77216406D01*
X178365169Y-77207774D01*
X178482446Y-77181878D01*
X178580077Y-77140206D01*
X178658658Y-77084247D01*
X178761052Y-76935419D01*
X178782151Y-76816356D01*
X179001558Y-76816356D01*
X179037277Y-76984234D01*
X179138480Y-77110441D01*
X179295643Y-77189022D01*
X179392381Y-77209560D01*
X179499239Y-77216406D01*
X179630803Y-77206881D01*
X179739746Y-77178306D01*
X179898099Y-77081866D01*
X179986205Y-76949706D01*
X180013589Y-76804450D01*
X179999600Y-76697294D01*
X179957630Y-76599663D01*
X179881728Y-76510366D01*
X179765939Y-76428213D01*
X179858808Y-76353501D01*
X179923102Y-76262716D01*
X179960607Y-76163001D01*
X179973108Y-76061500D01*
X179941854Y-75903147D01*
X179848093Y-75780513D01*
X179701348Y-75701931D01*
X179511146Y-75675738D01*
X179388511Y-75685858D01*
X179287308Y-75716219D01*
X179142052Y-75818613D01*
X179062280Y-75957916D01*
X179037277Y-76106744D01*
X179075377Y-76278194D01*
X179130146Y-76356775D01*
X179218252Y-76430594D01*
X179121216Y-76512449D01*
X179053946Y-76605616D01*
X179014655Y-76707712D01*
X179001558Y-76816356D01*
X178782151Y-76816356D01*
X178794389Y-76747300D01*
X178778614Y-76627642D01*
X178731286Y-76525844D01*
X178655384Y-76444286D01*
X178553883Y-76385350D01*
X178687233Y-76261525D01*
X178737239Y-76092456D01*
X178708664Y-75928150D01*
X178620558Y-75795991D01*
X178469349Y-75709075D01*
X178369634Y-75685858D01*
X178253846Y-75678119D01*
X178127342Y-75689132D01*
X178014530Y-75722172D01*
X177844271Y-75809088D01*
X177949046Y-76023400D01*
X178090730Y-75955534D01*
X178256227Y-75928150D01*
X178390768Y-75974584D01*
X178439583Y-76101981D01*
X178416961Y-76192469D01*
X178358621Y-76249619D01*
X178277658Y-76280575D01*
X178187171Y-76290100D01*
X178077633Y-76290100D01*
X178077633Y-76532988D01*
X178168121Y-76532988D01*
X178298494Y-76544596D01*
X178403864Y-76579422D01*
X178473516Y-76643418D01*
X178496733Y-76742538D01*
X178436011Y-76902081D01*
X178352965Y-76950302D01*
X178225271Y-76966375D01*
X178112459Y-76959827D01*
X178016911Y-76940181D01*
X177875227Y-76890175D01*
X177818077Y-77135444D01*
X177305447Y-77135444D01*
X177305447Y-75163107D01*
X177818077Y-75163107D01*
X180013589Y-75163107D01*
X180526220Y-75163107D01*
X181381529Y-76446072D01*
G37*
D12*
%TO.C,J5*%
X133430780Y-91423660D02*
X134182620Y-91423660D01*
X133430780Y-93074660D02*
X133430780Y-91423660D01*
X134931920Y-95675620D02*
X137929120Y-95675620D01*
X138678420Y-91423660D02*
X139430260Y-91423660D01*
X139430260Y-91423660D02*
X139430260Y-93074660D01*
D15*
X134070860Y-90775960D02*
G75*
G03*
X134070860Y-90775960I-139700J0D01*
G01*
D14*
%TO.C,C8*%
X127816252Y-57980000D02*
X127293748Y-57980000D01*
X127816252Y-56510000D02*
X127293748Y-56510000D01*
%TO.C,kibuzzard-65733C12*%
G36*
X178432440Y-68962846D02*
G01*
X178099065Y-68962846D01*
X178170502Y-68827115D01*
X178255037Y-68690193D01*
X178344333Y-68560415D01*
X178432440Y-68443734D01*
X178432440Y-68962846D01*
G37*
G36*
X181383117Y-68814018D02*
G01*
X180550032Y-70063645D01*
X180037402Y-70063645D01*
X178725333Y-70063645D01*
X177818077Y-70063645D01*
X177305447Y-70063645D01*
X177305447Y-69203352D01*
X177818077Y-69203352D01*
X178432440Y-69203352D01*
X178432440Y-69551015D01*
X178725333Y-69551015D01*
X178725333Y-69203352D01*
X178884877Y-69203352D01*
X178884877Y-68962846D01*
X178725333Y-68962846D01*
X178725333Y-68384202D01*
X179058708Y-68384202D01*
X179153958Y-68627090D01*
X179299215Y-68568749D01*
X179451615Y-68484215D01*
X179451615Y-69308127D01*
X179142052Y-69308127D01*
X179142052Y-69551015D01*
X180037402Y-69551015D01*
X180037402Y-69308127D01*
X179744508Y-69308127D01*
X179744508Y-68077021D01*
X179544483Y-68077021D01*
X179442090Y-68169890D01*
X179315883Y-68255615D01*
X179182533Y-68329434D01*
X179058708Y-68384202D01*
X178725333Y-68384202D01*
X178725333Y-68077021D01*
X178463396Y-68077021D01*
X178368146Y-68178522D01*
X178272896Y-68292524D01*
X178180027Y-68413670D01*
X178091921Y-68536602D01*
X178009768Y-68658939D01*
X177934758Y-68778299D01*
X177869869Y-68889920D01*
X177818077Y-68989040D01*
X177818077Y-69203352D01*
X177305447Y-69203352D01*
X177305447Y-67564391D01*
X177818077Y-67564391D01*
X180037402Y-67564391D01*
X180550032Y-67564391D01*
X181383117Y-68814018D01*
G37*
D11*
%TO.C,J7*%
X173134000Y-95538000D02*
X173134000Y-95538000D01*
X173134000Y-95338000D02*
X173134000Y-95338000D01*
D16*
X172534000Y-93538000D02*
X172534000Y-88738000D01*
X173734000Y-93538000D02*
X175934000Y-93538000D01*
X177334000Y-93538000D02*
X177334000Y-88738000D01*
X173734000Y-88738000D02*
X175934000Y-88738000D01*
D11*
X173134000Y-95338000D02*
G75*
G03*
X173134000Y-95538000I0J-100000D01*
G01*
X173134000Y-95538000D02*
G75*
G03*
X173134000Y-95338000I0J100000D01*
G01*
D14*
%TO.C,C5*%
X121298235Y-62003600D02*
X121066565Y-62003600D01*
X121298235Y-61283600D02*
X121066565Y-61283600D01*
%TO.C,C11*%
X150217330Y-59426361D02*
X149694826Y-59426361D01*
X150217330Y-57956361D02*
X149694826Y-57956361D01*
%TO.C,R9*%
X130389483Y-69634727D02*
X130389483Y-69299485D01*
X131149483Y-69634727D02*
X131149483Y-69299485D01*
%TO.C,U1*%
X158640000Y-51770000D02*
X158640000Y-58520000D01*
X158640000Y-51770000D02*
X176640000Y-51770000D01*
X158640000Y-76520000D02*
X158640000Y-77270000D01*
X158640000Y-77270000D02*
X159640000Y-77270000D01*
X176640000Y-51770000D02*
X176640000Y-58520000D01*
X176640000Y-57710000D02*
X158640000Y-57710000D01*
X176640000Y-76520000D02*
X176640000Y-77270000D01*
X176640000Y-77270000D02*
X175640000Y-77270000D01*
%TO.C,D2*%
X144706027Y-83405740D02*
X146063672Y-84763385D01*
X146063672Y-84763385D02*
X147962253Y-82864804D01*
X146604608Y-81507159D02*
X144706027Y-83405740D01*
%TO.C,R10*%
X136092512Y-69628952D02*
X136092512Y-69293710D01*
X136852512Y-69628952D02*
X136852512Y-69293710D01*
%TO.C,R23*%
X158765040Y-87343495D02*
X159100282Y-87343495D01*
X158765040Y-88103495D02*
X159100282Y-88103495D01*
%TO.C,R11*%
X139049287Y-75046615D02*
X139049287Y-75381857D01*
X138289287Y-75046615D02*
X138289287Y-75381857D01*
%TO.C,R3*%
X141303006Y-75047306D02*
X141303006Y-75382548D01*
X140543006Y-75047306D02*
X140543006Y-75382548D01*
%TO.C,R27*%
X175465415Y-80015264D02*
X175800657Y-80015264D01*
X175465415Y-80775264D02*
X175800657Y-80775264D01*
%TO.C,R26*%
X175464743Y-81223353D02*
X175799985Y-81223353D01*
X175464743Y-81983353D02*
X175799985Y-81983353D01*
%TO.C,kibuzzard-65733C02*%
G36*
X178432440Y-66435497D02*
G01*
X178099065Y-66435497D01*
X178170502Y-66299766D01*
X178255036Y-66162844D01*
X178344333Y-66033066D01*
X178432440Y-65916384D01*
X178432440Y-66435497D01*
G37*
G36*
X181401373Y-66270000D02*
G01*
X180557176Y-67536296D01*
X180044546Y-67536296D01*
X178725333Y-67536296D01*
X177818077Y-67536296D01*
X177305447Y-67536296D01*
X177305447Y-66676003D01*
X177818077Y-66676003D01*
X178432440Y-66676003D01*
X178432440Y-67023666D01*
X178725333Y-67023666D01*
X178725333Y-66676003D01*
X178884877Y-66676003D01*
X178884877Y-66435497D01*
X178725333Y-66435497D01*
X178725333Y-65711597D01*
X179046802Y-65711597D01*
X179192058Y-65916384D01*
X179342077Y-65804466D01*
X179487333Y-65771128D01*
X179625446Y-65819944D01*
X179680215Y-65959247D01*
X179636161Y-66085453D01*
X179524243Y-66214041D01*
X179453996Y-66282204D01*
X179378986Y-66353344D01*
X179303977Y-66428948D01*
X179233730Y-66510506D01*
X179171818Y-66598910D01*
X179121811Y-66695053D01*
X179088772Y-66799828D01*
X179077758Y-66914128D01*
X179076568Y-66964134D01*
X179082521Y-67023666D01*
X180044546Y-67023666D01*
X180044546Y-66780778D01*
X179411133Y-66780778D01*
X179436136Y-66702197D01*
X179496858Y-66617663D01*
X179573058Y-66536700D01*
X179644496Y-66468834D01*
X179765940Y-66349772D01*
X179873096Y-66221184D01*
X179949296Y-66084263D01*
X179977871Y-65937816D01*
X179939771Y-65753269D01*
X179837377Y-65621109D01*
X179689740Y-65542528D01*
X179515908Y-65516334D01*
X179391786Y-65528241D01*
X179267068Y-65563959D01*
X179149493Y-65624681D01*
X179046802Y-65711597D01*
X178725333Y-65711597D01*
X178725333Y-65549672D01*
X178463396Y-65549672D01*
X178368146Y-65651173D01*
X178272896Y-65765175D01*
X178180027Y-65886321D01*
X178091921Y-66009253D01*
X178009768Y-66131590D01*
X177934758Y-66250950D01*
X177869869Y-66362571D01*
X177818077Y-66461691D01*
X177818077Y-66676003D01*
X177305447Y-66676003D01*
X177305447Y-65003704D01*
X177818077Y-65003704D01*
X180044546Y-65003704D01*
X180557176Y-65003704D01*
X181401373Y-66270000D01*
G37*
%TO.C,C1*%
X121114225Y-86337162D02*
X120882555Y-86337162D01*
X121114225Y-85617162D02*
X120882555Y-85617162D01*
%TO.C,C20*%
X158855343Y-84900592D02*
X158648490Y-84693739D01*
X159576592Y-84179343D02*
X159369739Y-83972490D01*
%TO.C,C3*%
X120887355Y-86640768D02*
X121119025Y-86640768D01*
X120887355Y-87360768D02*
X121119025Y-87360768D01*
D11*
%TO.C,J6*%
X151074197Y-95552726D02*
X151074197Y-95552726D01*
X151074197Y-95352726D02*
X151074197Y-95352726D01*
D16*
X150474197Y-93552726D02*
X150474197Y-88752726D01*
X151674197Y-93552726D02*
X153874197Y-93552726D01*
X155274197Y-93552726D02*
X155274197Y-88752726D01*
X151674197Y-88752726D02*
X153874197Y-88752726D01*
D11*
X151074197Y-95352726D02*
G75*
G03*
X151074197Y-95552726I0J-100000D01*
G01*
X151074197Y-95552726D02*
G75*
G03*
X151074197Y-95352726I0J100000D01*
G01*
D17*
%TO.C,J2*%
X115666213Y-89382054D02*
X116936213Y-89382054D01*
X116936213Y-89382054D02*
X117571213Y-88747054D01*
X115031213Y-88747054D02*
X115666213Y-89382054D01*
X115031213Y-88747054D02*
X115031213Y-87477054D01*
X115031213Y-87477054D02*
X115666213Y-86842054D01*
X117571213Y-87477054D02*
X117571213Y-88747054D01*
X115666213Y-86842054D02*
X115031213Y-86207054D01*
X116936213Y-86842054D02*
X117571213Y-87477054D01*
X115031213Y-86207054D02*
X115031213Y-84937054D01*
X117571213Y-86207054D02*
X116936213Y-86842054D01*
X115031213Y-84937054D02*
X115666213Y-84302054D01*
X117571213Y-84937054D02*
X117571213Y-86207054D01*
X115666213Y-84302054D02*
X115031213Y-83667054D01*
X116936213Y-84302054D02*
X117571213Y-84937054D01*
X115031213Y-83667054D02*
X115031213Y-82397054D01*
X117571213Y-83667054D02*
X116936213Y-84302054D01*
X115031213Y-82397054D02*
X115666213Y-81762054D01*
X117571213Y-82397054D02*
X117571213Y-83667054D01*
X115666213Y-81762054D02*
X116936213Y-81762054D01*
X116936213Y-81762054D02*
X117571213Y-82397054D01*
D14*
%TO.C,R13*%
X136775397Y-75038807D02*
X136775397Y-75374049D01*
X136015397Y-75038807D02*
X136015397Y-75374049D01*
%TO.C,U7*%
X145406000Y-65374001D02*
X143606000Y-65374001D01*
X143606000Y-68594001D02*
X146556000Y-68594001D01*
D12*
%TO.C,J3*%
X141333033Y-91333755D02*
X142084873Y-91333755D01*
X141333033Y-92984755D02*
X141333033Y-91333755D01*
X142834173Y-95585715D02*
X145831373Y-95585715D01*
X146580673Y-91333755D02*
X147332513Y-91333755D01*
X147332513Y-91333755D02*
X147332513Y-92984755D01*
D15*
X141973113Y-90686055D02*
G75*
G03*
X141973113Y-90686055I-139700J0D01*
G01*
D11*
%TO.C,J11*%
X161200000Y-88800000D02*
G75*
G03*
X161200000Y-88800000I-100000J0D01*
G01*
D17*
%TO.C,J10*%
X181880000Y-64870000D02*
X183150000Y-64870000D01*
X183150000Y-64870000D02*
X183785000Y-64235000D01*
X181245000Y-64235000D02*
X181880000Y-64870000D01*
X181245000Y-64235000D02*
X181245000Y-62965000D01*
X181245000Y-62965000D02*
X181880000Y-62330000D01*
X183785000Y-62965000D02*
X183785000Y-64235000D01*
X181880000Y-62330000D02*
X181245000Y-61695000D01*
X183150000Y-62330000D02*
X183785000Y-62965000D01*
X181245000Y-61695000D02*
X181245000Y-60425000D01*
X183785000Y-61695000D02*
X183150000Y-62330000D01*
X181245000Y-60425000D02*
X181880000Y-59790000D01*
X183785000Y-60425000D02*
X183785000Y-61695000D01*
X181880000Y-59790000D02*
X183150000Y-59790000D01*
X183150000Y-59790000D02*
X183785000Y-60425000D01*
D14*
%TO.C,R29*%
X145670029Y-88607791D02*
X146005271Y-88607791D01*
X145670029Y-89367791D02*
X146005271Y-89367791D01*
%TO.C,R31*%
X125502348Y-73866958D02*
X125837590Y-73866958D01*
X125502348Y-74626958D02*
X125837590Y-74626958D01*
D13*
%TO.C,J13*%
X123537570Y-69626563D02*
X123537570Y-70606563D01*
X122657570Y-69626563D02*
X123537570Y-69626563D01*
X122417570Y-72526563D02*
X117657570Y-72526563D01*
X116537570Y-69626563D02*
X117417570Y-69626563D01*
X116537570Y-69626563D02*
X116537570Y-70606563D01*
D11*
X122137570Y-67826563D02*
G75*
G03*
X122137570Y-67826563I-100000J0D01*
G01*
D14*
%TO.C,R30*%
X157103042Y-60784348D02*
X157103042Y-61119590D01*
X156343042Y-60784348D02*
X156343042Y-61119590D01*
%TO.C,C10*%
X142595605Y-64281311D02*
X142595605Y-62395748D01*
X142595605Y-64281311D02*
X141531168Y-65345748D01*
X142595605Y-57890185D02*
X142595605Y-59775748D01*
X142595605Y-57890185D02*
X141531168Y-56825748D01*
X141531168Y-65345748D02*
X134075605Y-65345748D01*
X141531168Y-56825748D02*
X134075605Y-56825748D01*
X134075605Y-65345748D02*
X134075605Y-62395748D01*
X134075605Y-56825748D02*
X134075605Y-59775748D01*
%TO.C,JP2*%
X147445379Y-80798573D02*
X149425278Y-78818674D01*
X148859592Y-82212786D02*
X147445379Y-80798573D01*
X149425278Y-78818674D02*
X150839491Y-80232887D01*
X150839491Y-80232887D02*
X148859592Y-82212786D01*
%TO.C,C19*%
X161924556Y-82085379D02*
X161717703Y-81878526D01*
X162645805Y-81364130D02*
X162438952Y-81157277D01*
%TO.C,kibuzzard-6573395A*%
G36*
X154293675Y-73357927D02*
G01*
X153931190Y-73720412D01*
X153396865Y-74254738D01*
X152231677Y-75419926D01*
X151151801Y-76499802D01*
X150765650Y-76885953D01*
X150403166Y-77248437D01*
X148590433Y-76885890D01*
X148247643Y-75171940D01*
X149101029Y-75171940D01*
X149401867Y-75275213D01*
X149471464Y-75077647D01*
X149601678Y-74895797D01*
X149772303Y-74812729D01*
X149938438Y-74886817D01*
X150002422Y-74993457D01*
X150001299Y-75102343D01*
X149954153Y-75207861D01*
X149877821Y-75302154D01*
X149774548Y-75405427D01*
X150003545Y-75634423D01*
X150088857Y-75549111D01*
X150222719Y-75437137D01*
X150354897Y-75370628D01*
X150480902Y-75365296D01*
X150596241Y-75436857D01*
X150689412Y-75644526D01*
X150656578Y-75768285D01*
X150551340Y-75903831D01*
X150438807Y-76004016D01*
X150330202Y-76075578D01*
X150149474Y-76162013D01*
X150326834Y-76447136D01*
X150421126Y-76402235D01*
X150543483Y-76329270D01*
X150672574Y-76238345D01*
X150789317Y-76137317D01*
X150910832Y-75999526D01*
X150996985Y-75864542D01*
X151049744Y-75733206D01*
X151071072Y-75606359D01*
X151027294Y-75369506D01*
X150881365Y-75160715D01*
X150753677Y-75062773D01*
X150613080Y-75011417D01*
X150464625Y-75006085D01*
X150313363Y-75046216D01*
X150322344Y-74803749D01*
X150210090Y-74597204D01*
X150028240Y-74469235D01*
X149820571Y-74427701D01*
X149596066Y-74488318D01*
X149480165Y-74560440D01*
X149363701Y-74662310D01*
X149254816Y-74791962D01*
X149179606Y-74929472D01*
X149101029Y-75171940D01*
X148247643Y-75171940D01*
X148227886Y-75073157D01*
X148590370Y-74710673D01*
X148923856Y-74377187D01*
X150380715Y-74377187D01*
X150584735Y-74485652D01*
X150783705Y-74586540D01*
X150977622Y-74679849D01*
X151166488Y-74765583D01*
X151406959Y-74867608D01*
X151631466Y-74955166D01*
X151840007Y-75028256D01*
X152071248Y-74797014D01*
X151999282Y-74587350D01*
X151915092Y-74359476D01*
X151818678Y-74113392D01*
X151737365Y-73920106D01*
X151647213Y-73723031D01*
X151548219Y-73522169D01*
X151440385Y-73317517D01*
X151159752Y-73598150D01*
X151224579Y-73709561D01*
X151288844Y-73832759D01*
X151352548Y-73962692D01*
X151415690Y-74094308D01*
X151476869Y-74225645D01*
X151534678Y-74354737D01*
X151637951Y-74588223D01*
X151407832Y-74481582D01*
X151282109Y-74420405D01*
X151154139Y-74355859D01*
X151026172Y-74289068D01*
X150900448Y-74221155D01*
X150780618Y-74153522D01*
X150670329Y-74087574D01*
X150380715Y-74377187D01*
X148923856Y-74377187D01*
X150374168Y-72926876D01*
X151346093Y-72926876D01*
X151646931Y-73030149D01*
X151716528Y-72832582D01*
X151846742Y-72650733D01*
X152017367Y-72567665D01*
X152183502Y-72641753D01*
X152247486Y-72748393D01*
X152246363Y-72857279D01*
X152199217Y-72962797D01*
X152122885Y-73057090D01*
X152019612Y-73160363D01*
X152248609Y-73389359D01*
X152333921Y-73304047D01*
X152467783Y-73192073D01*
X152599961Y-73125564D01*
X152725966Y-73120232D01*
X152841305Y-73191793D01*
X152934476Y-73399461D01*
X152901642Y-73523221D01*
X152796404Y-73658767D01*
X152683871Y-73758952D01*
X152575266Y-73830514D01*
X152394538Y-73916949D01*
X152571898Y-74202072D01*
X152666190Y-74157171D01*
X152788547Y-74084206D01*
X152917638Y-73993281D01*
X153034381Y-73892253D01*
X153155896Y-73754462D01*
X153242049Y-73619478D01*
X153294808Y-73488142D01*
X153316136Y-73361295D01*
X153272358Y-73124442D01*
X153126429Y-72915651D01*
X152998741Y-72817709D01*
X152858144Y-72766353D01*
X152709689Y-72761021D01*
X152558427Y-72801152D01*
X152567408Y-72558685D01*
X152455154Y-72352139D01*
X152273304Y-72224171D01*
X152065635Y-72182637D01*
X151841130Y-72243254D01*
X151725229Y-72315376D01*
X151608765Y-72417246D01*
X151499880Y-72546898D01*
X151424670Y-72684408D01*
X151346093Y-72926876D01*
X150374168Y-72926876D01*
X151755911Y-71545133D01*
X152118396Y-71182648D01*
X154293675Y-73357927D01*
G37*
%TO.C,R6*%
X140199775Y-75056823D02*
X140199775Y-75392065D01*
X139439775Y-75056823D02*
X139439775Y-75392065D01*
%TO.C,R32*%
X144494584Y-87802886D02*
X144159342Y-87802886D01*
X144494584Y-87042886D02*
X144159342Y-87042886D01*
%TO.C,C16*%
X139508748Y-65881001D02*
X140031252Y-65881001D01*
X139508748Y-67351001D02*
X140031252Y-67351001D01*
%TO.C,D1*%
X146683453Y-85383166D02*
X148041098Y-86740811D01*
X148041098Y-86740811D02*
X149939679Y-84842230D01*
X148582034Y-83484585D02*
X146683453Y-85383166D01*
%TO.C,R12*%
X133812940Y-69629530D02*
X133812940Y-69294288D01*
X134572940Y-69629530D02*
X134572940Y-69294288D01*
%TO.C,C7*%
X125225798Y-64719571D02*
X125061983Y-64883386D01*
X124716681Y-64210454D02*
X124552866Y-64374269D01*
%TO.C,kibuzzard-65733965*%
G36*
X155478610Y-73467290D02*
G01*
X155569536Y-73616587D01*
X155584128Y-73828745D01*
X155420801Y-73886555D01*
X155299005Y-73907323D01*
X155119400Y-73830990D01*
X155055416Y-73656998D01*
X155141851Y-73489741D01*
X155307986Y-73402183D01*
X155478610Y-73467290D01*
G37*
G36*
X156094881Y-74040903D02*
G01*
X156190296Y-74102644D01*
X156246423Y-74277758D01*
X156134170Y-74486550D01*
X155936604Y-74592067D01*
X155736793Y-74520226D01*
X155648113Y-74364193D01*
X155629029Y-74152034D01*
X155827718Y-74072335D01*
X155979260Y-74033046D01*
X156094881Y-74040903D01*
G37*
G36*
X153638781Y-76071003D02*
G01*
X153779097Y-76186062D01*
X153893316Y-76327782D01*
X153953089Y-76470063D01*
X153950564Y-76603925D01*
X153877879Y-76720388D01*
X153759173Y-76795316D01*
X153627555Y-76795597D01*
X153488643Y-76732455D01*
X153348044Y-76617115D01*
X153234108Y-76475676D01*
X153175175Y-76334237D01*
X153178543Y-76201216D01*
X153251507Y-76085035D01*
X153369934Y-76009825D01*
X153500709Y-76008702D01*
X153638781Y-76071003D01*
G37*
G36*
X157568579Y-74235102D02*
G01*
X157206094Y-74597587D01*
X156721160Y-75082521D01*
X155522296Y-76281385D01*
X154485076Y-77318604D01*
X153548885Y-78254796D01*
X152879856Y-78923825D01*
X152517371Y-79286309D01*
X150609223Y-78904679D01*
X150323682Y-77476975D01*
X151433005Y-77476975D01*
X151662001Y-77705971D01*
X151953860Y-77414113D01*
X152342256Y-77802509D01*
X152450580Y-77901853D01*
X152555537Y-77979869D01*
X152762083Y-78062936D01*
X152969752Y-78037118D01*
X153074989Y-77979026D01*
X153181910Y-77887821D01*
X153305389Y-77735157D01*
X153410907Y-77519631D01*
X153152724Y-77333290D01*
X153073024Y-77496058D01*
X152991079Y-77598208D01*
X152829435Y-77667805D01*
X152654320Y-77562287D01*
X152001007Y-76908974D01*
X151814666Y-77095314D01*
X151433005Y-77476975D01*
X150323682Y-77476975D01*
X150227593Y-76996531D01*
X150439751Y-76784372D01*
X151259013Y-76784372D01*
X151338712Y-76965100D01*
X151517195Y-77042554D01*
X151686697Y-76967345D01*
X151763029Y-76796720D01*
X151686697Y-76617115D01*
X151504847Y-76538538D01*
X151334222Y-76614870D01*
X151259013Y-76784372D01*
X150439751Y-76784372D01*
X150590077Y-76634046D01*
X150869681Y-76354442D01*
X152804740Y-76354442D01*
X152826067Y-76493636D01*
X152876582Y-76632830D01*
X152956281Y-76768096D01*
X153065166Y-76895503D01*
X153193977Y-77006353D01*
X153328962Y-77087456D01*
X153467595Y-77139093D01*
X153607350Y-77161542D01*
X153745421Y-77154807D01*
X153879002Y-77118886D01*
X154005568Y-77052938D01*
X154122592Y-76956120D01*
X154219411Y-76839095D01*
X154285359Y-76712530D01*
X154320999Y-76579229D01*
X154326892Y-76442000D01*
X154303601Y-76303087D01*
X154251683Y-76164735D01*
X154170580Y-76029750D01*
X154059730Y-75900939D01*
X153932603Y-75791773D01*
X153798180Y-75711232D01*
X153659828Y-75659875D01*
X153520915Y-75638267D01*
X153383966Y-75646125D01*
X153251507Y-75683168D01*
X153126345Y-75749397D01*
X153011285Y-75844813D01*
X152917274Y-75958469D01*
X152850763Y-76083912D01*
X152812878Y-76217213D01*
X152804740Y-76354442D01*
X150869681Y-76354442D01*
X152270601Y-74953522D01*
X153471523Y-74953522D01*
X153772361Y-75056795D01*
X153841959Y-74859230D01*
X153972172Y-74677379D01*
X154142798Y-74594312D01*
X154308932Y-74668399D01*
X154372916Y-74775039D01*
X154371794Y-74883925D01*
X154324647Y-74989443D01*
X154248315Y-75083736D01*
X154145042Y-75187009D01*
X154374039Y-75416006D01*
X154459351Y-75330693D01*
X154593214Y-75218721D01*
X154725392Y-75152211D01*
X154851396Y-75146879D01*
X154966736Y-75218441D01*
X155059906Y-75426108D01*
X155027072Y-75549867D01*
X154921835Y-75685414D01*
X154809301Y-75785599D01*
X154700696Y-75857160D01*
X154519969Y-75943596D01*
X154697328Y-76228719D01*
X154791621Y-76183818D01*
X154913978Y-76110853D01*
X155043068Y-76019928D01*
X155159812Y-75918901D01*
X155281326Y-75781109D01*
X155367480Y-75646125D01*
X155420238Y-75514788D01*
X155441567Y-75387943D01*
X155397789Y-75151089D01*
X155251859Y-74942297D01*
X155124171Y-74844356D01*
X154983575Y-74793001D01*
X154835120Y-74787668D01*
X154683857Y-74827799D01*
X154692838Y-74585333D01*
X154580585Y-74378786D01*
X154398734Y-74250817D01*
X154191066Y-74209284D01*
X153966560Y-74269900D01*
X153850659Y-74342023D01*
X153734195Y-74443893D01*
X153625311Y-74573545D01*
X153550101Y-74711055D01*
X153471523Y-74953522D01*
X152270601Y-74953522D01*
X153485180Y-73738943D01*
X154704063Y-73738943D01*
X154760190Y-73945489D01*
X154876933Y-74109378D01*
X155074499Y-74235102D01*
X155200222Y-74257552D01*
X155352887Y-74244082D01*
X155338575Y-74412743D01*
X155362990Y-74564004D01*
X155422204Y-74697304D01*
X155512287Y-74812084D01*
X155704239Y-74936685D01*
X155918643Y-74960258D01*
X156140905Y-74886170D01*
X156251474Y-74814328D01*
X156358676Y-74720036D01*
X156473736Y-74587016D01*
X156549506Y-74457364D01*
X156607878Y-74217141D01*
X156566344Y-74009473D01*
X156455214Y-73846706D01*
X156340995Y-73758868D01*
X156209380Y-73706390D01*
X156053628Y-73693761D01*
X155867006Y-73725472D01*
X155884125Y-73567476D01*
X155859149Y-73421266D01*
X155800497Y-73291894D01*
X155716587Y-73184412D01*
X155537825Y-73064581D01*
X155333804Y-73037360D01*
X155121365Y-73101625D01*
X154917344Y-73256254D01*
X154811265Y-73381416D01*
X154744474Y-73505456D01*
X154704063Y-73738943D01*
X153485180Y-73738943D01*
X154916315Y-72307808D01*
X155278800Y-71945323D01*
X157568579Y-74235102D01*
G37*
%TO.C,C12*%
X146796252Y-61450000D02*
X146273748Y-61450000D01*
X146796252Y-59980000D02*
X146273748Y-59980000D01*
%TO.C,U5*%
X127449938Y-87104093D02*
X127124938Y-87104093D01*
X124229938Y-86779093D02*
X124229938Y-87104093D01*
X127449938Y-86779093D02*
X127449938Y-87104093D01*
X124229938Y-84209093D02*
X124229938Y-83884093D01*
X127449938Y-84209093D02*
X127449938Y-83884093D01*
X124229938Y-83884093D02*
X124554938Y-83884093D01*
X127449938Y-83884093D02*
X127124938Y-83884093D01*
%TO.C,R28*%
X147979371Y-90309808D02*
X147644129Y-90309808D01*
X147979371Y-89549808D02*
X147644129Y-89549808D01*
%TO.C,C4*%
X125936252Y-82550000D02*
X125413748Y-82550000D01*
X125936252Y-81080000D02*
X125413748Y-81080000D01*
D17*
%TO.C,J1*%
X115749000Y-65024000D02*
X117019000Y-65024000D01*
X117019000Y-65024000D02*
X117654000Y-64389000D01*
X115114000Y-64389000D02*
X115749000Y-65024000D01*
X115114000Y-64389000D02*
X115114000Y-63119000D01*
X115114000Y-63119000D02*
X115749000Y-62484000D01*
X117654000Y-63119000D02*
X117654000Y-64389000D01*
X115749000Y-62484000D02*
X115114000Y-61849000D01*
X117019000Y-62484000D02*
X117654000Y-63119000D01*
X115114000Y-61849000D02*
X115114000Y-60579000D01*
X117654000Y-61849000D02*
X117019000Y-62484000D01*
X115114000Y-60579000D02*
X115749000Y-59944000D01*
X117654000Y-60579000D02*
X117654000Y-61849000D01*
X115749000Y-59944000D02*
X115114000Y-59309000D01*
X117019000Y-59944000D02*
X117654000Y-60579000D01*
X115114000Y-59309000D02*
X115114000Y-58039000D01*
X117654000Y-59309000D02*
X117019000Y-59944000D01*
X115114000Y-58039000D02*
X115749000Y-57404000D01*
X117654000Y-58039000D02*
X117654000Y-59309000D01*
X115749000Y-57404000D02*
X117019000Y-57404000D01*
X117019000Y-57404000D02*
X117654000Y-58039000D01*
D14*
%TO.C,R8*%
X135632962Y-75040854D02*
X135632962Y-75376096D01*
X134872962Y-75040854D02*
X134872962Y-75376096D01*
%TO.C,C15*%
X145033252Y-70263000D02*
X144510748Y-70263000D01*
X145033252Y-68793000D02*
X144510748Y-68793000D01*
%TO.C,kibuzzard-65733C20*%
G36*
X178432439Y-71508055D02*
G01*
X178099064Y-71508055D01*
X178170502Y-71372323D01*
X178255036Y-71235402D01*
X178344333Y-71105623D01*
X178432439Y-70988942D01*
X178432439Y-71508055D01*
G37*
G36*
X179646579Y-70871963D02*
G01*
X179724267Y-70971083D01*
X179759325Y-71072551D01*
X179780359Y-71200741D01*
X179787371Y-71355655D01*
X179780359Y-71511891D01*
X179759325Y-71640876D01*
X179724267Y-71742608D01*
X179646579Y-71841727D01*
X179542102Y-71874031D01*
X179539721Y-71874767D01*
X179434350Y-71841727D01*
X179356364Y-71742608D01*
X179320646Y-71640876D01*
X179299214Y-71511891D01*
X179292071Y-71355655D01*
X179293169Y-71331842D01*
X179408752Y-71331842D01*
X179444471Y-71442570D01*
X179542102Y-71489005D01*
X179636161Y-71442570D01*
X179673071Y-71331842D01*
X179636161Y-71219923D01*
X179542102Y-71172298D01*
X179444471Y-71219923D01*
X179408752Y-71331842D01*
X179293169Y-71331842D01*
X179299214Y-71200741D01*
X179320646Y-71072551D01*
X179356364Y-70971083D01*
X179434350Y-70871963D01*
X179539721Y-70838923D01*
X179646579Y-70871963D01*
G37*
G36*
X181418835Y-71358036D02*
G01*
X180564319Y-72639810D01*
X180051689Y-72639810D01*
X179539721Y-72639810D01*
X178725333Y-72639810D01*
X177818077Y-72639810D01*
X177305447Y-72639810D01*
X177305447Y-71748561D01*
X177818077Y-71748561D01*
X178432439Y-71748561D01*
X178432439Y-72096223D01*
X178725333Y-72096223D01*
X178725333Y-71748561D01*
X178884877Y-71748561D01*
X178884877Y-71508055D01*
X178725333Y-71508055D01*
X178725333Y-71355655D01*
X179027752Y-71355655D01*
X179035937Y-71538416D01*
X179060494Y-71696174D01*
X179101422Y-71828928D01*
X179158721Y-71936680D01*
X179259262Y-72042513D01*
X179386262Y-72106013D01*
X179539721Y-72127180D01*
X179693179Y-72106013D01*
X179820179Y-72042513D01*
X179920721Y-71936680D01*
X179978019Y-71828928D01*
X180018947Y-71696174D01*
X180043504Y-71538416D01*
X180051689Y-71355655D01*
X180043504Y-71174010D01*
X180018947Y-71017220D01*
X179978019Y-70885283D01*
X179920721Y-70778202D01*
X179820179Y-70673030D01*
X179693179Y-70609927D01*
X179539721Y-70588892D01*
X179388643Y-70610059D01*
X179262437Y-70673559D01*
X179161102Y-70779392D01*
X179102761Y-70886846D01*
X179061089Y-71018708D01*
X179036086Y-71174977D01*
X179027752Y-71355655D01*
X178725333Y-71355655D01*
X178725333Y-70622230D01*
X178463396Y-70622230D01*
X178368146Y-70723731D01*
X178272896Y-70837733D01*
X178180027Y-70958879D01*
X178091921Y-71081811D01*
X178009767Y-71204148D01*
X177934758Y-71323508D01*
X177869869Y-71435129D01*
X177818077Y-71534248D01*
X177818077Y-71748561D01*
X177305447Y-71748561D01*
X177305447Y-70076262D01*
X177818077Y-70076262D01*
X180051689Y-70076262D01*
X180564319Y-70076262D01*
X181418835Y-71358036D01*
G37*
%TO.C,kibuzzard-65733A1B*%
G36*
X178434581Y-61328828D02*
G01*
X178101206Y-61328828D01*
X178172643Y-61193097D01*
X178257178Y-61056175D01*
X178346474Y-60926397D01*
X178434581Y-60809716D01*
X178434581Y-61328828D01*
G37*
G36*
X179625206Y-61328828D02*
G01*
X179291831Y-61328828D01*
X179363268Y-61193097D01*
X179447803Y-61056175D01*
X179537099Y-60926397D01*
X179625206Y-60809716D01*
X179625206Y-61328828D01*
G37*
G36*
X181423358Y-61180000D02*
G01*
X180590273Y-62429627D01*
X180077643Y-62429627D01*
X179918099Y-62429627D01*
X178727474Y-62429627D01*
X177820218Y-62429627D01*
X177307588Y-62429627D01*
X177307588Y-61569334D01*
X177820218Y-61569334D01*
X178434581Y-61569334D01*
X178434581Y-61916997D01*
X178727474Y-61916997D01*
X178727474Y-61569334D01*
X178887018Y-61569334D01*
X179010843Y-61569334D01*
X179625206Y-61569334D01*
X179625206Y-61916997D01*
X179918099Y-61916997D01*
X179918099Y-61569334D01*
X180077643Y-61569334D01*
X180077643Y-61328828D01*
X179918099Y-61328828D01*
X179918099Y-60443003D01*
X179656162Y-60443003D01*
X179560912Y-60544504D01*
X179465662Y-60658506D01*
X179372793Y-60779652D01*
X179284687Y-60902584D01*
X179202534Y-61024921D01*
X179127524Y-61144281D01*
X179062635Y-61255902D01*
X179010843Y-61355022D01*
X179010843Y-61569334D01*
X178887018Y-61569334D01*
X178887018Y-61328828D01*
X178727474Y-61328828D01*
X178727474Y-60443003D01*
X178465537Y-60443003D01*
X178370287Y-60544504D01*
X178275037Y-60658506D01*
X178182168Y-60779652D01*
X178094062Y-60902584D01*
X178011909Y-61024921D01*
X177936899Y-61144281D01*
X177872010Y-61255902D01*
X177820218Y-61355022D01*
X177820218Y-61569334D01*
X177307588Y-61569334D01*
X177307588Y-59930373D01*
X177820218Y-59930373D01*
X180077643Y-59930373D01*
X180590273Y-59930373D01*
X181423358Y-61180000D01*
G37*
D17*
%TO.C,J9*%
X181836000Y-87880000D02*
X183106000Y-87880000D01*
X183106000Y-87880000D02*
X183741000Y-87245000D01*
X181201000Y-87245000D02*
X181836000Y-87880000D01*
X181201000Y-87245000D02*
X181201000Y-85975000D01*
X181201000Y-85975000D02*
X181836000Y-85340000D01*
X183741000Y-85975000D02*
X183741000Y-87245000D01*
X181836000Y-85340000D02*
X181201000Y-84705000D01*
X183106000Y-85340000D02*
X183741000Y-85975000D01*
X181201000Y-84705000D02*
X181201000Y-83435000D01*
X183741000Y-84705000D02*
X183106000Y-85340000D01*
X181201000Y-83435000D02*
X181836000Y-82800000D01*
X183741000Y-83435000D02*
X183741000Y-84705000D01*
X181836000Y-82800000D02*
X181201000Y-82165000D01*
X183106000Y-82800000D02*
X183741000Y-83435000D01*
X181201000Y-82165000D02*
X181201000Y-80895000D01*
X183741000Y-82165000D02*
X183106000Y-82800000D01*
X181201000Y-80895000D02*
X181836000Y-80260000D01*
X183741000Y-80895000D02*
X183741000Y-82165000D01*
X183106000Y-80260000D02*
X183741000Y-80895000D01*
X183106000Y-80260000D02*
X183741000Y-79625000D01*
X181201000Y-79625000D02*
X181836000Y-80260000D01*
X181201000Y-79625000D02*
X181201000Y-78355000D01*
X181201000Y-78355000D02*
X181836000Y-77720000D01*
X183741000Y-78355000D02*
X183741000Y-79625000D01*
X181836000Y-77720000D02*
X181201000Y-77085000D01*
X183106000Y-77720000D02*
X183741000Y-78355000D01*
X181201000Y-77085000D02*
X181201000Y-75815000D01*
X183741000Y-77085000D02*
X183106000Y-77720000D01*
X181201000Y-75815000D02*
X181836000Y-75180000D01*
X183741000Y-75815000D02*
X183741000Y-77085000D01*
X181836000Y-75180000D02*
X181201000Y-74545000D01*
X183106000Y-75180000D02*
X183741000Y-75815000D01*
X181201000Y-74545000D02*
X181201000Y-73275000D01*
X183741000Y-74545000D02*
X183106000Y-75180000D01*
X181201000Y-73275000D02*
X181836000Y-72640000D01*
X183741000Y-73275000D02*
X183741000Y-74545000D01*
X183106000Y-72640000D02*
X183741000Y-73275000D01*
X183106000Y-72640000D02*
X183741000Y-72005000D01*
X181201000Y-72005000D02*
X181836000Y-72640000D01*
X181201000Y-72005000D02*
X181201000Y-70735000D01*
X181201000Y-70735000D02*
X181836000Y-70100000D01*
X183741000Y-70735000D02*
X183741000Y-72005000D01*
X183106000Y-70100000D02*
X183741000Y-70735000D01*
X183106000Y-70100000D02*
X183741000Y-69465000D01*
X181201000Y-69465000D02*
X181836000Y-70100000D01*
X181201000Y-69465000D02*
X181201000Y-68195000D01*
X181201000Y-68195000D02*
X181836000Y-67560000D01*
X183741000Y-68195000D02*
X183741000Y-69465000D01*
X183106000Y-67560000D02*
X183741000Y-68195000D01*
X183106000Y-67560000D02*
X183741000Y-66925000D01*
X181201000Y-66925000D02*
X181836000Y-67560000D01*
X181201000Y-66925000D02*
X181201000Y-65655000D01*
X181201000Y-65655000D02*
X181836000Y-65020000D01*
X183741000Y-65655000D02*
X183741000Y-66925000D01*
X181836000Y-65020000D02*
X183106000Y-65020000D01*
X183106000Y-65020000D02*
X183741000Y-65655000D01*
D14*
%TO.C,U6*%
X165510001Y-85304000D02*
X165510001Y-84164000D01*
X165280001Y-84164000D02*
X165510001Y-84164000D01*
X165280001Y-84164000D02*
X165280001Y-81444000D01*
X170000001Y-84164000D02*
X169770001Y-84164000D01*
X165280001Y-81444000D02*
X166590001Y-81444000D01*
X168690001Y-81444000D02*
X170000001Y-81444000D01*
X170000001Y-81444000D02*
X170000001Y-84164000D01*
%TO.C,C14*%
X147560000Y-63163748D02*
X147560000Y-63686252D01*
X146090000Y-63163748D02*
X146090000Y-63686252D01*
%TO.C,R18*%
X138944867Y-68931617D02*
X138944867Y-68596375D01*
X139704867Y-68931617D02*
X139704867Y-68596375D01*
%TO.C,kibuzzard-65733A0D*%
G36*
X178430299Y-63864037D02*
G01*
X178096924Y-63864037D01*
X178168362Y-63728305D01*
X178252896Y-63591384D01*
X178342193Y-63461605D01*
X178430299Y-63344924D01*
X178430299Y-63864037D01*
G37*
G36*
X181383358Y-63714018D02*
G01*
X180528842Y-64995792D01*
X180016212Y-64995792D01*
X179449474Y-64995792D01*
X178723193Y-64995792D01*
X177815937Y-64995792D01*
X177303306Y-64995792D01*
X177303306Y-64104543D01*
X177815937Y-64104543D01*
X178430299Y-64104543D01*
X178430299Y-64452205D01*
X178723193Y-64452205D01*
X178723193Y-64402199D01*
X179039899Y-64402199D01*
X179113718Y-64428393D01*
X179217302Y-64454587D01*
X179333983Y-64474827D01*
X179449474Y-64483162D01*
X179586991Y-64474530D01*
X179704268Y-64448634D01*
X179801899Y-64406962D01*
X179880480Y-64351002D01*
X179982874Y-64202174D01*
X180016212Y-64014055D01*
X180000436Y-63894398D01*
X179953108Y-63792599D01*
X179877206Y-63711041D01*
X179775705Y-63652105D01*
X179909055Y-63528280D01*
X179959062Y-63359212D01*
X179930487Y-63194905D01*
X179842380Y-63062746D01*
X179691171Y-62975830D01*
X179591456Y-62952613D01*
X179475668Y-62944874D01*
X179349164Y-62955888D01*
X179236352Y-62988927D01*
X179066093Y-63075843D01*
X179170868Y-63290155D01*
X179312552Y-63222290D01*
X179478049Y-63194905D01*
X179612590Y-63241340D01*
X179661405Y-63368737D01*
X179638783Y-63459224D01*
X179580443Y-63516374D01*
X179499480Y-63547330D01*
X179408993Y-63556855D01*
X179299455Y-63556855D01*
X179299455Y-63799743D01*
X179389943Y-63799743D01*
X179520316Y-63811352D01*
X179625687Y-63846177D01*
X179695338Y-63910173D01*
X179718555Y-64009293D01*
X179657833Y-64168837D01*
X179574787Y-64217057D01*
X179447093Y-64233130D01*
X179334281Y-64226582D01*
X179238733Y-64206937D01*
X179097049Y-64156930D01*
X179039899Y-64402199D01*
X178723193Y-64402199D01*
X178723193Y-64104543D01*
X178882737Y-64104543D01*
X178882737Y-63864037D01*
X178723193Y-63864037D01*
X178723193Y-62978212D01*
X178461255Y-62978212D01*
X178366005Y-63079713D01*
X178270755Y-63193715D01*
X178177887Y-63314861D01*
X178089780Y-63437793D01*
X178007627Y-63560130D01*
X177932618Y-63679490D01*
X177867729Y-63791111D01*
X177815937Y-63890230D01*
X177815937Y-64104543D01*
X177303306Y-64104543D01*
X177303306Y-62432244D01*
X177815937Y-62432244D01*
X180016212Y-62432244D01*
X180528842Y-62432244D01*
X181383358Y-63714018D01*
G37*
%TO.C,R4*%
X137896133Y-75041910D02*
X137896133Y-75377152D01*
X137136133Y-75041910D02*
X137136133Y-75377152D01*
%TD*%
M02*
