%TF.GenerationSoftware,KiCad,Pcbnew,7.0.9*%
%TF.CreationDate,2023-12-08T19:14:30-07:00*%
%TF.ProjectId,mini_motor_go_V1_rev3,6d696e69-5f6d-46f7-946f-725f676f5f56,rev?*%
%TF.SameCoordinates,Original*%
%TF.FileFunction,Copper,L4,Bot*%
%TF.FilePolarity,Positive*%
%FSLAX46Y46*%
G04 Gerber Fmt 4.6, Leading zero omitted, Abs format (unit mm)*
G04 Created by KiCad (PCBNEW 7.0.9) date 2023-12-08 19:14:30*
%MOMM*%
%LPD*%
G01*
G04 APERTURE LIST*
%TA.AperFunction,EtchedComponent*%
%ADD10C,0.010000*%
%TD*%
%TA.AperFunction,ComponentPad*%
%ADD11C,0.600000*%
%TD*%
%TA.AperFunction,SMDPad,CuDef*%
%ADD12R,1.700000X1.700000*%
%TD*%
%TA.AperFunction,ComponentPad*%
%ADD13C,1.879600*%
%TD*%
%TA.AperFunction,ComponentPad*%
%ADD14O,0.800000X1.600000*%
%TD*%
%TA.AperFunction,ComponentPad*%
%ADD15R,1.980000X3.960000*%
%TD*%
%TA.AperFunction,ComponentPad*%
%ADD16O,1.980000X3.960000*%
%TD*%
%TA.AperFunction,ViaPad*%
%ADD17C,0.600000*%
%TD*%
%TA.AperFunction,ViaPad*%
%ADD18C,0.800000*%
%TD*%
%TA.AperFunction,Conductor*%
%ADD19C,1.000000*%
%TD*%
%TA.AperFunction,Conductor*%
%ADD20C,0.300000*%
%TD*%
%TA.AperFunction,Conductor*%
%ADD21C,0.200000*%
%TD*%
%TA.AperFunction,Conductor*%
%ADD22C,0.500000*%
%TD*%
%TA.AperFunction,Conductor*%
%ADD23C,0.152000*%
%TD*%
%TA.AperFunction,Conductor*%
%ADD24C,0.250000*%
%TD*%
G04 APERTURE END LIST*
%TO.C,J11*%
D10*
X160079600Y-89551700D02*
X160105600Y-89553700D01*
X160131600Y-89556700D01*
X160157600Y-89561700D01*
X160182600Y-89567700D01*
X160208600Y-89574700D01*
X160232600Y-89583700D01*
X160256600Y-89593700D01*
X160280600Y-89604700D01*
X160303600Y-89617700D01*
X160325600Y-89631700D01*
X160347600Y-89645700D01*
X160368600Y-89661700D01*
X160388600Y-89678700D01*
X160407600Y-89696700D01*
X160425600Y-89715700D01*
X160442600Y-89735700D01*
X160458600Y-89756700D01*
X160472600Y-89778700D01*
X160486600Y-89800700D01*
X160499600Y-89823700D01*
X160510600Y-89847700D01*
X160520600Y-89871700D01*
X160529600Y-89895700D01*
X160536600Y-89921700D01*
X160542600Y-89946700D01*
X160547600Y-89972700D01*
X160550600Y-89998700D01*
X160552600Y-90024700D01*
X160553600Y-90050700D01*
X160553600Y-90850700D01*
X160552600Y-90876700D01*
X160550600Y-90902700D01*
X160547600Y-90928700D01*
X160542600Y-90954700D01*
X160536600Y-90979700D01*
X160529600Y-91005700D01*
X160520600Y-91029700D01*
X160510600Y-91053700D01*
X160499600Y-91077700D01*
X160486600Y-91100700D01*
X160472600Y-91122700D01*
X160458600Y-91144700D01*
X160442600Y-91165700D01*
X160425600Y-91185700D01*
X160407600Y-91204700D01*
X160388600Y-91222700D01*
X160368600Y-91239700D01*
X160347600Y-91255700D01*
X160325600Y-91269700D01*
X160303600Y-91283700D01*
X160280600Y-91296700D01*
X160256600Y-91307700D01*
X160232600Y-91317700D01*
X160208600Y-91326700D01*
X160182600Y-91333700D01*
X160157600Y-91339700D01*
X160131600Y-91344700D01*
X160105600Y-91347700D01*
X160079600Y-91349700D01*
X160053600Y-91350700D01*
X160027600Y-91349700D01*
X160001600Y-91347700D01*
X159975600Y-91344700D01*
X159949600Y-91339700D01*
X159924600Y-91333700D01*
X159898600Y-91326700D01*
X159874600Y-91317700D01*
X159850600Y-91307700D01*
X159826600Y-91296700D01*
X159803600Y-91283700D01*
X159781600Y-91269700D01*
X159759600Y-91255700D01*
X159738600Y-91239700D01*
X159718600Y-91222700D01*
X159699600Y-91204700D01*
X159681600Y-91185700D01*
X159664600Y-91165700D01*
X159648600Y-91144700D01*
X159634600Y-91122700D01*
X159620600Y-91100700D01*
X159607600Y-91077700D01*
X159596600Y-91053700D01*
X159586600Y-91029700D01*
X159577600Y-91005700D01*
X159570600Y-90979700D01*
X159564600Y-90954700D01*
X159559600Y-90928700D01*
X159556600Y-90902700D01*
X159554600Y-90876700D01*
X159553600Y-90850700D01*
X159553600Y-90050700D01*
X159554600Y-90024700D01*
X159556600Y-89998700D01*
X159559600Y-89972700D01*
X159564600Y-89946700D01*
X159570600Y-89921700D01*
X159577600Y-89895700D01*
X159586600Y-89871700D01*
X159596600Y-89847700D01*
X159607600Y-89823700D01*
X159620600Y-89800700D01*
X159634600Y-89778700D01*
X159648600Y-89756700D01*
X159664600Y-89735700D01*
X159681600Y-89715700D01*
X159699600Y-89696700D01*
X159718600Y-89678700D01*
X159738600Y-89661700D01*
X159759600Y-89645700D01*
X159781600Y-89631700D01*
X159803600Y-89617700D01*
X159826600Y-89604700D01*
X159850600Y-89593700D01*
X159874600Y-89583700D01*
X159898600Y-89574700D01*
X159924600Y-89567700D01*
X159949600Y-89561700D01*
X159975600Y-89556700D01*
X160001600Y-89553700D01*
X160027600Y-89551700D01*
X160053600Y-89550700D01*
X160079600Y-89551700D01*
%TA.AperFunction,EtchedComponent*%
G36*
X160079600Y-89551700D02*
G01*
X160105600Y-89553700D01*
X160131600Y-89556700D01*
X160157600Y-89561700D01*
X160182600Y-89567700D01*
X160208600Y-89574700D01*
X160232600Y-89583700D01*
X160256600Y-89593700D01*
X160280600Y-89604700D01*
X160303600Y-89617700D01*
X160325600Y-89631700D01*
X160347600Y-89645700D01*
X160368600Y-89661700D01*
X160388600Y-89678700D01*
X160407600Y-89696700D01*
X160425600Y-89715700D01*
X160442600Y-89735700D01*
X160458600Y-89756700D01*
X160472600Y-89778700D01*
X160486600Y-89800700D01*
X160499600Y-89823700D01*
X160510600Y-89847700D01*
X160520600Y-89871700D01*
X160529600Y-89895700D01*
X160536600Y-89921700D01*
X160542600Y-89946700D01*
X160547600Y-89972700D01*
X160550600Y-89998700D01*
X160552600Y-90024700D01*
X160553600Y-90050700D01*
X160553600Y-90850700D01*
X160552600Y-90876700D01*
X160550600Y-90902700D01*
X160547600Y-90928700D01*
X160542600Y-90954700D01*
X160536600Y-90979700D01*
X160529600Y-91005700D01*
X160520600Y-91029700D01*
X160510600Y-91053700D01*
X160499600Y-91077700D01*
X160486600Y-91100700D01*
X160472600Y-91122700D01*
X160458600Y-91144700D01*
X160442600Y-91165700D01*
X160425600Y-91185700D01*
X160407600Y-91204700D01*
X160388600Y-91222700D01*
X160368600Y-91239700D01*
X160347600Y-91255700D01*
X160325600Y-91269700D01*
X160303600Y-91283700D01*
X160280600Y-91296700D01*
X160256600Y-91307700D01*
X160232600Y-91317700D01*
X160208600Y-91326700D01*
X160182600Y-91333700D01*
X160157600Y-91339700D01*
X160131600Y-91344700D01*
X160105600Y-91347700D01*
X160079600Y-91349700D01*
X160053600Y-91350700D01*
X160027600Y-91349700D01*
X160001600Y-91347700D01*
X159975600Y-91344700D01*
X159949600Y-91339700D01*
X159924600Y-91333700D01*
X159898600Y-91326700D01*
X159874600Y-91317700D01*
X159850600Y-91307700D01*
X159826600Y-91296700D01*
X159803600Y-91283700D01*
X159781600Y-91269700D01*
X159759600Y-91255700D01*
X159738600Y-91239700D01*
X159718600Y-91222700D01*
X159699600Y-91204700D01*
X159681600Y-91185700D01*
X159664600Y-91165700D01*
X159648600Y-91144700D01*
X159634600Y-91122700D01*
X159620600Y-91100700D01*
X159607600Y-91077700D01*
X159596600Y-91053700D01*
X159586600Y-91029700D01*
X159577600Y-91005700D01*
X159570600Y-90979700D01*
X159564600Y-90954700D01*
X159559600Y-90928700D01*
X159556600Y-90902700D01*
X159554600Y-90876700D01*
X159553600Y-90850700D01*
X159553600Y-90050700D01*
X159554600Y-90024700D01*
X159556600Y-89998700D01*
X159559600Y-89972700D01*
X159564600Y-89946700D01*
X159570600Y-89921700D01*
X159577600Y-89895700D01*
X159586600Y-89871700D01*
X159596600Y-89847700D01*
X159607600Y-89823700D01*
X159620600Y-89800700D01*
X159634600Y-89778700D01*
X159648600Y-89756700D01*
X159664600Y-89735700D01*
X159681600Y-89715700D01*
X159699600Y-89696700D01*
X159718600Y-89678700D01*
X159738600Y-89661700D01*
X159759600Y-89645700D01*
X159781600Y-89631700D01*
X159803600Y-89617700D01*
X159826600Y-89604700D01*
X159850600Y-89593700D01*
X159874600Y-89583700D01*
X159898600Y-89574700D01*
X159924600Y-89567700D01*
X159949600Y-89561700D01*
X159975600Y-89556700D01*
X160001600Y-89553700D01*
X160027600Y-89551700D01*
X160053600Y-89550700D01*
X160079600Y-89551700D01*
G37*
%TD.AperFunction*%
X160079600Y-93601700D02*
X160105600Y-93603700D01*
X160131600Y-93606700D01*
X160157600Y-93611700D01*
X160182600Y-93617700D01*
X160208600Y-93624700D01*
X160232600Y-93633700D01*
X160256600Y-93643700D01*
X160280600Y-93654700D01*
X160303600Y-93667700D01*
X160325600Y-93681700D01*
X160347600Y-93695700D01*
X160368600Y-93711700D01*
X160388600Y-93728700D01*
X160407600Y-93746700D01*
X160425600Y-93765700D01*
X160442600Y-93785700D01*
X160458600Y-93806700D01*
X160472600Y-93828700D01*
X160486600Y-93850700D01*
X160499600Y-93873700D01*
X160510600Y-93897700D01*
X160520600Y-93921700D01*
X160529600Y-93945700D01*
X160536600Y-93971700D01*
X160542600Y-93996700D01*
X160547600Y-94022700D01*
X160550600Y-94048700D01*
X160552600Y-94074700D01*
X160553600Y-94100700D01*
X160553600Y-95300700D01*
X160552600Y-95326700D01*
X160550600Y-95352700D01*
X160547600Y-95378700D01*
X160542600Y-95404700D01*
X160536600Y-95429700D01*
X160529600Y-95455700D01*
X160520600Y-95479700D01*
X160510600Y-95503700D01*
X160499600Y-95527700D01*
X160486600Y-95550700D01*
X160472600Y-95572700D01*
X160458600Y-95594700D01*
X160442600Y-95615700D01*
X160425600Y-95635700D01*
X160407600Y-95654700D01*
X160388600Y-95672700D01*
X160368600Y-95689700D01*
X160347600Y-95705700D01*
X160325600Y-95719700D01*
X160303600Y-95733700D01*
X160280600Y-95746700D01*
X160256600Y-95757700D01*
X160232600Y-95767700D01*
X160208600Y-95776700D01*
X160182600Y-95783700D01*
X160157600Y-95789700D01*
X160131600Y-95794700D01*
X160105600Y-95797700D01*
X160079600Y-95799700D01*
X160053600Y-95800700D01*
X160027600Y-95799700D01*
X160001600Y-95797700D01*
X159975600Y-95794700D01*
X159949600Y-95789700D01*
X159924600Y-95783700D01*
X159898600Y-95776700D01*
X159874600Y-95767700D01*
X159850600Y-95757700D01*
X159826600Y-95746700D01*
X159803600Y-95733700D01*
X159781600Y-95719700D01*
X159759600Y-95705700D01*
X159738600Y-95689700D01*
X159718600Y-95672700D01*
X159699600Y-95654700D01*
X159681600Y-95635700D01*
X159664600Y-95615700D01*
X159648600Y-95594700D01*
X159634600Y-95572700D01*
X159620600Y-95550700D01*
X159607600Y-95527700D01*
X159596600Y-95503700D01*
X159586600Y-95479700D01*
X159577600Y-95455700D01*
X159570600Y-95429700D01*
X159564600Y-95404700D01*
X159559600Y-95378700D01*
X159556600Y-95352700D01*
X159554600Y-95326700D01*
X159553600Y-95300700D01*
X159553600Y-94100700D01*
X159554600Y-94074700D01*
X159556600Y-94048700D01*
X159559600Y-94022700D01*
X159564600Y-93996700D01*
X159570600Y-93971700D01*
X159577600Y-93945700D01*
X159586600Y-93921700D01*
X159596600Y-93897700D01*
X159607600Y-93873700D01*
X159620600Y-93850700D01*
X159634600Y-93828700D01*
X159648600Y-93806700D01*
X159664600Y-93785700D01*
X159681600Y-93765700D01*
X159699600Y-93746700D01*
X159718600Y-93728700D01*
X159738600Y-93711700D01*
X159759600Y-93695700D01*
X159781600Y-93681700D01*
X159803600Y-93667700D01*
X159826600Y-93654700D01*
X159850600Y-93643700D01*
X159874600Y-93633700D01*
X159898600Y-93624700D01*
X159924600Y-93617700D01*
X159949600Y-93611700D01*
X159975600Y-93606700D01*
X160001600Y-93603700D01*
X160027600Y-93601700D01*
X160053600Y-93600700D01*
X160079600Y-93601700D01*
%TA.AperFunction,EtchedComponent*%
G36*
X160079600Y-93601700D02*
G01*
X160105600Y-93603700D01*
X160131600Y-93606700D01*
X160157600Y-93611700D01*
X160182600Y-93617700D01*
X160208600Y-93624700D01*
X160232600Y-93633700D01*
X160256600Y-93643700D01*
X160280600Y-93654700D01*
X160303600Y-93667700D01*
X160325600Y-93681700D01*
X160347600Y-93695700D01*
X160368600Y-93711700D01*
X160388600Y-93728700D01*
X160407600Y-93746700D01*
X160425600Y-93765700D01*
X160442600Y-93785700D01*
X160458600Y-93806700D01*
X160472600Y-93828700D01*
X160486600Y-93850700D01*
X160499600Y-93873700D01*
X160510600Y-93897700D01*
X160520600Y-93921700D01*
X160529600Y-93945700D01*
X160536600Y-93971700D01*
X160542600Y-93996700D01*
X160547600Y-94022700D01*
X160550600Y-94048700D01*
X160552600Y-94074700D01*
X160553600Y-94100700D01*
X160553600Y-95300700D01*
X160552600Y-95326700D01*
X160550600Y-95352700D01*
X160547600Y-95378700D01*
X160542600Y-95404700D01*
X160536600Y-95429700D01*
X160529600Y-95455700D01*
X160520600Y-95479700D01*
X160510600Y-95503700D01*
X160499600Y-95527700D01*
X160486600Y-95550700D01*
X160472600Y-95572700D01*
X160458600Y-95594700D01*
X160442600Y-95615700D01*
X160425600Y-95635700D01*
X160407600Y-95654700D01*
X160388600Y-95672700D01*
X160368600Y-95689700D01*
X160347600Y-95705700D01*
X160325600Y-95719700D01*
X160303600Y-95733700D01*
X160280600Y-95746700D01*
X160256600Y-95757700D01*
X160232600Y-95767700D01*
X160208600Y-95776700D01*
X160182600Y-95783700D01*
X160157600Y-95789700D01*
X160131600Y-95794700D01*
X160105600Y-95797700D01*
X160079600Y-95799700D01*
X160053600Y-95800700D01*
X160027600Y-95799700D01*
X160001600Y-95797700D01*
X159975600Y-95794700D01*
X159949600Y-95789700D01*
X159924600Y-95783700D01*
X159898600Y-95776700D01*
X159874600Y-95767700D01*
X159850600Y-95757700D01*
X159826600Y-95746700D01*
X159803600Y-95733700D01*
X159781600Y-95719700D01*
X159759600Y-95705700D01*
X159738600Y-95689700D01*
X159718600Y-95672700D01*
X159699600Y-95654700D01*
X159681600Y-95635700D01*
X159664600Y-95615700D01*
X159648600Y-95594700D01*
X159634600Y-95572700D01*
X159620600Y-95550700D01*
X159607600Y-95527700D01*
X159596600Y-95503700D01*
X159586600Y-95479700D01*
X159577600Y-95455700D01*
X159570600Y-95429700D01*
X159564600Y-95404700D01*
X159559600Y-95378700D01*
X159556600Y-95352700D01*
X159554600Y-95326700D01*
X159553600Y-95300700D01*
X159553600Y-94100700D01*
X159554600Y-94074700D01*
X159556600Y-94048700D01*
X159559600Y-94022700D01*
X159564600Y-93996700D01*
X159570600Y-93971700D01*
X159577600Y-93945700D01*
X159586600Y-93921700D01*
X159596600Y-93897700D01*
X159607600Y-93873700D01*
X159620600Y-93850700D01*
X159634600Y-93828700D01*
X159648600Y-93806700D01*
X159664600Y-93785700D01*
X159681600Y-93765700D01*
X159699600Y-93746700D01*
X159718600Y-93728700D01*
X159738600Y-93711700D01*
X159759600Y-93695700D01*
X159781600Y-93681700D01*
X159803600Y-93667700D01*
X159826600Y-93654700D01*
X159850600Y-93643700D01*
X159874600Y-93633700D01*
X159898600Y-93624700D01*
X159924600Y-93617700D01*
X159949600Y-93611700D01*
X159975600Y-93606700D01*
X160001600Y-93603700D01*
X160027600Y-93601700D01*
X160053600Y-93600700D01*
X160079600Y-93601700D01*
G37*
%TD.AperFunction*%
X168729600Y-89551700D02*
X168755600Y-89553700D01*
X168781600Y-89556700D01*
X168807600Y-89561700D01*
X168832600Y-89567700D01*
X168858600Y-89574700D01*
X168882600Y-89583700D01*
X168906600Y-89593700D01*
X168930600Y-89604700D01*
X168953600Y-89617700D01*
X168975600Y-89631700D01*
X168997600Y-89645700D01*
X169018600Y-89661700D01*
X169038600Y-89678700D01*
X169057600Y-89696700D01*
X169075600Y-89715700D01*
X169092600Y-89735700D01*
X169108600Y-89756700D01*
X169122600Y-89778700D01*
X169136600Y-89800700D01*
X169149600Y-89823700D01*
X169160600Y-89847700D01*
X169170600Y-89871700D01*
X169179600Y-89895700D01*
X169186600Y-89921700D01*
X169192600Y-89946700D01*
X169197600Y-89972700D01*
X169200600Y-89998700D01*
X169202600Y-90024700D01*
X169203600Y-90050700D01*
X169203600Y-90850700D01*
X169202600Y-90876700D01*
X169200600Y-90902700D01*
X169197600Y-90928700D01*
X169192600Y-90954700D01*
X169186600Y-90979700D01*
X169179600Y-91005700D01*
X169170600Y-91029700D01*
X169160600Y-91053700D01*
X169149600Y-91077700D01*
X169136600Y-91100700D01*
X169122600Y-91122700D01*
X169108600Y-91144700D01*
X169092600Y-91165700D01*
X169075600Y-91185700D01*
X169057600Y-91204700D01*
X169038600Y-91222700D01*
X169018600Y-91239700D01*
X168997600Y-91255700D01*
X168975600Y-91269700D01*
X168953600Y-91283700D01*
X168930600Y-91296700D01*
X168906600Y-91307700D01*
X168882600Y-91317700D01*
X168858600Y-91326700D01*
X168832600Y-91333700D01*
X168807600Y-91339700D01*
X168781600Y-91344700D01*
X168755600Y-91347700D01*
X168729600Y-91349700D01*
X168703600Y-91350700D01*
X168677600Y-91349700D01*
X168651600Y-91347700D01*
X168625600Y-91344700D01*
X168599600Y-91339700D01*
X168574600Y-91333700D01*
X168548600Y-91326700D01*
X168524600Y-91317700D01*
X168500600Y-91307700D01*
X168476600Y-91296700D01*
X168453600Y-91283700D01*
X168431600Y-91269700D01*
X168409600Y-91255700D01*
X168388600Y-91239700D01*
X168368600Y-91222700D01*
X168349600Y-91204700D01*
X168331600Y-91185700D01*
X168314600Y-91165700D01*
X168298600Y-91144700D01*
X168284600Y-91122700D01*
X168270600Y-91100700D01*
X168257600Y-91077700D01*
X168246600Y-91053700D01*
X168236600Y-91029700D01*
X168227600Y-91005700D01*
X168220600Y-90979700D01*
X168214600Y-90954700D01*
X168209600Y-90928700D01*
X168206600Y-90902700D01*
X168204600Y-90876700D01*
X168203600Y-90850700D01*
X168203600Y-90050700D01*
X168204600Y-90024700D01*
X168206600Y-89998700D01*
X168209600Y-89972700D01*
X168214600Y-89946700D01*
X168220600Y-89921700D01*
X168227600Y-89895700D01*
X168236600Y-89871700D01*
X168246600Y-89847700D01*
X168257600Y-89823700D01*
X168270600Y-89800700D01*
X168284600Y-89778700D01*
X168298600Y-89756700D01*
X168314600Y-89735700D01*
X168331600Y-89715700D01*
X168349600Y-89696700D01*
X168368600Y-89678700D01*
X168388600Y-89661700D01*
X168409600Y-89645700D01*
X168431600Y-89631700D01*
X168453600Y-89617700D01*
X168476600Y-89604700D01*
X168500600Y-89593700D01*
X168524600Y-89583700D01*
X168548600Y-89574700D01*
X168574600Y-89567700D01*
X168599600Y-89561700D01*
X168625600Y-89556700D01*
X168651600Y-89553700D01*
X168677600Y-89551700D01*
X168703600Y-89550700D01*
X168729600Y-89551700D01*
%TA.AperFunction,EtchedComponent*%
G36*
X168729600Y-89551700D02*
G01*
X168755600Y-89553700D01*
X168781600Y-89556700D01*
X168807600Y-89561700D01*
X168832600Y-89567700D01*
X168858600Y-89574700D01*
X168882600Y-89583700D01*
X168906600Y-89593700D01*
X168930600Y-89604700D01*
X168953600Y-89617700D01*
X168975600Y-89631700D01*
X168997600Y-89645700D01*
X169018600Y-89661700D01*
X169038600Y-89678700D01*
X169057600Y-89696700D01*
X169075600Y-89715700D01*
X169092600Y-89735700D01*
X169108600Y-89756700D01*
X169122600Y-89778700D01*
X169136600Y-89800700D01*
X169149600Y-89823700D01*
X169160600Y-89847700D01*
X169170600Y-89871700D01*
X169179600Y-89895700D01*
X169186600Y-89921700D01*
X169192600Y-89946700D01*
X169197600Y-89972700D01*
X169200600Y-89998700D01*
X169202600Y-90024700D01*
X169203600Y-90050700D01*
X169203600Y-90850700D01*
X169202600Y-90876700D01*
X169200600Y-90902700D01*
X169197600Y-90928700D01*
X169192600Y-90954700D01*
X169186600Y-90979700D01*
X169179600Y-91005700D01*
X169170600Y-91029700D01*
X169160600Y-91053700D01*
X169149600Y-91077700D01*
X169136600Y-91100700D01*
X169122600Y-91122700D01*
X169108600Y-91144700D01*
X169092600Y-91165700D01*
X169075600Y-91185700D01*
X169057600Y-91204700D01*
X169038600Y-91222700D01*
X169018600Y-91239700D01*
X168997600Y-91255700D01*
X168975600Y-91269700D01*
X168953600Y-91283700D01*
X168930600Y-91296700D01*
X168906600Y-91307700D01*
X168882600Y-91317700D01*
X168858600Y-91326700D01*
X168832600Y-91333700D01*
X168807600Y-91339700D01*
X168781600Y-91344700D01*
X168755600Y-91347700D01*
X168729600Y-91349700D01*
X168703600Y-91350700D01*
X168677600Y-91349700D01*
X168651600Y-91347700D01*
X168625600Y-91344700D01*
X168599600Y-91339700D01*
X168574600Y-91333700D01*
X168548600Y-91326700D01*
X168524600Y-91317700D01*
X168500600Y-91307700D01*
X168476600Y-91296700D01*
X168453600Y-91283700D01*
X168431600Y-91269700D01*
X168409600Y-91255700D01*
X168388600Y-91239700D01*
X168368600Y-91222700D01*
X168349600Y-91204700D01*
X168331600Y-91185700D01*
X168314600Y-91165700D01*
X168298600Y-91144700D01*
X168284600Y-91122700D01*
X168270600Y-91100700D01*
X168257600Y-91077700D01*
X168246600Y-91053700D01*
X168236600Y-91029700D01*
X168227600Y-91005700D01*
X168220600Y-90979700D01*
X168214600Y-90954700D01*
X168209600Y-90928700D01*
X168206600Y-90902700D01*
X168204600Y-90876700D01*
X168203600Y-90850700D01*
X168203600Y-90050700D01*
X168204600Y-90024700D01*
X168206600Y-89998700D01*
X168209600Y-89972700D01*
X168214600Y-89946700D01*
X168220600Y-89921700D01*
X168227600Y-89895700D01*
X168236600Y-89871700D01*
X168246600Y-89847700D01*
X168257600Y-89823700D01*
X168270600Y-89800700D01*
X168284600Y-89778700D01*
X168298600Y-89756700D01*
X168314600Y-89735700D01*
X168331600Y-89715700D01*
X168349600Y-89696700D01*
X168368600Y-89678700D01*
X168388600Y-89661700D01*
X168409600Y-89645700D01*
X168431600Y-89631700D01*
X168453600Y-89617700D01*
X168476600Y-89604700D01*
X168500600Y-89593700D01*
X168524600Y-89583700D01*
X168548600Y-89574700D01*
X168574600Y-89567700D01*
X168599600Y-89561700D01*
X168625600Y-89556700D01*
X168651600Y-89553700D01*
X168677600Y-89551700D01*
X168703600Y-89550700D01*
X168729600Y-89551700D01*
G37*
%TD.AperFunction*%
X168729600Y-93551700D02*
X168755600Y-93553700D01*
X168781600Y-93556700D01*
X168807600Y-93561700D01*
X168832600Y-93567700D01*
X168858600Y-93574700D01*
X168882600Y-93583700D01*
X168906600Y-93593700D01*
X168930600Y-93604700D01*
X168953600Y-93617700D01*
X168975600Y-93631700D01*
X168997600Y-93645700D01*
X169018600Y-93661700D01*
X169038600Y-93678700D01*
X169057600Y-93696700D01*
X169075600Y-93715700D01*
X169092600Y-93735700D01*
X169108600Y-93756700D01*
X169122600Y-93778700D01*
X169136600Y-93800700D01*
X169149600Y-93823700D01*
X169160600Y-93847700D01*
X169170600Y-93871700D01*
X169179600Y-93895700D01*
X169186600Y-93921700D01*
X169192600Y-93946700D01*
X169197600Y-93972700D01*
X169200600Y-93998700D01*
X169202600Y-94024700D01*
X169203600Y-94050700D01*
X169203600Y-95250700D01*
X169202600Y-95276700D01*
X169200600Y-95302700D01*
X169197600Y-95328700D01*
X169192600Y-95354700D01*
X169186600Y-95379700D01*
X169179600Y-95405700D01*
X169170600Y-95429700D01*
X169160600Y-95453700D01*
X169149600Y-95477700D01*
X169136600Y-95500700D01*
X169122600Y-95522700D01*
X169108600Y-95544700D01*
X169092600Y-95565700D01*
X169075600Y-95585700D01*
X169057600Y-95604700D01*
X169038600Y-95622700D01*
X169018600Y-95639700D01*
X168997600Y-95655700D01*
X168975600Y-95669700D01*
X168953600Y-95683700D01*
X168930600Y-95696700D01*
X168906600Y-95707700D01*
X168882600Y-95717700D01*
X168858600Y-95726700D01*
X168832600Y-95733700D01*
X168807600Y-95739700D01*
X168781600Y-95744700D01*
X168755600Y-95747700D01*
X168729600Y-95749700D01*
X168703600Y-95750700D01*
X168677600Y-95749700D01*
X168651600Y-95747700D01*
X168625600Y-95744700D01*
X168599600Y-95739700D01*
X168574600Y-95733700D01*
X168548600Y-95726700D01*
X168524600Y-95717700D01*
X168500600Y-95707700D01*
X168476600Y-95696700D01*
X168453600Y-95683700D01*
X168431600Y-95669700D01*
X168409600Y-95655700D01*
X168388600Y-95639700D01*
X168368600Y-95622700D01*
X168349600Y-95604700D01*
X168331600Y-95585700D01*
X168314600Y-95565700D01*
X168298600Y-95544700D01*
X168284600Y-95522700D01*
X168270600Y-95500700D01*
X168257600Y-95477700D01*
X168246600Y-95453700D01*
X168236600Y-95429700D01*
X168227600Y-95405700D01*
X168220600Y-95379700D01*
X168214600Y-95354700D01*
X168209600Y-95328700D01*
X168206600Y-95302700D01*
X168204600Y-95276700D01*
X168203600Y-95250700D01*
X168203600Y-94050700D01*
X168204600Y-94024700D01*
X168206600Y-93998700D01*
X168209600Y-93972700D01*
X168214600Y-93946700D01*
X168220600Y-93921700D01*
X168227600Y-93895700D01*
X168236600Y-93871700D01*
X168246600Y-93847700D01*
X168257600Y-93823700D01*
X168270600Y-93800700D01*
X168284600Y-93778700D01*
X168298600Y-93756700D01*
X168314600Y-93735700D01*
X168331600Y-93715700D01*
X168349600Y-93696700D01*
X168368600Y-93678700D01*
X168388600Y-93661700D01*
X168409600Y-93645700D01*
X168431600Y-93631700D01*
X168453600Y-93617700D01*
X168476600Y-93604700D01*
X168500600Y-93593700D01*
X168524600Y-93583700D01*
X168548600Y-93574700D01*
X168574600Y-93567700D01*
X168599600Y-93561700D01*
X168625600Y-93556700D01*
X168651600Y-93553700D01*
X168677600Y-93551700D01*
X168703600Y-93550700D01*
X168729600Y-93551700D01*
%TA.AperFunction,EtchedComponent*%
G36*
X168729600Y-93551700D02*
G01*
X168755600Y-93553700D01*
X168781600Y-93556700D01*
X168807600Y-93561700D01*
X168832600Y-93567700D01*
X168858600Y-93574700D01*
X168882600Y-93583700D01*
X168906600Y-93593700D01*
X168930600Y-93604700D01*
X168953600Y-93617700D01*
X168975600Y-93631700D01*
X168997600Y-93645700D01*
X169018600Y-93661700D01*
X169038600Y-93678700D01*
X169057600Y-93696700D01*
X169075600Y-93715700D01*
X169092600Y-93735700D01*
X169108600Y-93756700D01*
X169122600Y-93778700D01*
X169136600Y-93800700D01*
X169149600Y-93823700D01*
X169160600Y-93847700D01*
X169170600Y-93871700D01*
X169179600Y-93895700D01*
X169186600Y-93921700D01*
X169192600Y-93946700D01*
X169197600Y-93972700D01*
X169200600Y-93998700D01*
X169202600Y-94024700D01*
X169203600Y-94050700D01*
X169203600Y-95250700D01*
X169202600Y-95276700D01*
X169200600Y-95302700D01*
X169197600Y-95328700D01*
X169192600Y-95354700D01*
X169186600Y-95379700D01*
X169179600Y-95405700D01*
X169170600Y-95429700D01*
X169160600Y-95453700D01*
X169149600Y-95477700D01*
X169136600Y-95500700D01*
X169122600Y-95522700D01*
X169108600Y-95544700D01*
X169092600Y-95565700D01*
X169075600Y-95585700D01*
X169057600Y-95604700D01*
X169038600Y-95622700D01*
X169018600Y-95639700D01*
X168997600Y-95655700D01*
X168975600Y-95669700D01*
X168953600Y-95683700D01*
X168930600Y-95696700D01*
X168906600Y-95707700D01*
X168882600Y-95717700D01*
X168858600Y-95726700D01*
X168832600Y-95733700D01*
X168807600Y-95739700D01*
X168781600Y-95744700D01*
X168755600Y-95747700D01*
X168729600Y-95749700D01*
X168703600Y-95750700D01*
X168677600Y-95749700D01*
X168651600Y-95747700D01*
X168625600Y-95744700D01*
X168599600Y-95739700D01*
X168574600Y-95733700D01*
X168548600Y-95726700D01*
X168524600Y-95717700D01*
X168500600Y-95707700D01*
X168476600Y-95696700D01*
X168453600Y-95683700D01*
X168431600Y-95669700D01*
X168409600Y-95655700D01*
X168388600Y-95639700D01*
X168368600Y-95622700D01*
X168349600Y-95604700D01*
X168331600Y-95585700D01*
X168314600Y-95565700D01*
X168298600Y-95544700D01*
X168284600Y-95522700D01*
X168270600Y-95500700D01*
X168257600Y-95477700D01*
X168246600Y-95453700D01*
X168236600Y-95429700D01*
X168227600Y-95405700D01*
X168220600Y-95379700D01*
X168214600Y-95354700D01*
X168209600Y-95328700D01*
X168206600Y-95302700D01*
X168204600Y-95276700D01*
X168203600Y-95250700D01*
X168203600Y-94050700D01*
X168204600Y-94024700D01*
X168206600Y-93998700D01*
X168209600Y-93972700D01*
X168214600Y-93946700D01*
X168220600Y-93921700D01*
X168227600Y-93895700D01*
X168236600Y-93871700D01*
X168246600Y-93847700D01*
X168257600Y-93823700D01*
X168270600Y-93800700D01*
X168284600Y-93778700D01*
X168298600Y-93756700D01*
X168314600Y-93735700D01*
X168331600Y-93715700D01*
X168349600Y-93696700D01*
X168368600Y-93678700D01*
X168388600Y-93661700D01*
X168409600Y-93645700D01*
X168431600Y-93631700D01*
X168453600Y-93617700D01*
X168476600Y-93604700D01*
X168500600Y-93593700D01*
X168524600Y-93583700D01*
X168548600Y-93574700D01*
X168574600Y-93567700D01*
X168599600Y-93561700D01*
X168625600Y-93556700D01*
X168651600Y-93553700D01*
X168677600Y-93551700D01*
X168703600Y-93550700D01*
X168729600Y-93551700D01*
G37*
%TD.AperFunction*%
%TD*%
D11*
%TO.P,U2,21,PAD*%
%TO.N,GND*%
X125481600Y-61536400D03*
X126381600Y-61536400D03*
D12*
X125931600Y-61136400D03*
D11*
X125481600Y-60736400D03*
X126381600Y-60736400D03*
%TD*%
D13*
%TO.P,J2,1,1*%
%TO.N,Net-(U3-in+1)*%
X116174213Y-88112054D03*
%TO.P,J2,2,2*%
%TO.N,Net-(U5-V)*%
X116428213Y-85572054D03*
%TO.P,J2,3,3*%
%TO.N,Net-(U3-in+2)*%
X116174213Y-83032054D03*
%TD*%
D14*
%TO.P,J11,S1,SHELL_GND*%
%TO.N,unconnected-(J11-SHELL_GND-PadS1)*%
X160053600Y-94650700D03*
%TO.P,J11,S2,SHELL_GND*%
%TO.N,unconnected-(J11-SHELL_GND-PadS2)*%
X168703600Y-90450700D03*
%TO.P,J11,S3,SHELL_GND*%
%TO.N,unconnected-(J11-SHELL_GND-PadS3)*%
X160053600Y-90450700D03*
%TO.P,J11,S4,SHELL_GND*%
%TO.N,unconnected-(J11-SHELL_GND-PadS4)*%
X168703600Y-94650700D03*
%TD*%
D13*
%TO.P,J10,1,Pin_1*%
%TO.N,Net-(J10-Pin_1)*%
X182515000Y-63777800D03*
%TO.P,J10,2,Pin_2*%
%TO.N,Net-(J10-Pin_2)*%
X182515000Y-60882200D03*
%TD*%
D11*
%TO.P,U5,21,PAD*%
%TO.N,GND*%
X125389938Y-85894093D03*
X126289938Y-85894093D03*
D12*
X125839938Y-85494093D03*
D11*
X125389938Y-85094093D03*
X126289938Y-85094093D03*
%TD*%
D13*
%TO.P,J1,1,1*%
%TO.N,Net-(U4-in+1)*%
X116257000Y-63754000D03*
%TO.P,J1,2,2*%
%TO.N,Net-(U2-V)*%
X116511000Y-61214000D03*
%TO.P,J1,3,3*%
%TO.N,Net-(U4-in+2)*%
X116257000Y-58674000D03*
%TD*%
%TO.P,J9,1,Pin_1*%
%TO.N,+3.3V*%
X182344000Y-86610000D03*
%TO.P,J9,2,Pin_2*%
%TO.N,+5V*%
X182598000Y-84070000D03*
%TO.P,J9,3,Pin_3*%
%TO.N,GND*%
X182344000Y-81530000D03*
%TO.P,J9,4,Pin_4*%
%TO.N,gpio47*%
X182598000Y-78990000D03*
%TO.P,J9,5,Pin_5*%
%TO.N,gpio38*%
X182344000Y-76450000D03*
%TO.P,J9,6,Pin_6*%
%TO.N,Net-(J9-Pin_6)*%
X182598000Y-73910000D03*
%TO.P,J9,7,Pin_7*%
%TO.N,Net-(J9-Pin_7)*%
X182344000Y-71370000D03*
%TO.P,J9,8,Pin_8*%
%TO.N,Net-(J9-Pin_8)*%
X182598000Y-68830000D03*
%TO.P,J9,9,Pin_9*%
%TO.N,Net-(J9-Pin_9)*%
X182344000Y-66290000D03*
%TD*%
D15*
%TO.P,J8,1,+*%
%TO.N,+BATT*%
X150668062Y-53472238D03*
D16*
%TO.P,J8,2,-*%
%TO.N,GND*%
X145668062Y-53472238D03*
%TD*%
D17*
%TO.N,+BATT*%
X122642802Y-86943201D03*
D18*
X125624500Y-65250000D03*
X139050000Y-60930000D03*
D17*
X123535134Y-89300134D03*
X122732800Y-62585600D03*
X122732800Y-61772800D03*
X122642802Y-86130401D03*
%TO.N,GND*%
X161544000Y-81026000D03*
X158328060Y-81671940D03*
X166274001Y-83563600D03*
D18*
X164740000Y-66980000D03*
D17*
X118782002Y-86689201D03*
X154686000Y-94234000D03*
D18*
X164740000Y-68380000D03*
D17*
X161590842Y-82809158D03*
X124401600Y-62188400D03*
D18*
X116735000Y-74676000D03*
D17*
X157628060Y-80971940D03*
X159044166Y-82433634D03*
D18*
X166140000Y-65580000D03*
D17*
X159590842Y-80809158D03*
D18*
X123337570Y-73660000D03*
D17*
X171450000Y-87884000D03*
D18*
X135689493Y-89801810D03*
D17*
X159778060Y-83121940D03*
D18*
X166140000Y-68380000D03*
D17*
X177800000Y-87600000D03*
X157480000Y-87884000D03*
X131000000Y-71500000D03*
D18*
X137520000Y-60904365D03*
D17*
X132956940Y-63543060D03*
X157825500Y-78750000D03*
X124351602Y-84426001D03*
D18*
X164735137Y-65597355D03*
D17*
X156878060Y-80221940D03*
D18*
X137900000Y-70975500D03*
X166140000Y-66980000D03*
D17*
X143500000Y-84300000D03*
X160419981Y-83809449D03*
D18*
X167540000Y-66980000D03*
D17*
X156342637Y-79578908D03*
D18*
X167540000Y-68380000D03*
X174800000Y-59200000D03*
D17*
X141524000Y-89900000D03*
X119727546Y-62136006D03*
D18*
X138000000Y-73750000D03*
D17*
X158496000Y-83820000D03*
X124311602Y-86546001D03*
X124441600Y-60068400D03*
X125625500Y-82290000D03*
X160890842Y-82109158D03*
X118872000Y-62331600D03*
X161036000Y-88392000D03*
X144559980Y-67875500D03*
D18*
X167540000Y-65580000D03*
D17*
X158283364Y-79501678D03*
X167640000Y-88392000D03*
X160200000Y-59700000D03*
D18*
X172530000Y-79340000D03*
D17*
X131114800Y-89013600D03*
X119637548Y-86493607D03*
X156322500Y-78680558D03*
X125490000Y-57470000D03*
D18*
X137900000Y-68500000D03*
D17*
X158940842Y-80159158D03*
X160190842Y-81409158D03*
X154686000Y-89300000D03*
D18*
%TO.N,+3.3V*%
X148185362Y-87725395D03*
X148844000Y-90932000D03*
D17*
X156000000Y-60300000D03*
X125476000Y-79006000D03*
X148500000Y-77100000D03*
D18*
X119380000Y-76708000D03*
D17*
X175000000Y-82600000D03*
X125072469Y-73406000D03*
X128778000Y-58420000D03*
X128590000Y-81710000D03*
X126746000Y-73406000D03*
D18*
X170830000Y-80730000D03*
D17*
X124129800Y-67538600D03*
%TO.N,Net-(U3-in-1)*%
X125000000Y-90673500D03*
X129427830Y-88977500D03*
%TO.N,Net-(U3-in+1)*%
X130327526Y-89152900D03*
X125600000Y-91350000D03*
%TO.N,Net-(U3-ref_1)*%
X131775200Y-88073800D03*
X132100000Y-82950000D03*
X125943348Y-83248850D03*
%TO.N,/motor_controls/standby*%
X127421731Y-79763000D03*
X126492000Y-67640200D03*
X127104261Y-59503500D03*
X127740000Y-82470000D03*
%TO.N,+5V*%
X160528000Y-87630000D03*
X169926000Y-86614000D03*
X157480000Y-84455000D03*
X139599292Y-65785500D03*
X156210000Y-87884000D03*
X164338000Y-84582000D03*
X168500000Y-85900000D03*
X152654000Y-87884000D03*
D18*
X150070000Y-59790000D03*
D17*
X168402000Y-87630000D03*
X155448000Y-84836000D03*
%TO.N,Net-(U7-VFB)*%
X141400000Y-67900000D03*
D18*
%TO.N,m1_enc_cs*%
X122851991Y-69148009D03*
D17*
X175006000Y-71882000D03*
D18*
%TO.N,m2_enc_cs*%
X121920000Y-73660000D03*
D17*
X173228000Y-75692000D03*
%TO.N,m2_uh*%
X158600000Y-78300000D03*
X146106940Y-77706940D03*
%TO.N,m2_ul*%
X140250000Y-78750000D03*
X168148000Y-75692000D03*
%TO.N,m2_vh*%
X144531940Y-78281940D03*
X160600000Y-78621500D03*
%TO.N,m2_vl*%
X136900000Y-79300000D03*
X170688000Y-75692000D03*
%TO.N,m2_wh*%
X165608000Y-75692000D03*
X142113440Y-79513440D03*
%TO.N,m2_wl*%
X138500000Y-79000000D03*
X169418000Y-75692000D03*
%TO.N,m1_uh*%
X131150000Y-67150000D03*
X127000000Y-65500000D03*
X154391439Y-67300500D03*
%TO.N,m1_ul*%
X157200000Y-66700000D03*
X132789823Y-65500000D03*
X127939800Y-62941200D03*
%TO.N,m1_vh*%
X133700000Y-66700000D03*
X128400000Y-65618700D03*
X153900000Y-66585969D03*
%TO.N,m1_vl*%
X157000000Y-64075500D03*
X137700000Y-63400000D03*
X127939800Y-59503500D03*
%TO.N,m1_wh*%
X135600000Y-66075500D03*
X129446099Y-64700000D03*
X154693060Y-66006940D03*
%TO.N,m1_wl*%
X136100000Y-64100000D03*
X156200000Y-64600000D03*
X131600000Y-61100000D03*
%TO.N,Net-(J11-DP1)*%
X164800000Y-87517500D03*
X164126101Y-88722573D03*
%TO.N,Net-(U1-EN)*%
X160100000Y-62300000D03*
X153400000Y-67900000D03*
%TO.N,m2_current_sense_u*%
X133200000Y-82750000D03*
D18*
X156464000Y-71460500D03*
D17*
%TO.N,m2_current_sense_w*%
X139400000Y-82100000D03*
X166878000Y-75692000D03*
D18*
%TO.N,Net-(J10-Pin_1)*%
X174940000Y-63420000D03*
D17*
%TO.N,m1_current_sense_w*%
X129908326Y-57568045D03*
X157734000Y-63246000D03*
%TO.N,m1_current_sense_u*%
X129421099Y-63280167D03*
X157325503Y-65828100D03*
%TO.N,enc_scl*%
X175006000Y-73152000D03*
D18*
X120904000Y-70612000D03*
%TO.N,enc_sda*%
X120037570Y-72644000D03*
D17*
X175006000Y-74422000D03*
D18*
%TO.N,sda*%
X141732000Y-92456000D03*
D17*
X175125750Y-61574250D03*
D18*
X146812000Y-88392000D03*
D17*
X173482000Y-59930500D03*
D18*
%TO.N,scl*%
X146812000Y-91440000D03*
X144780000Y-93472000D03*
D17*
%TO.N,gpio38*%
X177770000Y-81480000D03*
X150900000Y-80010000D03*
D18*
%TO.N,gpio47*%
X154144667Y-70779500D03*
D17*
X152000000Y-81000000D03*
X155299500Y-82000000D03*
X171958000Y-75692000D03*
%TD*%
D19*
%TO.N,GND*%
X137520000Y-60904365D02*
X138624365Y-59800000D01*
X145668062Y-55981938D02*
X145668062Y-53472238D01*
X141850000Y-59800000D02*
X145668062Y-55981938D01*
X138624365Y-59800000D02*
X141850000Y-59800000D01*
D20*
%TO.N,+3.3V*%
X124129800Y-67538600D02*
X123751600Y-67160400D01*
D21*
X148336000Y-89916000D02*
X148844000Y-90424000D01*
D20*
X125792261Y-59418400D02*
X126790661Y-58420000D01*
D21*
X148185362Y-87725395D02*
X148185362Y-89765362D01*
D20*
X128590000Y-81710000D02*
X128071231Y-81191231D01*
D22*
X121491652Y-76708000D02*
X119380000Y-76708000D01*
D20*
X128071231Y-79493261D02*
X127583970Y-79006000D01*
D21*
X148844000Y-90424000D02*
X148844000Y-90932000D01*
D20*
X128071231Y-81191231D02*
X128071231Y-79493261D01*
X126790661Y-58420000D02*
X128778000Y-58420000D01*
X127583970Y-79006000D02*
X125476000Y-79006000D01*
D22*
X125476000Y-73406000D02*
X124793652Y-73406000D01*
X126746000Y-73406000D02*
X125476000Y-73406000D01*
D20*
X123751600Y-67160400D02*
X123751600Y-59839161D01*
D22*
X125476000Y-73406000D02*
X125072469Y-73406000D01*
D20*
X124172361Y-59418400D02*
X125792261Y-59418400D01*
D21*
X148185362Y-89765362D02*
X148336000Y-89916000D01*
D20*
X123751600Y-59839161D02*
X124172361Y-59418400D01*
D22*
X124793652Y-73406000D02*
X121491652Y-76708000D01*
D21*
%TO.N,Net-(U3-in-1)*%
X127731830Y-90673500D02*
X129427830Y-88977500D01*
X125000000Y-90673500D02*
X127731830Y-90673500D01*
%TO.N,Net-(U3-in+1)*%
X125600000Y-91350000D02*
X128500000Y-91350000D01*
X130327526Y-89522474D02*
X130327526Y-89152900D01*
X128500000Y-91350000D02*
X130327526Y-89522474D01*
D23*
%TO.N,Net-(U3-ref_1)*%
X132080000Y-87769000D02*
X131775200Y-88073800D01*
X128140909Y-83361101D02*
X126055599Y-83361101D01*
X132000000Y-83050000D02*
X128452010Y-83050000D01*
X128452010Y-83050000D02*
X128140909Y-83361101D01*
X132100000Y-82950000D02*
X132080000Y-82970000D01*
X132080000Y-82970000D02*
X132080000Y-87769000D01*
X126055599Y-83361101D02*
X125943348Y-83248850D01*
X132100000Y-82950000D02*
X132000000Y-83050000D01*
%TO.N,/motor_controls/standby*%
X127740000Y-82470000D02*
X127421731Y-82151731D01*
X127104261Y-62015739D02*
X127104261Y-59503500D01*
X126300000Y-62820000D02*
X127104261Y-62015739D01*
X126300000Y-67448200D02*
X126300000Y-62820000D01*
X127421731Y-82151731D02*
X127421731Y-79763000D01*
X126492000Y-67640200D02*
X126300000Y-67448200D01*
D19*
%TO.N,+5V*%
X172720000Y-83820000D02*
X169926000Y-86614000D01*
X182598000Y-84070000D02*
X182348000Y-83820000D01*
X182348000Y-83820000D02*
X172720000Y-83820000D01*
D23*
%TO.N,m1_enc_cs*%
X171900000Y-66300000D02*
X175006000Y-69406000D01*
X138356009Y-68000000D02*
X140212785Y-68000000D01*
X140212785Y-68000000D02*
X140712785Y-68500000D01*
X122851991Y-69148009D02*
X123783800Y-68216200D01*
X156100000Y-68500000D02*
X156600000Y-68000000D01*
X159700000Y-66300000D02*
X171900000Y-66300000D01*
X175006000Y-69406000D02*
X175006000Y-71882000D01*
X140712785Y-68500000D02*
X156100000Y-68500000D01*
X127695788Y-68216200D02*
X128093988Y-67818000D01*
X138174009Y-67818000D02*
X138356009Y-68000000D01*
X128093988Y-67818000D02*
X138174009Y-67818000D01*
X156600000Y-68000000D02*
X158000000Y-68000000D01*
X123783800Y-68216200D02*
X127695788Y-68216200D01*
X158000000Y-68000000D02*
X159700000Y-66300000D01*
%TO.N,m2_enc_cs*%
X128728480Y-70299500D02*
X138180009Y-70299500D01*
X157225500Y-70103500D02*
X157480000Y-70358000D01*
X169858000Y-70358000D02*
X173228000Y-73728000D01*
X138376009Y-70103500D02*
X157225500Y-70103500D01*
X121920000Y-73660000D02*
X124931991Y-70648009D01*
X128379971Y-70648009D02*
X128728480Y-70299500D01*
X138180009Y-70299500D02*
X138376009Y-70103500D01*
X124931991Y-70648009D02*
X128379971Y-70648009D01*
X173228000Y-73728000D02*
X173228000Y-75692000D01*
X157480000Y-70358000D02*
X169858000Y-70358000D01*
%TO.N,m2_uh*%
X146505058Y-78105058D02*
X146106940Y-77706940D01*
X158600000Y-78300000D02*
X158405058Y-78105058D01*
X158405058Y-78105058D02*
X146505058Y-78105058D01*
%TO.N,m2_ul*%
X140250000Y-78750000D02*
X140550000Y-78750000D01*
X140550000Y-78750000D02*
X146100000Y-73200000D01*
X162200000Y-73800000D02*
X166100000Y-73800000D01*
X161600000Y-73200000D02*
X162200000Y-73800000D01*
X167992000Y-75692000D02*
X168148000Y-75692000D01*
X166100000Y-73800000D02*
X167992000Y-75692000D01*
X146100000Y-73200000D02*
X161600000Y-73200000D01*
%TO.N,m2_vh*%
X155024000Y-77724000D02*
X159702500Y-77724000D01*
X153148000Y-75848000D02*
X155024000Y-77724000D01*
X144531940Y-78281940D02*
X144718060Y-78281940D01*
X159702500Y-77724000D02*
X160600000Y-78621500D01*
X147152000Y-75848000D02*
X153148000Y-75848000D01*
X144718060Y-78281940D02*
X147152000Y-75848000D01*
%TO.N,m2_vl*%
X156998509Y-71882000D02*
X167894000Y-71882000D01*
X156114815Y-72067324D02*
X156183991Y-72136500D01*
X136900000Y-79300000D02*
X144132676Y-72067324D01*
X156744009Y-72136500D02*
X156998509Y-71882000D01*
X170688000Y-74676000D02*
X170688000Y-75692000D01*
X156183991Y-72136500D02*
X156744009Y-72136500D01*
X167894000Y-71882000D02*
X170688000Y-74676000D01*
X144132676Y-72067324D02*
X156114815Y-72067324D01*
%TO.N,m2_wh*%
X142113440Y-79513440D02*
X142236560Y-79513440D01*
X161392000Y-75692000D02*
X165608000Y-75692000D01*
X160400000Y-74700000D02*
X161392000Y-75692000D01*
X142236560Y-79513440D02*
X147050000Y-74700000D01*
X147050000Y-74700000D02*
X160400000Y-74700000D01*
%TO.N,m2_wl*%
X169418000Y-75018000D02*
X169418000Y-75692000D01*
X145256000Y-72644000D02*
X162844000Y-72644000D01*
X167300000Y-72900000D02*
X169418000Y-75018000D01*
X162844000Y-72644000D02*
X163100000Y-72900000D01*
X163100000Y-72900000D02*
X167300000Y-72900000D01*
X138500000Y-79000000D02*
X138900000Y-79000000D01*
X138900000Y-79000000D02*
X145256000Y-72644000D01*
%TO.N,m1_uh*%
X127000000Y-65500000D02*
X128650000Y-67150000D01*
X128650000Y-67150000D02*
X131150000Y-67150000D01*
X154391439Y-67300500D02*
X154390939Y-67300000D01*
X131299500Y-67299500D02*
X131150000Y-67150000D01*
X146499500Y-67299500D02*
X131299500Y-67299500D01*
X146500000Y-67300000D02*
X146499500Y-67299500D01*
X154390939Y-67300000D02*
X146500000Y-67300000D01*
%TO.N,m1_ul*%
X138200000Y-65500000D02*
X132789823Y-65500000D01*
X131064067Y-63855667D02*
X128879667Y-63855667D01*
X156200000Y-66700000D02*
X154710000Y-65210000D01*
X157200000Y-66700000D02*
X156200000Y-66700000D01*
X132708400Y-65500000D02*
X131064067Y-63855667D01*
X132789823Y-65500000D02*
X132708400Y-65500000D01*
X138490000Y-65210000D02*
X138200000Y-65500000D01*
X127965200Y-62941200D02*
X127939800Y-62941200D01*
X154710000Y-65210000D02*
X138490000Y-65210000D01*
X128879667Y-63855667D02*
X127965200Y-62941200D01*
%TO.N,m1_vh*%
X134600000Y-66800000D02*
X134500000Y-66700000D01*
X131851000Y-66700000D02*
X130769700Y-65618700D01*
X153900000Y-66585969D02*
X153685969Y-66800000D01*
X153685969Y-66800000D02*
X134600000Y-66800000D01*
X130769700Y-65618700D02*
X128400000Y-65618700D01*
X133700000Y-66700000D02*
X131851000Y-66700000D01*
X134500000Y-66700000D02*
X133700000Y-66700000D01*
%TO.N,m1_vl*%
X157000000Y-64075500D02*
X156324500Y-63400000D01*
X156324500Y-63400000D02*
X137700000Y-63400000D01*
X135400000Y-63400000D02*
X131503500Y-59503500D01*
X137700000Y-63400000D02*
X135400000Y-63400000D01*
X131503500Y-59503500D02*
X127939800Y-59503500D01*
%TO.N,m1_wh*%
X130790800Y-64700000D02*
X129446099Y-64700000D01*
X154693060Y-66006940D02*
X154689531Y-66010469D01*
X139099912Y-66100000D02*
X132190800Y-66100000D01*
X140176000Y-66010469D02*
X140176000Y-66024088D01*
X140176000Y-66024088D02*
X139838588Y-66361500D01*
X139361412Y-66361500D02*
X139099912Y-66100000D01*
X139838588Y-66361500D02*
X139361412Y-66361500D01*
X132190800Y-66100000D02*
X130790800Y-64700000D01*
X154689531Y-66010469D02*
X140176000Y-66010469D01*
%TO.N,m1_wl*%
X156200000Y-64600000D02*
X155700000Y-64100000D01*
X134600000Y-64100000D02*
X136100000Y-64100000D01*
X131600000Y-61100000D02*
X134600000Y-64100000D01*
X155700000Y-64100000D02*
X136100000Y-64100000D01*
%TO.N,Net-(J11-DP1)*%
X164800000Y-87517500D02*
X164126101Y-88191399D01*
X164126101Y-88191399D02*
X164126101Y-88722573D01*
D21*
%TO.N,Net-(U1-EN)*%
X155500000Y-67300000D02*
X154900000Y-67900000D01*
X154900000Y-67900000D02*
X153400000Y-67900000D01*
X160100000Y-62300000D02*
X160300000Y-62500000D01*
X160300000Y-64448529D02*
X157448529Y-67300000D01*
X160300000Y-62500000D02*
X160300000Y-64448529D01*
X157448529Y-67300000D02*
X155500000Y-67300000D01*
D23*
%TO.N,m2_current_sense_u*%
X153869658Y-71460500D02*
X153529158Y-71120000D01*
X133200000Y-80956009D02*
X133200000Y-82750000D01*
X143036009Y-71120000D02*
X133200000Y-80956009D01*
X153529158Y-71120000D02*
X143036009Y-71120000D01*
X156464000Y-71460500D02*
X153869658Y-71460500D01*
%TO.N,m2_current_sense_w*%
X146550000Y-73900000D02*
X160800000Y-73900000D01*
X140100000Y-81400000D02*
X140100000Y-80350000D01*
X140100000Y-80350000D02*
X146550000Y-73900000D01*
X160800000Y-73900000D02*
X161700000Y-74800000D01*
X139400000Y-82100000D02*
X140100000Y-81400000D01*
X165986000Y-74800000D02*
X166878000Y-75692000D01*
X161700000Y-74800000D02*
X165986000Y-74800000D01*
D21*
%TO.N,Net-(J10-Pin_1)*%
X179680000Y-63180000D02*
X175180000Y-63180000D01*
X175180000Y-63180000D02*
X174940000Y-63420000D01*
X182515000Y-63777800D02*
X180277800Y-63777800D01*
X180277800Y-63777800D02*
X179680000Y-63180000D01*
D23*
%TO.N,m1_current_sense_w*%
X136600000Y-62700000D02*
X146213412Y-62700000D01*
X131468045Y-57568045D02*
X136600000Y-62700000D01*
X146213412Y-62700000D02*
X146319412Y-62806000D01*
X157294000Y-62806000D02*
X157734000Y-63246000D01*
X129908326Y-57568045D02*
X131468045Y-57568045D01*
X146319412Y-62806000D02*
X157294000Y-62806000D01*
%TO.N,m1_current_sense_u*%
X155200000Y-64700000D02*
X133300000Y-64700000D01*
X157325503Y-65828100D02*
X156328100Y-65828100D01*
X131880167Y-63280167D02*
X129421099Y-63280167D01*
X133300000Y-64700000D02*
X131880167Y-63280167D01*
X156328100Y-65828100D02*
X155200000Y-64700000D01*
%TO.N,enc_scl*%
X163694000Y-67700000D02*
X171300000Y-67700000D01*
X138385921Y-68970088D02*
X158359912Y-68970088D01*
X162863236Y-68530764D02*
X163694000Y-67700000D01*
X174100000Y-70500000D02*
X174100000Y-72100000D01*
X175006000Y-73006000D02*
X175006000Y-73152000D01*
X137343991Y-68900000D02*
X137619991Y-69176000D01*
X124233910Y-68900000D02*
X137343991Y-68900000D01*
X137619991Y-69176000D02*
X138180009Y-69176000D01*
X171300000Y-67700000D02*
X174100000Y-70500000D01*
X120904000Y-70612000D02*
X122521910Y-70612000D01*
X158799236Y-68530764D02*
X162863236Y-68530764D01*
X138180009Y-69176000D02*
X138385921Y-68970088D01*
X158359912Y-68970088D02*
X158799236Y-68530764D01*
X122521910Y-70612000D02*
X124233910Y-68900000D01*
X174100000Y-72100000D02*
X175006000Y-73006000D01*
%TO.N,enc_sda*%
X175006000Y-74422000D02*
X175006000Y-74206000D01*
X171496000Y-69596000D02*
X124035714Y-69596000D01*
X173000000Y-72200000D02*
X173000000Y-71100000D01*
X124035714Y-69596000D02*
X120987714Y-72644000D01*
X175006000Y-74206000D02*
X173000000Y-72200000D01*
X120987714Y-72644000D02*
X120037570Y-72644000D01*
X173000000Y-71100000D02*
X171496000Y-69596000D01*
D24*
%TO.N,sda*%
X141732000Y-92456000D02*
X142748000Y-92456000D01*
X142748000Y-92456000D02*
X146812000Y-88392000D01*
D21*
X175125750Y-61574250D02*
X173482000Y-59930500D01*
D24*
%TO.N,scl*%
X144780000Y-93472000D02*
X146812000Y-91440000D01*
D23*
%TO.N,gpio38*%
X161139944Y-85344000D02*
X155805944Y-80010000D01*
X177226000Y-82024000D02*
X164864000Y-82024000D01*
X155805944Y-80010000D02*
X150900000Y-80010000D01*
X164864000Y-82024000D02*
X161544000Y-85344000D01*
X161544000Y-85344000D02*
X161139944Y-85344000D01*
X177770000Y-81480000D02*
X177226000Y-82024000D01*
%TO.N,gpio47*%
X175006000Y-78740000D02*
X182348000Y-78740000D01*
X152000000Y-81000000D02*
X154299500Y-81000000D01*
X171958000Y-74168000D02*
X171958000Y-75692000D01*
X168910000Y-71120000D02*
X171958000Y-74168000D01*
X156739009Y-70779500D02*
X157079509Y-71120000D01*
X154299500Y-81000000D02*
X155299500Y-82000000D01*
X154144667Y-70779500D02*
X156739009Y-70779500D01*
X182348000Y-78740000D02*
X182598000Y-78990000D01*
X171958000Y-75692000D02*
X175006000Y-78740000D01*
X157079509Y-71120000D02*
X168910000Y-71120000D01*
%TD*%
%TA.AperFunction,Conductor*%
%TO.N,+5V*%
G36*
X159748591Y-84347685D02*
G01*
X159769233Y-84364319D01*
X160916537Y-85511623D01*
X160931954Y-85530407D01*
X160940599Y-85543345D01*
X160963684Y-85558770D01*
X160963686Y-85558772D01*
X161032059Y-85604457D01*
X161032061Y-85604457D01*
X161032063Y-85604458D01*
X161118677Y-85621687D01*
X161118692Y-85621688D01*
X161139944Y-85625916D01*
X161155197Y-85622881D01*
X161179387Y-85620500D01*
X161504557Y-85620500D01*
X161528746Y-85622881D01*
X161544000Y-85625916D01*
X161565253Y-85621688D01*
X161565267Y-85621687D01*
X161651880Y-85604458D01*
X161651880Y-85604457D01*
X161651885Y-85604457D01*
X161720258Y-85558772D01*
X161720258Y-85558771D01*
X161733688Y-85549798D01*
X161733691Y-85549795D01*
X161743345Y-85543345D01*
X161751986Y-85530411D01*
X161767402Y-85511626D01*
X162914710Y-84364318D01*
X162976033Y-84330834D01*
X163002391Y-84328000D01*
X170056000Y-84328000D01*
X170123039Y-84347685D01*
X170168794Y-84400489D01*
X170180000Y-84452000D01*
X170180000Y-88014000D01*
X170160315Y-88081039D01*
X170107511Y-88126794D01*
X170056000Y-88138000D01*
X168138793Y-88138000D01*
X168071754Y-88118315D01*
X168045080Y-88095203D01*
X167971128Y-88009857D01*
X167850053Y-87932047D01*
X167850051Y-87932046D01*
X167850049Y-87932045D01*
X167850050Y-87932045D01*
X167711963Y-87891500D01*
X167711961Y-87891500D01*
X167568039Y-87891500D01*
X167568036Y-87891500D01*
X167429949Y-87932045D01*
X167308873Y-88009856D01*
X167308872Y-88009856D01*
X167308872Y-88009857D01*
X167301542Y-88018317D01*
X167234920Y-88095203D01*
X167176142Y-88132977D01*
X167141207Y-88138000D01*
X165182543Y-88138000D01*
X165115504Y-88118315D01*
X165069749Y-88065511D01*
X165059805Y-87996353D01*
X165088830Y-87932797D01*
X165115503Y-87909685D01*
X165120567Y-87906429D01*
X165131128Y-87899643D01*
X165225377Y-87790873D01*
X165285165Y-87659957D01*
X165305647Y-87517500D01*
X165285165Y-87375043D01*
X165225377Y-87244127D01*
X165131128Y-87135357D01*
X165010053Y-87057547D01*
X165010051Y-87057546D01*
X165010049Y-87057545D01*
X165010050Y-87057545D01*
X164871963Y-87017000D01*
X164871961Y-87017000D01*
X164728039Y-87017000D01*
X164728036Y-87017000D01*
X164589949Y-87057545D01*
X164468873Y-87135356D01*
X164374623Y-87244126D01*
X164374622Y-87244128D01*
X164314834Y-87375043D01*
X164294353Y-87517500D01*
X164299927Y-87556271D01*
X164289983Y-87625430D01*
X164264870Y-87661598D01*
X163958476Y-87967992D01*
X163939690Y-87983410D01*
X163926756Y-87992052D01*
X163909206Y-88018317D01*
X163909199Y-88018327D01*
X163866061Y-88082890D01*
X163812449Y-88127696D01*
X163762958Y-88138000D01*
X161534793Y-88138000D01*
X161467754Y-88118315D01*
X161441080Y-88095203D01*
X161367128Y-88009857D01*
X161246053Y-87932047D01*
X161246051Y-87932046D01*
X161246049Y-87932045D01*
X161246050Y-87932045D01*
X161107963Y-87891500D01*
X161107961Y-87891500D01*
X160964039Y-87891500D01*
X160964036Y-87891500D01*
X160825949Y-87932045D01*
X160704873Y-88009856D01*
X160704872Y-88009856D01*
X160704872Y-88009857D01*
X160697542Y-88018317D01*
X160630920Y-88095203D01*
X160572142Y-88132977D01*
X160537207Y-88138000D01*
X158092231Y-88138000D01*
X158025192Y-88118315D01*
X157979437Y-88065511D01*
X157969493Y-87996353D01*
X157970111Y-87992054D01*
X157985647Y-87884000D01*
X157965165Y-87741543D01*
X157905377Y-87610627D01*
X157811128Y-87501857D01*
X157690053Y-87424047D01*
X157690051Y-87424046D01*
X157690049Y-87424045D01*
X157690050Y-87424045D01*
X157551963Y-87383500D01*
X157551961Y-87383500D01*
X157408039Y-87383500D01*
X157408036Y-87383500D01*
X157269949Y-87424045D01*
X157148873Y-87501856D01*
X157054623Y-87610626D01*
X157054622Y-87610628D01*
X156994834Y-87741543D01*
X156987742Y-87790873D01*
X156974353Y-87884000D01*
X156989888Y-87992052D01*
X156990507Y-87996353D01*
X156980563Y-88065511D01*
X156934808Y-88118315D01*
X156867769Y-88138000D01*
X152445362Y-88138000D01*
X152378323Y-88118315D01*
X152332568Y-88065511D01*
X152322624Y-87996353D01*
X152351649Y-87932797D01*
X152357681Y-87926319D01*
X153267000Y-87017000D01*
X154686000Y-85598000D01*
X154897664Y-84539681D01*
X154920064Y-84427682D01*
X154952514Y-84365804D01*
X155013266Y-84331294D01*
X155041656Y-84328000D01*
X159681552Y-84328000D01*
X159748591Y-84347685D01*
G37*
%TD.AperFunction*%
%TD*%
M02*
