%TF.GenerationSoftware,KiCad,Pcbnew,7.0.2*%
%TF.CreationDate,2023-10-03T18:08:59-04:00*%
%TF.ProjectId,mini_motor_go_V1_rev2,6d696e69-5f6d-46f7-946f-725f676f5f56,rev?*%
%TF.SameCoordinates,Original*%
%TF.FileFunction,Copper,L4,Bot*%
%TF.FilePolarity,Positive*%
%FSLAX46Y46*%
G04 Gerber Fmt 4.6, Leading zero omitted, Abs format (unit mm)*
G04 Created by KiCad (PCBNEW 7.0.2) date 2023-10-03 18:08:59*
%MOMM*%
%LPD*%
G01*
G04 APERTURE LIST*
G04 Aperture macros list*
%AMRoundRect*
0 Rectangle with rounded corners*
0 $1 Rounding radius*
0 $2 $3 $4 $5 $6 $7 $8 $9 X,Y pos of 4 corners*
0 Add a 4 corners polygon primitive as box body*
4,1,4,$2,$3,$4,$5,$6,$7,$8,$9,$2,$3,0*
0 Add four circle primitives for the rounded corners*
1,1,$1+$1,$2,$3*
1,1,$1+$1,$4,$5*
1,1,$1+$1,$6,$7*
1,1,$1+$1,$8,$9*
0 Add four rect primitives between the rounded corners*
20,1,$1+$1,$2,$3,$4,$5,0*
20,1,$1+$1,$4,$5,$6,$7,0*
20,1,$1+$1,$6,$7,$8,$9,0*
20,1,$1+$1,$8,$9,$2,$3,0*%
G04 Aperture macros list end*
%TA.AperFunction,EtchedComponent*%
%ADD10C,0.010000*%
%TD*%
%TA.AperFunction,ComponentPad*%
%ADD11O,0.800000X1.600000*%
%TD*%
%TA.AperFunction,ComponentPad*%
%ADD12C,0.600000*%
%TD*%
%TA.AperFunction,SMDPad,CuDef*%
%ADD13R,1.700000X1.700000*%
%TD*%
%TA.AperFunction,ComponentPad*%
%ADD14C,1.879600*%
%TD*%
%TA.AperFunction,ComponentPad*%
%ADD15RoundRect,1.250000X1.250000X1.250000X-1.250000X1.250000X-1.250000X-1.250000X1.250000X-1.250000X0*%
%TD*%
%TA.AperFunction,ComponentPad*%
%ADD16C,6.000000*%
%TD*%
%TA.AperFunction,ViaPad*%
%ADD17C,0.800000*%
%TD*%
%TA.AperFunction,ViaPad*%
%ADD18C,0.600000*%
%TD*%
%TA.AperFunction,Conductor*%
%ADD19C,0.152000*%
%TD*%
%TA.AperFunction,Conductor*%
%ADD20C,1.000000*%
%TD*%
%TA.AperFunction,Conductor*%
%ADD21C,0.500000*%
%TD*%
%TA.AperFunction,Conductor*%
%ADD22C,0.250000*%
%TD*%
%TA.AperFunction,Conductor*%
%ADD23C,0.200000*%
%TD*%
%TA.AperFunction,Conductor*%
%ADD24C,0.300000*%
%TD*%
G04 APERTURE END LIST*
%TO.C,J11*%
D10*
X160079600Y-89551700D02*
X160105600Y-89553700D01*
X160131600Y-89556700D01*
X160157600Y-89561700D01*
X160182600Y-89567700D01*
X160208600Y-89574700D01*
X160232600Y-89583700D01*
X160256600Y-89593700D01*
X160280600Y-89604700D01*
X160303600Y-89617700D01*
X160325600Y-89631700D01*
X160347600Y-89645700D01*
X160368600Y-89661700D01*
X160388600Y-89678700D01*
X160407600Y-89696700D01*
X160425600Y-89715700D01*
X160442600Y-89735700D01*
X160458600Y-89756700D01*
X160472600Y-89778700D01*
X160486600Y-89800700D01*
X160499600Y-89823700D01*
X160510600Y-89847700D01*
X160520600Y-89871700D01*
X160529600Y-89895700D01*
X160536600Y-89921700D01*
X160542600Y-89946700D01*
X160547600Y-89972700D01*
X160550600Y-89998700D01*
X160552600Y-90024700D01*
X160553600Y-90050700D01*
X160553600Y-90850700D01*
X160552600Y-90876700D01*
X160550600Y-90902700D01*
X160547600Y-90928700D01*
X160542600Y-90954700D01*
X160536600Y-90979700D01*
X160529600Y-91005700D01*
X160520600Y-91029700D01*
X160510600Y-91053700D01*
X160499600Y-91077700D01*
X160486600Y-91100700D01*
X160472600Y-91122700D01*
X160458600Y-91144700D01*
X160442600Y-91165700D01*
X160425600Y-91185700D01*
X160407600Y-91204700D01*
X160388600Y-91222700D01*
X160368600Y-91239700D01*
X160347600Y-91255700D01*
X160325600Y-91269700D01*
X160303600Y-91283700D01*
X160280600Y-91296700D01*
X160256600Y-91307700D01*
X160232600Y-91317700D01*
X160208600Y-91326700D01*
X160182600Y-91333700D01*
X160157600Y-91339700D01*
X160131600Y-91344700D01*
X160105600Y-91347700D01*
X160079600Y-91349700D01*
X160053600Y-91350700D01*
X160027600Y-91349700D01*
X160001600Y-91347700D01*
X159975600Y-91344700D01*
X159949600Y-91339700D01*
X159924600Y-91333700D01*
X159898600Y-91326700D01*
X159874600Y-91317700D01*
X159850600Y-91307700D01*
X159826600Y-91296700D01*
X159803600Y-91283700D01*
X159781600Y-91269700D01*
X159759600Y-91255700D01*
X159738600Y-91239700D01*
X159718600Y-91222700D01*
X159699600Y-91204700D01*
X159681600Y-91185700D01*
X159664600Y-91165700D01*
X159648600Y-91144700D01*
X159634600Y-91122700D01*
X159620600Y-91100700D01*
X159607600Y-91077700D01*
X159596600Y-91053700D01*
X159586600Y-91029700D01*
X159577600Y-91005700D01*
X159570600Y-90979700D01*
X159564600Y-90954700D01*
X159559600Y-90928700D01*
X159556600Y-90902700D01*
X159554600Y-90876700D01*
X159553600Y-90850700D01*
X159553600Y-90050700D01*
X159554600Y-90024700D01*
X159556600Y-89998700D01*
X159559600Y-89972700D01*
X159564600Y-89946700D01*
X159570600Y-89921700D01*
X159577600Y-89895700D01*
X159586600Y-89871700D01*
X159596600Y-89847700D01*
X159607600Y-89823700D01*
X159620600Y-89800700D01*
X159634600Y-89778700D01*
X159648600Y-89756700D01*
X159664600Y-89735700D01*
X159681600Y-89715700D01*
X159699600Y-89696700D01*
X159718600Y-89678700D01*
X159738600Y-89661700D01*
X159759600Y-89645700D01*
X159781600Y-89631700D01*
X159803600Y-89617700D01*
X159826600Y-89604700D01*
X159850600Y-89593700D01*
X159874600Y-89583700D01*
X159898600Y-89574700D01*
X159924600Y-89567700D01*
X159949600Y-89561700D01*
X159975600Y-89556700D01*
X160001600Y-89553700D01*
X160027600Y-89551700D01*
X160053600Y-89550700D01*
X160079600Y-89551700D01*
%TA.AperFunction,EtchedComponent*%
G36*
X160079600Y-89551700D02*
G01*
X160105600Y-89553700D01*
X160131600Y-89556700D01*
X160157600Y-89561700D01*
X160182600Y-89567700D01*
X160208600Y-89574700D01*
X160232600Y-89583700D01*
X160256600Y-89593700D01*
X160280600Y-89604700D01*
X160303600Y-89617700D01*
X160325600Y-89631700D01*
X160347600Y-89645700D01*
X160368600Y-89661700D01*
X160388600Y-89678700D01*
X160407600Y-89696700D01*
X160425600Y-89715700D01*
X160442600Y-89735700D01*
X160458600Y-89756700D01*
X160472600Y-89778700D01*
X160486600Y-89800700D01*
X160499600Y-89823700D01*
X160510600Y-89847700D01*
X160520600Y-89871700D01*
X160529600Y-89895700D01*
X160536600Y-89921700D01*
X160542600Y-89946700D01*
X160547600Y-89972700D01*
X160550600Y-89998700D01*
X160552600Y-90024700D01*
X160553600Y-90050700D01*
X160553600Y-90850700D01*
X160552600Y-90876700D01*
X160550600Y-90902700D01*
X160547600Y-90928700D01*
X160542600Y-90954700D01*
X160536600Y-90979700D01*
X160529600Y-91005700D01*
X160520600Y-91029700D01*
X160510600Y-91053700D01*
X160499600Y-91077700D01*
X160486600Y-91100700D01*
X160472600Y-91122700D01*
X160458600Y-91144700D01*
X160442600Y-91165700D01*
X160425600Y-91185700D01*
X160407600Y-91204700D01*
X160388600Y-91222700D01*
X160368600Y-91239700D01*
X160347600Y-91255700D01*
X160325600Y-91269700D01*
X160303600Y-91283700D01*
X160280600Y-91296700D01*
X160256600Y-91307700D01*
X160232600Y-91317700D01*
X160208600Y-91326700D01*
X160182600Y-91333700D01*
X160157600Y-91339700D01*
X160131600Y-91344700D01*
X160105600Y-91347700D01*
X160079600Y-91349700D01*
X160053600Y-91350700D01*
X160027600Y-91349700D01*
X160001600Y-91347700D01*
X159975600Y-91344700D01*
X159949600Y-91339700D01*
X159924600Y-91333700D01*
X159898600Y-91326700D01*
X159874600Y-91317700D01*
X159850600Y-91307700D01*
X159826600Y-91296700D01*
X159803600Y-91283700D01*
X159781600Y-91269700D01*
X159759600Y-91255700D01*
X159738600Y-91239700D01*
X159718600Y-91222700D01*
X159699600Y-91204700D01*
X159681600Y-91185700D01*
X159664600Y-91165700D01*
X159648600Y-91144700D01*
X159634600Y-91122700D01*
X159620600Y-91100700D01*
X159607600Y-91077700D01*
X159596600Y-91053700D01*
X159586600Y-91029700D01*
X159577600Y-91005700D01*
X159570600Y-90979700D01*
X159564600Y-90954700D01*
X159559600Y-90928700D01*
X159556600Y-90902700D01*
X159554600Y-90876700D01*
X159553600Y-90850700D01*
X159553600Y-90050700D01*
X159554600Y-90024700D01*
X159556600Y-89998700D01*
X159559600Y-89972700D01*
X159564600Y-89946700D01*
X159570600Y-89921700D01*
X159577600Y-89895700D01*
X159586600Y-89871700D01*
X159596600Y-89847700D01*
X159607600Y-89823700D01*
X159620600Y-89800700D01*
X159634600Y-89778700D01*
X159648600Y-89756700D01*
X159664600Y-89735700D01*
X159681600Y-89715700D01*
X159699600Y-89696700D01*
X159718600Y-89678700D01*
X159738600Y-89661700D01*
X159759600Y-89645700D01*
X159781600Y-89631700D01*
X159803600Y-89617700D01*
X159826600Y-89604700D01*
X159850600Y-89593700D01*
X159874600Y-89583700D01*
X159898600Y-89574700D01*
X159924600Y-89567700D01*
X159949600Y-89561700D01*
X159975600Y-89556700D01*
X160001600Y-89553700D01*
X160027600Y-89551700D01*
X160053600Y-89550700D01*
X160079600Y-89551700D01*
G37*
%TD.AperFunction*%
X160079600Y-93601700D02*
X160105600Y-93603700D01*
X160131600Y-93606700D01*
X160157600Y-93611700D01*
X160182600Y-93617700D01*
X160208600Y-93624700D01*
X160232600Y-93633700D01*
X160256600Y-93643700D01*
X160280600Y-93654700D01*
X160303600Y-93667700D01*
X160325600Y-93681700D01*
X160347600Y-93695700D01*
X160368600Y-93711700D01*
X160388600Y-93728700D01*
X160407600Y-93746700D01*
X160425600Y-93765700D01*
X160442600Y-93785700D01*
X160458600Y-93806700D01*
X160472600Y-93828700D01*
X160486600Y-93850700D01*
X160499600Y-93873700D01*
X160510600Y-93897700D01*
X160520600Y-93921700D01*
X160529600Y-93945700D01*
X160536600Y-93971700D01*
X160542600Y-93996700D01*
X160547600Y-94022700D01*
X160550600Y-94048700D01*
X160552600Y-94074700D01*
X160553600Y-94100700D01*
X160553600Y-95300700D01*
X160552600Y-95326700D01*
X160550600Y-95352700D01*
X160547600Y-95378700D01*
X160542600Y-95404700D01*
X160536600Y-95429700D01*
X160529600Y-95455700D01*
X160520600Y-95479700D01*
X160510600Y-95503700D01*
X160499600Y-95527700D01*
X160486600Y-95550700D01*
X160472600Y-95572700D01*
X160458600Y-95594700D01*
X160442600Y-95615700D01*
X160425600Y-95635700D01*
X160407600Y-95654700D01*
X160388600Y-95672700D01*
X160368600Y-95689700D01*
X160347600Y-95705700D01*
X160325600Y-95719700D01*
X160303600Y-95733700D01*
X160280600Y-95746700D01*
X160256600Y-95757700D01*
X160232600Y-95767700D01*
X160208600Y-95776700D01*
X160182600Y-95783700D01*
X160157600Y-95789700D01*
X160131600Y-95794700D01*
X160105600Y-95797700D01*
X160079600Y-95799700D01*
X160053600Y-95800700D01*
X160027600Y-95799700D01*
X160001600Y-95797700D01*
X159975600Y-95794700D01*
X159949600Y-95789700D01*
X159924600Y-95783700D01*
X159898600Y-95776700D01*
X159874600Y-95767700D01*
X159850600Y-95757700D01*
X159826600Y-95746700D01*
X159803600Y-95733700D01*
X159781600Y-95719700D01*
X159759600Y-95705700D01*
X159738600Y-95689700D01*
X159718600Y-95672700D01*
X159699600Y-95654700D01*
X159681600Y-95635700D01*
X159664600Y-95615700D01*
X159648600Y-95594700D01*
X159634600Y-95572700D01*
X159620600Y-95550700D01*
X159607600Y-95527700D01*
X159596600Y-95503700D01*
X159586600Y-95479700D01*
X159577600Y-95455700D01*
X159570600Y-95429700D01*
X159564600Y-95404700D01*
X159559600Y-95378700D01*
X159556600Y-95352700D01*
X159554600Y-95326700D01*
X159553600Y-95300700D01*
X159553600Y-94100700D01*
X159554600Y-94074700D01*
X159556600Y-94048700D01*
X159559600Y-94022700D01*
X159564600Y-93996700D01*
X159570600Y-93971700D01*
X159577600Y-93945700D01*
X159586600Y-93921700D01*
X159596600Y-93897700D01*
X159607600Y-93873700D01*
X159620600Y-93850700D01*
X159634600Y-93828700D01*
X159648600Y-93806700D01*
X159664600Y-93785700D01*
X159681600Y-93765700D01*
X159699600Y-93746700D01*
X159718600Y-93728700D01*
X159738600Y-93711700D01*
X159759600Y-93695700D01*
X159781600Y-93681700D01*
X159803600Y-93667700D01*
X159826600Y-93654700D01*
X159850600Y-93643700D01*
X159874600Y-93633700D01*
X159898600Y-93624700D01*
X159924600Y-93617700D01*
X159949600Y-93611700D01*
X159975600Y-93606700D01*
X160001600Y-93603700D01*
X160027600Y-93601700D01*
X160053600Y-93600700D01*
X160079600Y-93601700D01*
%TA.AperFunction,EtchedComponent*%
G36*
X160079600Y-93601700D02*
G01*
X160105600Y-93603700D01*
X160131600Y-93606700D01*
X160157600Y-93611700D01*
X160182600Y-93617700D01*
X160208600Y-93624700D01*
X160232600Y-93633700D01*
X160256600Y-93643700D01*
X160280600Y-93654700D01*
X160303600Y-93667700D01*
X160325600Y-93681700D01*
X160347600Y-93695700D01*
X160368600Y-93711700D01*
X160388600Y-93728700D01*
X160407600Y-93746700D01*
X160425600Y-93765700D01*
X160442600Y-93785700D01*
X160458600Y-93806700D01*
X160472600Y-93828700D01*
X160486600Y-93850700D01*
X160499600Y-93873700D01*
X160510600Y-93897700D01*
X160520600Y-93921700D01*
X160529600Y-93945700D01*
X160536600Y-93971700D01*
X160542600Y-93996700D01*
X160547600Y-94022700D01*
X160550600Y-94048700D01*
X160552600Y-94074700D01*
X160553600Y-94100700D01*
X160553600Y-95300700D01*
X160552600Y-95326700D01*
X160550600Y-95352700D01*
X160547600Y-95378700D01*
X160542600Y-95404700D01*
X160536600Y-95429700D01*
X160529600Y-95455700D01*
X160520600Y-95479700D01*
X160510600Y-95503700D01*
X160499600Y-95527700D01*
X160486600Y-95550700D01*
X160472600Y-95572700D01*
X160458600Y-95594700D01*
X160442600Y-95615700D01*
X160425600Y-95635700D01*
X160407600Y-95654700D01*
X160388600Y-95672700D01*
X160368600Y-95689700D01*
X160347600Y-95705700D01*
X160325600Y-95719700D01*
X160303600Y-95733700D01*
X160280600Y-95746700D01*
X160256600Y-95757700D01*
X160232600Y-95767700D01*
X160208600Y-95776700D01*
X160182600Y-95783700D01*
X160157600Y-95789700D01*
X160131600Y-95794700D01*
X160105600Y-95797700D01*
X160079600Y-95799700D01*
X160053600Y-95800700D01*
X160027600Y-95799700D01*
X160001600Y-95797700D01*
X159975600Y-95794700D01*
X159949600Y-95789700D01*
X159924600Y-95783700D01*
X159898600Y-95776700D01*
X159874600Y-95767700D01*
X159850600Y-95757700D01*
X159826600Y-95746700D01*
X159803600Y-95733700D01*
X159781600Y-95719700D01*
X159759600Y-95705700D01*
X159738600Y-95689700D01*
X159718600Y-95672700D01*
X159699600Y-95654700D01*
X159681600Y-95635700D01*
X159664600Y-95615700D01*
X159648600Y-95594700D01*
X159634600Y-95572700D01*
X159620600Y-95550700D01*
X159607600Y-95527700D01*
X159596600Y-95503700D01*
X159586600Y-95479700D01*
X159577600Y-95455700D01*
X159570600Y-95429700D01*
X159564600Y-95404700D01*
X159559600Y-95378700D01*
X159556600Y-95352700D01*
X159554600Y-95326700D01*
X159553600Y-95300700D01*
X159553600Y-94100700D01*
X159554600Y-94074700D01*
X159556600Y-94048700D01*
X159559600Y-94022700D01*
X159564600Y-93996700D01*
X159570600Y-93971700D01*
X159577600Y-93945700D01*
X159586600Y-93921700D01*
X159596600Y-93897700D01*
X159607600Y-93873700D01*
X159620600Y-93850700D01*
X159634600Y-93828700D01*
X159648600Y-93806700D01*
X159664600Y-93785700D01*
X159681600Y-93765700D01*
X159699600Y-93746700D01*
X159718600Y-93728700D01*
X159738600Y-93711700D01*
X159759600Y-93695700D01*
X159781600Y-93681700D01*
X159803600Y-93667700D01*
X159826600Y-93654700D01*
X159850600Y-93643700D01*
X159874600Y-93633700D01*
X159898600Y-93624700D01*
X159924600Y-93617700D01*
X159949600Y-93611700D01*
X159975600Y-93606700D01*
X160001600Y-93603700D01*
X160027600Y-93601700D01*
X160053600Y-93600700D01*
X160079600Y-93601700D01*
G37*
%TD.AperFunction*%
X168729600Y-89551700D02*
X168755600Y-89553700D01*
X168781600Y-89556700D01*
X168807600Y-89561700D01*
X168832600Y-89567700D01*
X168858600Y-89574700D01*
X168882600Y-89583700D01*
X168906600Y-89593700D01*
X168930600Y-89604700D01*
X168953600Y-89617700D01*
X168975600Y-89631700D01*
X168997600Y-89645700D01*
X169018600Y-89661700D01*
X169038600Y-89678700D01*
X169057600Y-89696700D01*
X169075600Y-89715700D01*
X169092600Y-89735700D01*
X169108600Y-89756700D01*
X169122600Y-89778700D01*
X169136600Y-89800700D01*
X169149600Y-89823700D01*
X169160600Y-89847700D01*
X169170600Y-89871700D01*
X169179600Y-89895700D01*
X169186600Y-89921700D01*
X169192600Y-89946700D01*
X169197600Y-89972700D01*
X169200600Y-89998700D01*
X169202600Y-90024700D01*
X169203600Y-90050700D01*
X169203600Y-90850700D01*
X169202600Y-90876700D01*
X169200600Y-90902700D01*
X169197600Y-90928700D01*
X169192600Y-90954700D01*
X169186600Y-90979700D01*
X169179600Y-91005700D01*
X169170600Y-91029700D01*
X169160600Y-91053700D01*
X169149600Y-91077700D01*
X169136600Y-91100700D01*
X169122600Y-91122700D01*
X169108600Y-91144700D01*
X169092600Y-91165700D01*
X169075600Y-91185700D01*
X169057600Y-91204700D01*
X169038600Y-91222700D01*
X169018600Y-91239700D01*
X168997600Y-91255700D01*
X168975600Y-91269700D01*
X168953600Y-91283700D01*
X168930600Y-91296700D01*
X168906600Y-91307700D01*
X168882600Y-91317700D01*
X168858600Y-91326700D01*
X168832600Y-91333700D01*
X168807600Y-91339700D01*
X168781600Y-91344700D01*
X168755600Y-91347700D01*
X168729600Y-91349700D01*
X168703600Y-91350700D01*
X168677600Y-91349700D01*
X168651600Y-91347700D01*
X168625600Y-91344700D01*
X168599600Y-91339700D01*
X168574600Y-91333700D01*
X168548600Y-91326700D01*
X168524600Y-91317700D01*
X168500600Y-91307700D01*
X168476600Y-91296700D01*
X168453600Y-91283700D01*
X168431600Y-91269700D01*
X168409600Y-91255700D01*
X168388600Y-91239700D01*
X168368600Y-91222700D01*
X168349600Y-91204700D01*
X168331600Y-91185700D01*
X168314600Y-91165700D01*
X168298600Y-91144700D01*
X168284600Y-91122700D01*
X168270600Y-91100700D01*
X168257600Y-91077700D01*
X168246600Y-91053700D01*
X168236600Y-91029700D01*
X168227600Y-91005700D01*
X168220600Y-90979700D01*
X168214600Y-90954700D01*
X168209600Y-90928700D01*
X168206600Y-90902700D01*
X168204600Y-90876700D01*
X168203600Y-90850700D01*
X168203600Y-90050700D01*
X168204600Y-90024700D01*
X168206600Y-89998700D01*
X168209600Y-89972700D01*
X168214600Y-89946700D01*
X168220600Y-89921700D01*
X168227600Y-89895700D01*
X168236600Y-89871700D01*
X168246600Y-89847700D01*
X168257600Y-89823700D01*
X168270600Y-89800700D01*
X168284600Y-89778700D01*
X168298600Y-89756700D01*
X168314600Y-89735700D01*
X168331600Y-89715700D01*
X168349600Y-89696700D01*
X168368600Y-89678700D01*
X168388600Y-89661700D01*
X168409600Y-89645700D01*
X168431600Y-89631700D01*
X168453600Y-89617700D01*
X168476600Y-89604700D01*
X168500600Y-89593700D01*
X168524600Y-89583700D01*
X168548600Y-89574700D01*
X168574600Y-89567700D01*
X168599600Y-89561700D01*
X168625600Y-89556700D01*
X168651600Y-89553700D01*
X168677600Y-89551700D01*
X168703600Y-89550700D01*
X168729600Y-89551700D01*
%TA.AperFunction,EtchedComponent*%
G36*
X168729600Y-89551700D02*
G01*
X168755600Y-89553700D01*
X168781600Y-89556700D01*
X168807600Y-89561700D01*
X168832600Y-89567700D01*
X168858600Y-89574700D01*
X168882600Y-89583700D01*
X168906600Y-89593700D01*
X168930600Y-89604700D01*
X168953600Y-89617700D01*
X168975600Y-89631700D01*
X168997600Y-89645700D01*
X169018600Y-89661700D01*
X169038600Y-89678700D01*
X169057600Y-89696700D01*
X169075600Y-89715700D01*
X169092600Y-89735700D01*
X169108600Y-89756700D01*
X169122600Y-89778700D01*
X169136600Y-89800700D01*
X169149600Y-89823700D01*
X169160600Y-89847700D01*
X169170600Y-89871700D01*
X169179600Y-89895700D01*
X169186600Y-89921700D01*
X169192600Y-89946700D01*
X169197600Y-89972700D01*
X169200600Y-89998700D01*
X169202600Y-90024700D01*
X169203600Y-90050700D01*
X169203600Y-90850700D01*
X169202600Y-90876700D01*
X169200600Y-90902700D01*
X169197600Y-90928700D01*
X169192600Y-90954700D01*
X169186600Y-90979700D01*
X169179600Y-91005700D01*
X169170600Y-91029700D01*
X169160600Y-91053700D01*
X169149600Y-91077700D01*
X169136600Y-91100700D01*
X169122600Y-91122700D01*
X169108600Y-91144700D01*
X169092600Y-91165700D01*
X169075600Y-91185700D01*
X169057600Y-91204700D01*
X169038600Y-91222700D01*
X169018600Y-91239700D01*
X168997600Y-91255700D01*
X168975600Y-91269700D01*
X168953600Y-91283700D01*
X168930600Y-91296700D01*
X168906600Y-91307700D01*
X168882600Y-91317700D01*
X168858600Y-91326700D01*
X168832600Y-91333700D01*
X168807600Y-91339700D01*
X168781600Y-91344700D01*
X168755600Y-91347700D01*
X168729600Y-91349700D01*
X168703600Y-91350700D01*
X168677600Y-91349700D01*
X168651600Y-91347700D01*
X168625600Y-91344700D01*
X168599600Y-91339700D01*
X168574600Y-91333700D01*
X168548600Y-91326700D01*
X168524600Y-91317700D01*
X168500600Y-91307700D01*
X168476600Y-91296700D01*
X168453600Y-91283700D01*
X168431600Y-91269700D01*
X168409600Y-91255700D01*
X168388600Y-91239700D01*
X168368600Y-91222700D01*
X168349600Y-91204700D01*
X168331600Y-91185700D01*
X168314600Y-91165700D01*
X168298600Y-91144700D01*
X168284600Y-91122700D01*
X168270600Y-91100700D01*
X168257600Y-91077700D01*
X168246600Y-91053700D01*
X168236600Y-91029700D01*
X168227600Y-91005700D01*
X168220600Y-90979700D01*
X168214600Y-90954700D01*
X168209600Y-90928700D01*
X168206600Y-90902700D01*
X168204600Y-90876700D01*
X168203600Y-90850700D01*
X168203600Y-90050700D01*
X168204600Y-90024700D01*
X168206600Y-89998700D01*
X168209600Y-89972700D01*
X168214600Y-89946700D01*
X168220600Y-89921700D01*
X168227600Y-89895700D01*
X168236600Y-89871700D01*
X168246600Y-89847700D01*
X168257600Y-89823700D01*
X168270600Y-89800700D01*
X168284600Y-89778700D01*
X168298600Y-89756700D01*
X168314600Y-89735700D01*
X168331600Y-89715700D01*
X168349600Y-89696700D01*
X168368600Y-89678700D01*
X168388600Y-89661700D01*
X168409600Y-89645700D01*
X168431600Y-89631700D01*
X168453600Y-89617700D01*
X168476600Y-89604700D01*
X168500600Y-89593700D01*
X168524600Y-89583700D01*
X168548600Y-89574700D01*
X168574600Y-89567700D01*
X168599600Y-89561700D01*
X168625600Y-89556700D01*
X168651600Y-89553700D01*
X168677600Y-89551700D01*
X168703600Y-89550700D01*
X168729600Y-89551700D01*
G37*
%TD.AperFunction*%
X168729600Y-93551700D02*
X168755600Y-93553700D01*
X168781600Y-93556700D01*
X168807600Y-93561700D01*
X168832600Y-93567700D01*
X168858600Y-93574700D01*
X168882600Y-93583700D01*
X168906600Y-93593700D01*
X168930600Y-93604700D01*
X168953600Y-93617700D01*
X168975600Y-93631700D01*
X168997600Y-93645700D01*
X169018600Y-93661700D01*
X169038600Y-93678700D01*
X169057600Y-93696700D01*
X169075600Y-93715700D01*
X169092600Y-93735700D01*
X169108600Y-93756700D01*
X169122600Y-93778700D01*
X169136600Y-93800700D01*
X169149600Y-93823700D01*
X169160600Y-93847700D01*
X169170600Y-93871700D01*
X169179600Y-93895700D01*
X169186600Y-93921700D01*
X169192600Y-93946700D01*
X169197600Y-93972700D01*
X169200600Y-93998700D01*
X169202600Y-94024700D01*
X169203600Y-94050700D01*
X169203600Y-95250700D01*
X169202600Y-95276700D01*
X169200600Y-95302700D01*
X169197600Y-95328700D01*
X169192600Y-95354700D01*
X169186600Y-95379700D01*
X169179600Y-95405700D01*
X169170600Y-95429700D01*
X169160600Y-95453700D01*
X169149600Y-95477700D01*
X169136600Y-95500700D01*
X169122600Y-95522700D01*
X169108600Y-95544700D01*
X169092600Y-95565700D01*
X169075600Y-95585700D01*
X169057600Y-95604700D01*
X169038600Y-95622700D01*
X169018600Y-95639700D01*
X168997600Y-95655700D01*
X168975600Y-95669700D01*
X168953600Y-95683700D01*
X168930600Y-95696700D01*
X168906600Y-95707700D01*
X168882600Y-95717700D01*
X168858600Y-95726700D01*
X168832600Y-95733700D01*
X168807600Y-95739700D01*
X168781600Y-95744700D01*
X168755600Y-95747700D01*
X168729600Y-95749700D01*
X168703600Y-95750700D01*
X168677600Y-95749700D01*
X168651600Y-95747700D01*
X168625600Y-95744700D01*
X168599600Y-95739700D01*
X168574600Y-95733700D01*
X168548600Y-95726700D01*
X168524600Y-95717700D01*
X168500600Y-95707700D01*
X168476600Y-95696700D01*
X168453600Y-95683700D01*
X168431600Y-95669700D01*
X168409600Y-95655700D01*
X168388600Y-95639700D01*
X168368600Y-95622700D01*
X168349600Y-95604700D01*
X168331600Y-95585700D01*
X168314600Y-95565700D01*
X168298600Y-95544700D01*
X168284600Y-95522700D01*
X168270600Y-95500700D01*
X168257600Y-95477700D01*
X168246600Y-95453700D01*
X168236600Y-95429700D01*
X168227600Y-95405700D01*
X168220600Y-95379700D01*
X168214600Y-95354700D01*
X168209600Y-95328700D01*
X168206600Y-95302700D01*
X168204600Y-95276700D01*
X168203600Y-95250700D01*
X168203600Y-94050700D01*
X168204600Y-94024700D01*
X168206600Y-93998700D01*
X168209600Y-93972700D01*
X168214600Y-93946700D01*
X168220600Y-93921700D01*
X168227600Y-93895700D01*
X168236600Y-93871700D01*
X168246600Y-93847700D01*
X168257600Y-93823700D01*
X168270600Y-93800700D01*
X168284600Y-93778700D01*
X168298600Y-93756700D01*
X168314600Y-93735700D01*
X168331600Y-93715700D01*
X168349600Y-93696700D01*
X168368600Y-93678700D01*
X168388600Y-93661700D01*
X168409600Y-93645700D01*
X168431600Y-93631700D01*
X168453600Y-93617700D01*
X168476600Y-93604700D01*
X168500600Y-93593700D01*
X168524600Y-93583700D01*
X168548600Y-93574700D01*
X168574600Y-93567700D01*
X168599600Y-93561700D01*
X168625600Y-93556700D01*
X168651600Y-93553700D01*
X168677600Y-93551700D01*
X168703600Y-93550700D01*
X168729600Y-93551700D01*
%TA.AperFunction,EtchedComponent*%
G36*
X168729600Y-93551700D02*
G01*
X168755600Y-93553700D01*
X168781600Y-93556700D01*
X168807600Y-93561700D01*
X168832600Y-93567700D01*
X168858600Y-93574700D01*
X168882600Y-93583700D01*
X168906600Y-93593700D01*
X168930600Y-93604700D01*
X168953600Y-93617700D01*
X168975600Y-93631700D01*
X168997600Y-93645700D01*
X169018600Y-93661700D01*
X169038600Y-93678700D01*
X169057600Y-93696700D01*
X169075600Y-93715700D01*
X169092600Y-93735700D01*
X169108600Y-93756700D01*
X169122600Y-93778700D01*
X169136600Y-93800700D01*
X169149600Y-93823700D01*
X169160600Y-93847700D01*
X169170600Y-93871700D01*
X169179600Y-93895700D01*
X169186600Y-93921700D01*
X169192600Y-93946700D01*
X169197600Y-93972700D01*
X169200600Y-93998700D01*
X169202600Y-94024700D01*
X169203600Y-94050700D01*
X169203600Y-95250700D01*
X169202600Y-95276700D01*
X169200600Y-95302700D01*
X169197600Y-95328700D01*
X169192600Y-95354700D01*
X169186600Y-95379700D01*
X169179600Y-95405700D01*
X169170600Y-95429700D01*
X169160600Y-95453700D01*
X169149600Y-95477700D01*
X169136600Y-95500700D01*
X169122600Y-95522700D01*
X169108600Y-95544700D01*
X169092600Y-95565700D01*
X169075600Y-95585700D01*
X169057600Y-95604700D01*
X169038600Y-95622700D01*
X169018600Y-95639700D01*
X168997600Y-95655700D01*
X168975600Y-95669700D01*
X168953600Y-95683700D01*
X168930600Y-95696700D01*
X168906600Y-95707700D01*
X168882600Y-95717700D01*
X168858600Y-95726700D01*
X168832600Y-95733700D01*
X168807600Y-95739700D01*
X168781600Y-95744700D01*
X168755600Y-95747700D01*
X168729600Y-95749700D01*
X168703600Y-95750700D01*
X168677600Y-95749700D01*
X168651600Y-95747700D01*
X168625600Y-95744700D01*
X168599600Y-95739700D01*
X168574600Y-95733700D01*
X168548600Y-95726700D01*
X168524600Y-95717700D01*
X168500600Y-95707700D01*
X168476600Y-95696700D01*
X168453600Y-95683700D01*
X168431600Y-95669700D01*
X168409600Y-95655700D01*
X168388600Y-95639700D01*
X168368600Y-95622700D01*
X168349600Y-95604700D01*
X168331600Y-95585700D01*
X168314600Y-95565700D01*
X168298600Y-95544700D01*
X168284600Y-95522700D01*
X168270600Y-95500700D01*
X168257600Y-95477700D01*
X168246600Y-95453700D01*
X168236600Y-95429700D01*
X168227600Y-95405700D01*
X168220600Y-95379700D01*
X168214600Y-95354700D01*
X168209600Y-95328700D01*
X168206600Y-95302700D01*
X168204600Y-95276700D01*
X168203600Y-95250700D01*
X168203600Y-94050700D01*
X168204600Y-94024700D01*
X168206600Y-93998700D01*
X168209600Y-93972700D01*
X168214600Y-93946700D01*
X168220600Y-93921700D01*
X168227600Y-93895700D01*
X168236600Y-93871700D01*
X168246600Y-93847700D01*
X168257600Y-93823700D01*
X168270600Y-93800700D01*
X168284600Y-93778700D01*
X168298600Y-93756700D01*
X168314600Y-93735700D01*
X168331600Y-93715700D01*
X168349600Y-93696700D01*
X168368600Y-93678700D01*
X168388600Y-93661700D01*
X168409600Y-93645700D01*
X168431600Y-93631700D01*
X168453600Y-93617700D01*
X168476600Y-93604700D01*
X168500600Y-93593700D01*
X168524600Y-93583700D01*
X168548600Y-93574700D01*
X168574600Y-93567700D01*
X168599600Y-93561700D01*
X168625600Y-93556700D01*
X168651600Y-93553700D01*
X168677600Y-93551700D01*
X168703600Y-93550700D01*
X168729600Y-93551700D01*
G37*
%TD.AperFunction*%
%TD*%
D11*
%TO.P,J11,S1,SHELL_GND*%
%TO.N,unconnected-(J11-SHELL_GND-PadS1)*%
X160053600Y-94650700D03*
%TO.P,J11,S2,SHELL_GND*%
%TO.N,unconnected-(J11-SHELL_GND-PadS2)*%
X168703600Y-90450700D03*
%TO.P,J11,S3,SHELL_GND*%
%TO.N,unconnected-(J11-SHELL_GND-PadS3)*%
X160053600Y-90450700D03*
%TO.P,J11,S4,SHELL_GND*%
%TO.N,unconnected-(J11-SHELL_GND-PadS4)*%
X168703600Y-94650700D03*
%TD*%
D12*
%TO.P,U2,21,PAD*%
%TO.N,GND*%
X126381600Y-60736400D03*
X125481600Y-60736400D03*
D13*
X125931600Y-61136400D03*
D12*
X126381600Y-61536400D03*
X125481600Y-61536400D03*
%TD*%
D14*
%TO.P,J2,1,1*%
%TO.N,Net-(U3-in+1)*%
X116174213Y-88112054D03*
%TO.P,J2,2,2*%
%TO.N,Net-(U5-V)*%
X116428213Y-85572054D03*
%TO.P,J2,3,3*%
%TO.N,Net-(U3-in+2)*%
X116174213Y-83032054D03*
%TD*%
%TO.P,J10,1,Pin_1*%
%TO.N,Net-(J10-Pin_1)*%
X182475000Y-61157800D03*
%TO.P,J10,2,Pin_2*%
%TO.N,Net-(J10-Pin_2)*%
X182475000Y-58262200D03*
%TD*%
D12*
%TO.P,U5,21,PAD*%
%TO.N,GND*%
X126289938Y-85094093D03*
X125389938Y-85094093D03*
D13*
X125839938Y-85494093D03*
D12*
X126289938Y-85894093D03*
X125389938Y-85894093D03*
%TD*%
D14*
%TO.P,J1,1,1*%
%TO.N,Net-(U4-in+1)*%
X116257000Y-63754000D03*
%TO.P,J1,2,2*%
%TO.N,Net-(U2-V)*%
X116511000Y-61214000D03*
%TO.P,J1,3,3*%
%TO.N,Net-(U4-in+2)*%
X116257000Y-58674000D03*
%TD*%
%TO.P,J9,1,Pin_1*%
%TO.N,+3.3V*%
X182344000Y-86610000D03*
%TO.P,J9,2,Pin_2*%
%TO.N,+5V*%
X182598000Y-84070000D03*
%TO.P,J9,3,Pin_3*%
%TO.N,GND*%
X182344000Y-81530000D03*
%TO.P,J9,4,Pin_4*%
%TO.N,gpio8*%
X182598000Y-78990000D03*
%TO.P,J9,5,Pin_5*%
%TO.N,gpio38*%
X182344000Y-76450000D03*
%TO.P,J9,6,Pin_6*%
%TO.N,Net-(J9-Pin_6)*%
X182598000Y-73910000D03*
%TO.P,J9,7,Pin_7*%
%TO.N,Net-(J9-Pin_7)*%
X182344000Y-71370000D03*
%TO.P,J9,8,Pin_8*%
%TO.N,Net-(J9-Pin_8)*%
X182598000Y-68830000D03*
%TO.P,J9,9,Pin_9*%
%TO.N,Net-(J9-Pin_9)*%
X182344000Y-66290000D03*
%TD*%
D15*
%TO.P,J8,2,-*%
%TO.N,GND*%
X134924420Y-54075621D03*
D16*
%TO.P,J8,1,+*%
%TO.N,+BATT*%
X144924420Y-54075621D03*
%TD*%
D17*
%TO.N,GND*%
X138000000Y-73750000D03*
D18*
X157825500Y-78750000D03*
D17*
%TO.N,gpio8*%
X154144667Y-70779500D03*
%TO.N,m2_current_sense_u*%
X156464000Y-71460500D03*
%TO.N,scl*%
X144780000Y-93472000D03*
X146812000Y-91440000D03*
%TO.N,+3.3V*%
X148844000Y-90932000D03*
X148185362Y-87725395D03*
%TO.N,sda*%
X141732000Y-92456000D03*
X146812000Y-88392000D03*
%TO.N,GND*%
X135689493Y-89801810D03*
%TO.N,m2_enc_cs*%
X121920000Y-73660000D03*
%TO.N,+3.3V*%
X119380000Y-76708000D03*
%TO.N,enc_sda*%
X120037570Y-72644000D03*
%TO.N,GND*%
X123337570Y-73660000D03*
X116735000Y-74676000D03*
%TO.N,enc_scl*%
X120904000Y-70612000D03*
%TO.N,m1_enc_cs*%
X122851991Y-69148009D03*
D18*
%TO.N,+BATT*%
X122642802Y-86943201D03*
D17*
X125624500Y-65250000D03*
D18*
X123535134Y-89300134D03*
X122732800Y-62585600D03*
X122732800Y-61772800D03*
X122642802Y-86130401D03*
%TO.N,GND*%
X161544000Y-81026000D03*
X158328060Y-81671940D03*
X166274001Y-83563600D03*
D17*
X164740000Y-66980000D03*
D18*
X118782002Y-86689201D03*
X154686000Y-94234000D03*
D17*
X164740000Y-68380000D03*
D18*
X161590842Y-82809158D03*
X124401600Y-62188400D03*
X157628060Y-80971940D03*
X159044166Y-82433634D03*
D17*
X166140000Y-65580000D03*
D18*
X159590842Y-80809158D03*
X171450000Y-87884000D03*
X159778060Y-83121940D03*
D17*
X166140000Y-68380000D03*
D18*
X177800000Y-87600000D03*
X149250000Y-65786000D03*
X157480000Y-87884000D03*
X131000000Y-71500000D03*
X132956940Y-63543060D03*
X124351602Y-84426001D03*
D17*
X164735137Y-65597355D03*
D18*
X156878060Y-80221940D03*
D17*
X137900000Y-70975500D03*
X166140000Y-66980000D03*
D18*
X143500000Y-84300000D03*
X160419981Y-83809449D03*
D17*
X167540000Y-66980000D03*
D18*
X156342637Y-79578908D03*
D17*
X167540000Y-68380000D03*
X174800000Y-59200000D03*
D18*
X170264500Y-79712000D03*
X141524000Y-89900000D03*
X119727546Y-62136006D03*
X158496000Y-83820000D03*
X124311602Y-86546001D03*
X124441600Y-60068400D03*
X125301405Y-82618760D03*
X160890842Y-82109158D03*
X118872000Y-62331600D03*
X161036000Y-88392000D03*
X144559980Y-67875500D03*
D17*
X167540000Y-65580000D03*
D18*
X126238000Y-57658000D03*
X158283364Y-79501678D03*
X167640000Y-88392000D03*
X160200000Y-59700000D03*
X131114800Y-89013600D03*
X119637548Y-86493607D03*
X156322500Y-78680558D03*
X125730000Y-58420000D03*
D17*
X137900000Y-68500000D03*
D18*
X158940842Y-80159158D03*
X160190842Y-81409158D03*
X154686000Y-89300000D03*
%TO.N,+3.3V*%
X156000000Y-60300000D03*
X125476000Y-79006000D03*
X148500000Y-77100000D03*
X175000000Y-82600000D03*
X125072469Y-73406000D03*
X128778000Y-58420000D03*
X128071231Y-82616191D03*
X168539500Y-79712000D03*
X126746000Y-73406000D03*
X124129800Y-67538600D03*
%TO.N,Net-(U3-in-1)*%
X125000000Y-90673500D03*
X129427830Y-88977500D03*
%TO.N,Net-(U3-in+1)*%
X130327526Y-89152900D03*
X125600000Y-91350000D03*
%TO.N,Net-(U3-ref_1)*%
X131775200Y-88073800D03*
X132100000Y-82950000D03*
X125943348Y-83248850D03*
%TO.N,/motor_controls/standby*%
X127421731Y-79763000D03*
X126492000Y-67640200D03*
X127104261Y-59503500D03*
X126746000Y-82785101D03*
%TO.N,+5V*%
X160528000Y-87630000D03*
X150500000Y-67375500D03*
X169926000Y-86614000D03*
X157480000Y-84455000D03*
X139600000Y-65785500D03*
X156210000Y-87884000D03*
X164338000Y-84582000D03*
X168500000Y-85900000D03*
X152654000Y-87884000D03*
X141400000Y-67900000D03*
X168402000Y-87630000D03*
X155448000Y-84836000D03*
X150500000Y-61100000D03*
%TO.N,Net-(C11-Pad2)*%
X146558000Y-62230000D03*
X149000000Y-61111523D03*
%TO.N,m1_enc_cs*%
X175006000Y-71882000D03*
%TO.N,m2_enc_cs*%
X173228000Y-75692000D03*
%TO.N,m2_uh*%
X158600000Y-78300000D03*
X146106940Y-77706940D03*
%TO.N,m2_ul*%
X140250000Y-78750000D03*
X168148000Y-75692000D03*
%TO.N,m2_vh*%
X144531940Y-78281940D03*
X160600000Y-78621500D03*
%TO.N,m2_vl*%
X136900000Y-79300000D03*
X170688000Y-75692000D03*
%TO.N,m2_wh*%
X165608000Y-75692000D03*
X142113440Y-79513440D03*
%TO.N,m2_wl*%
X138500000Y-79000000D03*
X169418000Y-75692000D03*
%TO.N,m1_uh*%
X131150000Y-67150000D03*
X127000000Y-65500000D03*
X154391439Y-67300500D03*
%TO.N,m1_ul*%
X157200000Y-66700000D03*
X132789823Y-65500000D03*
X127939800Y-62941200D03*
%TO.N,m1_vh*%
X133700000Y-66700000D03*
X128400000Y-65618700D03*
X153900000Y-66585969D03*
%TO.N,m1_vl*%
X157000000Y-64075500D03*
X137700000Y-63400000D03*
X127939800Y-59503500D03*
%TO.N,m1_wh*%
X135600000Y-66075500D03*
X129446099Y-64700000D03*
X154693060Y-66006940D03*
%TO.N,m1_wl*%
X136100000Y-64100000D03*
X156200000Y-64600000D03*
X131600000Y-61100000D03*
%TO.N,Net-(J11-DP1)*%
X164800000Y-87517500D03*
X164126101Y-88722573D03*
%TO.N,Net-(U1-EN)*%
X160100000Y-62300000D03*
X153400000Y-67900000D03*
%TO.N,m2_current_sense_u*%
X133200000Y-82750000D03*
%TO.N,gpio8*%
X171958000Y-75692000D03*
%TO.N,m2_current_sense_w*%
X139400000Y-82100000D03*
X166878000Y-75692000D03*
%TO.N,m1_current_sense_w*%
X129908326Y-57568045D03*
X157734000Y-63246000D03*
%TO.N,m1_current_sense_u*%
X129421099Y-63280167D03*
X157325503Y-65828100D03*
%TO.N,enc_scl*%
X175006000Y-73152000D03*
%TO.N,enc_sda*%
X175006000Y-74422000D03*
%TO.N,sda*%
X175125750Y-61574250D03*
X173482000Y-59930500D03*
%TO.N,gpio8*%
X152000000Y-81000000D03*
X155299500Y-82000000D03*
%TO.N,gpio38*%
X179750000Y-79315500D03*
X150900000Y-80010000D03*
%TD*%
D19*
%TO.N,m1_uh*%
X146499500Y-67299500D02*
X131299500Y-67299500D01*
X147347500Y-68147500D02*
X146499500Y-67299500D01*
X131299500Y-67299500D02*
X131150000Y-67150000D01*
X151450000Y-67300000D02*
X150602500Y-68147500D01*
X150602500Y-68147500D02*
X147347500Y-68147500D01*
X154390939Y-67300000D02*
X151450000Y-67300000D01*
X154391439Y-67300500D02*
X154390939Y-67300000D01*
%TO.N,gpio8*%
X182348000Y-78740000D02*
X182598000Y-78990000D01*
X175006000Y-78740000D02*
X182348000Y-78740000D01*
X171958000Y-75692000D02*
X175006000Y-78740000D01*
D20*
%TO.N,+5V*%
X172720000Y-83820000D02*
X169926000Y-86614000D01*
X182598000Y-84070000D02*
X182348000Y-83820000D01*
X182348000Y-83820000D02*
X172720000Y-83820000D01*
D19*
%TO.N,m2_ul*%
X167992000Y-75692000D02*
X168148000Y-75692000D01*
X166100000Y-73800000D02*
X167992000Y-75692000D01*
X162200000Y-73800000D02*
X166100000Y-73800000D01*
X161600000Y-73200000D02*
X162200000Y-73800000D01*
X146100000Y-73200000D02*
X161600000Y-73200000D01*
X140550000Y-78750000D02*
X146100000Y-73200000D01*
X140250000Y-78750000D02*
X140550000Y-78750000D01*
%TO.N,gpio8*%
X154299500Y-81000000D02*
X155299500Y-82000000D01*
X152000000Y-81000000D02*
X154299500Y-81000000D01*
%TO.N,gpio38*%
X155805944Y-80010000D02*
X150900000Y-80010000D01*
X161544000Y-85344000D02*
X161139944Y-85344000D01*
X161139944Y-85344000D02*
X155805944Y-80010000D01*
X177226000Y-82024000D02*
X164864000Y-82024000D01*
X164864000Y-82024000D02*
X161544000Y-85344000D01*
X179750000Y-79500000D02*
X177226000Y-82024000D01*
X179750000Y-79315500D02*
X179750000Y-79500000D01*
%TO.N,m2_vl*%
X170688000Y-74676000D02*
X170688000Y-75692000D01*
X167894000Y-71882000D02*
X170688000Y-74676000D01*
X156998509Y-71882000D02*
X167894000Y-71882000D01*
X156744009Y-72136500D02*
X156998509Y-71882000D01*
X156183991Y-72136500D02*
X156744009Y-72136500D01*
X156114815Y-72067324D02*
X156183991Y-72136500D01*
X144132676Y-72067324D02*
X156114815Y-72067324D01*
X136900000Y-79300000D02*
X144132676Y-72067324D01*
%TO.N,m2_current_sense_w*%
X161700000Y-74800000D02*
X165986000Y-74800000D01*
X140100000Y-80350000D02*
X146550000Y-73900000D01*
X165986000Y-74800000D02*
X166878000Y-75692000D01*
X140100000Y-81400000D02*
X140100000Y-80350000D01*
X160800000Y-73900000D02*
X161700000Y-74800000D01*
X139400000Y-82100000D02*
X140100000Y-81400000D01*
X146550000Y-73900000D02*
X160800000Y-73900000D01*
%TO.N,m2_wh*%
X160400000Y-74700000D02*
X161392000Y-75692000D01*
X147050000Y-74700000D02*
X160400000Y-74700000D01*
X142236560Y-79513440D02*
X147050000Y-74700000D01*
X142113440Y-79513440D02*
X142236560Y-79513440D01*
X161392000Y-75692000D02*
X165608000Y-75692000D01*
%TO.N,m2_vh*%
X159702500Y-77724000D02*
X160600000Y-78621500D01*
X153148000Y-75848000D02*
X155024000Y-77724000D01*
X147152000Y-75848000D02*
X153148000Y-75848000D01*
X144718060Y-78281940D02*
X147152000Y-75848000D01*
X155024000Y-77724000D02*
X159702500Y-77724000D01*
X144531940Y-78281940D02*
X144718060Y-78281940D01*
%TO.N,m2_wl*%
X169418000Y-75018000D02*
X169418000Y-75692000D01*
X167300000Y-72900000D02*
X169418000Y-75018000D01*
X163100000Y-72900000D02*
X167300000Y-72900000D01*
X162844000Y-72644000D02*
X163100000Y-72900000D01*
X145256000Y-72644000D02*
X162844000Y-72644000D01*
X138500000Y-79000000D02*
X138900000Y-79000000D01*
X138900000Y-79000000D02*
X145256000Y-72644000D01*
D21*
%TO.N,Net-(C11-Pad2)*%
X148138477Y-61111523D02*
X147020000Y-62230000D01*
X149000000Y-61111523D02*
X148138477Y-61111523D01*
X147020000Y-62230000D02*
X146558000Y-62230000D01*
D19*
%TO.N,m2_current_sense_u*%
X143036009Y-71120000D02*
X133200000Y-80956009D01*
X133200000Y-80956009D02*
X133200000Y-82750000D01*
X153529158Y-71120000D02*
X143036009Y-71120000D01*
X153869658Y-71460500D02*
X153529158Y-71120000D01*
X156464000Y-71460500D02*
X153869658Y-71460500D01*
%TO.N,m1_enc_cs*%
X175006000Y-69406000D02*
X175006000Y-71882000D01*
X171900000Y-66300000D02*
X175006000Y-69406000D01*
X159700000Y-66300000D02*
X171900000Y-66300000D01*
X158000000Y-68000000D02*
X159700000Y-66300000D01*
X156600000Y-68000000D02*
X158000000Y-68000000D01*
X156100000Y-68500000D02*
X156600000Y-68000000D01*
X138356009Y-68000000D02*
X140212785Y-68000000D01*
X138174009Y-67818000D02*
X138356009Y-68000000D01*
X128093988Y-67818000D02*
X138174009Y-67818000D01*
X140712785Y-68500000D02*
X156100000Y-68500000D01*
X127695788Y-68216200D02*
X128093988Y-67818000D01*
X123783800Y-68216200D02*
X127695788Y-68216200D01*
X122851991Y-69148009D02*
X123783800Y-68216200D01*
X140212785Y-68000000D02*
X140712785Y-68500000D01*
%TO.N,enc_scl*%
X175006000Y-73006000D02*
X175006000Y-73152000D01*
X174100000Y-72100000D02*
X175006000Y-73006000D01*
X174100000Y-70500000D02*
X174100000Y-72100000D01*
X171300000Y-67700000D02*
X174100000Y-70500000D01*
X163694000Y-67700000D02*
X171300000Y-67700000D01*
X162863236Y-68530764D02*
X163694000Y-67700000D01*
X158799236Y-68530764D02*
X162863236Y-68530764D01*
X158359912Y-68970088D02*
X158799236Y-68530764D01*
X138385921Y-68970088D02*
X158359912Y-68970088D01*
X124233910Y-68900000D02*
X137343991Y-68900000D01*
X137619991Y-69176000D02*
X138180009Y-69176000D01*
X122521910Y-70612000D02*
X124233910Y-68900000D01*
X138180009Y-69176000D02*
X138385921Y-68970088D01*
X120904000Y-70612000D02*
X122521910Y-70612000D01*
X137343991Y-68900000D02*
X137619991Y-69176000D01*
%TO.N,m2_enc_cs*%
X173228000Y-73728000D02*
X173228000Y-75692000D01*
X138376009Y-70103500D02*
X157225500Y-70103500D01*
X157480000Y-70358000D02*
X169858000Y-70358000D01*
X128728480Y-70299500D02*
X138180009Y-70299500D01*
X169858000Y-70358000D02*
X173228000Y-73728000D01*
X138180009Y-70299500D02*
X138376009Y-70103500D01*
X128379971Y-70648009D02*
X128728480Y-70299500D01*
X157225500Y-70103500D02*
X157480000Y-70358000D01*
X124931991Y-70648009D02*
X128379971Y-70648009D01*
X121920000Y-73660000D02*
X124931991Y-70648009D01*
%TO.N,gpio8*%
X168910000Y-71120000D02*
X171958000Y-74168000D01*
X157079509Y-71120000D02*
X168910000Y-71120000D01*
X156739009Y-70779500D02*
X157079509Y-71120000D01*
X154144667Y-70779500D02*
X156739009Y-70779500D01*
X171958000Y-74168000D02*
X171958000Y-75692000D01*
%TO.N,enc_sda*%
X120987714Y-72644000D02*
X120037570Y-72644000D01*
X124035714Y-69596000D02*
X120987714Y-72644000D01*
X173000000Y-71100000D02*
X171496000Y-69596000D01*
X173000000Y-72200000D02*
X173000000Y-71100000D01*
X175006000Y-74206000D02*
X173000000Y-72200000D01*
X171496000Y-69596000D02*
X124035714Y-69596000D01*
X175006000Y-74422000D02*
X175006000Y-74206000D01*
D22*
%TO.N,scl*%
X144780000Y-93472000D02*
X146812000Y-91440000D01*
D23*
%TO.N,+3.3V*%
X148844000Y-90424000D02*
X148844000Y-90932000D01*
X148185362Y-87725395D02*
X148185362Y-89765362D01*
X148336000Y-89916000D02*
X148844000Y-90424000D01*
X148185362Y-89765362D02*
X148336000Y-89916000D01*
D22*
%TO.N,sda*%
X141732000Y-92456000D02*
X142748000Y-92456000D01*
X142748000Y-92456000D02*
X146812000Y-88392000D01*
D21*
%TO.N,+3.3V*%
X121491652Y-76708000D02*
X119380000Y-76708000D01*
X124793652Y-73406000D02*
X121491652Y-76708000D01*
X125476000Y-73406000D02*
X125072469Y-73406000D01*
X125476000Y-73406000D02*
X124793652Y-73406000D01*
X126746000Y-73406000D02*
X125476000Y-73406000D01*
D24*
X128071231Y-79493261D02*
X128071231Y-82616191D01*
X125476000Y-79006000D02*
X127583970Y-79006000D01*
X127583970Y-79006000D02*
X128071231Y-79493261D01*
D19*
%TO.N,/motor_controls/standby*%
X127104261Y-62015739D02*
X127104261Y-59503500D01*
X126300000Y-62820000D02*
X127104261Y-62015739D01*
X126492000Y-67640200D02*
X126300000Y-67448200D01*
X126300000Y-67448200D02*
X126300000Y-62820000D01*
D24*
%TO.N,+3.3V*%
X124129800Y-67538600D02*
X123751600Y-67160400D01*
X125792261Y-59418400D02*
X126790661Y-58420000D01*
X126790661Y-58420000D02*
X128778000Y-58420000D01*
X123751600Y-67160400D02*
X123751600Y-59839161D01*
X124172361Y-59418400D02*
X125792261Y-59418400D01*
X123751600Y-59839161D02*
X124172361Y-59418400D01*
D23*
%TO.N,Net-(U3-in-1)*%
X127731830Y-90673500D02*
X129427830Y-88977500D01*
X125000000Y-90673500D02*
X127731830Y-90673500D01*
%TO.N,Net-(U3-in+1)*%
X125600000Y-91350000D02*
X128500000Y-91350000D01*
X130327526Y-89522474D02*
X130327526Y-89152900D01*
X128500000Y-91350000D02*
X130327526Y-89522474D01*
D19*
%TO.N,Net-(U3-ref_1)*%
X132080000Y-87769000D02*
X131775200Y-88073800D01*
X128140909Y-83361101D02*
X126055599Y-83361101D01*
X132000000Y-83050000D02*
X128452010Y-83050000D01*
X128452010Y-83050000D02*
X128140909Y-83361101D01*
X132100000Y-82950000D02*
X132080000Y-82970000D01*
X132080000Y-82970000D02*
X132080000Y-87769000D01*
X126055599Y-83361101D02*
X125943348Y-83248850D01*
X132100000Y-82950000D02*
X132000000Y-83050000D01*
%TO.N,/motor_controls/standby*%
X127421731Y-82109370D02*
X126746000Y-82785101D01*
X127421731Y-79763000D02*
X127421731Y-82109370D01*
%TO.N,m2_uh*%
X146505058Y-78105058D02*
X146106940Y-77706940D01*
X158600000Y-78300000D02*
X158405058Y-78105058D01*
X158405058Y-78105058D02*
X146505058Y-78105058D01*
%TO.N,m1_uh*%
X127000000Y-65500000D02*
X128650000Y-67150000D01*
X128650000Y-67150000D02*
X131150000Y-67150000D01*
%TO.N,m1_ul*%
X138200000Y-65500000D02*
X132789823Y-65500000D01*
X131064067Y-63855667D02*
X128879667Y-63855667D01*
X156200000Y-66700000D02*
X154710000Y-65210000D01*
X157200000Y-66700000D02*
X156200000Y-66700000D01*
X132708400Y-65500000D02*
X131064067Y-63855667D01*
X132789823Y-65500000D02*
X132708400Y-65500000D01*
X138490000Y-65210000D02*
X138200000Y-65500000D01*
X127965200Y-62941200D02*
X127939800Y-62941200D01*
X154710000Y-65210000D02*
X138490000Y-65210000D01*
X128879667Y-63855667D02*
X127965200Y-62941200D01*
%TO.N,m1_vh*%
X134600000Y-66800000D02*
X134500000Y-66700000D01*
X131851000Y-66700000D02*
X130769700Y-65618700D01*
X153900000Y-66585969D02*
X153685969Y-66800000D01*
X153685969Y-66800000D02*
X134600000Y-66800000D01*
X130769700Y-65618700D02*
X128400000Y-65618700D01*
X133700000Y-66700000D02*
X131851000Y-66700000D01*
X134500000Y-66700000D02*
X133700000Y-66700000D01*
%TO.N,m1_vl*%
X157000000Y-64075500D02*
X156324500Y-63400000D01*
X156324500Y-63400000D02*
X137700000Y-63400000D01*
X135400000Y-63400000D02*
X131503500Y-59503500D01*
X137700000Y-63400000D02*
X135400000Y-63400000D01*
X131503500Y-59503500D02*
X127939800Y-59503500D01*
%TO.N,m1_wh*%
X132190800Y-66100000D02*
X130790800Y-64700000D01*
X139099912Y-66100000D02*
X132190800Y-66100000D01*
X154693060Y-66006940D02*
X154689531Y-66010469D01*
X154689531Y-66010469D02*
X153089531Y-66010469D01*
X130790800Y-64700000D02*
X129446099Y-64700000D01*
X152738500Y-66361500D02*
X139361412Y-66361500D01*
X153089531Y-66010469D02*
X152738500Y-66361500D01*
X139361412Y-66361500D02*
X139099912Y-66100000D01*
%TO.N,m1_wl*%
X156200000Y-64600000D02*
X155700000Y-64100000D01*
X134600000Y-64100000D02*
X136100000Y-64100000D01*
X131600000Y-61100000D02*
X134600000Y-64100000D01*
X155700000Y-64100000D02*
X136100000Y-64100000D01*
%TO.N,Net-(J11-DP1)*%
X164800000Y-87517500D02*
X164126101Y-88191399D01*
X164126101Y-88191399D02*
X164126101Y-88722573D01*
D23*
%TO.N,Net-(U1-EN)*%
X155500000Y-67300000D02*
X154900000Y-67900000D01*
X154900000Y-67900000D02*
X153400000Y-67900000D01*
X160100000Y-62300000D02*
X160300000Y-62500000D01*
X160300000Y-64448529D02*
X157448529Y-67300000D01*
X160300000Y-62500000D02*
X160300000Y-64448529D01*
X157448529Y-67300000D02*
X155500000Y-67300000D01*
D19*
%TO.N,m1_current_sense_w*%
X136600000Y-62700000D02*
X146213412Y-62700000D01*
X131468045Y-57568045D02*
X136600000Y-62700000D01*
X146213412Y-62700000D02*
X146319412Y-62806000D01*
X157294000Y-62806000D02*
X157734000Y-63246000D01*
X129908326Y-57568045D02*
X131468045Y-57568045D01*
X146319412Y-62806000D02*
X157294000Y-62806000D01*
%TO.N,m1_current_sense_u*%
X155200000Y-64700000D02*
X133300000Y-64700000D01*
X157325503Y-65828100D02*
X156328100Y-65828100D01*
X131880167Y-63280167D02*
X129421099Y-63280167D01*
X133300000Y-64700000D02*
X131880167Y-63280167D01*
X156328100Y-65828100D02*
X155200000Y-64700000D01*
D23*
%TO.N,sda*%
X175125750Y-61574250D02*
X173482000Y-59930500D01*
%TD*%
%TA.AperFunction,Conductor*%
%TO.N,+5V*%
G36*
X159748591Y-84347685D02*
G01*
X159769233Y-84364319D01*
X160916537Y-85511623D01*
X160931954Y-85530407D01*
X160940599Y-85543345D01*
X160953534Y-85551987D01*
X160953545Y-85551997D01*
X161016761Y-85594235D01*
X161026909Y-85603432D01*
X161032059Y-85604456D01*
X161032059Y-85604457D01*
X161112711Y-85620500D01*
X161124680Y-85622881D01*
X161124690Y-85622882D01*
X161126148Y-85623171D01*
X161139944Y-85625916D01*
X161153739Y-85623171D01*
X161155198Y-85622882D01*
X161179387Y-85620500D01*
X161504557Y-85620500D01*
X161528746Y-85622882D01*
X161530204Y-85623171D01*
X161544000Y-85625916D01*
X161557795Y-85623171D01*
X161559254Y-85622882D01*
X161559263Y-85622881D01*
X161571232Y-85620500D01*
X161571233Y-85620500D01*
X161651885Y-85604457D01*
X161651885Y-85604456D01*
X161651885Y-85604455D01*
X161657032Y-85603432D01*
X161667177Y-85594238D01*
X161720258Y-85558772D01*
X161720258Y-85558770D01*
X161733688Y-85549798D01*
X161733689Y-85549796D01*
X161743345Y-85543345D01*
X161751987Y-85530411D01*
X161767401Y-85511627D01*
X162914710Y-84364318D01*
X162976033Y-84330834D01*
X163002391Y-84328000D01*
X170056000Y-84328000D01*
X170123039Y-84347685D01*
X170168794Y-84400489D01*
X170180000Y-84452000D01*
X170180000Y-88014000D01*
X170160315Y-88081039D01*
X170107511Y-88126794D01*
X170056000Y-88138000D01*
X168138793Y-88138000D01*
X168071754Y-88118315D01*
X168045080Y-88095202D01*
X167971129Y-88009858D01*
X167971128Y-88009857D01*
X167850053Y-87932047D01*
X167711961Y-87891500D01*
X167568039Y-87891500D01*
X167429947Y-87932047D01*
X167308870Y-88009858D01*
X167234920Y-88095202D01*
X167176143Y-88132977D01*
X167141207Y-88138000D01*
X165182543Y-88138000D01*
X165115504Y-88118315D01*
X165069749Y-88065511D01*
X165059805Y-87996353D01*
X165088830Y-87932797D01*
X165115504Y-87909684D01*
X165116453Y-87909073D01*
X165131128Y-87899643D01*
X165225377Y-87790873D01*
X165285165Y-87659957D01*
X165305647Y-87517500D01*
X165285165Y-87375043D01*
X165282673Y-87369587D01*
X165225376Y-87244125D01*
X165131129Y-87135358D01*
X165131128Y-87135357D01*
X165010053Y-87057547D01*
X164871961Y-87017000D01*
X164728039Y-87017000D01*
X164589947Y-87057547D01*
X164468870Y-87135358D01*
X164374621Y-87244127D01*
X164338662Y-87322865D01*
X164333723Y-87332537D01*
X164323805Y-87350019D01*
X164319445Y-87363188D01*
X164314531Y-87375709D01*
X164313470Y-87378032D01*
X164310856Y-87389126D01*
X164286320Y-87463243D01*
X164285754Y-87465099D01*
X164282656Y-87475596D01*
X164282150Y-87477464D01*
X164282292Y-87476981D01*
X164281844Y-87478866D01*
X164279416Y-87489505D01*
X164279022Y-87491422D01*
X164261350Y-87581228D01*
X164260729Y-87584188D01*
X164251492Y-87625716D01*
X164242377Y-87652162D01*
X164237059Y-87663315D01*
X164220168Y-87689596D01*
X164171378Y-87747810D01*
X164169627Y-87750847D01*
X164149895Y-87776573D01*
X163989365Y-87937103D01*
X163975737Y-87948881D01*
X163960253Y-87960409D01*
X163949496Y-87972322D01*
X163926877Y-87991871D01*
X163917750Y-88005530D01*
X163906689Y-88019731D01*
X163872895Y-88057160D01*
X163872062Y-88058083D01*
X163861367Y-88070942D01*
X163860231Y-88072427D01*
X163859513Y-88073447D01*
X163858784Y-88074442D01*
X163851150Y-88085338D01*
X163796481Y-88128847D01*
X163749726Y-88138000D01*
X161534793Y-88138000D01*
X161467754Y-88118315D01*
X161441080Y-88095202D01*
X161367129Y-88009858D01*
X161367128Y-88009857D01*
X161246053Y-87932047D01*
X161107961Y-87891500D01*
X160964039Y-87891500D01*
X160825947Y-87932047D01*
X160704870Y-88009858D01*
X160630920Y-88095202D01*
X160572143Y-88132977D01*
X160537207Y-88138000D01*
X158092231Y-88138000D01*
X158025192Y-88118315D01*
X157979437Y-88065511D01*
X157969493Y-87996353D01*
X157970111Y-87992054D01*
X157985647Y-87884000D01*
X157965165Y-87741543D01*
X157941441Y-87689596D01*
X157905376Y-87610625D01*
X157811129Y-87501858D01*
X157811128Y-87501857D01*
X157690053Y-87424047D01*
X157551961Y-87383500D01*
X157408039Y-87383500D01*
X157269947Y-87424047D01*
X157148870Y-87501858D01*
X157054623Y-87610625D01*
X156994834Y-87741542D01*
X156987742Y-87790873D01*
X156974353Y-87884000D01*
X156989862Y-87991871D01*
X156990507Y-87996353D01*
X156980563Y-88065512D01*
X156934808Y-88118316D01*
X156867769Y-88138000D01*
X152445362Y-88138000D01*
X152378323Y-88118315D01*
X152332568Y-88065511D01*
X152322624Y-87996353D01*
X152351649Y-87932797D01*
X152357681Y-87926319D01*
X153267000Y-87017000D01*
X154686000Y-85598000D01*
X154897664Y-84539681D01*
X154920064Y-84427682D01*
X154952514Y-84365804D01*
X155013266Y-84331294D01*
X155041656Y-84328000D01*
X159681552Y-84328000D01*
X159748591Y-84347685D01*
G37*
%TD.AperFunction*%
%TD*%
%TA.AperFunction,Conductor*%
%TO.N,m1_uh*%
G36*
X131369589Y-66946953D02*
G01*
X131370309Y-66947747D01*
X131436302Y-67027474D01*
X131437175Y-67028678D01*
X131486353Y-67106449D01*
X131522706Y-67154885D01*
X131532788Y-67168317D01*
X131565402Y-67188615D01*
X131598017Y-67208914D01*
X131693876Y-67222109D01*
X131701605Y-67226632D01*
X131703981Y-67233700D01*
X131703981Y-67364437D01*
X131700554Y-67372710D01*
X131692936Y-67376119D01*
X131566260Y-67383226D01*
X131566253Y-67383226D01*
X131565875Y-67383248D01*
X131565500Y-67383319D01*
X131565494Y-67383320D01*
X131468935Y-67401685D01*
X131468918Y-67401688D01*
X131468733Y-67401724D01*
X131468560Y-67401769D01*
X131468532Y-67401776D01*
X131385644Y-67423670D01*
X131384842Y-67423852D01*
X131288866Y-67442107D01*
X131287335Y-67442295D01*
X131162313Y-67449309D01*
X131153861Y-67446351D01*
X131149976Y-67438282D01*
X131149959Y-67437700D01*
X131149016Y-67154884D01*
X131152414Y-67146601D01*
X131353044Y-66946913D01*
X131361324Y-66943507D01*
X131369589Y-66946953D01*
G37*
%TD.AperFunction*%
%TD*%
%TA.AperFunction,Conductor*%
%TO.N,m1_uh*%
G36*
X154281129Y-67034171D02*
G01*
X154281469Y-67034910D01*
X154390554Y-67295989D01*
X154390581Y-67304944D01*
X154390554Y-67305011D01*
X154281473Y-67566081D01*
X154275121Y-67572393D01*
X154266166Y-67572366D01*
X154265419Y-67572022D01*
X154158870Y-67518421D01*
X154157598Y-67517677D01*
X154076692Y-67463253D01*
X154076567Y-67463172D01*
X154005875Y-67418035D01*
X153919554Y-67387322D01*
X153802207Y-67376942D01*
X153794268Y-67372800D01*
X153791538Y-67365288D01*
X153791538Y-67234718D01*
X153794965Y-67226445D01*
X153802214Y-67223063D01*
X153919500Y-67212773D01*
X154005842Y-67182294D01*
X154076714Y-67137362D01*
X154076844Y-67137276D01*
X154126346Y-67104138D01*
X154157662Y-67083176D01*
X154158905Y-67082452D01*
X154265424Y-67028964D01*
X154274354Y-67028315D01*
X154281129Y-67034171D01*
G37*
%TD.AperFunction*%
%TD*%
%TA.AperFunction,Conductor*%
%TO.N,gpio8*%
G36*
X182242832Y-78132567D02*
G01*
X182243099Y-78133162D01*
X182595995Y-78982767D01*
X182596004Y-78991722D01*
X182593457Y-78995534D01*
X181942298Y-79645715D01*
X181934022Y-79649136D01*
X181925752Y-79645703D01*
X181925231Y-79645146D01*
X181686545Y-79372736D01*
X181686010Y-79372079D01*
X181510934Y-79140375D01*
X181510930Y-79140370D01*
X181510722Y-79140095D01*
X181342244Y-78964980D01*
X181116242Y-78854479D01*
X181006166Y-78842311D01*
X180778543Y-78817151D01*
X180770696Y-78812836D01*
X180768128Y-78805522D01*
X180768128Y-78674889D01*
X180771555Y-78666616D01*
X180778988Y-78663219D01*
X181152410Y-78636389D01*
X181415650Y-78559477D01*
X181633772Y-78442145D01*
X181882252Y-78293538D01*
X181883163Y-78293047D01*
X182227211Y-78127111D01*
X182236152Y-78126604D01*
X182242832Y-78132567D01*
G37*
%TD.AperFunction*%
%TD*%
%TA.AperFunction,Conductor*%
%TO.N,gpio8*%
G36*
X172232511Y-75581988D02*
G01*
X172238823Y-75588340D01*
X172239107Y-75589107D01*
X172276585Y-75702316D01*
X172276957Y-75703732D01*
X172295793Y-75799364D01*
X172295829Y-75799532D01*
X172307446Y-75851749D01*
X172314029Y-75881341D01*
X172353455Y-75964031D01*
X172429121Y-76054311D01*
X172431809Y-76062852D01*
X172428427Y-76070099D01*
X172336099Y-76162427D01*
X172327826Y-76165854D01*
X172320311Y-76163121D01*
X172230031Y-76087455D01*
X172147341Y-76048029D01*
X172065364Y-76029793D01*
X171969732Y-76010957D01*
X171968316Y-76010585D01*
X171855107Y-75973107D01*
X171848330Y-75967254D01*
X171847677Y-75958323D01*
X171847961Y-75957556D01*
X171955436Y-75695815D01*
X171961746Y-75689464D01*
X172223557Y-75581961D01*
X172232511Y-75581988D01*
G37*
%TD.AperFunction*%
%TD*%
%TA.AperFunction,Conductor*%
%TO.N,+5V*%
G36*
X182594219Y-83133793D02*
G01*
X182598001Y-83141910D01*
X182598012Y-83142405D01*
X182598997Y-84067660D01*
X182598102Y-84072160D01*
X182243187Y-84926625D01*
X182236849Y-84932951D01*
X182227894Y-84932942D01*
X182227106Y-84932580D01*
X181879766Y-84757115D01*
X181878460Y-84756345D01*
X181632223Y-84588796D01*
X181632114Y-84588724D01*
X181417964Y-84449735D01*
X181156529Y-84355001D01*
X180778778Y-84320959D01*
X180770846Y-84316803D01*
X180768128Y-84309306D01*
X180768128Y-83331203D01*
X180771555Y-83322930D01*
X180779319Y-83319514D01*
X181223349Y-83300260D01*
X181544700Y-83253190D01*
X181821143Y-83197066D01*
X181821725Y-83196965D01*
X182142187Y-83150025D01*
X182143365Y-83149913D01*
X182585806Y-83130728D01*
X182594219Y-83133793D01*
G37*
%TD.AperFunction*%
%TD*%
%TA.AperFunction,Conductor*%
%TO.N,m2_ul*%
G36*
X167723188Y-75314232D02*
G01*
X167798744Y-75376193D01*
X167871263Y-75404633D01*
X167878409Y-75404879D01*
X167945209Y-75407181D01*
X168032965Y-75398214D01*
X168033490Y-75398173D01*
X168135698Y-75392663D01*
X168144144Y-75395640D01*
X168148011Y-75403716D01*
X168148028Y-75404318D01*
X168148695Y-75687820D01*
X168145288Y-75696102D01*
X168145241Y-75696149D01*
X167944843Y-75895216D01*
X167936558Y-75898615D01*
X167928296Y-75895161D01*
X167927679Y-75894488D01*
X167842457Y-75794128D01*
X167841181Y-75792297D01*
X167790578Y-75702467D01*
X167790058Y-75701426D01*
X167753202Y-75617429D01*
X167753085Y-75617162D01*
X167701647Y-75525849D01*
X167701646Y-75525847D01*
X167614491Y-75423212D01*
X167611748Y-75414688D01*
X167615135Y-75407367D01*
X167707497Y-75315005D01*
X167715769Y-75311579D01*
X167723188Y-75314232D01*
G37*
%TD.AperFunction*%
%TD*%
%TA.AperFunction,Conductor*%
%TO.N,m2_ul*%
G36*
X140263499Y-78452148D02*
G01*
X140368915Y-78468925D01*
X140371642Y-78469708D01*
X140463835Y-78508816D01*
X140543022Y-78542320D01*
X140620376Y-78542983D01*
X140700407Y-78489466D01*
X140709188Y-78487717D01*
X140715183Y-78490920D01*
X140807679Y-78583416D01*
X140811106Y-78591689D01*
X140807759Y-78599881D01*
X140726921Y-78682304D01*
X140726807Y-78682424D01*
X140665274Y-78748113D01*
X140612728Y-78805627D01*
X140551150Y-78871361D01*
X140550964Y-78871554D01*
X140470377Y-78953724D01*
X140462138Y-78957231D01*
X140453832Y-78953885D01*
X140453778Y-78953833D01*
X140252758Y-78754149D01*
X140249304Y-78745887D01*
X140249304Y-78745821D01*
X140249967Y-78463674D01*
X140253413Y-78455411D01*
X140261694Y-78452004D01*
X140263499Y-78452148D01*
G37*
%TD.AperFunction*%
%TD*%
%TA.AperFunction,Conductor*%
%TO.N,gpio8*%
G36*
X154937187Y-81528877D02*
G01*
X155027467Y-81604544D01*
X155096984Y-81637689D01*
X155110157Y-81643970D01*
X155192134Y-81662205D01*
X155192254Y-81662229D01*
X155222337Y-81668154D01*
X155287777Y-81681043D01*
X155289169Y-81681409D01*
X155402392Y-81718892D01*
X155409169Y-81724745D01*
X155409822Y-81733676D01*
X155409538Y-81734443D01*
X155302063Y-81996184D01*
X155295751Y-82002536D01*
X155295684Y-82002563D01*
X155033943Y-82110038D01*
X155024988Y-82110011D01*
X155018676Y-82103659D01*
X155018392Y-82102892D01*
X154985168Y-82002536D01*
X154980909Y-81989669D01*
X154980543Y-81988277D01*
X154961705Y-81892634D01*
X154961671Y-81892475D01*
X154943470Y-81810657D01*
X154943469Y-81810656D01*
X154904044Y-81727967D01*
X154828377Y-81637687D01*
X154825690Y-81629147D01*
X154829071Y-81621901D01*
X154921401Y-81529571D01*
X154929673Y-81526145D01*
X154937187Y-81528877D01*
G37*
%TD.AperFunction*%
%TD*%
%TA.AperFunction,Conductor*%
%TO.N,gpio8*%
G36*
X152125274Y-80728129D02*
G01*
X152126017Y-80728471D01*
X152168966Y-80750055D01*
X152232572Y-80782022D01*
X152233833Y-80782758D01*
X152314774Y-80837061D01*
X152314890Y-80837135D01*
X152385635Y-80882134D01*
X152471982Y-80912726D01*
X152497219Y-80914948D01*
X152589328Y-80923060D01*
X152597267Y-80927198D01*
X152600000Y-80934714D01*
X152600000Y-81065284D01*
X152596573Y-81073557D01*
X152589326Y-81076939D01*
X152471982Y-81087271D01*
X152385635Y-81117864D01*
X152314774Y-81162937D01*
X152314651Y-81163019D01*
X152233833Y-81217240D01*
X152232569Y-81217978D01*
X152126017Y-81271528D01*
X152117086Y-81272181D01*
X152110309Y-81266328D01*
X152109967Y-81265585D01*
X152067113Y-81163019D01*
X152000883Y-81004509D01*
X152000857Y-80995555D01*
X152109967Y-80734413D01*
X152116319Y-80728102D01*
X152125274Y-80728129D01*
G37*
%TD.AperFunction*%
%TD*%
%TA.AperFunction,Conductor*%
%TO.N,gpio38*%
G36*
X151025274Y-79738129D02*
G01*
X151026017Y-79738471D01*
X151068966Y-79760055D01*
X151132572Y-79792022D01*
X151133833Y-79792758D01*
X151214774Y-79847061D01*
X151214890Y-79847135D01*
X151285635Y-79892134D01*
X151371982Y-79922726D01*
X151397219Y-79924948D01*
X151489328Y-79933060D01*
X151497267Y-79937198D01*
X151500000Y-79944714D01*
X151500000Y-80075284D01*
X151496573Y-80083557D01*
X151489326Y-80086939D01*
X151371982Y-80097271D01*
X151285635Y-80127864D01*
X151214774Y-80172937D01*
X151214651Y-80173019D01*
X151133833Y-80227240D01*
X151132569Y-80227978D01*
X151026017Y-80281528D01*
X151017086Y-80282181D01*
X151010309Y-80276328D01*
X151009967Y-80275585D01*
X150989767Y-80227240D01*
X150900883Y-80014509D01*
X150900857Y-80005556D01*
X150900862Y-80005542D01*
X151009967Y-79744413D01*
X151016319Y-79738102D01*
X151025274Y-79738129D01*
G37*
%TD.AperFunction*%
%TD*%
%TA.AperFunction,Conductor*%
%TO.N,gpio38*%
G36*
X179754102Y-79318211D02*
G01*
X179754149Y-79318258D01*
X179953329Y-79518770D01*
X179956728Y-79527055D01*
X179953274Y-79535317D01*
X179952715Y-79535837D01*
X179855805Y-79620291D01*
X179854290Y-79621410D01*
X179768972Y-79674384D01*
X179768105Y-79674872D01*
X179689075Y-79715079D01*
X179689065Y-79715084D01*
X179688848Y-79715195D01*
X179688646Y-79715319D01*
X179688636Y-79715326D01*
X179602309Y-79768928D01*
X179503507Y-79855032D01*
X179495018Y-79857884D01*
X179487547Y-79854484D01*
X179395142Y-79762079D01*
X179391715Y-79753806D01*
X179394225Y-79746565D01*
X179454487Y-79670114D01*
X179477443Y-79596244D01*
X179473272Y-79520757D01*
X179458670Y-79431813D01*
X179458548Y-79430784D01*
X179450929Y-79328035D01*
X179453735Y-79319531D01*
X179461732Y-79315502D01*
X179462556Y-79315470D01*
X179745821Y-79314804D01*
X179754102Y-79318211D01*
G37*
%TD.AperFunction*%
%TD*%
%TA.AperFunction,Conductor*%
%TO.N,m2_vl*%
G36*
X170761558Y-75095427D02*
G01*
X170764940Y-75102674D01*
X170775271Y-75220016D01*
X170805864Y-75306363D01*
X170850937Y-75377224D01*
X170851019Y-75377347D01*
X170905240Y-75458165D01*
X170905978Y-75459429D01*
X170959528Y-75565982D01*
X170960181Y-75574913D01*
X170954328Y-75581690D01*
X170953585Y-75582032D01*
X170692511Y-75691115D01*
X170683556Y-75691142D01*
X170683489Y-75691115D01*
X170422413Y-75582032D01*
X170416101Y-75575680D01*
X170416128Y-75566725D01*
X170416456Y-75566011D01*
X170470025Y-75459418D01*
X170470751Y-75458175D01*
X170525061Y-75377224D01*
X170570134Y-75306363D01*
X170600726Y-75220016D01*
X170611060Y-75102674D01*
X170615200Y-75094733D01*
X170622715Y-75092000D01*
X170753285Y-75092000D01*
X170761558Y-75095427D01*
G37*
%TD.AperFunction*%
%TD*%
%TA.AperFunction,Conductor*%
%TO.N,m2_vl*%
G36*
X137278099Y-78829572D02*
G01*
X137370427Y-78921900D01*
X137373854Y-78930173D01*
X137371121Y-78937689D01*
X137295454Y-79027968D01*
X137292367Y-79034443D01*
X137256029Y-79110657D01*
X137237792Y-79192634D01*
X137237793Y-79192634D01*
X137237771Y-79192746D01*
X137218957Y-79288265D01*
X137218585Y-79289681D01*
X137181107Y-79402892D01*
X137175254Y-79409669D01*
X137166323Y-79410322D01*
X137165556Y-79410038D01*
X136903815Y-79302563D01*
X136897463Y-79296251D01*
X136897436Y-79296184D01*
X136789961Y-79034443D01*
X136789988Y-79025488D01*
X136796340Y-79019176D01*
X136797097Y-79018895D01*
X136910331Y-78981407D01*
X136911716Y-78981043D01*
X137007364Y-78962205D01*
X137007523Y-78962171D01*
X137089342Y-78943970D01*
X137172029Y-78904545D01*
X137172029Y-78904544D01*
X137172031Y-78904544D01*
X137262312Y-78828877D01*
X137270852Y-78826190D01*
X137278099Y-78829572D01*
G37*
%TD.AperFunction*%
%TD*%
%TA.AperFunction,Conductor*%
%TO.N,m2_current_sense_w*%
G36*
X166515687Y-75220877D02*
G01*
X166605967Y-75296544D01*
X166675484Y-75329689D01*
X166688657Y-75335970D01*
X166770634Y-75354205D01*
X166770754Y-75354229D01*
X166800837Y-75360154D01*
X166866277Y-75373043D01*
X166867669Y-75373409D01*
X166980892Y-75410892D01*
X166987669Y-75416745D01*
X166988322Y-75425676D01*
X166988038Y-75426443D01*
X166880563Y-75688184D01*
X166874251Y-75694536D01*
X166874184Y-75694563D01*
X166612443Y-75802038D01*
X166603488Y-75802011D01*
X166597176Y-75795659D01*
X166596892Y-75794892D01*
X166563668Y-75694536D01*
X166559409Y-75681669D01*
X166559043Y-75680277D01*
X166540205Y-75584634D01*
X166540171Y-75584475D01*
X166521970Y-75502657D01*
X166521970Y-75502656D01*
X166482544Y-75419967D01*
X166406877Y-75329687D01*
X166404190Y-75321147D01*
X166407571Y-75313901D01*
X166499901Y-75221571D01*
X166508173Y-75218145D01*
X166515687Y-75220877D01*
G37*
%TD.AperFunction*%
%TD*%
%TA.AperFunction,Conductor*%
%TO.N,m2_current_sense_w*%
G36*
X139778099Y-81629572D02*
G01*
X139870427Y-81721900D01*
X139873854Y-81730173D01*
X139871121Y-81737689D01*
X139795454Y-81827968D01*
X139792367Y-81834443D01*
X139756029Y-81910657D01*
X139737792Y-81992633D01*
X139737793Y-81992634D01*
X139737771Y-81992746D01*
X139718957Y-82088265D01*
X139718585Y-82089681D01*
X139681107Y-82202892D01*
X139675254Y-82209669D01*
X139666323Y-82210322D01*
X139665556Y-82210038D01*
X139403815Y-82102563D01*
X139397463Y-82096251D01*
X139397436Y-82096184D01*
X139289961Y-81834443D01*
X139289988Y-81825488D01*
X139296340Y-81819176D01*
X139297097Y-81818895D01*
X139410331Y-81781407D01*
X139411716Y-81781043D01*
X139507364Y-81762205D01*
X139507523Y-81762171D01*
X139589342Y-81743970D01*
X139672029Y-81704545D01*
X139672029Y-81704544D01*
X139672031Y-81704544D01*
X139762312Y-81628877D01*
X139770852Y-81626190D01*
X139778099Y-81629572D01*
G37*
%TD.AperFunction*%
%TD*%
%TA.AperFunction,Conductor*%
%TO.N,m2_wh*%
G36*
X142540380Y-79116343D02*
G01*
X142632691Y-79208654D01*
X142636118Y-79216927D01*
X142632897Y-79224989D01*
X142558401Y-79303340D01*
X142558392Y-79303349D01*
X142558206Y-79303546D01*
X142558036Y-79303764D01*
X142558033Y-79303768D01*
X142505686Y-79371064D01*
X142469584Y-79436040D01*
X142469579Y-79436048D01*
X142469429Y-79436320D01*
X142469310Y-79436599D01*
X142469305Y-79436612D01*
X142435659Y-79516365D01*
X142395004Y-79617318D01*
X142388735Y-79623712D01*
X142379780Y-79623800D01*
X142379707Y-79623770D01*
X142117255Y-79516003D01*
X142110903Y-79509691D01*
X142110876Y-79509624D01*
X142053981Y-79371064D01*
X142003725Y-79248672D01*
X142003752Y-79239718D01*
X142010104Y-79233406D01*
X142011602Y-79232905D01*
X142131581Y-79201724D01*
X142134593Y-79201349D01*
X142240269Y-79202088D01*
X142240804Y-79202105D01*
X142334259Y-79207606D01*
X142427437Y-79186964D01*
X142525182Y-79115185D01*
X142533878Y-79113051D01*
X142540380Y-79116343D01*
G37*
%TD.AperFunction*%
%TD*%
%TA.AperFunction,Conductor*%
%TO.N,m2_wh*%
G36*
X165497690Y-75425670D02*
G01*
X165498032Y-75426413D01*
X165607115Y-75687489D01*
X165607142Y-75696444D01*
X165607115Y-75696511D01*
X165498032Y-75957585D01*
X165491680Y-75963897D01*
X165482725Y-75963870D01*
X165481982Y-75963528D01*
X165375429Y-75909978D01*
X165374165Y-75909240D01*
X165293224Y-75854937D01*
X165293108Y-75854863D01*
X165222363Y-75809864D01*
X165136016Y-75779271D01*
X165018674Y-75768939D01*
X165010733Y-75764800D01*
X165008000Y-75757284D01*
X165008000Y-75626714D01*
X165011427Y-75618441D01*
X165018671Y-75615060D01*
X165117774Y-75606332D01*
X165136016Y-75604726D01*
X165222363Y-75574134D01*
X165293224Y-75529061D01*
X165293347Y-75528979D01*
X165322680Y-75509299D01*
X165374175Y-75474751D01*
X165375418Y-75474025D01*
X165481984Y-75420469D01*
X165490913Y-75419817D01*
X165497690Y-75425670D01*
G37*
%TD.AperFunction*%
%TD*%
%TA.AperFunction,Conductor*%
%TO.N,m2_vh*%
G36*
X160237687Y-78150377D02*
G01*
X160327967Y-78226044D01*
X160397484Y-78259189D01*
X160410657Y-78265470D01*
X160492634Y-78283705D01*
X160492754Y-78283729D01*
X160522837Y-78289654D01*
X160588277Y-78302543D01*
X160589669Y-78302909D01*
X160702892Y-78340392D01*
X160709669Y-78346245D01*
X160710322Y-78355176D01*
X160710038Y-78355943D01*
X160602563Y-78617684D01*
X160596251Y-78624036D01*
X160596184Y-78624063D01*
X160334443Y-78731538D01*
X160325488Y-78731511D01*
X160319176Y-78725159D01*
X160318892Y-78724392D01*
X160285668Y-78624036D01*
X160281409Y-78611169D01*
X160281043Y-78609777D01*
X160262205Y-78514134D01*
X160262171Y-78513975D01*
X160243970Y-78432157D01*
X160243969Y-78432156D01*
X160204544Y-78349467D01*
X160128877Y-78259187D01*
X160126190Y-78250647D01*
X160129571Y-78243401D01*
X160221901Y-78151071D01*
X160230173Y-78147645D01*
X160237687Y-78150377D01*
G37*
%TD.AperFunction*%
%TD*%
%TA.AperFunction,Conductor*%
%TO.N,m2_vh*%
G36*
X144978779Y-77928424D02*
G01*
X145071187Y-78020832D01*
X145074614Y-78029105D01*
X145071729Y-78036798D01*
X144985706Y-78135361D01*
X144931992Y-78221399D01*
X144931857Y-78221616D01*
X144931747Y-78221829D01*
X144931737Y-78221848D01*
X144891358Y-78300574D01*
X144890873Y-78301430D01*
X144837777Y-78386479D01*
X144836667Y-78387976D01*
X144752278Y-78484668D01*
X144744256Y-78488648D01*
X144735770Y-78485790D01*
X144735217Y-78485276D01*
X144534698Y-78286089D01*
X144531244Y-78277827D01*
X144531244Y-78277760D01*
X144531376Y-78221848D01*
X144531910Y-77994523D01*
X144535356Y-77986259D01*
X144543638Y-77982852D01*
X144544468Y-77982884D01*
X144647250Y-77990630D01*
X144648287Y-77990755D01*
X144737301Y-78005695D01*
X144812858Y-78010270D01*
X144886788Y-77987648D01*
X144963276Y-77927499D01*
X144971895Y-77925080D01*
X144978779Y-77928424D01*
G37*
%TD.AperFunction*%
%TD*%
%TA.AperFunction,Conductor*%
%TO.N,m2_wl*%
G36*
X169491558Y-75095427D02*
G01*
X169494940Y-75102674D01*
X169505271Y-75220016D01*
X169535864Y-75306363D01*
X169580937Y-75377224D01*
X169581019Y-75377347D01*
X169635240Y-75458165D01*
X169635978Y-75459429D01*
X169689528Y-75565982D01*
X169690181Y-75574913D01*
X169684328Y-75581690D01*
X169683585Y-75582032D01*
X169422511Y-75691115D01*
X169413556Y-75691142D01*
X169413489Y-75691115D01*
X169152413Y-75582032D01*
X169146101Y-75575680D01*
X169146128Y-75566725D01*
X169146456Y-75566011D01*
X169200025Y-75459418D01*
X169200751Y-75458175D01*
X169255061Y-75377224D01*
X169300134Y-75306363D01*
X169330726Y-75220016D01*
X169341060Y-75102674D01*
X169345200Y-75094733D01*
X169352715Y-75092000D01*
X169483285Y-75092000D01*
X169491558Y-75095427D01*
G37*
%TD.AperFunction*%
%TD*%
%TA.AperFunction,Conductor*%
%TO.N,m2_wl*%
G36*
X138625169Y-78728382D02*
G01*
X138626151Y-78728844D01*
X138707844Y-78772107D01*
X138708834Y-78772696D01*
X138783370Y-78822133D01*
X138848908Y-78855324D01*
X138913999Y-78855156D01*
X138979671Y-78810308D01*
X138988433Y-78808473D01*
X138994540Y-78811698D01*
X139086456Y-78903614D01*
X139089883Y-78911887D01*
X139086456Y-78920160D01*
X139086025Y-78920570D01*
X139006315Y-78992558D01*
X139005222Y-78993432D01*
X138935880Y-79042398D01*
X138935254Y-79042811D01*
X138871878Y-79081736D01*
X138871852Y-79081752D01*
X138871722Y-79081833D01*
X138871584Y-79081930D01*
X138871568Y-79081941D01*
X138801785Y-79131216D01*
X138801772Y-79131226D01*
X138801495Y-79131422D01*
X138801237Y-79131654D01*
X138801232Y-79131659D01*
X138720357Y-79204703D01*
X138711920Y-79207705D01*
X138704269Y-79204321D01*
X138504866Y-79006243D01*
X138501412Y-78997981D01*
X138502306Y-78993457D01*
X138609875Y-78734693D01*
X138616214Y-78728371D01*
X138625169Y-78728382D01*
G37*
%TD.AperFunction*%
%TD*%
%TA.AperFunction,Conductor*%
%TO.N,Net-(C11-Pad2)*%
G36*
X148996320Y-60815079D02*
G01*
X149000033Y-60823228D01*
X149000040Y-60823597D01*
X149001000Y-61111523D01*
X149000040Y-61399448D01*
X148996586Y-61407710D01*
X148988301Y-61411109D01*
X148987932Y-61411102D01*
X148851379Y-61406339D01*
X148850421Y-61406266D01*
X148745707Y-61393952D01*
X148745193Y-61393880D01*
X148654681Y-61379144D01*
X148654660Y-61379141D01*
X148654549Y-61379123D01*
X148654426Y-61379108D01*
X148654415Y-61379107D01*
X148549332Y-61366750D01*
X148549322Y-61366749D01*
X148549099Y-61366723D01*
X148548884Y-61366715D01*
X148548865Y-61366714D01*
X148411292Y-61361916D01*
X148403143Y-61358203D01*
X148400000Y-61350223D01*
X148400000Y-60872822D01*
X148403427Y-60864549D01*
X148411291Y-60861129D01*
X148549099Y-60856323D01*
X148654549Y-60843922D01*
X148745222Y-60829159D01*
X148745677Y-60829096D01*
X148850428Y-60816778D01*
X148851371Y-60816706D01*
X148987934Y-60811943D01*
X148996320Y-60815079D01*
G37*
%TD.AperFunction*%
%TD*%
%TA.AperFunction,Conductor*%
%TO.N,Net-(C11-Pad2)*%
G36*
X146571472Y-61932104D02*
G01*
X146657070Y-61945472D01*
X146659741Y-61946223D01*
X146736552Y-61978092D01*
X146802705Y-62005215D01*
X146867320Y-62005063D01*
X146932814Y-61961016D01*
X146941590Y-61959244D01*
X146947615Y-61962453D01*
X147285009Y-62299847D01*
X147288436Y-62308120D01*
X147285009Y-62316393D01*
X147283943Y-62317337D01*
X147171655Y-62405130D01*
X147168186Y-62407000D01*
X147064148Y-62442082D01*
X147061216Y-62442667D01*
X146955345Y-62449979D01*
X146831018Y-62460785D01*
X146682854Y-62504218D01*
X146673951Y-62503256D01*
X146668767Y-62497502D01*
X146558201Y-62232882D01*
X146557298Y-62228347D01*
X146557967Y-61943634D01*
X146561413Y-61935371D01*
X146569694Y-61931964D01*
X146571472Y-61932104D01*
G37*
%TD.AperFunction*%
%TD*%
%TA.AperFunction,Conductor*%
%TO.N,m2_current_sense_u*%
G36*
X133273558Y-82153427D02*
G01*
X133276940Y-82160674D01*
X133287271Y-82278016D01*
X133317864Y-82364363D01*
X133362937Y-82435224D01*
X133363019Y-82435347D01*
X133417240Y-82516165D01*
X133417978Y-82517429D01*
X133471528Y-82623982D01*
X133472181Y-82632913D01*
X133466328Y-82639690D01*
X133465585Y-82640032D01*
X133204511Y-82749115D01*
X133195556Y-82749142D01*
X133195489Y-82749115D01*
X132934413Y-82640032D01*
X132928101Y-82633680D01*
X132928128Y-82624725D01*
X132928456Y-82624011D01*
X132982025Y-82517418D01*
X132982751Y-82516175D01*
X133037061Y-82435224D01*
X133082134Y-82364363D01*
X133112726Y-82278016D01*
X133123060Y-82160674D01*
X133127200Y-82152733D01*
X133134715Y-82150000D01*
X133265285Y-82150000D01*
X133273558Y-82153427D01*
G37*
%TD.AperFunction*%
%TD*%
%TA.AperFunction,Conductor*%
%TO.N,m2_current_sense_u*%
G36*
X156315408Y-71101804D02*
G01*
X156315825Y-71102697D01*
X156463123Y-71455998D01*
X156463144Y-71464952D01*
X156463123Y-71465002D01*
X156315825Y-71818302D01*
X156309478Y-71824620D01*
X156300524Y-71824599D01*
X156299631Y-71824182D01*
X156152527Y-71747738D01*
X156150996Y-71746785D01*
X156043739Y-71667999D01*
X155950652Y-71600679D01*
X155836176Y-71553978D01*
X155674518Y-71537567D01*
X155666634Y-71533322D01*
X155664000Y-71525927D01*
X155664000Y-71395072D01*
X155667427Y-71386799D01*
X155674517Y-71383432D01*
X155755945Y-71375164D01*
X155836176Y-71367019D01*
X155950652Y-71320318D01*
X155950652Y-71320317D01*
X155950654Y-71320317D01*
X156043739Y-71253000D01*
X156151006Y-71174204D01*
X156152522Y-71173261D01*
X156299633Y-71096816D01*
X156308552Y-71096043D01*
X156315408Y-71101804D01*
G37*
%TD.AperFunction*%
%TD*%
%TA.AperFunction,Conductor*%
%TO.N,m1_enc_cs*%
G36*
X175079558Y-71285427D02*
G01*
X175082940Y-71292674D01*
X175093271Y-71410016D01*
X175123864Y-71496363D01*
X175168937Y-71567224D01*
X175169019Y-71567347D01*
X175223240Y-71648165D01*
X175223978Y-71649429D01*
X175277528Y-71755982D01*
X175278181Y-71764913D01*
X175272328Y-71771690D01*
X175271585Y-71772032D01*
X175010511Y-71881115D01*
X175001556Y-71881142D01*
X175001489Y-71881115D01*
X174740413Y-71772032D01*
X174734101Y-71765680D01*
X174734128Y-71756725D01*
X174734456Y-71756011D01*
X174788025Y-71649418D01*
X174788751Y-71648175D01*
X174843061Y-71567224D01*
X174888134Y-71496363D01*
X174918726Y-71410016D01*
X174929060Y-71292674D01*
X174933200Y-71284733D01*
X174940715Y-71282000D01*
X175071285Y-71282000D01*
X175079558Y-71285427D01*
G37*
%TD.AperFunction*%
%TD*%
%TA.AperFunction,Conductor*%
%TO.N,m1_enc_cs*%
G36*
X123371411Y-68536059D02*
G01*
X123463940Y-68628588D01*
X123467367Y-68636861D01*
X123464733Y-68644256D01*
X123362028Y-68770169D01*
X123314103Y-68884140D01*
X123295883Y-68997563D01*
X123275752Y-69129119D01*
X123275343Y-69130875D01*
X123225379Y-69288943D01*
X123219618Y-69295799D01*
X123210697Y-69296573D01*
X123209771Y-69296237D01*
X122855795Y-69150572D01*
X122849448Y-69144254D01*
X122849427Y-69144204D01*
X122843588Y-69130015D01*
X122703761Y-68790225D01*
X122703782Y-68781274D01*
X122710129Y-68774956D01*
X122711043Y-68774624D01*
X122869135Y-68724651D01*
X122870864Y-68724249D01*
X123002435Y-68704115D01*
X123115856Y-68685895D01*
X123229829Y-68637969D01*
X123355744Y-68535265D01*
X123364320Y-68532692D01*
X123371411Y-68536059D01*
G37*
%TD.AperFunction*%
%TD*%
%TA.AperFunction,Conductor*%
%TO.N,enc_scl*%
G36*
X174731268Y-72623585D02*
G01*
X174807780Y-72698232D01*
X174872378Y-72753157D01*
X174934365Y-72792655D01*
X175011316Y-72829093D01*
X175014289Y-72830335D01*
X175110074Y-72870353D01*
X175116387Y-72876705D01*
X175116387Y-72885593D01*
X175008563Y-73148184D01*
X175002251Y-73154536D01*
X175002184Y-73154563D01*
X174741377Y-73261655D01*
X174732422Y-73261628D01*
X174726110Y-73255276D01*
X174725576Y-73253645D01*
X174695490Y-73132184D01*
X174695158Y-73128899D01*
X174699577Y-73021438D01*
X174699628Y-73020748D01*
X174709636Y-72925358D01*
X174692513Y-72830335D01*
X174621304Y-72731066D01*
X174619267Y-72722348D01*
X174622537Y-72715977D01*
X174714827Y-72623687D01*
X174723099Y-72620261D01*
X174731268Y-72623585D01*
G37*
%TD.AperFunction*%
%TD*%
%TA.AperFunction,Conductor*%
%TO.N,enc_scl*%
G36*
X121067475Y-70247900D02*
G01*
X121068360Y-70248313D01*
X121079683Y-70254197D01*
X121215468Y-70324757D01*
X121217000Y-70325710D01*
X121324260Y-70404500D01*
X121417345Y-70471818D01*
X121531822Y-70518519D01*
X121693481Y-70534932D01*
X121701365Y-70539177D01*
X121703999Y-70546572D01*
X121703999Y-70677427D01*
X121700572Y-70685700D01*
X121693481Y-70689067D01*
X121531822Y-70705478D01*
X121417345Y-70752179D01*
X121324260Y-70819499D01*
X121217002Y-70898285D01*
X121215471Y-70899238D01*
X121068368Y-70975682D01*
X121059447Y-70976456D01*
X121052591Y-70970695D01*
X121052174Y-70969802D01*
X120941973Y-70705479D01*
X120904875Y-70616499D01*
X120904855Y-70607550D01*
X121052175Y-70254195D01*
X121058521Y-70247879D01*
X121067475Y-70247900D01*
G37*
%TD.AperFunction*%
%TD*%
%TA.AperFunction,Conductor*%
%TO.N,m2_enc_cs*%
G36*
X173301558Y-75095427D02*
G01*
X173304940Y-75102674D01*
X173315271Y-75220016D01*
X173345864Y-75306363D01*
X173390937Y-75377224D01*
X173391019Y-75377347D01*
X173445240Y-75458165D01*
X173445978Y-75459429D01*
X173499528Y-75565982D01*
X173500181Y-75574913D01*
X173494328Y-75581690D01*
X173493585Y-75582032D01*
X173232511Y-75691115D01*
X173223556Y-75691142D01*
X173223489Y-75691115D01*
X172962413Y-75582032D01*
X172956101Y-75575680D01*
X172956128Y-75566725D01*
X172956456Y-75566011D01*
X173010025Y-75459418D01*
X173010751Y-75458175D01*
X173065061Y-75377224D01*
X173110134Y-75306363D01*
X173140726Y-75220016D01*
X173151060Y-75102674D01*
X173155200Y-75094733D01*
X173162715Y-75092000D01*
X173293285Y-75092000D01*
X173301558Y-75095427D01*
G37*
%TD.AperFunction*%
%TD*%
%TA.AperFunction,Conductor*%
%TO.N,m2_enc_cs*%
G36*
X122439420Y-73048050D02*
G01*
X122531949Y-73140579D01*
X122535376Y-73148852D01*
X122532742Y-73156247D01*
X122430037Y-73282160D01*
X122382112Y-73396131D01*
X122363892Y-73509554D01*
X122343761Y-73641110D01*
X122343352Y-73642866D01*
X122293388Y-73800934D01*
X122287627Y-73807790D01*
X122278706Y-73808564D01*
X122277780Y-73808228D01*
X121923804Y-73662563D01*
X121917457Y-73656245D01*
X121917436Y-73656195D01*
X121911597Y-73642006D01*
X121771770Y-73302216D01*
X121771791Y-73293265D01*
X121778138Y-73286947D01*
X121779052Y-73286615D01*
X121937144Y-73236642D01*
X121938873Y-73236240D01*
X122070444Y-73216106D01*
X122183865Y-73197886D01*
X122297838Y-73149960D01*
X122423753Y-73047256D01*
X122432329Y-73044683D01*
X122439420Y-73048050D01*
G37*
%TD.AperFunction*%
%TD*%
%TA.AperFunction,Conductor*%
%TO.N,gpio8*%
G36*
X154308142Y-70415400D02*
G01*
X154309027Y-70415813D01*
X154320350Y-70421697D01*
X154456135Y-70492257D01*
X154457667Y-70493210D01*
X154564927Y-70572000D01*
X154658012Y-70639318D01*
X154772489Y-70686019D01*
X154877598Y-70696690D01*
X154934149Y-70702432D01*
X154942033Y-70706677D01*
X154944667Y-70714072D01*
X154944667Y-70844927D01*
X154941240Y-70853200D01*
X154934149Y-70856567D01*
X154772489Y-70872978D01*
X154658012Y-70919679D01*
X154564927Y-70986999D01*
X154457669Y-71065785D01*
X154456138Y-71066738D01*
X154309035Y-71143182D01*
X154300114Y-71143956D01*
X154293258Y-71138195D01*
X154292841Y-71137302D01*
X154145542Y-70783999D01*
X154145522Y-70775050D01*
X154292842Y-70421695D01*
X154299188Y-70415379D01*
X154308142Y-70415400D01*
G37*
%TD.AperFunction*%
%TD*%
%TA.AperFunction,Conductor*%
%TO.N,gpio8*%
G36*
X172031558Y-75095427D02*
G01*
X172034940Y-75102674D01*
X172045271Y-75220016D01*
X172075864Y-75306363D01*
X172120937Y-75377224D01*
X172121019Y-75377347D01*
X172175240Y-75458165D01*
X172175978Y-75459429D01*
X172229528Y-75565982D01*
X172230181Y-75574913D01*
X172224328Y-75581690D01*
X172223585Y-75582032D01*
X171962511Y-75691115D01*
X171953556Y-75691142D01*
X171953489Y-75691115D01*
X171692413Y-75582032D01*
X171686101Y-75575680D01*
X171686128Y-75566725D01*
X171686456Y-75566011D01*
X171740025Y-75459418D01*
X171740751Y-75458175D01*
X171795061Y-75377224D01*
X171840134Y-75306363D01*
X171870726Y-75220016D01*
X171881060Y-75102674D01*
X171885200Y-75094733D01*
X171892715Y-75092000D01*
X172023285Y-75092000D01*
X172031558Y-75095427D01*
G37*
%TD.AperFunction*%
%TD*%
%TA.AperFunction,Conductor*%
%TO.N,enc_sda*%
G36*
X120201045Y-72279900D02*
G01*
X120201930Y-72280313D01*
X120213253Y-72286197D01*
X120349038Y-72356757D01*
X120350570Y-72357710D01*
X120457830Y-72436500D01*
X120550915Y-72503818D01*
X120665392Y-72550519D01*
X120770501Y-72561190D01*
X120827052Y-72566932D01*
X120834936Y-72571177D01*
X120837570Y-72578572D01*
X120837570Y-72709427D01*
X120834143Y-72717700D01*
X120827052Y-72721067D01*
X120665392Y-72737478D01*
X120550915Y-72784179D01*
X120457830Y-72851499D01*
X120350572Y-72930285D01*
X120349041Y-72931238D01*
X120201938Y-73007682D01*
X120193017Y-73008456D01*
X120186161Y-73002695D01*
X120185744Y-73001802D01*
X120038445Y-72648499D01*
X120038425Y-72639550D01*
X120185745Y-72286195D01*
X120192091Y-72279879D01*
X120201045Y-72279900D01*
G37*
%TD.AperFunction*%
%TD*%
%TA.AperFunction,Conductor*%
%TO.N,enc_sda*%
G36*
X174785794Y-73877470D02*
G01*
X174838886Y-73925131D01*
X174880020Y-73962058D01*
X174960958Y-74018001D01*
X175034381Y-74061729D01*
X175035034Y-74062148D01*
X175115049Y-74117454D01*
X175116206Y-74118367D01*
X175208974Y-74201647D01*
X175212841Y-74209722D01*
X175209864Y-74218168D01*
X175209459Y-74218598D01*
X175010149Y-74419241D01*
X175001887Y-74422695D01*
X175001821Y-74422695D01*
X174718868Y-74422030D01*
X174710602Y-74418584D01*
X174707195Y-74410303D01*
X174707249Y-74409207D01*
X174717321Y-74306072D01*
X174717578Y-74304528D01*
X174737821Y-74218598D01*
X174738754Y-74214639D01*
X174750818Y-74137887D01*
X174734339Y-74062902D01*
X174676178Y-73985665D01*
X174673939Y-73976997D01*
X174677251Y-73970357D01*
X174769706Y-73877902D01*
X174777978Y-73874476D01*
X174785794Y-73877470D01*
G37*
%TD.AperFunction*%
%TD*%
%TA.AperFunction,Conductor*%
%TO.N,scl*%
G36*
X145264971Y-92825600D02*
G01*
X145426399Y-92987028D01*
X145429826Y-92995301D01*
X145426996Y-93002931D01*
X145323291Y-93123485D01*
X145266399Y-93230216D01*
X145236489Y-93335444D01*
X145236479Y-93335481D01*
X145236449Y-93335588D01*
X145236415Y-93335726D01*
X145236413Y-93335737D01*
X145206615Y-93459756D01*
X145206297Y-93460844D01*
X145153600Y-93613357D01*
X145147660Y-93620057D01*
X145138721Y-93620594D01*
X145138090Y-93620356D01*
X144783804Y-93474563D01*
X144777457Y-93468245D01*
X144777436Y-93468195D01*
X144774190Y-93460307D01*
X144631643Y-93113908D01*
X144631664Y-93104955D01*
X144638011Y-93098637D01*
X144638611Y-93098410D01*
X144791169Y-93045695D01*
X144792224Y-93045386D01*
X144916410Y-93015549D01*
X145016753Y-92987028D01*
X145021781Y-92985599D01*
X145021781Y-92985598D01*
X145021784Y-92985598D01*
X145128512Y-92928707D01*
X145249071Y-92825002D01*
X145257575Y-92822206D01*
X145264971Y-92825600D01*
G37*
%TD.AperFunction*%
%TD*%
%TA.AperFunction,Conductor*%
%TO.N,scl*%
G36*
X146453899Y-91291639D02*
G01*
X146808195Y-91437436D01*
X146814542Y-91443754D01*
X146814563Y-91443804D01*
X146960356Y-91798090D01*
X146960335Y-91807044D01*
X146953988Y-91813362D01*
X146953357Y-91813600D01*
X146800844Y-91866297D01*
X146799756Y-91866615D01*
X146675737Y-91896413D01*
X146675726Y-91896415D01*
X146675588Y-91896449D01*
X146675481Y-91896479D01*
X146675444Y-91896489D01*
X146570216Y-91926399D01*
X146463485Y-91983291D01*
X146342931Y-92086996D01*
X146334424Y-92089793D01*
X146327028Y-92086399D01*
X146165600Y-91924971D01*
X146162173Y-91916698D01*
X146165001Y-91909071D01*
X146268707Y-91788512D01*
X146325598Y-91681784D01*
X146355549Y-91576410D01*
X146385386Y-91452224D01*
X146385695Y-91451169D01*
X146438400Y-91298640D01*
X146444339Y-91291942D01*
X146453278Y-91291405D01*
X146453899Y-91291639D01*
G37*
%TD.AperFunction*%
%TD*%
%TA.AperFunction,Conductor*%
%TO.N,+3.3V*%
G36*
X148716187Y-90155409D02*
G01*
X148716496Y-90155729D01*
X148817997Y-90265256D01*
X148818674Y-90266056D01*
X148888705Y-90356709D01*
X148889039Y-90357164D01*
X148946201Y-90439040D01*
X148946276Y-90439137D01*
X148946284Y-90439148D01*
X149009180Y-90520565D01*
X149016725Y-90530331D01*
X149016887Y-90530506D01*
X149016894Y-90530514D01*
X149119206Y-90640916D01*
X149122316Y-90649314D01*
X149118918Y-90657121D01*
X148848146Y-90929250D01*
X148839881Y-90932698D01*
X148839831Y-90932698D01*
X148458320Y-90932025D01*
X148450053Y-90928584D01*
X148446641Y-90920304D01*
X148446880Y-90917972D01*
X148478639Y-90763294D01*
X148479945Y-90759836D01*
X148553844Y-90630772D01*
X148554096Y-90630354D01*
X148623682Y-90520565D01*
X148643018Y-90412705D01*
X148643018Y-90412704D01*
X148609014Y-90357164D01*
X148571627Y-90296096D01*
X148570230Y-90287254D01*
X148573331Y-90281719D01*
X148699642Y-90155408D01*
X148707914Y-90151982D01*
X148716187Y-90155409D01*
G37*
%TD.AperFunction*%
%TD*%
%TA.AperFunction,Conductor*%
%TO.N,+3.3V*%
G36*
X148470078Y-87843098D02*
G01*
X148543314Y-87873632D01*
X148549632Y-87879979D01*
X148549611Y-87888933D01*
X148549262Y-87889692D01*
X148475722Y-88035757D01*
X148474973Y-88037037D01*
X148402100Y-88145123D01*
X148402029Y-88145233D01*
X148341623Y-88239531D01*
X148300520Y-88354635D01*
X148286309Y-88514730D01*
X148282164Y-88522667D01*
X148274655Y-88525395D01*
X148096069Y-88525395D01*
X148087796Y-88521968D01*
X148084415Y-88514730D01*
X148070202Y-88354635D01*
X148070202Y-88354633D01*
X148029100Y-88239533D01*
X147968623Y-88145123D01*
X147968543Y-88145003D01*
X147925341Y-88080927D01*
X147895744Y-88037030D01*
X147895004Y-88035765D01*
X147821461Y-87889692D01*
X147820801Y-87880762D01*
X147826650Y-87873981D01*
X147827409Y-87873632D01*
X148180862Y-87726270D01*
X148189811Y-87726250D01*
X148470078Y-87843098D01*
G37*
%TD.AperFunction*%
%TD*%
%TA.AperFunction,Conductor*%
%TO.N,sda*%
G36*
X141895604Y-92091591D02*
G01*
X141896197Y-92091858D01*
X142031264Y-92157554D01*
X142041326Y-92162448D01*
X142042319Y-92162992D01*
X142151215Y-92229697D01*
X142246905Y-92283029D01*
X142324035Y-92306523D01*
X142362600Y-92318270D01*
X142378529Y-92319466D01*
X142521178Y-92330186D01*
X142529170Y-92334223D01*
X142532000Y-92341853D01*
X142532000Y-92570146D01*
X142528573Y-92578419D01*
X142521177Y-92581813D01*
X142362600Y-92593728D01*
X142246907Y-92628969D01*
X142151302Y-92682252D01*
X142151284Y-92682262D01*
X142151215Y-92682301D01*
X142151131Y-92682352D01*
X142151016Y-92682420D01*
X142042319Y-92749005D01*
X142041326Y-92749549D01*
X141896220Y-92820130D01*
X141887281Y-92820667D01*
X141880581Y-92814727D01*
X141880303Y-92814111D01*
X141853159Y-92749005D01*
X141732875Y-92460499D01*
X141732855Y-92451550D01*
X141880303Y-92097887D01*
X141886650Y-92091570D01*
X141895604Y-92091591D01*
G37*
%TD.AperFunction*%
%TD*%
%TA.AperFunction,Conductor*%
%TO.N,sda*%
G36*
X146453899Y-88243639D02*
G01*
X146808195Y-88389436D01*
X146814542Y-88395754D01*
X146814563Y-88395804D01*
X146960356Y-88750090D01*
X146960335Y-88759044D01*
X146953988Y-88765362D01*
X146953357Y-88765600D01*
X146800844Y-88818297D01*
X146799756Y-88818615D01*
X146675737Y-88848413D01*
X146675726Y-88848415D01*
X146675588Y-88848449D01*
X146675481Y-88848479D01*
X146675444Y-88848489D01*
X146570216Y-88878399D01*
X146463485Y-88935291D01*
X146342931Y-89038996D01*
X146334424Y-89041793D01*
X146327028Y-89038399D01*
X146165600Y-88876971D01*
X146162173Y-88868698D01*
X146165001Y-88861071D01*
X146268707Y-88740512D01*
X146325598Y-88633784D01*
X146355549Y-88528410D01*
X146385386Y-88404224D01*
X146385695Y-88403169D01*
X146438400Y-88250640D01*
X146444339Y-88243942D01*
X146453278Y-88243405D01*
X146453899Y-88243639D01*
G37*
%TD.AperFunction*%
%TD*%
%TA.AperFunction,Conductor*%
%TO.N,+3.3V*%
G36*
X119392551Y-76308977D02*
G01*
X119579346Y-76323517D01*
X119581432Y-76323872D01*
X119713133Y-76358917D01*
X119719673Y-76360658D01*
X119720738Y-76360997D01*
X119839795Y-76405200D01*
X119979592Y-76442400D01*
X120169210Y-76457160D01*
X120177190Y-76461218D01*
X120180000Y-76468824D01*
X120180000Y-76947175D01*
X120176573Y-76955448D01*
X120169208Y-76958840D01*
X119979593Y-76973599D01*
X119840062Y-77010727D01*
X119840044Y-77010732D01*
X119839795Y-77010799D01*
X119839529Y-77010897D01*
X119839525Y-77010899D01*
X119720736Y-77055001D01*
X119719673Y-77055340D01*
X119581439Y-77092125D01*
X119579338Y-77092483D01*
X119392576Y-77107021D01*
X119384062Y-77104246D01*
X119380003Y-77096264D01*
X119379968Y-77095385D01*
X119379867Y-77055001D01*
X119379000Y-76708000D01*
X119379968Y-76320612D01*
X119383416Y-76312349D01*
X119391697Y-76308943D01*
X119392551Y-76308977D01*
G37*
%TD.AperFunction*%
%TD*%
%TA.AperFunction,Conductor*%
%TO.N,+3.3V*%
G36*
X124955960Y-73133185D02*
G01*
X124962077Y-73139398D01*
X125073176Y-73405293D01*
X125182285Y-73671014D01*
X125182258Y-73679969D01*
X125175906Y-73686281D01*
X125174631Y-73686721D01*
X125075363Y-73714655D01*
X125072820Y-73715075D01*
X124984795Y-73719794D01*
X124984443Y-73719808D01*
X124907003Y-73721624D01*
X124829588Y-73744526D01*
X124748764Y-73806352D01*
X124740111Y-73808657D01*
X124733383Y-73805332D01*
X124395634Y-73467583D01*
X124392207Y-73459310D01*
X124395634Y-73451037D01*
X124395880Y-73450798D01*
X124506175Y-73347765D01*
X124507240Y-73346883D01*
X124600132Y-73279002D01*
X124601769Y-73278002D01*
X124691891Y-73232676D01*
X124692902Y-73232227D01*
X124803758Y-73189237D01*
X124947007Y-73133018D01*
X124955960Y-73133185D01*
G37*
%TD.AperFunction*%
%TD*%
%TA.AperFunction,Conductor*%
%TO.N,+3.3V*%
G36*
X125084482Y-73106418D02*
G01*
X125221094Y-73111183D01*
X125222041Y-73111255D01*
X125326783Y-73123571D01*
X125327250Y-73123636D01*
X125417918Y-73138400D01*
X125523369Y-73150800D01*
X125661177Y-73155606D01*
X125669325Y-73159319D01*
X125672469Y-73167299D01*
X125672469Y-73644700D01*
X125669042Y-73652973D01*
X125661177Y-73656393D01*
X125523602Y-73661191D01*
X125523581Y-73661192D01*
X125523369Y-73661200D01*
X125523147Y-73661226D01*
X125523135Y-73661227D01*
X125418051Y-73673583D01*
X125418034Y-73673585D01*
X125417918Y-73673599D01*
X125417807Y-73673617D01*
X125417786Y-73673620D01*
X125327273Y-73688358D01*
X125326759Y-73688430D01*
X125222046Y-73700743D01*
X125221088Y-73700816D01*
X125084536Y-73705579D01*
X125076148Y-73702443D01*
X125072435Y-73694294D01*
X125072428Y-73693972D01*
X125071469Y-73406000D01*
X125072428Y-73118072D01*
X125075882Y-73109812D01*
X125084167Y-73106413D01*
X125084482Y-73106418D01*
G37*
%TD.AperFunction*%
%TD*%
%TA.AperFunction,Conductor*%
%TO.N,+3.3V*%
G36*
X125084482Y-73106418D02*
G01*
X125221094Y-73111183D01*
X125222041Y-73111255D01*
X125326783Y-73123571D01*
X125327250Y-73123636D01*
X125417918Y-73138400D01*
X125523369Y-73150800D01*
X125661177Y-73155606D01*
X125669325Y-73159319D01*
X125672469Y-73167299D01*
X125672469Y-73644700D01*
X125669042Y-73652973D01*
X125661177Y-73656393D01*
X125523602Y-73661191D01*
X125523581Y-73661192D01*
X125523369Y-73661200D01*
X125523147Y-73661226D01*
X125523135Y-73661227D01*
X125418051Y-73673583D01*
X125418034Y-73673585D01*
X125417918Y-73673599D01*
X125417807Y-73673617D01*
X125417786Y-73673620D01*
X125327273Y-73688358D01*
X125326759Y-73688430D01*
X125222046Y-73700743D01*
X125221088Y-73700816D01*
X125084536Y-73705579D01*
X125076148Y-73702443D01*
X125072435Y-73694294D01*
X125072428Y-73693972D01*
X125071469Y-73406000D01*
X125072428Y-73118072D01*
X125075882Y-73109812D01*
X125084167Y-73106413D01*
X125084482Y-73106418D01*
G37*
%TD.AperFunction*%
%TD*%
%TA.AperFunction,Conductor*%
%TO.N,+3.3V*%
G36*
X126742320Y-73109556D02*
G01*
X126746033Y-73117705D01*
X126746040Y-73118074D01*
X126747000Y-73406000D01*
X126746040Y-73693925D01*
X126742586Y-73702187D01*
X126734301Y-73705586D01*
X126733932Y-73705579D01*
X126597379Y-73700816D01*
X126596421Y-73700743D01*
X126491707Y-73688429D01*
X126491193Y-73688357D01*
X126400681Y-73673621D01*
X126400660Y-73673618D01*
X126400549Y-73673600D01*
X126400426Y-73673585D01*
X126400415Y-73673584D01*
X126295332Y-73661227D01*
X126295322Y-73661226D01*
X126295099Y-73661200D01*
X126294884Y-73661192D01*
X126294865Y-73661191D01*
X126157292Y-73656393D01*
X126149143Y-73652680D01*
X126146000Y-73644700D01*
X126146000Y-73167299D01*
X126149427Y-73159026D01*
X126157291Y-73155606D01*
X126295099Y-73150800D01*
X126400549Y-73138399D01*
X126491222Y-73123636D01*
X126491677Y-73123573D01*
X126596428Y-73111255D01*
X126597371Y-73111183D01*
X126733934Y-73106420D01*
X126742320Y-73109556D01*
G37*
%TD.AperFunction*%
%TD*%
%TA.AperFunction,Conductor*%
%TO.N,+3.3V*%
G36*
X128218175Y-82019618D02*
G01*
X128221595Y-82027513D01*
X128225242Y-82140711D01*
X128225288Y-82141024D01*
X128225290Y-82141038D01*
X128238352Y-82228591D01*
X128262172Y-82302730D01*
X128262284Y-82302988D01*
X128262287Y-82302996D01*
X128298315Y-82386028D01*
X128343670Y-82490504D01*
X128343821Y-82499457D01*
X128337597Y-82505895D01*
X128337449Y-82505959D01*
X128075742Y-82615306D01*
X128066787Y-82615333D01*
X128066720Y-82615306D01*
X127971510Y-82575525D01*
X127805010Y-82505958D01*
X127798699Y-82499607D01*
X127798725Y-82490653D01*
X127844145Y-82386028D01*
X127880289Y-82302730D01*
X127904109Y-82228591D01*
X127917219Y-82140711D01*
X127920866Y-82027513D01*
X127924558Y-82019356D01*
X127932560Y-82016191D01*
X128209902Y-82016191D01*
X128218175Y-82019618D01*
G37*
%TD.AperFunction*%
%TD*%
%TA.AperFunction,Conductor*%
%TO.N,+3.3V*%
G36*
X125601537Y-78733494D02*
G01*
X125706162Y-78778914D01*
X125789460Y-78815058D01*
X125863599Y-78838878D01*
X125951479Y-78851988D01*
X126064677Y-78855635D01*
X126072835Y-78859327D01*
X126076000Y-78867329D01*
X126076000Y-79144670D01*
X126072573Y-79152943D01*
X126064677Y-79156364D01*
X125951809Y-79160000D01*
X125951802Y-79160000D01*
X125951479Y-79160011D01*
X125951166Y-79160057D01*
X125951151Y-79160059D01*
X125863598Y-79173121D01*
X125789735Y-79196852D01*
X125789723Y-79196856D01*
X125789460Y-79196941D01*
X125789207Y-79197050D01*
X125789193Y-79197056D01*
X125706162Y-79233084D01*
X125601686Y-79278439D01*
X125592733Y-79278590D01*
X125586295Y-79272366D01*
X125586246Y-79272254D01*
X125476883Y-79010509D01*
X125476857Y-79001555D01*
X125586233Y-78739777D01*
X125592583Y-78733468D01*
X125601537Y-78733494D01*
G37*
%TD.AperFunction*%
%TD*%
%TA.AperFunction,Conductor*%
%TO.N,/motor_controls/standby*%
G36*
X127369846Y-59613467D02*
G01*
X127376158Y-59619819D01*
X127376131Y-59628774D01*
X127375789Y-59629517D01*
X127322239Y-59736069D01*
X127321501Y-59737333D01*
X127267198Y-59818274D01*
X127267124Y-59818390D01*
X127222125Y-59889135D01*
X127191532Y-59975482D01*
X127181201Y-60092826D01*
X127177062Y-60100767D01*
X127169546Y-60103500D01*
X127038976Y-60103500D01*
X127030703Y-60100073D01*
X127027321Y-60092826D01*
X127016987Y-59975482D01*
X126986395Y-59889135D01*
X126941322Y-59818274D01*
X126941240Y-59818151D01*
X126887019Y-59737333D01*
X126886281Y-59736069D01*
X126832732Y-59629517D01*
X126832079Y-59620586D01*
X126837932Y-59613809D01*
X126838664Y-59613472D01*
X127099751Y-59504383D01*
X127108705Y-59504357D01*
X127369846Y-59613467D01*
G37*
%TD.AperFunction*%
%TD*%
%TA.AperFunction,Conductor*%
%TO.N,/motor_controls/standby*%
G36*
X126374486Y-67118043D02*
G01*
X126377729Y-67124249D01*
X126394722Y-67218937D01*
X126394723Y-67218939D01*
X126445296Y-67276762D01*
X126519320Y-67313768D01*
X126607292Y-67355122D01*
X126609365Y-67356373D01*
X126693443Y-67419981D01*
X126697973Y-67427706D01*
X126695715Y-67436371D01*
X126694677Y-67437566D01*
X126495446Y-67637737D01*
X126487181Y-67641183D01*
X126487114Y-67641183D01*
X126203961Y-67640239D01*
X126195699Y-67636785D01*
X126192300Y-67628500D01*
X126192302Y-67628341D01*
X126195319Y-67510033D01*
X126195355Y-67509398D01*
X126203250Y-67417441D01*
X126203287Y-67417084D01*
X126212736Y-67337533D01*
X126212754Y-67337336D01*
X126217954Y-67276762D01*
X126220672Y-67245100D01*
X126223709Y-67126017D01*
X126227345Y-67117835D01*
X126235405Y-67114616D01*
X126366213Y-67114616D01*
X126374486Y-67118043D01*
G37*
%TD.AperFunction*%
%TD*%
%TA.AperFunction,Conductor*%
%TO.N,+3.3V*%
G36*
X123900512Y-67098682D02*
G01*
X123903653Y-67104387D01*
X123920370Y-67178715D01*
X123971631Y-67215073D01*
X124047807Y-67226319D01*
X124140336Y-67234357D01*
X124142278Y-67234692D01*
X124231632Y-67258045D01*
X124238770Y-67263453D01*
X124239994Y-67272323D01*
X124239489Y-67273829D01*
X124131660Y-67535093D01*
X124125336Y-67541433D01*
X124125289Y-67541452D01*
X123862543Y-67649336D01*
X123853588Y-67649309D01*
X123847710Y-67643894D01*
X123781560Y-67516172D01*
X123713682Y-67422934D01*
X123657051Y-67343633D01*
X123655718Y-67341202D01*
X123617087Y-67245212D01*
X123616299Y-67242010D01*
X123615532Y-67234357D01*
X123613601Y-67215072D01*
X123602889Y-67108121D01*
X123605475Y-67099548D01*
X123613365Y-67095313D01*
X123614531Y-67095255D01*
X123892239Y-67095255D01*
X123900512Y-67098682D01*
G37*
%TD.AperFunction*%
%TD*%
%TA.AperFunction,Conductor*%
%TO.N,+3.3V*%
G36*
X128667704Y-58153632D02*
G01*
X128667757Y-58153755D01*
X128777115Y-58415488D01*
X128777142Y-58424443D01*
X128777115Y-58424510D01*
X128667768Y-58686218D01*
X128661416Y-58692530D01*
X128652461Y-58692503D01*
X128652313Y-58692439D01*
X128547837Y-58647084D01*
X128464805Y-58611056D01*
X128464797Y-58611053D01*
X128464539Y-58610941D01*
X128464268Y-58610854D01*
X128464263Y-58610852D01*
X128390400Y-58587121D01*
X128302847Y-58574059D01*
X128302833Y-58574057D01*
X128302520Y-58574011D01*
X128302194Y-58574000D01*
X128302189Y-58574000D01*
X128189323Y-58570364D01*
X128181165Y-58566672D01*
X128178000Y-58558670D01*
X128178000Y-58281329D01*
X128181427Y-58273056D01*
X128189322Y-58269635D01*
X128302520Y-58265988D01*
X128390400Y-58252878D01*
X128464539Y-58229058D01*
X128547837Y-58192914D01*
X128652315Y-58147558D01*
X128661266Y-58147408D01*
X128667704Y-58153632D01*
G37*
%TD.AperFunction*%
%TD*%
%TA.AperFunction,Conductor*%
%TO.N,Net-(U3-in-1)*%
G36*
X129162047Y-88867368D02*
G01*
X129359930Y-88948622D01*
X129424014Y-88974936D01*
X129430366Y-88981248D01*
X129430393Y-88981315D01*
X129537952Y-89243259D01*
X129537925Y-89252214D01*
X129531573Y-89258526D01*
X129531001Y-89258744D01*
X129420303Y-89297570D01*
X129419334Y-89297863D01*
X129327397Y-89321406D01*
X129327382Y-89321410D01*
X129327289Y-89321434D01*
X129327212Y-89321457D01*
X129327182Y-89321466D01*
X129249308Y-89345376D01*
X129170208Y-89389180D01*
X129082510Y-89465325D01*
X129074016Y-89468161D01*
X129066566Y-89464763D01*
X128940566Y-89338763D01*
X128937139Y-89330490D01*
X128940003Y-89322820D01*
X129016145Y-89235123D01*
X129026897Y-89215705D01*
X129059951Y-89156020D01*
X129083861Y-89078145D01*
X129083894Y-89078039D01*
X129107465Y-88985988D01*
X129107752Y-88985037D01*
X129146586Y-88874325D01*
X129152557Y-88867655D01*
X129161499Y-88867159D01*
X129162047Y-88867368D01*
G37*
%TD.AperFunction*%
%TD*%
%TA.AperFunction,Conductor*%
%TO.N,Net-(U3-in-1)*%
G36*
X125125359Y-90401426D02*
G01*
X125125915Y-90401676D01*
X125231654Y-90452500D01*
X125232517Y-90452962D01*
X125314290Y-90501393D01*
X125386359Y-90539602D01*
X125473270Y-90564562D01*
X125489660Y-90565717D01*
X125589124Y-90572732D01*
X125597135Y-90576732D01*
X125600000Y-90584403D01*
X125600000Y-90762595D01*
X125596573Y-90770868D01*
X125589123Y-90774266D01*
X125473270Y-90782435D01*
X125386359Y-90807396D01*
X125314433Y-90845528D01*
X125314394Y-90845549D01*
X125314290Y-90845605D01*
X125314185Y-90845666D01*
X125314155Y-90845684D01*
X125232531Y-90894027D01*
X125231638Y-90894505D01*
X125125917Y-90945322D01*
X125116976Y-90945818D01*
X125110303Y-90939846D01*
X125110052Y-90939288D01*
X125054945Y-90807397D01*
X125000883Y-90678009D01*
X125000857Y-90669056D01*
X125000862Y-90669042D01*
X125110052Y-90407710D01*
X125116404Y-90401399D01*
X125125359Y-90401426D01*
G37*
%TD.AperFunction*%
%TD*%
%TA.AperFunction,Conductor*%
%TO.N,Net-(U3-in+1)*%
G36*
X125725359Y-91077926D02*
G01*
X125725915Y-91078176D01*
X125831654Y-91129000D01*
X125832517Y-91129462D01*
X125914290Y-91177893D01*
X125986359Y-91216102D01*
X126073270Y-91241062D01*
X126089660Y-91242217D01*
X126189124Y-91249232D01*
X126197135Y-91253232D01*
X126200000Y-91260903D01*
X126200000Y-91439095D01*
X126196573Y-91447368D01*
X126189123Y-91450766D01*
X126073270Y-91458935D01*
X125986359Y-91483896D01*
X125914433Y-91522028D01*
X125914394Y-91522049D01*
X125914290Y-91522105D01*
X125914185Y-91522166D01*
X125914155Y-91522184D01*
X125832531Y-91570527D01*
X125831638Y-91571005D01*
X125725917Y-91621822D01*
X125716976Y-91622318D01*
X125710303Y-91616346D01*
X125710052Y-91615788D01*
X125654945Y-91483897D01*
X125600883Y-91354509D01*
X125600857Y-91345555D01*
X125710052Y-91084210D01*
X125716404Y-91077899D01*
X125725359Y-91077926D01*
G37*
%TD.AperFunction*%
%TD*%
%TA.AperFunction,Conductor*%
%TO.N,Net-(U3-in+1)*%
G36*
X130331628Y-89155611D02*
G01*
X130331675Y-89155658D01*
X130531856Y-89357178D01*
X130535255Y-89365463D01*
X130532247Y-89373256D01*
X130457781Y-89455900D01*
X130457774Y-89455908D01*
X130457544Y-89456164D01*
X130457347Y-89456444D01*
X130457340Y-89456454D01*
X130407400Y-89527771D01*
X130407385Y-89527794D01*
X130407294Y-89527924D01*
X130407205Y-89528070D01*
X130407195Y-89528086D01*
X130367864Y-89592895D01*
X130367446Y-89593536D01*
X130317824Y-89664398D01*
X130316932Y-89665519D01*
X130243550Y-89746963D01*
X130235466Y-89750815D01*
X130227026Y-89747823D01*
X130226585Y-89747404D01*
X130100506Y-89621325D01*
X130097079Y-89613052D01*
X130098898Y-89606787D01*
X130150318Y-89525725D01*
X130141780Y-89448069D01*
X130141780Y-89448068D01*
X130098475Y-89368881D01*
X130098324Y-89368597D01*
X130051033Y-89276176D01*
X130049948Y-89272993D01*
X130030105Y-89166713D01*
X130031955Y-89157952D01*
X130039459Y-89153065D01*
X130041568Y-89152866D01*
X130323348Y-89152204D01*
X130331628Y-89155611D01*
G37*
%TD.AperFunction*%
%TD*%
%TA.AperFunction,Conductor*%
%TO.N,Net-(U3-ref_1)*%
G36*
X132151713Y-87603479D02*
G01*
X132155140Y-87611752D01*
X132155111Y-87612580D01*
X132147664Y-87717557D01*
X132147365Y-87719478D01*
X132127679Y-87800910D01*
X132127395Y-87801895D01*
X132103723Y-87872192D01*
X132103719Y-87872202D01*
X132103641Y-87872437D01*
X132103582Y-87872678D01*
X132103579Y-87872691D01*
X132083603Y-87955320D01*
X132075968Y-88062964D01*
X132071964Y-88070974D01*
X132064336Y-88073836D01*
X131783056Y-88074773D01*
X131774771Y-88071374D01*
X131772202Y-88067537D01*
X131725889Y-87955325D01*
X131665383Y-87808721D01*
X131665394Y-87799767D01*
X131671734Y-87793443D01*
X131672946Y-87793019D01*
X131765636Y-87766311D01*
X131767093Y-87765992D01*
X131860341Y-87751720D01*
X131935716Y-87732941D01*
X131985820Y-87689231D01*
X132002091Y-87609414D01*
X132007101Y-87601993D01*
X132013555Y-87600052D01*
X132143440Y-87600052D01*
X132151713Y-87603479D01*
G37*
%TD.AperFunction*%
%TD*%
%TA.AperFunction,Conductor*%
%TO.N,Net-(U3-ref_1)*%
G36*
X126163281Y-83045461D02*
G01*
X126163707Y-83045913D01*
X126197417Y-83083585D01*
X126232098Y-83122344D01*
X126232459Y-83122769D01*
X126288010Y-83191648D01*
X126288292Y-83191915D01*
X126288293Y-83191916D01*
X126341888Y-83242669D01*
X126341889Y-83242669D01*
X126341890Y-83242670D01*
X126413150Y-83274269D01*
X126510490Y-83284043D01*
X126518378Y-83288279D01*
X126521020Y-83295684D01*
X126521020Y-83426301D01*
X126517593Y-83434574D01*
X126510256Y-83437963D01*
X126376217Y-83448721D01*
X126275599Y-83476357D01*
X126275580Y-83476363D01*
X126275315Y-83476436D01*
X126275053Y-83476536D01*
X126275036Y-83476542D01*
X126189589Y-83509307D01*
X126188499Y-83509665D01*
X126089213Y-83536936D01*
X126087050Y-83537316D01*
X125955941Y-83547839D01*
X125947420Y-83545086D01*
X125943343Y-83537113D01*
X125943305Y-83536238D01*
X125942364Y-83253734D01*
X125945762Y-83245451D01*
X126146735Y-83045421D01*
X126155016Y-83042015D01*
X126163281Y-83045461D01*
G37*
%TD.AperFunction*%
%TD*%
%TA.AperFunction,Conductor*%
%TO.N,Net-(U3-ref_1)*%
G36*
X131989646Y-82683808D02*
G01*
X131990409Y-82685315D01*
X132099115Y-82945489D01*
X132099142Y-82954444D01*
X132099115Y-82954511D01*
X131989689Y-83216406D01*
X131983337Y-83222718D01*
X131974420Y-83222706D01*
X131875193Y-83181655D01*
X131795291Y-83152317D01*
X131795284Y-83152314D01*
X131794952Y-83152193D01*
X131794609Y-83152112D01*
X131794597Y-83152109D01*
X131723588Y-83135464D01*
X131723582Y-83135463D01*
X131723181Y-83135369D01*
X131722771Y-83135332D01*
X131722764Y-83135331D01*
X131638816Y-83127794D01*
X131638810Y-83127793D01*
X131638591Y-83127774D01*
X131638387Y-83127770D01*
X131638370Y-83127770D01*
X131531416Y-83126172D01*
X131523195Y-83122622D01*
X131519891Y-83114473D01*
X131519891Y-82983954D01*
X131523318Y-82975681D01*
X131529715Y-82972405D01*
X131650121Y-82952860D01*
X131729659Y-82898533D01*
X131790408Y-82824908D01*
X131790843Y-82824413D01*
X131863968Y-82746081D01*
X131866499Y-82744035D01*
X131973597Y-82679792D01*
X131982452Y-82678476D01*
X131989646Y-82683808D01*
G37*
%TD.AperFunction*%
%TD*%
%TA.AperFunction,Conductor*%
%TO.N,Net-(U3-ref_1)*%
G36*
X132104484Y-82950873D02*
G01*
X132365404Y-83059891D01*
X132371716Y-83066243D01*
X132371689Y-83075198D01*
X132371264Y-83076103D01*
X132315678Y-83182551D01*
X132314693Y-83184120D01*
X132256175Y-83262760D01*
X132255537Y-83263617D01*
X132204664Y-83332696D01*
X132169272Y-83417777D01*
X132165431Y-83454885D01*
X132157086Y-83535526D01*
X132152826Y-83543403D01*
X132145448Y-83546022D01*
X132014860Y-83546022D01*
X132006587Y-83542595D01*
X132003192Y-83535192D01*
X131994603Y-83420053D01*
X131968565Y-83333975D01*
X131929108Y-83262760D01*
X131879743Y-83181849D01*
X131879209Y-83180871D01*
X131828244Y-83075940D01*
X131827712Y-83067001D01*
X131833656Y-83060304D01*
X131834226Y-83060045D01*
X132095490Y-82950883D01*
X132104443Y-82950857D01*
X132104484Y-82950873D01*
G37*
%TD.AperFunction*%
%TD*%
%TA.AperFunction,Conductor*%
%TO.N,/motor_controls/standby*%
G36*
X127124099Y-82314673D02*
G01*
X127216427Y-82407001D01*
X127219854Y-82415274D01*
X127217121Y-82422790D01*
X127141454Y-82513069D01*
X127138367Y-82519544D01*
X127102029Y-82595758D01*
X127083793Y-82677735D01*
X127083771Y-82677847D01*
X127064957Y-82773366D01*
X127064585Y-82774782D01*
X127027107Y-82887993D01*
X127021254Y-82894770D01*
X127012323Y-82895423D01*
X127011556Y-82895139D01*
X126749815Y-82787664D01*
X126743463Y-82781352D01*
X126743436Y-82781285D01*
X126635961Y-82519544D01*
X126635988Y-82510589D01*
X126642340Y-82504277D01*
X126643097Y-82503996D01*
X126756331Y-82466508D01*
X126757716Y-82466144D01*
X126853364Y-82447306D01*
X126853523Y-82447272D01*
X126935342Y-82429071D01*
X127018029Y-82389646D01*
X127018029Y-82389645D01*
X127018031Y-82389645D01*
X127108312Y-82313978D01*
X127116852Y-82311291D01*
X127124099Y-82314673D01*
G37*
%TD.AperFunction*%
%TD*%
%TA.AperFunction,Conductor*%
%TO.N,/motor_controls/standby*%
G36*
X127426215Y-79763873D02*
G01*
X127687316Y-79872967D01*
X127693628Y-79879319D01*
X127693601Y-79888274D01*
X127693259Y-79889017D01*
X127639709Y-79995569D01*
X127638971Y-79996833D01*
X127584668Y-80077774D01*
X127584594Y-80077890D01*
X127539595Y-80148635D01*
X127509002Y-80234982D01*
X127498671Y-80352326D01*
X127494532Y-80360267D01*
X127487016Y-80363000D01*
X127356446Y-80363000D01*
X127348173Y-80359573D01*
X127344791Y-80352326D01*
X127334457Y-80234982D01*
X127303865Y-80148635D01*
X127258792Y-80077774D01*
X127258710Y-80077651D01*
X127204489Y-79996833D01*
X127203751Y-79995569D01*
X127150202Y-79889017D01*
X127149549Y-79880086D01*
X127155402Y-79873309D01*
X127156134Y-79872972D01*
X127417221Y-79763883D01*
X127426174Y-79763857D01*
X127426215Y-79763873D01*
G37*
%TD.AperFunction*%
%TD*%
%TA.AperFunction,Conductor*%
%TO.N,m2_uh*%
G36*
X146380178Y-77597462D02*
G01*
X146386502Y-77603802D01*
X146387111Y-77605741D01*
X146412075Y-77718682D01*
X146412350Y-77721322D01*
X146411197Y-77838644D01*
X146411693Y-77937068D01*
X146411693Y-77937069D01*
X146444941Y-78004219D01*
X146444942Y-78004220D01*
X146533236Y-78026807D01*
X146540400Y-78032176D01*
X146542035Y-78038141D01*
X146542035Y-78168535D01*
X146538608Y-78176808D01*
X146530335Y-78180235D01*
X146529541Y-78180208D01*
X146399788Y-78171384D01*
X146397450Y-78170984D01*
X146301168Y-78144238D01*
X146298938Y-78143364D01*
X146218419Y-78101851D01*
X146217901Y-78101567D01*
X146125110Y-78047627D01*
X146125105Y-78047624D01*
X146124898Y-78047504D01*
X146034257Y-78004219D01*
X146002118Y-77988871D01*
X145996129Y-77982213D01*
X145996336Y-77973870D01*
X146104088Y-77711447D01*
X146110396Y-77705100D01*
X146371223Y-77597451D01*
X146380178Y-77597462D01*
G37*
%TD.AperFunction*%
%TD*%
%TA.AperFunction,Conductor*%
%TO.N,m2_uh*%
G36*
X158596614Y-78003927D02*
G01*
X158600040Y-78012159D01*
X158600135Y-78040489D01*
X158600983Y-78295114D01*
X158597584Y-78303399D01*
X158597537Y-78303446D01*
X158397395Y-78502649D01*
X158389113Y-78506056D01*
X158380848Y-78502610D01*
X158379789Y-78501387D01*
X158316330Y-78416985D01*
X158315053Y-78414844D01*
X158274253Y-78326165D01*
X158274200Y-78326055D01*
X158237925Y-78251311D01*
X158237925Y-78251310D01*
X158180624Y-78200061D01*
X158180623Y-78200060D01*
X158085984Y-78182808D01*
X158078459Y-78177953D01*
X158076382Y-78171298D01*
X158076382Y-78040489D01*
X158079809Y-78032216D01*
X158087809Y-78028792D01*
X158206354Y-78026035D01*
X158298453Y-78018829D01*
X158298635Y-78018811D01*
X158351209Y-78013119D01*
X158377816Y-78010239D01*
X158378049Y-78010218D01*
X158469726Y-78003045D01*
X158470309Y-78003015D01*
X158578366Y-78000502D01*
X158578638Y-78000500D01*
X158588341Y-78000500D01*
X158596614Y-78003927D01*
G37*
%TD.AperFunction*%
%TD*%
%TA.AperFunction,Conductor*%
%TO.N,m1_uh*%
G36*
X127274511Y-65389988D02*
G01*
X127280823Y-65396340D01*
X127281107Y-65397107D01*
X127318585Y-65510316D01*
X127318957Y-65511732D01*
X127337793Y-65607364D01*
X127337829Y-65607532D01*
X127349446Y-65659749D01*
X127356029Y-65689341D01*
X127395455Y-65772031D01*
X127471121Y-65862311D01*
X127473809Y-65870852D01*
X127470427Y-65878099D01*
X127378099Y-65970427D01*
X127369826Y-65973854D01*
X127362311Y-65971121D01*
X127272031Y-65895455D01*
X127189341Y-65856029D01*
X127107364Y-65837793D01*
X127011732Y-65818957D01*
X127010316Y-65818585D01*
X126897107Y-65781107D01*
X126890330Y-65775254D01*
X126889677Y-65766323D01*
X126889961Y-65765556D01*
X126997436Y-65503815D01*
X127003746Y-65497464D01*
X127265557Y-65389961D01*
X127274511Y-65389988D01*
G37*
%TD.AperFunction*%
%TD*%
%TA.AperFunction,Conductor*%
%TO.N,m1_uh*%
G36*
X131039690Y-66883670D02*
G01*
X131040032Y-66884413D01*
X131149115Y-67145489D01*
X131149142Y-67154444D01*
X131149115Y-67154511D01*
X131040032Y-67415585D01*
X131033680Y-67421897D01*
X131024725Y-67421870D01*
X131023982Y-67421528D01*
X130917429Y-67367978D01*
X130916165Y-67367240D01*
X130835224Y-67312937D01*
X130835108Y-67312863D01*
X130764363Y-67267864D01*
X130678016Y-67237271D01*
X130560673Y-67226939D01*
X130552732Y-67222800D01*
X130550000Y-67215286D01*
X130550000Y-67084711D01*
X130553426Y-67076441D01*
X130560670Y-67073060D01*
X130661090Y-67064216D01*
X130678016Y-67062726D01*
X130764363Y-67032134D01*
X130835224Y-66987061D01*
X130835347Y-66986979D01*
X130864680Y-66967299D01*
X130916175Y-66932751D01*
X130917418Y-66932025D01*
X131023984Y-66878469D01*
X131032913Y-66877817D01*
X131039690Y-66883670D01*
G37*
%TD.AperFunction*%
%TD*%
%TA.AperFunction,Conductor*%
%TO.N,m1_ul*%
G36*
X132915097Y-65228129D02*
G01*
X132915840Y-65228471D01*
X132958789Y-65250055D01*
X133022395Y-65282022D01*
X133023656Y-65282758D01*
X133104597Y-65337061D01*
X133104713Y-65337135D01*
X133175458Y-65382134D01*
X133261805Y-65412726D01*
X133287042Y-65414948D01*
X133379151Y-65423060D01*
X133387090Y-65427198D01*
X133389823Y-65434714D01*
X133389823Y-65565284D01*
X133386396Y-65573557D01*
X133379149Y-65576939D01*
X133261805Y-65587271D01*
X133175458Y-65617864D01*
X133104597Y-65662937D01*
X133104474Y-65663019D01*
X133023656Y-65717240D01*
X133022392Y-65717978D01*
X132915840Y-65771528D01*
X132906909Y-65772181D01*
X132900132Y-65766328D01*
X132899790Y-65765585D01*
X132879590Y-65717240D01*
X132790706Y-65504509D01*
X132790680Y-65495556D01*
X132790685Y-65495542D01*
X132899790Y-65234413D01*
X132906142Y-65228102D01*
X132915097Y-65228129D01*
G37*
%TD.AperFunction*%
%TD*%
%TA.AperFunction,Conductor*%
%TO.N,m1_ul*%
G36*
X157089690Y-66433670D02*
G01*
X157090032Y-66434413D01*
X157170265Y-66626441D01*
X157199115Y-66695488D01*
X157199142Y-66704443D01*
X157199115Y-66704510D01*
X157090032Y-66965585D01*
X157083680Y-66971897D01*
X157074725Y-66971870D01*
X157073982Y-66971528D01*
X156967429Y-66917978D01*
X156966165Y-66917240D01*
X156885224Y-66862937D01*
X156885108Y-66862863D01*
X156814363Y-66817864D01*
X156728016Y-66787271D01*
X156610674Y-66776939D01*
X156602733Y-66772800D01*
X156600000Y-66765284D01*
X156600000Y-66634714D01*
X156603427Y-66626441D01*
X156610671Y-66623060D01*
X156709774Y-66614332D01*
X156728016Y-66612726D01*
X156814363Y-66582134D01*
X156885224Y-66537061D01*
X156885347Y-66536979D01*
X156914680Y-66517299D01*
X156966175Y-66482751D01*
X156967418Y-66482025D01*
X157073984Y-66428469D01*
X157082913Y-66427817D01*
X157089690Y-66433670D01*
G37*
%TD.AperFunction*%
%TD*%
%TA.AperFunction,Conductor*%
%TO.N,m1_ul*%
G36*
X132394824Y-65077048D02*
G01*
X132489898Y-65149985D01*
X132579633Y-65177018D01*
X132669436Y-65179661D01*
X132669697Y-65179673D01*
X132772057Y-65185610D01*
X132774553Y-65186029D01*
X132892009Y-65219265D01*
X132899036Y-65224815D01*
X132900081Y-65233709D01*
X132899646Y-65234967D01*
X132792386Y-65496184D01*
X132786074Y-65502536D01*
X132786007Y-65502563D01*
X132523804Y-65610228D01*
X132514849Y-65610201D01*
X132508537Y-65603849D01*
X132508411Y-65603529D01*
X132468881Y-65498589D01*
X132468742Y-65498199D01*
X132467858Y-65495576D01*
X132439969Y-65412768D01*
X132409709Y-65341690D01*
X132361597Y-65268937D01*
X132361596Y-65268936D01*
X132361595Y-65268934D01*
X132286707Y-65186540D01*
X132283678Y-65178113D01*
X132287091Y-65170399D01*
X132379432Y-65078058D01*
X132387704Y-65074632D01*
X132394824Y-65077048D01*
G37*
%TD.AperFunction*%
%TD*%
%TA.AperFunction,Conductor*%
%TO.N,m1_ul*%
G36*
X128214451Y-62831130D02*
G01*
X128220763Y-62837482D01*
X128221002Y-62838114D01*
X128259091Y-62948654D01*
X128259413Y-62949764D01*
X128281040Y-63040864D01*
X128281365Y-63042232D01*
X128281401Y-63042362D01*
X128281423Y-63042445D01*
X128303392Y-63120869D01*
X128345538Y-63200498D01*
X128420912Y-63288269D01*
X128423702Y-63296778D01*
X128420309Y-63304165D01*
X128327969Y-63396505D01*
X128319696Y-63399932D01*
X128312304Y-63397301D01*
X128311327Y-63396505D01*
X128220592Y-63322556D01*
X128135658Y-63286983D01*
X128135657Y-63286982D01*
X128135655Y-63286982D01*
X128051125Y-63273559D01*
X127953321Y-63258720D01*
X127951554Y-63258309D01*
X127837129Y-63222193D01*
X127830271Y-63216435D01*
X127829494Y-63207514D01*
X127829822Y-63206607D01*
X127937236Y-62945014D01*
X127943546Y-62938664D01*
X128205498Y-62831103D01*
X128214451Y-62831130D01*
G37*
%TD.AperFunction*%
%TD*%
%TA.AperFunction,Conductor*%
%TO.N,m1_vh*%
G36*
X153696177Y-66382312D02*
G01*
X153697576Y-66383500D01*
X153897537Y-66582522D01*
X153900983Y-66590787D01*
X153900983Y-66590854D01*
X153900039Y-66874211D01*
X153896585Y-66882473D01*
X153888300Y-66885872D01*
X153888243Y-66885872D01*
X153773171Y-66884932D01*
X153683181Y-66882459D01*
X153605471Y-66879509D01*
X153515481Y-66877036D01*
X153400258Y-66876094D01*
X153392013Y-66872599D01*
X153388654Y-66864394D01*
X153388654Y-66733591D01*
X153392081Y-66725318D01*
X153398056Y-66722119D01*
X153492572Y-66703215D01*
X153546565Y-66647641D01*
X153578521Y-66567442D01*
X153615793Y-66474117D01*
X153617169Y-66471618D01*
X153679842Y-66384937D01*
X153687465Y-66380241D01*
X153696177Y-66382312D01*
G37*
%TD.AperFunction*%
%TD*%
%TA.AperFunction,Conductor*%
%TO.N,m1_vh*%
G36*
X128525274Y-65346829D02*
G01*
X128526017Y-65347171D01*
X128568966Y-65368755D01*
X128632572Y-65400722D01*
X128633833Y-65401458D01*
X128714774Y-65455761D01*
X128714890Y-65455835D01*
X128785635Y-65500834D01*
X128871982Y-65531426D01*
X128897219Y-65533648D01*
X128989328Y-65541760D01*
X128997267Y-65545898D01*
X129000000Y-65553414D01*
X129000000Y-65683984D01*
X128996573Y-65692257D01*
X128989326Y-65695639D01*
X128871982Y-65705971D01*
X128785635Y-65736564D01*
X128714774Y-65781637D01*
X128714651Y-65781719D01*
X128633833Y-65835940D01*
X128632569Y-65836678D01*
X128526017Y-65890228D01*
X128517086Y-65890881D01*
X128510309Y-65885028D01*
X128509967Y-65884285D01*
X128489767Y-65835940D01*
X128400883Y-65623209D01*
X128400857Y-65614256D01*
X128400862Y-65614242D01*
X128509967Y-65353113D01*
X128516319Y-65346802D01*
X128525274Y-65346829D01*
G37*
%TD.AperFunction*%
%TD*%
%TA.AperFunction,Conductor*%
%TO.N,m1_vh*%
G36*
X133589690Y-66433670D02*
G01*
X133590032Y-66434413D01*
X133670265Y-66626441D01*
X133699115Y-66695488D01*
X133699142Y-66704443D01*
X133699115Y-66704510D01*
X133590032Y-66965585D01*
X133583680Y-66971897D01*
X133574725Y-66971870D01*
X133573982Y-66971528D01*
X133467429Y-66917978D01*
X133466165Y-66917240D01*
X133385224Y-66862937D01*
X133385108Y-66862863D01*
X133314363Y-66817864D01*
X133228016Y-66787271D01*
X133110673Y-66776939D01*
X133102732Y-66772800D01*
X133100000Y-66765286D01*
X133100000Y-66634711D01*
X133103426Y-66626441D01*
X133110670Y-66623060D01*
X133211090Y-66614216D01*
X133228016Y-66612726D01*
X133314363Y-66582134D01*
X133385224Y-66537061D01*
X133385347Y-66536979D01*
X133414680Y-66517299D01*
X133466175Y-66482751D01*
X133467418Y-66482025D01*
X133573984Y-66428469D01*
X133582913Y-66427817D01*
X133589690Y-66433670D01*
G37*
%TD.AperFunction*%
%TD*%
%TA.AperFunction,Conductor*%
%TO.N,m1_vh*%
G36*
X133825274Y-66428129D02*
G01*
X133826017Y-66428471D01*
X133868966Y-66450055D01*
X133932572Y-66482022D01*
X133933833Y-66482758D01*
X134014774Y-66537061D01*
X134014890Y-66537135D01*
X134085635Y-66582134D01*
X134171982Y-66612726D01*
X134197219Y-66614948D01*
X134289328Y-66623060D01*
X134297267Y-66627198D01*
X134300000Y-66634714D01*
X134300000Y-66765284D01*
X134296573Y-66773557D01*
X134289326Y-66776939D01*
X134171982Y-66787271D01*
X134085635Y-66817864D01*
X134014774Y-66862937D01*
X134014651Y-66863019D01*
X133933833Y-66917240D01*
X133932569Y-66917978D01*
X133826017Y-66971528D01*
X133817086Y-66972181D01*
X133810309Y-66966328D01*
X133809967Y-66965585D01*
X133767113Y-66863019D01*
X133700883Y-66704509D01*
X133700857Y-66695555D01*
X133809967Y-66434413D01*
X133816319Y-66428102D01*
X133825274Y-66428129D01*
G37*
%TD.AperFunction*%
%TD*%
%TA.AperFunction,Conductor*%
%TO.N,m1_vl*%
G36*
X156637687Y-63604377D02*
G01*
X156727967Y-63680044D01*
X156797484Y-63713189D01*
X156810657Y-63719470D01*
X156892634Y-63737705D01*
X156892754Y-63737729D01*
X156922837Y-63743654D01*
X156988277Y-63756543D01*
X156989669Y-63756909D01*
X157102892Y-63794392D01*
X157109669Y-63800245D01*
X157110322Y-63809176D01*
X157110038Y-63809943D01*
X157002563Y-64071684D01*
X156996251Y-64078036D01*
X156996184Y-64078063D01*
X156734443Y-64185538D01*
X156725488Y-64185511D01*
X156719176Y-64179159D01*
X156718892Y-64178392D01*
X156685668Y-64078036D01*
X156681409Y-64065169D01*
X156681043Y-64063777D01*
X156662205Y-63968134D01*
X156662171Y-63967975D01*
X156643970Y-63886157D01*
X156643969Y-63886157D01*
X156604544Y-63803467D01*
X156528877Y-63713187D01*
X156526190Y-63704647D01*
X156529571Y-63697401D01*
X156621901Y-63605071D01*
X156630173Y-63601645D01*
X156637687Y-63604377D01*
G37*
%TD.AperFunction*%
%TD*%
%TA.AperFunction,Conductor*%
%TO.N,m1_vl*%
G36*
X137825274Y-63128129D02*
G01*
X137826017Y-63128471D01*
X137868966Y-63150055D01*
X137932572Y-63182022D01*
X137933833Y-63182758D01*
X138014774Y-63237061D01*
X138014890Y-63237135D01*
X138085635Y-63282134D01*
X138171982Y-63312726D01*
X138197219Y-63314948D01*
X138289328Y-63323060D01*
X138297267Y-63327198D01*
X138300000Y-63334714D01*
X138300000Y-63465284D01*
X138296573Y-63473557D01*
X138289326Y-63476939D01*
X138171982Y-63487271D01*
X138085635Y-63517864D01*
X138014774Y-63562937D01*
X138014651Y-63563019D01*
X137933833Y-63617240D01*
X137932569Y-63617978D01*
X137826017Y-63671528D01*
X137817086Y-63672181D01*
X137810309Y-63666328D01*
X137809967Y-63665585D01*
X137789767Y-63617240D01*
X137700883Y-63404509D01*
X137700857Y-63395556D01*
X137700862Y-63395542D01*
X137809967Y-63134413D01*
X137816319Y-63128102D01*
X137825274Y-63128129D01*
G37*
%TD.AperFunction*%
%TD*%
%TA.AperFunction,Conductor*%
%TO.N,m1_vl*%
G36*
X137589690Y-63133670D02*
G01*
X137590032Y-63134413D01*
X137699115Y-63395489D01*
X137699142Y-63404444D01*
X137699115Y-63404511D01*
X137590032Y-63665585D01*
X137583680Y-63671897D01*
X137574725Y-63671870D01*
X137573982Y-63671528D01*
X137467429Y-63617978D01*
X137466165Y-63617240D01*
X137385224Y-63562937D01*
X137385108Y-63562863D01*
X137314363Y-63517864D01*
X137228016Y-63487271D01*
X137110674Y-63476939D01*
X137102733Y-63472800D01*
X137100000Y-63465284D01*
X137100000Y-63334714D01*
X137103427Y-63326441D01*
X137110671Y-63323060D01*
X137209774Y-63314332D01*
X137228016Y-63312726D01*
X137314363Y-63282134D01*
X137385224Y-63237061D01*
X137385347Y-63236979D01*
X137414680Y-63217299D01*
X137466175Y-63182751D01*
X137467418Y-63182025D01*
X137573984Y-63128469D01*
X137582913Y-63127817D01*
X137589690Y-63133670D01*
G37*
%TD.AperFunction*%
%TD*%
%TA.AperFunction,Conductor*%
%TO.N,m1_vl*%
G36*
X128065074Y-59231629D02*
G01*
X128065817Y-59231971D01*
X128108766Y-59253555D01*
X128172372Y-59285522D01*
X128173633Y-59286258D01*
X128254574Y-59340561D01*
X128254690Y-59340635D01*
X128325435Y-59385634D01*
X128411782Y-59416226D01*
X128437019Y-59418448D01*
X128529128Y-59426560D01*
X128537067Y-59430698D01*
X128539800Y-59438214D01*
X128539800Y-59568784D01*
X128536373Y-59577057D01*
X128529126Y-59580439D01*
X128411782Y-59590771D01*
X128325435Y-59621364D01*
X128254574Y-59666437D01*
X128254451Y-59666519D01*
X128173633Y-59720740D01*
X128172369Y-59721478D01*
X128065817Y-59775028D01*
X128056886Y-59775681D01*
X128050109Y-59769828D01*
X128049767Y-59769085D01*
X128029567Y-59720740D01*
X127940683Y-59508009D01*
X127940657Y-59499056D01*
X127940662Y-59499042D01*
X128049767Y-59237913D01*
X128056119Y-59231602D01*
X128065074Y-59231629D01*
G37*
%TD.AperFunction*%
%TD*%
%TA.AperFunction,Conductor*%
%TO.N,m1_wh*%
G36*
X154582750Y-65740614D02*
G01*
X154583106Y-65741386D01*
X154692175Y-66002429D01*
X154692202Y-66011384D01*
X154692175Y-66011451D01*
X154583080Y-66272553D01*
X154576728Y-66278865D01*
X154567773Y-66278838D01*
X154567055Y-66278508D01*
X154460797Y-66225418D01*
X154459580Y-66224716D01*
X154378642Y-66171284D01*
X154378506Y-66171198D01*
X154307713Y-66127201D01*
X154221406Y-66097410D01*
X154104463Y-66087386D01*
X154096512Y-66083265D01*
X154093762Y-66075729D01*
X154093762Y-65945154D01*
X154097189Y-65936881D01*
X154104402Y-65933502D01*
X154221808Y-65922842D01*
X154307937Y-65891400D01*
X154378491Y-65845303D01*
X154378604Y-65845227D01*
X154437387Y-65805040D01*
X154459184Y-65790140D01*
X154460494Y-65789364D01*
X154567028Y-65735456D01*
X154575957Y-65734780D01*
X154582750Y-65740614D01*
G37*
%TD.AperFunction*%
%TD*%
%TA.AperFunction,Conductor*%
%TO.N,m1_wh*%
G36*
X129571373Y-64428129D02*
G01*
X129572116Y-64428471D01*
X129615065Y-64450055D01*
X129678671Y-64482022D01*
X129679932Y-64482758D01*
X129760873Y-64537061D01*
X129760989Y-64537135D01*
X129831734Y-64582134D01*
X129918081Y-64612726D01*
X129943318Y-64614948D01*
X130035427Y-64623060D01*
X130043366Y-64627198D01*
X130046099Y-64634714D01*
X130046099Y-64765284D01*
X130042672Y-64773557D01*
X130035425Y-64776939D01*
X129918081Y-64787271D01*
X129831734Y-64817864D01*
X129760873Y-64862937D01*
X129760750Y-64863019D01*
X129679932Y-64917240D01*
X129678668Y-64917978D01*
X129572116Y-64971528D01*
X129563185Y-64972181D01*
X129556408Y-64966328D01*
X129556066Y-64965585D01*
X129513212Y-64863019D01*
X129446982Y-64704509D01*
X129446956Y-64695555D01*
X129556066Y-64434413D01*
X129562418Y-64428102D01*
X129571373Y-64428129D01*
G37*
%TD.AperFunction*%
%TD*%
%TA.AperFunction,Conductor*%
%TO.N,m1_wl*%
G36*
X155837687Y-64128877D02*
G01*
X155927967Y-64204544D01*
X155997484Y-64237689D01*
X156010657Y-64243970D01*
X156092634Y-64262205D01*
X156092754Y-64262229D01*
X156122837Y-64268154D01*
X156188277Y-64281043D01*
X156189669Y-64281409D01*
X156302892Y-64318892D01*
X156309669Y-64324745D01*
X156310322Y-64333676D01*
X156310038Y-64334443D01*
X156202563Y-64596184D01*
X156196251Y-64602536D01*
X156196184Y-64602563D01*
X155934443Y-64710038D01*
X155925488Y-64710011D01*
X155919176Y-64703659D01*
X155918892Y-64702892D01*
X155885668Y-64602536D01*
X155881409Y-64589669D01*
X155881043Y-64588277D01*
X155862205Y-64492634D01*
X155862171Y-64492475D01*
X155843970Y-64410657D01*
X155843969Y-64410656D01*
X155804544Y-64327967D01*
X155728877Y-64237687D01*
X155726190Y-64229147D01*
X155729571Y-64221901D01*
X155821901Y-64129571D01*
X155830173Y-64126145D01*
X155837687Y-64128877D01*
G37*
%TD.AperFunction*%
%TD*%
%TA.AperFunction,Conductor*%
%TO.N,m1_wl*%
G36*
X135989690Y-63833670D02*
G01*
X135990032Y-63834413D01*
X136099115Y-64095489D01*
X136099142Y-64104444D01*
X136099115Y-64104511D01*
X135990032Y-64365585D01*
X135983680Y-64371897D01*
X135974725Y-64371870D01*
X135973982Y-64371528D01*
X135867429Y-64317978D01*
X135866165Y-64317240D01*
X135785224Y-64262937D01*
X135785108Y-64262863D01*
X135714363Y-64217864D01*
X135628016Y-64187271D01*
X135510674Y-64176939D01*
X135502733Y-64172800D01*
X135500000Y-64165284D01*
X135500000Y-64034714D01*
X135503427Y-64026441D01*
X135510671Y-64023060D01*
X135609774Y-64014332D01*
X135628016Y-64012726D01*
X135714363Y-63982134D01*
X135785224Y-63937061D01*
X135785347Y-63936979D01*
X135814680Y-63917299D01*
X135866175Y-63882751D01*
X135867418Y-63882025D01*
X135973984Y-63828469D01*
X135982913Y-63827817D01*
X135989690Y-63833670D01*
G37*
%TD.AperFunction*%
%TD*%
%TA.AperFunction,Conductor*%
%TO.N,m1_wl*%
G36*
X131874511Y-60989988D02*
G01*
X131880823Y-60996340D01*
X131881107Y-60997107D01*
X131918585Y-61110316D01*
X131918957Y-61111732D01*
X131937793Y-61207364D01*
X131937829Y-61207532D01*
X131949446Y-61259749D01*
X131956029Y-61289341D01*
X131995455Y-61372031D01*
X132071121Y-61462311D01*
X132073809Y-61470852D01*
X132070427Y-61478099D01*
X131978099Y-61570427D01*
X131969826Y-61573854D01*
X131962311Y-61571121D01*
X131872031Y-61495455D01*
X131789341Y-61456029D01*
X131707364Y-61437793D01*
X131611732Y-61418957D01*
X131610316Y-61418585D01*
X131497107Y-61381107D01*
X131490330Y-61375254D01*
X131489677Y-61366323D01*
X131489961Y-61365556D01*
X131597436Y-61103815D01*
X131603746Y-61097464D01*
X131865557Y-60989961D01*
X131874511Y-60989988D01*
G37*
%TD.AperFunction*%
%TD*%
%TA.AperFunction,Conductor*%
%TO.N,m1_wl*%
G36*
X136225274Y-63828129D02*
G01*
X136226017Y-63828471D01*
X136268966Y-63850055D01*
X136332572Y-63882022D01*
X136333833Y-63882758D01*
X136414774Y-63937061D01*
X136414890Y-63937135D01*
X136485635Y-63982134D01*
X136571982Y-64012726D01*
X136597219Y-64014948D01*
X136689328Y-64023060D01*
X136697267Y-64027198D01*
X136700000Y-64034714D01*
X136700000Y-64165284D01*
X136696573Y-64173557D01*
X136689326Y-64176939D01*
X136571982Y-64187271D01*
X136485635Y-64217864D01*
X136414774Y-64262937D01*
X136414651Y-64263019D01*
X136333833Y-64317240D01*
X136332569Y-64317978D01*
X136226017Y-64371528D01*
X136217086Y-64372181D01*
X136210309Y-64366328D01*
X136209967Y-64365585D01*
X136167113Y-64263019D01*
X136100883Y-64104509D01*
X136100857Y-64095555D01*
X136209967Y-63834413D01*
X136216319Y-63828102D01*
X136225274Y-63828129D01*
G37*
%TD.AperFunction*%
%TD*%
%TA.AperFunction,Conductor*%
%TO.N,Net-(J11-DP1)*%
G36*
X164534443Y-87407461D02*
G01*
X164796184Y-87514936D01*
X164802536Y-87521248D01*
X164802563Y-87521315D01*
X164910038Y-87783056D01*
X164910011Y-87792011D01*
X164903659Y-87798323D01*
X164902892Y-87798607D01*
X164789681Y-87836085D01*
X164788265Y-87836457D01*
X164692634Y-87855293D01*
X164692466Y-87855329D01*
X164634219Y-87868287D01*
X164610657Y-87873529D01*
X164610654Y-87873530D01*
X164610655Y-87873530D01*
X164527968Y-87912954D01*
X164437689Y-87988621D01*
X164429147Y-87991309D01*
X164421900Y-87987927D01*
X164329572Y-87895599D01*
X164326145Y-87887326D01*
X164328876Y-87879813D01*
X164404544Y-87789531D01*
X164443970Y-87706841D01*
X164462205Y-87624864D01*
X164481043Y-87529216D01*
X164481407Y-87527831D01*
X164518892Y-87414606D01*
X164524745Y-87407830D01*
X164533676Y-87407177D01*
X164534443Y-87407461D01*
G37*
%TD.AperFunction*%
%TD*%
%TA.AperFunction,Conductor*%
%TO.N,Net-(J11-DP1)*%
G36*
X164129303Y-88097287D02*
G01*
X164129735Y-88097698D01*
X164222017Y-88189980D01*
X164225444Y-88198253D01*
X164223749Y-88204319D01*
X164177802Y-88280097D01*
X164197139Y-88350044D01*
X164197140Y-88350045D01*
X164197141Y-88350048D01*
X164259306Y-88419313D01*
X164259307Y-88419314D01*
X164259437Y-88419454D01*
X164336250Y-88500012D01*
X164337729Y-88501927D01*
X164396028Y-88596081D01*
X164397470Y-88604919D01*
X164392240Y-88612187D01*
X164390572Y-88613044D01*
X164129896Y-88721408D01*
X164120941Y-88721419D01*
X164120911Y-88721406D01*
X164058305Y-88695248D01*
X163859321Y-88612106D01*
X163853009Y-88605754D01*
X163852869Y-88597223D01*
X163900393Y-88469785D01*
X163933357Y-88368300D01*
X163933638Y-88367530D01*
X163967656Y-88284129D01*
X163968646Y-88282229D01*
X164023450Y-88197287D01*
X164024586Y-88195802D01*
X164112778Y-88098129D01*
X164120866Y-88094286D01*
X164129303Y-88097287D01*
G37*
%TD.AperFunction*%
%TD*%
%TA.AperFunction,Conductor*%
%TO.N,Net-(U1-EN)*%
G36*
X153525359Y-67627926D02*
G01*
X153525915Y-67628176D01*
X153631654Y-67679000D01*
X153632517Y-67679462D01*
X153714290Y-67727893D01*
X153786358Y-67766102D01*
X153786359Y-67766102D01*
X153873270Y-67791062D01*
X153889660Y-67792217D01*
X153989124Y-67799232D01*
X153997135Y-67803232D01*
X154000000Y-67810903D01*
X154000000Y-67989095D01*
X153996573Y-67997368D01*
X153989123Y-68000766D01*
X153873270Y-68008935D01*
X153786359Y-68033896D01*
X153714433Y-68072028D01*
X153714394Y-68072049D01*
X153714290Y-68072105D01*
X153714185Y-68072166D01*
X153714155Y-68072184D01*
X153632531Y-68120527D01*
X153631638Y-68121005D01*
X153525917Y-68171822D01*
X153516976Y-68172318D01*
X153510303Y-68166346D01*
X153510052Y-68165788D01*
X153454945Y-68033897D01*
X153400883Y-67904509D01*
X153400857Y-67895556D01*
X153400862Y-67895542D01*
X153510052Y-67634210D01*
X153516404Y-67627899D01*
X153525359Y-67627926D01*
G37*
%TD.AperFunction*%
%TD*%
%TA.AperFunction,Conductor*%
%TO.N,Net-(U1-EN)*%
G36*
X160388339Y-62299961D02*
G01*
X160396601Y-62303415D01*
X160400000Y-62311661D01*
X160400000Y-62808538D01*
X160396573Y-62816811D01*
X160388300Y-62820238D01*
X160209846Y-62820238D01*
X160201573Y-62816811D01*
X160198318Y-62810537D01*
X160197268Y-62804486D01*
X160182424Y-62718872D01*
X160159379Y-62691218D01*
X160134787Y-62661707D01*
X160064725Y-62624416D01*
X160064557Y-62624332D01*
X159980908Y-62583175D01*
X159978955Y-62581962D01*
X159898435Y-62520233D01*
X159893954Y-62512480D01*
X159896268Y-62503830D01*
X159897247Y-62502708D01*
X160096555Y-62302461D01*
X160104818Y-62299016D01*
X160388339Y-62299961D01*
G37*
%TD.AperFunction*%
%TD*%
%TA.AperFunction,Conductor*%
%TO.N,m1_current_sense_w*%
G36*
X157371687Y-62774877D02*
G01*
X157461967Y-62850544D01*
X157531484Y-62883689D01*
X157544657Y-62889970D01*
X157626634Y-62908205D01*
X157626754Y-62908229D01*
X157656837Y-62914154D01*
X157722277Y-62927043D01*
X157723669Y-62927409D01*
X157836892Y-62964892D01*
X157843669Y-62970745D01*
X157844322Y-62979676D01*
X157844038Y-62980443D01*
X157736563Y-63242184D01*
X157730251Y-63248536D01*
X157730184Y-63248563D01*
X157468443Y-63356038D01*
X157459488Y-63356011D01*
X157453176Y-63349659D01*
X157452892Y-63348892D01*
X157419668Y-63248536D01*
X157415409Y-63235669D01*
X157415043Y-63234277D01*
X157396205Y-63138634D01*
X157396171Y-63138475D01*
X157377970Y-63056657D01*
X157377969Y-63056656D01*
X157338544Y-62973967D01*
X157262877Y-62883687D01*
X157260190Y-62875147D01*
X157263571Y-62867901D01*
X157355901Y-62775571D01*
X157364173Y-62772145D01*
X157371687Y-62774877D01*
G37*
%TD.AperFunction*%
%TD*%
%TA.AperFunction,Conductor*%
%TO.N,m1_current_sense_w*%
G36*
X130033600Y-57296174D02*
G01*
X130034343Y-57296516D01*
X130077292Y-57318100D01*
X130140898Y-57350067D01*
X130142159Y-57350803D01*
X130223100Y-57405106D01*
X130223216Y-57405180D01*
X130293961Y-57450179D01*
X130380308Y-57480771D01*
X130405545Y-57482993D01*
X130497654Y-57491105D01*
X130505593Y-57495243D01*
X130508326Y-57502759D01*
X130508326Y-57633329D01*
X130504899Y-57641602D01*
X130497652Y-57644984D01*
X130380308Y-57655316D01*
X130293961Y-57685909D01*
X130223100Y-57730982D01*
X130222977Y-57731064D01*
X130142159Y-57785285D01*
X130140895Y-57786023D01*
X130034343Y-57839573D01*
X130025412Y-57840226D01*
X130018635Y-57834373D01*
X130018293Y-57833630D01*
X129998093Y-57785285D01*
X129909209Y-57572554D01*
X129909183Y-57563601D01*
X129909188Y-57563587D01*
X130018293Y-57302458D01*
X130024645Y-57296147D01*
X130033600Y-57296174D01*
G37*
%TD.AperFunction*%
%TD*%
%TA.AperFunction,Conductor*%
%TO.N,m1_current_sense_u*%
G36*
X157215193Y-65561770D02*
G01*
X157215535Y-65562513D01*
X157295768Y-65754541D01*
X157324618Y-65823588D01*
X157324645Y-65832543D01*
X157324618Y-65832610D01*
X157215535Y-66093685D01*
X157209183Y-66099997D01*
X157200228Y-66099970D01*
X157199485Y-66099628D01*
X157092932Y-66046078D01*
X157091668Y-66045340D01*
X157010727Y-65991037D01*
X157010611Y-65990963D01*
X156939866Y-65945964D01*
X156853519Y-65915371D01*
X156736177Y-65905039D01*
X156728236Y-65900900D01*
X156725503Y-65893384D01*
X156725503Y-65762814D01*
X156728930Y-65754541D01*
X156736174Y-65751160D01*
X156835277Y-65742432D01*
X156853519Y-65740826D01*
X156939866Y-65710234D01*
X157010727Y-65665161D01*
X157010850Y-65665079D01*
X157040183Y-65645399D01*
X157091678Y-65610851D01*
X157092921Y-65610125D01*
X157199487Y-65556569D01*
X157208416Y-65555917D01*
X157215193Y-65561770D01*
G37*
%TD.AperFunction*%
%TD*%
%TA.AperFunction,Conductor*%
%TO.N,m1_current_sense_u*%
G36*
X129546373Y-63008296D02*
G01*
X129547116Y-63008638D01*
X129590065Y-63030222D01*
X129653671Y-63062189D01*
X129654932Y-63062925D01*
X129735873Y-63117228D01*
X129735989Y-63117302D01*
X129806734Y-63162301D01*
X129893081Y-63192893D01*
X129918318Y-63195115D01*
X130010427Y-63203227D01*
X130018366Y-63207365D01*
X130021099Y-63214881D01*
X130021099Y-63345451D01*
X130017672Y-63353724D01*
X130010425Y-63357106D01*
X129893081Y-63367438D01*
X129806734Y-63398031D01*
X129735873Y-63443104D01*
X129735750Y-63443186D01*
X129654932Y-63497407D01*
X129653668Y-63498145D01*
X129547116Y-63551695D01*
X129538185Y-63552348D01*
X129531408Y-63546495D01*
X129531066Y-63545752D01*
X129510866Y-63497407D01*
X129421982Y-63284676D01*
X129421956Y-63275723D01*
X129421961Y-63275709D01*
X129531066Y-63014580D01*
X129537418Y-63008269D01*
X129546373Y-63008296D01*
G37*
%TD.AperFunction*%
%TD*%
%TA.AperFunction,Conductor*%
%TO.N,sda*%
G36*
X174780429Y-61086423D02*
G01*
X174868125Y-61162565D01*
X174868126Y-61162566D01*
X174868128Y-61162567D01*
X174947228Y-61206371D01*
X174968773Y-61212986D01*
X175025209Y-61230314D01*
X175117253Y-61253884D01*
X175118216Y-61254175D01*
X175228923Y-61293006D01*
X175235594Y-61298977D01*
X175236090Y-61307919D01*
X175235872Y-61308490D01*
X175128313Y-61570434D01*
X175122001Y-61576786D01*
X175121934Y-61576813D01*
X174859990Y-61684372D01*
X174851035Y-61684345D01*
X174844723Y-61677993D01*
X174844512Y-61677442D01*
X174805675Y-61566716D01*
X174805383Y-61565749D01*
X174781844Y-61473828D01*
X174781814Y-61473709D01*
X174757872Y-61395732D01*
X174757871Y-61395728D01*
X174714067Y-61316628D01*
X174714066Y-61316626D01*
X174714065Y-61316625D01*
X174637923Y-61228929D01*
X174635088Y-61220436D01*
X174638485Y-61212987D01*
X174764487Y-61086985D01*
X174772759Y-61083559D01*
X174780429Y-61086423D01*
G37*
%TD.AperFunction*%
%TD*%
%TA.AperFunction,Conductor*%
%TO.N,sda*%
G36*
X173756714Y-59820404D02*
G01*
X173763026Y-59826756D01*
X173763244Y-59827328D01*
X173802070Y-59938024D01*
X173802363Y-59938994D01*
X173825903Y-60030919D01*
X173825934Y-60031039D01*
X173825960Y-60031125D01*
X173825966Y-60031145D01*
X173849876Y-60109020D01*
X173893680Y-60188119D01*
X173893682Y-60188121D01*
X173893683Y-60188123D01*
X173968622Y-60274434D01*
X173969825Y-60275819D01*
X173972661Y-60284313D01*
X173969263Y-60291763D01*
X173843263Y-60417763D01*
X173834990Y-60421190D01*
X173827319Y-60418325D01*
X173826672Y-60417763D01*
X173739623Y-60342183D01*
X173739621Y-60342182D01*
X173739619Y-60342180D01*
X173660520Y-60298376D01*
X173582645Y-60274466D01*
X173582625Y-60274460D01*
X173582539Y-60274434D01*
X173582430Y-60274406D01*
X173582419Y-60274403D01*
X173490494Y-60250863D01*
X173489524Y-60250570D01*
X173378828Y-60211744D01*
X173372155Y-60205772D01*
X173371659Y-60196831D01*
X173371863Y-60196295D01*
X173479436Y-59934314D01*
X173485746Y-59927964D01*
X173747761Y-59820377D01*
X173756714Y-59820404D01*
G37*
%TD.AperFunction*%
%TD*%
M02*
