%TF.GenerationSoftware,KiCad,Pcbnew,7.0.2*%
%TF.CreationDate,2023-05-16T16:20:19-04:00*%
%TF.ProjectId,mini_motor_go,6d696e69-5f6d-46f7-946f-725f676f2e6b,rev?*%
%TF.SameCoordinates,Original*%
%TF.FileFunction,Paste,Top*%
%TF.FilePolarity,Positive*%
%FSLAX46Y46*%
G04 Gerber Fmt 4.6, Leading zero omitted, Abs format (unit mm)*
G04 Created by KiCad (PCBNEW 7.0.2) date 2023-05-16 16:20:19*
%MOMM*%
%LPD*%
G01*
G04 APERTURE LIST*
G04 Aperture macros list*
%AMRoundRect*
0 Rectangle with rounded corners*
0 $1 Rounding radius*
0 $2 $3 $4 $5 $6 $7 $8 $9 X,Y pos of 4 corners*
0 Add a 4 corners polygon primitive as box body*
4,1,4,$2,$3,$4,$5,$6,$7,$8,$9,$2,$3,0*
0 Add four circle primitives for the rounded corners*
1,1,$1+$1,$2,$3*
1,1,$1+$1,$4,$5*
1,1,$1+$1,$6,$7*
1,1,$1+$1,$8,$9*
0 Add four rect primitives between the rounded corners*
20,1,$1+$1,$2,$3,$4,$5,0*
20,1,$1+$1,$4,$5,$6,$7,0*
20,1,$1+$1,$6,$7,$8,$9,0*
20,1,$1+$1,$8,$9,$2,$3,0*%
%AMFreePoly0*
4,1,14,0.289644,0.110355,0.410355,-0.010356,0.425000,-0.045711,0.425000,-0.075000,0.410355,-0.110355,0.375000,-0.125000,-0.375000,-0.125000,-0.410355,-0.110355,-0.425000,-0.075000,-0.425000,0.075000,-0.410355,0.110355,-0.375000,0.125000,0.254289,0.125000,0.289644,0.110355,0.289644,0.110355,$1*%
%AMFreePoly1*
4,1,14,0.410355,0.110355,0.425000,0.075000,0.425000,0.045711,0.410355,0.010356,0.289644,-0.110355,0.254289,-0.125000,-0.375000,-0.125000,-0.410355,-0.110355,-0.425000,-0.075000,-0.425000,0.075000,-0.410355,0.110355,-0.375000,0.125000,0.375000,0.125000,0.410355,0.110355,0.410355,0.110355,$1*%
%AMFreePoly2*
4,1,14,0.110355,0.410355,0.125000,0.375000,0.125000,-0.375000,0.110355,-0.410355,0.075000,-0.425000,-0.075000,-0.425000,-0.110355,-0.410355,-0.125000,-0.375000,-0.125000,0.254289,-0.110355,0.289644,0.010356,0.410355,0.045711,0.425000,0.075000,0.425000,0.110355,0.410355,0.110355,0.410355,$1*%
%AMFreePoly3*
4,1,14,-0.010356,0.410355,0.110355,0.289644,0.125000,0.254289,0.125000,-0.375000,0.110355,-0.410355,0.075000,-0.425000,-0.075000,-0.425000,-0.110355,-0.410355,-0.125000,-0.375000,-0.125000,0.375000,-0.110355,0.410355,-0.075000,0.425000,-0.045711,0.425000,-0.010356,0.410355,-0.010356,0.410355,$1*%
%AMFreePoly4*
4,1,14,0.410355,0.110355,0.425000,0.075000,0.425000,-0.075000,0.410355,-0.110355,0.375000,-0.125000,-0.254289,-0.125000,-0.289644,-0.110355,-0.410355,0.010356,-0.425000,0.045711,-0.425000,0.075000,-0.410355,0.110355,-0.375000,0.125000,0.375000,0.125000,0.410355,0.110355,0.410355,0.110355,$1*%
%AMFreePoly5*
4,1,14,0.410355,0.110355,0.425000,0.075000,0.425000,-0.075000,0.410355,-0.110355,0.375000,-0.125000,-0.375000,-0.125000,-0.410355,-0.110355,-0.425000,-0.075000,-0.425000,-0.045711,-0.410355,-0.010356,-0.289644,0.110355,-0.254289,0.125000,0.375000,0.125000,0.410355,0.110355,0.410355,0.110355,$1*%
%AMFreePoly6*
4,1,14,0.110355,0.410355,0.125000,0.375000,0.125000,-0.254289,0.110355,-0.289644,-0.010356,-0.410355,-0.045711,-0.425000,-0.075000,-0.425000,-0.110355,-0.410355,-0.125000,-0.375000,-0.125000,0.375000,-0.110355,0.410355,-0.075000,0.425000,0.075000,0.425000,0.110355,0.410355,0.110355,0.410355,$1*%
%AMFreePoly7*
4,1,14,0.110355,0.410355,0.125000,0.375000,0.125000,-0.375000,0.110355,-0.410355,0.075000,-0.425000,0.045711,-0.425000,0.010356,-0.410355,-0.110355,-0.289644,-0.125000,-0.254289,-0.125000,0.375000,-0.110355,0.410355,-0.075000,0.425000,0.075000,0.425000,0.110355,0.410355,0.110355,0.410355,$1*%
%AMFreePoly8*
4,1,9,3.862500,-0.866500,0.737500,-0.866500,0.737500,-0.450000,-0.737500,-0.450000,-0.737500,0.450000,0.737500,0.450000,0.737500,0.866500,3.862500,0.866500,3.862500,-0.866500,3.862500,-0.866500,$1*%
G04 Aperture macros list end*
%ADD10R,1.100000X1.000000*%
%ADD11RoundRect,0.172500X0.172500X-0.172500X0.172500X0.172500X-0.172500X0.172500X-0.172500X-0.172500X0*%
%ADD12FreePoly0,90.000000*%
%ADD13RoundRect,0.062500X0.062500X-0.362500X0.062500X0.362500X-0.062500X0.362500X-0.062500X-0.362500X0*%
%ADD14FreePoly1,90.000000*%
%ADD15FreePoly2,90.000000*%
%ADD16RoundRect,0.062500X0.362500X-0.062500X0.362500X0.062500X-0.362500X0.062500X-0.362500X-0.062500X0*%
%ADD17FreePoly3,90.000000*%
%ADD18FreePoly4,90.000000*%
%ADD19RoundRect,0.062500X0.062500X-0.350000X0.062500X0.350000X-0.062500X0.350000X-0.062500X-0.350000X0*%
%ADD20FreePoly5,90.000000*%
%ADD21FreePoly6,90.000000*%
%ADD22FreePoly7,90.000000*%
%ADD23RoundRect,0.155000X0.040659X0.259862X-0.259862X-0.040659X-0.040659X-0.259862X0.259862X0.040659X0*%
%ADD24RoundRect,0.160000X-0.160000X0.197500X-0.160000X-0.197500X0.160000X-0.197500X0.160000X0.197500X0*%
%ADD25RoundRect,0.030000X0.120000X-0.695000X0.120000X0.695000X-0.120000X0.695000X-0.120000X-0.695000X0*%
%ADD26RoundRect,0.160000X0.026517X0.252791X-0.252791X-0.026517X-0.026517X-0.252791X0.252791X0.026517X0*%
%ADD27RoundRect,0.250000X0.088388X-0.548008X0.548008X-0.088388X-0.088388X0.548008X-0.548008X0.088388X0*%
%ADD28RoundRect,0.160000X0.197500X0.160000X-0.197500X0.160000X-0.197500X-0.160000X0.197500X-0.160000X0*%
%ADD29RoundRect,0.160000X-0.197500X-0.160000X0.197500X-0.160000X0.197500X0.160000X-0.197500X0.160000X0*%
%ADD30RoundRect,0.155000X-0.212500X-0.155000X0.212500X-0.155000X0.212500X0.155000X-0.212500X0.155000X0*%
%ADD31R,2.800000X1.850000*%
%ADD32RoundRect,0.160000X0.160000X-0.197500X0.160000X0.197500X-0.160000X0.197500X-0.160000X-0.197500X0*%
%ADD33R,0.700000X1.000000*%
%ADD34RoundRect,0.155000X0.212500X0.155000X-0.212500X0.155000X-0.212500X-0.155000X0.212500X-0.155000X0*%
%ADD35RoundRect,0.160000X-0.026517X-0.252791X0.252791X0.026517X0.026517X0.252791X-0.252791X-0.026517X0*%
%ADD36R,1.500000X0.900000*%
%ADD37R,0.900000X1.500000*%
%ADD38R,0.900000X0.900000*%
%ADD39RoundRect,0.160000X-0.252791X0.026517X0.026517X-0.252791X0.252791X-0.026517X-0.026517X0.252791X0*%
%ADD40RoundRect,0.160000X0.252791X-0.026517X-0.026517X0.252791X-0.252791X0.026517X0.026517X-0.252791X0*%
%ADD41RoundRect,0.237500X0.380070X-0.044194X-0.044194X0.380070X-0.380070X0.044194X0.044194X-0.380070X0*%
%ADD42RoundRect,0.237500X-0.300000X-0.237500X0.300000X-0.237500X0.300000X0.237500X-0.300000X0.237500X0*%
%ADD43R,1.560000X0.650000*%
%ADD44R,0.600000X1.100000*%
%ADD45R,0.300000X1.100000*%
%ADD46RoundRect,0.155000X-0.155000X0.212500X-0.155000X-0.212500X0.155000X-0.212500X0.155000X0.212500X0*%
%ADD47RoundRect,0.237500X0.300000X0.237500X-0.300000X0.237500X-0.300000X-0.237500X0.300000X-0.237500X0*%
%ADD48R,0.599440X1.348740*%
%ADD49R,1.198880X1.998980*%
%ADD50R,0.900000X1.300000*%
%ADD51FreePoly8,90.000000*%
G04 APERTURE END LIST*
D10*
%TO.C,R1*%
X122602301Y-89038832D03*
X121302301Y-89038832D03*
%TD*%
%TO.C,R2*%
X122616183Y-83423249D03*
X121316183Y-83423249D03*
%TD*%
%TO.C,R15*%
X122692299Y-63932415D03*
X121392299Y-63932415D03*
%TD*%
%TO.C,R16*%
X122707923Y-58313966D03*
X121407923Y-58313966D03*
%TD*%
D11*
%TO.C,U5*%
X125439938Y-86644093D03*
X126239938Y-86644093D03*
X125439938Y-85844093D03*
X126239938Y-85844093D03*
D12*
X125039938Y-87694093D03*
D13*
X125439938Y-87694093D03*
X125839938Y-87694093D03*
X126239938Y-87694093D03*
D14*
X126639938Y-87694093D03*
D15*
X127289938Y-87044093D03*
D16*
X127289938Y-86644093D03*
X127289938Y-86244093D03*
X127289938Y-85844093D03*
D17*
X127289938Y-85444093D03*
D18*
X126639938Y-84794093D03*
D13*
X126239938Y-84794093D03*
D19*
X125839938Y-84806593D03*
D13*
X125439938Y-84794093D03*
D20*
X125039938Y-84794093D03*
D21*
X124389938Y-85444093D03*
D16*
X124389938Y-85844093D03*
X124389938Y-86244093D03*
X124389938Y-86644093D03*
D22*
X124389938Y-87044093D03*
%TD*%
D11*
%TO.C,U2*%
X125531600Y-61536400D03*
X126331600Y-61536400D03*
X125531600Y-60736400D03*
X126331600Y-60736400D03*
D12*
X125131600Y-62586400D03*
D13*
X125531600Y-62586400D03*
X125931600Y-62586400D03*
X126331600Y-62586400D03*
D14*
X126731600Y-62586400D03*
D15*
X127381600Y-61936400D03*
D16*
X127381600Y-61536400D03*
X127381600Y-61136400D03*
X127381600Y-60736400D03*
D17*
X127381600Y-60336400D03*
D18*
X126731600Y-59686400D03*
D13*
X126331600Y-59686400D03*
D19*
X125931600Y-59698900D03*
D13*
X125531600Y-59686400D03*
D20*
X125131600Y-59686400D03*
D21*
X124481600Y-60336400D03*
D16*
X124481600Y-60736400D03*
X124481600Y-61136400D03*
X124481600Y-61536400D03*
D22*
X124481600Y-61936400D03*
%TD*%
D23*
%TO.C,C2*%
X125104280Y-89164457D03*
X124301714Y-89967023D03*
%TD*%
D24*
%TO.C,R14*%
X153416000Y-63246000D03*
X153416000Y-64441000D03*
%TD*%
D25*
%TO.C,U4*%
X129570599Y-63370400D03*
X130070599Y-63370400D03*
X130570599Y-63370400D03*
X131070599Y-63370400D03*
X131570599Y-63370400D03*
X131570599Y-58970400D03*
X131070599Y-58970400D03*
X130570599Y-58970400D03*
X130070599Y-58970400D03*
X129570599Y-58970400D03*
%TD*%
D26*
%TO.C,R7*%
X135233210Y-65934790D03*
X134388218Y-66779782D03*
%TD*%
D27*
%TO.C,<-3V3*%
X144001476Y-81810181D03*
X145451044Y-80360613D03*
%TD*%
%TO.C,<-Io8*%
X147614454Y-86368783D03*
X149064022Y-84919215D03*
%TD*%
D25*
%TO.C,U3*%
X129479524Y-88476458D03*
X129979524Y-88476458D03*
X130479524Y-88476458D03*
X130979524Y-88476458D03*
X131479524Y-88476458D03*
X131479524Y-84076458D03*
X130979524Y-84076458D03*
X130479524Y-84076458D03*
X129979524Y-84076458D03*
X129479524Y-84076458D03*
%TD*%
D28*
%TO.C,R25*%
X173781468Y-82714817D03*
X172586468Y-82714817D03*
%TD*%
D29*
%TO.C,R17*%
X146242500Y-64472000D03*
X147437500Y-64472000D03*
%TD*%
D28*
%TO.C,R33*%
X144925100Y-85160104D03*
X143730100Y-85160104D03*
%TD*%
D30*
%TO.C,C6*%
X120616900Y-62664000D03*
X121751900Y-62664000D03*
%TD*%
D31*
%TO.C,L1*%
X149098000Y-67883000D03*
X149098000Y-70183000D03*
%TD*%
D28*
%TO.C,R22*%
X144932658Y-86282843D03*
X143737658Y-86282843D03*
%TD*%
D26*
%TO.C,R5*%
X133634815Y-64739185D03*
X132789823Y-65584177D03*
%TD*%
D28*
%TO.C,R24*%
X170642456Y-87745727D03*
X169447456Y-87745727D03*
%TD*%
D32*
%TO.C,R19*%
X141485388Y-68458015D03*
X141485388Y-67263015D03*
%TD*%
D30*
%TO.C,C13*%
X146296573Y-63398198D03*
X147431573Y-63398198D03*
%TD*%
D33*
%TO.C,J7*%
X173084000Y-94138000D03*
X173084000Y-88138000D03*
X176784000Y-94138000D03*
X176784000Y-88138000D03*
%TD*%
D34*
%TO.C,C5*%
X121749900Y-61643600D03*
X120614900Y-61643600D03*
%TD*%
D35*
%TO.C,R9*%
X130779185Y-67594815D03*
X131624177Y-66749823D03*
%TD*%
D36*
%TO.C,U1*%
X158890000Y-59260000D03*
X158890000Y-60530000D03*
X158890000Y-61800000D03*
X158890000Y-63070000D03*
X158890000Y-64340000D03*
X158890000Y-65610000D03*
X158890000Y-66880000D03*
X158890000Y-68150000D03*
X158890000Y-69420000D03*
X158890000Y-70690000D03*
X158890000Y-71960000D03*
X158890000Y-73230000D03*
X158890000Y-74500000D03*
X158890000Y-75770000D03*
D37*
X160655000Y-77020000D03*
X161925000Y-77020000D03*
X163195000Y-77020000D03*
X164465000Y-77020000D03*
X165735000Y-77020000D03*
X167005000Y-77020000D03*
X168275000Y-77020000D03*
X169545000Y-77020000D03*
X170815000Y-77020000D03*
X172085000Y-77020000D03*
X173355000Y-77020000D03*
X174625000Y-77020000D03*
D36*
X176390000Y-75770000D03*
X176390000Y-74500000D03*
X176390000Y-73230000D03*
X176390000Y-71960000D03*
X176390000Y-70690000D03*
X176390000Y-69420000D03*
X176390000Y-68150000D03*
X176390000Y-66880000D03*
X176390000Y-65610000D03*
X176390000Y-64340000D03*
X176390000Y-63070000D03*
X176390000Y-61800000D03*
X176390000Y-60530000D03*
X176390000Y-59260000D03*
D38*
X164740000Y-65580000D03*
X164740000Y-66980000D03*
X164740000Y-68380000D03*
X166140000Y-65580000D03*
X166140000Y-66980000D03*
X166140000Y-68380000D03*
X167540000Y-65580000D03*
X167540000Y-66980000D03*
X167540000Y-68380000D03*
%TD*%
D24*
%TO.C,R10*%
X155194000Y-62738000D03*
X155194000Y-63933000D03*
%TD*%
D29*
%TO.C,R23*%
X158335161Y-87723495D03*
X159530161Y-87723495D03*
%TD*%
D39*
%TO.C,R11*%
X145437646Y-72329225D03*
X146282638Y-73174217D03*
%TD*%
D40*
%TO.C,R3*%
X147529735Y-75735409D03*
X146684743Y-74890417D03*
%TD*%
D29*
%TO.C,R27*%
X175035536Y-80395264D03*
X176230536Y-80395264D03*
%TD*%
%TO.C,R26*%
X175034864Y-81603353D03*
X176229864Y-81603353D03*
%TD*%
D34*
%TO.C,C1*%
X121565890Y-86727162D03*
X120430890Y-86727162D03*
%TD*%
D39*
%TO.C,R20*%
X162022197Y-83666041D03*
X162867189Y-84511033D03*
%TD*%
D41*
%TO.C,C20*%
X159722421Y-85046421D03*
X158502661Y-83826661D03*
%TD*%
D30*
%TO.C,C3*%
X120435690Y-87750768D03*
X121570690Y-87750768D03*
%TD*%
D42*
%TO.C,C18*%
X168539500Y-79712000D03*
X170264500Y-79712000D03*
%TD*%
D33*
%TO.C,J6*%
X151024197Y-94152726D03*
X151024197Y-88152726D03*
X154724197Y-94152726D03*
X154724197Y-88152726D03*
%TD*%
D39*
%TO.C,R13*%
X140970856Y-73914856D03*
X141815848Y-74759848D03*
%TD*%
D43*
%TO.C,U7*%
X145856000Y-67934001D03*
X145856000Y-66984001D03*
X145856000Y-66034001D03*
X143156000Y-66034001D03*
X143156000Y-66984001D03*
X143156000Y-67934001D03*
%TD*%
D34*
%TO.C,C8*%
X128465516Y-57615537D03*
X127330516Y-57615537D03*
%TD*%
D44*
%TO.C,J11*%
X161170000Y-89770000D03*
X161970000Y-89770000D03*
D45*
X163120000Y-89770000D03*
X164120000Y-89770000D03*
X164620000Y-89770000D03*
X165620000Y-89770000D03*
D44*
X167570000Y-89770000D03*
X166770000Y-89770000D03*
D45*
X166120000Y-89770000D03*
X165120000Y-89770000D03*
X163620000Y-89770000D03*
X162620000Y-89770000D03*
%TD*%
D46*
%TO.C,C14*%
X146936000Y-60138500D03*
X146936000Y-61273500D03*
%TD*%
D29*
%TO.C,R29*%
X143716150Y-88987791D03*
X144911150Y-88987791D03*
%TD*%
%TO.C,R31*%
X127612469Y-74754958D03*
X128807469Y-74754958D03*
%TD*%
D24*
%TO.C,R30*%
X156723042Y-60354469D03*
X156723042Y-61549469D03*
%TD*%
D30*
%TO.C,C17*%
X149292500Y-65984000D03*
X150427500Y-65984000D03*
%TD*%
D41*
%TO.C,C19*%
X162791634Y-82231208D03*
X161571874Y-81011448D03*
%TD*%
D40*
%TO.C,R6*%
X145974749Y-76124749D03*
X145129757Y-75279757D03*
%TD*%
D28*
%TO.C,R32*%
X144924463Y-87422886D03*
X143729463Y-87422886D03*
%TD*%
D30*
%TO.C,C16*%
X140402500Y-66046001D03*
X141537500Y-66046001D03*
%TD*%
D46*
%TO.C,C12*%
X145796000Y-60138501D03*
X145796000Y-61273501D03*
%TD*%
D47*
%TO.C,C11*%
X150176500Y-61998000D03*
X148451500Y-61998000D03*
%TD*%
D26*
%TO.C,R12*%
X137473210Y-65426790D03*
X136628218Y-66271782D03*
%TD*%
D47*
%TO.C,C9*%
X150176500Y-60190000D03*
X148451500Y-60190000D03*
%TD*%
D23*
%TO.C,C7*%
X125390615Y-64045637D03*
X124588049Y-64848203D03*
%TD*%
D48*
%TO.C,J5*%
X141249400Y-90932000D03*
X142250160Y-90932000D03*
X143245840Y-90932000D03*
X144246600Y-90932000D03*
D49*
X145547080Y-94604840D03*
X139948920Y-94604840D03*
%TD*%
D28*
%TO.C,R28*%
X146885250Y-89929808D03*
X145690250Y-89929808D03*
%TD*%
D27*
%TO.C,<-Io38*%
X145856402Y-83648731D03*
X147305970Y-82199163D03*
%TD*%
D39*
%TO.C,R21*%
X161236811Y-84398967D03*
X162081803Y-85243959D03*
%TD*%
%TO.C,R8*%
X140314066Y-75395277D03*
X141159058Y-76240269D03*
%TD*%
D34*
%TO.C,C15*%
X144839500Y-69528000D03*
X143704500Y-69528000D03*
%TD*%
D50*
%TO.C,U6*%
X166140001Y-84754000D03*
D51*
X167640001Y-84666500D03*
D50*
X169140001Y-84754000D03*
%TD*%
D34*
%TO.C,C4*%
X127292400Y-82641401D03*
X126157400Y-82641401D03*
%TD*%
D32*
%TO.C,R18*%
X140374867Y-68481496D03*
X140374867Y-67286496D03*
%TD*%
D39*
%TO.C,R4*%
X143167761Y-72374741D03*
X144012753Y-73219733D03*
%TD*%
M02*
