%TF.GenerationSoftware,KiCad,Pcbnew,7.0.2*%
%TF.CreationDate,2023-05-16T16:20:18-04:00*%
%TF.ProjectId,mini_motor_go,6d696e69-5f6d-46f7-946f-725f676f2e6b,rev?*%
%TF.SameCoordinates,Original*%
%TF.FileFunction,Copper,L4,Bot*%
%TF.FilePolarity,Positive*%
%FSLAX46Y46*%
G04 Gerber Fmt 4.6, Leading zero omitted, Abs format (unit mm)*
G04 Created by KiCad (PCBNEW 7.0.2) date 2023-05-16 16:20:18*
%MOMM*%
%LPD*%
G01*
G04 APERTURE LIST*
G04 Aperture macros list*
%AMRoundRect*
0 Rectangle with rounded corners*
0 $1 Rounding radius*
0 $2 $3 $4 $5 $6 $7 $8 $9 X,Y pos of 4 corners*
0 Add a 4 corners polygon primitive as box body*
4,1,4,$2,$3,$4,$5,$6,$7,$8,$9,$2,$3,0*
0 Add four circle primitives for the rounded corners*
1,1,$1+$1,$2,$3*
1,1,$1+$1,$4,$5*
1,1,$1+$1,$6,$7*
1,1,$1+$1,$8,$9*
0 Add four rect primitives between the rounded corners*
20,1,$1+$1,$2,$3,$4,$5,0*
20,1,$1+$1,$4,$5,$6,$7,0*
20,1,$1+$1,$6,$7,$8,$9,0*
20,1,$1+$1,$8,$9,$2,$3,0*%
G04 Aperture macros list end*
%TA.AperFunction,EtchedComponent*%
%ADD10C,0.010000*%
%TD*%
%TA.AperFunction,ComponentPad*%
%ADD11C,0.600000*%
%TD*%
%TA.AperFunction,SMDPad,CuDef*%
%ADD12R,1.700000X1.700000*%
%TD*%
%TA.AperFunction,ComponentPad*%
%ADD13C,1.597660*%
%TD*%
%TA.AperFunction,ComponentPad*%
%ADD14C,1.879600*%
%TD*%
%TA.AperFunction,ComponentPad*%
%ADD15O,0.950000X1.900000*%
%TD*%
%TA.AperFunction,ComponentPad*%
%ADD16O,0.800000X1.600000*%
%TD*%
%TA.AperFunction,ComponentPad*%
%ADD17R,1.600000X1.600000*%
%TD*%
%TA.AperFunction,ComponentPad*%
%ADD18C,1.600000*%
%TD*%
%TA.AperFunction,ComponentPad*%
%ADD19C,6.000000*%
%TD*%
%TA.AperFunction,ComponentPad*%
%ADD20RoundRect,1.250000X1.250000X1.250000X-1.250000X1.250000X-1.250000X-1.250000X1.250000X-1.250000X0*%
%TD*%
%TA.AperFunction,ViaPad*%
%ADD21C,0.600000*%
%TD*%
%TA.AperFunction,ViaPad*%
%ADD22C,0.800000*%
%TD*%
%TA.AperFunction,Conductor*%
%ADD23C,0.152000*%
%TD*%
%TA.AperFunction,Conductor*%
%ADD24C,0.200000*%
%TD*%
%TA.AperFunction,Conductor*%
%ADD25C,0.300000*%
%TD*%
%TA.AperFunction,Conductor*%
%ADD26C,0.500000*%
%TD*%
%TA.AperFunction,Conductor*%
%ADD27C,1.000000*%
%TD*%
G04 APERTURE END LIST*
%TO.C,J11*%
D10*
X158776000Y-90021000D02*
X158802000Y-90023000D01*
X158828000Y-90026000D01*
X158854000Y-90031000D01*
X158879000Y-90037000D01*
X158905000Y-90044000D01*
X158929000Y-90053000D01*
X158953000Y-90063000D01*
X158977000Y-90074000D01*
X159000000Y-90087000D01*
X159022000Y-90101000D01*
X159044000Y-90115000D01*
X159065000Y-90131000D01*
X159085000Y-90148000D01*
X159104000Y-90166000D01*
X159122000Y-90185000D01*
X159139000Y-90205000D01*
X159155000Y-90226000D01*
X159169000Y-90248000D01*
X159183000Y-90270000D01*
X159196000Y-90293000D01*
X159207000Y-90317000D01*
X159217000Y-90341000D01*
X159226000Y-90365000D01*
X159233000Y-90391000D01*
X159239000Y-90416000D01*
X159244000Y-90442000D01*
X159247000Y-90468000D01*
X159249000Y-90494000D01*
X159250000Y-90520000D01*
X159250000Y-91320000D01*
X159249000Y-91346000D01*
X159247000Y-91372000D01*
X159244000Y-91398000D01*
X159239000Y-91424000D01*
X159233000Y-91449000D01*
X159226000Y-91475000D01*
X159217000Y-91499000D01*
X159207000Y-91523000D01*
X159196000Y-91547000D01*
X159183000Y-91570000D01*
X159169000Y-91592000D01*
X159155000Y-91614000D01*
X159139000Y-91635000D01*
X159122000Y-91655000D01*
X159104000Y-91674000D01*
X159085000Y-91692000D01*
X159065000Y-91709000D01*
X159044000Y-91725000D01*
X159022000Y-91739000D01*
X159000000Y-91753000D01*
X158977000Y-91766000D01*
X158953000Y-91777000D01*
X158929000Y-91787000D01*
X158905000Y-91796000D01*
X158879000Y-91803000D01*
X158854000Y-91809000D01*
X158828000Y-91814000D01*
X158802000Y-91817000D01*
X158776000Y-91819000D01*
X158750000Y-91820000D01*
X158724000Y-91819000D01*
X158698000Y-91817000D01*
X158672000Y-91814000D01*
X158646000Y-91809000D01*
X158621000Y-91803000D01*
X158595000Y-91796000D01*
X158571000Y-91787000D01*
X158547000Y-91777000D01*
X158523000Y-91766000D01*
X158500000Y-91753000D01*
X158478000Y-91739000D01*
X158456000Y-91725000D01*
X158435000Y-91709000D01*
X158415000Y-91692000D01*
X158396000Y-91674000D01*
X158378000Y-91655000D01*
X158361000Y-91635000D01*
X158345000Y-91614000D01*
X158331000Y-91592000D01*
X158317000Y-91570000D01*
X158304000Y-91547000D01*
X158293000Y-91523000D01*
X158283000Y-91499000D01*
X158274000Y-91475000D01*
X158267000Y-91449000D01*
X158261000Y-91424000D01*
X158256000Y-91398000D01*
X158253000Y-91372000D01*
X158251000Y-91346000D01*
X158250000Y-91320000D01*
X158250000Y-90520000D01*
X158251000Y-90494000D01*
X158253000Y-90468000D01*
X158256000Y-90442000D01*
X158261000Y-90416000D01*
X158267000Y-90391000D01*
X158274000Y-90365000D01*
X158283000Y-90341000D01*
X158293000Y-90317000D01*
X158304000Y-90293000D01*
X158317000Y-90270000D01*
X158331000Y-90248000D01*
X158345000Y-90226000D01*
X158361000Y-90205000D01*
X158378000Y-90185000D01*
X158396000Y-90166000D01*
X158415000Y-90148000D01*
X158435000Y-90131000D01*
X158456000Y-90115000D01*
X158478000Y-90101000D01*
X158500000Y-90087000D01*
X158523000Y-90074000D01*
X158547000Y-90063000D01*
X158571000Y-90053000D01*
X158595000Y-90044000D01*
X158621000Y-90037000D01*
X158646000Y-90031000D01*
X158672000Y-90026000D01*
X158698000Y-90023000D01*
X158724000Y-90021000D01*
X158750000Y-90020000D01*
X158776000Y-90021000D01*
%TA.AperFunction,EtchedComponent*%
G36*
X158776000Y-90021000D02*
G01*
X158802000Y-90023000D01*
X158828000Y-90026000D01*
X158854000Y-90031000D01*
X158879000Y-90037000D01*
X158905000Y-90044000D01*
X158929000Y-90053000D01*
X158953000Y-90063000D01*
X158977000Y-90074000D01*
X159000000Y-90087000D01*
X159022000Y-90101000D01*
X159044000Y-90115000D01*
X159065000Y-90131000D01*
X159085000Y-90148000D01*
X159104000Y-90166000D01*
X159122000Y-90185000D01*
X159139000Y-90205000D01*
X159155000Y-90226000D01*
X159169000Y-90248000D01*
X159183000Y-90270000D01*
X159196000Y-90293000D01*
X159207000Y-90317000D01*
X159217000Y-90341000D01*
X159226000Y-90365000D01*
X159233000Y-90391000D01*
X159239000Y-90416000D01*
X159244000Y-90442000D01*
X159247000Y-90468000D01*
X159249000Y-90494000D01*
X159250000Y-90520000D01*
X159250000Y-91320000D01*
X159249000Y-91346000D01*
X159247000Y-91372000D01*
X159244000Y-91398000D01*
X159239000Y-91424000D01*
X159233000Y-91449000D01*
X159226000Y-91475000D01*
X159217000Y-91499000D01*
X159207000Y-91523000D01*
X159196000Y-91547000D01*
X159183000Y-91570000D01*
X159169000Y-91592000D01*
X159155000Y-91614000D01*
X159139000Y-91635000D01*
X159122000Y-91655000D01*
X159104000Y-91674000D01*
X159085000Y-91692000D01*
X159065000Y-91709000D01*
X159044000Y-91725000D01*
X159022000Y-91739000D01*
X159000000Y-91753000D01*
X158977000Y-91766000D01*
X158953000Y-91777000D01*
X158929000Y-91787000D01*
X158905000Y-91796000D01*
X158879000Y-91803000D01*
X158854000Y-91809000D01*
X158828000Y-91814000D01*
X158802000Y-91817000D01*
X158776000Y-91819000D01*
X158750000Y-91820000D01*
X158724000Y-91819000D01*
X158698000Y-91817000D01*
X158672000Y-91814000D01*
X158646000Y-91809000D01*
X158621000Y-91803000D01*
X158595000Y-91796000D01*
X158571000Y-91787000D01*
X158547000Y-91777000D01*
X158523000Y-91766000D01*
X158500000Y-91753000D01*
X158478000Y-91739000D01*
X158456000Y-91725000D01*
X158435000Y-91709000D01*
X158415000Y-91692000D01*
X158396000Y-91674000D01*
X158378000Y-91655000D01*
X158361000Y-91635000D01*
X158345000Y-91614000D01*
X158331000Y-91592000D01*
X158317000Y-91570000D01*
X158304000Y-91547000D01*
X158293000Y-91523000D01*
X158283000Y-91499000D01*
X158274000Y-91475000D01*
X158267000Y-91449000D01*
X158261000Y-91424000D01*
X158256000Y-91398000D01*
X158253000Y-91372000D01*
X158251000Y-91346000D01*
X158250000Y-91320000D01*
X158250000Y-90520000D01*
X158251000Y-90494000D01*
X158253000Y-90468000D01*
X158256000Y-90442000D01*
X158261000Y-90416000D01*
X158267000Y-90391000D01*
X158274000Y-90365000D01*
X158283000Y-90341000D01*
X158293000Y-90317000D01*
X158304000Y-90293000D01*
X158317000Y-90270000D01*
X158331000Y-90248000D01*
X158345000Y-90226000D01*
X158361000Y-90205000D01*
X158378000Y-90185000D01*
X158396000Y-90166000D01*
X158415000Y-90148000D01*
X158435000Y-90131000D01*
X158456000Y-90115000D01*
X158478000Y-90101000D01*
X158500000Y-90087000D01*
X158523000Y-90074000D01*
X158547000Y-90063000D01*
X158571000Y-90053000D01*
X158595000Y-90044000D01*
X158621000Y-90037000D01*
X158646000Y-90031000D01*
X158672000Y-90026000D01*
X158698000Y-90023000D01*
X158724000Y-90021000D01*
X158750000Y-90020000D01*
X158776000Y-90021000D01*
G37*
%TD.AperFunction*%
X158776000Y-93821000D02*
X158802000Y-93823000D01*
X158828000Y-93826000D01*
X158854000Y-93831000D01*
X158879000Y-93837000D01*
X158905000Y-93844000D01*
X158929000Y-93853000D01*
X158953000Y-93863000D01*
X158977000Y-93874000D01*
X159000000Y-93887000D01*
X159022000Y-93901000D01*
X159044000Y-93915000D01*
X159065000Y-93931000D01*
X159085000Y-93948000D01*
X159104000Y-93966000D01*
X159122000Y-93985000D01*
X159139000Y-94005000D01*
X159155000Y-94026000D01*
X159169000Y-94048000D01*
X159183000Y-94070000D01*
X159196000Y-94093000D01*
X159207000Y-94117000D01*
X159217000Y-94141000D01*
X159226000Y-94165000D01*
X159233000Y-94191000D01*
X159239000Y-94216000D01*
X159244000Y-94242000D01*
X159247000Y-94268000D01*
X159249000Y-94294000D01*
X159250000Y-94320000D01*
X159250000Y-95520000D01*
X159249000Y-95546000D01*
X159247000Y-95572000D01*
X159244000Y-95598000D01*
X159239000Y-95624000D01*
X159233000Y-95649000D01*
X159226000Y-95675000D01*
X159217000Y-95699000D01*
X159207000Y-95723000D01*
X159196000Y-95747000D01*
X159183000Y-95770000D01*
X159169000Y-95792000D01*
X159155000Y-95814000D01*
X159139000Y-95835000D01*
X159122000Y-95855000D01*
X159104000Y-95874000D01*
X159085000Y-95892000D01*
X159065000Y-95909000D01*
X159044000Y-95925000D01*
X159022000Y-95939000D01*
X159000000Y-95953000D01*
X158977000Y-95966000D01*
X158953000Y-95977000D01*
X158929000Y-95987000D01*
X158905000Y-95996000D01*
X158879000Y-96003000D01*
X158854000Y-96009000D01*
X158828000Y-96014000D01*
X158802000Y-96017000D01*
X158776000Y-96019000D01*
X158750000Y-96020000D01*
X158724000Y-96019000D01*
X158698000Y-96017000D01*
X158672000Y-96014000D01*
X158646000Y-96009000D01*
X158621000Y-96003000D01*
X158595000Y-95996000D01*
X158571000Y-95987000D01*
X158547000Y-95977000D01*
X158523000Y-95966000D01*
X158500000Y-95953000D01*
X158478000Y-95939000D01*
X158456000Y-95925000D01*
X158435000Y-95909000D01*
X158415000Y-95892000D01*
X158396000Y-95874000D01*
X158378000Y-95855000D01*
X158361000Y-95835000D01*
X158345000Y-95814000D01*
X158331000Y-95792000D01*
X158317000Y-95770000D01*
X158304000Y-95747000D01*
X158293000Y-95723000D01*
X158283000Y-95699000D01*
X158274000Y-95675000D01*
X158267000Y-95649000D01*
X158261000Y-95624000D01*
X158256000Y-95598000D01*
X158253000Y-95572000D01*
X158251000Y-95546000D01*
X158250000Y-95520000D01*
X158250000Y-94320000D01*
X158251000Y-94294000D01*
X158253000Y-94268000D01*
X158256000Y-94242000D01*
X158261000Y-94216000D01*
X158267000Y-94191000D01*
X158274000Y-94165000D01*
X158283000Y-94141000D01*
X158293000Y-94117000D01*
X158304000Y-94093000D01*
X158317000Y-94070000D01*
X158331000Y-94048000D01*
X158345000Y-94026000D01*
X158361000Y-94005000D01*
X158378000Y-93985000D01*
X158396000Y-93966000D01*
X158415000Y-93948000D01*
X158435000Y-93931000D01*
X158456000Y-93915000D01*
X158478000Y-93901000D01*
X158500000Y-93887000D01*
X158523000Y-93874000D01*
X158547000Y-93863000D01*
X158571000Y-93853000D01*
X158595000Y-93844000D01*
X158621000Y-93837000D01*
X158646000Y-93831000D01*
X158672000Y-93826000D01*
X158698000Y-93823000D01*
X158724000Y-93821000D01*
X158750000Y-93820000D01*
X158776000Y-93821000D01*
%TA.AperFunction,EtchedComponent*%
G36*
X158776000Y-93821000D02*
G01*
X158802000Y-93823000D01*
X158828000Y-93826000D01*
X158854000Y-93831000D01*
X158879000Y-93837000D01*
X158905000Y-93844000D01*
X158929000Y-93853000D01*
X158953000Y-93863000D01*
X158977000Y-93874000D01*
X159000000Y-93887000D01*
X159022000Y-93901000D01*
X159044000Y-93915000D01*
X159065000Y-93931000D01*
X159085000Y-93948000D01*
X159104000Y-93966000D01*
X159122000Y-93985000D01*
X159139000Y-94005000D01*
X159155000Y-94026000D01*
X159169000Y-94048000D01*
X159183000Y-94070000D01*
X159196000Y-94093000D01*
X159207000Y-94117000D01*
X159217000Y-94141000D01*
X159226000Y-94165000D01*
X159233000Y-94191000D01*
X159239000Y-94216000D01*
X159244000Y-94242000D01*
X159247000Y-94268000D01*
X159249000Y-94294000D01*
X159250000Y-94320000D01*
X159250000Y-95520000D01*
X159249000Y-95546000D01*
X159247000Y-95572000D01*
X159244000Y-95598000D01*
X159239000Y-95624000D01*
X159233000Y-95649000D01*
X159226000Y-95675000D01*
X159217000Y-95699000D01*
X159207000Y-95723000D01*
X159196000Y-95747000D01*
X159183000Y-95770000D01*
X159169000Y-95792000D01*
X159155000Y-95814000D01*
X159139000Y-95835000D01*
X159122000Y-95855000D01*
X159104000Y-95874000D01*
X159085000Y-95892000D01*
X159065000Y-95909000D01*
X159044000Y-95925000D01*
X159022000Y-95939000D01*
X159000000Y-95953000D01*
X158977000Y-95966000D01*
X158953000Y-95977000D01*
X158929000Y-95987000D01*
X158905000Y-95996000D01*
X158879000Y-96003000D01*
X158854000Y-96009000D01*
X158828000Y-96014000D01*
X158802000Y-96017000D01*
X158776000Y-96019000D01*
X158750000Y-96020000D01*
X158724000Y-96019000D01*
X158698000Y-96017000D01*
X158672000Y-96014000D01*
X158646000Y-96009000D01*
X158621000Y-96003000D01*
X158595000Y-95996000D01*
X158571000Y-95987000D01*
X158547000Y-95977000D01*
X158523000Y-95966000D01*
X158500000Y-95953000D01*
X158478000Y-95939000D01*
X158456000Y-95925000D01*
X158435000Y-95909000D01*
X158415000Y-95892000D01*
X158396000Y-95874000D01*
X158378000Y-95855000D01*
X158361000Y-95835000D01*
X158345000Y-95814000D01*
X158331000Y-95792000D01*
X158317000Y-95770000D01*
X158304000Y-95747000D01*
X158293000Y-95723000D01*
X158283000Y-95699000D01*
X158274000Y-95675000D01*
X158267000Y-95649000D01*
X158261000Y-95624000D01*
X158256000Y-95598000D01*
X158253000Y-95572000D01*
X158251000Y-95546000D01*
X158250000Y-95520000D01*
X158250000Y-94320000D01*
X158251000Y-94294000D01*
X158253000Y-94268000D01*
X158256000Y-94242000D01*
X158261000Y-94216000D01*
X158267000Y-94191000D01*
X158274000Y-94165000D01*
X158283000Y-94141000D01*
X158293000Y-94117000D01*
X158304000Y-94093000D01*
X158317000Y-94070000D01*
X158331000Y-94048000D01*
X158345000Y-94026000D01*
X158361000Y-94005000D01*
X158378000Y-93985000D01*
X158396000Y-93966000D01*
X158415000Y-93948000D01*
X158435000Y-93931000D01*
X158456000Y-93915000D01*
X158478000Y-93901000D01*
X158500000Y-93887000D01*
X158523000Y-93874000D01*
X158547000Y-93863000D01*
X158571000Y-93853000D01*
X158595000Y-93844000D01*
X158621000Y-93837000D01*
X158646000Y-93831000D01*
X158672000Y-93826000D01*
X158698000Y-93823000D01*
X158724000Y-93821000D01*
X158750000Y-93820000D01*
X158776000Y-93821000D01*
G37*
%TD.AperFunction*%
X170016000Y-90021000D02*
X170042000Y-90023000D01*
X170068000Y-90026000D01*
X170094000Y-90031000D01*
X170119000Y-90037000D01*
X170145000Y-90044000D01*
X170169000Y-90053000D01*
X170193000Y-90063000D01*
X170217000Y-90074000D01*
X170240000Y-90087000D01*
X170262000Y-90101000D01*
X170284000Y-90115000D01*
X170305000Y-90131000D01*
X170325000Y-90148000D01*
X170344000Y-90166000D01*
X170362000Y-90185000D01*
X170379000Y-90205000D01*
X170395000Y-90226000D01*
X170409000Y-90248000D01*
X170423000Y-90270000D01*
X170436000Y-90293000D01*
X170447000Y-90317000D01*
X170457000Y-90341000D01*
X170466000Y-90365000D01*
X170473000Y-90391000D01*
X170479000Y-90416000D01*
X170484000Y-90442000D01*
X170487000Y-90468000D01*
X170489000Y-90494000D01*
X170490000Y-90520000D01*
X170490000Y-91320000D01*
X170489000Y-91346000D01*
X170487000Y-91372000D01*
X170484000Y-91398000D01*
X170479000Y-91424000D01*
X170473000Y-91449000D01*
X170466000Y-91475000D01*
X170457000Y-91499000D01*
X170447000Y-91523000D01*
X170436000Y-91547000D01*
X170423000Y-91570000D01*
X170409000Y-91592000D01*
X170395000Y-91614000D01*
X170379000Y-91635000D01*
X170362000Y-91655000D01*
X170344000Y-91674000D01*
X170325000Y-91692000D01*
X170305000Y-91709000D01*
X170284000Y-91725000D01*
X170262000Y-91739000D01*
X170240000Y-91753000D01*
X170217000Y-91766000D01*
X170193000Y-91777000D01*
X170169000Y-91787000D01*
X170145000Y-91796000D01*
X170119000Y-91803000D01*
X170094000Y-91809000D01*
X170068000Y-91814000D01*
X170042000Y-91817000D01*
X170016000Y-91819000D01*
X169990000Y-91820000D01*
X169964000Y-91819000D01*
X169938000Y-91817000D01*
X169912000Y-91814000D01*
X169886000Y-91809000D01*
X169861000Y-91803000D01*
X169835000Y-91796000D01*
X169811000Y-91787000D01*
X169787000Y-91777000D01*
X169763000Y-91766000D01*
X169740000Y-91753000D01*
X169718000Y-91739000D01*
X169696000Y-91725000D01*
X169675000Y-91709000D01*
X169655000Y-91692000D01*
X169636000Y-91674000D01*
X169618000Y-91655000D01*
X169601000Y-91635000D01*
X169585000Y-91614000D01*
X169571000Y-91592000D01*
X169557000Y-91570000D01*
X169544000Y-91547000D01*
X169533000Y-91523000D01*
X169523000Y-91499000D01*
X169514000Y-91475000D01*
X169507000Y-91449000D01*
X169501000Y-91424000D01*
X169496000Y-91398000D01*
X169493000Y-91372000D01*
X169491000Y-91346000D01*
X169490000Y-91320000D01*
X169490000Y-90520000D01*
X169491000Y-90494000D01*
X169493000Y-90468000D01*
X169496000Y-90442000D01*
X169501000Y-90416000D01*
X169507000Y-90391000D01*
X169514000Y-90365000D01*
X169523000Y-90341000D01*
X169533000Y-90317000D01*
X169544000Y-90293000D01*
X169557000Y-90270000D01*
X169571000Y-90248000D01*
X169585000Y-90226000D01*
X169601000Y-90205000D01*
X169618000Y-90185000D01*
X169636000Y-90166000D01*
X169655000Y-90148000D01*
X169675000Y-90131000D01*
X169696000Y-90115000D01*
X169718000Y-90101000D01*
X169740000Y-90087000D01*
X169763000Y-90074000D01*
X169787000Y-90063000D01*
X169811000Y-90053000D01*
X169835000Y-90044000D01*
X169861000Y-90037000D01*
X169886000Y-90031000D01*
X169912000Y-90026000D01*
X169938000Y-90023000D01*
X169964000Y-90021000D01*
X169990000Y-90020000D01*
X170016000Y-90021000D01*
%TA.AperFunction,EtchedComponent*%
G36*
X170016000Y-90021000D02*
G01*
X170042000Y-90023000D01*
X170068000Y-90026000D01*
X170094000Y-90031000D01*
X170119000Y-90037000D01*
X170145000Y-90044000D01*
X170169000Y-90053000D01*
X170193000Y-90063000D01*
X170217000Y-90074000D01*
X170240000Y-90087000D01*
X170262000Y-90101000D01*
X170284000Y-90115000D01*
X170305000Y-90131000D01*
X170325000Y-90148000D01*
X170344000Y-90166000D01*
X170362000Y-90185000D01*
X170379000Y-90205000D01*
X170395000Y-90226000D01*
X170409000Y-90248000D01*
X170423000Y-90270000D01*
X170436000Y-90293000D01*
X170447000Y-90317000D01*
X170457000Y-90341000D01*
X170466000Y-90365000D01*
X170473000Y-90391000D01*
X170479000Y-90416000D01*
X170484000Y-90442000D01*
X170487000Y-90468000D01*
X170489000Y-90494000D01*
X170490000Y-90520000D01*
X170490000Y-91320000D01*
X170489000Y-91346000D01*
X170487000Y-91372000D01*
X170484000Y-91398000D01*
X170479000Y-91424000D01*
X170473000Y-91449000D01*
X170466000Y-91475000D01*
X170457000Y-91499000D01*
X170447000Y-91523000D01*
X170436000Y-91547000D01*
X170423000Y-91570000D01*
X170409000Y-91592000D01*
X170395000Y-91614000D01*
X170379000Y-91635000D01*
X170362000Y-91655000D01*
X170344000Y-91674000D01*
X170325000Y-91692000D01*
X170305000Y-91709000D01*
X170284000Y-91725000D01*
X170262000Y-91739000D01*
X170240000Y-91753000D01*
X170217000Y-91766000D01*
X170193000Y-91777000D01*
X170169000Y-91787000D01*
X170145000Y-91796000D01*
X170119000Y-91803000D01*
X170094000Y-91809000D01*
X170068000Y-91814000D01*
X170042000Y-91817000D01*
X170016000Y-91819000D01*
X169990000Y-91820000D01*
X169964000Y-91819000D01*
X169938000Y-91817000D01*
X169912000Y-91814000D01*
X169886000Y-91809000D01*
X169861000Y-91803000D01*
X169835000Y-91796000D01*
X169811000Y-91787000D01*
X169787000Y-91777000D01*
X169763000Y-91766000D01*
X169740000Y-91753000D01*
X169718000Y-91739000D01*
X169696000Y-91725000D01*
X169675000Y-91709000D01*
X169655000Y-91692000D01*
X169636000Y-91674000D01*
X169618000Y-91655000D01*
X169601000Y-91635000D01*
X169585000Y-91614000D01*
X169571000Y-91592000D01*
X169557000Y-91570000D01*
X169544000Y-91547000D01*
X169533000Y-91523000D01*
X169523000Y-91499000D01*
X169514000Y-91475000D01*
X169507000Y-91449000D01*
X169501000Y-91424000D01*
X169496000Y-91398000D01*
X169493000Y-91372000D01*
X169491000Y-91346000D01*
X169490000Y-91320000D01*
X169490000Y-90520000D01*
X169491000Y-90494000D01*
X169493000Y-90468000D01*
X169496000Y-90442000D01*
X169501000Y-90416000D01*
X169507000Y-90391000D01*
X169514000Y-90365000D01*
X169523000Y-90341000D01*
X169533000Y-90317000D01*
X169544000Y-90293000D01*
X169557000Y-90270000D01*
X169571000Y-90248000D01*
X169585000Y-90226000D01*
X169601000Y-90205000D01*
X169618000Y-90185000D01*
X169636000Y-90166000D01*
X169655000Y-90148000D01*
X169675000Y-90131000D01*
X169696000Y-90115000D01*
X169718000Y-90101000D01*
X169740000Y-90087000D01*
X169763000Y-90074000D01*
X169787000Y-90063000D01*
X169811000Y-90053000D01*
X169835000Y-90044000D01*
X169861000Y-90037000D01*
X169886000Y-90031000D01*
X169912000Y-90026000D01*
X169938000Y-90023000D01*
X169964000Y-90021000D01*
X169990000Y-90020000D01*
X170016000Y-90021000D01*
G37*
%TD.AperFunction*%
X170016000Y-93821000D02*
X170042000Y-93823000D01*
X170068000Y-93826000D01*
X170094000Y-93831000D01*
X170119000Y-93837000D01*
X170145000Y-93844000D01*
X170169000Y-93853000D01*
X170193000Y-93863000D01*
X170217000Y-93874000D01*
X170240000Y-93887000D01*
X170262000Y-93901000D01*
X170284000Y-93915000D01*
X170305000Y-93931000D01*
X170325000Y-93948000D01*
X170344000Y-93966000D01*
X170362000Y-93985000D01*
X170379000Y-94005000D01*
X170395000Y-94026000D01*
X170409000Y-94048000D01*
X170423000Y-94070000D01*
X170436000Y-94093000D01*
X170447000Y-94117000D01*
X170457000Y-94141000D01*
X170466000Y-94165000D01*
X170473000Y-94191000D01*
X170479000Y-94216000D01*
X170484000Y-94242000D01*
X170487000Y-94268000D01*
X170489000Y-94294000D01*
X170490000Y-94320000D01*
X170490000Y-95520000D01*
X170489000Y-95546000D01*
X170487000Y-95572000D01*
X170484000Y-95598000D01*
X170479000Y-95624000D01*
X170473000Y-95649000D01*
X170466000Y-95675000D01*
X170457000Y-95699000D01*
X170447000Y-95723000D01*
X170436000Y-95747000D01*
X170423000Y-95770000D01*
X170409000Y-95792000D01*
X170395000Y-95814000D01*
X170379000Y-95835000D01*
X170362000Y-95855000D01*
X170344000Y-95874000D01*
X170325000Y-95892000D01*
X170305000Y-95909000D01*
X170284000Y-95925000D01*
X170262000Y-95939000D01*
X170240000Y-95953000D01*
X170217000Y-95966000D01*
X170193000Y-95977000D01*
X170169000Y-95987000D01*
X170145000Y-95996000D01*
X170119000Y-96003000D01*
X170094000Y-96009000D01*
X170068000Y-96014000D01*
X170042000Y-96017000D01*
X170016000Y-96019000D01*
X169990000Y-96020000D01*
X169964000Y-96019000D01*
X169938000Y-96017000D01*
X169912000Y-96014000D01*
X169886000Y-96009000D01*
X169861000Y-96003000D01*
X169835000Y-95996000D01*
X169811000Y-95987000D01*
X169787000Y-95977000D01*
X169763000Y-95966000D01*
X169740000Y-95953000D01*
X169718000Y-95939000D01*
X169696000Y-95925000D01*
X169675000Y-95909000D01*
X169655000Y-95892000D01*
X169636000Y-95874000D01*
X169618000Y-95855000D01*
X169601000Y-95835000D01*
X169585000Y-95814000D01*
X169571000Y-95792000D01*
X169557000Y-95770000D01*
X169544000Y-95747000D01*
X169533000Y-95723000D01*
X169523000Y-95699000D01*
X169514000Y-95675000D01*
X169507000Y-95649000D01*
X169501000Y-95624000D01*
X169496000Y-95598000D01*
X169493000Y-95572000D01*
X169491000Y-95546000D01*
X169490000Y-95520000D01*
X169490000Y-94320000D01*
X169491000Y-94294000D01*
X169493000Y-94268000D01*
X169496000Y-94242000D01*
X169501000Y-94216000D01*
X169507000Y-94191000D01*
X169514000Y-94165000D01*
X169523000Y-94141000D01*
X169533000Y-94117000D01*
X169544000Y-94093000D01*
X169557000Y-94070000D01*
X169571000Y-94048000D01*
X169585000Y-94026000D01*
X169601000Y-94005000D01*
X169618000Y-93985000D01*
X169636000Y-93966000D01*
X169655000Y-93948000D01*
X169675000Y-93931000D01*
X169696000Y-93915000D01*
X169718000Y-93901000D01*
X169740000Y-93887000D01*
X169763000Y-93874000D01*
X169787000Y-93863000D01*
X169811000Y-93853000D01*
X169835000Y-93844000D01*
X169861000Y-93837000D01*
X169886000Y-93831000D01*
X169912000Y-93826000D01*
X169938000Y-93823000D01*
X169964000Y-93821000D01*
X169990000Y-93820000D01*
X170016000Y-93821000D01*
%TA.AperFunction,EtchedComponent*%
G36*
X170016000Y-93821000D02*
G01*
X170042000Y-93823000D01*
X170068000Y-93826000D01*
X170094000Y-93831000D01*
X170119000Y-93837000D01*
X170145000Y-93844000D01*
X170169000Y-93853000D01*
X170193000Y-93863000D01*
X170217000Y-93874000D01*
X170240000Y-93887000D01*
X170262000Y-93901000D01*
X170284000Y-93915000D01*
X170305000Y-93931000D01*
X170325000Y-93948000D01*
X170344000Y-93966000D01*
X170362000Y-93985000D01*
X170379000Y-94005000D01*
X170395000Y-94026000D01*
X170409000Y-94048000D01*
X170423000Y-94070000D01*
X170436000Y-94093000D01*
X170447000Y-94117000D01*
X170457000Y-94141000D01*
X170466000Y-94165000D01*
X170473000Y-94191000D01*
X170479000Y-94216000D01*
X170484000Y-94242000D01*
X170487000Y-94268000D01*
X170489000Y-94294000D01*
X170490000Y-94320000D01*
X170490000Y-95520000D01*
X170489000Y-95546000D01*
X170487000Y-95572000D01*
X170484000Y-95598000D01*
X170479000Y-95624000D01*
X170473000Y-95649000D01*
X170466000Y-95675000D01*
X170457000Y-95699000D01*
X170447000Y-95723000D01*
X170436000Y-95747000D01*
X170423000Y-95770000D01*
X170409000Y-95792000D01*
X170395000Y-95814000D01*
X170379000Y-95835000D01*
X170362000Y-95855000D01*
X170344000Y-95874000D01*
X170325000Y-95892000D01*
X170305000Y-95909000D01*
X170284000Y-95925000D01*
X170262000Y-95939000D01*
X170240000Y-95953000D01*
X170217000Y-95966000D01*
X170193000Y-95977000D01*
X170169000Y-95987000D01*
X170145000Y-95996000D01*
X170119000Y-96003000D01*
X170094000Y-96009000D01*
X170068000Y-96014000D01*
X170042000Y-96017000D01*
X170016000Y-96019000D01*
X169990000Y-96020000D01*
X169964000Y-96019000D01*
X169938000Y-96017000D01*
X169912000Y-96014000D01*
X169886000Y-96009000D01*
X169861000Y-96003000D01*
X169835000Y-95996000D01*
X169811000Y-95987000D01*
X169787000Y-95977000D01*
X169763000Y-95966000D01*
X169740000Y-95953000D01*
X169718000Y-95939000D01*
X169696000Y-95925000D01*
X169675000Y-95909000D01*
X169655000Y-95892000D01*
X169636000Y-95874000D01*
X169618000Y-95855000D01*
X169601000Y-95835000D01*
X169585000Y-95814000D01*
X169571000Y-95792000D01*
X169557000Y-95770000D01*
X169544000Y-95747000D01*
X169533000Y-95723000D01*
X169523000Y-95699000D01*
X169514000Y-95675000D01*
X169507000Y-95649000D01*
X169501000Y-95624000D01*
X169496000Y-95598000D01*
X169493000Y-95572000D01*
X169491000Y-95546000D01*
X169490000Y-95520000D01*
X169490000Y-94320000D01*
X169491000Y-94294000D01*
X169493000Y-94268000D01*
X169496000Y-94242000D01*
X169501000Y-94216000D01*
X169507000Y-94191000D01*
X169514000Y-94165000D01*
X169523000Y-94141000D01*
X169533000Y-94117000D01*
X169544000Y-94093000D01*
X169557000Y-94070000D01*
X169571000Y-94048000D01*
X169585000Y-94026000D01*
X169601000Y-94005000D01*
X169618000Y-93985000D01*
X169636000Y-93966000D01*
X169655000Y-93948000D01*
X169675000Y-93931000D01*
X169696000Y-93915000D01*
X169718000Y-93901000D01*
X169740000Y-93887000D01*
X169763000Y-93874000D01*
X169787000Y-93863000D01*
X169811000Y-93853000D01*
X169835000Y-93844000D01*
X169861000Y-93837000D01*
X169886000Y-93831000D01*
X169912000Y-93826000D01*
X169938000Y-93823000D01*
X169964000Y-93821000D01*
X169990000Y-93820000D01*
X170016000Y-93821000D01*
G37*
%TD.AperFunction*%
%TD*%
D11*
%TO.P,U5,21,PAD*%
%TO.N,GND*%
X125389938Y-86644093D03*
X126289938Y-86644093D03*
D12*
X125839938Y-86244093D03*
D11*
X125389938Y-85844093D03*
X126289938Y-85844093D03*
%TD*%
%TO.P,U2,21,PAD*%
%TO.N,GND*%
X125481600Y-61536400D03*
X126381600Y-61536400D03*
D12*
X125931600Y-61136400D03*
D11*
X125481600Y-60736400D03*
X126381600Y-60736400D03*
%TD*%
D13*
%TO.P,J4,1,1*%
%TO.N,GND*%
X117019000Y-80010000D03*
%TO.P,J4,2,2*%
%TO.N,m2_enc_cs*%
X119017980Y-80010000D03*
%TO.P,J4,3,3*%
%TO.N,enc_scl*%
X121016960Y-80010000D03*
%TO.P,J4,4,4*%
%TO.N,enc_sda*%
X123015940Y-80010000D03*
%TO.P,J4,5,5*%
%TO.N,+3.3V*%
X125014920Y-80010000D03*
%TD*%
D14*
%TO.P,J2,1,1*%
%TO.N,Net-(U3-in+1)*%
X116174213Y-88862054D03*
%TO.P,J2,2,2*%
%TO.N,Net-(U5-V)*%
X116428213Y-86322054D03*
%TO.P,J2,3,3*%
%TO.N,Net-(U3-in+2)*%
X116174213Y-83782054D03*
%TD*%
D15*
%TO.P,J11,S1,SHELL_GND*%
%TO.N,unconnected-(J11-SHELL_GND-PadS1)*%
X158750000Y-94920000D03*
D16*
%TO.P,J11,S2,SHELL_GND*%
%TO.N,unconnected-(J11-SHELL_GND-PadS2)*%
X169990000Y-90920000D03*
%TO.P,J11,S3,SHELL_GND*%
%TO.N,unconnected-(J11-SHELL_GND-PadS3)*%
X158750000Y-90920000D03*
D15*
%TO.P,J11,S4,SHELL_GND*%
%TO.N,unconnected-(J11-SHELL_GND-PadS4)*%
X169990000Y-94920000D03*
%TD*%
D14*
%TO.P,J10,1,Pin_1*%
%TO.N,Net-(J10-Pin_1)*%
X180975000Y-62407800D03*
%TO.P,J10,2,Pin_2*%
%TO.N,Net-(J10-Pin_2)*%
X180975000Y-59512200D03*
%TD*%
D17*
%TO.P,C10,1,+*%
%TO.N,+BATT*%
X141585605Y-61085748D03*
D18*
%TO.P,C10,2,-*%
%TO.N,GND*%
X138085605Y-61085748D03*
%TD*%
D13*
%TO.P,J3,1,1*%
%TO.N,GND*%
X117085040Y-72050910D03*
%TO.P,J3,2,2*%
%TO.N,m1_enc_cs*%
X119084020Y-72050910D03*
%TO.P,J3,3,3*%
%TO.N,enc_scl*%
X121083000Y-72050910D03*
%TO.P,J3,4,4*%
%TO.N,enc_sda*%
X123081980Y-72050910D03*
%TO.P,J3,5,5*%
%TO.N,+3.3V*%
X125080960Y-72050910D03*
%TD*%
D14*
%TO.P,J1,1,1*%
%TO.N,Net-(U4-in+1)*%
X116257000Y-63754000D03*
%TO.P,J1,2,2*%
%TO.N,Net-(U2-V)*%
X116511000Y-61214000D03*
%TO.P,J1,3,3*%
%TO.N,Net-(U4-in+2)*%
X116257000Y-58674000D03*
%TD*%
%TO.P,J9,1,Pin_1*%
%TO.N,+3.3V*%
X180594000Y-86360000D03*
%TO.P,J9,2,Pin_2*%
%TO.N,+5V*%
X180848000Y-83820000D03*
%TO.P,J9,3,Pin_3*%
%TO.N,GND*%
X180594000Y-81280000D03*
%TO.P,J9,4,Pin_4*%
%TO.N,gpio8*%
X180848000Y-78740000D03*
%TO.P,J9,5,Pin_5*%
%TO.N,gpio38*%
X180594000Y-76200000D03*
%TO.P,J9,6,Pin_6*%
%TO.N,Net-(J9-Pin_6)*%
X180848000Y-73660000D03*
%TO.P,J9,7,Pin_7*%
%TO.N,Net-(J9-Pin_7)*%
X180594000Y-71120000D03*
%TO.P,J9,8,Pin_8*%
%TO.N,Net-(J9-Pin_8)*%
X180848000Y-68580000D03*
%TO.P,J9,9,Pin_9*%
%TO.N,Net-(J9-Pin_9)*%
X180594000Y-66040000D03*
%TD*%
D19*
%TO.P,J8,1,+*%
%TO.N,+BATT*%
X144924420Y-54825621D03*
D20*
%TO.P,J8,2,-*%
%TO.N,GND*%
X134924420Y-54825621D03*
%TD*%
D21*
%TO.N,+BATT*%
X122642802Y-87693201D03*
D22*
X125547547Y-65033667D03*
D21*
X123535134Y-90050134D03*
X122732800Y-62585600D03*
X122732800Y-61772800D03*
X122642802Y-86880401D03*
%TO.N,GND*%
X161544000Y-81026000D03*
X158320266Y-81709734D03*
X166098137Y-84059829D03*
X155194000Y-62484000D03*
D22*
X164740000Y-66980000D03*
D21*
X118782002Y-87439201D03*
X154686000Y-94234000D03*
D22*
X164740000Y-68380000D03*
D21*
X161620200Y-82677000D03*
X157462742Y-78681058D03*
X124401600Y-62188400D03*
X157418566Y-80808034D03*
X159044166Y-82433634D03*
D22*
X166140000Y-65580000D03*
D21*
X155888500Y-76987400D03*
X159435800Y-80645000D03*
X143737658Y-86282843D03*
X171450000Y-87884000D03*
X159704566Y-83094034D03*
D22*
X166140000Y-68380000D03*
D21*
X176784000Y-88138000D03*
X150622000Y-65786000D03*
X157480000Y-87884000D03*
X130556000Y-67564000D03*
X131579500Y-61783686D03*
X156895260Y-75208860D03*
X124351602Y-85176001D03*
D22*
X164735137Y-65597355D03*
D21*
X140385800Y-73253600D03*
X140091776Y-68498009D03*
X133477000Y-64500100D03*
X156669266Y-80058734D03*
X157391500Y-77952600D03*
D22*
X166140000Y-66980000D03*
D21*
X147574000Y-75692000D03*
X143764000Y-85090000D03*
X143764000Y-87376000D03*
X160419981Y-83809449D03*
D22*
X167540000Y-66980000D03*
D21*
X155855266Y-79244734D03*
X137773210Y-65697500D03*
D22*
X167540000Y-68380000D03*
X176433522Y-59281986D03*
D21*
X170264500Y-79712000D03*
X141249400Y-90932000D03*
X119727546Y-62136006D03*
X155888500Y-77698600D03*
X153416000Y-62992000D03*
X157556200Y-74447400D03*
X158496000Y-83820000D03*
X124311602Y-87296001D03*
X124441600Y-60068400D03*
X125301405Y-83368760D03*
X160934400Y-82042000D03*
X118872000Y-62331600D03*
X157391500Y-77216000D03*
X142675020Y-71882000D03*
X161036000Y-88392000D03*
X144703800Y-68376800D03*
X157671040Y-76568840D03*
X145188308Y-72827500D03*
X140394500Y-74690257D03*
D22*
X167540000Y-65580000D03*
D21*
X126238000Y-57658000D03*
X158085042Y-79303358D03*
X167640000Y-88392000D03*
X158890000Y-59260000D03*
X156176735Y-75927384D03*
X131114800Y-89763600D03*
X119637548Y-87243607D03*
X155800000Y-78500000D03*
X125730000Y-58420000D03*
X158707342Y-79925658D03*
X146050000Y-76200000D03*
X160324800Y-81457800D03*
X135233210Y-65793500D03*
X154686000Y-88138000D03*
%TO.N,+3.3V*%
X175034864Y-80587353D03*
X175006000Y-81534000D03*
X156718000Y-60198000D03*
X127660587Y-79349413D03*
X151130000Y-74422000D03*
X173793010Y-82665372D03*
X127612469Y-73406000D03*
X128778000Y-58420000D03*
X128071231Y-83366191D03*
X168539500Y-79712000D03*
X129286000Y-73406000D03*
X124129800Y-67538600D03*
%TO.N,Net-(U3-in-1)*%
X127762000Y-91423500D03*
X129427830Y-89727500D03*
%TO.N,Net-(U3-in+1)*%
X130327526Y-89902900D03*
X128797390Y-91760974D03*
%TO.N,Net-(U3-ref_1)*%
X131775200Y-88823800D03*
X131828458Y-84076458D03*
X125943348Y-83998850D03*
%TO.N,/motor_controls/standby*%
X127421731Y-80513000D03*
X127457200Y-67640200D03*
X127104261Y-59503500D03*
X126746000Y-83535101D03*
%TO.N,+5V*%
X149860000Y-67564000D03*
X160528000Y-87630000D03*
X149098000Y-65786000D03*
X169926000Y-86614000D03*
X157480000Y-84455000D03*
X140462000Y-65786000D03*
X156210000Y-87884000D03*
X164338000Y-84582000D03*
X169164000Y-84836000D03*
X149098000Y-67571500D03*
X152654000Y-87884000D03*
X148336000Y-67564000D03*
X141485388Y-68458015D03*
X168402000Y-87630000D03*
X155194000Y-84582000D03*
X150114000Y-61976000D03*
X150114000Y-60198000D03*
%TO.N,Net-(C11-Pad2)*%
X146558000Y-62230000D03*
X148451500Y-61998000D03*
%TO.N,m1_enc_cs*%
X175006000Y-71882000D03*
%TO.N,m2_enc_cs*%
X173228000Y-75692000D03*
%TO.N,m2_uh*%
X146812000Y-74676000D03*
X163068000Y-75692000D03*
X139649200Y-83845400D03*
%TO.N,m2_ul*%
X144018000Y-73406000D03*
X138203093Y-81815093D03*
X168148000Y-75692000D03*
%TO.N,m2_vh*%
X145034000Y-75184000D03*
X140616093Y-81942093D03*
X164338000Y-75692000D03*
%TO.N,m2_vl*%
X137693400Y-80492600D03*
X141224000Y-76708000D03*
X170688000Y-75692000D03*
%TO.N,m2_wh*%
X146325825Y-73437908D03*
X165608000Y-75692000D03*
X138938000Y-82804000D03*
%TO.N,m2_wl*%
X141925161Y-74780509D03*
X139624953Y-79579353D03*
X169418000Y-75692000D03*
%TO.N,m1_uh*%
X128295400Y-65618700D03*
X131719294Y-67152494D03*
X153263600Y-67818000D03*
%TO.N,m1_ul*%
X155702000Y-66446400D03*
X132789823Y-65584177D03*
X127939800Y-62941200D03*
%TO.N,m1_vh*%
X134388218Y-66869500D03*
X129235200Y-65043200D03*
X153441400Y-66862500D03*
%TO.N,m1_vl*%
X155194000Y-64075500D03*
X127939800Y-59503500D03*
%TO.N,m1_wh*%
X136628218Y-66271782D03*
X128422400Y-64397700D03*
X154542492Y-66702873D03*
%TO.N,m1_wl*%
X153416000Y-64441000D03*
X128676400Y-62052200D03*
%TO.N,Net-(J11-DP1)*%
X164800000Y-87517500D03*
X164126101Y-88722573D03*
%TO.N,Net-(U1-EN)*%
X151024197Y-88152726D03*
X158890000Y-61800000D03*
X153984620Y-68438500D03*
X154305000Y-75285600D03*
%TO.N,m2_current_sense_u*%
X138404600Y-78816200D03*
X171958000Y-75692000D03*
%TO.N,m2_current_sense_w*%
X139864559Y-81063559D03*
X166878000Y-75692000D03*
%TO.N,m1_current_sense_w*%
X129908326Y-57568045D03*
X157734000Y-63246000D03*
%TO.N,m1_current_sense_u*%
X129421099Y-63280167D03*
X157124400Y-66370200D03*
%TO.N,enc_scl*%
X175006000Y-73152000D03*
%TO.N,enc_sda*%
X175006000Y-74422000D03*
%TO.N,sda*%
X176390000Y-61800000D03*
X173482000Y-59930500D03*
%TO.N,gpio8*%
X174752000Y-75692000D03*
X151638000Y-82550000D03*
X155194000Y-74735500D03*
%TO.N,gpio38*%
X178907500Y-79502000D03*
X176390000Y-70690000D03*
X149860000Y-80010000D03*
%TD*%
D23*
%TO.N,Net-(J11-DP1)*%
X164126101Y-88191399D02*
X164126101Y-88722573D01*
X164800000Y-87517500D02*
X164126101Y-88191399D01*
D24*
%TO.N,sda*%
X175351500Y-61800000D02*
X176390000Y-61800000D01*
X173482000Y-59930500D02*
X175351500Y-61800000D01*
D23*
%TO.N,m1_ul*%
X152399175Y-64952000D02*
X135123800Y-64952000D01*
X153080775Y-65633600D02*
X152399175Y-64952000D01*
X134315200Y-65760600D02*
X132966246Y-65760600D01*
X154889200Y-65633600D02*
X153080775Y-65633600D01*
X155702000Y-66446400D02*
X154889200Y-65633600D01*
X135123800Y-64952000D02*
X134315200Y-65760600D01*
X132966246Y-65760600D02*
X132789823Y-65584177D01*
%TO.N,m1_current_sense_u*%
X130720861Y-63280167D02*
X129421099Y-63280167D01*
X130856380Y-63415686D02*
X130720861Y-63280167D01*
X131132086Y-63415686D02*
X130856380Y-63415686D01*
X132105400Y-64389000D02*
X131132086Y-63415686D01*
X132410200Y-64389000D02*
X132105400Y-64389000D01*
X134145600Y-65346000D02*
X133367200Y-65346000D01*
X133367200Y-65346000D02*
X132410200Y-64389000D01*
X134891600Y-64600000D02*
X134145600Y-65346000D01*
X152544979Y-64600000D02*
X134891600Y-64600000D01*
X155408100Y-65263500D02*
X153208479Y-65263500D01*
X153208479Y-65263500D02*
X152544979Y-64600000D01*
X156514800Y-66370200D02*
X155408100Y-65263500D01*
X157124400Y-66370200D02*
X156514800Y-66370200D01*
D25*
%TO.N,m1_enc_cs*%
X121986921Y-69148009D02*
X172272009Y-69148009D01*
X172272009Y-69148009D02*
X175006000Y-71882000D01*
X119084020Y-72050910D02*
X121986921Y-69148009D01*
%TO.N,enc_scl*%
X171502009Y-69648009D02*
X175006000Y-73152000D01*
X123485901Y-69648009D02*
X171502009Y-69648009D01*
X121083000Y-72050910D02*
X123485901Y-69648009D01*
%TO.N,enc_sda*%
X170732009Y-70148009D02*
X175006000Y-74422000D01*
X124984881Y-70148009D02*
X170732009Y-70148009D01*
X123081980Y-72050910D02*
X124984881Y-70148009D01*
%TO.N,m2_enc_cs*%
X128379971Y-70648009D02*
X168184009Y-70648009D01*
X168184009Y-70648009D02*
X173228000Y-75692000D01*
X119017980Y-80010000D02*
X128379971Y-70648009D01*
D23*
%TO.N,m2_uh*%
X161036000Y-73660000D02*
X163068000Y-75692000D01*
X147940000Y-73660000D02*
X161036000Y-73660000D01*
X146924000Y-74676000D02*
X147940000Y-73660000D01*
X146812000Y-74676000D02*
X146924000Y-74676000D01*
X146524000Y-74676000D02*
X146812000Y-74676000D01*
X144900000Y-78472774D02*
X144900000Y-76300000D01*
X144900000Y-76300000D02*
X146524000Y-74676000D01*
X140854681Y-82518093D02*
X144900000Y-78472774D01*
X140854681Y-82639919D02*
X140854681Y-82518093D01*
X139649200Y-83845400D02*
X140854681Y-82639919D01*
%TO.N,m2_vh*%
X147292000Y-73308000D02*
X161954000Y-73308000D01*
X145416000Y-75184000D02*
X147292000Y-73308000D01*
X145034000Y-75184000D02*
X145416000Y-75184000D01*
X161954000Y-73308000D02*
X164338000Y-75692000D01*
%TO.N,m2_wh*%
X162872000Y-72956000D02*
X165608000Y-75692000D01*
X146807733Y-72956000D02*
X162872000Y-72956000D01*
X146325825Y-73437908D02*
X146807733Y-72956000D01*
%TO.N,m2_current_sense_w*%
X163790000Y-72604000D02*
X166878000Y-75692000D01*
X146000000Y-72800000D02*
X146196000Y-72604000D01*
X143200000Y-75629688D02*
X146000000Y-72829688D01*
X146196000Y-72604000D02*
X163790000Y-72604000D01*
X143200000Y-77526000D02*
X143200000Y-75629688D01*
X146000000Y-72829688D02*
X146000000Y-72800000D01*
X139864559Y-80861441D02*
X143200000Y-77526000D01*
X139864559Y-81063559D02*
X139864559Y-80861441D01*
%TO.N,m2_wh*%
X145965504Y-73437908D02*
X146325825Y-73437908D01*
X143764000Y-75639412D02*
X145965504Y-73437908D01*
X143764000Y-77978000D02*
X143764000Y-75639412D01*
X138938000Y-82804000D02*
X143764000Y-77978000D01*
%TO.N,m2_ul*%
X145039991Y-72130009D02*
X164586009Y-72130009D01*
X144018000Y-73406000D02*
X144018000Y-73152000D01*
X144018000Y-73152000D02*
X145039991Y-72130009D01*
X164586009Y-72130009D02*
X168148000Y-75692000D01*
%TO.N,m2_wl*%
X165504009Y-71778009D02*
X169418000Y-75692000D01*
X141925161Y-74660639D02*
X144807791Y-71778009D01*
X144807791Y-71778009D02*
X165504009Y-71778009D01*
X141925161Y-74780509D02*
X141925161Y-74660639D01*
%TO.N,m2_vl*%
X166422009Y-71426009D02*
X170688000Y-75692000D01*
X141695491Y-74204509D02*
X144473991Y-71426009D01*
X144473991Y-71426009D02*
X166422009Y-71426009D01*
X141686573Y-74204509D02*
X141695491Y-74204509D01*
X141329000Y-76603000D02*
X141329000Y-74562082D01*
X141224000Y-76708000D02*
X141329000Y-76603000D01*
X141329000Y-74562082D02*
X141686573Y-74204509D01*
%TO.N,m2_current_sense_u*%
X167340009Y-71074009D02*
X171958000Y-75692000D01*
X144328187Y-71074009D02*
X167340009Y-71074009D01*
X142180918Y-73221278D02*
X144328187Y-71074009D01*
X142172000Y-73221278D02*
X142180918Y-73221278D01*
X140970000Y-76147412D02*
X140970000Y-74423278D01*
X140648000Y-76469412D02*
X140970000Y-76147412D01*
X140970000Y-74423278D02*
X142172000Y-73221278D01*
X140648000Y-76776000D02*
X140648000Y-76469412D01*
X138404600Y-78816200D02*
X138607800Y-78816200D01*
X138607800Y-78816200D02*
X140648000Y-76776000D01*
D24*
%TO.N,Net-(U3-in+1)*%
X128839026Y-91760974D02*
X128797390Y-91760974D01*
X130327526Y-90272474D02*
X128839026Y-91760974D01*
X130327526Y-89902900D02*
X130327526Y-90272474D01*
D23*
%TO.N,/motor_controls/standby*%
X127421731Y-82859370D02*
X126746000Y-83535101D01*
X127421731Y-80513000D02*
X127421731Y-82859370D01*
D25*
%TO.N,+3.3V*%
X124129800Y-67538600D02*
X123751600Y-67160400D01*
X125792261Y-59418400D02*
X126790661Y-58420000D01*
X128071231Y-79760058D02*
X128071231Y-83366191D01*
X127660587Y-79349413D02*
X128071231Y-79760058D01*
X126790661Y-58420000D02*
X128778000Y-58420000D01*
X123751600Y-67160400D02*
X123751600Y-59839161D01*
D26*
X129286000Y-73406000D02*
X127612469Y-73406000D01*
D25*
X124172361Y-59418400D02*
X125792261Y-59418400D01*
X123751600Y-59839161D02*
X124172361Y-59418400D01*
D24*
%TO.N,Net-(U3-in-1)*%
X129427830Y-89727500D02*
X127762000Y-91393330D01*
X127762000Y-91393330D02*
X127762000Y-91423500D01*
D23*
%TO.N,Net-(U3-ref_1)*%
X132080000Y-84328000D02*
X131828458Y-84076458D01*
X132080000Y-88519000D02*
X132080000Y-84328000D01*
X131794315Y-84110601D02*
X131828458Y-84076458D01*
X126055099Y-84110601D02*
X131794315Y-84110601D01*
X131775200Y-88823800D02*
X132080000Y-88519000D01*
X125943348Y-83998850D02*
X126055099Y-84110601D01*
%TO.N,/motor_controls/standby*%
X127457200Y-67640200D02*
X127254000Y-67437000D01*
X127254000Y-67437000D02*
X127254000Y-59653239D01*
X127254000Y-59653239D02*
X127104261Y-59503500D01*
D27*
%TO.N,+5V*%
X180848000Y-83820000D02*
X172720000Y-83820000D01*
X172720000Y-83820000D02*
X169926000Y-86614000D01*
D26*
%TO.N,Net-(C11-Pad2)*%
X146558000Y-62230000D02*
X148219500Y-62230000D01*
X148219500Y-62230000D02*
X148451500Y-61998000D01*
D23*
%TO.N,m2_ul*%
X142514093Y-74909907D02*
X144018000Y-73406000D01*
X138203093Y-81815093D02*
X142514093Y-77504093D01*
X142514093Y-77504093D02*
X142514093Y-74909907D01*
%TO.N,m2_vh*%
X144370000Y-78127600D02*
X144370000Y-76102000D01*
X145034000Y-75438000D02*
X145034000Y-75184000D01*
X140616093Y-81942093D02*
X140616093Y-81881507D01*
X144370000Y-76102000D02*
X145034000Y-75438000D01*
X140616093Y-81881507D02*
X144370000Y-78127600D01*
%TO.N,m2_vl*%
X141329000Y-76813000D02*
X141224000Y-76708000D01*
X137693400Y-80492600D02*
X141329000Y-76857000D01*
X141329000Y-76857000D02*
X141329000Y-76813000D01*
%TO.N,m2_wl*%
X139731019Y-79579353D02*
X141925161Y-77385211D01*
X139624953Y-79579353D02*
X139731019Y-79579353D01*
X141925161Y-77385211D02*
X141925161Y-74780509D01*
%TO.N,m1_uh*%
X147653933Y-67696521D02*
X132263321Y-67696521D01*
X130007700Y-65618700D02*
X131541494Y-67152494D01*
X153263600Y-67818000D02*
X153142121Y-67696521D01*
X128295400Y-65618700D02*
X130007700Y-65618700D01*
X150091088Y-68147500D02*
X148104912Y-68147500D01*
X131541494Y-67152494D02*
X131719294Y-67152494D01*
X153142121Y-67696521D02*
X150542067Y-67696521D01*
X132263321Y-67696521D02*
X131719294Y-67152494D01*
X150542067Y-67696521D02*
X150091088Y-68147500D01*
X148104912Y-68147500D02*
X147653933Y-67696521D01*
%TO.N,m1_ul*%
X127939800Y-62941200D02*
X127965200Y-62941200D01*
X131064067Y-63855667D02*
X132789823Y-65581423D01*
X128879667Y-63855667D02*
X131064067Y-63855667D01*
X127965200Y-62941200D02*
X128879667Y-63855667D01*
X132789823Y-65581423D02*
X132789823Y-65584177D01*
%TO.N,m1_vh*%
X153431700Y-66852800D02*
X134404918Y-66852800D01*
X131114800Y-65963800D02*
X130194200Y-65043200D01*
X134388218Y-66869500D02*
X132558442Y-66869500D01*
X153441400Y-66862500D02*
X153431700Y-66852800D01*
X134404918Y-66852800D02*
X134388218Y-66869500D01*
X132558442Y-66869500D02*
X131652742Y-65963800D01*
X130194200Y-65043200D02*
X129235200Y-65043200D01*
X131652742Y-65963800D02*
X131114800Y-65963800D01*
%TO.N,m1_vl*%
X155194000Y-64075500D02*
X155236100Y-64033400D01*
X131147986Y-62711686D02*
X131479682Y-62711686D01*
X153177412Y-63568000D02*
X154686500Y-63568000D01*
X152957012Y-63347600D02*
X153177412Y-63568000D01*
X127939800Y-59503500D02*
X131147986Y-62711686D01*
X131479682Y-62711686D02*
X132115596Y-63347600D01*
X132115596Y-63347600D02*
X152957012Y-63347600D01*
X154686500Y-63568000D02*
X155194000Y-64075500D01*
%TO.N,m1_wh*%
X132588000Y-66294000D02*
X131851400Y-65557400D01*
X131648200Y-65557400D02*
X130488500Y-64397700D01*
X131851400Y-65557400D02*
X131648200Y-65557400D01*
X153955819Y-66116200D02*
X151106388Y-66116200D01*
X134994622Y-66369500D02*
X134919122Y-66294000D01*
X154542492Y-66702873D02*
X153955819Y-66116200D01*
X151106388Y-66116200D02*
X150853088Y-66369500D01*
X134919122Y-66294000D02*
X132588000Y-66294000D01*
X130488500Y-64397700D02*
X128422400Y-64397700D01*
X150853088Y-66369500D02*
X134994622Y-66369500D01*
%TO.N,m1_wl*%
X129990697Y-62052200D02*
X131002183Y-63063686D01*
X131333878Y-63063686D02*
X131969792Y-63699600D01*
X128676400Y-62052200D02*
X129990697Y-62052200D01*
X152674600Y-63699600D02*
X153416000Y-64441000D01*
X131002183Y-63063686D02*
X131333878Y-63063686D01*
X131969792Y-63699600D02*
X152674600Y-63699600D01*
D24*
%TO.N,Net-(U1-EN)*%
X160274000Y-62484000D02*
X159590000Y-61800000D01*
X151115274Y-88152726D02*
X154254200Y-85013800D01*
X160274000Y-65024000D02*
X160274000Y-62484000D01*
X154254200Y-75336400D02*
X154305000Y-75285600D01*
X155367120Y-67056000D02*
X158242000Y-67056000D01*
X158242000Y-67056000D02*
X160274000Y-65024000D01*
X159590000Y-61800000D02*
X158890000Y-61800000D01*
X154254200Y-85013800D02*
X154254200Y-75336400D01*
X153984620Y-68438500D02*
X155367120Y-67056000D01*
X151024197Y-88152726D02*
X151115274Y-88152726D01*
D23*
%TO.N,m1_current_sense_w*%
X129843107Y-57633264D02*
X129843107Y-60861881D01*
X152601412Y-62992000D02*
X153685412Y-61908000D01*
X157251400Y-63246000D02*
X157734000Y-63246000D01*
X131625486Y-62359686D02*
X132257800Y-62992000D01*
X153685412Y-61908000D02*
X155913400Y-61908000D01*
X132257800Y-62992000D02*
X152601412Y-62992000D01*
X129843107Y-60861881D02*
X131340912Y-62359686D01*
X129908326Y-57568045D02*
X129843107Y-57633264D01*
X155913400Y-61908000D02*
X157251400Y-63246000D01*
X131340912Y-62359686D02*
X131625486Y-62359686D01*
D25*
%TO.N,gpio8*%
X155194000Y-74735500D02*
X155067500Y-74609000D01*
D24*
X177800000Y-78740000D02*
X180721000Y-78740000D01*
D25*
X155067500Y-74609000D02*
X153685827Y-74609000D01*
X151638000Y-76656827D02*
X151638000Y-82550000D01*
D24*
X174752000Y-75692000D02*
X177800000Y-78740000D01*
D25*
X153685827Y-74609000D02*
X151638000Y-76656827D01*
D24*
%TO.N,gpio38*%
X176390000Y-70690000D02*
X176530000Y-70830000D01*
D25*
X178907500Y-79502000D02*
X178653500Y-79756000D01*
X165608000Y-86868000D02*
X162560000Y-86868000D01*
X152482000Y-74086000D02*
X149860000Y-76708000D01*
X154990800Y-79298800D02*
X154990800Y-75946000D01*
X178653500Y-79756000D02*
X172720000Y-79756000D01*
X162560000Y-86868000D02*
X154990800Y-79298800D01*
D24*
X178054000Y-76200000D02*
X180975000Y-76200000D01*
D25*
X155844000Y-74466261D02*
X155463739Y-74086000D01*
D24*
X176530000Y-74676000D02*
X178054000Y-76200000D01*
D25*
X155463739Y-74086000D02*
X152482000Y-74086000D01*
D24*
X176530000Y-70830000D02*
X176530000Y-74676000D01*
D25*
X172720000Y-79756000D02*
X165608000Y-86868000D01*
X149860000Y-76708000D02*
X149860000Y-80010000D01*
X154990800Y-75946000D02*
X155844000Y-75092800D01*
X155844000Y-75092800D02*
X155844000Y-74466261D01*
%TD*%
%TA.AperFunction,Conductor*%
%TO.N,+5V*%
G36*
X159539995Y-84347685D02*
G01*
X159560637Y-84364319D01*
X162277361Y-87081043D01*
X162293489Y-87100903D01*
X162298563Y-87108670D01*
X162321469Y-87126498D01*
X162332488Y-87136228D01*
X162332690Y-87136372D01*
X162332693Y-87136375D01*
X162348332Y-87147540D01*
X162352445Y-87150606D01*
X162389829Y-87179704D01*
X162396770Y-87185106D01*
X162403933Y-87187238D01*
X162403934Y-87187239D01*
X162450612Y-87201135D01*
X162455438Y-87202681D01*
X162501512Y-87218500D01*
X162501514Y-87218500D01*
X162508577Y-87220925D01*
X162516043Y-87220616D01*
X162516046Y-87220617D01*
X162564668Y-87218605D01*
X162569792Y-87218500D01*
X164194238Y-87218500D01*
X164261277Y-87238185D01*
X164307032Y-87290989D01*
X164316976Y-87360146D01*
X164294352Y-87517500D01*
X164299927Y-87556271D01*
X164289983Y-87625430D01*
X164264870Y-87661598D01*
X163958476Y-87967992D01*
X163939692Y-87983409D01*
X163926756Y-87992053D01*
X163911353Y-88015103D01*
X163911340Y-88015122D01*
X163911330Y-88015139D01*
X163911329Y-88015141D01*
X163877672Y-88065512D01*
X163866059Y-88082892D01*
X163812446Y-88127696D01*
X163762957Y-88138000D01*
X161534793Y-88138000D01*
X161467754Y-88118315D01*
X161441080Y-88095202D01*
X161367129Y-88009858D01*
X161367128Y-88009857D01*
X161246053Y-87932047D01*
X161107961Y-87891500D01*
X160964039Y-87891500D01*
X160825947Y-87932047D01*
X160704870Y-88009858D01*
X160630920Y-88095202D01*
X160572143Y-88132977D01*
X160537207Y-88138000D01*
X158092231Y-88138000D01*
X158025192Y-88118315D01*
X157979437Y-88065511D01*
X157969493Y-87996353D01*
X157985647Y-87884000D01*
X157965165Y-87741543D01*
X157905377Y-87610627D01*
X157905376Y-87610626D01*
X157905376Y-87610625D01*
X157811129Y-87501858D01*
X157811128Y-87501857D01*
X157690053Y-87424047D01*
X157551961Y-87383500D01*
X157408039Y-87383500D01*
X157269947Y-87424047D01*
X157148870Y-87501858D01*
X157054623Y-87610625D01*
X156994834Y-87741542D01*
X156977138Y-87864627D01*
X156974353Y-87884000D01*
X156990390Y-87995543D01*
X156990507Y-87996353D01*
X156980563Y-88065512D01*
X156934808Y-88118316D01*
X156867769Y-88138000D01*
X155299094Y-88138000D01*
X155232055Y-88118315D01*
X155186300Y-88065511D01*
X155176356Y-88031647D01*
X155171165Y-87995542D01*
X155111376Y-87864625D01*
X155017129Y-87755858D01*
X155017128Y-87755857D01*
X154896053Y-87678047D01*
X154757961Y-87637500D01*
X154614039Y-87637500D01*
X154475947Y-87678047D01*
X154354870Y-87755858D01*
X154260623Y-87864625D01*
X154200834Y-87995542D01*
X154195644Y-88031647D01*
X154166619Y-88095202D01*
X154107841Y-88132977D01*
X154072906Y-88138000D01*
X152445362Y-88138000D01*
X152378323Y-88118315D01*
X152332568Y-88065511D01*
X152322624Y-87996353D01*
X152351649Y-87932797D01*
X152357681Y-87926319D01*
X153202957Y-87081043D01*
X154686000Y-85598000D01*
X154897664Y-84539681D01*
X154920064Y-84427682D01*
X154952514Y-84365804D01*
X155013266Y-84331294D01*
X155041656Y-84328000D01*
X159472956Y-84328000D01*
X159539995Y-84347685D01*
G37*
%TD.AperFunction*%
%TA.AperFunction,Conductor*%
G36*
X165678662Y-84347685D02*
G01*
X165705336Y-84370798D01*
X165767006Y-84441970D01*
X165767008Y-84441971D01*
X165767009Y-84441972D01*
X165888084Y-84519782D01*
X166026176Y-84560329D01*
X166170098Y-84560329D01*
X166308190Y-84519782D01*
X166429265Y-84441972D01*
X166429267Y-84441970D01*
X166490938Y-84370798D01*
X166549716Y-84333023D01*
X166584651Y-84328000D01*
X167352956Y-84328000D01*
X167419995Y-84347685D01*
X167465750Y-84400489D01*
X167475694Y-84469647D01*
X167446669Y-84533203D01*
X167440637Y-84539681D01*
X165499137Y-86481181D01*
X165437814Y-86514666D01*
X165411456Y-86517500D01*
X162756544Y-86517500D01*
X162689505Y-86497815D01*
X162668863Y-86481181D01*
X160727363Y-84539681D01*
X160693878Y-84478358D01*
X160698862Y-84408666D01*
X160740734Y-84352733D01*
X160806198Y-84328316D01*
X160815044Y-84328000D01*
X165611623Y-84328000D01*
X165678662Y-84347685D01*
G37*
%TD.AperFunction*%
%TA.AperFunction,Conductor*%
G36*
X170123039Y-84347685D02*
G01*
X170168794Y-84400489D01*
X170180000Y-84452000D01*
X170180000Y-88014000D01*
X170160315Y-88081039D01*
X170107511Y-88126794D01*
X170056000Y-88138000D01*
X168138793Y-88138000D01*
X168071754Y-88118315D01*
X168045080Y-88095202D01*
X167971129Y-88009858D01*
X167971128Y-88009857D01*
X167850053Y-87932047D01*
X167711961Y-87891500D01*
X167568039Y-87891500D01*
X167429947Y-87932047D01*
X167308870Y-88009858D01*
X167234920Y-88095202D01*
X167176143Y-88132977D01*
X167141207Y-88138000D01*
X165182543Y-88138000D01*
X165115504Y-88118315D01*
X165069749Y-88065511D01*
X165059805Y-87996353D01*
X165088830Y-87932797D01*
X165115504Y-87909684D01*
X165116453Y-87909073D01*
X165131128Y-87899643D01*
X165225377Y-87790873D01*
X165285165Y-87659957D01*
X165305647Y-87517500D01*
X165292211Y-87424047D01*
X165283024Y-87360146D01*
X165292968Y-87290988D01*
X165338723Y-87238184D01*
X165405762Y-87218500D01*
X165558788Y-87218500D01*
X165584234Y-87221139D01*
X165585556Y-87221416D01*
X165593315Y-87223043D01*
X165619364Y-87219795D01*
X165622123Y-87219452D01*
X165636795Y-87218541D01*
X165656013Y-87215334D01*
X165661069Y-87214596D01*
X165709393Y-87208573D01*
X165709394Y-87208572D01*
X165716808Y-87207648D01*
X165723378Y-87204092D01*
X165723381Y-87204092D01*
X165766201Y-87180918D01*
X165770747Y-87178577D01*
X165814484Y-87157198D01*
X165814486Y-87157195D01*
X165821195Y-87153916D01*
X165826254Y-87148419D01*
X165826258Y-87148418D01*
X165859254Y-87112572D01*
X165862756Y-87108924D01*
X168607362Y-84364318D01*
X168668685Y-84330834D01*
X168695043Y-84328000D01*
X170056000Y-84328000D01*
X170123039Y-84347685D01*
G37*
%TD.AperFunction*%
%TD*%
M02*
