M48
; DRILL file {KiCad 7.0.2} date Tue May 16 16:20:00 2023
; FORMAT={-:-/ absolute / inch / decimal}
; #@! TF.CreationDate,2023-05-16T16:20:00-04:00
; #@! TF.GenerationSoftware,Kicad,Pcbnew,7.0.2
; #@! TF.FileFunction,Plated,1,4,PTH
FMAT,2
INCH
; #@! TA.AperFunction,Plated,PTH,ViaDrill
T1C0.0118
; #@! TA.AperFunction,Plated,PTH,ComponentDrill
T2C0.0118
; #@! TA.AperFunction,Plated,PTH,ViaDrill
T3C0.0157
; #@! TA.AperFunction,Plated,PTH,ComponentDrill
T4C0.0236
; #@! TA.AperFunction,Plated,PTH,ComponentDrill
T5C0.0275
; #@! TA.AperFunction,Plated,PTH,ComponentDrill
T6C0.0315
; #@! TA.AperFunction,Plated,PTH,ComponentDrill
T7C0.0400
; #@! TA.AperFunction,Plated,PTH,ComponentDrill
T8C0.0787
%
G90
G05
T1
X4.6765Y-3.4425
X4.68Y-2.454
X4.7101Y-3.4348
X4.7137Y-2.4463
X4.8285Y-3.4205
X4.8285Y-3.4525
X4.832Y-2.432
X4.832Y-2.464
X4.8636Y-3.5453
X4.887Y-2.659
X4.8942Y-3.4369
X4.8957Y-3.3534
X4.8977Y-2.4484
X4.8993Y-2.3649
X4.9331Y-3.2822
X4.95Y-2.3
X4.9584Y-3.307
X4.97Y-2.27
X4.99Y-3.2888
X5.0041Y-2.3427
X5.0166Y-3.1698
X5.018Y-2.663
X5.0241Y-2.89
X5.026Y-3.124
X5.03Y-3.5994
X5.037Y-2.3427
X5.037Y-2.478
X5.0422Y-3.2821
X5.051Y-2.5834
X5.056Y-2.5353
X5.066Y-2.443
X5.07Y-2.3
X5.0708Y-3.6126
X5.088Y-2.5608
X5.09Y-2.89
X5.0953Y-2.4913
X5.0956Y-3.5326
X5.1145Y-2.2665
X5.131Y-3.5395
X5.14Y-2.66
X5.162Y-3.534
X5.1803Y-2.4324
X5.1858Y-2.6438
X5.188Y-3.497
X5.1901Y-3.3101
X5.2279Y-2.5821
X5.255Y-2.5394
X5.2909Y-2.6327
X5.3241Y-2.5903
X5.3791Y-2.6091
X5.421Y-3.169
X5.4241Y-2.5865
X5.4411Y-3.2211
X5.449Y-3.103
X5.47Y-3.26
X5.497Y-3.133
X5.498Y-3.301
X5.5065Y-3.1915
X5.5154Y-2.6968
X5.527Y-2.884
X5.5273Y-2.9406
X5.53Y-2.59
X5.5361Y-3.2261
X5.56Y-3.02
X5.561Y-3.58
X5.5703Y-2.6952
X5.5876Y-2.9441
X5.6171Y-2.83
X5.659Y-3.397
X5.66Y-3.35
X5.66Y-3.44
X5.67Y-2.89
X5.697Y-2.692
X5.71Y-2.96
X5.7161Y-2.8672
X5.75Y-3.0
X5.7609Y-2.8913
X5.77Y-2.45
X5.78Y-2.94
X5.81Y-2.98
X5.84Y-2.66
X5.8445Y-2.4409
X5.87Y-2.59
X5.87Y-2.6603
X5.9Y-2.66
X5.9Y-3.15
X5.91Y-2.37
X5.91Y-2.44
X5.93Y-2.59
X5.9458Y-3.4706
X5.95Y-2.93
X5.97Y-3.25
X6.01Y-3.46
X6.034Y-2.67
X6.04Y-2.48
X6.04Y-2.537
X6.041Y-2.6324
X6.0624Y-2.6944
X6.075Y-2.964
X6.0844Y-2.6261
X6.09Y-3.47
X6.09Y-3.71
X6.11Y-2.46
X6.11Y-2.5227
X6.11Y-2.9423
X6.11Y-3.33
X6.13Y-2.616
X6.1339Y-3.0906
X6.136Y-3.1199
X6.1373Y-3.031
X6.1373Y-3.059
X6.1487Y-2.9893
X6.15Y-3.46
X6.1681Y-3.1519
X6.17Y-2.37
X6.177Y-2.961
X6.186Y-2.613
X6.1965Y-3.04
X6.1965Y-3.069
X6.1976Y-3.1814
X6.1993Y-3.0977
X6.2Y-3.325
X6.2Y-3.46
X6.203Y-2.931
X6.2075Y-3.0145
X6.21Y-2.49
X6.2238Y-3.1222
X6.2331Y-3.2169
X6.24Y-3.3
X6.2483Y-3.1467
X6.2555Y-2.3331
X6.2555Y-2.4331
X6.2616Y-3.2454
X6.277Y-3.175
X6.2876Y-3.2714
X6.312Y-3.207
X6.3157Y-3.2996
X6.32Y-3.45
X6.336Y-3.23
X6.34Y-3.48
X6.36Y-3.19
X6.363Y-3.255
X6.42Y-2.98
X6.4617Y-3.493
X6.47Y-2.98
X6.47Y-3.33
X6.4882Y-3.4456
X6.52Y-2.98
X6.5393Y-3.3094
X6.57Y-2.98
X6.6Y-3.48
X6.62Y-2.98
X6.63Y-3.45
X6.6354Y-3.1383
X6.66Y-3.34
X6.67Y-2.98
X6.69Y-3.41
X6.7033Y-3.1383
X6.72Y-2.98
X6.75Y-3.46
X6.77Y-2.98
X6.82Y-2.98
X6.83Y-2.3595
X6.8422Y-3.2545
X6.88Y-2.98
X6.89Y-2.83
X6.89Y-2.88
X6.89Y-2.93
X6.89Y-3.21
X6.8911Y-3.1727
X6.9445Y-2.4331
X6.9445Y-2.7831
X6.96Y-3.47
X7.0436Y-3.13
T2
X4.9366Y-3.3797
X4.9366Y-3.4112
X4.9402Y-2.3912
X4.9402Y-2.4227
X4.972Y-3.3797
X4.972Y-3.4112
X4.9757Y-2.3912
X4.9757Y-2.4227
T3
X4.9428Y-2.5604
X6.4856Y-2.5826
X6.4858Y-2.637
X6.4858Y-2.6921
X6.5409Y-2.5819
X6.5409Y-2.637
X6.5409Y-2.6921
X6.5961Y-2.5819
X6.5961Y-2.637
X6.5961Y-2.6921
X6.9462Y-2.3339
T5
X4.607Y-3.15
X4.6096Y-2.8367
X4.6857Y-3.15
X4.6883Y-2.8367
X4.7644Y-3.15
X4.767Y-2.8367
X4.8431Y-3.15
X4.8457Y-2.8367
X4.9218Y-3.15
X4.9244Y-2.8367
T6
X5.4364Y-2.405
X5.5742Y-2.405
T7
X4.5738Y-3.2985
X4.5738Y-3.4985
X4.577Y-2.31
X4.577Y-2.51
X4.5838Y-3.3985
X4.587Y-2.41
X7.11Y-2.6
X7.11Y-2.8
X7.11Y-3.0
X7.11Y-3.2
X7.11Y-3.4
X7.12Y-2.7
X7.12Y-2.9
X7.12Y-3.1
X7.12Y-3.3
X7.125Y-2.343
X7.125Y-2.457
T8
X5.312Y-2.1585
X5.7057Y-2.1585
T4
G00X6.25Y-3.5638
M15
G01X6.25Y-3.5953
M16
G05
G00X6.25Y-3.7134
M15
G01X6.25Y-3.7606
M16
G05
G00X6.6925Y-3.5638
M15
G01X6.6925Y-3.5953
M16
G05
G00X6.6925Y-3.7134
M15
G01X6.6925Y-3.7606
M16
G05
T0
M30
