%TF.GenerationSoftware,KiCad,Pcbnew,7.0.2*%
%TF.CreationDate,2023-05-16T16:20:19-04:00*%
%TF.ProjectId,mini_motor_go,6d696e69-5f6d-46f7-946f-725f676f2e6b,rev?*%
%TF.SameCoordinates,Original*%
%TF.FileFunction,Legend,Top*%
%TF.FilePolarity,Positive*%
%FSLAX46Y46*%
G04 Gerber Fmt 4.6, Leading zero omitted, Abs format (unit mm)*
G04 Created by KiCad (PCBNEW 7.0.2) date 2023-05-16 16:20:19*
%MOMM*%
%LPD*%
G01*
G04 APERTURE LIST*
%ADD10C,0.200000*%
%ADD11C,0.150000*%
%ADD12C,0.254000*%
%ADD13C,0.127000*%
%ADD14C,0.120000*%
%ADD15C,0.203200*%
%ADD16C,0.100000*%
%ADD17C,0.398780*%
G04 APERTURE END LIST*
D10*
X160805714Y-52418428D02*
X160805714Y-53489857D01*
X160805714Y-53489857D02*
X160734285Y-53704142D01*
X160734285Y-53704142D02*
X160591428Y-53847000D01*
X160591428Y-53847000D02*
X160377142Y-53918428D01*
X160377142Y-53918428D02*
X160234285Y-53918428D01*
X162234285Y-53918428D02*
X161519999Y-53918428D01*
X161519999Y-53918428D02*
X161519999Y-52418428D01*
X163591428Y-53775571D02*
X163520000Y-53847000D01*
X163520000Y-53847000D02*
X163305714Y-53918428D01*
X163305714Y-53918428D02*
X163162857Y-53918428D01*
X163162857Y-53918428D02*
X162948571Y-53847000D01*
X162948571Y-53847000D02*
X162805714Y-53704142D01*
X162805714Y-53704142D02*
X162734285Y-53561285D01*
X162734285Y-53561285D02*
X162662857Y-53275571D01*
X162662857Y-53275571D02*
X162662857Y-53061285D01*
X162662857Y-53061285D02*
X162734285Y-52775571D01*
X162734285Y-52775571D02*
X162805714Y-52632714D01*
X162805714Y-52632714D02*
X162948571Y-52489857D01*
X162948571Y-52489857D02*
X163162857Y-52418428D01*
X163162857Y-52418428D02*
X163305714Y-52418428D01*
X163305714Y-52418428D02*
X163520000Y-52489857D01*
X163520000Y-52489857D02*
X163591428Y-52561285D01*
X164662857Y-52418428D02*
X164662857Y-53489857D01*
X164662857Y-53489857D02*
X164591428Y-53704142D01*
X164591428Y-53704142D02*
X164448571Y-53847000D01*
X164448571Y-53847000D02*
X164234285Y-53918428D01*
X164234285Y-53918428D02*
X164091428Y-53918428D01*
X166091428Y-53918428D02*
X165377142Y-53918428D01*
X165377142Y-53918428D02*
X165377142Y-52418428D01*
X167448571Y-53775571D02*
X167377143Y-53847000D01*
X167377143Y-53847000D02*
X167162857Y-53918428D01*
X167162857Y-53918428D02*
X167020000Y-53918428D01*
X167020000Y-53918428D02*
X166805714Y-53847000D01*
X166805714Y-53847000D02*
X166662857Y-53704142D01*
X166662857Y-53704142D02*
X166591428Y-53561285D01*
X166591428Y-53561285D02*
X166520000Y-53275571D01*
X166520000Y-53275571D02*
X166520000Y-53061285D01*
X166520000Y-53061285D02*
X166591428Y-52775571D01*
X166591428Y-52775571D02*
X166662857Y-52632714D01*
X166662857Y-52632714D02*
X166805714Y-52489857D01*
X166805714Y-52489857D02*
X167020000Y-52418428D01*
X167020000Y-52418428D02*
X167162857Y-52418428D01*
X167162857Y-52418428D02*
X167377143Y-52489857D01*
X167377143Y-52489857D02*
X167448571Y-52561285D01*
X168520000Y-52418428D02*
X168520000Y-53489857D01*
X168520000Y-53489857D02*
X168448571Y-53704142D01*
X168448571Y-53704142D02*
X168305714Y-53847000D01*
X168305714Y-53847000D02*
X168091428Y-53918428D01*
X168091428Y-53918428D02*
X167948571Y-53918428D01*
X169948571Y-53918428D02*
X169234285Y-53918428D01*
X169234285Y-53918428D02*
X169234285Y-52418428D01*
X171305714Y-53775571D02*
X171234286Y-53847000D01*
X171234286Y-53847000D02*
X171020000Y-53918428D01*
X171020000Y-53918428D02*
X170877143Y-53918428D01*
X170877143Y-53918428D02*
X170662857Y-53847000D01*
X170662857Y-53847000D02*
X170520000Y-53704142D01*
X170520000Y-53704142D02*
X170448571Y-53561285D01*
X170448571Y-53561285D02*
X170377143Y-53275571D01*
X170377143Y-53275571D02*
X170377143Y-53061285D01*
X170377143Y-53061285D02*
X170448571Y-52775571D01*
X170448571Y-52775571D02*
X170520000Y-52632714D01*
X170520000Y-52632714D02*
X170662857Y-52489857D01*
X170662857Y-52489857D02*
X170877143Y-52418428D01*
X170877143Y-52418428D02*
X171020000Y-52418428D01*
X171020000Y-52418428D02*
X171234286Y-52489857D01*
X171234286Y-52489857D02*
X171305714Y-52561285D01*
X172377143Y-52418428D02*
X172377143Y-53489857D01*
X172377143Y-53489857D02*
X172305714Y-53704142D01*
X172305714Y-53704142D02*
X172162857Y-53847000D01*
X172162857Y-53847000D02*
X171948571Y-53918428D01*
X171948571Y-53918428D02*
X171805714Y-53918428D01*
X173805714Y-53918428D02*
X173091428Y-53918428D01*
X173091428Y-53918428D02*
X173091428Y-52418428D01*
X175162857Y-53775571D02*
X175091429Y-53847000D01*
X175091429Y-53847000D02*
X174877143Y-53918428D01*
X174877143Y-53918428D02*
X174734286Y-53918428D01*
X174734286Y-53918428D02*
X174520000Y-53847000D01*
X174520000Y-53847000D02*
X174377143Y-53704142D01*
X174377143Y-53704142D02*
X174305714Y-53561285D01*
X174305714Y-53561285D02*
X174234286Y-53275571D01*
X174234286Y-53275571D02*
X174234286Y-53061285D01*
X174234286Y-53061285D02*
X174305714Y-52775571D01*
X174305714Y-52775571D02*
X174377143Y-52632714D01*
X174377143Y-52632714D02*
X174520000Y-52489857D01*
X174520000Y-52489857D02*
X174734286Y-52418428D01*
X174734286Y-52418428D02*
X174877143Y-52418428D01*
X174877143Y-52418428D02*
X175091429Y-52489857D01*
X175091429Y-52489857D02*
X175162857Y-52561285D01*
D11*
X132737031Y-78740000D02*
X132737031Y-78994000D01*
X134112000Y-79248000D02*
X134112000Y-78994000D01*
X131318000Y-78994000D02*
X131318000Y-79248000D01*
X130048000Y-78994000D02*
X131318000Y-78994000D01*
X134112000Y-78994000D02*
X134112000Y-79248000D01*
X128778000Y-78994000D02*
X135636000Y-78994000D01*
X132737031Y-78994000D02*
X132737031Y-78740000D01*
X130048000Y-78740000D02*
X130048000Y-78994000D01*
X131318000Y-79248000D02*
X131318000Y-78994000D01*
X135636000Y-78994000D02*
X135636000Y-78740000D01*
X126965640Y-77809090D02*
X128778000Y-78994000D01*
X131133048Y-80381064D02*
X131037810Y-80419159D01*
X131037810Y-80419159D02*
X130847334Y-80419159D01*
X130847334Y-80419159D02*
X130752096Y-80381064D01*
X130752096Y-80381064D02*
X130704477Y-80342968D01*
X130704477Y-80342968D02*
X130656858Y-80266778D01*
X130656858Y-80266778D02*
X130656858Y-80038206D01*
X130656858Y-80038206D02*
X130704477Y-79962016D01*
X130704477Y-79962016D02*
X130752096Y-79923921D01*
X130752096Y-79923921D02*
X130847334Y-79885825D01*
X130847334Y-79885825D02*
X131037810Y-79885825D01*
X131037810Y-79885825D02*
X131133048Y-79923921D01*
X131514001Y-80381064D02*
X131609239Y-80419159D01*
X131609239Y-80419159D02*
X131799715Y-80419159D01*
X131799715Y-80419159D02*
X131894953Y-80381064D01*
X131894953Y-80381064D02*
X131942572Y-80304873D01*
X131942572Y-80304873D02*
X131942572Y-80266778D01*
X131942572Y-80266778D02*
X131894953Y-80190587D01*
X131894953Y-80190587D02*
X131799715Y-80152492D01*
X131799715Y-80152492D02*
X131656858Y-80152492D01*
X131656858Y-80152492D02*
X131561620Y-80114397D01*
X131561620Y-80114397D02*
X131514001Y-80038206D01*
X131514001Y-80038206D02*
X131514001Y-80000111D01*
X131514001Y-80000111D02*
X131561620Y-79923921D01*
X131561620Y-79923921D02*
X131656858Y-79885825D01*
X131656858Y-79885825D02*
X131799715Y-79885825D01*
X131799715Y-79885825D02*
X131894953Y-79923921D01*
X133085430Y-80381064D02*
X133180668Y-80419159D01*
X133180668Y-80419159D02*
X133371144Y-80419159D01*
X133371144Y-80419159D02*
X133466382Y-80381064D01*
X133466382Y-80381064D02*
X133514001Y-80304873D01*
X133514001Y-80304873D02*
X133514001Y-80266778D01*
X133514001Y-80266778D02*
X133466382Y-80190587D01*
X133466382Y-80190587D02*
X133371144Y-80152492D01*
X133371144Y-80152492D02*
X133228287Y-80152492D01*
X133228287Y-80152492D02*
X133133049Y-80114397D01*
X133133049Y-80114397D02*
X133085430Y-80038206D01*
X133085430Y-80038206D02*
X133085430Y-80000111D01*
X133085430Y-80000111D02*
X133133049Y-79923921D01*
X133133049Y-79923921D02*
X133228287Y-79885825D01*
X133228287Y-79885825D02*
X133371144Y-79885825D01*
X133371144Y-79885825D02*
X133466382Y-79923921D01*
X134371144Y-80419159D02*
X134371144Y-79619159D01*
X134371144Y-80381064D02*
X134275906Y-80419159D01*
X134275906Y-80419159D02*
X134085430Y-80419159D01*
X134085430Y-80419159D02*
X133990192Y-80381064D01*
X133990192Y-80381064D02*
X133942573Y-80342968D01*
X133942573Y-80342968D02*
X133894954Y-80266778D01*
X133894954Y-80266778D02*
X133894954Y-80038206D01*
X133894954Y-80038206D02*
X133942573Y-79962016D01*
X133942573Y-79962016D02*
X133990192Y-79923921D01*
X133990192Y-79923921D02*
X134085430Y-79885825D01*
X134085430Y-79885825D02*
X134275906Y-79885825D01*
X134275906Y-79885825D02*
X134371144Y-79923921D01*
X135275906Y-80419159D02*
X135275906Y-80000111D01*
X135275906Y-80000111D02*
X135228287Y-79923921D01*
X135228287Y-79923921D02*
X135133049Y-79885825D01*
X135133049Y-79885825D02*
X134942573Y-79885825D01*
X134942573Y-79885825D02*
X134847335Y-79923921D01*
X135275906Y-80381064D02*
X135180668Y-80419159D01*
X135180668Y-80419159D02*
X134942573Y-80419159D01*
X134942573Y-80419159D02*
X134847335Y-80381064D01*
X134847335Y-80381064D02*
X134799716Y-80304873D01*
X134799716Y-80304873D02*
X134799716Y-80228683D01*
X134799716Y-80228683D02*
X134847335Y-80152492D01*
X134847335Y-80152492D02*
X134942573Y-80114397D01*
X134942573Y-80114397D02*
X135180668Y-80114397D01*
X135180668Y-80114397D02*
X135275906Y-80076302D01*
X177941099Y-65775345D02*
X177941099Y-66308679D01*
X177703004Y-65470584D02*
X177464909Y-66042012D01*
X177464909Y-66042012D02*
X178083956Y-66042012D01*
X178417290Y-65584869D02*
X178464909Y-65546774D01*
X178464909Y-65546774D02*
X178560147Y-65508679D01*
X178560147Y-65508679D02*
X178798242Y-65508679D01*
X178798242Y-65508679D02*
X178893480Y-65546774D01*
X178893480Y-65546774D02*
X178941099Y-65584869D01*
X178941099Y-65584869D02*
X178988718Y-65661060D01*
X178988718Y-65661060D02*
X178988718Y-65737250D01*
X178988718Y-65737250D02*
X178941099Y-65851536D01*
X178941099Y-65851536D02*
X178369671Y-66308679D01*
X178369671Y-66308679D02*
X178988718Y-66308679D01*
X177941099Y-68367345D02*
X177941099Y-68900679D01*
X177703004Y-68062584D02*
X177464909Y-68634012D01*
X177464909Y-68634012D02*
X178083956Y-68634012D01*
X178988718Y-68900679D02*
X178417290Y-68900679D01*
X178703004Y-68900679D02*
X178703004Y-68100679D01*
X178703004Y-68100679D02*
X178607766Y-68214964D01*
X178607766Y-68214964D02*
X178512528Y-68291155D01*
X178512528Y-68291155D02*
X178417290Y-68329250D01*
X177941099Y-70959345D02*
X177941099Y-71492679D01*
X177703004Y-70654584D02*
X177464909Y-71226012D01*
X177464909Y-71226012D02*
X178083956Y-71226012D01*
X178655385Y-70692679D02*
X178750623Y-70692679D01*
X178750623Y-70692679D02*
X178845861Y-70730774D01*
X178845861Y-70730774D02*
X178893480Y-70768869D01*
X178893480Y-70768869D02*
X178941099Y-70845060D01*
X178941099Y-70845060D02*
X178988718Y-70997441D01*
X178988718Y-70997441D02*
X178988718Y-71187917D01*
X178988718Y-71187917D02*
X178941099Y-71340298D01*
X178941099Y-71340298D02*
X178893480Y-71416488D01*
X178893480Y-71416488D02*
X178845861Y-71454584D01*
X178845861Y-71454584D02*
X178750623Y-71492679D01*
X178750623Y-71492679D02*
X178655385Y-71492679D01*
X178655385Y-71492679D02*
X178560147Y-71454584D01*
X178560147Y-71454584D02*
X178512528Y-71416488D01*
X178512528Y-71416488D02*
X178464909Y-71340298D01*
X178464909Y-71340298D02*
X178417290Y-71187917D01*
X178417290Y-71187917D02*
X178417290Y-70997441D01*
X178417290Y-70997441D02*
X178464909Y-70845060D01*
X178464909Y-70845060D02*
X178512528Y-70768869D01*
X178512528Y-70768869D02*
X178560147Y-70730774D01*
X178560147Y-70730774D02*
X178655385Y-70692679D01*
X177417290Y-73284679D02*
X178036337Y-73284679D01*
X178036337Y-73284679D02*
X177703004Y-73589441D01*
X177703004Y-73589441D02*
X177845861Y-73589441D01*
X177845861Y-73589441D02*
X177941099Y-73627536D01*
X177941099Y-73627536D02*
X177988718Y-73665631D01*
X177988718Y-73665631D02*
X178036337Y-73741822D01*
X178036337Y-73741822D02*
X178036337Y-73932298D01*
X178036337Y-73932298D02*
X177988718Y-74008488D01*
X177988718Y-74008488D02*
X177941099Y-74046584D01*
X177941099Y-74046584D02*
X177845861Y-74084679D01*
X177845861Y-74084679D02*
X177560147Y-74084679D01*
X177560147Y-74084679D02*
X177464909Y-74046584D01*
X177464909Y-74046584D02*
X177417290Y-74008488D01*
X178512528Y-74084679D02*
X178703004Y-74084679D01*
X178703004Y-74084679D02*
X178798242Y-74046584D01*
X178798242Y-74046584D02*
X178845861Y-74008488D01*
X178845861Y-74008488D02*
X178941099Y-73894203D01*
X178941099Y-73894203D02*
X178988718Y-73741822D01*
X178988718Y-73741822D02*
X178988718Y-73437060D01*
X178988718Y-73437060D02*
X178941099Y-73360869D01*
X178941099Y-73360869D02*
X178893480Y-73322774D01*
X178893480Y-73322774D02*
X178798242Y-73284679D01*
X178798242Y-73284679D02*
X178607766Y-73284679D01*
X178607766Y-73284679D02*
X178512528Y-73322774D01*
X178512528Y-73322774D02*
X178464909Y-73360869D01*
X178464909Y-73360869D02*
X178417290Y-73437060D01*
X178417290Y-73437060D02*
X178417290Y-73627536D01*
X178417290Y-73627536D02*
X178464909Y-73703726D01*
X178464909Y-73703726D02*
X178512528Y-73741822D01*
X178512528Y-73741822D02*
X178607766Y-73779917D01*
X178607766Y-73779917D02*
X178798242Y-73779917D01*
X178798242Y-73779917D02*
X178893480Y-73741822D01*
X178893480Y-73741822D02*
X178941099Y-73703726D01*
X178941099Y-73703726D02*
X178988718Y-73627536D01*
X177417290Y-75876679D02*
X178036337Y-75876679D01*
X178036337Y-75876679D02*
X177703004Y-76181441D01*
X177703004Y-76181441D02*
X177845861Y-76181441D01*
X177845861Y-76181441D02*
X177941099Y-76219536D01*
X177941099Y-76219536D02*
X177988718Y-76257631D01*
X177988718Y-76257631D02*
X178036337Y-76333822D01*
X178036337Y-76333822D02*
X178036337Y-76524298D01*
X178036337Y-76524298D02*
X177988718Y-76600488D01*
X177988718Y-76600488D02*
X177941099Y-76638584D01*
X177941099Y-76638584D02*
X177845861Y-76676679D01*
X177845861Y-76676679D02*
X177560147Y-76676679D01*
X177560147Y-76676679D02*
X177464909Y-76638584D01*
X177464909Y-76638584D02*
X177417290Y-76600488D01*
X178607766Y-76219536D02*
X178512528Y-76181441D01*
X178512528Y-76181441D02*
X178464909Y-76143345D01*
X178464909Y-76143345D02*
X178417290Y-76067155D01*
X178417290Y-76067155D02*
X178417290Y-76029060D01*
X178417290Y-76029060D02*
X178464909Y-75952869D01*
X178464909Y-75952869D02*
X178512528Y-75914774D01*
X178512528Y-75914774D02*
X178607766Y-75876679D01*
X178607766Y-75876679D02*
X178798242Y-75876679D01*
X178798242Y-75876679D02*
X178893480Y-75914774D01*
X178893480Y-75914774D02*
X178941099Y-75952869D01*
X178941099Y-75952869D02*
X178988718Y-76029060D01*
X178988718Y-76029060D02*
X178988718Y-76067155D01*
X178988718Y-76067155D02*
X178941099Y-76143345D01*
X178941099Y-76143345D02*
X178893480Y-76181441D01*
X178893480Y-76181441D02*
X178798242Y-76219536D01*
X178798242Y-76219536D02*
X178607766Y-76219536D01*
X178607766Y-76219536D02*
X178512528Y-76257631D01*
X178512528Y-76257631D02*
X178464909Y-76295726D01*
X178464909Y-76295726D02*
X178417290Y-76371917D01*
X178417290Y-76371917D02*
X178417290Y-76524298D01*
X178417290Y-76524298D02*
X178464909Y-76600488D01*
X178464909Y-76600488D02*
X178512528Y-76638584D01*
X178512528Y-76638584D02*
X178607766Y-76676679D01*
X178607766Y-76676679D02*
X178798242Y-76676679D01*
X178798242Y-76676679D02*
X178893480Y-76638584D01*
X178893480Y-76638584D02*
X178941099Y-76600488D01*
X178941099Y-76600488D02*
X178988718Y-76524298D01*
X178988718Y-76524298D02*
X178988718Y-76371917D01*
X178988718Y-76371917D02*
X178941099Y-76295726D01*
X178941099Y-76295726D02*
X178893480Y-76257631D01*
X178893480Y-76257631D02*
X178798242Y-76219536D01*
X177655385Y-78811536D02*
X177560147Y-78773441D01*
X177560147Y-78773441D02*
X177512528Y-78735345D01*
X177512528Y-78735345D02*
X177464909Y-78659155D01*
X177464909Y-78659155D02*
X177464909Y-78621060D01*
X177464909Y-78621060D02*
X177512528Y-78544869D01*
X177512528Y-78544869D02*
X177560147Y-78506774D01*
X177560147Y-78506774D02*
X177655385Y-78468679D01*
X177655385Y-78468679D02*
X177845861Y-78468679D01*
X177845861Y-78468679D02*
X177941099Y-78506774D01*
X177941099Y-78506774D02*
X177988718Y-78544869D01*
X177988718Y-78544869D02*
X178036337Y-78621060D01*
X178036337Y-78621060D02*
X178036337Y-78659155D01*
X178036337Y-78659155D02*
X177988718Y-78735345D01*
X177988718Y-78735345D02*
X177941099Y-78773441D01*
X177941099Y-78773441D02*
X177845861Y-78811536D01*
X177845861Y-78811536D02*
X177655385Y-78811536D01*
X177655385Y-78811536D02*
X177560147Y-78849631D01*
X177560147Y-78849631D02*
X177512528Y-78887726D01*
X177512528Y-78887726D02*
X177464909Y-78963917D01*
X177464909Y-78963917D02*
X177464909Y-79116298D01*
X177464909Y-79116298D02*
X177512528Y-79192488D01*
X177512528Y-79192488D02*
X177560147Y-79230584D01*
X177560147Y-79230584D02*
X177655385Y-79268679D01*
X177655385Y-79268679D02*
X177845861Y-79268679D01*
X177845861Y-79268679D02*
X177941099Y-79230584D01*
X177941099Y-79230584D02*
X177988718Y-79192488D01*
X177988718Y-79192488D02*
X178036337Y-79116298D01*
X178036337Y-79116298D02*
X178036337Y-78963917D01*
X178036337Y-78963917D02*
X177988718Y-78887726D01*
X177988718Y-78887726D02*
X177941099Y-78849631D01*
X177941099Y-78849631D02*
X177845861Y-78811536D01*
X177941099Y-81327345D02*
X177941099Y-81974964D01*
X177941099Y-81974964D02*
X177893480Y-82051155D01*
X177893480Y-82051155D02*
X177845861Y-82089250D01*
X177845861Y-82089250D02*
X177750623Y-82127345D01*
X177750623Y-82127345D02*
X177607766Y-82127345D01*
X177607766Y-82127345D02*
X177512528Y-82089250D01*
X177941099Y-81822584D02*
X177845861Y-81860679D01*
X177845861Y-81860679D02*
X177655385Y-81860679D01*
X177655385Y-81860679D02*
X177560147Y-81822584D01*
X177560147Y-81822584D02*
X177512528Y-81784488D01*
X177512528Y-81784488D02*
X177464909Y-81708298D01*
X177464909Y-81708298D02*
X177464909Y-81479726D01*
X177464909Y-81479726D02*
X177512528Y-81403536D01*
X177512528Y-81403536D02*
X177560147Y-81365441D01*
X177560147Y-81365441D02*
X177655385Y-81327345D01*
X177655385Y-81327345D02*
X177845861Y-81327345D01*
X177845861Y-81327345D02*
X177941099Y-81365441D01*
X177988718Y-83652679D02*
X177512528Y-83652679D01*
X177512528Y-83652679D02*
X177464909Y-84033631D01*
X177464909Y-84033631D02*
X177512528Y-83995536D01*
X177512528Y-83995536D02*
X177607766Y-83957441D01*
X177607766Y-83957441D02*
X177845861Y-83957441D01*
X177845861Y-83957441D02*
X177941099Y-83995536D01*
X177941099Y-83995536D02*
X177988718Y-84033631D01*
X177988718Y-84033631D02*
X178036337Y-84109822D01*
X178036337Y-84109822D02*
X178036337Y-84300298D01*
X178036337Y-84300298D02*
X177988718Y-84376488D01*
X177988718Y-84376488D02*
X177941099Y-84414584D01*
X177941099Y-84414584D02*
X177845861Y-84452679D01*
X177845861Y-84452679D02*
X177607766Y-84452679D01*
X177607766Y-84452679D02*
X177512528Y-84414584D01*
X177512528Y-84414584D02*
X177464909Y-84376488D01*
X178369671Y-83919345D02*
X178607766Y-84452679D01*
X178607766Y-84452679D02*
X178845861Y-83919345D01*
X177417290Y-86244679D02*
X178036337Y-86244679D01*
X178036337Y-86244679D02*
X177703004Y-86549441D01*
X177703004Y-86549441D02*
X177845861Y-86549441D01*
X177845861Y-86549441D02*
X177941099Y-86587536D01*
X177941099Y-86587536D02*
X177988718Y-86625631D01*
X177988718Y-86625631D02*
X178036337Y-86701822D01*
X178036337Y-86701822D02*
X178036337Y-86892298D01*
X178036337Y-86892298D02*
X177988718Y-86968488D01*
X177988718Y-86968488D02*
X177941099Y-87006584D01*
X177941099Y-87006584D02*
X177845861Y-87044679D01*
X177845861Y-87044679D02*
X177560147Y-87044679D01*
X177560147Y-87044679D02*
X177464909Y-87006584D01*
X177464909Y-87006584D02*
X177417290Y-86968488D01*
X178369671Y-86511345D02*
X178607766Y-87044679D01*
X178607766Y-87044679D02*
X178845861Y-86511345D01*
X130320783Y-77252840D02*
X130320783Y-77900459D01*
X130320783Y-77900459D02*
X130273164Y-77976650D01*
X130273164Y-77976650D02*
X130225545Y-78014745D01*
X130225545Y-78014745D02*
X130130307Y-78052840D01*
X130130307Y-78052840D02*
X129987450Y-78052840D01*
X129987450Y-78052840D02*
X129892212Y-78014745D01*
X130320783Y-77748079D02*
X130225545Y-77786174D01*
X130225545Y-77786174D02*
X130035069Y-77786174D01*
X130035069Y-77786174D02*
X129939831Y-77748079D01*
X129939831Y-77748079D02*
X129892212Y-77709983D01*
X129892212Y-77709983D02*
X129844593Y-77633793D01*
X129844593Y-77633793D02*
X129844593Y-77405221D01*
X129844593Y-77405221D02*
X129892212Y-77329031D01*
X129892212Y-77329031D02*
X129939831Y-77290936D01*
X129939831Y-77290936D02*
X130035069Y-77252840D01*
X130035069Y-77252840D02*
X130225545Y-77252840D01*
X130225545Y-77252840D02*
X130320783Y-77290936D01*
X131511260Y-77748079D02*
X131606498Y-77786174D01*
X131606498Y-77786174D02*
X131796974Y-77786174D01*
X131796974Y-77786174D02*
X131892212Y-77748079D01*
X131892212Y-77748079D02*
X131939831Y-77671888D01*
X131939831Y-77671888D02*
X131939831Y-77633793D01*
X131939831Y-77633793D02*
X131892212Y-77557602D01*
X131892212Y-77557602D02*
X131796974Y-77519507D01*
X131796974Y-77519507D02*
X131654117Y-77519507D01*
X131654117Y-77519507D02*
X131558879Y-77481412D01*
X131558879Y-77481412D02*
X131511260Y-77405221D01*
X131511260Y-77405221D02*
X131511260Y-77367126D01*
X131511260Y-77367126D02*
X131558879Y-77290936D01*
X131558879Y-77290936D02*
X131654117Y-77252840D01*
X131654117Y-77252840D02*
X131796974Y-77252840D01*
X131796974Y-77252840D02*
X131892212Y-77290936D01*
X132796974Y-77748079D02*
X132701736Y-77786174D01*
X132701736Y-77786174D02*
X132511260Y-77786174D01*
X132511260Y-77786174D02*
X132416022Y-77748079D01*
X132416022Y-77748079D02*
X132368403Y-77709983D01*
X132368403Y-77709983D02*
X132320784Y-77633793D01*
X132320784Y-77633793D02*
X132320784Y-77405221D01*
X132320784Y-77405221D02*
X132368403Y-77329031D01*
X132368403Y-77329031D02*
X132416022Y-77290936D01*
X132416022Y-77290936D02*
X132511260Y-77252840D01*
X132511260Y-77252840D02*
X132701736Y-77252840D01*
X132701736Y-77252840D02*
X132796974Y-77290936D01*
X133368403Y-77786174D02*
X133273165Y-77748079D01*
X133273165Y-77748079D02*
X133225546Y-77671888D01*
X133225546Y-77671888D02*
X133225546Y-76986174D01*
X134416023Y-76986174D02*
X135035070Y-76986174D01*
X135035070Y-76986174D02*
X134701737Y-77290936D01*
X134701737Y-77290936D02*
X134844594Y-77290936D01*
X134844594Y-77290936D02*
X134939832Y-77329031D01*
X134939832Y-77329031D02*
X134987451Y-77367126D01*
X134987451Y-77367126D02*
X135035070Y-77443317D01*
X135035070Y-77443317D02*
X135035070Y-77633793D01*
X135035070Y-77633793D02*
X134987451Y-77709983D01*
X134987451Y-77709983D02*
X134939832Y-77748079D01*
X134939832Y-77748079D02*
X134844594Y-77786174D01*
X134844594Y-77786174D02*
X134558880Y-77786174D01*
X134558880Y-77786174D02*
X134463642Y-77748079D01*
X134463642Y-77748079D02*
X134416023Y-77709983D01*
X135368404Y-77252840D02*
X135606499Y-77786174D01*
X135606499Y-77786174D02*
X135844594Y-77252840D01*
X136130309Y-76986174D02*
X136749356Y-76986174D01*
X136749356Y-76986174D02*
X136416023Y-77290936D01*
X136416023Y-77290936D02*
X136558880Y-77290936D01*
X136558880Y-77290936D02*
X136654118Y-77329031D01*
X136654118Y-77329031D02*
X136701737Y-77367126D01*
X136701737Y-77367126D02*
X136749356Y-77443317D01*
X136749356Y-77443317D02*
X136749356Y-77633793D01*
X136749356Y-77633793D02*
X136701737Y-77709983D01*
X136701737Y-77709983D02*
X136654118Y-77748079D01*
X136654118Y-77748079D02*
X136558880Y-77786174D01*
X136558880Y-77786174D02*
X136273166Y-77786174D01*
X136273166Y-77786174D02*
X136177928Y-77748079D01*
X136177928Y-77748079D02*
X136130309Y-77709983D01*
X182640721Y-59334623D02*
X182688340Y-59296528D01*
X182688340Y-59296528D02*
X182783578Y-59258433D01*
X182783578Y-59258433D02*
X183021673Y-59258433D01*
X183021673Y-59258433D02*
X183116911Y-59296528D01*
X183116911Y-59296528D02*
X183164530Y-59334623D01*
X183164530Y-59334623D02*
X183212149Y-59410814D01*
X183212149Y-59410814D02*
X183212149Y-59487004D01*
X183212149Y-59487004D02*
X183164530Y-59601290D01*
X183164530Y-59601290D02*
X182593102Y-60058433D01*
X182593102Y-60058433D02*
X183212149Y-60058433D01*
X183212149Y-62650433D02*
X182640721Y-62650433D01*
X182926435Y-62650433D02*
X182926435Y-61850433D01*
X182926435Y-61850433D02*
X182831197Y-61964718D01*
X182831197Y-61964718D02*
X182735959Y-62040909D01*
X182735959Y-62040909D02*
X182640721Y-62079004D01*
D12*
%TO.C,R1*%
X121691777Y-91376969D02*
X121268443Y-90772207D01*
X120966062Y-91376969D02*
X120966062Y-90106969D01*
X120966062Y-90106969D02*
X121449872Y-90106969D01*
X121449872Y-90106969D02*
X121570824Y-90167445D01*
X121570824Y-90167445D02*
X121631301Y-90227921D01*
X121631301Y-90227921D02*
X121691777Y-90348873D01*
X121691777Y-90348873D02*
X121691777Y-90530302D01*
X121691777Y-90530302D02*
X121631301Y-90651254D01*
X121631301Y-90651254D02*
X121570824Y-90711731D01*
X121570824Y-90711731D02*
X121449872Y-90772207D01*
X121449872Y-90772207D02*
X120966062Y-90772207D01*
X122901301Y-91376969D02*
X122175586Y-91376969D01*
X122538443Y-91376969D02*
X122538443Y-90106969D01*
X122538443Y-90106969D02*
X122417491Y-90288397D01*
X122417491Y-90288397D02*
X122296539Y-90409350D01*
X122296539Y-90409350D02*
X122175586Y-90469826D01*
%TO.C,R2*%
X121756596Y-85680835D02*
X121333262Y-85076073D01*
X121030881Y-85680835D02*
X121030881Y-84410835D01*
X121030881Y-84410835D02*
X121514691Y-84410835D01*
X121514691Y-84410835D02*
X121635643Y-84471311D01*
X121635643Y-84471311D02*
X121696120Y-84531787D01*
X121696120Y-84531787D02*
X121756596Y-84652739D01*
X121756596Y-84652739D02*
X121756596Y-84834168D01*
X121756596Y-84834168D02*
X121696120Y-84955120D01*
X121696120Y-84955120D02*
X121635643Y-85015597D01*
X121635643Y-85015597D02*
X121514691Y-85076073D01*
X121514691Y-85076073D02*
X121030881Y-85076073D01*
X122240405Y-84531787D02*
X122300881Y-84471311D01*
X122300881Y-84471311D02*
X122421834Y-84410835D01*
X122421834Y-84410835D02*
X122724215Y-84410835D01*
X122724215Y-84410835D02*
X122845167Y-84471311D01*
X122845167Y-84471311D02*
X122905643Y-84531787D01*
X122905643Y-84531787D02*
X122966120Y-84652739D01*
X122966120Y-84652739D02*
X122966120Y-84773692D01*
X122966120Y-84773692D02*
X122905643Y-84955120D01*
X122905643Y-84955120D02*
X122179929Y-85680835D01*
X122179929Y-85680835D02*
X122966120Y-85680835D01*
%TO.C,R15*%
X121225870Y-66156941D02*
X120802536Y-65552179D01*
X120500155Y-66156941D02*
X120500155Y-64886941D01*
X120500155Y-64886941D02*
X120983965Y-64886941D01*
X120983965Y-64886941D02*
X121104917Y-64947417D01*
X121104917Y-64947417D02*
X121165394Y-65007893D01*
X121165394Y-65007893D02*
X121225870Y-65128845D01*
X121225870Y-65128845D02*
X121225870Y-65310274D01*
X121225870Y-65310274D02*
X121165394Y-65431226D01*
X121165394Y-65431226D02*
X121104917Y-65491703D01*
X121104917Y-65491703D02*
X120983965Y-65552179D01*
X120983965Y-65552179D02*
X120500155Y-65552179D01*
X122435394Y-66156941D02*
X121709679Y-66156941D01*
X122072536Y-66156941D02*
X122072536Y-64886941D01*
X122072536Y-64886941D02*
X121951584Y-65068369D01*
X121951584Y-65068369D02*
X121830632Y-65189322D01*
X121830632Y-65189322D02*
X121709679Y-65249798D01*
X123584441Y-64886941D02*
X122979679Y-64886941D01*
X122979679Y-64886941D02*
X122919203Y-65491703D01*
X122919203Y-65491703D02*
X122979679Y-65431226D01*
X122979679Y-65431226D02*
X123100632Y-65370750D01*
X123100632Y-65370750D02*
X123403013Y-65370750D01*
X123403013Y-65370750D02*
X123523965Y-65431226D01*
X123523965Y-65431226D02*
X123584441Y-65491703D01*
X123584441Y-65491703D02*
X123644918Y-65612655D01*
X123644918Y-65612655D02*
X123644918Y-65915036D01*
X123644918Y-65915036D02*
X123584441Y-66035988D01*
X123584441Y-66035988D02*
X123523965Y-66096465D01*
X123523965Y-66096465D02*
X123403013Y-66156941D01*
X123403013Y-66156941D02*
X123100632Y-66156941D01*
X123100632Y-66156941D02*
X122979679Y-66096465D01*
X122979679Y-66096465D02*
X122919203Y-66035988D01*
%TO.C,R16*%
X121245181Y-57158731D02*
X120821847Y-56553969D01*
X120519466Y-57158731D02*
X120519466Y-55888731D01*
X120519466Y-55888731D02*
X121003276Y-55888731D01*
X121003276Y-55888731D02*
X121124228Y-55949207D01*
X121124228Y-55949207D02*
X121184705Y-56009683D01*
X121184705Y-56009683D02*
X121245181Y-56130635D01*
X121245181Y-56130635D02*
X121245181Y-56312064D01*
X121245181Y-56312064D02*
X121184705Y-56433016D01*
X121184705Y-56433016D02*
X121124228Y-56493493D01*
X121124228Y-56493493D02*
X121003276Y-56553969D01*
X121003276Y-56553969D02*
X120519466Y-56553969D01*
X122454705Y-57158731D02*
X121728990Y-57158731D01*
X122091847Y-57158731D02*
X122091847Y-55888731D01*
X122091847Y-55888731D02*
X121970895Y-56070159D01*
X121970895Y-56070159D02*
X121849943Y-56191112D01*
X121849943Y-56191112D02*
X121728990Y-56251588D01*
X123543276Y-55888731D02*
X123301371Y-55888731D01*
X123301371Y-55888731D02*
X123180419Y-55949207D01*
X123180419Y-55949207D02*
X123119943Y-56009683D01*
X123119943Y-56009683D02*
X122998990Y-56191112D01*
X122998990Y-56191112D02*
X122938514Y-56433016D01*
X122938514Y-56433016D02*
X122938514Y-56916826D01*
X122938514Y-56916826D02*
X122998990Y-57037778D01*
X122998990Y-57037778D02*
X123059467Y-57098255D01*
X123059467Y-57098255D02*
X123180419Y-57158731D01*
X123180419Y-57158731D02*
X123422324Y-57158731D01*
X123422324Y-57158731D02*
X123543276Y-57098255D01*
X123543276Y-57098255D02*
X123603752Y-57037778D01*
X123603752Y-57037778D02*
X123664229Y-56916826D01*
X123664229Y-56916826D02*
X123664229Y-56614445D01*
X123664229Y-56614445D02*
X123603752Y-56493493D01*
X123603752Y-56493493D02*
X123543276Y-56433016D01*
X123543276Y-56433016D02*
X123422324Y-56372540D01*
X123422324Y-56372540D02*
X123180419Y-56372540D01*
X123180419Y-56372540D02*
X123059467Y-56433016D01*
X123059467Y-56433016D02*
X122998990Y-56493493D01*
X122998990Y-56493493D02*
X122938514Y-56614445D01*
D11*
%TO.C,U5*%
X122482557Y-87005997D02*
X123292080Y-87005997D01*
X123292080Y-87005997D02*
X123387318Y-86958378D01*
X123387318Y-86958378D02*
X123434938Y-86910759D01*
X123434938Y-86910759D02*
X123482557Y-86815521D01*
X123482557Y-86815521D02*
X123482557Y-86625045D01*
X123482557Y-86625045D02*
X123434938Y-86529807D01*
X123434938Y-86529807D02*
X123387318Y-86482188D01*
X123387318Y-86482188D02*
X123292080Y-86434569D01*
X123292080Y-86434569D02*
X122482557Y-86434569D01*
X122482557Y-85482188D02*
X122482557Y-85958378D01*
X122482557Y-85958378D02*
X122958747Y-86005997D01*
X122958747Y-86005997D02*
X122911128Y-85958378D01*
X122911128Y-85958378D02*
X122863509Y-85863140D01*
X122863509Y-85863140D02*
X122863509Y-85625045D01*
X122863509Y-85625045D02*
X122911128Y-85529807D01*
X122911128Y-85529807D02*
X122958747Y-85482188D01*
X122958747Y-85482188D02*
X123053985Y-85434569D01*
X123053985Y-85434569D02*
X123292080Y-85434569D01*
X123292080Y-85434569D02*
X123387318Y-85482188D01*
X123387318Y-85482188D02*
X123434938Y-85529807D01*
X123434938Y-85529807D02*
X123482557Y-85625045D01*
X123482557Y-85625045D02*
X123482557Y-85863140D01*
X123482557Y-85863140D02*
X123434938Y-85958378D01*
X123434938Y-85958378D02*
X123387318Y-86005997D01*
%TO.C,U2*%
X123432095Y-57789419D02*
X123432095Y-58598942D01*
X123432095Y-58598942D02*
X123479714Y-58694180D01*
X123479714Y-58694180D02*
X123527333Y-58741800D01*
X123527333Y-58741800D02*
X123622571Y-58789419D01*
X123622571Y-58789419D02*
X123813047Y-58789419D01*
X123813047Y-58789419D02*
X123908285Y-58741800D01*
X123908285Y-58741800D02*
X123955904Y-58694180D01*
X123955904Y-58694180D02*
X124003523Y-58598942D01*
X124003523Y-58598942D02*
X124003523Y-57789419D01*
X124432095Y-57884657D02*
X124479714Y-57837038D01*
X124479714Y-57837038D02*
X124574952Y-57789419D01*
X124574952Y-57789419D02*
X124813047Y-57789419D01*
X124813047Y-57789419D02*
X124908285Y-57837038D01*
X124908285Y-57837038D02*
X124955904Y-57884657D01*
X124955904Y-57884657D02*
X125003523Y-57979895D01*
X125003523Y-57979895D02*
X125003523Y-58075133D01*
X125003523Y-58075133D02*
X124955904Y-58217990D01*
X124955904Y-58217990D02*
X124384476Y-58789419D01*
X124384476Y-58789419D02*
X125003523Y-58789419D01*
%TO.C,C2*%
X125665167Y-90763612D02*
X125665167Y-90830955D01*
X125665167Y-90830955D02*
X125597824Y-90965642D01*
X125597824Y-90965642D02*
X125530480Y-91032986D01*
X125530480Y-91032986D02*
X125395793Y-91100329D01*
X125395793Y-91100329D02*
X125261106Y-91100329D01*
X125261106Y-91100329D02*
X125160091Y-91066658D01*
X125160091Y-91066658D02*
X124991732Y-90965642D01*
X124991732Y-90965642D02*
X124890717Y-90864627D01*
X124890717Y-90864627D02*
X124789702Y-90696268D01*
X124789702Y-90696268D02*
X124756030Y-90595253D01*
X124756030Y-90595253D02*
X124756030Y-90460566D01*
X124756030Y-90460566D02*
X124823373Y-90325879D01*
X124823373Y-90325879D02*
X124890717Y-90258536D01*
X124890717Y-90258536D02*
X125025404Y-90191192D01*
X125025404Y-90191192D02*
X125092747Y-90191192D01*
X125362122Y-89921818D02*
X125362122Y-89854475D01*
X125362122Y-89854475D02*
X125395793Y-89753459D01*
X125395793Y-89753459D02*
X125564152Y-89585101D01*
X125564152Y-89585101D02*
X125665167Y-89551429D01*
X125665167Y-89551429D02*
X125732511Y-89551429D01*
X125732511Y-89551429D02*
X125833526Y-89585101D01*
X125833526Y-89585101D02*
X125900870Y-89652444D01*
X125900870Y-89652444D02*
X125968213Y-89787131D01*
X125968213Y-89787131D02*
X125968213Y-90595253D01*
X125968213Y-90595253D02*
X126405946Y-90157520D01*
%TO.C,R14*%
X154032619Y-61692357D02*
X153556428Y-62025690D01*
X154032619Y-62263785D02*
X153032619Y-62263785D01*
X153032619Y-62263785D02*
X153032619Y-61882833D01*
X153032619Y-61882833D02*
X153080238Y-61787595D01*
X153080238Y-61787595D02*
X153127857Y-61739976D01*
X153127857Y-61739976D02*
X153223095Y-61692357D01*
X153223095Y-61692357D02*
X153365952Y-61692357D01*
X153365952Y-61692357D02*
X153461190Y-61739976D01*
X153461190Y-61739976D02*
X153508809Y-61787595D01*
X153508809Y-61787595D02*
X153556428Y-61882833D01*
X153556428Y-61882833D02*
X153556428Y-62263785D01*
X154032619Y-60739976D02*
X154032619Y-61311404D01*
X154032619Y-61025690D02*
X153032619Y-61025690D01*
X153032619Y-61025690D02*
X153175476Y-61120928D01*
X153175476Y-61120928D02*
X153270714Y-61216166D01*
X153270714Y-61216166D02*
X153318333Y-61311404D01*
X153365952Y-59882833D02*
X154032619Y-59882833D01*
X152985000Y-60120928D02*
X153699285Y-60359023D01*
X153699285Y-60359023D02*
X153699285Y-59739976D01*
D13*
%TO.C,J4*%
X120562372Y-77419199D02*
X120997801Y-77419199D01*
X120997801Y-77419199D02*
X121084886Y-77448228D01*
X121084886Y-77448228D02*
X121142944Y-77506285D01*
X121142944Y-77506285D02*
X121171972Y-77593371D01*
X121171972Y-77593371D02*
X121171972Y-77651428D01*
X120765572Y-76867657D02*
X121171972Y-76867657D01*
X120533344Y-77012799D02*
X120968772Y-77157942D01*
X120968772Y-77157942D02*
X120968772Y-76780571D01*
X128098915Y-76250799D02*
X128127944Y-76279827D01*
X128127944Y-76279827D02*
X128156972Y-76366913D01*
X128156972Y-76366913D02*
X128156972Y-76424970D01*
X128156972Y-76424970D02*
X128127944Y-76512056D01*
X128127944Y-76512056D02*
X128069886Y-76570113D01*
X128069886Y-76570113D02*
X128011829Y-76599142D01*
X128011829Y-76599142D02*
X127895715Y-76628170D01*
X127895715Y-76628170D02*
X127808629Y-76628170D01*
X127808629Y-76628170D02*
X127692515Y-76599142D01*
X127692515Y-76599142D02*
X127634458Y-76570113D01*
X127634458Y-76570113D02*
X127576401Y-76512056D01*
X127576401Y-76512056D02*
X127547372Y-76424970D01*
X127547372Y-76424970D02*
X127547372Y-76366913D01*
X127547372Y-76366913D02*
X127576401Y-76279827D01*
X127576401Y-76279827D02*
X127605429Y-76250799D01*
X127547372Y-75873427D02*
X127547372Y-75757313D01*
X127547372Y-75757313D02*
X127576401Y-75699256D01*
X127576401Y-75699256D02*
X127634458Y-75641199D01*
X127634458Y-75641199D02*
X127750572Y-75612170D01*
X127750572Y-75612170D02*
X127953772Y-75612170D01*
X127953772Y-75612170D02*
X128069886Y-75641199D01*
X128069886Y-75641199D02*
X128127944Y-75699256D01*
X128127944Y-75699256D02*
X128156972Y-75757313D01*
X128156972Y-75757313D02*
X128156972Y-75873427D01*
X128156972Y-75873427D02*
X128127944Y-75931485D01*
X128127944Y-75931485D02*
X128069886Y-75989542D01*
X128069886Y-75989542D02*
X127953772Y-76018570D01*
X127953772Y-76018570D02*
X127750572Y-76018570D01*
X127750572Y-76018570D02*
X127634458Y-75989542D01*
X127634458Y-75989542D02*
X127576401Y-75931485D01*
X127576401Y-75931485D02*
X127547372Y-75873427D01*
X128156972Y-75350913D02*
X127547372Y-75350913D01*
X127547372Y-75350913D02*
X128156972Y-75002570D01*
X128156972Y-75002570D02*
X127547372Y-75002570D01*
X128156972Y-74712284D02*
X127547372Y-74712284D01*
X127547372Y-74712284D02*
X128156972Y-74363941D01*
X128156972Y-74363941D02*
X127547372Y-74363941D01*
X128215029Y-74218798D02*
X128215029Y-73754340D01*
X127547372Y-73493083D02*
X127547372Y-73435026D01*
X127547372Y-73435026D02*
X127576401Y-73376969D01*
X127576401Y-73376969D02*
X127605429Y-73347941D01*
X127605429Y-73347941D02*
X127663486Y-73318912D01*
X127663486Y-73318912D02*
X127779601Y-73289883D01*
X127779601Y-73289883D02*
X127924744Y-73289883D01*
X127924744Y-73289883D02*
X128040858Y-73318912D01*
X128040858Y-73318912D02*
X128098915Y-73347941D01*
X128098915Y-73347941D02*
X128127944Y-73376969D01*
X128127944Y-73376969D02*
X128156972Y-73435026D01*
X128156972Y-73435026D02*
X128156972Y-73493083D01*
X128156972Y-73493083D02*
X128127944Y-73551141D01*
X128127944Y-73551141D02*
X128098915Y-73580169D01*
X128098915Y-73580169D02*
X128040858Y-73609198D01*
X128040858Y-73609198D02*
X127924744Y-73638226D01*
X127924744Y-73638226D02*
X127779601Y-73638226D01*
X127779601Y-73638226D02*
X127663486Y-73609198D01*
X127663486Y-73609198D02*
X127605429Y-73580169D01*
X127605429Y-73580169D02*
X127576401Y-73551141D01*
X127576401Y-73551141D02*
X127547372Y-73493083D01*
X127547372Y-72738341D02*
X127547372Y-73028627D01*
X127547372Y-73028627D02*
X127837658Y-73057655D01*
X127837658Y-73057655D02*
X127808629Y-73028627D01*
X127808629Y-73028627D02*
X127779601Y-72970570D01*
X127779601Y-72970570D02*
X127779601Y-72825427D01*
X127779601Y-72825427D02*
X127808629Y-72767370D01*
X127808629Y-72767370D02*
X127837658Y-72738341D01*
X127837658Y-72738341D02*
X127895715Y-72709312D01*
X127895715Y-72709312D02*
X128040858Y-72709312D01*
X128040858Y-72709312D02*
X128098915Y-72738341D01*
X128098915Y-72738341D02*
X128127944Y-72767370D01*
X128127944Y-72767370D02*
X128156972Y-72825427D01*
X128156972Y-72825427D02*
X128156972Y-72970570D01*
X128156972Y-72970570D02*
X128127944Y-73028627D01*
X128127944Y-73028627D02*
X128098915Y-73057655D01*
X127547372Y-72273884D02*
X127982801Y-72273884D01*
X127982801Y-72273884D02*
X128069886Y-72302913D01*
X128069886Y-72302913D02*
X128127944Y-72360970D01*
X128127944Y-72360970D02*
X128156972Y-72448056D01*
X128156972Y-72448056D02*
X128156972Y-72506113D01*
X128127944Y-72012627D02*
X128156972Y-71925542D01*
X128156972Y-71925542D02*
X128156972Y-71780399D01*
X128156972Y-71780399D02*
X128127944Y-71722342D01*
X128127944Y-71722342D02*
X128098915Y-71693313D01*
X128098915Y-71693313D02*
X128040858Y-71664284D01*
X128040858Y-71664284D02*
X127982801Y-71664284D01*
X127982801Y-71664284D02*
X127924744Y-71693313D01*
X127924744Y-71693313D02*
X127895715Y-71722342D01*
X127895715Y-71722342D02*
X127866686Y-71780399D01*
X127866686Y-71780399D02*
X127837658Y-71896513D01*
X127837658Y-71896513D02*
X127808629Y-71954570D01*
X127808629Y-71954570D02*
X127779601Y-71983599D01*
X127779601Y-71983599D02*
X127721544Y-72012627D01*
X127721544Y-72012627D02*
X127663486Y-72012627D01*
X127663486Y-72012627D02*
X127605429Y-71983599D01*
X127605429Y-71983599D02*
X127576401Y-71954570D01*
X127576401Y-71954570D02*
X127547372Y-71896513D01*
X127547372Y-71896513D02*
X127547372Y-71751370D01*
X127547372Y-71751370D02*
X127576401Y-71664284D01*
X127547372Y-71490113D02*
X127547372Y-71141771D01*
X128156972Y-71315942D02*
X127547372Y-71315942D01*
D11*
%TO.C,U4*%
X130066218Y-61970304D02*
X130875741Y-61970304D01*
X130875741Y-61970304D02*
X130970979Y-61922685D01*
X130970979Y-61922685D02*
X131018599Y-61875066D01*
X131018599Y-61875066D02*
X131066218Y-61779828D01*
X131066218Y-61779828D02*
X131066218Y-61589352D01*
X131066218Y-61589352D02*
X131018599Y-61494114D01*
X131018599Y-61494114D02*
X130970979Y-61446495D01*
X130970979Y-61446495D02*
X130875741Y-61398876D01*
X130875741Y-61398876D02*
X130066218Y-61398876D01*
X130399551Y-60494114D02*
X131066218Y-60494114D01*
X130018599Y-60732209D02*
X130732884Y-60970304D01*
X130732884Y-60970304D02*
X130732884Y-60351257D01*
%TO.C,R7*%
X133561299Y-68391571D02*
X132988879Y-68290556D01*
X133157238Y-68795632D02*
X132450131Y-68088526D01*
X132450131Y-68088526D02*
X132719505Y-67819152D01*
X132719505Y-67819152D02*
X132820520Y-67785480D01*
X132820520Y-67785480D02*
X132887864Y-67785480D01*
X132887864Y-67785480D02*
X132988879Y-67819152D01*
X132988879Y-67819152D02*
X133089894Y-67920167D01*
X133089894Y-67920167D02*
X133123566Y-68021182D01*
X133123566Y-68021182D02*
X133123566Y-68088526D01*
X133123566Y-68088526D02*
X133089894Y-68189541D01*
X133089894Y-68189541D02*
X132820520Y-68458915D01*
X133089894Y-67448762D02*
X133561299Y-66977358D01*
X133561299Y-66977358D02*
X133965360Y-67987510D01*
%TO.C,<-3V3*%
X149128411Y-77363226D02*
X148791693Y-78104005D01*
X148791693Y-78104005D02*
X149532472Y-77767287D01*
X149667159Y-77228539D02*
X150205907Y-76689791D01*
X150037548Y-75982685D02*
X150475281Y-75544952D01*
X150475281Y-75544952D02*
X150508952Y-76050028D01*
X150508952Y-76050028D02*
X150609968Y-75949013D01*
X150609968Y-75949013D02*
X150710983Y-75915341D01*
X150710983Y-75915341D02*
X150778326Y-75915341D01*
X150778326Y-75915341D02*
X150879342Y-75949013D01*
X150879342Y-75949013D02*
X151047700Y-76117372D01*
X151047700Y-76117372D02*
X151081372Y-76218387D01*
X151081372Y-76218387D02*
X151081372Y-76285730D01*
X151081372Y-76285730D02*
X151047700Y-76386746D01*
X151047700Y-76386746D02*
X150845670Y-76588776D01*
X150845670Y-76588776D02*
X150744655Y-76622448D01*
X150744655Y-76622448D02*
X150677311Y-76622448D01*
X150677311Y-75342921D02*
X151620120Y-75814326D01*
X151620120Y-75814326D02*
X151148716Y-74871517D01*
X151317075Y-74703158D02*
X151754807Y-74265425D01*
X151754807Y-74265425D02*
X151788479Y-74770501D01*
X151788479Y-74770501D02*
X151889494Y-74669486D01*
X151889494Y-74669486D02*
X151990510Y-74635814D01*
X151990510Y-74635814D02*
X152057853Y-74635814D01*
X152057853Y-74635814D02*
X152158868Y-74669486D01*
X152158868Y-74669486D02*
X152327227Y-74837845D01*
X152327227Y-74837845D02*
X152360899Y-74938860D01*
X152360899Y-74938860D02*
X152360899Y-75006204D01*
X152360899Y-75006204D02*
X152327227Y-75107219D01*
X152327227Y-75107219D02*
X152125197Y-75309250D01*
X152125197Y-75309250D02*
X152024181Y-75342921D01*
X152024181Y-75342921D02*
X151956838Y-75342921D01*
%TO.C,<-Io8*%
X152384912Y-81516305D02*
X152048195Y-82257084D01*
X152048195Y-82257084D02*
X152788973Y-81920366D01*
X152923660Y-81381618D02*
X153462408Y-80842870D01*
X154068499Y-80775527D02*
X153361392Y-80068420D01*
X154506232Y-80337794D02*
X154405216Y-80371466D01*
X154405216Y-80371466D02*
X154337873Y-80371466D01*
X154337873Y-80371466D02*
X154236858Y-80337794D01*
X154236858Y-80337794D02*
X154034827Y-80135764D01*
X154034827Y-80135764D02*
X154001155Y-80034749D01*
X154001155Y-80034749D02*
X154001155Y-79967405D01*
X154001155Y-79967405D02*
X154034827Y-79866390D01*
X154034827Y-79866390D02*
X154135842Y-79765375D01*
X154135842Y-79765375D02*
X154236858Y-79731703D01*
X154236858Y-79731703D02*
X154304201Y-79731703D01*
X154304201Y-79731703D02*
X154405216Y-79765375D01*
X154405216Y-79765375D02*
X154607247Y-79967405D01*
X154607247Y-79967405D02*
X154640919Y-80068420D01*
X154640919Y-80068420D02*
X154640919Y-80135764D01*
X154640919Y-80135764D02*
X154607247Y-80236779D01*
X154607247Y-80236779D02*
X154506232Y-80337794D01*
X154741934Y-79293970D02*
X154640919Y-79327642D01*
X154640919Y-79327642D02*
X154573575Y-79327642D01*
X154573575Y-79327642D02*
X154472560Y-79293970D01*
X154472560Y-79293970D02*
X154438888Y-79260298D01*
X154438888Y-79260298D02*
X154405216Y-79159283D01*
X154405216Y-79159283D02*
X154405216Y-79091940D01*
X154405216Y-79091940D02*
X154438888Y-78990924D01*
X154438888Y-78990924D02*
X154573575Y-78856237D01*
X154573575Y-78856237D02*
X154674591Y-78822566D01*
X154674591Y-78822566D02*
X154741934Y-78822566D01*
X154741934Y-78822566D02*
X154842949Y-78856237D01*
X154842949Y-78856237D02*
X154876621Y-78889909D01*
X154876621Y-78889909D02*
X154910293Y-78990924D01*
X154910293Y-78990924D02*
X154910293Y-79058268D01*
X154910293Y-79058268D02*
X154876621Y-79159283D01*
X154876621Y-79159283D02*
X154741934Y-79293970D01*
X154741934Y-79293970D02*
X154708262Y-79394985D01*
X154708262Y-79394985D02*
X154708262Y-79462329D01*
X154708262Y-79462329D02*
X154741934Y-79563344D01*
X154741934Y-79563344D02*
X154876621Y-79698031D01*
X154876621Y-79698031D02*
X154977636Y-79731703D01*
X154977636Y-79731703D02*
X155044980Y-79731703D01*
X155044980Y-79731703D02*
X155145995Y-79698031D01*
X155145995Y-79698031D02*
X155280682Y-79563344D01*
X155280682Y-79563344D02*
X155314354Y-79462329D01*
X155314354Y-79462329D02*
X155314354Y-79394985D01*
X155314354Y-79394985D02*
X155280682Y-79293970D01*
X155280682Y-79293970D02*
X155145995Y-79159283D01*
X155145995Y-79159283D02*
X155044980Y-79125611D01*
X155044980Y-79125611D02*
X154977636Y-79125611D01*
X154977636Y-79125611D02*
X154876621Y-79159283D01*
%TO.C,U3*%
X129442143Y-87038362D02*
X130251666Y-87038362D01*
X130251666Y-87038362D02*
X130346904Y-86990743D01*
X130346904Y-86990743D02*
X130394524Y-86943124D01*
X130394524Y-86943124D02*
X130442143Y-86847886D01*
X130442143Y-86847886D02*
X130442143Y-86657410D01*
X130442143Y-86657410D02*
X130394524Y-86562172D01*
X130394524Y-86562172D02*
X130346904Y-86514553D01*
X130346904Y-86514553D02*
X130251666Y-86466934D01*
X130251666Y-86466934D02*
X129442143Y-86466934D01*
X129442143Y-86085981D02*
X129442143Y-85466934D01*
X129442143Y-85466934D02*
X129823095Y-85800267D01*
X129823095Y-85800267D02*
X129823095Y-85657410D01*
X129823095Y-85657410D02*
X129870714Y-85562172D01*
X129870714Y-85562172D02*
X129918333Y-85514553D01*
X129918333Y-85514553D02*
X130013571Y-85466934D01*
X130013571Y-85466934D02*
X130251666Y-85466934D01*
X130251666Y-85466934D02*
X130346904Y-85514553D01*
X130346904Y-85514553D02*
X130394524Y-85562172D01*
X130394524Y-85562172D02*
X130442143Y-85657410D01*
X130442143Y-85657410D02*
X130442143Y-85943124D01*
X130442143Y-85943124D02*
X130394524Y-86038362D01*
X130394524Y-86038362D02*
X130346904Y-86085981D01*
%TO.C,R25*%
X171985699Y-82031804D02*
X171652366Y-81555613D01*
X171414271Y-82031804D02*
X171414271Y-81031804D01*
X171414271Y-81031804D02*
X171795223Y-81031804D01*
X171795223Y-81031804D02*
X171890461Y-81079423D01*
X171890461Y-81079423D02*
X171938080Y-81127042D01*
X171938080Y-81127042D02*
X171985699Y-81222280D01*
X171985699Y-81222280D02*
X171985699Y-81365137D01*
X171985699Y-81365137D02*
X171938080Y-81460375D01*
X171938080Y-81460375D02*
X171890461Y-81507994D01*
X171890461Y-81507994D02*
X171795223Y-81555613D01*
X171795223Y-81555613D02*
X171414271Y-81555613D01*
X172366652Y-81127042D02*
X172414271Y-81079423D01*
X172414271Y-81079423D02*
X172509509Y-81031804D01*
X172509509Y-81031804D02*
X172747604Y-81031804D01*
X172747604Y-81031804D02*
X172842842Y-81079423D01*
X172842842Y-81079423D02*
X172890461Y-81127042D01*
X172890461Y-81127042D02*
X172938080Y-81222280D01*
X172938080Y-81222280D02*
X172938080Y-81317518D01*
X172938080Y-81317518D02*
X172890461Y-81460375D01*
X172890461Y-81460375D02*
X172319033Y-82031804D01*
X172319033Y-82031804D02*
X172938080Y-82031804D01*
X173842842Y-81031804D02*
X173366652Y-81031804D01*
X173366652Y-81031804D02*
X173319033Y-81507994D01*
X173319033Y-81507994D02*
X173366652Y-81460375D01*
X173366652Y-81460375D02*
X173461890Y-81412756D01*
X173461890Y-81412756D02*
X173699985Y-81412756D01*
X173699985Y-81412756D02*
X173795223Y-81460375D01*
X173795223Y-81460375D02*
X173842842Y-81507994D01*
X173842842Y-81507994D02*
X173890461Y-81603232D01*
X173890461Y-81603232D02*
X173890461Y-81841327D01*
X173890461Y-81841327D02*
X173842842Y-81936565D01*
X173842842Y-81936565D02*
X173795223Y-81984185D01*
X173795223Y-81984185D02*
X173699985Y-82031804D01*
X173699985Y-82031804D02*
X173461890Y-82031804D01*
X173461890Y-82031804D02*
X173366652Y-81984185D01*
X173366652Y-81984185D02*
X173319033Y-81936565D01*
%TO.C,R17*%
X148891563Y-65071409D02*
X148558230Y-64595218D01*
X148320135Y-65071409D02*
X148320135Y-64071409D01*
X148320135Y-64071409D02*
X148701087Y-64071409D01*
X148701087Y-64071409D02*
X148796325Y-64119028D01*
X148796325Y-64119028D02*
X148843944Y-64166647D01*
X148843944Y-64166647D02*
X148891563Y-64261885D01*
X148891563Y-64261885D02*
X148891563Y-64404742D01*
X148891563Y-64404742D02*
X148843944Y-64499980D01*
X148843944Y-64499980D02*
X148796325Y-64547599D01*
X148796325Y-64547599D02*
X148701087Y-64595218D01*
X148701087Y-64595218D02*
X148320135Y-64595218D01*
X149843944Y-65071409D02*
X149272516Y-65071409D01*
X149558230Y-65071409D02*
X149558230Y-64071409D01*
X149558230Y-64071409D02*
X149462992Y-64214266D01*
X149462992Y-64214266D02*
X149367754Y-64309504D01*
X149367754Y-64309504D02*
X149272516Y-64357123D01*
X150177278Y-64071409D02*
X150843944Y-64071409D01*
X150843944Y-64071409D02*
X150415373Y-65071409D01*
%TO.C,R33*%
X140890742Y-85268723D02*
X140557409Y-84792532D01*
X140319314Y-85268723D02*
X140319314Y-84268723D01*
X140319314Y-84268723D02*
X140700266Y-84268723D01*
X140700266Y-84268723D02*
X140795504Y-84316342D01*
X140795504Y-84316342D02*
X140843123Y-84363961D01*
X140843123Y-84363961D02*
X140890742Y-84459199D01*
X140890742Y-84459199D02*
X140890742Y-84602056D01*
X140890742Y-84602056D02*
X140843123Y-84697294D01*
X140843123Y-84697294D02*
X140795504Y-84744913D01*
X140795504Y-84744913D02*
X140700266Y-84792532D01*
X140700266Y-84792532D02*
X140319314Y-84792532D01*
X141224076Y-84268723D02*
X141843123Y-84268723D01*
X141843123Y-84268723D02*
X141509790Y-84649675D01*
X141509790Y-84649675D02*
X141652647Y-84649675D01*
X141652647Y-84649675D02*
X141747885Y-84697294D01*
X141747885Y-84697294D02*
X141795504Y-84744913D01*
X141795504Y-84744913D02*
X141843123Y-84840151D01*
X141843123Y-84840151D02*
X141843123Y-85078246D01*
X141843123Y-85078246D02*
X141795504Y-85173484D01*
X141795504Y-85173484D02*
X141747885Y-85221104D01*
X141747885Y-85221104D02*
X141652647Y-85268723D01*
X141652647Y-85268723D02*
X141366933Y-85268723D01*
X141366933Y-85268723D02*
X141271695Y-85221104D01*
X141271695Y-85221104D02*
X141224076Y-85173484D01*
X142176457Y-84268723D02*
X142795504Y-84268723D01*
X142795504Y-84268723D02*
X142462171Y-84649675D01*
X142462171Y-84649675D02*
X142605028Y-84649675D01*
X142605028Y-84649675D02*
X142700266Y-84697294D01*
X142700266Y-84697294D02*
X142747885Y-84744913D01*
X142747885Y-84744913D02*
X142795504Y-84840151D01*
X142795504Y-84840151D02*
X142795504Y-85078246D01*
X142795504Y-85078246D02*
X142747885Y-85173484D01*
X142747885Y-85173484D02*
X142700266Y-85221104D01*
X142700266Y-85221104D02*
X142605028Y-85268723D01*
X142605028Y-85268723D02*
X142319314Y-85268723D01*
X142319314Y-85268723D02*
X142224076Y-85221104D01*
X142224076Y-85221104D02*
X142176457Y-85173484D01*
%TO.C,C6*%
X121017733Y-61871380D02*
X120970114Y-61919000D01*
X120970114Y-61919000D02*
X120827257Y-61966619D01*
X120827257Y-61966619D02*
X120732019Y-61966619D01*
X120732019Y-61966619D02*
X120589162Y-61919000D01*
X120589162Y-61919000D02*
X120493924Y-61823761D01*
X120493924Y-61823761D02*
X120446305Y-61728523D01*
X120446305Y-61728523D02*
X120398686Y-61538047D01*
X120398686Y-61538047D02*
X120398686Y-61395190D01*
X120398686Y-61395190D02*
X120446305Y-61204714D01*
X120446305Y-61204714D02*
X120493924Y-61109476D01*
X120493924Y-61109476D02*
X120589162Y-61014238D01*
X120589162Y-61014238D02*
X120732019Y-60966619D01*
X120732019Y-60966619D02*
X120827257Y-60966619D01*
X120827257Y-60966619D02*
X120970114Y-61014238D01*
X120970114Y-61014238D02*
X121017733Y-61061857D01*
X121874876Y-60966619D02*
X121684400Y-60966619D01*
X121684400Y-60966619D02*
X121589162Y-61014238D01*
X121589162Y-61014238D02*
X121541543Y-61061857D01*
X121541543Y-61061857D02*
X121446305Y-61204714D01*
X121446305Y-61204714D02*
X121398686Y-61395190D01*
X121398686Y-61395190D02*
X121398686Y-61776142D01*
X121398686Y-61776142D02*
X121446305Y-61871380D01*
X121446305Y-61871380D02*
X121493924Y-61919000D01*
X121493924Y-61919000D02*
X121589162Y-61966619D01*
X121589162Y-61966619D02*
X121779638Y-61966619D01*
X121779638Y-61966619D02*
X121874876Y-61919000D01*
X121874876Y-61919000D02*
X121922495Y-61871380D01*
X121922495Y-61871380D02*
X121970114Y-61776142D01*
X121970114Y-61776142D02*
X121970114Y-61538047D01*
X121970114Y-61538047D02*
X121922495Y-61442809D01*
X121922495Y-61442809D02*
X121874876Y-61395190D01*
X121874876Y-61395190D02*
X121779638Y-61347571D01*
X121779638Y-61347571D02*
X121589162Y-61347571D01*
X121589162Y-61347571D02*
X121493924Y-61395190D01*
X121493924Y-61395190D02*
X121446305Y-61442809D01*
X121446305Y-61442809D02*
X121398686Y-61538047D01*
D12*
%TO.C,L1*%
X152225526Y-69752666D02*
X152225526Y-70357428D01*
X152225526Y-70357428D02*
X150955526Y-70357428D01*
X152225526Y-68664094D02*
X152225526Y-69389809D01*
X152225526Y-69026952D02*
X150955526Y-69026952D01*
X150955526Y-69026952D02*
X151136954Y-69147904D01*
X151136954Y-69147904D02*
X151257907Y-69268856D01*
X151257907Y-69268856D02*
X151318383Y-69389809D01*
D11*
%TO.C,R22*%
X140898300Y-86645462D02*
X140564967Y-86169271D01*
X140326872Y-86645462D02*
X140326872Y-85645462D01*
X140326872Y-85645462D02*
X140707824Y-85645462D01*
X140707824Y-85645462D02*
X140803062Y-85693081D01*
X140803062Y-85693081D02*
X140850681Y-85740700D01*
X140850681Y-85740700D02*
X140898300Y-85835938D01*
X140898300Y-85835938D02*
X140898300Y-85978795D01*
X140898300Y-85978795D02*
X140850681Y-86074033D01*
X140850681Y-86074033D02*
X140803062Y-86121652D01*
X140803062Y-86121652D02*
X140707824Y-86169271D01*
X140707824Y-86169271D02*
X140326872Y-86169271D01*
X141279253Y-85740700D02*
X141326872Y-85693081D01*
X141326872Y-85693081D02*
X141422110Y-85645462D01*
X141422110Y-85645462D02*
X141660205Y-85645462D01*
X141660205Y-85645462D02*
X141755443Y-85693081D01*
X141755443Y-85693081D02*
X141803062Y-85740700D01*
X141803062Y-85740700D02*
X141850681Y-85835938D01*
X141850681Y-85835938D02*
X141850681Y-85931176D01*
X141850681Y-85931176D02*
X141803062Y-86074033D01*
X141803062Y-86074033D02*
X141231634Y-86645462D01*
X141231634Y-86645462D02*
X141850681Y-86645462D01*
X142231634Y-85740700D02*
X142279253Y-85693081D01*
X142279253Y-85693081D02*
X142374491Y-85645462D01*
X142374491Y-85645462D02*
X142612586Y-85645462D01*
X142612586Y-85645462D02*
X142707824Y-85693081D01*
X142707824Y-85693081D02*
X142755443Y-85740700D01*
X142755443Y-85740700D02*
X142803062Y-85835938D01*
X142803062Y-85835938D02*
X142803062Y-85931176D01*
X142803062Y-85931176D02*
X142755443Y-86074033D01*
X142755443Y-86074033D02*
X142184015Y-86645462D01*
X142184015Y-86645462D02*
X142803062Y-86645462D01*
%TO.C,R5*%
X135010903Y-64147967D02*
X134438483Y-64046952D01*
X134606842Y-64552028D02*
X133899735Y-63844922D01*
X133899735Y-63844922D02*
X134169109Y-63575548D01*
X134169109Y-63575548D02*
X134270124Y-63541876D01*
X134270124Y-63541876D02*
X134337468Y-63541876D01*
X134337468Y-63541876D02*
X134438483Y-63575548D01*
X134438483Y-63575548D02*
X134539498Y-63676563D01*
X134539498Y-63676563D02*
X134573170Y-63777578D01*
X134573170Y-63777578D02*
X134573170Y-63844922D01*
X134573170Y-63844922D02*
X134539498Y-63945937D01*
X134539498Y-63945937D02*
X134270124Y-64215311D01*
X134943559Y-62801097D02*
X134606842Y-63137815D01*
X134606842Y-63137815D02*
X134909888Y-63508204D01*
X134909888Y-63508204D02*
X134909888Y-63440861D01*
X134909888Y-63440861D02*
X134943559Y-63339845D01*
X134943559Y-63339845D02*
X135111918Y-63171487D01*
X135111918Y-63171487D02*
X135212933Y-63137815D01*
X135212933Y-63137815D02*
X135280277Y-63137815D01*
X135280277Y-63137815D02*
X135381292Y-63171487D01*
X135381292Y-63171487D02*
X135549651Y-63339845D01*
X135549651Y-63339845D02*
X135583323Y-63440861D01*
X135583323Y-63440861D02*
X135583323Y-63508204D01*
X135583323Y-63508204D02*
X135549651Y-63609219D01*
X135549651Y-63609219D02*
X135381292Y-63777578D01*
X135381292Y-63777578D02*
X135280277Y-63811250D01*
X135280277Y-63811250D02*
X135212933Y-63811250D01*
%TO.C,R24*%
X169671767Y-87023065D02*
X169338434Y-86546874D01*
X169100339Y-87023065D02*
X169100339Y-86023065D01*
X169100339Y-86023065D02*
X169481291Y-86023065D01*
X169481291Y-86023065D02*
X169576529Y-86070684D01*
X169576529Y-86070684D02*
X169624148Y-86118303D01*
X169624148Y-86118303D02*
X169671767Y-86213541D01*
X169671767Y-86213541D02*
X169671767Y-86356398D01*
X169671767Y-86356398D02*
X169624148Y-86451636D01*
X169624148Y-86451636D02*
X169576529Y-86499255D01*
X169576529Y-86499255D02*
X169481291Y-86546874D01*
X169481291Y-86546874D02*
X169100339Y-86546874D01*
X170052720Y-86118303D02*
X170100339Y-86070684D01*
X170100339Y-86070684D02*
X170195577Y-86023065D01*
X170195577Y-86023065D02*
X170433672Y-86023065D01*
X170433672Y-86023065D02*
X170528910Y-86070684D01*
X170528910Y-86070684D02*
X170576529Y-86118303D01*
X170576529Y-86118303D02*
X170624148Y-86213541D01*
X170624148Y-86213541D02*
X170624148Y-86308779D01*
X170624148Y-86308779D02*
X170576529Y-86451636D01*
X170576529Y-86451636D02*
X170005101Y-87023065D01*
X170005101Y-87023065D02*
X170624148Y-87023065D01*
X171481291Y-86356398D02*
X171481291Y-87023065D01*
X171243196Y-85975446D02*
X171005101Y-86689731D01*
X171005101Y-86689731D02*
X171624148Y-86689731D01*
%TO.C,R19*%
X140245100Y-71331270D02*
X139672680Y-71230255D01*
X139841039Y-71735331D02*
X139133932Y-71028224D01*
X139133932Y-71028224D02*
X139403306Y-70758850D01*
X139403306Y-70758850D02*
X139504321Y-70725179D01*
X139504321Y-70725179D02*
X139571665Y-70725179D01*
X139571665Y-70725179D02*
X139672680Y-70758850D01*
X139672680Y-70758850D02*
X139773695Y-70859866D01*
X139773695Y-70859866D02*
X139807367Y-70960881D01*
X139807367Y-70960881D02*
X139807367Y-71028224D01*
X139807367Y-71028224D02*
X139773695Y-71129240D01*
X139773695Y-71129240D02*
X139504321Y-71398614D01*
X140918535Y-70657835D02*
X140514474Y-71061896D01*
X140716504Y-70859866D02*
X140009398Y-70152759D01*
X140009398Y-70152759D02*
X140043069Y-70321118D01*
X140043069Y-70321118D02*
X140043069Y-70455805D01*
X140043069Y-70455805D02*
X140009398Y-70556820D01*
X141255252Y-70321118D02*
X141389939Y-70186431D01*
X141389939Y-70186431D02*
X141423611Y-70085415D01*
X141423611Y-70085415D02*
X141423611Y-70018072D01*
X141423611Y-70018072D02*
X141389939Y-69849713D01*
X141389939Y-69849713D02*
X141288924Y-69681354D01*
X141288924Y-69681354D02*
X141019550Y-69411980D01*
X141019550Y-69411980D02*
X140918535Y-69378309D01*
X140918535Y-69378309D02*
X140851191Y-69378309D01*
X140851191Y-69378309D02*
X140750176Y-69411980D01*
X140750176Y-69411980D02*
X140615489Y-69546667D01*
X140615489Y-69546667D02*
X140581817Y-69647683D01*
X140581817Y-69647683D02*
X140581817Y-69715026D01*
X140581817Y-69715026D02*
X140615489Y-69816041D01*
X140615489Y-69816041D02*
X140783848Y-69984400D01*
X140783848Y-69984400D02*
X140884863Y-70018072D01*
X140884863Y-70018072D02*
X140952207Y-70018072D01*
X140952207Y-70018072D02*
X141053222Y-69984400D01*
X141053222Y-69984400D02*
X141187909Y-69849713D01*
X141187909Y-69849713D02*
X141221581Y-69748698D01*
X141221581Y-69748698D02*
X141221581Y-69681354D01*
X141221581Y-69681354D02*
X141187909Y-69580339D01*
%TO.C,C13*%
X143681215Y-63621578D02*
X143633596Y-63669198D01*
X143633596Y-63669198D02*
X143490739Y-63716817D01*
X143490739Y-63716817D02*
X143395501Y-63716817D01*
X143395501Y-63716817D02*
X143252644Y-63669198D01*
X143252644Y-63669198D02*
X143157406Y-63573959D01*
X143157406Y-63573959D02*
X143109787Y-63478721D01*
X143109787Y-63478721D02*
X143062168Y-63288245D01*
X143062168Y-63288245D02*
X143062168Y-63145388D01*
X143062168Y-63145388D02*
X143109787Y-62954912D01*
X143109787Y-62954912D02*
X143157406Y-62859674D01*
X143157406Y-62859674D02*
X143252644Y-62764436D01*
X143252644Y-62764436D02*
X143395501Y-62716817D01*
X143395501Y-62716817D02*
X143490739Y-62716817D01*
X143490739Y-62716817D02*
X143633596Y-62764436D01*
X143633596Y-62764436D02*
X143681215Y-62812055D01*
X144633596Y-63716817D02*
X144062168Y-63716817D01*
X144347882Y-63716817D02*
X144347882Y-62716817D01*
X144347882Y-62716817D02*
X144252644Y-62859674D01*
X144252644Y-62859674D02*
X144157406Y-62954912D01*
X144157406Y-62954912D02*
X144062168Y-63002531D01*
X144966930Y-62716817D02*
X145585977Y-62716817D01*
X145585977Y-62716817D02*
X145252644Y-63097769D01*
X145252644Y-63097769D02*
X145395501Y-63097769D01*
X145395501Y-63097769D02*
X145490739Y-63145388D01*
X145490739Y-63145388D02*
X145538358Y-63193007D01*
X145538358Y-63193007D02*
X145585977Y-63288245D01*
X145585977Y-63288245D02*
X145585977Y-63526340D01*
X145585977Y-63526340D02*
X145538358Y-63621578D01*
X145538358Y-63621578D02*
X145490739Y-63669198D01*
X145490739Y-63669198D02*
X145395501Y-63716817D01*
X145395501Y-63716817D02*
X145109787Y-63716817D01*
X145109787Y-63716817D02*
X145014549Y-63669198D01*
X145014549Y-63669198D02*
X144966930Y-63621578D01*
D12*
%TO.C,J7*%
X174251526Y-91757332D02*
X175158669Y-91757332D01*
X175158669Y-91757332D02*
X175340097Y-91817809D01*
X175340097Y-91817809D02*
X175461050Y-91938761D01*
X175461050Y-91938761D02*
X175521526Y-92120190D01*
X175521526Y-92120190D02*
X175521526Y-92241142D01*
X174251526Y-91273523D02*
X174251526Y-90426856D01*
X174251526Y-90426856D02*
X175521526Y-90971142D01*
D11*
%TO.C,C5*%
X121015733Y-60884980D02*
X120968114Y-60932600D01*
X120968114Y-60932600D02*
X120825257Y-60980219D01*
X120825257Y-60980219D02*
X120730019Y-60980219D01*
X120730019Y-60980219D02*
X120587162Y-60932600D01*
X120587162Y-60932600D02*
X120491924Y-60837361D01*
X120491924Y-60837361D02*
X120444305Y-60742123D01*
X120444305Y-60742123D02*
X120396686Y-60551647D01*
X120396686Y-60551647D02*
X120396686Y-60408790D01*
X120396686Y-60408790D02*
X120444305Y-60218314D01*
X120444305Y-60218314D02*
X120491924Y-60123076D01*
X120491924Y-60123076D02*
X120587162Y-60027838D01*
X120587162Y-60027838D02*
X120730019Y-59980219D01*
X120730019Y-59980219D02*
X120825257Y-59980219D01*
X120825257Y-59980219D02*
X120968114Y-60027838D01*
X120968114Y-60027838D02*
X121015733Y-60075457D01*
X121920495Y-59980219D02*
X121444305Y-59980219D01*
X121444305Y-59980219D02*
X121396686Y-60456409D01*
X121396686Y-60456409D02*
X121444305Y-60408790D01*
X121444305Y-60408790D02*
X121539543Y-60361171D01*
X121539543Y-60361171D02*
X121777638Y-60361171D01*
X121777638Y-60361171D02*
X121872876Y-60408790D01*
X121872876Y-60408790D02*
X121920495Y-60456409D01*
X121920495Y-60456409D02*
X121968114Y-60551647D01*
X121968114Y-60551647D02*
X121968114Y-60789742D01*
X121968114Y-60789742D02*
X121920495Y-60884980D01*
X121920495Y-60884980D02*
X121872876Y-60932600D01*
X121872876Y-60932600D02*
X121777638Y-60980219D01*
X121777638Y-60980219D02*
X121539543Y-60980219D01*
X121539543Y-60980219D02*
X121444305Y-60932600D01*
X121444305Y-60932600D02*
X121396686Y-60884980D01*
%TO.C,R9*%
X129821637Y-69075975D02*
X129249217Y-68974960D01*
X129417576Y-69480036D02*
X128710469Y-68772930D01*
X128710469Y-68772930D02*
X128979843Y-68503556D01*
X128979843Y-68503556D02*
X129080858Y-68469884D01*
X129080858Y-68469884D02*
X129148202Y-68469884D01*
X129148202Y-68469884D02*
X129249217Y-68503556D01*
X129249217Y-68503556D02*
X129350232Y-68604571D01*
X129350232Y-68604571D02*
X129383904Y-68705586D01*
X129383904Y-68705586D02*
X129383904Y-68772930D01*
X129383904Y-68772930D02*
X129350232Y-68873945D01*
X129350232Y-68873945D02*
X129080858Y-69143319D01*
X130158354Y-68739258D02*
X130293041Y-68604571D01*
X130293041Y-68604571D02*
X130326713Y-68503556D01*
X130326713Y-68503556D02*
X130326713Y-68436212D01*
X130326713Y-68436212D02*
X130293041Y-68267853D01*
X130293041Y-68267853D02*
X130192026Y-68099495D01*
X130192026Y-68099495D02*
X129922652Y-67830121D01*
X129922652Y-67830121D02*
X129821637Y-67796449D01*
X129821637Y-67796449D02*
X129754293Y-67796449D01*
X129754293Y-67796449D02*
X129653278Y-67830121D01*
X129653278Y-67830121D02*
X129518591Y-67964808D01*
X129518591Y-67964808D02*
X129484919Y-68065823D01*
X129484919Y-68065823D02*
X129484919Y-68133166D01*
X129484919Y-68133166D02*
X129518591Y-68234182D01*
X129518591Y-68234182D02*
X129686950Y-68402540D01*
X129686950Y-68402540D02*
X129787965Y-68436212D01*
X129787965Y-68436212D02*
X129855309Y-68436212D01*
X129855309Y-68436212D02*
X129956324Y-68402540D01*
X129956324Y-68402540D02*
X130091011Y-68267853D01*
X130091011Y-68267853D02*
X130124683Y-68166838D01*
X130124683Y-68166838D02*
X130124683Y-68099495D01*
X130124683Y-68099495D02*
X130091011Y-67998479D01*
%TO.C,U1*%
X166878095Y-60346619D02*
X166878095Y-61156142D01*
X166878095Y-61156142D02*
X166925714Y-61251380D01*
X166925714Y-61251380D02*
X166973333Y-61299000D01*
X166973333Y-61299000D02*
X167068571Y-61346619D01*
X167068571Y-61346619D02*
X167259047Y-61346619D01*
X167259047Y-61346619D02*
X167354285Y-61299000D01*
X167354285Y-61299000D02*
X167401904Y-61251380D01*
X167401904Y-61251380D02*
X167449523Y-61156142D01*
X167449523Y-61156142D02*
X167449523Y-60346619D01*
X168449523Y-61346619D02*
X167878095Y-61346619D01*
X168163809Y-61346619D02*
X168163809Y-60346619D01*
X168163809Y-60346619D02*
X168068571Y-60489476D01*
X168068571Y-60489476D02*
X167973333Y-60584714D01*
X167973333Y-60584714D02*
X167878095Y-60632333D01*
X162878094Y-54946904D02*
X163354284Y-54946904D01*
X162782856Y-55232619D02*
X163116189Y-54232619D01*
X163116189Y-54232619D02*
X163449522Y-55232619D01*
X163782856Y-54565952D02*
X163782856Y-55232619D01*
X163782856Y-54661190D02*
X163830475Y-54613571D01*
X163830475Y-54613571D02*
X163925713Y-54565952D01*
X163925713Y-54565952D02*
X164068570Y-54565952D01*
X164068570Y-54565952D02*
X164163808Y-54613571D01*
X164163808Y-54613571D02*
X164211427Y-54708809D01*
X164211427Y-54708809D02*
X164211427Y-55232619D01*
X164544761Y-54565952D02*
X164925713Y-54565952D01*
X164687618Y-54232619D02*
X164687618Y-55089761D01*
X164687618Y-55089761D02*
X164735237Y-55185000D01*
X164735237Y-55185000D02*
X164830475Y-55232619D01*
X164830475Y-55232619D02*
X164925713Y-55232619D01*
X165639999Y-55185000D02*
X165544761Y-55232619D01*
X165544761Y-55232619D02*
X165354285Y-55232619D01*
X165354285Y-55232619D02*
X165259047Y-55185000D01*
X165259047Y-55185000D02*
X165211428Y-55089761D01*
X165211428Y-55089761D02*
X165211428Y-54708809D01*
X165211428Y-54708809D02*
X165259047Y-54613571D01*
X165259047Y-54613571D02*
X165354285Y-54565952D01*
X165354285Y-54565952D02*
X165544761Y-54565952D01*
X165544761Y-54565952D02*
X165639999Y-54613571D01*
X165639999Y-54613571D02*
X165687618Y-54708809D01*
X165687618Y-54708809D02*
X165687618Y-54804047D01*
X165687618Y-54804047D02*
X165211428Y-54899285D01*
X166116190Y-54565952D02*
X166116190Y-55232619D01*
X166116190Y-54661190D02*
X166163809Y-54613571D01*
X166163809Y-54613571D02*
X166259047Y-54565952D01*
X166259047Y-54565952D02*
X166401904Y-54565952D01*
X166401904Y-54565952D02*
X166497142Y-54613571D01*
X166497142Y-54613571D02*
X166544761Y-54708809D01*
X166544761Y-54708809D02*
X166544761Y-55232619D01*
X167020952Y-54565952D02*
X167020952Y-55232619D01*
X167020952Y-54661190D02*
X167068571Y-54613571D01*
X167068571Y-54613571D02*
X167163809Y-54565952D01*
X167163809Y-54565952D02*
X167306666Y-54565952D01*
X167306666Y-54565952D02*
X167401904Y-54613571D01*
X167401904Y-54613571D02*
X167449523Y-54708809D01*
X167449523Y-54708809D02*
X167449523Y-55232619D01*
X168354285Y-55232619D02*
X168354285Y-54708809D01*
X168354285Y-54708809D02*
X168306666Y-54613571D01*
X168306666Y-54613571D02*
X168211428Y-54565952D01*
X168211428Y-54565952D02*
X168020952Y-54565952D01*
X168020952Y-54565952D02*
X167925714Y-54613571D01*
X168354285Y-55185000D02*
X168259047Y-55232619D01*
X168259047Y-55232619D02*
X168020952Y-55232619D01*
X168020952Y-55232619D02*
X167925714Y-55185000D01*
X167925714Y-55185000D02*
X167878095Y-55089761D01*
X167878095Y-55089761D02*
X167878095Y-54994523D01*
X167878095Y-54994523D02*
X167925714Y-54899285D01*
X167925714Y-54899285D02*
X168020952Y-54851666D01*
X168020952Y-54851666D02*
X168259047Y-54851666D01*
X168259047Y-54851666D02*
X168354285Y-54804047D01*
X169544762Y-54946904D02*
X170020952Y-54946904D01*
X169449524Y-55232619D02*
X169782857Y-54232619D01*
X169782857Y-54232619D02*
X170116190Y-55232619D01*
X170449524Y-55232619D02*
X170449524Y-54565952D01*
X170449524Y-54756428D02*
X170497143Y-54661190D01*
X170497143Y-54661190D02*
X170544762Y-54613571D01*
X170544762Y-54613571D02*
X170640000Y-54565952D01*
X170640000Y-54565952D02*
X170735238Y-54565952D01*
X171449524Y-55185000D02*
X171354286Y-55232619D01*
X171354286Y-55232619D02*
X171163810Y-55232619D01*
X171163810Y-55232619D02*
X171068572Y-55185000D01*
X171068572Y-55185000D02*
X171020953Y-55089761D01*
X171020953Y-55089761D02*
X171020953Y-54708809D01*
X171020953Y-54708809D02*
X171068572Y-54613571D01*
X171068572Y-54613571D02*
X171163810Y-54565952D01*
X171163810Y-54565952D02*
X171354286Y-54565952D01*
X171354286Y-54565952D02*
X171449524Y-54613571D01*
X171449524Y-54613571D02*
X171497143Y-54708809D01*
X171497143Y-54708809D02*
X171497143Y-54804047D01*
X171497143Y-54804047D02*
X171020953Y-54899285D01*
X172354286Y-55232619D02*
X172354286Y-54708809D01*
X172354286Y-54708809D02*
X172306667Y-54613571D01*
X172306667Y-54613571D02*
X172211429Y-54565952D01*
X172211429Y-54565952D02*
X172020953Y-54565952D01*
X172020953Y-54565952D02*
X171925715Y-54613571D01*
X172354286Y-55185000D02*
X172259048Y-55232619D01*
X172259048Y-55232619D02*
X172020953Y-55232619D01*
X172020953Y-55232619D02*
X171925715Y-55185000D01*
X171925715Y-55185000D02*
X171878096Y-55089761D01*
X171878096Y-55089761D02*
X171878096Y-54994523D01*
X171878096Y-54994523D02*
X171925715Y-54899285D01*
X171925715Y-54899285D02*
X172020953Y-54851666D01*
X172020953Y-54851666D02*
X172259048Y-54851666D01*
X172259048Y-54851666D02*
X172354286Y-54804047D01*
%TO.C,R10*%
X155810619Y-61184357D02*
X155334428Y-61517690D01*
X155810619Y-61755785D02*
X154810619Y-61755785D01*
X154810619Y-61755785D02*
X154810619Y-61374833D01*
X154810619Y-61374833D02*
X154858238Y-61279595D01*
X154858238Y-61279595D02*
X154905857Y-61231976D01*
X154905857Y-61231976D02*
X155001095Y-61184357D01*
X155001095Y-61184357D02*
X155143952Y-61184357D01*
X155143952Y-61184357D02*
X155239190Y-61231976D01*
X155239190Y-61231976D02*
X155286809Y-61279595D01*
X155286809Y-61279595D02*
X155334428Y-61374833D01*
X155334428Y-61374833D02*
X155334428Y-61755785D01*
X155810619Y-60231976D02*
X155810619Y-60803404D01*
X155810619Y-60517690D02*
X154810619Y-60517690D01*
X154810619Y-60517690D02*
X154953476Y-60612928D01*
X154953476Y-60612928D02*
X155048714Y-60708166D01*
X155048714Y-60708166D02*
X155096333Y-60803404D01*
X154810619Y-59612928D02*
X154810619Y-59517690D01*
X154810619Y-59517690D02*
X154858238Y-59422452D01*
X154858238Y-59422452D02*
X154905857Y-59374833D01*
X154905857Y-59374833D02*
X155001095Y-59327214D01*
X155001095Y-59327214D02*
X155191571Y-59279595D01*
X155191571Y-59279595D02*
X155429666Y-59279595D01*
X155429666Y-59279595D02*
X155620142Y-59327214D01*
X155620142Y-59327214D02*
X155715380Y-59374833D01*
X155715380Y-59374833D02*
X155763000Y-59422452D01*
X155763000Y-59422452D02*
X155810619Y-59517690D01*
X155810619Y-59517690D02*
X155810619Y-59612928D01*
X155810619Y-59612928D02*
X155763000Y-59708166D01*
X155763000Y-59708166D02*
X155715380Y-59755785D01*
X155715380Y-59755785D02*
X155620142Y-59803404D01*
X155620142Y-59803404D02*
X155429666Y-59851023D01*
X155429666Y-59851023D02*
X155191571Y-59851023D01*
X155191571Y-59851023D02*
X155001095Y-59803404D01*
X155001095Y-59803404D02*
X154905857Y-59755785D01*
X154905857Y-59755785D02*
X154858238Y-59708166D01*
X154858238Y-59708166D02*
X154810619Y-59612928D01*
%TO.C,R23*%
X158035803Y-87016114D02*
X157702470Y-86539923D01*
X157464375Y-87016114D02*
X157464375Y-86016114D01*
X157464375Y-86016114D02*
X157845327Y-86016114D01*
X157845327Y-86016114D02*
X157940565Y-86063733D01*
X157940565Y-86063733D02*
X157988184Y-86111352D01*
X157988184Y-86111352D02*
X158035803Y-86206590D01*
X158035803Y-86206590D02*
X158035803Y-86349447D01*
X158035803Y-86349447D02*
X157988184Y-86444685D01*
X157988184Y-86444685D02*
X157940565Y-86492304D01*
X157940565Y-86492304D02*
X157845327Y-86539923D01*
X157845327Y-86539923D02*
X157464375Y-86539923D01*
X158416756Y-86111352D02*
X158464375Y-86063733D01*
X158464375Y-86063733D02*
X158559613Y-86016114D01*
X158559613Y-86016114D02*
X158797708Y-86016114D01*
X158797708Y-86016114D02*
X158892946Y-86063733D01*
X158892946Y-86063733D02*
X158940565Y-86111352D01*
X158940565Y-86111352D02*
X158988184Y-86206590D01*
X158988184Y-86206590D02*
X158988184Y-86301828D01*
X158988184Y-86301828D02*
X158940565Y-86444685D01*
X158940565Y-86444685D02*
X158369137Y-87016114D01*
X158369137Y-87016114D02*
X158988184Y-87016114D01*
X159321518Y-86016114D02*
X159940565Y-86016114D01*
X159940565Y-86016114D02*
X159607232Y-86397066D01*
X159607232Y-86397066D02*
X159750089Y-86397066D01*
X159750089Y-86397066D02*
X159845327Y-86444685D01*
X159845327Y-86444685D02*
X159892946Y-86492304D01*
X159892946Y-86492304D02*
X159940565Y-86587542D01*
X159940565Y-86587542D02*
X159940565Y-86825637D01*
X159940565Y-86825637D02*
X159892946Y-86920875D01*
X159892946Y-86920875D02*
X159845327Y-86968495D01*
X159845327Y-86968495D02*
X159750089Y-87016114D01*
X159750089Y-87016114D02*
X159464375Y-87016114D01*
X159464375Y-87016114D02*
X159369137Y-86968495D01*
X159369137Y-86968495D02*
X159321518Y-86920875D01*
%TO.C,R11*%
X146413767Y-72304958D02*
X146514782Y-71732538D01*
X146009706Y-71900897D02*
X146716813Y-71193790D01*
X146716813Y-71193790D02*
X146986187Y-71463164D01*
X146986187Y-71463164D02*
X147019858Y-71564179D01*
X147019858Y-71564179D02*
X147019858Y-71631523D01*
X147019858Y-71631523D02*
X146986187Y-71732538D01*
X146986187Y-71732538D02*
X146885171Y-71833553D01*
X146885171Y-71833553D02*
X146784156Y-71867225D01*
X146784156Y-71867225D02*
X146716813Y-71867225D01*
X146716813Y-71867225D02*
X146615797Y-71833553D01*
X146615797Y-71833553D02*
X146346423Y-71564179D01*
X147087202Y-72978393D02*
X146683141Y-72574332D01*
X146885171Y-72776362D02*
X147592278Y-72069256D01*
X147592278Y-72069256D02*
X147423919Y-72102927D01*
X147423919Y-72102927D02*
X147289232Y-72102927D01*
X147289232Y-72102927D02*
X147188217Y-72069256D01*
X147760637Y-73651828D02*
X147356576Y-73247767D01*
X147558606Y-73449797D02*
X148265713Y-72742691D01*
X148265713Y-72742691D02*
X148097354Y-72776362D01*
X148097354Y-72776362D02*
X147962667Y-72776362D01*
X147962667Y-72776362D02*
X147861652Y-72742691D01*
%TO.C,R3*%
X147866951Y-75079498D02*
X147967966Y-74507078D01*
X147462890Y-74675437D02*
X148169996Y-73968330D01*
X148169996Y-73968330D02*
X148439370Y-74237704D01*
X148439370Y-74237704D02*
X148473042Y-74338719D01*
X148473042Y-74338719D02*
X148473042Y-74406063D01*
X148473042Y-74406063D02*
X148439370Y-74507078D01*
X148439370Y-74507078D02*
X148338355Y-74608093D01*
X148338355Y-74608093D02*
X148237340Y-74641765D01*
X148237340Y-74641765D02*
X148169996Y-74641765D01*
X148169996Y-74641765D02*
X148068981Y-74608093D01*
X148068981Y-74608093D02*
X147799607Y-74338719D01*
X148809760Y-74608093D02*
X149247492Y-75045826D01*
X149247492Y-75045826D02*
X148742416Y-75079498D01*
X148742416Y-75079498D02*
X148843431Y-75180513D01*
X148843431Y-75180513D02*
X148877103Y-75281528D01*
X148877103Y-75281528D02*
X148877103Y-75348872D01*
X148877103Y-75348872D02*
X148843431Y-75449887D01*
X148843431Y-75449887D02*
X148675073Y-75618246D01*
X148675073Y-75618246D02*
X148574057Y-75651918D01*
X148574057Y-75651918D02*
X148506714Y-75651918D01*
X148506714Y-75651918D02*
X148405699Y-75618246D01*
X148405699Y-75618246D02*
X148203668Y-75416215D01*
X148203668Y-75416215D02*
X148169996Y-75315200D01*
X148169996Y-75315200D02*
X148169996Y-75247857D01*
%TO.C,R27*%
X172059055Y-79428791D02*
X171725722Y-78952600D01*
X171487627Y-79428791D02*
X171487627Y-78428791D01*
X171487627Y-78428791D02*
X171868579Y-78428791D01*
X171868579Y-78428791D02*
X171963817Y-78476410D01*
X171963817Y-78476410D02*
X172011436Y-78524029D01*
X172011436Y-78524029D02*
X172059055Y-78619267D01*
X172059055Y-78619267D02*
X172059055Y-78762124D01*
X172059055Y-78762124D02*
X172011436Y-78857362D01*
X172011436Y-78857362D02*
X171963817Y-78904981D01*
X171963817Y-78904981D02*
X171868579Y-78952600D01*
X171868579Y-78952600D02*
X171487627Y-78952600D01*
X172440008Y-78524029D02*
X172487627Y-78476410D01*
X172487627Y-78476410D02*
X172582865Y-78428791D01*
X172582865Y-78428791D02*
X172820960Y-78428791D01*
X172820960Y-78428791D02*
X172916198Y-78476410D01*
X172916198Y-78476410D02*
X172963817Y-78524029D01*
X172963817Y-78524029D02*
X173011436Y-78619267D01*
X173011436Y-78619267D02*
X173011436Y-78714505D01*
X173011436Y-78714505D02*
X172963817Y-78857362D01*
X172963817Y-78857362D02*
X172392389Y-79428791D01*
X172392389Y-79428791D02*
X173011436Y-79428791D01*
X173344770Y-78428791D02*
X174011436Y-78428791D01*
X174011436Y-78428791D02*
X173582865Y-79428791D01*
%TO.C,R26*%
X172005277Y-80711010D02*
X171671944Y-80234819D01*
X171433849Y-80711010D02*
X171433849Y-79711010D01*
X171433849Y-79711010D02*
X171814801Y-79711010D01*
X171814801Y-79711010D02*
X171910039Y-79758629D01*
X171910039Y-79758629D02*
X171957658Y-79806248D01*
X171957658Y-79806248D02*
X172005277Y-79901486D01*
X172005277Y-79901486D02*
X172005277Y-80044343D01*
X172005277Y-80044343D02*
X171957658Y-80139581D01*
X171957658Y-80139581D02*
X171910039Y-80187200D01*
X171910039Y-80187200D02*
X171814801Y-80234819D01*
X171814801Y-80234819D02*
X171433849Y-80234819D01*
X172386230Y-79806248D02*
X172433849Y-79758629D01*
X172433849Y-79758629D02*
X172529087Y-79711010D01*
X172529087Y-79711010D02*
X172767182Y-79711010D01*
X172767182Y-79711010D02*
X172862420Y-79758629D01*
X172862420Y-79758629D02*
X172910039Y-79806248D01*
X172910039Y-79806248D02*
X172957658Y-79901486D01*
X172957658Y-79901486D02*
X172957658Y-79996724D01*
X172957658Y-79996724D02*
X172910039Y-80139581D01*
X172910039Y-80139581D02*
X172338611Y-80711010D01*
X172338611Y-80711010D02*
X172957658Y-80711010D01*
X173814801Y-79711010D02*
X173624325Y-79711010D01*
X173624325Y-79711010D02*
X173529087Y-79758629D01*
X173529087Y-79758629D02*
X173481468Y-79806248D01*
X173481468Y-79806248D02*
X173386230Y-79949105D01*
X173386230Y-79949105D02*
X173338611Y-80139581D01*
X173338611Y-80139581D02*
X173338611Y-80520533D01*
X173338611Y-80520533D02*
X173386230Y-80615771D01*
X173386230Y-80615771D02*
X173433849Y-80663391D01*
X173433849Y-80663391D02*
X173529087Y-80711010D01*
X173529087Y-80711010D02*
X173719563Y-80711010D01*
X173719563Y-80711010D02*
X173814801Y-80663391D01*
X173814801Y-80663391D02*
X173862420Y-80615771D01*
X173862420Y-80615771D02*
X173910039Y-80520533D01*
X173910039Y-80520533D02*
X173910039Y-80282438D01*
X173910039Y-80282438D02*
X173862420Y-80187200D01*
X173862420Y-80187200D02*
X173814801Y-80139581D01*
X173814801Y-80139581D02*
X173719563Y-80091962D01*
X173719563Y-80091962D02*
X173529087Y-80091962D01*
X173529087Y-80091962D02*
X173433849Y-80139581D01*
X173433849Y-80139581D02*
X173386230Y-80187200D01*
X173386230Y-80187200D02*
X173338611Y-80282438D01*
%TO.C,C1*%
X120831723Y-88254542D02*
X120784104Y-88302162D01*
X120784104Y-88302162D02*
X120641247Y-88349781D01*
X120641247Y-88349781D02*
X120546009Y-88349781D01*
X120546009Y-88349781D02*
X120403152Y-88302162D01*
X120403152Y-88302162D02*
X120307914Y-88206923D01*
X120307914Y-88206923D02*
X120260295Y-88111685D01*
X120260295Y-88111685D02*
X120212676Y-87921209D01*
X120212676Y-87921209D02*
X120212676Y-87778352D01*
X120212676Y-87778352D02*
X120260295Y-87587876D01*
X120260295Y-87587876D02*
X120307914Y-87492638D01*
X120307914Y-87492638D02*
X120403152Y-87397400D01*
X120403152Y-87397400D02*
X120546009Y-87349781D01*
X120546009Y-87349781D02*
X120641247Y-87349781D01*
X120641247Y-87349781D02*
X120784104Y-87397400D01*
X120784104Y-87397400D02*
X120831723Y-87445019D01*
X121784104Y-88349781D02*
X121212676Y-88349781D01*
X121498390Y-88349781D02*
X121498390Y-87349781D01*
X121498390Y-87349781D02*
X121403152Y-87492638D01*
X121403152Y-87492638D02*
X121307914Y-87587876D01*
X121307914Y-87587876D02*
X121212676Y-87635495D01*
%TO.C,R20*%
X163829486Y-85893304D02*
X163930501Y-85320884D01*
X163425425Y-85489243D02*
X164132532Y-84782136D01*
X164132532Y-84782136D02*
X164401906Y-85051510D01*
X164401906Y-85051510D02*
X164435577Y-85152525D01*
X164435577Y-85152525D02*
X164435577Y-85219869D01*
X164435577Y-85219869D02*
X164401906Y-85320884D01*
X164401906Y-85320884D02*
X164300890Y-85421899D01*
X164300890Y-85421899D02*
X164199875Y-85455571D01*
X164199875Y-85455571D02*
X164132532Y-85455571D01*
X164132532Y-85455571D02*
X164031516Y-85421899D01*
X164031516Y-85421899D02*
X163762142Y-85152525D01*
X164738623Y-85522915D02*
X164805967Y-85522915D01*
X164805967Y-85522915D02*
X164906982Y-85556586D01*
X164906982Y-85556586D02*
X165075341Y-85724945D01*
X165075341Y-85724945D02*
X165109012Y-85825960D01*
X165109012Y-85825960D02*
X165109012Y-85893304D01*
X165109012Y-85893304D02*
X165075341Y-85994319D01*
X165075341Y-85994319D02*
X165007997Y-86061663D01*
X165007997Y-86061663D02*
X164873310Y-86129006D01*
X164873310Y-86129006D02*
X164065188Y-86129006D01*
X164065188Y-86129006D02*
X164502921Y-86566739D01*
X165647760Y-86297365D02*
X165715104Y-86364708D01*
X165715104Y-86364708D02*
X165748776Y-86465724D01*
X165748776Y-86465724D02*
X165748776Y-86533067D01*
X165748776Y-86533067D02*
X165715104Y-86634082D01*
X165715104Y-86634082D02*
X165614089Y-86802441D01*
X165614089Y-86802441D02*
X165445730Y-86970800D01*
X165445730Y-86970800D02*
X165277371Y-87071815D01*
X165277371Y-87071815D02*
X165176356Y-87105487D01*
X165176356Y-87105487D02*
X165109012Y-87105487D01*
X165109012Y-87105487D02*
X165007997Y-87071815D01*
X165007997Y-87071815D02*
X164940654Y-87004472D01*
X164940654Y-87004472D02*
X164906982Y-86903456D01*
X164906982Y-86903456D02*
X164906982Y-86836113D01*
X164906982Y-86836113D02*
X164940654Y-86735098D01*
X164940654Y-86735098D02*
X165041669Y-86566739D01*
X165041669Y-86566739D02*
X165210028Y-86398380D01*
X165210028Y-86398380D02*
X165378386Y-86297365D01*
X165378386Y-86297365D02*
X165479402Y-86263693D01*
X165479402Y-86263693D02*
X165546745Y-86263693D01*
X165546745Y-86263693D02*
X165647760Y-86297365D01*
%TO.C,C20*%
X156117031Y-81950912D02*
X156049688Y-81950912D01*
X156049688Y-81950912D02*
X155915001Y-81883569D01*
X155915001Y-81883569D02*
X155847657Y-81816225D01*
X155847657Y-81816225D02*
X155780314Y-81681538D01*
X155780314Y-81681538D02*
X155780314Y-81546851D01*
X155780314Y-81546851D02*
X155813985Y-81445836D01*
X155813985Y-81445836D02*
X155915001Y-81277477D01*
X155915001Y-81277477D02*
X156016016Y-81176462D01*
X156016016Y-81176462D02*
X156184375Y-81075447D01*
X156184375Y-81075447D02*
X156285390Y-81041775D01*
X156285390Y-81041775D02*
X156420077Y-81041775D01*
X156420077Y-81041775D02*
X156554764Y-81109119D01*
X156554764Y-81109119D02*
X156622108Y-81176462D01*
X156622108Y-81176462D02*
X156689451Y-81311149D01*
X156689451Y-81311149D02*
X156689451Y-81378493D01*
X156958825Y-81647867D02*
X157026169Y-81647867D01*
X157026169Y-81647867D02*
X157127184Y-81681538D01*
X157127184Y-81681538D02*
X157295543Y-81849897D01*
X157295543Y-81849897D02*
X157329214Y-81950912D01*
X157329214Y-81950912D02*
X157329214Y-82018256D01*
X157329214Y-82018256D02*
X157295543Y-82119271D01*
X157295543Y-82119271D02*
X157228199Y-82186615D01*
X157228199Y-82186615D02*
X157093512Y-82253958D01*
X157093512Y-82253958D02*
X156285390Y-82253958D01*
X156285390Y-82253958D02*
X156723123Y-82691691D01*
X157867962Y-82422317D02*
X157935306Y-82489660D01*
X157935306Y-82489660D02*
X157968978Y-82590676D01*
X157968978Y-82590676D02*
X157968978Y-82658019D01*
X157968978Y-82658019D02*
X157935306Y-82759034D01*
X157935306Y-82759034D02*
X157834291Y-82927393D01*
X157834291Y-82927393D02*
X157665932Y-83095752D01*
X157665932Y-83095752D02*
X157497573Y-83196767D01*
X157497573Y-83196767D02*
X157396558Y-83230439D01*
X157396558Y-83230439D02*
X157329214Y-83230439D01*
X157329214Y-83230439D02*
X157228199Y-83196767D01*
X157228199Y-83196767D02*
X157160856Y-83129424D01*
X157160856Y-83129424D02*
X157127184Y-83028408D01*
X157127184Y-83028408D02*
X157127184Y-82961065D01*
X157127184Y-82961065D02*
X157160856Y-82860050D01*
X157160856Y-82860050D02*
X157261871Y-82691691D01*
X157261871Y-82691691D02*
X157430230Y-82523332D01*
X157430230Y-82523332D02*
X157598588Y-82422317D01*
X157598588Y-82422317D02*
X157699604Y-82388645D01*
X157699604Y-82388645D02*
X157766947Y-82388645D01*
X157766947Y-82388645D02*
X157867962Y-82422317D01*
%TO.C,C3*%
X120836523Y-86958148D02*
X120788904Y-87005768D01*
X120788904Y-87005768D02*
X120646047Y-87053387D01*
X120646047Y-87053387D02*
X120550809Y-87053387D01*
X120550809Y-87053387D02*
X120407952Y-87005768D01*
X120407952Y-87005768D02*
X120312714Y-86910529D01*
X120312714Y-86910529D02*
X120265095Y-86815291D01*
X120265095Y-86815291D02*
X120217476Y-86624815D01*
X120217476Y-86624815D02*
X120217476Y-86481958D01*
X120217476Y-86481958D02*
X120265095Y-86291482D01*
X120265095Y-86291482D02*
X120312714Y-86196244D01*
X120312714Y-86196244D02*
X120407952Y-86101006D01*
X120407952Y-86101006D02*
X120550809Y-86053387D01*
X120550809Y-86053387D02*
X120646047Y-86053387D01*
X120646047Y-86053387D02*
X120788904Y-86101006D01*
X120788904Y-86101006D02*
X120836523Y-86148625D01*
X121169857Y-86053387D02*
X121788904Y-86053387D01*
X121788904Y-86053387D02*
X121455571Y-86434339D01*
X121455571Y-86434339D02*
X121598428Y-86434339D01*
X121598428Y-86434339D02*
X121693666Y-86481958D01*
X121693666Y-86481958D02*
X121741285Y-86529577D01*
X121741285Y-86529577D02*
X121788904Y-86624815D01*
X121788904Y-86624815D02*
X121788904Y-86862910D01*
X121788904Y-86862910D02*
X121741285Y-86958148D01*
X121741285Y-86958148D02*
X121693666Y-87005768D01*
X121693666Y-87005768D02*
X121598428Y-87053387D01*
X121598428Y-87053387D02*
X121312714Y-87053387D01*
X121312714Y-87053387D02*
X121217476Y-87005768D01*
X121217476Y-87005768D02*
X121169857Y-86958148D01*
%TO.C,C18*%
X168759142Y-78649380D02*
X168711523Y-78697000D01*
X168711523Y-78697000D02*
X168568666Y-78744619D01*
X168568666Y-78744619D02*
X168473428Y-78744619D01*
X168473428Y-78744619D02*
X168330571Y-78697000D01*
X168330571Y-78697000D02*
X168235333Y-78601761D01*
X168235333Y-78601761D02*
X168187714Y-78506523D01*
X168187714Y-78506523D02*
X168140095Y-78316047D01*
X168140095Y-78316047D02*
X168140095Y-78173190D01*
X168140095Y-78173190D02*
X168187714Y-77982714D01*
X168187714Y-77982714D02*
X168235333Y-77887476D01*
X168235333Y-77887476D02*
X168330571Y-77792238D01*
X168330571Y-77792238D02*
X168473428Y-77744619D01*
X168473428Y-77744619D02*
X168568666Y-77744619D01*
X168568666Y-77744619D02*
X168711523Y-77792238D01*
X168711523Y-77792238D02*
X168759142Y-77839857D01*
X169711523Y-78744619D02*
X169140095Y-78744619D01*
X169425809Y-78744619D02*
X169425809Y-77744619D01*
X169425809Y-77744619D02*
X169330571Y-77887476D01*
X169330571Y-77887476D02*
X169235333Y-77982714D01*
X169235333Y-77982714D02*
X169140095Y-78030333D01*
X170282952Y-78173190D02*
X170187714Y-78125571D01*
X170187714Y-78125571D02*
X170140095Y-78077952D01*
X170140095Y-78077952D02*
X170092476Y-77982714D01*
X170092476Y-77982714D02*
X170092476Y-77935095D01*
X170092476Y-77935095D02*
X170140095Y-77839857D01*
X170140095Y-77839857D02*
X170187714Y-77792238D01*
X170187714Y-77792238D02*
X170282952Y-77744619D01*
X170282952Y-77744619D02*
X170473428Y-77744619D01*
X170473428Y-77744619D02*
X170568666Y-77792238D01*
X170568666Y-77792238D02*
X170616285Y-77839857D01*
X170616285Y-77839857D02*
X170663904Y-77935095D01*
X170663904Y-77935095D02*
X170663904Y-77982714D01*
X170663904Y-77982714D02*
X170616285Y-78077952D01*
X170616285Y-78077952D02*
X170568666Y-78125571D01*
X170568666Y-78125571D02*
X170473428Y-78173190D01*
X170473428Y-78173190D02*
X170282952Y-78173190D01*
X170282952Y-78173190D02*
X170187714Y-78220809D01*
X170187714Y-78220809D02*
X170140095Y-78268428D01*
X170140095Y-78268428D02*
X170092476Y-78363666D01*
X170092476Y-78363666D02*
X170092476Y-78554142D01*
X170092476Y-78554142D02*
X170140095Y-78649380D01*
X170140095Y-78649380D02*
X170187714Y-78697000D01*
X170187714Y-78697000D02*
X170282952Y-78744619D01*
X170282952Y-78744619D02*
X170473428Y-78744619D01*
X170473428Y-78744619D02*
X170568666Y-78697000D01*
X170568666Y-78697000D02*
X170616285Y-78649380D01*
X170616285Y-78649380D02*
X170663904Y-78554142D01*
X170663904Y-78554142D02*
X170663904Y-78363666D01*
X170663904Y-78363666D02*
X170616285Y-78268428D01*
X170616285Y-78268428D02*
X170568666Y-78220809D01*
X170568666Y-78220809D02*
X170473428Y-78173190D01*
D12*
%TO.C,J6*%
X152191723Y-91772058D02*
X153098866Y-91772058D01*
X153098866Y-91772058D02*
X153280294Y-91832535D01*
X153280294Y-91832535D02*
X153401247Y-91953487D01*
X153401247Y-91953487D02*
X153461723Y-92134916D01*
X153461723Y-92134916D02*
X153461723Y-92255868D01*
X152191723Y-90623011D02*
X152191723Y-90864916D01*
X152191723Y-90864916D02*
X152252199Y-90985868D01*
X152252199Y-90985868D02*
X152312675Y-91046344D01*
X152312675Y-91046344D02*
X152494104Y-91167297D01*
X152494104Y-91167297D02*
X152736008Y-91227773D01*
X152736008Y-91227773D02*
X153219818Y-91227773D01*
X153219818Y-91227773D02*
X153340770Y-91167297D01*
X153340770Y-91167297D02*
X153401247Y-91106820D01*
X153401247Y-91106820D02*
X153461723Y-90985868D01*
X153461723Y-90985868D02*
X153461723Y-90743963D01*
X153461723Y-90743963D02*
X153401247Y-90623011D01*
X153401247Y-90623011D02*
X153340770Y-90562535D01*
X153340770Y-90562535D02*
X153219818Y-90502058D01*
X153219818Y-90502058D02*
X152917437Y-90502058D01*
X152917437Y-90502058D02*
X152796485Y-90562535D01*
X152796485Y-90562535D02*
X152736008Y-90623011D01*
X152736008Y-90623011D02*
X152675532Y-90743963D01*
X152675532Y-90743963D02*
X152675532Y-90985868D01*
X152675532Y-90985868D02*
X152736008Y-91106820D01*
X152736008Y-91106820D02*
X152796485Y-91167297D01*
X152796485Y-91167297D02*
X152917437Y-91227773D01*
D13*
%TO.C,J2*%
X114068625Y-89065253D02*
X114504054Y-89065253D01*
X114504054Y-89065253D02*
X114591139Y-89094282D01*
X114591139Y-89094282D02*
X114649197Y-89152339D01*
X114649197Y-89152339D02*
X114678225Y-89239425D01*
X114678225Y-89239425D02*
X114678225Y-89297482D01*
X114126682Y-88803996D02*
X114097654Y-88774968D01*
X114097654Y-88774968D02*
X114068625Y-88716911D01*
X114068625Y-88716911D02*
X114068625Y-88571768D01*
X114068625Y-88571768D02*
X114097654Y-88513711D01*
X114097654Y-88513711D02*
X114126682Y-88484682D01*
X114126682Y-88484682D02*
X114184739Y-88455653D01*
X114184739Y-88455653D02*
X114242797Y-88455653D01*
X114242797Y-88455653D02*
X114329882Y-88484682D01*
X114329882Y-88484682D02*
X114678225Y-88833025D01*
X114678225Y-88833025D02*
X114678225Y-88455653D01*
D11*
%TO.C,R13*%
X138076080Y-73890697D02*
X138177095Y-73318277D01*
X137672019Y-73486636D02*
X138379126Y-72779529D01*
X138379126Y-72779529D02*
X138648500Y-73048903D01*
X138648500Y-73048903D02*
X138682171Y-73149918D01*
X138682171Y-73149918D02*
X138682171Y-73217262D01*
X138682171Y-73217262D02*
X138648500Y-73318277D01*
X138648500Y-73318277D02*
X138547484Y-73419292D01*
X138547484Y-73419292D02*
X138446469Y-73452964D01*
X138446469Y-73452964D02*
X138379126Y-73452964D01*
X138379126Y-73452964D02*
X138278110Y-73419292D01*
X138278110Y-73419292D02*
X138008736Y-73149918D01*
X138749515Y-74564132D02*
X138345454Y-74160071D01*
X138547484Y-74362101D02*
X139254591Y-73654995D01*
X139254591Y-73654995D02*
X139086232Y-73688666D01*
X139086232Y-73688666D02*
X138951545Y-73688666D01*
X138951545Y-73688666D02*
X138850530Y-73654995D01*
X139692324Y-74092727D02*
X140130057Y-74530460D01*
X140130057Y-74530460D02*
X139624980Y-74564132D01*
X139624980Y-74564132D02*
X139725996Y-74665147D01*
X139725996Y-74665147D02*
X139759667Y-74766162D01*
X139759667Y-74766162D02*
X139759667Y-74833506D01*
X139759667Y-74833506D02*
X139725996Y-74934521D01*
X139725996Y-74934521D02*
X139557637Y-75102880D01*
X139557637Y-75102880D02*
X139456622Y-75136552D01*
X139456622Y-75136552D02*
X139389278Y-75136552D01*
X139389278Y-75136552D02*
X139288263Y-75102880D01*
X139288263Y-75102880D02*
X139086232Y-74900849D01*
X139086232Y-74900849D02*
X139052561Y-74799834D01*
X139052561Y-74799834D02*
X139052561Y-74732491D01*
%TO.C,U7*%
X142728095Y-64266620D02*
X142728095Y-65076143D01*
X142728095Y-65076143D02*
X142775714Y-65171381D01*
X142775714Y-65171381D02*
X142823333Y-65219001D01*
X142823333Y-65219001D02*
X142918571Y-65266620D01*
X142918571Y-65266620D02*
X143109047Y-65266620D01*
X143109047Y-65266620D02*
X143204285Y-65219001D01*
X143204285Y-65219001D02*
X143251904Y-65171381D01*
X143251904Y-65171381D02*
X143299523Y-65076143D01*
X143299523Y-65076143D02*
X143299523Y-64266620D01*
X143680476Y-64266620D02*
X144347142Y-64266620D01*
X144347142Y-64266620D02*
X143918571Y-65266620D01*
%TO.C,C8*%
X127712549Y-56856117D02*
X127664930Y-56903737D01*
X127664930Y-56903737D02*
X127522073Y-56951356D01*
X127522073Y-56951356D02*
X127426835Y-56951356D01*
X127426835Y-56951356D02*
X127283978Y-56903737D01*
X127283978Y-56903737D02*
X127188740Y-56808498D01*
X127188740Y-56808498D02*
X127141121Y-56713260D01*
X127141121Y-56713260D02*
X127093502Y-56522784D01*
X127093502Y-56522784D02*
X127093502Y-56379927D01*
X127093502Y-56379927D02*
X127141121Y-56189451D01*
X127141121Y-56189451D02*
X127188740Y-56094213D01*
X127188740Y-56094213D02*
X127283978Y-55998975D01*
X127283978Y-55998975D02*
X127426835Y-55951356D01*
X127426835Y-55951356D02*
X127522073Y-55951356D01*
X127522073Y-55951356D02*
X127664930Y-55998975D01*
X127664930Y-55998975D02*
X127712549Y-56046594D01*
X128283978Y-56379927D02*
X128188740Y-56332308D01*
X128188740Y-56332308D02*
X128141121Y-56284689D01*
X128141121Y-56284689D02*
X128093502Y-56189451D01*
X128093502Y-56189451D02*
X128093502Y-56141832D01*
X128093502Y-56141832D02*
X128141121Y-56046594D01*
X128141121Y-56046594D02*
X128188740Y-55998975D01*
X128188740Y-55998975D02*
X128283978Y-55951356D01*
X128283978Y-55951356D02*
X128474454Y-55951356D01*
X128474454Y-55951356D02*
X128569692Y-55998975D01*
X128569692Y-55998975D02*
X128617311Y-56046594D01*
X128617311Y-56046594D02*
X128664930Y-56141832D01*
X128664930Y-56141832D02*
X128664930Y-56189451D01*
X128664930Y-56189451D02*
X128617311Y-56284689D01*
X128617311Y-56284689D02*
X128569692Y-56332308D01*
X128569692Y-56332308D02*
X128474454Y-56379927D01*
X128474454Y-56379927D02*
X128283978Y-56379927D01*
X128283978Y-56379927D02*
X128188740Y-56427546D01*
X128188740Y-56427546D02*
X128141121Y-56475165D01*
X128141121Y-56475165D02*
X128093502Y-56570403D01*
X128093502Y-56570403D02*
X128093502Y-56760879D01*
X128093502Y-56760879D02*
X128141121Y-56856117D01*
X128141121Y-56856117D02*
X128188740Y-56903737D01*
X128188740Y-56903737D02*
X128283978Y-56951356D01*
X128283978Y-56951356D02*
X128474454Y-56951356D01*
X128474454Y-56951356D02*
X128569692Y-56903737D01*
X128569692Y-56903737D02*
X128617311Y-56856117D01*
X128617311Y-56856117D02*
X128664930Y-56760879D01*
X128664930Y-56760879D02*
X128664930Y-56570403D01*
X128664930Y-56570403D02*
X128617311Y-56475165D01*
X128617311Y-56475165D02*
X128569692Y-56427546D01*
X128569692Y-56427546D02*
X128474454Y-56379927D01*
D13*
%TO.C,J10*%
X178869412Y-62723484D02*
X179304841Y-62723484D01*
X179304841Y-62723484D02*
X179391926Y-62752513D01*
X179391926Y-62752513D02*
X179449984Y-62810570D01*
X179449984Y-62810570D02*
X179479012Y-62897656D01*
X179479012Y-62897656D02*
X179479012Y-62955713D01*
X179479012Y-62113884D02*
X179479012Y-62462227D01*
X179479012Y-62288056D02*
X178869412Y-62288056D01*
X178869412Y-62288056D02*
X178956498Y-62346113D01*
X178956498Y-62346113D02*
X179014555Y-62404170D01*
X179014555Y-62404170D02*
X179043584Y-62462227D01*
X178869412Y-61736513D02*
X178869412Y-61678456D01*
X178869412Y-61678456D02*
X178898441Y-61620399D01*
X178898441Y-61620399D02*
X178927469Y-61591371D01*
X178927469Y-61591371D02*
X178985526Y-61562342D01*
X178985526Y-61562342D02*
X179101641Y-61533313D01*
X179101641Y-61533313D02*
X179246784Y-61533313D01*
X179246784Y-61533313D02*
X179362898Y-61562342D01*
X179362898Y-61562342D02*
X179420955Y-61591371D01*
X179420955Y-61591371D02*
X179449984Y-61620399D01*
X179449984Y-61620399D02*
X179479012Y-61678456D01*
X179479012Y-61678456D02*
X179479012Y-61736513D01*
X179479012Y-61736513D02*
X179449984Y-61794571D01*
X179449984Y-61794571D02*
X179420955Y-61823599D01*
X179420955Y-61823599D02*
X179362898Y-61852628D01*
X179362898Y-61852628D02*
X179246784Y-61881656D01*
X179246784Y-61881656D02*
X179101641Y-61881656D01*
X179101641Y-61881656D02*
X178985526Y-61852628D01*
X178985526Y-61852628D02*
X178927469Y-61823599D01*
X178927469Y-61823599D02*
X178898441Y-61794571D01*
X178898441Y-61794571D02*
X178869412Y-61736513D01*
D11*
%TO.C,C14*%
X143637380Y-59824857D02*
X143685000Y-59872476D01*
X143685000Y-59872476D02*
X143732619Y-60015333D01*
X143732619Y-60015333D02*
X143732619Y-60110571D01*
X143732619Y-60110571D02*
X143685000Y-60253428D01*
X143685000Y-60253428D02*
X143589761Y-60348666D01*
X143589761Y-60348666D02*
X143494523Y-60396285D01*
X143494523Y-60396285D02*
X143304047Y-60443904D01*
X143304047Y-60443904D02*
X143161190Y-60443904D01*
X143161190Y-60443904D02*
X142970714Y-60396285D01*
X142970714Y-60396285D02*
X142875476Y-60348666D01*
X142875476Y-60348666D02*
X142780238Y-60253428D01*
X142780238Y-60253428D02*
X142732619Y-60110571D01*
X142732619Y-60110571D02*
X142732619Y-60015333D01*
X142732619Y-60015333D02*
X142780238Y-59872476D01*
X142780238Y-59872476D02*
X142827857Y-59824857D01*
X143732619Y-58872476D02*
X143732619Y-59443904D01*
X143732619Y-59158190D02*
X142732619Y-59158190D01*
X142732619Y-59158190D02*
X142875476Y-59253428D01*
X142875476Y-59253428D02*
X142970714Y-59348666D01*
X142970714Y-59348666D02*
X143018333Y-59443904D01*
X143065952Y-58015333D02*
X143732619Y-58015333D01*
X142685000Y-58253428D02*
X143399285Y-58491523D01*
X143399285Y-58491523D02*
X143399285Y-57872476D01*
%TO.C,R29*%
X141130792Y-89550410D02*
X140797459Y-89074219D01*
X140559364Y-89550410D02*
X140559364Y-88550410D01*
X140559364Y-88550410D02*
X140940316Y-88550410D01*
X140940316Y-88550410D02*
X141035554Y-88598029D01*
X141035554Y-88598029D02*
X141083173Y-88645648D01*
X141083173Y-88645648D02*
X141130792Y-88740886D01*
X141130792Y-88740886D02*
X141130792Y-88883743D01*
X141130792Y-88883743D02*
X141083173Y-88978981D01*
X141083173Y-88978981D02*
X141035554Y-89026600D01*
X141035554Y-89026600D02*
X140940316Y-89074219D01*
X140940316Y-89074219D02*
X140559364Y-89074219D01*
X141511745Y-88645648D02*
X141559364Y-88598029D01*
X141559364Y-88598029D02*
X141654602Y-88550410D01*
X141654602Y-88550410D02*
X141892697Y-88550410D01*
X141892697Y-88550410D02*
X141987935Y-88598029D01*
X141987935Y-88598029D02*
X142035554Y-88645648D01*
X142035554Y-88645648D02*
X142083173Y-88740886D01*
X142083173Y-88740886D02*
X142083173Y-88836124D01*
X142083173Y-88836124D02*
X142035554Y-88978981D01*
X142035554Y-88978981D02*
X141464126Y-89550410D01*
X141464126Y-89550410D02*
X142083173Y-89550410D01*
X142559364Y-89550410D02*
X142749840Y-89550410D01*
X142749840Y-89550410D02*
X142845078Y-89502791D01*
X142845078Y-89502791D02*
X142892697Y-89455171D01*
X142892697Y-89455171D02*
X142987935Y-89312314D01*
X142987935Y-89312314D02*
X143035554Y-89121838D01*
X143035554Y-89121838D02*
X143035554Y-88740886D01*
X143035554Y-88740886D02*
X142987935Y-88645648D01*
X142987935Y-88645648D02*
X142940316Y-88598029D01*
X142940316Y-88598029D02*
X142845078Y-88550410D01*
X142845078Y-88550410D02*
X142654602Y-88550410D01*
X142654602Y-88550410D02*
X142559364Y-88598029D01*
X142559364Y-88598029D02*
X142511745Y-88645648D01*
X142511745Y-88645648D02*
X142464126Y-88740886D01*
X142464126Y-88740886D02*
X142464126Y-88978981D01*
X142464126Y-88978981D02*
X142511745Y-89074219D01*
X142511745Y-89074219D02*
X142559364Y-89121838D01*
X142559364Y-89121838D02*
X142654602Y-89169457D01*
X142654602Y-89169457D02*
X142845078Y-89169457D01*
X142845078Y-89169457D02*
X142940316Y-89121838D01*
X142940316Y-89121838D02*
X142987935Y-89074219D01*
X142987935Y-89074219D02*
X143035554Y-88978981D01*
%TO.C,R31*%
X130227173Y-75213661D02*
X129893840Y-74737470D01*
X129655745Y-75213661D02*
X129655745Y-74213661D01*
X129655745Y-74213661D02*
X130036697Y-74213661D01*
X130036697Y-74213661D02*
X130131935Y-74261280D01*
X130131935Y-74261280D02*
X130179554Y-74308899D01*
X130179554Y-74308899D02*
X130227173Y-74404137D01*
X130227173Y-74404137D02*
X130227173Y-74546994D01*
X130227173Y-74546994D02*
X130179554Y-74642232D01*
X130179554Y-74642232D02*
X130131935Y-74689851D01*
X130131935Y-74689851D02*
X130036697Y-74737470D01*
X130036697Y-74737470D02*
X129655745Y-74737470D01*
X130560507Y-74213661D02*
X131179554Y-74213661D01*
X131179554Y-74213661D02*
X130846221Y-74594613D01*
X130846221Y-74594613D02*
X130989078Y-74594613D01*
X130989078Y-74594613D02*
X131084316Y-74642232D01*
X131084316Y-74642232D02*
X131131935Y-74689851D01*
X131131935Y-74689851D02*
X131179554Y-74785089D01*
X131179554Y-74785089D02*
X131179554Y-75023184D01*
X131179554Y-75023184D02*
X131131935Y-75118422D01*
X131131935Y-75118422D02*
X131084316Y-75166042D01*
X131084316Y-75166042D02*
X130989078Y-75213661D01*
X130989078Y-75213661D02*
X130703364Y-75213661D01*
X130703364Y-75213661D02*
X130608126Y-75166042D01*
X130608126Y-75166042D02*
X130560507Y-75118422D01*
X132131935Y-75213661D02*
X131560507Y-75213661D01*
X131846221Y-75213661D02*
X131846221Y-74213661D01*
X131846221Y-74213661D02*
X131750983Y-74356518D01*
X131750983Y-74356518D02*
X131655745Y-74451756D01*
X131655745Y-74451756D02*
X131560507Y-74499375D01*
%TO.C,R30*%
X157085661Y-58800826D02*
X156609470Y-59134159D01*
X157085661Y-59372254D02*
X156085661Y-59372254D01*
X156085661Y-59372254D02*
X156085661Y-58991302D01*
X156085661Y-58991302D02*
X156133280Y-58896064D01*
X156133280Y-58896064D02*
X156180899Y-58848445D01*
X156180899Y-58848445D02*
X156276137Y-58800826D01*
X156276137Y-58800826D02*
X156418994Y-58800826D01*
X156418994Y-58800826D02*
X156514232Y-58848445D01*
X156514232Y-58848445D02*
X156561851Y-58896064D01*
X156561851Y-58896064D02*
X156609470Y-58991302D01*
X156609470Y-58991302D02*
X156609470Y-59372254D01*
X156085661Y-58467492D02*
X156085661Y-57848445D01*
X156085661Y-57848445D02*
X156466613Y-58181778D01*
X156466613Y-58181778D02*
X156466613Y-58038921D01*
X156466613Y-58038921D02*
X156514232Y-57943683D01*
X156514232Y-57943683D02*
X156561851Y-57896064D01*
X156561851Y-57896064D02*
X156657089Y-57848445D01*
X156657089Y-57848445D02*
X156895184Y-57848445D01*
X156895184Y-57848445D02*
X156990422Y-57896064D01*
X156990422Y-57896064D02*
X157038042Y-57943683D01*
X157038042Y-57943683D02*
X157085661Y-58038921D01*
X157085661Y-58038921D02*
X157085661Y-58324635D01*
X157085661Y-58324635D02*
X157038042Y-58419873D01*
X157038042Y-58419873D02*
X156990422Y-58467492D01*
X156085661Y-57229397D02*
X156085661Y-57134159D01*
X156085661Y-57134159D02*
X156133280Y-57038921D01*
X156133280Y-57038921D02*
X156180899Y-56991302D01*
X156180899Y-56991302D02*
X156276137Y-56943683D01*
X156276137Y-56943683D02*
X156466613Y-56896064D01*
X156466613Y-56896064D02*
X156704708Y-56896064D01*
X156704708Y-56896064D02*
X156895184Y-56943683D01*
X156895184Y-56943683D02*
X156990422Y-56991302D01*
X156990422Y-56991302D02*
X157038042Y-57038921D01*
X157038042Y-57038921D02*
X157085661Y-57134159D01*
X157085661Y-57134159D02*
X157085661Y-57229397D01*
X157085661Y-57229397D02*
X157038042Y-57324635D01*
X157038042Y-57324635D02*
X156990422Y-57372254D01*
X156990422Y-57372254D02*
X156895184Y-57419873D01*
X156895184Y-57419873D02*
X156704708Y-57467492D01*
X156704708Y-57467492D02*
X156466613Y-57467492D01*
X156466613Y-57467492D02*
X156276137Y-57419873D01*
X156276137Y-57419873D02*
X156180899Y-57372254D01*
X156180899Y-57372254D02*
X156133280Y-57324635D01*
X156133280Y-57324635D02*
X156085661Y-57229397D01*
%TO.C,C10*%
X139359588Y-64091077D02*
X139311969Y-64138697D01*
X139311969Y-64138697D02*
X139169112Y-64186316D01*
X139169112Y-64186316D02*
X139073874Y-64186316D01*
X139073874Y-64186316D02*
X138931017Y-64138697D01*
X138931017Y-64138697D02*
X138835779Y-64043458D01*
X138835779Y-64043458D02*
X138788160Y-63948220D01*
X138788160Y-63948220D02*
X138740541Y-63757744D01*
X138740541Y-63757744D02*
X138740541Y-63614887D01*
X138740541Y-63614887D02*
X138788160Y-63424411D01*
X138788160Y-63424411D02*
X138835779Y-63329173D01*
X138835779Y-63329173D02*
X138931017Y-63233935D01*
X138931017Y-63233935D02*
X139073874Y-63186316D01*
X139073874Y-63186316D02*
X139169112Y-63186316D01*
X139169112Y-63186316D02*
X139311969Y-63233935D01*
X139311969Y-63233935D02*
X139359588Y-63281554D01*
X140311969Y-64186316D02*
X139740541Y-64186316D01*
X140026255Y-64186316D02*
X140026255Y-63186316D01*
X140026255Y-63186316D02*
X139931017Y-63329173D01*
X139931017Y-63329173D02*
X139835779Y-63424411D01*
X139835779Y-63424411D02*
X139740541Y-63472030D01*
X140931017Y-63186316D02*
X141026255Y-63186316D01*
X141026255Y-63186316D02*
X141121493Y-63233935D01*
X141121493Y-63233935D02*
X141169112Y-63281554D01*
X141169112Y-63281554D02*
X141216731Y-63376792D01*
X141216731Y-63376792D02*
X141264350Y-63567268D01*
X141264350Y-63567268D02*
X141264350Y-63805363D01*
X141264350Y-63805363D02*
X141216731Y-63995839D01*
X141216731Y-63995839D02*
X141169112Y-64091077D01*
X141169112Y-64091077D02*
X141121493Y-64138697D01*
X141121493Y-64138697D02*
X141026255Y-64186316D01*
X141026255Y-64186316D02*
X140931017Y-64186316D01*
X140931017Y-64186316D02*
X140835779Y-64138697D01*
X140835779Y-64138697D02*
X140788160Y-64091077D01*
X140788160Y-64091077D02*
X140740541Y-63995839D01*
X140740541Y-63995839D02*
X140692922Y-63805363D01*
X140692922Y-63805363D02*
X140692922Y-63567268D01*
X140692922Y-63567268D02*
X140740541Y-63376792D01*
X140740541Y-63376792D02*
X140788160Y-63281554D01*
X140788160Y-63281554D02*
X140835779Y-63233935D01*
X140835779Y-63233935D02*
X140931017Y-63186316D01*
%TO.C,C17*%
X152205380Y-66682857D02*
X152253000Y-66730476D01*
X152253000Y-66730476D02*
X152300619Y-66873333D01*
X152300619Y-66873333D02*
X152300619Y-66968571D01*
X152300619Y-66968571D02*
X152253000Y-67111428D01*
X152253000Y-67111428D02*
X152157761Y-67206666D01*
X152157761Y-67206666D02*
X152062523Y-67254285D01*
X152062523Y-67254285D02*
X151872047Y-67301904D01*
X151872047Y-67301904D02*
X151729190Y-67301904D01*
X151729190Y-67301904D02*
X151538714Y-67254285D01*
X151538714Y-67254285D02*
X151443476Y-67206666D01*
X151443476Y-67206666D02*
X151348238Y-67111428D01*
X151348238Y-67111428D02*
X151300619Y-66968571D01*
X151300619Y-66968571D02*
X151300619Y-66873333D01*
X151300619Y-66873333D02*
X151348238Y-66730476D01*
X151348238Y-66730476D02*
X151395857Y-66682857D01*
X152300619Y-65730476D02*
X152300619Y-66301904D01*
X152300619Y-66016190D02*
X151300619Y-66016190D01*
X151300619Y-66016190D02*
X151443476Y-66111428D01*
X151443476Y-66111428D02*
X151538714Y-66206666D01*
X151538714Y-66206666D02*
X151586333Y-66301904D01*
X151300619Y-65397142D02*
X151300619Y-64730476D01*
X151300619Y-64730476D02*
X152300619Y-65159047D01*
%TO.C,C19*%
X159186244Y-79135699D02*
X159118901Y-79135699D01*
X159118901Y-79135699D02*
X158984214Y-79068356D01*
X158984214Y-79068356D02*
X158916870Y-79001012D01*
X158916870Y-79001012D02*
X158849527Y-78866325D01*
X158849527Y-78866325D02*
X158849527Y-78731638D01*
X158849527Y-78731638D02*
X158883198Y-78630623D01*
X158883198Y-78630623D02*
X158984214Y-78462264D01*
X158984214Y-78462264D02*
X159085229Y-78361249D01*
X159085229Y-78361249D02*
X159253588Y-78260234D01*
X159253588Y-78260234D02*
X159354603Y-78226562D01*
X159354603Y-78226562D02*
X159489290Y-78226562D01*
X159489290Y-78226562D02*
X159623977Y-78293906D01*
X159623977Y-78293906D02*
X159691321Y-78361249D01*
X159691321Y-78361249D02*
X159758664Y-78495936D01*
X159758664Y-78495936D02*
X159758664Y-78563280D01*
X159792336Y-79876478D02*
X159388275Y-79472417D01*
X159590305Y-79674447D02*
X160297412Y-78967341D01*
X160297412Y-78967341D02*
X160129053Y-79001012D01*
X160129053Y-79001012D02*
X159994366Y-79001012D01*
X159994366Y-79001012D02*
X159893351Y-78967341D01*
X160129053Y-80213195D02*
X160263740Y-80347882D01*
X160263740Y-80347882D02*
X160364756Y-80381554D01*
X160364756Y-80381554D02*
X160432099Y-80381554D01*
X160432099Y-80381554D02*
X160600458Y-80347882D01*
X160600458Y-80347882D02*
X160768817Y-80246867D01*
X160768817Y-80246867D02*
X161038191Y-79977493D01*
X161038191Y-79977493D02*
X161071862Y-79876478D01*
X161071862Y-79876478D02*
X161071862Y-79809134D01*
X161071862Y-79809134D02*
X161038191Y-79708119D01*
X161038191Y-79708119D02*
X160903504Y-79573432D01*
X160903504Y-79573432D02*
X160802488Y-79539760D01*
X160802488Y-79539760D02*
X160735145Y-79539760D01*
X160735145Y-79539760D02*
X160634130Y-79573432D01*
X160634130Y-79573432D02*
X160465771Y-79741791D01*
X160465771Y-79741791D02*
X160432099Y-79842806D01*
X160432099Y-79842806D02*
X160432099Y-79910150D01*
X160432099Y-79910150D02*
X160465771Y-80011165D01*
X160465771Y-80011165D02*
X160600458Y-80145852D01*
X160600458Y-80145852D02*
X160701473Y-80179524D01*
X160701473Y-80179524D02*
X160768817Y-80179524D01*
X160768817Y-80179524D02*
X160869832Y-80145852D01*
%TO.C,R6*%
X143634153Y-76516189D02*
X143735168Y-75943769D01*
X143230092Y-76112128D02*
X143937198Y-75405021D01*
X143937198Y-75405021D02*
X144206572Y-75674395D01*
X144206572Y-75674395D02*
X144240244Y-75775410D01*
X144240244Y-75775410D02*
X144240244Y-75842754D01*
X144240244Y-75842754D02*
X144206572Y-75943769D01*
X144206572Y-75943769D02*
X144105557Y-76044784D01*
X144105557Y-76044784D02*
X144004542Y-76078456D01*
X144004542Y-76078456D02*
X143937198Y-76078456D01*
X143937198Y-76078456D02*
X143836183Y-76044784D01*
X143836183Y-76044784D02*
X143566809Y-75775410D01*
X144947351Y-76415174D02*
X144812664Y-76280487D01*
X144812664Y-76280487D02*
X144711649Y-76246815D01*
X144711649Y-76246815D02*
X144644305Y-76246815D01*
X144644305Y-76246815D02*
X144475946Y-76280487D01*
X144475946Y-76280487D02*
X144307588Y-76381502D01*
X144307588Y-76381502D02*
X144038214Y-76650876D01*
X144038214Y-76650876D02*
X144004542Y-76751891D01*
X144004542Y-76751891D02*
X144004542Y-76819235D01*
X144004542Y-76819235D02*
X144038214Y-76920250D01*
X144038214Y-76920250D02*
X144172901Y-77054937D01*
X144172901Y-77054937D02*
X144273916Y-77088609D01*
X144273916Y-77088609D02*
X144341259Y-77088609D01*
X144341259Y-77088609D02*
X144442275Y-77054937D01*
X144442275Y-77054937D02*
X144610633Y-76886578D01*
X144610633Y-76886578D02*
X144644305Y-76785563D01*
X144644305Y-76785563D02*
X144644305Y-76718219D01*
X144644305Y-76718219D02*
X144610633Y-76617204D01*
X144610633Y-76617204D02*
X144475946Y-76482517D01*
X144475946Y-76482517D02*
X144374931Y-76448845D01*
X144374931Y-76448845D02*
X144307588Y-76448845D01*
X144307588Y-76448845D02*
X144206572Y-76482517D01*
%TO.C,R32*%
X140890105Y-88039505D02*
X140556772Y-87563314D01*
X140318677Y-88039505D02*
X140318677Y-87039505D01*
X140318677Y-87039505D02*
X140699629Y-87039505D01*
X140699629Y-87039505D02*
X140794867Y-87087124D01*
X140794867Y-87087124D02*
X140842486Y-87134743D01*
X140842486Y-87134743D02*
X140890105Y-87229981D01*
X140890105Y-87229981D02*
X140890105Y-87372838D01*
X140890105Y-87372838D02*
X140842486Y-87468076D01*
X140842486Y-87468076D02*
X140794867Y-87515695D01*
X140794867Y-87515695D02*
X140699629Y-87563314D01*
X140699629Y-87563314D02*
X140318677Y-87563314D01*
X141223439Y-87039505D02*
X141842486Y-87039505D01*
X141842486Y-87039505D02*
X141509153Y-87420457D01*
X141509153Y-87420457D02*
X141652010Y-87420457D01*
X141652010Y-87420457D02*
X141747248Y-87468076D01*
X141747248Y-87468076D02*
X141794867Y-87515695D01*
X141794867Y-87515695D02*
X141842486Y-87610933D01*
X141842486Y-87610933D02*
X141842486Y-87849028D01*
X141842486Y-87849028D02*
X141794867Y-87944266D01*
X141794867Y-87944266D02*
X141747248Y-87991886D01*
X141747248Y-87991886D02*
X141652010Y-88039505D01*
X141652010Y-88039505D02*
X141366296Y-88039505D01*
X141366296Y-88039505D02*
X141271058Y-87991886D01*
X141271058Y-87991886D02*
X141223439Y-87944266D01*
X142223439Y-87134743D02*
X142271058Y-87087124D01*
X142271058Y-87087124D02*
X142366296Y-87039505D01*
X142366296Y-87039505D02*
X142604391Y-87039505D01*
X142604391Y-87039505D02*
X142699629Y-87087124D01*
X142699629Y-87087124D02*
X142747248Y-87134743D01*
X142747248Y-87134743D02*
X142794867Y-87229981D01*
X142794867Y-87229981D02*
X142794867Y-87325219D01*
X142794867Y-87325219D02*
X142747248Y-87468076D01*
X142747248Y-87468076D02*
X142175820Y-88039505D01*
X142175820Y-88039505D02*
X142794867Y-88039505D01*
%TO.C,C16*%
X138466023Y-67747161D02*
X138466023Y-67814504D01*
X138466023Y-67814504D02*
X138398680Y-67949191D01*
X138398680Y-67949191D02*
X138331336Y-68016535D01*
X138331336Y-68016535D02*
X138196649Y-68083878D01*
X138196649Y-68083878D02*
X138061962Y-68083878D01*
X138061962Y-68083878D02*
X137960947Y-68050207D01*
X137960947Y-68050207D02*
X137792588Y-67949191D01*
X137792588Y-67949191D02*
X137691573Y-67848176D01*
X137691573Y-67848176D02*
X137590558Y-67679817D01*
X137590558Y-67679817D02*
X137556886Y-67578802D01*
X137556886Y-67578802D02*
X137556886Y-67444115D01*
X137556886Y-67444115D02*
X137624230Y-67309428D01*
X137624230Y-67309428D02*
X137691573Y-67242084D01*
X137691573Y-67242084D02*
X137826260Y-67174741D01*
X137826260Y-67174741D02*
X137893604Y-67174741D01*
X139206802Y-67141069D02*
X138802741Y-67545130D01*
X139004771Y-67343100D02*
X138297665Y-66635993D01*
X138297665Y-66635993D02*
X138331336Y-66804352D01*
X138331336Y-66804352D02*
X138331336Y-66939039D01*
X138331336Y-66939039D02*
X138297665Y-67040054D01*
X139105787Y-65827871D02*
X138971100Y-65962558D01*
X138971100Y-65962558D02*
X138937428Y-66063573D01*
X138937428Y-66063573D02*
X138937428Y-66130917D01*
X138937428Y-66130917D02*
X138971100Y-66299275D01*
X138971100Y-66299275D02*
X139072115Y-66467634D01*
X139072115Y-66467634D02*
X139341489Y-66737008D01*
X139341489Y-66737008D02*
X139442504Y-66770680D01*
X139442504Y-66770680D02*
X139509848Y-66770680D01*
X139509848Y-66770680D02*
X139610863Y-66737008D01*
X139610863Y-66737008D02*
X139745550Y-66602321D01*
X139745550Y-66602321D02*
X139779222Y-66501306D01*
X139779222Y-66501306D02*
X139779222Y-66433962D01*
X139779222Y-66433962D02*
X139745550Y-66332947D01*
X139745550Y-66332947D02*
X139577191Y-66164588D01*
X139577191Y-66164588D02*
X139476176Y-66130917D01*
X139476176Y-66130917D02*
X139408832Y-66130917D01*
X139408832Y-66130917D02*
X139307817Y-66164588D01*
X139307817Y-66164588D02*
X139173130Y-66299275D01*
X139173130Y-66299275D02*
X139139458Y-66400291D01*
X139139458Y-66400291D02*
X139139458Y-66467634D01*
X139139458Y-66467634D02*
X139173130Y-66568649D01*
%TO.C,C12*%
X145037380Y-61348858D02*
X145085000Y-61396477D01*
X145085000Y-61396477D02*
X145132619Y-61539334D01*
X145132619Y-61539334D02*
X145132619Y-61634572D01*
X145132619Y-61634572D02*
X145085000Y-61777429D01*
X145085000Y-61777429D02*
X144989761Y-61872667D01*
X144989761Y-61872667D02*
X144894523Y-61920286D01*
X144894523Y-61920286D02*
X144704047Y-61967905D01*
X144704047Y-61967905D02*
X144561190Y-61967905D01*
X144561190Y-61967905D02*
X144370714Y-61920286D01*
X144370714Y-61920286D02*
X144275476Y-61872667D01*
X144275476Y-61872667D02*
X144180238Y-61777429D01*
X144180238Y-61777429D02*
X144132619Y-61634572D01*
X144132619Y-61634572D02*
X144132619Y-61539334D01*
X144132619Y-61539334D02*
X144180238Y-61396477D01*
X144180238Y-61396477D02*
X144227857Y-61348858D01*
X145132619Y-60396477D02*
X145132619Y-60967905D01*
X145132619Y-60682191D02*
X144132619Y-60682191D01*
X144132619Y-60682191D02*
X144275476Y-60777429D01*
X144275476Y-60777429D02*
X144370714Y-60872667D01*
X144370714Y-60872667D02*
X144418333Y-60967905D01*
X144227857Y-60015524D02*
X144180238Y-59967905D01*
X144180238Y-59967905D02*
X144132619Y-59872667D01*
X144132619Y-59872667D02*
X144132619Y-59634572D01*
X144132619Y-59634572D02*
X144180238Y-59539334D01*
X144180238Y-59539334D02*
X144227857Y-59491715D01*
X144227857Y-59491715D02*
X144323095Y-59444096D01*
X144323095Y-59444096D02*
X144418333Y-59444096D01*
X144418333Y-59444096D02*
X144561190Y-59491715D01*
X144561190Y-59491715D02*
X145132619Y-60063143D01*
X145132619Y-60063143D02*
X145132619Y-59444096D01*
%TO.C,C11*%
X150703142Y-59223380D02*
X150655523Y-59271000D01*
X150655523Y-59271000D02*
X150512666Y-59318619D01*
X150512666Y-59318619D02*
X150417428Y-59318619D01*
X150417428Y-59318619D02*
X150274571Y-59271000D01*
X150274571Y-59271000D02*
X150179333Y-59175761D01*
X150179333Y-59175761D02*
X150131714Y-59080523D01*
X150131714Y-59080523D02*
X150084095Y-58890047D01*
X150084095Y-58890047D02*
X150084095Y-58747190D01*
X150084095Y-58747190D02*
X150131714Y-58556714D01*
X150131714Y-58556714D02*
X150179333Y-58461476D01*
X150179333Y-58461476D02*
X150274571Y-58366238D01*
X150274571Y-58366238D02*
X150417428Y-58318619D01*
X150417428Y-58318619D02*
X150512666Y-58318619D01*
X150512666Y-58318619D02*
X150655523Y-58366238D01*
X150655523Y-58366238D02*
X150703142Y-58413857D01*
X151655523Y-59318619D02*
X151084095Y-59318619D01*
X151369809Y-59318619D02*
X151369809Y-58318619D01*
X151369809Y-58318619D02*
X151274571Y-58461476D01*
X151274571Y-58461476D02*
X151179333Y-58556714D01*
X151179333Y-58556714D02*
X151084095Y-58604333D01*
X152607904Y-59318619D02*
X152036476Y-59318619D01*
X152322190Y-59318619D02*
X152322190Y-58318619D01*
X152322190Y-58318619D02*
X152226952Y-58461476D01*
X152226952Y-58461476D02*
X152131714Y-58556714D01*
X152131714Y-58556714D02*
X152036476Y-58604333D01*
%TO.C,R12*%
X135210581Y-68474290D02*
X134638161Y-68373275D01*
X134806520Y-68878351D02*
X134099413Y-68171244D01*
X134099413Y-68171244D02*
X134368787Y-67901870D01*
X134368787Y-67901870D02*
X134469802Y-67868199D01*
X134469802Y-67868199D02*
X134537146Y-67868199D01*
X134537146Y-67868199D02*
X134638161Y-67901870D01*
X134638161Y-67901870D02*
X134739176Y-68002886D01*
X134739176Y-68002886D02*
X134772848Y-68103901D01*
X134772848Y-68103901D02*
X134772848Y-68171244D01*
X134772848Y-68171244D02*
X134739176Y-68272260D01*
X134739176Y-68272260D02*
X134469802Y-68541634D01*
X135884016Y-67800855D02*
X135479955Y-68204916D01*
X135681985Y-68002886D02*
X134974879Y-67295779D01*
X134974879Y-67295779D02*
X135008550Y-67464138D01*
X135008550Y-67464138D02*
X135008550Y-67598825D01*
X135008550Y-67598825D02*
X134974879Y-67699840D01*
X135513627Y-66891718D02*
X135513627Y-66824374D01*
X135513627Y-66824374D02*
X135547298Y-66723359D01*
X135547298Y-66723359D02*
X135715657Y-66555000D01*
X135715657Y-66555000D02*
X135816672Y-66521329D01*
X135816672Y-66521329D02*
X135884016Y-66521329D01*
X135884016Y-66521329D02*
X135985031Y-66555000D01*
X135985031Y-66555000D02*
X136052375Y-66622344D01*
X136052375Y-66622344D02*
X136119718Y-66757031D01*
X136119718Y-66757031D02*
X136119718Y-67565153D01*
X136119718Y-67565153D02*
X136557451Y-67127420D01*
%TO.C,C9*%
X150671333Y-57923380D02*
X150623714Y-57971000D01*
X150623714Y-57971000D02*
X150480857Y-58018619D01*
X150480857Y-58018619D02*
X150385619Y-58018619D01*
X150385619Y-58018619D02*
X150242762Y-57971000D01*
X150242762Y-57971000D02*
X150147524Y-57875761D01*
X150147524Y-57875761D02*
X150099905Y-57780523D01*
X150099905Y-57780523D02*
X150052286Y-57590047D01*
X150052286Y-57590047D02*
X150052286Y-57447190D01*
X150052286Y-57447190D02*
X150099905Y-57256714D01*
X150099905Y-57256714D02*
X150147524Y-57161476D01*
X150147524Y-57161476D02*
X150242762Y-57066238D01*
X150242762Y-57066238D02*
X150385619Y-57018619D01*
X150385619Y-57018619D02*
X150480857Y-57018619D01*
X150480857Y-57018619D02*
X150623714Y-57066238D01*
X150623714Y-57066238D02*
X150671333Y-57113857D01*
X151147524Y-58018619D02*
X151338000Y-58018619D01*
X151338000Y-58018619D02*
X151433238Y-57971000D01*
X151433238Y-57971000D02*
X151480857Y-57923380D01*
X151480857Y-57923380D02*
X151576095Y-57780523D01*
X151576095Y-57780523D02*
X151623714Y-57590047D01*
X151623714Y-57590047D02*
X151623714Y-57209095D01*
X151623714Y-57209095D02*
X151576095Y-57113857D01*
X151576095Y-57113857D02*
X151528476Y-57066238D01*
X151528476Y-57066238D02*
X151433238Y-57018619D01*
X151433238Y-57018619D02*
X151242762Y-57018619D01*
X151242762Y-57018619D02*
X151147524Y-57066238D01*
X151147524Y-57066238D02*
X151099905Y-57113857D01*
X151099905Y-57113857D02*
X151052286Y-57209095D01*
X151052286Y-57209095D02*
X151052286Y-57447190D01*
X151052286Y-57447190D02*
X151099905Y-57542428D01*
X151099905Y-57542428D02*
X151147524Y-57590047D01*
X151147524Y-57590047D02*
X151242762Y-57637666D01*
X151242762Y-57637666D02*
X151433238Y-57637666D01*
X151433238Y-57637666D02*
X151528476Y-57590047D01*
X151528476Y-57590047D02*
X151576095Y-57542428D01*
X151576095Y-57542428D02*
X151623714Y-57447190D01*
%TO.C,C7*%
X127244380Y-64969782D02*
X127292000Y-65017401D01*
X127292000Y-65017401D02*
X127339619Y-65160258D01*
X127339619Y-65160258D02*
X127339619Y-65255496D01*
X127339619Y-65255496D02*
X127292000Y-65398353D01*
X127292000Y-65398353D02*
X127196761Y-65493591D01*
X127196761Y-65493591D02*
X127101523Y-65541210D01*
X127101523Y-65541210D02*
X126911047Y-65588829D01*
X126911047Y-65588829D02*
X126768190Y-65588829D01*
X126768190Y-65588829D02*
X126577714Y-65541210D01*
X126577714Y-65541210D02*
X126482476Y-65493591D01*
X126482476Y-65493591D02*
X126387238Y-65398353D01*
X126387238Y-65398353D02*
X126339619Y-65255496D01*
X126339619Y-65255496D02*
X126339619Y-65160258D01*
X126339619Y-65160258D02*
X126387238Y-65017401D01*
X126387238Y-65017401D02*
X126434857Y-64969782D01*
X126339619Y-64636448D02*
X126339619Y-63969782D01*
X126339619Y-63969782D02*
X127339619Y-64398353D01*
D13*
%TO.C,J3*%
X120882412Y-69968109D02*
X121317841Y-69968109D01*
X121317841Y-69968109D02*
X121404926Y-69997138D01*
X121404926Y-69997138D02*
X121462984Y-70055195D01*
X121462984Y-70055195D02*
X121492012Y-70142281D01*
X121492012Y-70142281D02*
X121492012Y-70200338D01*
X120882412Y-69735881D02*
X120882412Y-69358509D01*
X120882412Y-69358509D02*
X121114641Y-69561709D01*
X121114641Y-69561709D02*
X121114641Y-69474624D01*
X121114641Y-69474624D02*
X121143669Y-69416567D01*
X121143669Y-69416567D02*
X121172698Y-69387538D01*
X121172698Y-69387538D02*
X121230755Y-69358509D01*
X121230755Y-69358509D02*
X121375898Y-69358509D01*
X121375898Y-69358509D02*
X121433955Y-69387538D01*
X121433955Y-69387538D02*
X121462984Y-69416567D01*
X121462984Y-69416567D02*
X121492012Y-69474624D01*
X121492012Y-69474624D02*
X121492012Y-69648795D01*
X121492012Y-69648795D02*
X121462984Y-69706852D01*
X121462984Y-69706852D02*
X121433955Y-69735881D01*
D11*
%TO.C,R28*%
X147980511Y-90291035D02*
X147647178Y-89814844D01*
X147409083Y-90291035D02*
X147409083Y-89291035D01*
X147409083Y-89291035D02*
X147790035Y-89291035D01*
X147790035Y-89291035D02*
X147885273Y-89338654D01*
X147885273Y-89338654D02*
X147932892Y-89386273D01*
X147932892Y-89386273D02*
X147980511Y-89481511D01*
X147980511Y-89481511D02*
X147980511Y-89624368D01*
X147980511Y-89624368D02*
X147932892Y-89719606D01*
X147932892Y-89719606D02*
X147885273Y-89767225D01*
X147885273Y-89767225D02*
X147790035Y-89814844D01*
X147790035Y-89814844D02*
X147409083Y-89814844D01*
X148361464Y-89386273D02*
X148409083Y-89338654D01*
X148409083Y-89338654D02*
X148504321Y-89291035D01*
X148504321Y-89291035D02*
X148742416Y-89291035D01*
X148742416Y-89291035D02*
X148837654Y-89338654D01*
X148837654Y-89338654D02*
X148885273Y-89386273D01*
X148885273Y-89386273D02*
X148932892Y-89481511D01*
X148932892Y-89481511D02*
X148932892Y-89576749D01*
X148932892Y-89576749D02*
X148885273Y-89719606D01*
X148885273Y-89719606D02*
X148313845Y-90291035D01*
X148313845Y-90291035D02*
X148932892Y-90291035D01*
X149504321Y-89719606D02*
X149409083Y-89671987D01*
X149409083Y-89671987D02*
X149361464Y-89624368D01*
X149361464Y-89624368D02*
X149313845Y-89529130D01*
X149313845Y-89529130D02*
X149313845Y-89481511D01*
X149313845Y-89481511D02*
X149361464Y-89386273D01*
X149361464Y-89386273D02*
X149409083Y-89338654D01*
X149409083Y-89338654D02*
X149504321Y-89291035D01*
X149504321Y-89291035D02*
X149694797Y-89291035D01*
X149694797Y-89291035D02*
X149790035Y-89338654D01*
X149790035Y-89338654D02*
X149837654Y-89386273D01*
X149837654Y-89386273D02*
X149885273Y-89481511D01*
X149885273Y-89481511D02*
X149885273Y-89529130D01*
X149885273Y-89529130D02*
X149837654Y-89624368D01*
X149837654Y-89624368D02*
X149790035Y-89671987D01*
X149790035Y-89671987D02*
X149694797Y-89719606D01*
X149694797Y-89719606D02*
X149504321Y-89719606D01*
X149504321Y-89719606D02*
X149409083Y-89767225D01*
X149409083Y-89767225D02*
X149361464Y-89814844D01*
X149361464Y-89814844D02*
X149313845Y-89910082D01*
X149313845Y-89910082D02*
X149313845Y-90100558D01*
X149313845Y-90100558D02*
X149361464Y-90195796D01*
X149361464Y-90195796D02*
X149409083Y-90243416D01*
X149409083Y-90243416D02*
X149504321Y-90291035D01*
X149504321Y-90291035D02*
X149694797Y-90291035D01*
X149694797Y-90291035D02*
X149790035Y-90243416D01*
X149790035Y-90243416D02*
X149837654Y-90195796D01*
X149837654Y-90195796D02*
X149885273Y-90100558D01*
X149885273Y-90100558D02*
X149885273Y-89910082D01*
X149885273Y-89910082D02*
X149837654Y-89814844D01*
X149837654Y-89814844D02*
X149790035Y-89767225D01*
X149790035Y-89767225D02*
X149694797Y-89719606D01*
%TO.C,<-Io38*%
X151052142Y-79132971D02*
X150715425Y-79873749D01*
X150715425Y-79873749D02*
X151456203Y-79537032D01*
X151590890Y-78998284D02*
X152129638Y-78459536D01*
X152735729Y-78392193D02*
X152028623Y-77685086D01*
X153173462Y-77954460D02*
X153072447Y-77988132D01*
X153072447Y-77988132D02*
X153005103Y-77988132D01*
X153005103Y-77988132D02*
X152904088Y-77954460D01*
X152904088Y-77954460D02*
X152702057Y-77752430D01*
X152702057Y-77752430D02*
X152668386Y-77651415D01*
X152668386Y-77651415D02*
X152668386Y-77584071D01*
X152668386Y-77584071D02*
X152702057Y-77483056D01*
X152702057Y-77483056D02*
X152803073Y-77382041D01*
X152803073Y-77382041D02*
X152904088Y-77348369D01*
X152904088Y-77348369D02*
X152971431Y-77348369D01*
X152971431Y-77348369D02*
X153072447Y-77382041D01*
X153072447Y-77382041D02*
X153274477Y-77584071D01*
X153274477Y-77584071D02*
X153308149Y-77685086D01*
X153308149Y-77685086D02*
X153308149Y-77752430D01*
X153308149Y-77752430D02*
X153274477Y-77853445D01*
X153274477Y-77853445D02*
X153173462Y-77954460D01*
X152937760Y-76775949D02*
X153375492Y-76338216D01*
X153375492Y-76338216D02*
X153409164Y-76843292D01*
X153409164Y-76843292D02*
X153510179Y-76742277D01*
X153510179Y-76742277D02*
X153611195Y-76708605D01*
X153611195Y-76708605D02*
X153678538Y-76708605D01*
X153678538Y-76708605D02*
X153779553Y-76742277D01*
X153779553Y-76742277D02*
X153947912Y-76910636D01*
X153947912Y-76910636D02*
X153981584Y-77011651D01*
X153981584Y-77011651D02*
X153981584Y-77078995D01*
X153981584Y-77078995D02*
X153947912Y-77180010D01*
X153947912Y-77180010D02*
X153745882Y-77382040D01*
X153745882Y-77382040D02*
X153644866Y-77415712D01*
X153644866Y-77415712D02*
X153577523Y-77415712D01*
X154082599Y-76237201D02*
X153981584Y-76270873D01*
X153981584Y-76270873D02*
X153914240Y-76270873D01*
X153914240Y-76270873D02*
X153813225Y-76237201D01*
X153813225Y-76237201D02*
X153779553Y-76203529D01*
X153779553Y-76203529D02*
X153745882Y-76102514D01*
X153745882Y-76102514D02*
X153745882Y-76035170D01*
X153745882Y-76035170D02*
X153779553Y-75934155D01*
X153779553Y-75934155D02*
X153914240Y-75799468D01*
X153914240Y-75799468D02*
X154015256Y-75765796D01*
X154015256Y-75765796D02*
X154082599Y-75765796D01*
X154082599Y-75765796D02*
X154183614Y-75799468D01*
X154183614Y-75799468D02*
X154217286Y-75833140D01*
X154217286Y-75833140D02*
X154250958Y-75934155D01*
X154250958Y-75934155D02*
X154250958Y-76001499D01*
X154250958Y-76001499D02*
X154217286Y-76102514D01*
X154217286Y-76102514D02*
X154082599Y-76237201D01*
X154082599Y-76237201D02*
X154048927Y-76338216D01*
X154048927Y-76338216D02*
X154048927Y-76405560D01*
X154048927Y-76405560D02*
X154082599Y-76506575D01*
X154082599Y-76506575D02*
X154217286Y-76641262D01*
X154217286Y-76641262D02*
X154318301Y-76674934D01*
X154318301Y-76674934D02*
X154385645Y-76674934D01*
X154385645Y-76674934D02*
X154486660Y-76641262D01*
X154486660Y-76641262D02*
X154621347Y-76506575D01*
X154621347Y-76506575D02*
X154655019Y-76405560D01*
X154655019Y-76405560D02*
X154655019Y-76338216D01*
X154655019Y-76338216D02*
X154621347Y-76237201D01*
X154621347Y-76237201D02*
X154486660Y-76102514D01*
X154486660Y-76102514D02*
X154385645Y-76068842D01*
X154385645Y-76068842D02*
X154318301Y-76068842D01*
X154318301Y-76068842D02*
X154217286Y-76102514D01*
%TO.C,R21*%
X162316108Y-86925614D02*
X162417123Y-86353194D01*
X161912047Y-86521553D02*
X162619154Y-85814446D01*
X162619154Y-85814446D02*
X162888528Y-86083820D01*
X162888528Y-86083820D02*
X162922199Y-86184835D01*
X162922199Y-86184835D02*
X162922199Y-86252179D01*
X162922199Y-86252179D02*
X162888528Y-86353194D01*
X162888528Y-86353194D02*
X162787512Y-86454209D01*
X162787512Y-86454209D02*
X162686497Y-86487881D01*
X162686497Y-86487881D02*
X162619154Y-86487881D01*
X162619154Y-86487881D02*
X162518138Y-86454209D01*
X162518138Y-86454209D02*
X162248764Y-86184835D01*
X163225245Y-86555225D02*
X163292589Y-86555225D01*
X163292589Y-86555225D02*
X163393604Y-86588896D01*
X163393604Y-86588896D02*
X163561963Y-86757255D01*
X163561963Y-86757255D02*
X163595634Y-86858270D01*
X163595634Y-86858270D02*
X163595634Y-86925614D01*
X163595634Y-86925614D02*
X163561963Y-87026629D01*
X163561963Y-87026629D02*
X163494619Y-87093973D01*
X163494619Y-87093973D02*
X163359932Y-87161316D01*
X163359932Y-87161316D02*
X162551810Y-87161316D01*
X162551810Y-87161316D02*
X162989543Y-87599049D01*
X163662978Y-88272484D02*
X163258917Y-87868423D01*
X163460947Y-88070453D02*
X164168054Y-87363347D01*
X164168054Y-87363347D02*
X163999695Y-87397018D01*
X163999695Y-87397018D02*
X163865008Y-87397018D01*
X163865008Y-87397018D02*
X163763993Y-87363347D01*
D13*
%TO.C,J1*%
X114151412Y-63957199D02*
X114586841Y-63957199D01*
X114586841Y-63957199D02*
X114673926Y-63986228D01*
X114673926Y-63986228D02*
X114731984Y-64044285D01*
X114731984Y-64044285D02*
X114761012Y-64131371D01*
X114761012Y-64131371D02*
X114761012Y-64189428D01*
X114761012Y-63347599D02*
X114761012Y-63695942D01*
X114761012Y-63521771D02*
X114151412Y-63521771D01*
X114151412Y-63521771D02*
X114238498Y-63579828D01*
X114238498Y-63579828D02*
X114296555Y-63637885D01*
X114296555Y-63637885D02*
X114325584Y-63695942D01*
D11*
%TO.C,R8*%
X139164616Y-77322385D02*
X139265631Y-76749965D01*
X138760555Y-76918324D02*
X139467661Y-76211217D01*
X139467661Y-76211217D02*
X139737035Y-76480591D01*
X139737035Y-76480591D02*
X139770707Y-76581606D01*
X139770707Y-76581606D02*
X139770707Y-76648950D01*
X139770707Y-76648950D02*
X139737035Y-76749965D01*
X139737035Y-76749965D02*
X139636020Y-76850980D01*
X139636020Y-76850980D02*
X139535005Y-76884652D01*
X139535005Y-76884652D02*
X139467661Y-76884652D01*
X139467661Y-76884652D02*
X139366646Y-76850980D01*
X139366646Y-76850980D02*
X139097272Y-76581606D01*
X139972738Y-77322385D02*
X139939066Y-77221370D01*
X139939066Y-77221370D02*
X139939066Y-77154026D01*
X139939066Y-77154026D02*
X139972738Y-77053011D01*
X139972738Y-77053011D02*
X140006409Y-77019339D01*
X140006409Y-77019339D02*
X140107425Y-76985667D01*
X140107425Y-76985667D02*
X140174768Y-76985667D01*
X140174768Y-76985667D02*
X140275783Y-77019339D01*
X140275783Y-77019339D02*
X140410470Y-77154026D01*
X140410470Y-77154026D02*
X140444142Y-77255041D01*
X140444142Y-77255041D02*
X140444142Y-77322385D01*
X140444142Y-77322385D02*
X140410470Y-77423400D01*
X140410470Y-77423400D02*
X140376799Y-77457072D01*
X140376799Y-77457072D02*
X140275783Y-77490744D01*
X140275783Y-77490744D02*
X140208440Y-77490744D01*
X140208440Y-77490744D02*
X140107425Y-77457072D01*
X140107425Y-77457072D02*
X139972738Y-77322385D01*
X139972738Y-77322385D02*
X139871722Y-77288713D01*
X139871722Y-77288713D02*
X139804379Y-77288713D01*
X139804379Y-77288713D02*
X139703364Y-77322385D01*
X139703364Y-77322385D02*
X139568677Y-77457072D01*
X139568677Y-77457072D02*
X139535005Y-77558087D01*
X139535005Y-77558087D02*
X139535005Y-77625431D01*
X139535005Y-77625431D02*
X139568677Y-77726446D01*
X139568677Y-77726446D02*
X139703364Y-77861133D01*
X139703364Y-77861133D02*
X139804379Y-77894805D01*
X139804379Y-77894805D02*
X139871722Y-77894805D01*
X139871722Y-77894805D02*
X139972738Y-77861133D01*
X139972738Y-77861133D02*
X140107425Y-77726446D01*
X140107425Y-77726446D02*
X140141096Y-77625431D01*
X140141096Y-77625431D02*
X140141096Y-77558087D01*
X140141096Y-77558087D02*
X140107425Y-77457072D01*
%TO.C,C15*%
X143629142Y-71055380D02*
X143581523Y-71103000D01*
X143581523Y-71103000D02*
X143438666Y-71150619D01*
X143438666Y-71150619D02*
X143343428Y-71150619D01*
X143343428Y-71150619D02*
X143200571Y-71103000D01*
X143200571Y-71103000D02*
X143105333Y-71007761D01*
X143105333Y-71007761D02*
X143057714Y-70912523D01*
X143057714Y-70912523D02*
X143010095Y-70722047D01*
X143010095Y-70722047D02*
X143010095Y-70579190D01*
X143010095Y-70579190D02*
X143057714Y-70388714D01*
X143057714Y-70388714D02*
X143105333Y-70293476D01*
X143105333Y-70293476D02*
X143200571Y-70198238D01*
X143200571Y-70198238D02*
X143343428Y-70150619D01*
X143343428Y-70150619D02*
X143438666Y-70150619D01*
X143438666Y-70150619D02*
X143581523Y-70198238D01*
X143581523Y-70198238D02*
X143629142Y-70245857D01*
X144581523Y-71150619D02*
X144010095Y-71150619D01*
X144295809Y-71150619D02*
X144295809Y-70150619D01*
X144295809Y-70150619D02*
X144200571Y-70293476D01*
X144200571Y-70293476D02*
X144105333Y-70388714D01*
X144105333Y-70388714D02*
X144010095Y-70436333D01*
X145486285Y-70150619D02*
X145010095Y-70150619D01*
X145010095Y-70150619D02*
X144962476Y-70626809D01*
X144962476Y-70626809D02*
X145010095Y-70579190D01*
X145010095Y-70579190D02*
X145105333Y-70531571D01*
X145105333Y-70531571D02*
X145343428Y-70531571D01*
X145343428Y-70531571D02*
X145438666Y-70579190D01*
X145438666Y-70579190D02*
X145486285Y-70626809D01*
X145486285Y-70626809D02*
X145533904Y-70722047D01*
X145533904Y-70722047D02*
X145533904Y-70960142D01*
X145533904Y-70960142D02*
X145486285Y-71055380D01*
X145486285Y-71055380D02*
X145438666Y-71103000D01*
X145438666Y-71103000D02*
X145343428Y-71150619D01*
X145343428Y-71150619D02*
X145105333Y-71150619D01*
X145105333Y-71150619D02*
X145010095Y-71103000D01*
X145010095Y-71103000D02*
X144962476Y-71055380D01*
D13*
%TO.C,J9*%
X180774412Y-89103199D02*
X181209841Y-89103199D01*
X181209841Y-89103199D02*
X181296926Y-89132228D01*
X181296926Y-89132228D02*
X181354984Y-89190285D01*
X181354984Y-89190285D02*
X181384012Y-89277371D01*
X181384012Y-89277371D02*
X181384012Y-89335428D01*
X181384012Y-88783885D02*
X181384012Y-88667771D01*
X181384012Y-88667771D02*
X181354984Y-88609714D01*
X181354984Y-88609714D02*
X181325955Y-88580685D01*
X181325955Y-88580685D02*
X181238869Y-88522628D01*
X181238869Y-88522628D02*
X181122755Y-88493599D01*
X181122755Y-88493599D02*
X180890526Y-88493599D01*
X180890526Y-88493599D02*
X180832469Y-88522628D01*
X180832469Y-88522628D02*
X180803441Y-88551657D01*
X180803441Y-88551657D02*
X180774412Y-88609714D01*
X180774412Y-88609714D02*
X180774412Y-88725828D01*
X180774412Y-88725828D02*
X180803441Y-88783885D01*
X180803441Y-88783885D02*
X180832469Y-88812914D01*
X180832469Y-88812914D02*
X180890526Y-88841942D01*
X180890526Y-88841942D02*
X181035669Y-88841942D01*
X181035669Y-88841942D02*
X181093726Y-88812914D01*
X181093726Y-88812914D02*
X181122755Y-88783885D01*
X181122755Y-88783885D02*
X181151784Y-88725828D01*
X181151784Y-88725828D02*
X181151784Y-88609714D01*
X181151784Y-88609714D02*
X181122755Y-88551657D01*
X181122755Y-88551657D02*
X181093726Y-88522628D01*
X181093726Y-88522628D02*
X181035669Y-88493599D01*
D11*
%TO.C,U6*%
X165354095Y-79416618D02*
X165354095Y-80226141D01*
X165354095Y-80226141D02*
X165401714Y-80321379D01*
X165401714Y-80321379D02*
X165449333Y-80368999D01*
X165449333Y-80368999D02*
X165544571Y-80416618D01*
X165544571Y-80416618D02*
X165735047Y-80416618D01*
X165735047Y-80416618D02*
X165830285Y-80368999D01*
X165830285Y-80368999D02*
X165877904Y-80321379D01*
X165877904Y-80321379D02*
X165925523Y-80226141D01*
X165925523Y-80226141D02*
X165925523Y-79416618D01*
X166830285Y-79416618D02*
X166639809Y-79416618D01*
X166639809Y-79416618D02*
X166544571Y-79464237D01*
X166544571Y-79464237D02*
X166496952Y-79511856D01*
X166496952Y-79511856D02*
X166401714Y-79654713D01*
X166401714Y-79654713D02*
X166354095Y-79845189D01*
X166354095Y-79845189D02*
X166354095Y-80226141D01*
X166354095Y-80226141D02*
X166401714Y-80321379D01*
X166401714Y-80321379D02*
X166449333Y-80368999D01*
X166449333Y-80368999D02*
X166544571Y-80416618D01*
X166544571Y-80416618D02*
X166735047Y-80416618D01*
X166735047Y-80416618D02*
X166830285Y-80368999D01*
X166830285Y-80368999D02*
X166877904Y-80321379D01*
X166877904Y-80321379D02*
X166925523Y-80226141D01*
X166925523Y-80226141D02*
X166925523Y-79988046D01*
X166925523Y-79988046D02*
X166877904Y-79892808D01*
X166877904Y-79892808D02*
X166830285Y-79845189D01*
X166830285Y-79845189D02*
X166735047Y-79797570D01*
X166735047Y-79797570D02*
X166544571Y-79797570D01*
X166544571Y-79797570D02*
X166449333Y-79845189D01*
X166449333Y-79845189D02*
X166401714Y-79892808D01*
X166401714Y-79892808D02*
X166354095Y-79988046D01*
%TO.C,C4*%
X126558233Y-84168781D02*
X126510614Y-84216401D01*
X126510614Y-84216401D02*
X126367757Y-84264020D01*
X126367757Y-84264020D02*
X126272519Y-84264020D01*
X126272519Y-84264020D02*
X126129662Y-84216401D01*
X126129662Y-84216401D02*
X126034424Y-84121162D01*
X126034424Y-84121162D02*
X125986805Y-84025924D01*
X125986805Y-84025924D02*
X125939186Y-83835448D01*
X125939186Y-83835448D02*
X125939186Y-83692591D01*
X125939186Y-83692591D02*
X125986805Y-83502115D01*
X125986805Y-83502115D02*
X126034424Y-83406877D01*
X126034424Y-83406877D02*
X126129662Y-83311639D01*
X126129662Y-83311639D02*
X126272519Y-83264020D01*
X126272519Y-83264020D02*
X126367757Y-83264020D01*
X126367757Y-83264020D02*
X126510614Y-83311639D01*
X126510614Y-83311639D02*
X126558233Y-83359258D01*
X127415376Y-83597353D02*
X127415376Y-84264020D01*
X127177281Y-83216401D02*
X126939186Y-83930686D01*
X126939186Y-83930686D02*
X127558233Y-83930686D01*
%TO.C,R18*%
X138476145Y-70545109D02*
X137903725Y-70444094D01*
X138072084Y-70949170D02*
X137364977Y-70242063D01*
X137364977Y-70242063D02*
X137634351Y-69972689D01*
X137634351Y-69972689D02*
X137735366Y-69939018D01*
X137735366Y-69939018D02*
X137802710Y-69939018D01*
X137802710Y-69939018D02*
X137903725Y-69972689D01*
X137903725Y-69972689D02*
X138004740Y-70073705D01*
X138004740Y-70073705D02*
X138038412Y-70174720D01*
X138038412Y-70174720D02*
X138038412Y-70242063D01*
X138038412Y-70242063D02*
X138004740Y-70343079D01*
X138004740Y-70343079D02*
X137735366Y-70612453D01*
X139149580Y-69871674D02*
X138745519Y-70275735D01*
X138947549Y-70073705D02*
X138240443Y-69366598D01*
X138240443Y-69366598D02*
X138274114Y-69534957D01*
X138274114Y-69534957D02*
X138274114Y-69669644D01*
X138274114Y-69669644D02*
X138240443Y-69770659D01*
X139149580Y-69063552D02*
X139048565Y-69097224D01*
X139048565Y-69097224D02*
X138981221Y-69097224D01*
X138981221Y-69097224D02*
X138880206Y-69063552D01*
X138880206Y-69063552D02*
X138846534Y-69029880D01*
X138846534Y-69029880D02*
X138812862Y-68928865D01*
X138812862Y-68928865D02*
X138812862Y-68861522D01*
X138812862Y-68861522D02*
X138846534Y-68760506D01*
X138846534Y-68760506D02*
X138981221Y-68625819D01*
X138981221Y-68625819D02*
X139082236Y-68592148D01*
X139082236Y-68592148D02*
X139149580Y-68592148D01*
X139149580Y-68592148D02*
X139250595Y-68625819D01*
X139250595Y-68625819D02*
X139284267Y-68659491D01*
X139284267Y-68659491D02*
X139317939Y-68760506D01*
X139317939Y-68760506D02*
X139317939Y-68827850D01*
X139317939Y-68827850D02*
X139284267Y-68928865D01*
X139284267Y-68928865D02*
X139149580Y-69063552D01*
X139149580Y-69063552D02*
X139115908Y-69164567D01*
X139115908Y-69164567D02*
X139115908Y-69231911D01*
X139115908Y-69231911D02*
X139149580Y-69332926D01*
X139149580Y-69332926D02*
X139284267Y-69467613D01*
X139284267Y-69467613D02*
X139385282Y-69501285D01*
X139385282Y-69501285D02*
X139452626Y-69501285D01*
X139452626Y-69501285D02*
X139553641Y-69467613D01*
X139553641Y-69467613D02*
X139688328Y-69332926D01*
X139688328Y-69332926D02*
X139722000Y-69231911D01*
X139722000Y-69231911D02*
X139722000Y-69164567D01*
X139722000Y-69164567D02*
X139688328Y-69063552D01*
X139688328Y-69063552D02*
X139553641Y-68928865D01*
X139553641Y-68928865D02*
X139452626Y-68895193D01*
X139452626Y-68895193D02*
X139385282Y-68895193D01*
X139385282Y-68895193D02*
X139284267Y-68928865D01*
%TO.C,R4*%
X142448600Y-73957192D02*
X142549615Y-73384772D01*
X142044539Y-73553131D02*
X142751645Y-72846024D01*
X142751645Y-72846024D02*
X143021019Y-73115398D01*
X143021019Y-73115398D02*
X143054691Y-73216413D01*
X143054691Y-73216413D02*
X143054691Y-73283757D01*
X143054691Y-73283757D02*
X143021019Y-73384772D01*
X143021019Y-73384772D02*
X142920004Y-73485787D01*
X142920004Y-73485787D02*
X142818989Y-73519459D01*
X142818989Y-73519459D02*
X142751645Y-73519459D01*
X142751645Y-73519459D02*
X142650630Y-73485787D01*
X142650630Y-73485787D02*
X142381256Y-73216413D01*
X143526096Y-74091879D02*
X143054691Y-74563283D01*
X143627111Y-73654146D02*
X142953676Y-73990864D01*
X142953676Y-73990864D02*
X143391409Y-74428596D01*
D14*
%TO.C,U5*%
X127449938Y-87854093D02*
X127124938Y-87854093D01*
X124229938Y-87529093D02*
X124229938Y-87854093D01*
X127449938Y-87529093D02*
X127449938Y-87854093D01*
X124229938Y-84959093D02*
X124229938Y-84634093D01*
X127449938Y-84959093D02*
X127449938Y-84634093D01*
X124229938Y-84634093D02*
X124554938Y-84634093D01*
X127449938Y-84634093D02*
X127124938Y-84634093D01*
%TO.C,U2*%
X127541600Y-62746400D02*
X127216600Y-62746400D01*
X124321600Y-62421400D02*
X124321600Y-62746400D01*
X127541600Y-62421400D02*
X127541600Y-62746400D01*
X124321600Y-59851400D02*
X124321600Y-59526400D01*
X127541600Y-59851400D02*
X127541600Y-59526400D01*
X124321600Y-59526400D02*
X124646600Y-59526400D01*
X127541600Y-59526400D02*
X127216600Y-59526400D01*
%TO.C,C2*%
X125039463Y-89738391D02*
X124875648Y-89902206D01*
X124530346Y-89229274D02*
X124366531Y-89393089D01*
%TO.C,R14*%
X153796000Y-63675879D02*
X153796000Y-64011121D01*
X153036000Y-63675879D02*
X153036000Y-64011121D01*
D15*
%TO.C,J4*%
X115068280Y-74010520D02*
X126965640Y-74010520D01*
X115068280Y-81607660D02*
X115068280Y-74010520D01*
X115068280Y-81607660D02*
X115718520Y-81607660D01*
X115718520Y-81607660D02*
X115718520Y-80010000D01*
X126315400Y-81607660D02*
X126315400Y-80010000D01*
X126965640Y-74010520D02*
X126965640Y-81607660D01*
X126965640Y-81607660D02*
X126315400Y-81607660D01*
D14*
%TO.C,JP1*%
X149078832Y-83299236D02*
X151058731Y-81319337D01*
X150493045Y-84713449D02*
X149078832Y-83299236D01*
X151058731Y-81319337D02*
X152472944Y-82733550D01*
X152472944Y-82733550D02*
X150493045Y-84713449D01*
%TO.C,U4*%
X128970599Y-63270400D02*
X132170599Y-63270400D01*
X132170599Y-63270400D02*
X132170599Y-59070400D01*
X132170599Y-59070400D02*
X128970599Y-59070400D01*
X128970599Y-59070400D02*
X128970599Y-63270400D01*
X129170599Y-63270400D02*
G75*
G03*
X129170599Y-63270400I-200000J0D01*
G01*
%TO.C,R7*%
X135197941Y-66507461D02*
X134960889Y-66744513D01*
X134660539Y-65970059D02*
X134423487Y-66207111D01*
%TO.C,<-3V3*%
X142732219Y-81721793D02*
X144089864Y-83079438D01*
X144089864Y-83079438D02*
X146112189Y-81057113D01*
X144754544Y-79699468D02*
X142732219Y-81721793D01*
%TO.C,<-Io8*%
X146345197Y-86280395D02*
X147702842Y-87638040D01*
X147702842Y-87638040D02*
X149725167Y-85615715D01*
X148367522Y-84258070D02*
X146345197Y-86280395D01*
%TO.C,U3*%
X128879524Y-88376458D02*
X132079524Y-88376458D01*
X132079524Y-88376458D02*
X132079524Y-84176458D01*
X132079524Y-84176458D02*
X128879524Y-84176458D01*
X128879524Y-84176458D02*
X128879524Y-88376458D01*
X129079524Y-88376458D02*
G75*
G03*
X129079524Y-88376458I-200000J0D01*
G01*
%TO.C,R25*%
X173351589Y-83094817D02*
X173016347Y-83094817D01*
X173351589Y-82334817D02*
X173016347Y-82334817D01*
%TO.C,R17*%
X146672379Y-64092000D02*
X147007621Y-64092000D01*
X146672379Y-64852000D02*
X147007621Y-64852000D01*
%TO.C,R33*%
X144495221Y-85540104D02*
X144159979Y-85540104D01*
X144495221Y-84780104D02*
X144159979Y-84780104D01*
%TO.C,C6*%
X121068565Y-62304000D02*
X121300235Y-62304000D01*
X121068565Y-63024000D02*
X121300235Y-63024000D01*
D10*
%TO.C,L1*%
X150248000Y-69033000D02*
X147948000Y-69033000D01*
D14*
%TO.C,R22*%
X144502779Y-86662843D02*
X144167537Y-86662843D01*
X144502779Y-85902843D02*
X144167537Y-85902843D01*
%TO.C,R5*%
X133599546Y-65311856D02*
X133362494Y-65548908D01*
X133062144Y-64774454D02*
X132825092Y-65011506D01*
%TO.C,R24*%
X170212577Y-88125727D02*
X169877335Y-88125727D01*
X170212577Y-87365727D02*
X169877335Y-87365727D01*
%TO.C,JP3*%
X145514347Y-78762330D02*
X147494246Y-76782431D01*
X146928560Y-80176543D02*
X145514347Y-78762330D01*
X147494246Y-76782431D02*
X148908459Y-78196644D01*
X148908459Y-78196644D02*
X146928560Y-80176543D01*
%TO.C,R19*%
X141105388Y-68028136D02*
X141105388Y-67692894D01*
X141865388Y-68028136D02*
X141865388Y-67692894D01*
%TO.C,C13*%
X146748238Y-63038198D02*
X146979908Y-63038198D01*
X146748238Y-63758198D02*
X146979908Y-63758198D01*
D10*
%TO.C,J7*%
X173134000Y-95538000D02*
X173134000Y-95538000D01*
X173134000Y-95338000D02*
X173134000Y-95338000D01*
D16*
X172534000Y-93538000D02*
X172534000Y-88738000D01*
X173734000Y-93538000D02*
X175934000Y-93538000D01*
X177334000Y-93538000D02*
X177334000Y-88738000D01*
X173734000Y-88738000D02*
X175934000Y-88738000D01*
D10*
X173134000Y-95338000D02*
G75*
G03*
X173134000Y-95538000I0J-100000D01*
G01*
X173134000Y-95538000D02*
G75*
G03*
X173134000Y-95338000I0J100000D01*
G01*
D14*
%TO.C,C5*%
X121298235Y-62003600D02*
X121066565Y-62003600D01*
X121298235Y-61283600D02*
X121066565Y-61283600D01*
%TO.C,R9*%
X130814454Y-67022144D02*
X131051506Y-66785092D01*
X131351856Y-67559546D02*
X131588908Y-67322494D01*
%TO.C,U1*%
X158640000Y-51770000D02*
X158640000Y-58520000D01*
X158640000Y-51770000D02*
X176640000Y-51770000D01*
X158640000Y-76520000D02*
X158640000Y-77270000D01*
X158640000Y-77270000D02*
X159640000Y-77270000D01*
X176640000Y-51770000D02*
X176640000Y-58520000D01*
X176640000Y-57710000D02*
X158640000Y-57710000D01*
X176640000Y-76520000D02*
X176640000Y-77270000D01*
X176640000Y-77270000D02*
X175640000Y-77270000D01*
%TO.C,R10*%
X155574000Y-63167879D02*
X155574000Y-63503121D01*
X154814000Y-63167879D02*
X154814000Y-63503121D01*
%TO.C,R23*%
X158765040Y-87343495D02*
X159100282Y-87343495D01*
X158765040Y-88103495D02*
X159100282Y-88103495D01*
%TO.C,R11*%
X146010317Y-72364494D02*
X146247369Y-72601546D01*
X145472915Y-72901896D02*
X145709967Y-73138948D01*
%TO.C,R3*%
X146957064Y-75700140D02*
X146720012Y-75463088D01*
X147494466Y-75162738D02*
X147257414Y-74925686D01*
%TO.C,R27*%
X175465415Y-80015264D02*
X175800657Y-80015264D01*
X175465415Y-80775264D02*
X175800657Y-80775264D01*
%TO.C,R26*%
X175464743Y-81223353D02*
X175799985Y-81223353D01*
X175464743Y-81983353D02*
X175799985Y-81983353D01*
%TO.C,C1*%
X121114225Y-87087162D02*
X120882555Y-87087162D01*
X121114225Y-86367162D02*
X120882555Y-86367162D01*
%TO.C,R20*%
X162594868Y-83701310D02*
X162831920Y-83938362D01*
X162057466Y-84238712D02*
X162294518Y-84475764D01*
%TO.C,C20*%
X158855343Y-84900592D02*
X158648490Y-84693739D01*
X159576592Y-84179343D02*
X159369739Y-83972490D01*
%TO.C,C3*%
X120887355Y-87390768D02*
X121119025Y-87390768D01*
X120887355Y-88110768D02*
X121119025Y-88110768D01*
%TO.C,C18*%
X169255733Y-79202000D02*
X169548267Y-79202000D01*
X169255733Y-80222000D02*
X169548267Y-80222000D01*
D10*
%TO.C,J6*%
X151074197Y-95552726D02*
X151074197Y-95552726D01*
X151074197Y-95352726D02*
X151074197Y-95352726D01*
D16*
X150474197Y-93552726D02*
X150474197Y-88752726D01*
X151674197Y-93552726D02*
X153874197Y-93552726D01*
X155274197Y-93552726D02*
X155274197Y-88752726D01*
X151674197Y-88752726D02*
X153874197Y-88752726D01*
D10*
X151074197Y-95352726D02*
G75*
G03*
X151074197Y-95552726I0J-100000D01*
G01*
X151074197Y-95552726D02*
G75*
G03*
X151074197Y-95352726I0J100000D01*
G01*
D15*
%TO.C,J2*%
X115666213Y-90132054D02*
X116936213Y-90132054D01*
X116936213Y-90132054D02*
X117571213Y-89497054D01*
X115031213Y-89497054D02*
X115666213Y-90132054D01*
X115031213Y-89497054D02*
X115031213Y-88227054D01*
X115031213Y-88227054D02*
X115666213Y-87592054D01*
X117571213Y-88227054D02*
X117571213Y-89497054D01*
X115666213Y-87592054D02*
X115031213Y-86957054D01*
X116936213Y-87592054D02*
X117571213Y-88227054D01*
X115031213Y-86957054D02*
X115031213Y-85687054D01*
X117571213Y-86957054D02*
X116936213Y-87592054D01*
X115031213Y-85687054D02*
X115666213Y-85052054D01*
X117571213Y-85687054D02*
X117571213Y-86957054D01*
X115666213Y-85052054D02*
X115031213Y-84417054D01*
X116936213Y-85052054D02*
X117571213Y-85687054D01*
X115031213Y-84417054D02*
X115031213Y-83147054D01*
X117571213Y-84417054D02*
X116936213Y-85052054D01*
X115031213Y-83147054D02*
X115666213Y-82512054D01*
X117571213Y-83147054D02*
X117571213Y-84417054D01*
X115666213Y-82512054D02*
X116936213Y-82512054D01*
X116936213Y-82512054D02*
X117571213Y-83147054D01*
D14*
%TO.C,R13*%
X141543527Y-73950125D02*
X141780579Y-74187177D01*
X141006125Y-74487527D02*
X141243177Y-74724579D01*
%TO.C,U7*%
X145406000Y-65374001D02*
X143606000Y-65374001D01*
X143606000Y-68594001D02*
X146556000Y-68594001D01*
%TO.C,C8*%
X128013851Y-57975537D02*
X127782181Y-57975537D01*
X128013851Y-57255537D02*
X127782181Y-57255537D01*
D10*
%TO.C,J11*%
X161200000Y-88570000D02*
G75*
G03*
X161200000Y-88570000I-100000J0D01*
G01*
D15*
%TO.C,J10*%
X180340000Y-63500000D02*
X181610000Y-63500000D01*
X181610000Y-63500000D02*
X182245000Y-62865000D01*
X179705000Y-62865000D02*
X180340000Y-63500000D01*
X179705000Y-62865000D02*
X179705000Y-61595000D01*
X179705000Y-61595000D02*
X180340000Y-60960000D01*
X182245000Y-61595000D02*
X182245000Y-62865000D01*
X180340000Y-60960000D02*
X179705000Y-60325000D01*
X181610000Y-60960000D02*
X182245000Y-61595000D01*
X179705000Y-60325000D02*
X179705000Y-59055000D01*
X182245000Y-60325000D02*
X181610000Y-60960000D01*
X179705000Y-59055000D02*
X180340000Y-58420000D01*
X182245000Y-59055000D02*
X182245000Y-60325000D01*
X180340000Y-58420000D02*
X181610000Y-58420000D01*
X181610000Y-58420000D02*
X182245000Y-59055000D01*
D14*
%TO.C,C14*%
X147296000Y-60590165D02*
X147296000Y-60821835D01*
X146576000Y-60590165D02*
X146576000Y-60821835D01*
%TO.C,R29*%
X144146029Y-88607791D02*
X144481271Y-88607791D01*
X144146029Y-89367791D02*
X144481271Y-89367791D01*
%TO.C,R31*%
X128042348Y-74374958D02*
X128377590Y-74374958D01*
X128042348Y-75134958D02*
X128377590Y-75134958D01*
%TO.C,R30*%
X157103042Y-60784348D02*
X157103042Y-61119590D01*
X156343042Y-60784348D02*
X156343042Y-61119590D01*
%TO.C,C10*%
X144245303Y-63400748D02*
X143445303Y-63400748D01*
X143845303Y-63800748D02*
X143845303Y-63000748D01*
X139835605Y-65165748D02*
X139835605Y-57005748D01*
X139795605Y-65165748D02*
X139795605Y-57005748D01*
X139755605Y-65165748D02*
X139755605Y-57005748D01*
X139715605Y-65164748D02*
X139715605Y-57006748D01*
X139675605Y-65162748D02*
X139675605Y-57008748D01*
X139635605Y-65161748D02*
X139635605Y-57009748D01*
X139595605Y-65159748D02*
X139595605Y-57011748D01*
X139555605Y-65156748D02*
X139555605Y-57014748D01*
X139515605Y-65153748D02*
X139515605Y-57017748D01*
X139475605Y-65150748D02*
X139475605Y-57020748D01*
X139435605Y-65146748D02*
X139435605Y-57024748D01*
X139395605Y-65142748D02*
X139395605Y-57028748D01*
X139355605Y-65137748D02*
X139355605Y-57033748D01*
X139315605Y-65133748D02*
X139315605Y-57037748D01*
X139275605Y-65127748D02*
X139275605Y-57043748D01*
X139235605Y-65122748D02*
X139235605Y-57048748D01*
X139195605Y-65115748D02*
X139195605Y-57055748D01*
X139155605Y-65109748D02*
X139155605Y-57061748D01*
X139114605Y-65102748D02*
X139114605Y-62125748D01*
X139114605Y-60045748D02*
X139114605Y-57068748D01*
X139074605Y-65095748D02*
X139074605Y-62125748D01*
X139074605Y-60045748D02*
X139074605Y-57075748D01*
X139034605Y-65087748D02*
X139034605Y-62125748D01*
X139034605Y-60045748D02*
X139034605Y-57083748D01*
X138994605Y-65079748D02*
X138994605Y-62125748D01*
X138994605Y-60045748D02*
X138994605Y-57091748D01*
X138954605Y-65070748D02*
X138954605Y-62125748D01*
X138954605Y-60045748D02*
X138954605Y-57100748D01*
X138914605Y-65061748D02*
X138914605Y-62125748D01*
X138914605Y-60045748D02*
X138914605Y-57109748D01*
X138874605Y-65052748D02*
X138874605Y-62125748D01*
X138874605Y-60045748D02*
X138874605Y-57118748D01*
X138834605Y-65042748D02*
X138834605Y-62125748D01*
X138834605Y-60045748D02*
X138834605Y-57128748D01*
X138794605Y-65032748D02*
X138794605Y-62125748D01*
X138794605Y-60045748D02*
X138794605Y-57138748D01*
X138754605Y-65021748D02*
X138754605Y-62125748D01*
X138754605Y-60045748D02*
X138754605Y-57149748D01*
X138714605Y-65010748D02*
X138714605Y-62125748D01*
X138714605Y-60045748D02*
X138714605Y-57160748D01*
X138674605Y-64999748D02*
X138674605Y-62125748D01*
X138674605Y-60045748D02*
X138674605Y-57171748D01*
X138634605Y-64987748D02*
X138634605Y-62125748D01*
X138634605Y-60045748D02*
X138634605Y-57183748D01*
X138594605Y-64974748D02*
X138594605Y-62125748D01*
X138594605Y-60045748D02*
X138594605Y-57196748D01*
X138554605Y-64962748D02*
X138554605Y-62125748D01*
X138554605Y-60045748D02*
X138554605Y-57208748D01*
X138514605Y-64948748D02*
X138514605Y-62125748D01*
X138514605Y-60045748D02*
X138514605Y-57222748D01*
X138474605Y-64935748D02*
X138474605Y-62125748D01*
X138474605Y-60045748D02*
X138474605Y-57235748D01*
X138434605Y-64920748D02*
X138434605Y-62125748D01*
X138434605Y-60045748D02*
X138434605Y-57250748D01*
X138394605Y-64906748D02*
X138394605Y-62125748D01*
X138394605Y-60045748D02*
X138394605Y-57264748D01*
X138354605Y-64890748D02*
X138354605Y-62125748D01*
X138354605Y-60045748D02*
X138354605Y-57280748D01*
X138314605Y-64875748D02*
X138314605Y-62125748D01*
X138314605Y-60045748D02*
X138314605Y-57295748D01*
X138274605Y-64859748D02*
X138274605Y-62125748D01*
X138274605Y-60045748D02*
X138274605Y-57311748D01*
X138234605Y-64842748D02*
X138234605Y-62125748D01*
X138234605Y-60045748D02*
X138234605Y-57328748D01*
X138194605Y-64825748D02*
X138194605Y-62125748D01*
X138194605Y-60045748D02*
X138194605Y-57345748D01*
X138154605Y-64807748D02*
X138154605Y-62125748D01*
X138154605Y-60045748D02*
X138154605Y-57363748D01*
X138114605Y-64789748D02*
X138114605Y-62125748D01*
X138114605Y-60045748D02*
X138114605Y-57381748D01*
X138074605Y-64771748D02*
X138074605Y-62125748D01*
X138074605Y-60045748D02*
X138074605Y-57399748D01*
X138034605Y-64751748D02*
X138034605Y-62125748D01*
X138034605Y-60045748D02*
X138034605Y-57419748D01*
X137994605Y-64732748D02*
X137994605Y-62125748D01*
X137994605Y-60045748D02*
X137994605Y-57438748D01*
X137954605Y-64712748D02*
X137954605Y-62125748D01*
X137954605Y-60045748D02*
X137954605Y-57458748D01*
X137914605Y-64691748D02*
X137914605Y-62125748D01*
X137914605Y-60045748D02*
X137914605Y-57479748D01*
X137874605Y-64669748D02*
X137874605Y-62125748D01*
X137874605Y-60045748D02*
X137874605Y-57501748D01*
X137834605Y-64647748D02*
X137834605Y-62125748D01*
X137834605Y-60045748D02*
X137834605Y-57523748D01*
X137794605Y-64625748D02*
X137794605Y-62125748D01*
X137794605Y-60045748D02*
X137794605Y-57545748D01*
X137754605Y-64602748D02*
X137754605Y-62125748D01*
X137754605Y-60045748D02*
X137754605Y-57568748D01*
X137714605Y-64578748D02*
X137714605Y-62125748D01*
X137714605Y-60045748D02*
X137714605Y-57592748D01*
X137674605Y-64554748D02*
X137674605Y-62125748D01*
X137674605Y-60045748D02*
X137674605Y-57616748D01*
X137634605Y-64529748D02*
X137634605Y-62125748D01*
X137634605Y-60045748D02*
X137634605Y-57641748D01*
X137594605Y-64503748D02*
X137594605Y-62125748D01*
X137594605Y-60045748D02*
X137594605Y-57667748D01*
X137554605Y-64477748D02*
X137554605Y-62125748D01*
X137554605Y-60045748D02*
X137554605Y-57693748D01*
X137514605Y-64450748D02*
X137514605Y-62125748D01*
X137514605Y-60045748D02*
X137514605Y-57720748D01*
X137474605Y-64423748D02*
X137474605Y-62125748D01*
X137474605Y-60045748D02*
X137474605Y-57747748D01*
X137434605Y-64394748D02*
X137434605Y-62125748D01*
X137434605Y-60045748D02*
X137434605Y-57776748D01*
X137394605Y-64365748D02*
X137394605Y-62125748D01*
X137394605Y-60045748D02*
X137394605Y-57805748D01*
X137354605Y-64335748D02*
X137354605Y-62125748D01*
X137354605Y-60045748D02*
X137354605Y-57835748D01*
X137314605Y-64305748D02*
X137314605Y-62125748D01*
X137314605Y-60045748D02*
X137314605Y-57865748D01*
X137274605Y-64274748D02*
X137274605Y-62125748D01*
X137274605Y-60045748D02*
X137274605Y-57896748D01*
X137234605Y-64241748D02*
X137234605Y-62125748D01*
X137234605Y-60045748D02*
X137234605Y-57929748D01*
X137194605Y-64209748D02*
X137194605Y-62125748D01*
X137194605Y-60045748D02*
X137194605Y-57961748D01*
X137154605Y-64175748D02*
X137154605Y-62125748D01*
X137154605Y-60045748D02*
X137154605Y-57995748D01*
X137114605Y-64140748D02*
X137114605Y-62125748D01*
X137114605Y-60045748D02*
X137114605Y-58030748D01*
X137074605Y-64104748D02*
X137074605Y-62125748D01*
X137074605Y-60045748D02*
X137074605Y-58066748D01*
X137034605Y-64068748D02*
X137034605Y-58102748D01*
X136994605Y-64030748D02*
X136994605Y-58140748D01*
X136954605Y-63992748D02*
X136954605Y-58178748D01*
X136914605Y-63952748D02*
X136914605Y-58218748D01*
X136874605Y-63911748D02*
X136874605Y-58259748D01*
X136834605Y-63869748D02*
X136834605Y-58301748D01*
X136794605Y-63826748D02*
X136794605Y-58344748D01*
X136754605Y-63782748D02*
X136754605Y-58388748D01*
X136714605Y-63736748D02*
X136714605Y-58434748D01*
X136674605Y-63689748D02*
X136674605Y-58481748D01*
X136634605Y-63641748D02*
X136634605Y-58529748D01*
X136594605Y-63590748D02*
X136594605Y-58580748D01*
X136554605Y-63539748D02*
X136554605Y-58631748D01*
X136514605Y-63485748D02*
X136514605Y-58685748D01*
X136474605Y-63430748D02*
X136474605Y-58740748D01*
X136434605Y-63372748D02*
X136434605Y-58798748D01*
X136394605Y-63313748D02*
X136394605Y-58857748D01*
X136354605Y-63251748D02*
X136354605Y-58919748D01*
X136314605Y-63187748D02*
X136314605Y-58983748D01*
X136274605Y-63119748D02*
X136274605Y-59051748D01*
X136234605Y-63049748D02*
X136234605Y-59121748D01*
X136194605Y-62975748D02*
X136194605Y-59195748D01*
X136154605Y-62898748D02*
X136154605Y-59272748D01*
X136114605Y-62816748D02*
X136114605Y-59354748D01*
X136074605Y-62730748D02*
X136074605Y-59440748D01*
X136034605Y-62637748D02*
X136034605Y-59533748D01*
X135994605Y-62538748D02*
X135994605Y-59632748D01*
X135954605Y-62431748D02*
X135954605Y-59739748D01*
X135914605Y-62314748D02*
X135914605Y-59856748D01*
X135874605Y-62183748D02*
X135874605Y-59987748D01*
X135834605Y-62033748D02*
X135834605Y-60137748D01*
X135794605Y-61853748D02*
X135794605Y-60317748D01*
X135754605Y-61618748D02*
X135754605Y-60552748D01*
X143955605Y-61085748D02*
G75*
G03*
X143955605Y-61085748I-4120000J0D01*
G01*
%TO.C,JP2*%
X147445379Y-80798573D02*
X149425278Y-78818674D01*
X148859592Y-82212786D02*
X147445379Y-80798573D01*
X149425278Y-78818674D02*
X150839491Y-80232887D01*
X150839491Y-80232887D02*
X148859592Y-82212786D01*
%TO.C,C17*%
X149744165Y-65624000D02*
X149975835Y-65624000D01*
X149744165Y-66344000D02*
X149975835Y-66344000D01*
%TO.C,C19*%
X161924556Y-82085379D02*
X161717703Y-81878526D01*
X162645805Y-81364130D02*
X162438952Y-81157277D01*
%TO.C,R6*%
X145402078Y-76089480D02*
X145165026Y-75852428D01*
X145939480Y-75552078D02*
X145702428Y-75315026D01*
%TO.C,R32*%
X144494584Y-87802886D02*
X144159342Y-87802886D01*
X144494584Y-87042886D02*
X144159342Y-87042886D01*
%TO.C,C16*%
X140854165Y-65686001D02*
X141085835Y-65686001D01*
X140854165Y-66406001D02*
X141085835Y-66406001D01*
%TO.C,C12*%
X146156000Y-60590166D02*
X146156000Y-60821836D01*
X145436000Y-60590166D02*
X145436000Y-60821836D01*
%TO.C,C11*%
X149460267Y-62508000D02*
X149167733Y-62508000D01*
X149460267Y-61488000D02*
X149167733Y-61488000D01*
%TO.C,R12*%
X137437941Y-65999461D02*
X137200889Y-66236513D01*
X136900539Y-65462059D02*
X136663487Y-65699111D01*
%TO.C,C9*%
X149460267Y-60700000D02*
X149167733Y-60700000D01*
X149460267Y-59680000D02*
X149167733Y-59680000D01*
%TO.C,C7*%
X125325798Y-64619571D02*
X125161983Y-64783386D01*
X124816681Y-64110454D02*
X124652866Y-64274269D01*
D15*
%TO.C,J3*%
X115134320Y-66051430D02*
X127031680Y-66051430D01*
X115134320Y-73648570D02*
X115134320Y-66051430D01*
X115134320Y-73648570D02*
X115784560Y-73648570D01*
X115784560Y-73648570D02*
X115784560Y-72050910D01*
X126381440Y-73648570D02*
X126381440Y-72050910D01*
X127031680Y-66051430D02*
X127031680Y-73648570D01*
X127031680Y-73648570D02*
X126381440Y-73648570D01*
D12*
%TO.C,J5*%
X139748260Y-91279980D02*
X140500100Y-91279980D01*
X139748260Y-92930980D02*
X139748260Y-91279980D01*
X141249400Y-95531940D02*
X144246600Y-95531940D01*
X144995900Y-91279980D02*
X145747740Y-91279980D01*
X145747740Y-91279980D02*
X145747740Y-92930980D01*
D17*
X140388340Y-90632280D02*
G75*
G03*
X140388340Y-90632280I-139700J0D01*
G01*
D14*
%TO.C,R28*%
X146455371Y-90309808D02*
X146120129Y-90309808D01*
X146455371Y-89549808D02*
X146120129Y-89549808D01*
%TO.C,<-Io38*%
X144587145Y-83560343D02*
X145944790Y-84917988D01*
X145944790Y-84917988D02*
X147967115Y-82895663D01*
X146609470Y-81538018D02*
X144587145Y-83560343D01*
%TO.C,R21*%
X161809482Y-84434236D02*
X162046534Y-84671288D01*
X161272080Y-84971638D02*
X161509132Y-85208690D01*
D15*
%TO.C,J1*%
X115749000Y-65024000D02*
X117019000Y-65024000D01*
X117019000Y-65024000D02*
X117654000Y-64389000D01*
X115114000Y-64389000D02*
X115749000Y-65024000D01*
X115114000Y-64389000D02*
X115114000Y-63119000D01*
X115114000Y-63119000D02*
X115749000Y-62484000D01*
X117654000Y-63119000D02*
X117654000Y-64389000D01*
X115749000Y-62484000D02*
X115114000Y-61849000D01*
X117019000Y-62484000D02*
X117654000Y-63119000D01*
X115114000Y-61849000D02*
X115114000Y-60579000D01*
X117654000Y-61849000D02*
X117019000Y-62484000D01*
X115114000Y-60579000D02*
X115749000Y-59944000D01*
X117654000Y-60579000D02*
X117654000Y-61849000D01*
X115749000Y-59944000D02*
X115114000Y-59309000D01*
X117019000Y-59944000D02*
X117654000Y-60579000D01*
X115114000Y-59309000D02*
X115114000Y-58039000D01*
X117654000Y-59309000D02*
X117019000Y-59944000D01*
X115114000Y-58039000D02*
X115749000Y-57404000D01*
X117654000Y-58039000D02*
X117654000Y-59309000D01*
X115749000Y-57404000D02*
X117019000Y-57404000D01*
X117019000Y-57404000D02*
X117654000Y-58039000D01*
D14*
%TO.C,R8*%
X140886737Y-75430546D02*
X141123789Y-75667598D01*
X140349335Y-75967948D02*
X140586387Y-76205000D01*
%TO.C,C15*%
X144387835Y-69888000D02*
X144156165Y-69888000D01*
X144387835Y-69168000D02*
X144156165Y-69168000D01*
D15*
%TO.C,J9*%
X180086000Y-87630000D02*
X181356000Y-87630000D01*
X181356000Y-87630000D02*
X181991000Y-86995000D01*
X179451000Y-86995000D02*
X180086000Y-87630000D01*
X179451000Y-86995000D02*
X179451000Y-85725000D01*
X179451000Y-85725000D02*
X180086000Y-85090000D01*
X181991000Y-85725000D02*
X181991000Y-86995000D01*
X180086000Y-85090000D02*
X179451000Y-84455000D01*
X181356000Y-85090000D02*
X181991000Y-85725000D01*
X179451000Y-84455000D02*
X179451000Y-83185000D01*
X181991000Y-84455000D02*
X181356000Y-85090000D01*
X179451000Y-83185000D02*
X180086000Y-82550000D01*
X181991000Y-83185000D02*
X181991000Y-84455000D01*
X180086000Y-82550000D02*
X179451000Y-81915000D01*
X181356000Y-82550000D02*
X181991000Y-83185000D01*
X179451000Y-81915000D02*
X179451000Y-80645000D01*
X181991000Y-81915000D02*
X181356000Y-82550000D01*
X179451000Y-80645000D02*
X180086000Y-80010000D01*
X181991000Y-80645000D02*
X181991000Y-81915000D01*
X181356000Y-80010000D02*
X181991000Y-80645000D01*
X181356000Y-80010000D02*
X181991000Y-79375000D01*
X179451000Y-79375000D02*
X180086000Y-80010000D01*
X179451000Y-79375000D02*
X179451000Y-78105000D01*
X179451000Y-78105000D02*
X180086000Y-77470000D01*
X181991000Y-78105000D02*
X181991000Y-79375000D01*
X180086000Y-77470000D02*
X179451000Y-76835000D01*
X181356000Y-77470000D02*
X181991000Y-78105000D01*
X179451000Y-76835000D02*
X179451000Y-75565000D01*
X181991000Y-76835000D02*
X181356000Y-77470000D01*
X179451000Y-75565000D02*
X180086000Y-74930000D01*
X181991000Y-75565000D02*
X181991000Y-76835000D01*
X180086000Y-74930000D02*
X179451000Y-74295000D01*
X181356000Y-74930000D02*
X181991000Y-75565000D01*
X179451000Y-74295000D02*
X179451000Y-73025000D01*
X181991000Y-74295000D02*
X181356000Y-74930000D01*
X179451000Y-73025000D02*
X180086000Y-72390000D01*
X181991000Y-73025000D02*
X181991000Y-74295000D01*
X181356000Y-72390000D02*
X181991000Y-73025000D01*
X181356000Y-72390000D02*
X181991000Y-71755000D01*
X179451000Y-71755000D02*
X180086000Y-72390000D01*
X179451000Y-71755000D02*
X179451000Y-70485000D01*
X179451000Y-70485000D02*
X180086000Y-69850000D01*
X181991000Y-70485000D02*
X181991000Y-71755000D01*
X181356000Y-69850000D02*
X181991000Y-70485000D01*
X181356000Y-69850000D02*
X181991000Y-69215000D01*
X179451000Y-69215000D02*
X180086000Y-69850000D01*
X179451000Y-69215000D02*
X179451000Y-67945000D01*
X179451000Y-67945000D02*
X180086000Y-67310000D01*
X181991000Y-67945000D02*
X181991000Y-69215000D01*
X181356000Y-67310000D02*
X181991000Y-67945000D01*
X181356000Y-67310000D02*
X181991000Y-66675000D01*
X179451000Y-66675000D02*
X180086000Y-67310000D01*
X179451000Y-66675000D02*
X179451000Y-65405000D01*
X179451000Y-65405000D02*
X180086000Y-64770000D01*
X181991000Y-65405000D02*
X181991000Y-66675000D01*
X180086000Y-64770000D02*
X181356000Y-64770000D01*
X181356000Y-64770000D02*
X181991000Y-65405000D01*
D14*
%TO.C,U6*%
X165510001Y-85304000D02*
X165510001Y-84164000D01*
X165280001Y-84164000D02*
X165510001Y-84164000D01*
X165280001Y-84164000D02*
X165280001Y-81444000D01*
X170000001Y-84164000D02*
X169770001Y-84164000D01*
X165280001Y-81444000D02*
X166590001Y-81444000D01*
X168690001Y-81444000D02*
X170000001Y-81444000D01*
X170000001Y-81444000D02*
X170000001Y-84164000D01*
%TO.C,C4*%
X126840735Y-83001401D02*
X126609065Y-83001401D01*
X126840735Y-82281401D02*
X126609065Y-82281401D01*
%TO.C,R18*%
X139994867Y-68051617D02*
X139994867Y-67716375D01*
X140754867Y-68051617D02*
X140754867Y-67716375D01*
%TO.C,R4*%
X143740432Y-72410010D02*
X143977484Y-72647062D01*
X143203030Y-72947412D02*
X143440082Y-73184464D01*
%TD*%
M02*
