%TF.GenerationSoftware,KiCad,Pcbnew,7.0.2*%
%TF.CreationDate,2023-05-16T16:20:18-04:00*%
%TF.ProjectId,mini_motor_go,6d696e69-5f6d-46f7-946f-725f676f2e6b,rev?*%
%TF.SameCoordinates,Original*%
%TF.FileFunction,Copper,L1,Top*%
%TF.FilePolarity,Positive*%
%FSLAX46Y46*%
G04 Gerber Fmt 4.6, Leading zero omitted, Abs format (unit mm)*
G04 Created by KiCad (PCBNEW 7.0.2) date 2023-05-16 16:20:18*
%MOMM*%
%LPD*%
G01*
G04 APERTURE LIST*
G04 Aperture macros list*
%AMRoundRect*
0 Rectangle with rounded corners*
0 $1 Rounding radius*
0 $2 $3 $4 $5 $6 $7 $8 $9 X,Y pos of 4 corners*
0 Add a 4 corners polygon primitive as box body*
4,1,4,$2,$3,$4,$5,$6,$7,$8,$9,$2,$3,0*
0 Add four circle primitives for the rounded corners*
1,1,$1+$1,$2,$3*
1,1,$1+$1,$4,$5*
1,1,$1+$1,$6,$7*
1,1,$1+$1,$8,$9*
0 Add four rect primitives between the rounded corners*
20,1,$1+$1,$2,$3,$4,$5,0*
20,1,$1+$1,$4,$5,$6,$7,0*
20,1,$1+$1,$6,$7,$8,$9,0*
20,1,$1+$1,$8,$9,$2,$3,0*%
%AMRotRect*
0 Rectangle, with rotation*
0 The origin of the aperture is its center*
0 $1 length*
0 $2 width*
0 $3 Rotation angle, in degrees counterclockwise*
0 Add horizontal line*
21,1,$1,$2,0,0,$3*%
%AMFreePoly0*
4,1,14,0.289644,0.110355,0.410355,-0.010356,0.425000,-0.045711,0.425000,-0.075000,0.410355,-0.110355,0.375000,-0.125000,-0.375000,-0.125000,-0.410355,-0.110355,-0.425000,-0.075000,-0.425000,0.075000,-0.410355,0.110355,-0.375000,0.125000,0.254289,0.125000,0.289644,0.110355,0.289644,0.110355,$1*%
%AMFreePoly1*
4,1,14,0.410355,0.110355,0.425000,0.075000,0.425000,0.045711,0.410355,0.010356,0.289644,-0.110355,0.254289,-0.125000,-0.375000,-0.125000,-0.410355,-0.110355,-0.425000,-0.075000,-0.425000,0.075000,-0.410355,0.110355,-0.375000,0.125000,0.375000,0.125000,0.410355,0.110355,0.410355,0.110355,$1*%
%AMFreePoly2*
4,1,14,0.110355,0.410355,0.125000,0.375000,0.125000,-0.375000,0.110355,-0.410355,0.075000,-0.425000,-0.075000,-0.425000,-0.110355,-0.410355,-0.125000,-0.375000,-0.125000,0.254289,-0.110355,0.289644,0.010356,0.410355,0.045711,0.425000,0.075000,0.425000,0.110355,0.410355,0.110355,0.410355,$1*%
%AMFreePoly3*
4,1,14,-0.010356,0.410355,0.110355,0.289644,0.125000,0.254289,0.125000,-0.375000,0.110355,-0.410355,0.075000,-0.425000,-0.075000,-0.425000,-0.110355,-0.410355,-0.125000,-0.375000,-0.125000,0.375000,-0.110355,0.410355,-0.075000,0.425000,-0.045711,0.425000,-0.010356,0.410355,-0.010356,0.410355,$1*%
%AMFreePoly4*
4,1,14,0.410355,0.110355,0.425000,0.075000,0.425000,-0.075000,0.410355,-0.110355,0.375000,-0.125000,-0.254289,-0.125000,-0.289644,-0.110355,-0.410355,0.010356,-0.425000,0.045711,-0.425000,0.075000,-0.410355,0.110355,-0.375000,0.125000,0.375000,0.125000,0.410355,0.110355,0.410355,0.110355,$1*%
%AMFreePoly5*
4,1,14,0.410355,0.110355,0.425000,0.075000,0.425000,-0.075000,0.410355,-0.110355,0.375000,-0.125000,-0.375000,-0.125000,-0.410355,-0.110355,-0.425000,-0.075000,-0.425000,-0.045711,-0.410355,-0.010356,-0.289644,0.110355,-0.254289,0.125000,0.375000,0.125000,0.410355,0.110355,0.410355,0.110355,$1*%
%AMFreePoly6*
4,1,14,0.110355,0.410355,0.125000,0.375000,0.125000,-0.254289,0.110355,-0.289644,-0.010356,-0.410355,-0.045711,-0.425000,-0.075000,-0.425000,-0.110355,-0.410355,-0.125000,-0.375000,-0.125000,0.375000,-0.110355,0.410355,-0.075000,0.425000,0.075000,0.425000,0.110355,0.410355,0.110355,0.410355,$1*%
%AMFreePoly7*
4,1,14,0.110355,0.410355,0.125000,0.375000,0.125000,-0.375000,0.110355,-0.410355,0.075000,-0.425000,0.045711,-0.425000,0.010356,-0.410355,-0.110355,-0.289644,-0.125000,-0.254289,-0.125000,0.375000,-0.110355,0.410355,-0.075000,0.425000,0.075000,0.425000,0.110355,0.410355,0.110355,0.410355,$1*%
%AMFreePoly8*
4,1,9,3.862500,-0.866500,0.737500,-0.866500,0.737500,-0.450000,-0.737500,-0.450000,-0.737500,0.450000,0.737500,0.450000,0.737500,0.866500,3.862500,0.866500,3.862500,-0.866500,3.862500,-0.866500,$1*%
G04 Aperture macros list end*
%TA.AperFunction,EtchedComponent*%
%ADD10C,0.010000*%
%TD*%
%TA.AperFunction,SMDPad,CuDef*%
%ADD11R,1.100000X1.000000*%
%TD*%
%TA.AperFunction,SMDPad,CuDef*%
%ADD12FreePoly0,90.000000*%
%TD*%
%TA.AperFunction,SMDPad,CuDef*%
%ADD13RoundRect,0.062500X0.062500X-0.362500X0.062500X0.362500X-0.062500X0.362500X-0.062500X-0.362500X0*%
%TD*%
%TA.AperFunction,SMDPad,CuDef*%
%ADD14FreePoly1,90.000000*%
%TD*%
%TA.AperFunction,SMDPad,CuDef*%
%ADD15FreePoly2,90.000000*%
%TD*%
%TA.AperFunction,SMDPad,CuDef*%
%ADD16RoundRect,0.062500X0.362500X-0.062500X0.362500X0.062500X-0.362500X0.062500X-0.362500X-0.062500X0*%
%TD*%
%TA.AperFunction,SMDPad,CuDef*%
%ADD17FreePoly3,90.000000*%
%TD*%
%TA.AperFunction,SMDPad,CuDef*%
%ADD18FreePoly4,90.000000*%
%TD*%
%TA.AperFunction,SMDPad,CuDef*%
%ADD19RoundRect,0.062500X0.062500X-0.350000X0.062500X0.350000X-0.062500X0.350000X-0.062500X-0.350000X0*%
%TD*%
%TA.AperFunction,SMDPad,CuDef*%
%ADD20FreePoly5,90.000000*%
%TD*%
%TA.AperFunction,SMDPad,CuDef*%
%ADD21FreePoly6,90.000000*%
%TD*%
%TA.AperFunction,SMDPad,CuDef*%
%ADD22FreePoly7,90.000000*%
%TD*%
%TA.AperFunction,ComponentPad*%
%ADD23C,0.600000*%
%TD*%
%TA.AperFunction,SMDPad,CuDef*%
%ADD24R,1.700000X1.700000*%
%TD*%
%TA.AperFunction,SMDPad,CuDef*%
%ADD25RoundRect,0.155000X0.040659X0.259862X-0.259862X-0.040659X-0.040659X-0.259862X0.259862X0.040659X0*%
%TD*%
%TA.AperFunction,SMDPad,CuDef*%
%ADD26RoundRect,0.160000X-0.160000X0.197500X-0.160000X-0.197500X0.160000X-0.197500X0.160000X0.197500X0*%
%TD*%
%TA.AperFunction,ComponentPad*%
%ADD27C,1.597660*%
%TD*%
%TA.AperFunction,SMDPad,CuDef*%
%ADD28RotRect,1.000000X1.500000X45.000000*%
%TD*%
%TA.AperFunction,SMDPad,CuDef*%
%ADD29RoundRect,0.030000X0.120000X-0.695000X0.120000X0.695000X-0.120000X0.695000X-0.120000X-0.695000X0*%
%TD*%
%TA.AperFunction,SMDPad,CuDef*%
%ADD30RoundRect,0.160000X0.026517X0.252791X-0.252791X-0.026517X-0.026517X-0.252791X0.252791X0.026517X0*%
%TD*%
%TA.AperFunction,SMDPad,CuDef*%
%ADD31RoundRect,0.250000X0.088388X-0.548008X0.548008X-0.088388X-0.088388X0.548008X-0.548008X0.088388X0*%
%TD*%
%TA.AperFunction,SMDPad,CuDef*%
%ADD32RoundRect,0.160000X0.197500X0.160000X-0.197500X0.160000X-0.197500X-0.160000X0.197500X-0.160000X0*%
%TD*%
%TA.AperFunction,SMDPad,CuDef*%
%ADD33RoundRect,0.160000X-0.197500X-0.160000X0.197500X-0.160000X0.197500X0.160000X-0.197500X0.160000X0*%
%TD*%
%TA.AperFunction,SMDPad,CuDef*%
%ADD34RoundRect,0.155000X-0.212500X-0.155000X0.212500X-0.155000X0.212500X0.155000X-0.212500X0.155000X0*%
%TD*%
%TA.AperFunction,SMDPad,CuDef*%
%ADD35R,2.800000X1.850000*%
%TD*%
%TA.AperFunction,SMDPad,CuDef*%
%ADD36RoundRect,0.160000X0.160000X-0.197500X0.160000X0.197500X-0.160000X0.197500X-0.160000X-0.197500X0*%
%TD*%
%TA.AperFunction,SMDPad,CuDef*%
%ADD37R,0.700000X1.000000*%
%TD*%
%TA.AperFunction,SMDPad,CuDef*%
%ADD38RoundRect,0.155000X0.212500X0.155000X-0.212500X0.155000X-0.212500X-0.155000X0.212500X-0.155000X0*%
%TD*%
%TA.AperFunction,SMDPad,CuDef*%
%ADD39RoundRect,0.160000X-0.026517X-0.252791X0.252791X0.026517X0.026517X0.252791X-0.252791X-0.026517X0*%
%TD*%
%TA.AperFunction,SMDPad,CuDef*%
%ADD40R,1.500000X0.900000*%
%TD*%
%TA.AperFunction,SMDPad,CuDef*%
%ADD41R,0.900000X1.500000*%
%TD*%
%TA.AperFunction,SMDPad,CuDef*%
%ADD42R,0.900000X0.900000*%
%TD*%
%TA.AperFunction,SMDPad,CuDef*%
%ADD43RoundRect,0.160000X-0.252791X0.026517X0.026517X-0.252791X0.252791X-0.026517X-0.026517X0.252791X0*%
%TD*%
%TA.AperFunction,SMDPad,CuDef*%
%ADD44RoundRect,0.160000X0.252791X-0.026517X-0.026517X0.252791X-0.252791X0.026517X0.026517X-0.252791X0*%
%TD*%
%TA.AperFunction,SMDPad,CuDef*%
%ADD45RoundRect,0.237500X0.380070X-0.044194X-0.044194X0.380070X-0.380070X0.044194X0.044194X-0.380070X0*%
%TD*%
%TA.AperFunction,SMDPad,CuDef*%
%ADD46RoundRect,0.237500X-0.300000X-0.237500X0.300000X-0.237500X0.300000X0.237500X-0.300000X0.237500X0*%
%TD*%
%TA.AperFunction,ComponentPad*%
%ADD47C,1.879600*%
%TD*%
%TA.AperFunction,SMDPad,CuDef*%
%ADD48R,1.560000X0.650000*%
%TD*%
%TA.AperFunction,SMDPad,CuDef*%
%ADD49R,0.600000X1.100000*%
%TD*%
%TA.AperFunction,SMDPad,CuDef*%
%ADD50R,0.300000X1.100000*%
%TD*%
%TA.AperFunction,ComponentPad*%
%ADD51O,0.950000X1.900000*%
%TD*%
%TA.AperFunction,ComponentPad*%
%ADD52O,0.800000X1.600000*%
%TD*%
%TA.AperFunction,SMDPad,CuDef*%
%ADD53RoundRect,0.155000X-0.155000X0.212500X-0.155000X-0.212500X0.155000X-0.212500X0.155000X0.212500X0*%
%TD*%
%TA.AperFunction,ComponentPad*%
%ADD54R,1.600000X1.600000*%
%TD*%
%TA.AperFunction,ComponentPad*%
%ADD55C,1.600000*%
%TD*%
%TA.AperFunction,SMDPad,CuDef*%
%ADD56RoundRect,0.237500X0.300000X0.237500X-0.300000X0.237500X-0.300000X-0.237500X0.300000X-0.237500X0*%
%TD*%
%TA.AperFunction,SMDPad,CuDef*%
%ADD57R,0.599440X1.348740*%
%TD*%
%TA.AperFunction,SMDPad,CuDef*%
%ADD58R,1.198880X1.998980*%
%TD*%
%TA.AperFunction,SMDPad,CuDef*%
%ADD59R,0.900000X1.300000*%
%TD*%
%TA.AperFunction,SMDPad,CuDef*%
%ADD60FreePoly8,90.000000*%
%TD*%
%TA.AperFunction,ComponentPad*%
%ADD61C,6.000000*%
%TD*%
%TA.AperFunction,ComponentPad*%
%ADD62RoundRect,1.250000X1.250000X1.250000X-1.250000X1.250000X-1.250000X-1.250000X1.250000X-1.250000X0*%
%TD*%
%TA.AperFunction,ViaPad*%
%ADD63C,0.600000*%
%TD*%
%TA.AperFunction,ViaPad*%
%ADD64C,0.800000*%
%TD*%
%TA.AperFunction,Conductor*%
%ADD65C,0.152000*%
%TD*%
%TA.AperFunction,Conductor*%
%ADD66C,0.200000*%
%TD*%
%TA.AperFunction,Conductor*%
%ADD67C,0.500000*%
%TD*%
%TA.AperFunction,Conductor*%
%ADD68C,0.300000*%
%TD*%
%TA.AperFunction,Conductor*%
%ADD69C,0.250000*%
%TD*%
%TA.AperFunction,Conductor*%
%ADD70C,2.500000*%
%TD*%
G04 APERTURE END LIST*
%TA.AperFunction,EtchedComponent*%
%TO.C,JP1*%
G36*
X151164797Y-83051748D02*
G01*
X150811243Y-83405302D01*
X150386979Y-82981038D01*
X150740533Y-82627484D01*
X151164797Y-83051748D01*
G37*
%TD.AperFunction*%
%TA.AperFunction,EtchedComponent*%
%TO.C,JP3*%
G36*
X147600312Y-78514842D02*
G01*
X147246758Y-78868396D01*
X146822494Y-78444132D01*
X147176048Y-78090578D01*
X147600312Y-78514842D01*
G37*
%TD.AperFunction*%
%TO.C,J11*%
D10*
X158776000Y-90021000D02*
X158802000Y-90023000D01*
X158828000Y-90026000D01*
X158854000Y-90031000D01*
X158879000Y-90037000D01*
X158905000Y-90044000D01*
X158929000Y-90053000D01*
X158953000Y-90063000D01*
X158977000Y-90074000D01*
X159000000Y-90087000D01*
X159022000Y-90101000D01*
X159044000Y-90115000D01*
X159065000Y-90131000D01*
X159085000Y-90148000D01*
X159104000Y-90166000D01*
X159122000Y-90185000D01*
X159139000Y-90205000D01*
X159155000Y-90226000D01*
X159169000Y-90248000D01*
X159183000Y-90270000D01*
X159196000Y-90293000D01*
X159207000Y-90317000D01*
X159217000Y-90341000D01*
X159226000Y-90365000D01*
X159233000Y-90391000D01*
X159239000Y-90416000D01*
X159244000Y-90442000D01*
X159247000Y-90468000D01*
X159249000Y-90494000D01*
X159250000Y-90520000D01*
X159250000Y-91320000D01*
X159249000Y-91346000D01*
X159247000Y-91372000D01*
X159244000Y-91398000D01*
X159239000Y-91424000D01*
X159233000Y-91449000D01*
X159226000Y-91475000D01*
X159217000Y-91499000D01*
X159207000Y-91523000D01*
X159196000Y-91547000D01*
X159183000Y-91570000D01*
X159169000Y-91592000D01*
X159155000Y-91614000D01*
X159139000Y-91635000D01*
X159122000Y-91655000D01*
X159104000Y-91674000D01*
X159085000Y-91692000D01*
X159065000Y-91709000D01*
X159044000Y-91725000D01*
X159022000Y-91739000D01*
X159000000Y-91753000D01*
X158977000Y-91766000D01*
X158953000Y-91777000D01*
X158929000Y-91787000D01*
X158905000Y-91796000D01*
X158879000Y-91803000D01*
X158854000Y-91809000D01*
X158828000Y-91814000D01*
X158802000Y-91817000D01*
X158776000Y-91819000D01*
X158750000Y-91820000D01*
X158724000Y-91819000D01*
X158698000Y-91817000D01*
X158672000Y-91814000D01*
X158646000Y-91809000D01*
X158621000Y-91803000D01*
X158595000Y-91796000D01*
X158571000Y-91787000D01*
X158547000Y-91777000D01*
X158523000Y-91766000D01*
X158500000Y-91753000D01*
X158478000Y-91739000D01*
X158456000Y-91725000D01*
X158435000Y-91709000D01*
X158415000Y-91692000D01*
X158396000Y-91674000D01*
X158378000Y-91655000D01*
X158361000Y-91635000D01*
X158345000Y-91614000D01*
X158331000Y-91592000D01*
X158317000Y-91570000D01*
X158304000Y-91547000D01*
X158293000Y-91523000D01*
X158283000Y-91499000D01*
X158274000Y-91475000D01*
X158267000Y-91449000D01*
X158261000Y-91424000D01*
X158256000Y-91398000D01*
X158253000Y-91372000D01*
X158251000Y-91346000D01*
X158250000Y-91320000D01*
X158250000Y-90520000D01*
X158251000Y-90494000D01*
X158253000Y-90468000D01*
X158256000Y-90442000D01*
X158261000Y-90416000D01*
X158267000Y-90391000D01*
X158274000Y-90365000D01*
X158283000Y-90341000D01*
X158293000Y-90317000D01*
X158304000Y-90293000D01*
X158317000Y-90270000D01*
X158331000Y-90248000D01*
X158345000Y-90226000D01*
X158361000Y-90205000D01*
X158378000Y-90185000D01*
X158396000Y-90166000D01*
X158415000Y-90148000D01*
X158435000Y-90131000D01*
X158456000Y-90115000D01*
X158478000Y-90101000D01*
X158500000Y-90087000D01*
X158523000Y-90074000D01*
X158547000Y-90063000D01*
X158571000Y-90053000D01*
X158595000Y-90044000D01*
X158621000Y-90037000D01*
X158646000Y-90031000D01*
X158672000Y-90026000D01*
X158698000Y-90023000D01*
X158724000Y-90021000D01*
X158750000Y-90020000D01*
X158776000Y-90021000D01*
%TA.AperFunction,EtchedComponent*%
G36*
X158776000Y-90021000D02*
G01*
X158802000Y-90023000D01*
X158828000Y-90026000D01*
X158854000Y-90031000D01*
X158879000Y-90037000D01*
X158905000Y-90044000D01*
X158929000Y-90053000D01*
X158953000Y-90063000D01*
X158977000Y-90074000D01*
X159000000Y-90087000D01*
X159022000Y-90101000D01*
X159044000Y-90115000D01*
X159065000Y-90131000D01*
X159085000Y-90148000D01*
X159104000Y-90166000D01*
X159122000Y-90185000D01*
X159139000Y-90205000D01*
X159155000Y-90226000D01*
X159169000Y-90248000D01*
X159183000Y-90270000D01*
X159196000Y-90293000D01*
X159207000Y-90317000D01*
X159217000Y-90341000D01*
X159226000Y-90365000D01*
X159233000Y-90391000D01*
X159239000Y-90416000D01*
X159244000Y-90442000D01*
X159247000Y-90468000D01*
X159249000Y-90494000D01*
X159250000Y-90520000D01*
X159250000Y-91320000D01*
X159249000Y-91346000D01*
X159247000Y-91372000D01*
X159244000Y-91398000D01*
X159239000Y-91424000D01*
X159233000Y-91449000D01*
X159226000Y-91475000D01*
X159217000Y-91499000D01*
X159207000Y-91523000D01*
X159196000Y-91547000D01*
X159183000Y-91570000D01*
X159169000Y-91592000D01*
X159155000Y-91614000D01*
X159139000Y-91635000D01*
X159122000Y-91655000D01*
X159104000Y-91674000D01*
X159085000Y-91692000D01*
X159065000Y-91709000D01*
X159044000Y-91725000D01*
X159022000Y-91739000D01*
X159000000Y-91753000D01*
X158977000Y-91766000D01*
X158953000Y-91777000D01*
X158929000Y-91787000D01*
X158905000Y-91796000D01*
X158879000Y-91803000D01*
X158854000Y-91809000D01*
X158828000Y-91814000D01*
X158802000Y-91817000D01*
X158776000Y-91819000D01*
X158750000Y-91820000D01*
X158724000Y-91819000D01*
X158698000Y-91817000D01*
X158672000Y-91814000D01*
X158646000Y-91809000D01*
X158621000Y-91803000D01*
X158595000Y-91796000D01*
X158571000Y-91787000D01*
X158547000Y-91777000D01*
X158523000Y-91766000D01*
X158500000Y-91753000D01*
X158478000Y-91739000D01*
X158456000Y-91725000D01*
X158435000Y-91709000D01*
X158415000Y-91692000D01*
X158396000Y-91674000D01*
X158378000Y-91655000D01*
X158361000Y-91635000D01*
X158345000Y-91614000D01*
X158331000Y-91592000D01*
X158317000Y-91570000D01*
X158304000Y-91547000D01*
X158293000Y-91523000D01*
X158283000Y-91499000D01*
X158274000Y-91475000D01*
X158267000Y-91449000D01*
X158261000Y-91424000D01*
X158256000Y-91398000D01*
X158253000Y-91372000D01*
X158251000Y-91346000D01*
X158250000Y-91320000D01*
X158250000Y-90520000D01*
X158251000Y-90494000D01*
X158253000Y-90468000D01*
X158256000Y-90442000D01*
X158261000Y-90416000D01*
X158267000Y-90391000D01*
X158274000Y-90365000D01*
X158283000Y-90341000D01*
X158293000Y-90317000D01*
X158304000Y-90293000D01*
X158317000Y-90270000D01*
X158331000Y-90248000D01*
X158345000Y-90226000D01*
X158361000Y-90205000D01*
X158378000Y-90185000D01*
X158396000Y-90166000D01*
X158415000Y-90148000D01*
X158435000Y-90131000D01*
X158456000Y-90115000D01*
X158478000Y-90101000D01*
X158500000Y-90087000D01*
X158523000Y-90074000D01*
X158547000Y-90063000D01*
X158571000Y-90053000D01*
X158595000Y-90044000D01*
X158621000Y-90037000D01*
X158646000Y-90031000D01*
X158672000Y-90026000D01*
X158698000Y-90023000D01*
X158724000Y-90021000D01*
X158750000Y-90020000D01*
X158776000Y-90021000D01*
G37*
%TD.AperFunction*%
X158776000Y-93821000D02*
X158802000Y-93823000D01*
X158828000Y-93826000D01*
X158854000Y-93831000D01*
X158879000Y-93837000D01*
X158905000Y-93844000D01*
X158929000Y-93853000D01*
X158953000Y-93863000D01*
X158977000Y-93874000D01*
X159000000Y-93887000D01*
X159022000Y-93901000D01*
X159044000Y-93915000D01*
X159065000Y-93931000D01*
X159085000Y-93948000D01*
X159104000Y-93966000D01*
X159122000Y-93985000D01*
X159139000Y-94005000D01*
X159155000Y-94026000D01*
X159169000Y-94048000D01*
X159183000Y-94070000D01*
X159196000Y-94093000D01*
X159207000Y-94117000D01*
X159217000Y-94141000D01*
X159226000Y-94165000D01*
X159233000Y-94191000D01*
X159239000Y-94216000D01*
X159244000Y-94242000D01*
X159247000Y-94268000D01*
X159249000Y-94294000D01*
X159250000Y-94320000D01*
X159250000Y-95520000D01*
X159249000Y-95546000D01*
X159247000Y-95572000D01*
X159244000Y-95598000D01*
X159239000Y-95624000D01*
X159233000Y-95649000D01*
X159226000Y-95675000D01*
X159217000Y-95699000D01*
X159207000Y-95723000D01*
X159196000Y-95747000D01*
X159183000Y-95770000D01*
X159169000Y-95792000D01*
X159155000Y-95814000D01*
X159139000Y-95835000D01*
X159122000Y-95855000D01*
X159104000Y-95874000D01*
X159085000Y-95892000D01*
X159065000Y-95909000D01*
X159044000Y-95925000D01*
X159022000Y-95939000D01*
X159000000Y-95953000D01*
X158977000Y-95966000D01*
X158953000Y-95977000D01*
X158929000Y-95987000D01*
X158905000Y-95996000D01*
X158879000Y-96003000D01*
X158854000Y-96009000D01*
X158828000Y-96014000D01*
X158802000Y-96017000D01*
X158776000Y-96019000D01*
X158750000Y-96020000D01*
X158724000Y-96019000D01*
X158698000Y-96017000D01*
X158672000Y-96014000D01*
X158646000Y-96009000D01*
X158621000Y-96003000D01*
X158595000Y-95996000D01*
X158571000Y-95987000D01*
X158547000Y-95977000D01*
X158523000Y-95966000D01*
X158500000Y-95953000D01*
X158478000Y-95939000D01*
X158456000Y-95925000D01*
X158435000Y-95909000D01*
X158415000Y-95892000D01*
X158396000Y-95874000D01*
X158378000Y-95855000D01*
X158361000Y-95835000D01*
X158345000Y-95814000D01*
X158331000Y-95792000D01*
X158317000Y-95770000D01*
X158304000Y-95747000D01*
X158293000Y-95723000D01*
X158283000Y-95699000D01*
X158274000Y-95675000D01*
X158267000Y-95649000D01*
X158261000Y-95624000D01*
X158256000Y-95598000D01*
X158253000Y-95572000D01*
X158251000Y-95546000D01*
X158250000Y-95520000D01*
X158250000Y-94320000D01*
X158251000Y-94294000D01*
X158253000Y-94268000D01*
X158256000Y-94242000D01*
X158261000Y-94216000D01*
X158267000Y-94191000D01*
X158274000Y-94165000D01*
X158283000Y-94141000D01*
X158293000Y-94117000D01*
X158304000Y-94093000D01*
X158317000Y-94070000D01*
X158331000Y-94048000D01*
X158345000Y-94026000D01*
X158361000Y-94005000D01*
X158378000Y-93985000D01*
X158396000Y-93966000D01*
X158415000Y-93948000D01*
X158435000Y-93931000D01*
X158456000Y-93915000D01*
X158478000Y-93901000D01*
X158500000Y-93887000D01*
X158523000Y-93874000D01*
X158547000Y-93863000D01*
X158571000Y-93853000D01*
X158595000Y-93844000D01*
X158621000Y-93837000D01*
X158646000Y-93831000D01*
X158672000Y-93826000D01*
X158698000Y-93823000D01*
X158724000Y-93821000D01*
X158750000Y-93820000D01*
X158776000Y-93821000D01*
%TA.AperFunction,EtchedComponent*%
G36*
X158776000Y-93821000D02*
G01*
X158802000Y-93823000D01*
X158828000Y-93826000D01*
X158854000Y-93831000D01*
X158879000Y-93837000D01*
X158905000Y-93844000D01*
X158929000Y-93853000D01*
X158953000Y-93863000D01*
X158977000Y-93874000D01*
X159000000Y-93887000D01*
X159022000Y-93901000D01*
X159044000Y-93915000D01*
X159065000Y-93931000D01*
X159085000Y-93948000D01*
X159104000Y-93966000D01*
X159122000Y-93985000D01*
X159139000Y-94005000D01*
X159155000Y-94026000D01*
X159169000Y-94048000D01*
X159183000Y-94070000D01*
X159196000Y-94093000D01*
X159207000Y-94117000D01*
X159217000Y-94141000D01*
X159226000Y-94165000D01*
X159233000Y-94191000D01*
X159239000Y-94216000D01*
X159244000Y-94242000D01*
X159247000Y-94268000D01*
X159249000Y-94294000D01*
X159250000Y-94320000D01*
X159250000Y-95520000D01*
X159249000Y-95546000D01*
X159247000Y-95572000D01*
X159244000Y-95598000D01*
X159239000Y-95624000D01*
X159233000Y-95649000D01*
X159226000Y-95675000D01*
X159217000Y-95699000D01*
X159207000Y-95723000D01*
X159196000Y-95747000D01*
X159183000Y-95770000D01*
X159169000Y-95792000D01*
X159155000Y-95814000D01*
X159139000Y-95835000D01*
X159122000Y-95855000D01*
X159104000Y-95874000D01*
X159085000Y-95892000D01*
X159065000Y-95909000D01*
X159044000Y-95925000D01*
X159022000Y-95939000D01*
X159000000Y-95953000D01*
X158977000Y-95966000D01*
X158953000Y-95977000D01*
X158929000Y-95987000D01*
X158905000Y-95996000D01*
X158879000Y-96003000D01*
X158854000Y-96009000D01*
X158828000Y-96014000D01*
X158802000Y-96017000D01*
X158776000Y-96019000D01*
X158750000Y-96020000D01*
X158724000Y-96019000D01*
X158698000Y-96017000D01*
X158672000Y-96014000D01*
X158646000Y-96009000D01*
X158621000Y-96003000D01*
X158595000Y-95996000D01*
X158571000Y-95987000D01*
X158547000Y-95977000D01*
X158523000Y-95966000D01*
X158500000Y-95953000D01*
X158478000Y-95939000D01*
X158456000Y-95925000D01*
X158435000Y-95909000D01*
X158415000Y-95892000D01*
X158396000Y-95874000D01*
X158378000Y-95855000D01*
X158361000Y-95835000D01*
X158345000Y-95814000D01*
X158331000Y-95792000D01*
X158317000Y-95770000D01*
X158304000Y-95747000D01*
X158293000Y-95723000D01*
X158283000Y-95699000D01*
X158274000Y-95675000D01*
X158267000Y-95649000D01*
X158261000Y-95624000D01*
X158256000Y-95598000D01*
X158253000Y-95572000D01*
X158251000Y-95546000D01*
X158250000Y-95520000D01*
X158250000Y-94320000D01*
X158251000Y-94294000D01*
X158253000Y-94268000D01*
X158256000Y-94242000D01*
X158261000Y-94216000D01*
X158267000Y-94191000D01*
X158274000Y-94165000D01*
X158283000Y-94141000D01*
X158293000Y-94117000D01*
X158304000Y-94093000D01*
X158317000Y-94070000D01*
X158331000Y-94048000D01*
X158345000Y-94026000D01*
X158361000Y-94005000D01*
X158378000Y-93985000D01*
X158396000Y-93966000D01*
X158415000Y-93948000D01*
X158435000Y-93931000D01*
X158456000Y-93915000D01*
X158478000Y-93901000D01*
X158500000Y-93887000D01*
X158523000Y-93874000D01*
X158547000Y-93863000D01*
X158571000Y-93853000D01*
X158595000Y-93844000D01*
X158621000Y-93837000D01*
X158646000Y-93831000D01*
X158672000Y-93826000D01*
X158698000Y-93823000D01*
X158724000Y-93821000D01*
X158750000Y-93820000D01*
X158776000Y-93821000D01*
G37*
%TD.AperFunction*%
X170016000Y-90021000D02*
X170042000Y-90023000D01*
X170068000Y-90026000D01*
X170094000Y-90031000D01*
X170119000Y-90037000D01*
X170145000Y-90044000D01*
X170169000Y-90053000D01*
X170193000Y-90063000D01*
X170217000Y-90074000D01*
X170240000Y-90087000D01*
X170262000Y-90101000D01*
X170284000Y-90115000D01*
X170305000Y-90131000D01*
X170325000Y-90148000D01*
X170344000Y-90166000D01*
X170362000Y-90185000D01*
X170379000Y-90205000D01*
X170395000Y-90226000D01*
X170409000Y-90248000D01*
X170423000Y-90270000D01*
X170436000Y-90293000D01*
X170447000Y-90317000D01*
X170457000Y-90341000D01*
X170466000Y-90365000D01*
X170473000Y-90391000D01*
X170479000Y-90416000D01*
X170484000Y-90442000D01*
X170487000Y-90468000D01*
X170489000Y-90494000D01*
X170490000Y-90520000D01*
X170490000Y-91320000D01*
X170489000Y-91346000D01*
X170487000Y-91372000D01*
X170484000Y-91398000D01*
X170479000Y-91424000D01*
X170473000Y-91449000D01*
X170466000Y-91475000D01*
X170457000Y-91499000D01*
X170447000Y-91523000D01*
X170436000Y-91547000D01*
X170423000Y-91570000D01*
X170409000Y-91592000D01*
X170395000Y-91614000D01*
X170379000Y-91635000D01*
X170362000Y-91655000D01*
X170344000Y-91674000D01*
X170325000Y-91692000D01*
X170305000Y-91709000D01*
X170284000Y-91725000D01*
X170262000Y-91739000D01*
X170240000Y-91753000D01*
X170217000Y-91766000D01*
X170193000Y-91777000D01*
X170169000Y-91787000D01*
X170145000Y-91796000D01*
X170119000Y-91803000D01*
X170094000Y-91809000D01*
X170068000Y-91814000D01*
X170042000Y-91817000D01*
X170016000Y-91819000D01*
X169990000Y-91820000D01*
X169964000Y-91819000D01*
X169938000Y-91817000D01*
X169912000Y-91814000D01*
X169886000Y-91809000D01*
X169861000Y-91803000D01*
X169835000Y-91796000D01*
X169811000Y-91787000D01*
X169787000Y-91777000D01*
X169763000Y-91766000D01*
X169740000Y-91753000D01*
X169718000Y-91739000D01*
X169696000Y-91725000D01*
X169675000Y-91709000D01*
X169655000Y-91692000D01*
X169636000Y-91674000D01*
X169618000Y-91655000D01*
X169601000Y-91635000D01*
X169585000Y-91614000D01*
X169571000Y-91592000D01*
X169557000Y-91570000D01*
X169544000Y-91547000D01*
X169533000Y-91523000D01*
X169523000Y-91499000D01*
X169514000Y-91475000D01*
X169507000Y-91449000D01*
X169501000Y-91424000D01*
X169496000Y-91398000D01*
X169493000Y-91372000D01*
X169491000Y-91346000D01*
X169490000Y-91320000D01*
X169490000Y-90520000D01*
X169491000Y-90494000D01*
X169493000Y-90468000D01*
X169496000Y-90442000D01*
X169501000Y-90416000D01*
X169507000Y-90391000D01*
X169514000Y-90365000D01*
X169523000Y-90341000D01*
X169533000Y-90317000D01*
X169544000Y-90293000D01*
X169557000Y-90270000D01*
X169571000Y-90248000D01*
X169585000Y-90226000D01*
X169601000Y-90205000D01*
X169618000Y-90185000D01*
X169636000Y-90166000D01*
X169655000Y-90148000D01*
X169675000Y-90131000D01*
X169696000Y-90115000D01*
X169718000Y-90101000D01*
X169740000Y-90087000D01*
X169763000Y-90074000D01*
X169787000Y-90063000D01*
X169811000Y-90053000D01*
X169835000Y-90044000D01*
X169861000Y-90037000D01*
X169886000Y-90031000D01*
X169912000Y-90026000D01*
X169938000Y-90023000D01*
X169964000Y-90021000D01*
X169990000Y-90020000D01*
X170016000Y-90021000D01*
%TA.AperFunction,EtchedComponent*%
G36*
X170016000Y-90021000D02*
G01*
X170042000Y-90023000D01*
X170068000Y-90026000D01*
X170094000Y-90031000D01*
X170119000Y-90037000D01*
X170145000Y-90044000D01*
X170169000Y-90053000D01*
X170193000Y-90063000D01*
X170217000Y-90074000D01*
X170240000Y-90087000D01*
X170262000Y-90101000D01*
X170284000Y-90115000D01*
X170305000Y-90131000D01*
X170325000Y-90148000D01*
X170344000Y-90166000D01*
X170362000Y-90185000D01*
X170379000Y-90205000D01*
X170395000Y-90226000D01*
X170409000Y-90248000D01*
X170423000Y-90270000D01*
X170436000Y-90293000D01*
X170447000Y-90317000D01*
X170457000Y-90341000D01*
X170466000Y-90365000D01*
X170473000Y-90391000D01*
X170479000Y-90416000D01*
X170484000Y-90442000D01*
X170487000Y-90468000D01*
X170489000Y-90494000D01*
X170490000Y-90520000D01*
X170490000Y-91320000D01*
X170489000Y-91346000D01*
X170487000Y-91372000D01*
X170484000Y-91398000D01*
X170479000Y-91424000D01*
X170473000Y-91449000D01*
X170466000Y-91475000D01*
X170457000Y-91499000D01*
X170447000Y-91523000D01*
X170436000Y-91547000D01*
X170423000Y-91570000D01*
X170409000Y-91592000D01*
X170395000Y-91614000D01*
X170379000Y-91635000D01*
X170362000Y-91655000D01*
X170344000Y-91674000D01*
X170325000Y-91692000D01*
X170305000Y-91709000D01*
X170284000Y-91725000D01*
X170262000Y-91739000D01*
X170240000Y-91753000D01*
X170217000Y-91766000D01*
X170193000Y-91777000D01*
X170169000Y-91787000D01*
X170145000Y-91796000D01*
X170119000Y-91803000D01*
X170094000Y-91809000D01*
X170068000Y-91814000D01*
X170042000Y-91817000D01*
X170016000Y-91819000D01*
X169990000Y-91820000D01*
X169964000Y-91819000D01*
X169938000Y-91817000D01*
X169912000Y-91814000D01*
X169886000Y-91809000D01*
X169861000Y-91803000D01*
X169835000Y-91796000D01*
X169811000Y-91787000D01*
X169787000Y-91777000D01*
X169763000Y-91766000D01*
X169740000Y-91753000D01*
X169718000Y-91739000D01*
X169696000Y-91725000D01*
X169675000Y-91709000D01*
X169655000Y-91692000D01*
X169636000Y-91674000D01*
X169618000Y-91655000D01*
X169601000Y-91635000D01*
X169585000Y-91614000D01*
X169571000Y-91592000D01*
X169557000Y-91570000D01*
X169544000Y-91547000D01*
X169533000Y-91523000D01*
X169523000Y-91499000D01*
X169514000Y-91475000D01*
X169507000Y-91449000D01*
X169501000Y-91424000D01*
X169496000Y-91398000D01*
X169493000Y-91372000D01*
X169491000Y-91346000D01*
X169490000Y-91320000D01*
X169490000Y-90520000D01*
X169491000Y-90494000D01*
X169493000Y-90468000D01*
X169496000Y-90442000D01*
X169501000Y-90416000D01*
X169507000Y-90391000D01*
X169514000Y-90365000D01*
X169523000Y-90341000D01*
X169533000Y-90317000D01*
X169544000Y-90293000D01*
X169557000Y-90270000D01*
X169571000Y-90248000D01*
X169585000Y-90226000D01*
X169601000Y-90205000D01*
X169618000Y-90185000D01*
X169636000Y-90166000D01*
X169655000Y-90148000D01*
X169675000Y-90131000D01*
X169696000Y-90115000D01*
X169718000Y-90101000D01*
X169740000Y-90087000D01*
X169763000Y-90074000D01*
X169787000Y-90063000D01*
X169811000Y-90053000D01*
X169835000Y-90044000D01*
X169861000Y-90037000D01*
X169886000Y-90031000D01*
X169912000Y-90026000D01*
X169938000Y-90023000D01*
X169964000Y-90021000D01*
X169990000Y-90020000D01*
X170016000Y-90021000D01*
G37*
%TD.AperFunction*%
X170016000Y-93821000D02*
X170042000Y-93823000D01*
X170068000Y-93826000D01*
X170094000Y-93831000D01*
X170119000Y-93837000D01*
X170145000Y-93844000D01*
X170169000Y-93853000D01*
X170193000Y-93863000D01*
X170217000Y-93874000D01*
X170240000Y-93887000D01*
X170262000Y-93901000D01*
X170284000Y-93915000D01*
X170305000Y-93931000D01*
X170325000Y-93948000D01*
X170344000Y-93966000D01*
X170362000Y-93985000D01*
X170379000Y-94005000D01*
X170395000Y-94026000D01*
X170409000Y-94048000D01*
X170423000Y-94070000D01*
X170436000Y-94093000D01*
X170447000Y-94117000D01*
X170457000Y-94141000D01*
X170466000Y-94165000D01*
X170473000Y-94191000D01*
X170479000Y-94216000D01*
X170484000Y-94242000D01*
X170487000Y-94268000D01*
X170489000Y-94294000D01*
X170490000Y-94320000D01*
X170490000Y-95520000D01*
X170489000Y-95546000D01*
X170487000Y-95572000D01*
X170484000Y-95598000D01*
X170479000Y-95624000D01*
X170473000Y-95649000D01*
X170466000Y-95675000D01*
X170457000Y-95699000D01*
X170447000Y-95723000D01*
X170436000Y-95747000D01*
X170423000Y-95770000D01*
X170409000Y-95792000D01*
X170395000Y-95814000D01*
X170379000Y-95835000D01*
X170362000Y-95855000D01*
X170344000Y-95874000D01*
X170325000Y-95892000D01*
X170305000Y-95909000D01*
X170284000Y-95925000D01*
X170262000Y-95939000D01*
X170240000Y-95953000D01*
X170217000Y-95966000D01*
X170193000Y-95977000D01*
X170169000Y-95987000D01*
X170145000Y-95996000D01*
X170119000Y-96003000D01*
X170094000Y-96009000D01*
X170068000Y-96014000D01*
X170042000Y-96017000D01*
X170016000Y-96019000D01*
X169990000Y-96020000D01*
X169964000Y-96019000D01*
X169938000Y-96017000D01*
X169912000Y-96014000D01*
X169886000Y-96009000D01*
X169861000Y-96003000D01*
X169835000Y-95996000D01*
X169811000Y-95987000D01*
X169787000Y-95977000D01*
X169763000Y-95966000D01*
X169740000Y-95953000D01*
X169718000Y-95939000D01*
X169696000Y-95925000D01*
X169675000Y-95909000D01*
X169655000Y-95892000D01*
X169636000Y-95874000D01*
X169618000Y-95855000D01*
X169601000Y-95835000D01*
X169585000Y-95814000D01*
X169571000Y-95792000D01*
X169557000Y-95770000D01*
X169544000Y-95747000D01*
X169533000Y-95723000D01*
X169523000Y-95699000D01*
X169514000Y-95675000D01*
X169507000Y-95649000D01*
X169501000Y-95624000D01*
X169496000Y-95598000D01*
X169493000Y-95572000D01*
X169491000Y-95546000D01*
X169490000Y-95520000D01*
X169490000Y-94320000D01*
X169491000Y-94294000D01*
X169493000Y-94268000D01*
X169496000Y-94242000D01*
X169501000Y-94216000D01*
X169507000Y-94191000D01*
X169514000Y-94165000D01*
X169523000Y-94141000D01*
X169533000Y-94117000D01*
X169544000Y-94093000D01*
X169557000Y-94070000D01*
X169571000Y-94048000D01*
X169585000Y-94026000D01*
X169601000Y-94005000D01*
X169618000Y-93985000D01*
X169636000Y-93966000D01*
X169655000Y-93948000D01*
X169675000Y-93931000D01*
X169696000Y-93915000D01*
X169718000Y-93901000D01*
X169740000Y-93887000D01*
X169763000Y-93874000D01*
X169787000Y-93863000D01*
X169811000Y-93853000D01*
X169835000Y-93844000D01*
X169861000Y-93837000D01*
X169886000Y-93831000D01*
X169912000Y-93826000D01*
X169938000Y-93823000D01*
X169964000Y-93821000D01*
X169990000Y-93820000D01*
X170016000Y-93821000D01*
%TA.AperFunction,EtchedComponent*%
G36*
X170016000Y-93821000D02*
G01*
X170042000Y-93823000D01*
X170068000Y-93826000D01*
X170094000Y-93831000D01*
X170119000Y-93837000D01*
X170145000Y-93844000D01*
X170169000Y-93853000D01*
X170193000Y-93863000D01*
X170217000Y-93874000D01*
X170240000Y-93887000D01*
X170262000Y-93901000D01*
X170284000Y-93915000D01*
X170305000Y-93931000D01*
X170325000Y-93948000D01*
X170344000Y-93966000D01*
X170362000Y-93985000D01*
X170379000Y-94005000D01*
X170395000Y-94026000D01*
X170409000Y-94048000D01*
X170423000Y-94070000D01*
X170436000Y-94093000D01*
X170447000Y-94117000D01*
X170457000Y-94141000D01*
X170466000Y-94165000D01*
X170473000Y-94191000D01*
X170479000Y-94216000D01*
X170484000Y-94242000D01*
X170487000Y-94268000D01*
X170489000Y-94294000D01*
X170490000Y-94320000D01*
X170490000Y-95520000D01*
X170489000Y-95546000D01*
X170487000Y-95572000D01*
X170484000Y-95598000D01*
X170479000Y-95624000D01*
X170473000Y-95649000D01*
X170466000Y-95675000D01*
X170457000Y-95699000D01*
X170447000Y-95723000D01*
X170436000Y-95747000D01*
X170423000Y-95770000D01*
X170409000Y-95792000D01*
X170395000Y-95814000D01*
X170379000Y-95835000D01*
X170362000Y-95855000D01*
X170344000Y-95874000D01*
X170325000Y-95892000D01*
X170305000Y-95909000D01*
X170284000Y-95925000D01*
X170262000Y-95939000D01*
X170240000Y-95953000D01*
X170217000Y-95966000D01*
X170193000Y-95977000D01*
X170169000Y-95987000D01*
X170145000Y-95996000D01*
X170119000Y-96003000D01*
X170094000Y-96009000D01*
X170068000Y-96014000D01*
X170042000Y-96017000D01*
X170016000Y-96019000D01*
X169990000Y-96020000D01*
X169964000Y-96019000D01*
X169938000Y-96017000D01*
X169912000Y-96014000D01*
X169886000Y-96009000D01*
X169861000Y-96003000D01*
X169835000Y-95996000D01*
X169811000Y-95987000D01*
X169787000Y-95977000D01*
X169763000Y-95966000D01*
X169740000Y-95953000D01*
X169718000Y-95939000D01*
X169696000Y-95925000D01*
X169675000Y-95909000D01*
X169655000Y-95892000D01*
X169636000Y-95874000D01*
X169618000Y-95855000D01*
X169601000Y-95835000D01*
X169585000Y-95814000D01*
X169571000Y-95792000D01*
X169557000Y-95770000D01*
X169544000Y-95747000D01*
X169533000Y-95723000D01*
X169523000Y-95699000D01*
X169514000Y-95675000D01*
X169507000Y-95649000D01*
X169501000Y-95624000D01*
X169496000Y-95598000D01*
X169493000Y-95572000D01*
X169491000Y-95546000D01*
X169490000Y-95520000D01*
X169490000Y-94320000D01*
X169491000Y-94294000D01*
X169493000Y-94268000D01*
X169496000Y-94242000D01*
X169501000Y-94216000D01*
X169507000Y-94191000D01*
X169514000Y-94165000D01*
X169523000Y-94141000D01*
X169533000Y-94117000D01*
X169544000Y-94093000D01*
X169557000Y-94070000D01*
X169571000Y-94048000D01*
X169585000Y-94026000D01*
X169601000Y-94005000D01*
X169618000Y-93985000D01*
X169636000Y-93966000D01*
X169655000Y-93948000D01*
X169675000Y-93931000D01*
X169696000Y-93915000D01*
X169718000Y-93901000D01*
X169740000Y-93887000D01*
X169763000Y-93874000D01*
X169787000Y-93863000D01*
X169811000Y-93853000D01*
X169835000Y-93844000D01*
X169861000Y-93837000D01*
X169886000Y-93831000D01*
X169912000Y-93826000D01*
X169938000Y-93823000D01*
X169964000Y-93821000D01*
X169990000Y-93820000D01*
X170016000Y-93821000D01*
G37*
%TD.AperFunction*%
%TA.AperFunction,EtchedComponent*%
%TO.C,JP2*%
G36*
X149531344Y-80551085D02*
G01*
X149177790Y-80904639D01*
X148753526Y-80480375D01*
X149107080Y-80126821D01*
X149531344Y-80551085D01*
G37*
%TD.AperFunction*%
%TD*%
D11*
%TO.P,R1,1,1*%
%TO.N,Net-(U3-in-1)*%
X122602301Y-89038832D03*
%TO.P,R1,2,2*%
%TO.N,Net-(U3-in+1)*%
X121302301Y-89038832D03*
%TD*%
%TO.P,R2,1,1*%
%TO.N,Net-(U3-in-2)*%
X122616183Y-83423249D03*
%TO.P,R2,2,2*%
%TO.N,Net-(U3-in+2)*%
X121316183Y-83423249D03*
%TD*%
%TO.P,R15,1,1*%
%TO.N,Net-(U2-W)*%
X122692299Y-63932415D03*
%TO.P,R15,2,2*%
%TO.N,Net-(U4-in+1)*%
X121392299Y-63932415D03*
%TD*%
%TO.P,R16,1,1*%
%TO.N,Net-(U2-U)*%
X122707923Y-58313966D03*
%TO.P,R16,2,2*%
%TO.N,Net-(U4-in+2)*%
X121407923Y-58313966D03*
%TD*%
D12*
%TO.P,U5,1,W*%
%TO.N,Net-(U3-in-1)*%
X125039938Y-87694093D03*
D13*
%TO.P,U5,2,VCP*%
%TO.N,Net-(U5-VCP)*%
X125439938Y-87694093D03*
%TO.P,U5,3,UH*%
%TO.N,m2_uh*%
X125839938Y-87694093D03*
%TO.P,U5,4,VH*%
%TO.N,m2_vh*%
X126239938Y-87694093D03*
D14*
%TO.P,U5,5,WH*%
%TO.N,m2_wh*%
X126639938Y-87694093D03*
D15*
%TO.P,U5,6,UL*%
%TO.N,m2_ul*%
X127289938Y-87044093D03*
D16*
%TO.P,U5,7,WL*%
%TO.N,m2_wl*%
X127289938Y-86644093D03*
%TO.P,U5,8,GND*%
%TO.N,GND*%
X127289938Y-86244093D03*
%TO.P,U5,9,GND*%
X127289938Y-85844093D03*
D17*
%TO.P,U5,10,VL*%
%TO.N,m2_vl*%
X127289938Y-85444093D03*
D18*
%TO.P,U5,11,VIO/STDBY*%
%TO.N,/motor_controls/standby*%
X126639938Y-84794093D03*
D13*
%TO.P,U5,12,DAIG*%
%TO.N,/motor_controls/motor_fault_detect*%
X126239938Y-84794093D03*
D19*
%TO.P,U5,13,1.8v_out*%
%TO.N,Net-(U3-ref_1)*%
X125839938Y-84806593D03*
D13*
%TO.P,U5,14,GND*%
%TO.N,GND*%
X125439938Y-84794093D03*
D20*
%TO.P,U5,15,U*%
%TO.N,Net-(U3-in-2)*%
X125039938Y-84794093D03*
D21*
%TO.P,U5,16,BRUV*%
%TO.N,GND*%
X124389938Y-85444093D03*
D16*
%TO.P,U5,17,V*%
%TO.N,Net-(U5-V)*%
X124389938Y-85844093D03*
%TO.P,U5,18,VS*%
%TO.N,+BATT*%
X124389938Y-86244093D03*
%TO.P,U5,19,NC*%
%TO.N,unconnected-(U5-NC-Pad19)*%
X124389938Y-86644093D03*
D22*
%TO.P,U5,20,BRW*%
%TO.N,GND*%
X124389938Y-87044093D03*
D23*
%TO.P,U5,21,PAD*%
X125389938Y-86644093D03*
X126289938Y-86644093D03*
D24*
X125839938Y-86244093D03*
D23*
X125389938Y-85844093D03*
X126289938Y-85844093D03*
%TD*%
D12*
%TO.P,U2,1,W*%
%TO.N,Net-(U2-W)*%
X125131600Y-62586400D03*
D13*
%TO.P,U2,2,VCP*%
%TO.N,Net-(U2-VCP)*%
X125531600Y-62586400D03*
%TO.P,U2,3,UH*%
%TO.N,m1_uh*%
X125931600Y-62586400D03*
%TO.P,U2,4,VH*%
%TO.N,m1_vh*%
X126331600Y-62586400D03*
D14*
%TO.P,U2,5,WH*%
%TO.N,m1_wh*%
X126731600Y-62586400D03*
D15*
%TO.P,U2,6,UL*%
%TO.N,m1_ul*%
X127381600Y-61936400D03*
D16*
%TO.P,U2,7,WL*%
%TO.N,m1_wl*%
X127381600Y-61536400D03*
%TO.P,U2,8,GND*%
%TO.N,GND*%
X127381600Y-61136400D03*
%TO.P,U2,9,GND*%
X127381600Y-60736400D03*
D17*
%TO.P,U2,10,VL*%
%TO.N,m1_vl*%
X127381600Y-60336400D03*
D18*
%TO.P,U2,11,VIO/STDBY*%
%TO.N,/motor_controls/standby*%
X126731600Y-59686400D03*
D13*
%TO.P,U2,12,DAIG*%
%TO.N,/motor_controls1/motor_fault_detect*%
X126331600Y-59686400D03*
D19*
%TO.P,U2,13,1.8v_out*%
%TO.N,Net-(U2-1.8v_out)*%
X125931600Y-59698900D03*
D13*
%TO.P,U2,14,GND*%
%TO.N,GND*%
X125531600Y-59686400D03*
D20*
%TO.P,U2,15,U*%
%TO.N,Net-(U2-U)*%
X125131600Y-59686400D03*
D21*
%TO.P,U2,16,BRUV*%
%TO.N,GND*%
X124481600Y-60336400D03*
D16*
%TO.P,U2,17,V*%
%TO.N,Net-(U2-V)*%
X124481600Y-60736400D03*
%TO.P,U2,18,VS*%
%TO.N,+BATT*%
X124481600Y-61136400D03*
%TO.P,U2,19,NC*%
%TO.N,unconnected-(U2-NC-Pad19)*%
X124481600Y-61536400D03*
D22*
%TO.P,U2,20,BRW*%
%TO.N,GND*%
X124481600Y-61936400D03*
D23*
%TO.P,U2,21,PAD*%
X125481600Y-61536400D03*
X126381600Y-61536400D03*
D24*
X125931600Y-61136400D03*
D23*
X125481600Y-60736400D03*
X126381600Y-60736400D03*
%TD*%
D25*
%TO.P,C2,1,1*%
%TO.N,Net-(U5-VCP)*%
X125104280Y-89164457D03*
%TO.P,C2,2,2*%
%TO.N,+BATT*%
X124301714Y-89967023D03*
%TD*%
D26*
%TO.P,R14,1,1*%
%TO.N,GND*%
X153416000Y-63246000D03*
%TO.P,R14,2,2*%
%TO.N,m1_wl*%
X153416000Y-64441000D03*
%TD*%
D27*
%TO.P,J4,1,1*%
%TO.N,GND*%
X117019000Y-80010000D03*
%TO.P,J4,2,2*%
%TO.N,m2_enc_cs*%
X119017980Y-80010000D03*
%TO.P,J4,3,3*%
%TO.N,enc_scl*%
X121016960Y-80010000D03*
%TO.P,J4,4,4*%
%TO.N,enc_sda*%
X123015940Y-80010000D03*
%TO.P,J4,5,5*%
%TO.N,+3.3V*%
X125014920Y-80010000D03*
%TD*%
D28*
%TO.P,JP1,1,A*%
%TO.N,Net-(D1-A)*%
X150316269Y-83476012D03*
%TO.P,JP1,2,B*%
%TO.N,gpio8*%
X151235507Y-82556774D03*
%TD*%
D29*
%TO.P,U4,1,out_1*%
%TO.N,m1_current_sense_u*%
X129570599Y-63370400D03*
%TO.P,U4,2,in-1*%
%TO.N,Net-(U2-W)*%
X130070599Y-63370400D03*
%TO.P,U4,3,in+1*%
%TO.N,Net-(U4-in+1)*%
X130570599Y-63370400D03*
%TO.P,U4,4,GND*%
%TO.N,GND*%
X131070599Y-63370400D03*
%TO.P,U4,5,ref_1*%
%TO.N,Net-(U2-1.8v_out)*%
X131570599Y-63370400D03*
%TO.P,U4,6,ref_2*%
X131570599Y-58970400D03*
%TO.P,U4,7,in+2*%
%TO.N,Net-(U4-in+2)*%
X131070599Y-58970400D03*
%TO.P,U4,8,in-2*%
%TO.N,Net-(U2-U)*%
X130570599Y-58970400D03*
%TO.P,U4,9,out_2*%
%TO.N,m1_current_sense_w*%
X130070599Y-58970400D03*
%TO.P,U4,10,VS*%
%TO.N,+3.3V*%
X129570599Y-58970400D03*
%TD*%
D30*
%TO.P,R7,1,1*%
%TO.N,GND*%
X135233210Y-65934790D03*
%TO.P,R7,2,2*%
%TO.N,m1_vh*%
X134388218Y-66779782D03*
%TD*%
D31*
%TO.P,<-3V3,1,K*%
%TO.N,Net-(D3-K)*%
X144001476Y-81810181D03*
%TO.P,<-3V3,2,A*%
%TO.N,Net-(D3-A)*%
X145451044Y-80360613D03*
%TD*%
%TO.P,<-Io8,1,K*%
%TO.N,Net-(D1-K)*%
X147614454Y-86368783D03*
%TO.P,<-Io8,2,A*%
%TO.N,Net-(D1-A)*%
X149064022Y-84919215D03*
%TD*%
D29*
%TO.P,U3,1,out_1*%
%TO.N,m2_current_sense_w*%
X129479524Y-88476458D03*
%TO.P,U3,2,in-1*%
%TO.N,Net-(U3-in-1)*%
X129979524Y-88476458D03*
%TO.P,U3,3,in+1*%
%TO.N,Net-(U3-in+1)*%
X130479524Y-88476458D03*
%TO.P,U3,4,GND*%
%TO.N,GND*%
X130979524Y-88476458D03*
%TO.P,U3,5,ref_1*%
%TO.N,Net-(U3-ref_1)*%
X131479524Y-88476458D03*
%TO.P,U3,6,ref_2*%
X131479524Y-84076458D03*
%TO.P,U3,7,in+2*%
%TO.N,Net-(U3-in+2)*%
X130979524Y-84076458D03*
%TO.P,U3,8,in-2*%
%TO.N,Net-(U3-in-2)*%
X130479524Y-84076458D03*
%TO.P,U3,9,out_2*%
%TO.N,m2_current_sense_u*%
X129979524Y-84076458D03*
%TO.P,U3,10,VS*%
%TO.N,+3.3V*%
X129479524Y-84076458D03*
%TD*%
D32*
%TO.P,R25,1,1*%
%TO.N,+3.3V*%
X173781468Y-82714817D03*
%TO.P,R25,2,2*%
%TO.N,Net-(U1-GPIO0{slash}BOOT)*%
X172586468Y-82714817D03*
%TD*%
D33*
%TO.P,R17,1,1*%
%TO.N,Net-(U7-EN)*%
X146242500Y-64472000D03*
%TO.P,R17,2,2*%
%TO.N,+BATT*%
X147437500Y-64472000D03*
%TD*%
D32*
%TO.P,R33,1,1*%
%TO.N,Net-(D3-K)*%
X144925100Y-85160104D03*
%TO.P,R33,2,2*%
%TO.N,GND*%
X143730100Y-85160104D03*
%TD*%
D34*
%TO.P,C6,1,1*%
%TO.N,GND*%
X120616900Y-62664000D03*
%TO.P,C6,2,2*%
%TO.N,+BATT*%
X121751900Y-62664000D03*
%TD*%
D35*
%TO.P,L1,1,1*%
%TO.N,+5V*%
X149098000Y-67883000D03*
%TO.P,L1,2,2*%
%TO.N,Net-(U7-SW)*%
X149098000Y-70183000D03*
%TD*%
D32*
%TO.P,R22,1,1*%
%TO.N,Net-(D2-K)*%
X144932658Y-86282843D03*
%TO.P,R22,2,2*%
%TO.N,GND*%
X143737658Y-86282843D03*
%TD*%
D30*
%TO.P,R5,1,1*%
%TO.N,GND*%
X133634815Y-64739185D03*
%TO.P,R5,2,2*%
%TO.N,m1_ul*%
X132789823Y-65584177D03*
%TD*%
D32*
%TO.P,R24,1,1*%
%TO.N,GND*%
X170642456Y-87745727D03*
%TO.P,R24,2,2*%
%TO.N,Net-(J11-CC2)*%
X169447456Y-87745727D03*
%TD*%
D28*
%TO.P,JP3,1,A*%
%TO.N,Net-(D3-A)*%
X146751784Y-78939106D03*
%TO.P,JP3,2,B*%
%TO.N,+3.3V*%
X147671022Y-78019868D03*
%TD*%
D36*
%TO.P,R19,1,1*%
%TO.N,+5V*%
X141485388Y-68458015D03*
%TO.P,R19,2,2*%
%TO.N,Net-(U7-VFB)*%
X141485388Y-67263015D03*
%TD*%
D34*
%TO.P,C13,1,1*%
%TO.N,Net-(C11-Pad2)*%
X146296573Y-63398198D03*
%TO.P,C13,2,2*%
%TO.N,+BATT*%
X147431573Y-63398198D03*
%TD*%
D37*
%TO.P,J7,1*%
%TO.N,Net-(U1-GPIO0{slash}BOOT)*%
X173084000Y-94138000D03*
%TO.P,J7,2*%
X173084000Y-88138000D03*
%TO.P,J7,3*%
%TO.N,GND*%
X176784000Y-94138000D03*
%TO.P,J7,4*%
X176784000Y-88138000D03*
%TD*%
D38*
%TO.P,C5,1,1*%
%TO.N,+BATT*%
X121749900Y-61643600D03*
%TO.P,C5,2,2*%
%TO.N,GND*%
X120614900Y-61643600D03*
%TD*%
D39*
%TO.P,R9,1,1*%
%TO.N,GND*%
X130779185Y-67594815D03*
%TO.P,R9,2,2*%
%TO.N,m1_uh*%
X131624177Y-66749823D03*
%TD*%
D40*
%TO.P,U1,1,GND*%
%TO.N,GND*%
X158890000Y-59260000D03*
%TO.P,U1,2,3V3*%
%TO.N,+3.3V*%
X158890000Y-60530000D03*
%TO.P,U1,3,EN*%
%TO.N,Net-(U1-EN)*%
X158890000Y-61800000D03*
%TO.P,U1,4,GPIO4/TOUCH4/ADC1_CH3*%
%TO.N,m1_current_sense_w*%
X158890000Y-63070000D03*
%TO.P,U1,5,GPIO5/TOUCH5/ADC1_CH4*%
%TO.N,m1_vl*%
X158890000Y-64340000D03*
%TO.P,U1,6,GPIO6/TOUCH6/ADC1_CH5*%
%TO.N,m1_wl*%
X158890000Y-65610000D03*
%TO.P,U1,7,GPIO7/TOUCH7/ADC1_CH6*%
%TO.N,m1_current_sense_u*%
X158890000Y-66880000D03*
%TO.P,U1,8,GPIO15/U0RTS/ADC2_CH4/XTAL_32K_P*%
%TO.N,m1_ul*%
X158890000Y-68150000D03*
%TO.P,U1,9,GPIO16/U0CTS/ADC2_CH5/XTAL_32K_N*%
%TO.N,m1_wh*%
X158890000Y-69420000D03*
%TO.P,U1,10,GPIO17/U1TXD/ADC2_CH6*%
%TO.N,m1_vh*%
X158890000Y-70690000D03*
%TO.P,U1,11,GPIO18/U1RXD/ADC2_CH7/CLK_OUT3*%
%TO.N,m1_uh*%
X158890000Y-71960000D03*
%TO.P,U1,12,GPIO8/TOUCH8/ADC1_CH7/SUBSPICS1*%
%TO.N,gpio8*%
X158890000Y-73230000D03*
%TO.P,U1,13,GPIO19/U1RTS/ADC2_CH8/CLK_OUT2/USB_D-*%
%TO.N,usb_d-*%
X158890000Y-74500000D03*
%TO.P,U1,14,GPIO20/U1CTS/ADC2_CH9/CLK_OUT1/USB_D+*%
%TO.N,usb_d+*%
X158890000Y-75770000D03*
D41*
%TO.P,U1,15,GPIO3/TOUCH3/ADC1_CH2*%
%TO.N,unconnected-(U1-GPIO3{slash}TOUCH3{slash}ADC1_CH2-Pad15)*%
X160655000Y-77020000D03*
%TO.P,U1,16,GPIO46*%
%TO.N,unconnected-(U1-GPIO46-Pad16)*%
X161925000Y-77020000D03*
%TO.P,U1,17,GPIO9/TOUCH9/ADC1_CH8/FSPIHD/SUBSPIHD*%
%TO.N,m2_uh*%
X163195000Y-77020000D03*
%TO.P,U1,18,GPIO10/TOUCH10/ADC1_CH9/FSPICS0/FSPIIO4/SUBSPICS0*%
%TO.N,m2_vh*%
X164465000Y-77020000D03*
%TO.P,U1,19,GPIO11/TOUCH11/ADC2_CH0/FSPID/FSPIIO5/SUBSPID*%
%TO.N,m2_wh*%
X165735000Y-77020000D03*
%TO.P,U1,20,GPIO12/TOUCH12/ADC2_CH1/FSPICLK/FSPIIO6/SUBSPICLK*%
%TO.N,m2_current_sense_w*%
X167005000Y-77020000D03*
%TO.P,U1,21,GPIO13/TOUCH13/ADC2_CH2/FSPIQ/FSPIIO7/SUBSPIQ*%
%TO.N,m2_ul*%
X168275000Y-77020000D03*
%TO.P,U1,22,GPIO14/TOUCH14/ADC2_CH3/FSPIWP/FSPIDQS/SUBSPIWP*%
%TO.N,m2_wl*%
X169545000Y-77020000D03*
%TO.P,U1,23,GPIO21*%
%TO.N,m2_vl*%
X170815000Y-77020000D03*
%TO.P,U1,24,GPIO47/SPICLK_P/SUBSPICLK_P_DIFF*%
%TO.N,m2_current_sense_u*%
X172085000Y-77020000D03*
%TO.P,U1,25,GPIO48/SPICLK_N/SUBSPICLK_N_DIFF*%
%TO.N,m2_enc_cs*%
X173355000Y-77020000D03*
%TO.P,U1,26,GPIO45*%
%TO.N,unconnected-(U1-GPIO45-Pad26)*%
X174625000Y-77020000D03*
D40*
%TO.P,U1,27,GPIO0/BOOT*%
%TO.N,Net-(U1-GPIO0{slash}BOOT)*%
X176390000Y-75770000D03*
%TO.P,U1,28,SPIIO6/GPIO35/FSPID/SUBSPID*%
%TO.N,enc_sda*%
X176390000Y-74500000D03*
%TO.P,U1,29,SPIIO7/GPIO36/FSPICLK/SUBSPICLK*%
%TO.N,enc_scl*%
X176390000Y-73230000D03*
%TO.P,U1,30,SPIDQS/GPIO37/FSPIQ/SUBSPIQ*%
%TO.N,m1_enc_cs*%
X176390000Y-71960000D03*
%TO.P,U1,31,GPIO38/FSPIWP/SUBSPIWP*%
%TO.N,gpio38*%
X176390000Y-70690000D03*
%TO.P,U1,32,MTCK/GPIO39/CLK_OUT3/SUBSPICS1*%
%TO.N,Net-(J9-Pin_6)*%
X176390000Y-69420000D03*
%TO.P,U1,33,MTDO/GPIO40/CLK_OUT2*%
%TO.N,Net-(J9-Pin_7)*%
X176390000Y-68150000D03*
%TO.P,U1,34,MTDI/GPIO41/CLK_OUT1*%
%TO.N,Net-(J9-Pin_8)*%
X176390000Y-66880000D03*
%TO.P,U1,35,MTMS/GPIO42*%
%TO.N,Net-(J9-Pin_9)*%
X176390000Y-65610000D03*
%TO.P,U1,36,U0RXD/GPIO44/CLK_OUT2*%
%TO.N,Net-(J10-Pin_1)*%
X176390000Y-64340000D03*
%TO.P,U1,37,U0TXD/GPIO43/CLK_OUT1*%
%TO.N,Net-(J10-Pin_2)*%
X176390000Y-63070000D03*
%TO.P,U1,38,GPIO2/TOUCH2/ADC1_CH1*%
%TO.N,sda*%
X176390000Y-61800000D03*
%TO.P,U1,39,GPIO1/TOUCH1/ADC1_CH0*%
%TO.N,scl*%
X176390000Y-60530000D03*
%TO.P,U1,40,GND*%
%TO.N,GND*%
X176390000Y-59260000D03*
D42*
%TO.P,U1,41,GND*%
X164740000Y-65580000D03*
X164740000Y-66980000D03*
X164740000Y-68380000D03*
X166140000Y-65580000D03*
X166140000Y-66980000D03*
X166140000Y-68380000D03*
X167540000Y-65580000D03*
X167540000Y-66980000D03*
X167540000Y-68380000D03*
%TD*%
D26*
%TO.P,R10,1,1*%
%TO.N,GND*%
X155194000Y-62738000D03*
%TO.P,R10,2,2*%
%TO.N,m1_vl*%
X155194000Y-63933000D03*
%TD*%
D33*
%TO.P,R23,1,1*%
%TO.N,GND*%
X158335161Y-87723495D03*
%TO.P,R23,2,2*%
%TO.N,Net-(J11-CC1)*%
X159530161Y-87723495D03*
%TD*%
D43*
%TO.P,R11,1,1*%
%TO.N,GND*%
X145437646Y-72329225D03*
%TO.P,R11,2,2*%
%TO.N,m2_wh*%
X146282638Y-73174217D03*
%TD*%
D44*
%TO.P,R3,1,1*%
%TO.N,GND*%
X147529735Y-75735409D03*
%TO.P,R3,2,2*%
%TO.N,m2_uh*%
X146684743Y-74890417D03*
%TD*%
D33*
%TO.P,R27,1,1*%
%TO.N,+3.3V*%
X175035536Y-80395264D03*
%TO.P,R27,2,2*%
%TO.N,enc_sda*%
X176230536Y-80395264D03*
%TD*%
%TO.P,R26,1,1*%
%TO.N,+3.3V*%
X175034864Y-81603353D03*
%TO.P,R26,2,2*%
%TO.N,enc_scl*%
X176229864Y-81603353D03*
%TD*%
D38*
%TO.P,C1,1,1*%
%TO.N,+BATT*%
X121565890Y-86727162D03*
%TO.P,C1,2,2*%
%TO.N,GND*%
X120430890Y-86727162D03*
%TD*%
D43*
%TO.P,R20,1,1*%
%TO.N,usb_d+*%
X162022197Y-83666041D03*
%TO.P,R20,2,2*%
%TO.N,Net-(J11-DP1)*%
X162867189Y-84511033D03*
%TD*%
D45*
%TO.P,C20,1,1*%
%TO.N,usb_d-*%
X159722421Y-85046421D03*
%TO.P,C20,2,2*%
%TO.N,GND*%
X158502661Y-83826661D03*
%TD*%
D34*
%TO.P,C3,1,1*%
%TO.N,GND*%
X120435690Y-87750768D03*
%TO.P,C3,2,2*%
%TO.N,+BATT*%
X121570690Y-87750768D03*
%TD*%
D46*
%TO.P,C18,1,1*%
%TO.N,+3.3V*%
X168539500Y-79712000D03*
%TO.P,C18,2,2*%
%TO.N,GND*%
X170264500Y-79712000D03*
%TD*%
D37*
%TO.P,J6,1*%
%TO.N,Net-(U1-EN)*%
X151024197Y-94152726D03*
%TO.P,J6,2*%
X151024197Y-88152726D03*
%TO.P,J6,3*%
%TO.N,GND*%
X154724197Y-94152726D03*
%TO.P,J6,4*%
X154724197Y-88152726D03*
%TD*%
D47*
%TO.P,J2,1,1*%
%TO.N,Net-(U3-in+1)*%
X116174213Y-88862054D03*
%TO.P,J2,2,2*%
%TO.N,Net-(U5-V)*%
X116428213Y-86322054D03*
%TO.P,J2,3,3*%
%TO.N,Net-(U3-in+2)*%
X116174213Y-83782054D03*
%TD*%
D43*
%TO.P,R13,1,1*%
%TO.N,GND*%
X140970856Y-73914856D03*
%TO.P,R13,2,2*%
%TO.N,m2_wl*%
X141815848Y-74759848D03*
%TD*%
D48*
%TO.P,U7,1,GND*%
%TO.N,GND*%
X145856000Y-67934001D03*
%TO.P,U7,2,SW*%
%TO.N,Net-(U7-SW)*%
X145856000Y-66984001D03*
%TO.P,U7,3,Vin*%
%TO.N,+BATT*%
X145856000Y-66034001D03*
%TO.P,U7,4,VFB*%
%TO.N,Net-(U7-VFB)*%
X143156000Y-66034001D03*
%TO.P,U7,5,EN*%
%TO.N,Net-(U7-EN)*%
X143156000Y-66984001D03*
%TO.P,U7,6,VBST*%
%TO.N,Net-(U7-VBST)*%
X143156000Y-67934001D03*
%TD*%
D38*
%TO.P,C8,1,1*%
%TO.N,+3.3V*%
X128465516Y-57615537D03*
%TO.P,C8,2,2*%
%TO.N,GND*%
X127330516Y-57615537D03*
%TD*%
D49*
%TO.P,J11,A1_B12,GND_A*%
%TO.N,GND*%
X161170000Y-89770000D03*
%TO.P,J11,A4_B9,VBUS_A*%
%TO.N,+5V*%
X161970000Y-89770000D03*
D50*
%TO.P,J11,A5,CC1*%
%TO.N,Net-(J11-CC1)*%
X163120000Y-89770000D03*
%TO.P,J11,A6,DP1*%
%TO.N,Net-(J11-DP1)*%
X164120000Y-89770000D03*
%TO.P,J11,A7,DN1*%
%TO.N,Net-(J11-DN1)*%
X164620000Y-89770000D03*
%TO.P,J11,A8,SBU1*%
%TO.N,unconnected-(J11-SBU1-PadA8)*%
X165620000Y-89770000D03*
D49*
%TO.P,J11,B1_A12,GND_B*%
%TO.N,GND*%
X167570000Y-89770000D03*
%TO.P,J11,B4_A9,VBUS_B*%
%TO.N,+5V*%
X166770000Y-89770000D03*
D50*
%TO.P,J11,B5,CC2*%
%TO.N,Net-(J11-CC2)*%
X166120000Y-89770000D03*
%TO.P,J11,B6,DP2*%
%TO.N,Net-(J11-DP1)*%
X165120000Y-89770000D03*
%TO.P,J11,B7,DN2*%
%TO.N,Net-(J11-DN1)*%
X163620000Y-89770000D03*
%TO.P,J11,B8,SBU2*%
%TO.N,unconnected-(J11-SBU2-PadB8)*%
X162620000Y-89770000D03*
D51*
%TO.P,J11,S1,SHELL_GND*%
%TO.N,unconnected-(J11-SHELL_GND-PadS1)*%
X158750000Y-94920000D03*
D52*
%TO.P,J11,S2,SHELL_GND*%
%TO.N,unconnected-(J11-SHELL_GND-PadS2)*%
X169990000Y-90920000D03*
%TO.P,J11,S3,SHELL_GND*%
%TO.N,unconnected-(J11-SHELL_GND-PadS3)*%
X158750000Y-90920000D03*
D51*
%TO.P,J11,S4,SHELL_GND*%
%TO.N,unconnected-(J11-SHELL_GND-PadS4)*%
X169990000Y-94920000D03*
%TD*%
D47*
%TO.P,J10,1,Pin_1*%
%TO.N,Net-(J10-Pin_1)*%
X180975000Y-62407800D03*
%TO.P,J10,2,Pin_2*%
%TO.N,Net-(J10-Pin_2)*%
X180975000Y-59512200D03*
%TD*%
D53*
%TO.P,C14,1,1*%
%TO.N,Net-(C11-Pad2)*%
X146936000Y-60138500D03*
%TO.P,C14,2,2*%
%TO.N,+BATT*%
X146936000Y-61273500D03*
%TD*%
D33*
%TO.P,R29,1,1*%
%TO.N,+3.3V*%
X143716150Y-88987791D03*
%TO.P,R29,2,2*%
%TO.N,sda*%
X144911150Y-88987791D03*
%TD*%
%TO.P,R31,1,1*%
%TO.N,+3.3V*%
X127612469Y-74754958D03*
%TO.P,R31,2,2*%
%TO.N,/motor_controls/standby*%
X128807469Y-74754958D03*
%TD*%
D26*
%TO.P,R30,1,1*%
%TO.N,+3.3V*%
X156723042Y-60354469D03*
%TO.P,R30,2,2*%
%TO.N,Net-(U1-EN)*%
X156723042Y-61549469D03*
%TD*%
D54*
%TO.P,C10,1,+*%
%TO.N,+BATT*%
X141585605Y-61085748D03*
D55*
%TO.P,C10,2,-*%
%TO.N,GND*%
X138085605Y-61085748D03*
%TD*%
D28*
%TO.P,JP2,1,A*%
%TO.N,Net-(D2-A)*%
X148682816Y-80975349D03*
%TO.P,JP2,2,B*%
%TO.N,gpio38*%
X149602054Y-80056111D03*
%TD*%
D34*
%TO.P,C17,1,1*%
%TO.N,+5V*%
X149292500Y-65984000D03*
%TO.P,C17,2,2*%
%TO.N,GND*%
X150427500Y-65984000D03*
%TD*%
D45*
%TO.P,C19,1,1*%
%TO.N,usb_d+*%
X162791634Y-82231208D03*
%TO.P,C19,2,2*%
%TO.N,GND*%
X161571874Y-81011448D03*
%TD*%
D44*
%TO.P,R6,1,1*%
%TO.N,GND*%
X145974749Y-76124749D03*
%TO.P,R6,2,2*%
%TO.N,m2_vh*%
X145129757Y-75279757D03*
%TD*%
D32*
%TO.P,R32,1,1*%
%TO.N,Net-(D1-K)*%
X144924463Y-87422886D03*
%TO.P,R32,2,2*%
%TO.N,GND*%
X143729463Y-87422886D03*
%TD*%
D34*
%TO.P,C16,1,1*%
%TO.N,+5V*%
X140402500Y-66046001D03*
%TO.P,C16,2,2*%
%TO.N,Net-(U7-VFB)*%
X141537500Y-66046001D03*
%TD*%
D53*
%TO.P,C12,1,1*%
%TO.N,Net-(C11-Pad2)*%
X145796000Y-60138501D03*
%TO.P,C12,2,2*%
%TO.N,+BATT*%
X145796000Y-61273501D03*
%TD*%
D56*
%TO.P,C11,1,1*%
%TO.N,+5V*%
X150176500Y-61998000D03*
%TO.P,C11,2,2*%
%TO.N,Net-(C11-Pad2)*%
X148451500Y-61998000D03*
%TD*%
D30*
%TO.P,R12,1,1*%
%TO.N,GND*%
X137473210Y-65426790D03*
%TO.P,R12,2,2*%
%TO.N,m1_wh*%
X136628218Y-66271782D03*
%TD*%
D56*
%TO.P,C9,1,1*%
%TO.N,+5V*%
X150176500Y-60190000D03*
%TO.P,C9,2,2*%
%TO.N,Net-(C11-Pad2)*%
X148451500Y-60190000D03*
%TD*%
D25*
%TO.P,C7,1,1*%
%TO.N,Net-(U2-VCP)*%
X125390615Y-64045637D03*
%TO.P,C7,2,2*%
%TO.N,+BATT*%
X124588049Y-64848203D03*
%TD*%
D27*
%TO.P,J3,1,1*%
%TO.N,GND*%
X117085040Y-72050910D03*
%TO.P,J3,2,2*%
%TO.N,m1_enc_cs*%
X119084020Y-72050910D03*
%TO.P,J3,3,3*%
%TO.N,enc_scl*%
X121083000Y-72050910D03*
%TO.P,J3,4,4*%
%TO.N,enc_sda*%
X123081980Y-72050910D03*
%TO.P,J3,5,5*%
%TO.N,+3.3V*%
X125080960Y-72050910D03*
%TD*%
D57*
%TO.P,J5,1,GND*%
%TO.N,GND*%
X141249400Y-90932000D03*
%TO.P,J5,2,VCC*%
%TO.N,+3.3V*%
X142250160Y-90932000D03*
%TO.P,J5,3,SDA*%
%TO.N,sda*%
X143245840Y-90932000D03*
%TO.P,J5,4,SCL*%
%TO.N,scl*%
X144246600Y-90932000D03*
D58*
%TO.P,J5,NC1*%
%TO.N,N/C*%
X145547080Y-94604840D03*
%TO.P,J5,NC2*%
X139948920Y-94604840D03*
%TD*%
D32*
%TO.P,R28,1,1*%
%TO.N,+3.3V*%
X146885250Y-89929808D03*
%TO.P,R28,2,2*%
%TO.N,scl*%
X145690250Y-89929808D03*
%TD*%
D31*
%TO.P,<-Io38,1,K*%
%TO.N,Net-(D2-K)*%
X145856402Y-83648731D03*
%TO.P,<-Io38,2,A*%
%TO.N,Net-(D2-A)*%
X147305970Y-82199163D03*
%TD*%
D43*
%TO.P,R21,1,1*%
%TO.N,usb_d-*%
X161236811Y-84398967D03*
%TO.P,R21,2,2*%
%TO.N,Net-(J11-DN1)*%
X162081803Y-85243959D03*
%TD*%
D47*
%TO.P,J1,1,1*%
%TO.N,Net-(U4-in+1)*%
X116257000Y-63754000D03*
%TO.P,J1,2,2*%
%TO.N,Net-(U2-V)*%
X116511000Y-61214000D03*
%TO.P,J1,3,3*%
%TO.N,Net-(U4-in+2)*%
X116257000Y-58674000D03*
%TD*%
D43*
%TO.P,R8,1,1*%
%TO.N,GND*%
X140314066Y-75395277D03*
%TO.P,R8,2,2*%
%TO.N,m2_vl*%
X141159058Y-76240269D03*
%TD*%
D38*
%TO.P,C15,1,1*%
%TO.N,Net-(U7-SW)*%
X144839500Y-69528000D03*
%TO.P,C15,2,2*%
%TO.N,Net-(U7-VBST)*%
X143704500Y-69528000D03*
%TD*%
D47*
%TO.P,J9,1,Pin_1*%
%TO.N,+3.3V*%
X180594000Y-86360000D03*
%TO.P,J9,2,Pin_2*%
%TO.N,+5V*%
X180848000Y-83820000D03*
%TO.P,J9,3,Pin_3*%
%TO.N,GND*%
X180594000Y-81280000D03*
%TO.P,J9,4,Pin_4*%
%TO.N,gpio8*%
X180848000Y-78740000D03*
%TO.P,J9,5,Pin_5*%
%TO.N,gpio38*%
X180594000Y-76200000D03*
%TO.P,J9,6,Pin_6*%
%TO.N,Net-(J9-Pin_6)*%
X180848000Y-73660000D03*
%TO.P,J9,7,Pin_7*%
%TO.N,Net-(J9-Pin_7)*%
X180594000Y-71120000D03*
%TO.P,J9,8,Pin_8*%
%TO.N,Net-(J9-Pin_8)*%
X180848000Y-68580000D03*
%TO.P,J9,9,Pin_9*%
%TO.N,Net-(J9-Pin_9)*%
X180594000Y-66040000D03*
%TD*%
D59*
%TO.P,U6,1,adj*%
%TO.N,GND*%
X166140001Y-84754000D03*
D60*
%TO.P,U6,2,out*%
%TO.N,+3.3V*%
X167640001Y-84666500D03*
D59*
%TO.P,U6,3,in*%
%TO.N,+5V*%
X169140001Y-84754000D03*
%TD*%
D38*
%TO.P,C4,1,1*%
%TO.N,+3.3V*%
X127292400Y-82641401D03*
%TO.P,C4,2,2*%
%TO.N,GND*%
X126157400Y-82641401D03*
%TD*%
D36*
%TO.P,R18,1,1*%
%TO.N,GND*%
X140374867Y-68481496D03*
%TO.P,R18,2,2*%
%TO.N,Net-(U7-VFB)*%
X140374867Y-67286496D03*
%TD*%
D43*
%TO.P,R4,1,1*%
%TO.N,GND*%
X143167761Y-72374741D03*
%TO.P,R4,2,2*%
%TO.N,m2_ul*%
X144012753Y-73219733D03*
%TD*%
D61*
%TO.P,J8,1,+*%
%TO.N,+BATT*%
X144924420Y-54825621D03*
D62*
%TO.P,J8,2,-*%
%TO.N,GND*%
X134924420Y-54825621D03*
%TD*%
D63*
%TO.N,+BATT*%
X122642802Y-87693201D03*
D64*
X125547547Y-65033667D03*
D63*
X123535134Y-90050134D03*
X122732800Y-62585600D03*
X122732800Y-61772800D03*
X122642802Y-86880401D03*
%TO.N,GND*%
X161544000Y-81026000D03*
X158320266Y-81709734D03*
X166098137Y-84059829D03*
X155194000Y-62484000D03*
D64*
X164740000Y-66980000D03*
D63*
X118782002Y-87439201D03*
X154686000Y-94234000D03*
D64*
X164740000Y-68380000D03*
D63*
X161620200Y-82677000D03*
X157462742Y-78681058D03*
X124401600Y-62188400D03*
X157418566Y-80808034D03*
X159044166Y-82433634D03*
D64*
X166140000Y-65580000D03*
D63*
X155888500Y-76987400D03*
X159435800Y-80645000D03*
X143737658Y-86282843D03*
X171450000Y-87884000D03*
X159704566Y-83094034D03*
D64*
X166140000Y-68380000D03*
D63*
X176784000Y-88138000D03*
X150622000Y-65786000D03*
X157480000Y-87884000D03*
X130556000Y-67564000D03*
X131579500Y-61783686D03*
X156895260Y-75208860D03*
X124351602Y-85176001D03*
D64*
X164735137Y-65597355D03*
D63*
X140385800Y-73253600D03*
X140091776Y-68498009D03*
X133477000Y-64500100D03*
X156669266Y-80058734D03*
X157391500Y-77952600D03*
D64*
X166140000Y-66980000D03*
D63*
X147574000Y-75692000D03*
X143764000Y-85090000D03*
X143764000Y-87376000D03*
X160419981Y-83809449D03*
D64*
X167540000Y-66980000D03*
D63*
X155855266Y-79244734D03*
X137773210Y-65697500D03*
D64*
X167540000Y-68380000D03*
X176433522Y-59281986D03*
D63*
X170264500Y-79712000D03*
X141249400Y-90932000D03*
X119727546Y-62136006D03*
X155888500Y-77698600D03*
X153416000Y-62992000D03*
X157556200Y-74447400D03*
X158496000Y-83820000D03*
X124311602Y-87296001D03*
X124441600Y-60068400D03*
X125301405Y-83368760D03*
X160934400Y-82042000D03*
X118872000Y-62331600D03*
X157391500Y-77216000D03*
X142675020Y-71882000D03*
X161036000Y-88392000D03*
X144703800Y-68376800D03*
X157671040Y-76568840D03*
X145188308Y-72827500D03*
X140394500Y-74690257D03*
D64*
X167540000Y-65580000D03*
D63*
X126238000Y-57658000D03*
X158085042Y-79303358D03*
X167640000Y-88392000D03*
X158890000Y-59260000D03*
X156176735Y-75927384D03*
X131114800Y-89763600D03*
X119637548Y-87243607D03*
X155800000Y-78500000D03*
X125730000Y-58420000D03*
X158707342Y-79925658D03*
X146050000Y-76200000D03*
X160324800Y-81457800D03*
X135233210Y-65793500D03*
X154686000Y-88138000D03*
%TO.N,+3.3V*%
X175034864Y-80587353D03*
X175006000Y-81534000D03*
X156718000Y-60198000D03*
X127660587Y-79349413D03*
X151130000Y-74422000D03*
X173793010Y-82665372D03*
X127612469Y-73406000D03*
X128778000Y-58420000D03*
X128071231Y-83366191D03*
X168539500Y-79712000D03*
X129286000Y-73406000D03*
X124129800Y-67538600D03*
%TO.N,Net-(U3-in-1)*%
X127762000Y-91423500D03*
X129427830Y-89727500D03*
%TO.N,Net-(U3-in+1)*%
X130327526Y-89902900D03*
X128797390Y-91760974D03*
%TO.N,Net-(U3-ref_1)*%
X131775200Y-88823800D03*
X131828458Y-84076458D03*
X125943348Y-83998850D03*
%TO.N,/motor_controls/standby*%
X127421731Y-80513000D03*
X127457200Y-67640200D03*
X127104261Y-59503500D03*
X126746000Y-83535101D03*
%TO.N,+5V*%
X149860000Y-67564000D03*
X160528000Y-87630000D03*
X149098000Y-65786000D03*
X169926000Y-86614000D03*
X157480000Y-84455000D03*
X140462000Y-65786000D03*
X156210000Y-87884000D03*
X164338000Y-84582000D03*
X169164000Y-84836000D03*
X149098000Y-67571500D03*
X152654000Y-87884000D03*
X148336000Y-67564000D03*
X141485388Y-68458015D03*
X168402000Y-87630000D03*
X155194000Y-84582000D03*
X150114000Y-61976000D03*
X150114000Y-60198000D03*
%TO.N,Net-(C11-Pad2)*%
X146558000Y-62230000D03*
X148451500Y-61998000D03*
%TO.N,m1_enc_cs*%
X175006000Y-71882000D03*
%TO.N,m2_enc_cs*%
X173228000Y-75692000D03*
%TO.N,m2_uh*%
X146812000Y-74676000D03*
X163068000Y-75692000D03*
X139649200Y-83845400D03*
%TO.N,m2_ul*%
X144018000Y-73406000D03*
X138203093Y-81815093D03*
X168148000Y-75692000D03*
%TO.N,m2_vh*%
X145034000Y-75184000D03*
X140616093Y-81942093D03*
X164338000Y-75692000D03*
%TO.N,m2_vl*%
X137693400Y-80492600D03*
X141224000Y-76708000D03*
X170688000Y-75692000D03*
%TO.N,m2_wh*%
X146325825Y-73437908D03*
X165608000Y-75692000D03*
X138938000Y-82804000D03*
%TO.N,m2_wl*%
X141925161Y-74780509D03*
X139624953Y-79579353D03*
X169418000Y-75692000D03*
%TO.N,m1_uh*%
X128295400Y-65618700D03*
X131719294Y-67152494D03*
X153263600Y-67818000D03*
%TO.N,m1_ul*%
X155702000Y-66446400D03*
X132789823Y-65584177D03*
X127939800Y-62941200D03*
%TO.N,m1_vh*%
X134388218Y-66869500D03*
X129235200Y-65043200D03*
X153441400Y-66862500D03*
%TO.N,m1_vl*%
X155194000Y-64075500D03*
X127939800Y-59503500D03*
%TO.N,m1_wh*%
X136628218Y-66271782D03*
X128422400Y-64397700D03*
X154542492Y-66702873D03*
%TO.N,m1_wl*%
X153416000Y-64441000D03*
X128676400Y-62052200D03*
%TO.N,Net-(J11-DP1)*%
X164800000Y-87517500D03*
X164126101Y-88722573D03*
%TO.N,Net-(U1-EN)*%
X151024197Y-88152726D03*
X158890000Y-61800000D03*
X153984620Y-68438500D03*
X154305000Y-75285600D03*
%TO.N,m2_current_sense_u*%
X138404600Y-78816200D03*
X171958000Y-75692000D03*
%TO.N,m2_current_sense_w*%
X139864559Y-81063559D03*
X166878000Y-75692000D03*
%TO.N,m1_current_sense_w*%
X129908326Y-57568045D03*
X157734000Y-63246000D03*
%TO.N,m1_current_sense_u*%
X129421099Y-63280167D03*
X157124400Y-66370200D03*
%TO.N,enc_scl*%
X175006000Y-73152000D03*
%TO.N,enc_sda*%
X175006000Y-74422000D03*
%TO.N,sda*%
X176390000Y-61800000D03*
X173482000Y-59930500D03*
%TO.N,gpio8*%
X174752000Y-75692000D03*
X151638000Y-82550000D03*
X155194000Y-74735500D03*
%TO.N,gpio38*%
X178907500Y-79502000D03*
X176390000Y-70690000D03*
X149860000Y-80010000D03*
%TD*%
D65*
%TO.N,Net-(J11-CC2)*%
X166120000Y-88458188D02*
X166120000Y-89770000D01*
X167578188Y-87000000D02*
X166120000Y-88458188D01*
X168701729Y-87000000D02*
X167578188Y-87000000D01*
X169447456Y-87745727D02*
X168701729Y-87000000D01*
%TO.N,Net-(J11-DN1)*%
X163500000Y-89650000D02*
X163620000Y-89770000D01*
X163935013Y-87822963D02*
X163500000Y-88257976D01*
X163500000Y-88257976D02*
X163500000Y-89650000D01*
X163939371Y-87721255D02*
X163935013Y-87721255D01*
X164702101Y-88483985D02*
X163939371Y-87721255D01*
X164694000Y-88969262D02*
X164702101Y-88961161D01*
X164694000Y-89696000D02*
X164694000Y-88969262D01*
X164702101Y-88961161D02*
X164702101Y-88483985D01*
X164620000Y-89770000D02*
X164694000Y-89696000D01*
X163935013Y-87721255D02*
X163935013Y-87822963D01*
%TO.N,Net-(J11-DP1)*%
X164265758Y-86297955D02*
X162867189Y-84899385D01*
X164265758Y-86983258D02*
X164265758Y-86297955D01*
X162867189Y-84899385D02*
X162867189Y-84511033D01*
X165200000Y-89690000D02*
X165120000Y-89770000D01*
X165200000Y-87917500D02*
X165200000Y-89690000D01*
X164800000Y-87517500D02*
X165200000Y-87917500D01*
X164800000Y-87517500D02*
X164265758Y-86983258D01*
%TO.N,Net-(J11-CC1)*%
X163120000Y-88952000D02*
X163120000Y-89770000D01*
X161068000Y-86900000D02*
X163120000Y-88952000D01*
X160353656Y-86900000D02*
X161068000Y-86900000D01*
X159530161Y-87723495D02*
X160353656Y-86900000D01*
D66*
%TO.N,scl*%
X144246600Y-90703400D02*
X144246600Y-90932000D01*
X145121792Y-89828208D02*
X144246600Y-90703400D01*
X145664850Y-89828208D02*
X145121792Y-89828208D01*
X146050000Y-89154000D02*
X145664850Y-89539150D01*
X145664850Y-89539150D02*
X145664850Y-89828208D01*
X153416000Y-84328000D02*
X148590000Y-89154000D01*
X153416000Y-75418463D02*
X153416000Y-84328000D01*
X152637000Y-74639463D02*
X153416000Y-75418463D01*
X157081830Y-58360000D02*
X152637000Y-62804830D01*
X152637000Y-62804830D02*
X152637000Y-74639463D01*
X162330000Y-60600000D02*
X160090000Y-58360000D01*
X176320000Y-60600000D02*
X162330000Y-60600000D01*
X176390000Y-60530000D02*
X176320000Y-60600000D01*
X148590000Y-89154000D02*
X146050000Y-89154000D01*
X160090000Y-58360000D02*
X157081830Y-58360000D01*
%TO.N,sda*%
X145650523Y-88987791D02*
X144911150Y-88987791D01*
X145884315Y-88754000D02*
X145650523Y-88987791D01*
X148228000Y-88754000D02*
X145884315Y-88754000D01*
X153016000Y-83966000D02*
X148228000Y-88754000D01*
X153016000Y-75584149D02*
X153016000Y-83966000D01*
X151892000Y-74460149D02*
X153016000Y-75584149D01*
X151892000Y-62984144D02*
X151892000Y-74460149D01*
X156964144Y-57912000D02*
X151892000Y-62984144D01*
X173407000Y-60005500D02*
X162621500Y-60005500D01*
X173482000Y-59930500D02*
X173407000Y-60005500D01*
X162621500Y-60005500D02*
X160528000Y-57912000D01*
X160528000Y-57912000D02*
X156964144Y-57912000D01*
D67*
%TO.N,+3.3V*%
X167640001Y-80611499D02*
X168539500Y-79712000D01*
X167640001Y-84666500D02*
X167640001Y-80611499D01*
D66*
%TO.N,GND*%
X145188308Y-72827500D02*
X145437646Y-72578162D01*
X145437646Y-72578162D02*
X145437646Y-72329225D01*
%TO.N,Net-(U3-in+2)*%
X130979524Y-83113838D02*
X130979524Y-84076458D01*
X129497087Y-81631401D02*
X130979524Y-83113838D01*
X122758031Y-81631401D02*
X129497087Y-81631401D01*
X121316183Y-83073249D02*
X122758031Y-81631401D01*
X121316183Y-83423249D02*
X121316183Y-83073249D01*
%TO.N,Net-(U3-in-2)*%
X129331401Y-82031401D02*
X130479524Y-83179524D01*
X124008031Y-82031401D02*
X129331401Y-82031401D01*
X130479524Y-83179524D02*
X130479524Y-84076458D01*
X122616183Y-83423249D02*
X124008031Y-82031401D01*
%TO.N,Net-(U3-in+1)*%
X130429524Y-88526458D02*
X130479524Y-88476458D01*
X130426719Y-89403971D02*
X130429524Y-89401166D01*
X130426719Y-89803707D02*
X130426719Y-89403971D01*
X130327526Y-89902900D02*
X130426719Y-89803707D01*
X130429524Y-89401166D02*
X130429524Y-88526458D01*
X128458364Y-92100000D02*
X123663469Y-92100000D01*
X121302301Y-89738832D02*
X121302301Y-89038832D01*
X128797390Y-91760974D02*
X128458364Y-92100000D01*
X123663469Y-92100000D02*
X121302301Y-89738832D01*
D65*
%TO.N,/motor_controls/standby*%
X128710000Y-68893000D02*
X127457200Y-67640200D01*
X128710000Y-79224731D02*
X128710000Y-68893000D01*
X127421731Y-80513000D02*
X128710000Y-79224731D01*
%TO.N,Net-(U2-1.8v_out)*%
X132200000Y-62740999D02*
X131570599Y-63370400D01*
X132200000Y-59302000D02*
X132200000Y-62740999D01*
X131868400Y-58970400D02*
X132200000Y-59302000D01*
X131570599Y-58970400D02*
X131868400Y-58970400D01*
D67*
%TO.N,+BATT*%
X145796000Y-61273501D02*
X141773358Y-61273501D01*
X141773358Y-61273501D02*
X141585605Y-61085748D01*
X147437500Y-64472000D02*
X147437500Y-63404125D01*
X145856000Y-66034001D02*
X146311000Y-66034001D01*
D68*
X123535134Y-90050134D02*
X123579618Y-90005650D01*
D69*
X124588049Y-64898049D02*
X124588049Y-64848203D01*
D67*
X147431573Y-61769073D02*
X147431573Y-63398198D01*
X146936000Y-61273500D02*
X145796001Y-61273500D01*
X147437500Y-64907501D02*
X147437500Y-64472000D01*
X146936000Y-61273500D02*
X147431573Y-61769073D01*
X145796001Y-61273500D02*
X145796000Y-61273501D01*
D68*
X124723667Y-65033667D02*
X124588049Y-64898049D01*
D69*
X124498051Y-90005650D02*
X124498051Y-89955804D01*
D67*
X146311000Y-66034001D02*
X147437500Y-64907501D01*
D70*
X141585605Y-61085748D02*
X141585605Y-58164436D01*
D68*
X123579618Y-90005650D02*
X124498051Y-90005650D01*
D70*
X141585605Y-58164436D02*
X144924420Y-54825621D01*
D67*
X147437500Y-63404125D02*
X147431573Y-63398198D01*
D68*
X125547547Y-65033667D02*
X124723667Y-65033667D01*
%TO.N,GND*%
X161170000Y-88526000D02*
X161036000Y-88392000D01*
D65*
X131070599Y-62622651D02*
X131070599Y-63370400D01*
D67*
X167570000Y-89770000D02*
X167570000Y-88462000D01*
D65*
X171450000Y-87884000D02*
X171311727Y-87745727D01*
X131579500Y-62113750D02*
X131070599Y-62622651D01*
D66*
X140314066Y-74770691D02*
X140314066Y-75395277D01*
D65*
X171311727Y-87745727D02*
X170642456Y-87745727D01*
X125301405Y-83368760D02*
X125301405Y-84201778D01*
X125531600Y-59686400D02*
X125531600Y-58618400D01*
D66*
X140970856Y-73838656D02*
X140385800Y-73253600D01*
D65*
X131579500Y-61783686D02*
X131579500Y-62113750D01*
D66*
X140394500Y-74690257D02*
X140314066Y-74770691D01*
X145146599Y-67934001D02*
X144703800Y-68376800D01*
D65*
X125531600Y-58618400D02*
X125730000Y-58420000D01*
D66*
X145856000Y-67934001D02*
X145146599Y-67934001D01*
D67*
X154686000Y-88138000D02*
X154724197Y-88152726D01*
D65*
X130980601Y-89629401D02*
X130980601Y-88478001D01*
D69*
X125430041Y-83368760D02*
X126157400Y-82641401D01*
D67*
X154724197Y-94152726D02*
X154686000Y-94234000D01*
D65*
X126539938Y-85844093D02*
X126389938Y-85694093D01*
X126631600Y-60736400D02*
X126481600Y-60586400D01*
D67*
X154686000Y-94234000D02*
X154686000Y-88138000D01*
D68*
X167570000Y-88462000D02*
X167640000Y-88392000D01*
D65*
X127289938Y-85844093D02*
X126539938Y-85844093D01*
D69*
X127330516Y-57615537D02*
X126280463Y-57615537D01*
X125301405Y-83368760D02*
X125430041Y-83368760D01*
D66*
X140970856Y-73914856D02*
X140970856Y-73838656D01*
D67*
X161170000Y-89770000D02*
X161170000Y-88526000D01*
D65*
X127289938Y-86244093D02*
X125839938Y-86244093D01*
X131114800Y-89763600D02*
X130980601Y-89629401D01*
X157480000Y-87884000D02*
X157640505Y-87723495D01*
D69*
X126280463Y-57615537D02*
X126238000Y-57658000D01*
D67*
X153416000Y-63246000D02*
X153924000Y-62738000D01*
X153924000Y-62738000D02*
X155194000Y-62738000D01*
D66*
X143819499Y-87431000D02*
X143819000Y-87431000D01*
D65*
X127381600Y-60736400D02*
X126631600Y-60736400D01*
D68*
X142675020Y-71882000D02*
X143167761Y-72374741D01*
D65*
X124491600Y-62098400D02*
X124401600Y-62188400D01*
D66*
X143819000Y-87431000D02*
X143764000Y-87376000D01*
D65*
X157640505Y-87723495D02*
X158335161Y-87723495D01*
X125301405Y-84201778D02*
X125441602Y-84341975D01*
X125441602Y-84341975D02*
X125441602Y-84794001D01*
X124401602Y-87206001D02*
X124311602Y-87296001D01*
X127381600Y-61136400D02*
X125931600Y-61136400D01*
D67*
X176784000Y-94138000D02*
X176784000Y-88138000D01*
D65*
%TO.N,Net-(U5-VCP)*%
X125409202Y-87726401D02*
X125441602Y-87694001D01*
X125409202Y-89031701D02*
X125409202Y-87726401D01*
D68*
%TO.N,+3.3V*%
X124684100Y-67538600D02*
X127612469Y-70466969D01*
D67*
X146558000Y-71120000D02*
X131572000Y-71120000D01*
D68*
X124129800Y-67538600D02*
X124684100Y-67538600D01*
D66*
X175035536Y-81563536D02*
X175006000Y-81534000D01*
D68*
X142250160Y-91906370D02*
X142250160Y-90932000D01*
X127612469Y-70466969D02*
X127612469Y-73406000D01*
D66*
X144565941Y-88138000D02*
X148082000Y-88138000D01*
D68*
X127660587Y-79349413D02*
X127612469Y-79301295D01*
D65*
X129286000Y-83566000D02*
X128271040Y-83566000D01*
D67*
X147828000Y-72390000D02*
X146558000Y-71120000D01*
D68*
X128778000Y-58420000D02*
X128617917Y-58259917D01*
X125014920Y-80010000D02*
X125014920Y-77352507D01*
D66*
X143716150Y-88987791D02*
X144565941Y-88138000D01*
D67*
X158890000Y-60530000D02*
X156898573Y-60530000D01*
D68*
X147417022Y-78273868D02*
X147532132Y-78273868D01*
D67*
X156566573Y-60198000D02*
X156723042Y-60354469D01*
D66*
X175006000Y-81534000D02*
X175035536Y-81504464D01*
X175035536Y-81504464D02*
X175035536Y-80588025D01*
D68*
X128071231Y-83366191D02*
X128002571Y-83366191D01*
X126421427Y-75946000D02*
X126492000Y-75946000D01*
X146859850Y-89828208D02*
X146859850Y-91538379D01*
D65*
X129480601Y-84078001D02*
X129480601Y-83760601D01*
X129480601Y-83760601D02*
X129286000Y-83566000D01*
X128271040Y-83566000D02*
X128071231Y-83366191D01*
X129570599Y-58044199D02*
X129570599Y-58970400D01*
D67*
X131572000Y-71120000D02*
X129286000Y-73406000D01*
D68*
X146859850Y-91538379D02*
X146196229Y-92202000D01*
X125080960Y-72050910D02*
X126436050Y-73406000D01*
D67*
X156718000Y-60349427D02*
X156718000Y-60198000D01*
D66*
X175035536Y-80588025D02*
X175034864Y-80587353D01*
D68*
X128002571Y-83366191D02*
X127511919Y-82875539D01*
D66*
X173793010Y-82665372D02*
X173985983Y-82714817D01*
X142250160Y-90932000D02*
X142250160Y-90453781D01*
X173781468Y-82714817D02*
X173793010Y-82665372D01*
X142250160Y-90453781D02*
X143716150Y-88987791D01*
D67*
X151130000Y-74422000D02*
X149098000Y-72390000D01*
D65*
X128465516Y-57615537D02*
X129141937Y-57615537D01*
D68*
X142545790Y-92202000D02*
X142250160Y-91906370D01*
X128617917Y-58259917D02*
X128617917Y-57767938D01*
X151130000Y-74676000D02*
X151130000Y-74422000D01*
D67*
X149098000Y-72390000D02*
X147828000Y-72390000D01*
D68*
X127612469Y-79301295D02*
X127612469Y-76200000D01*
X146196229Y-92202000D02*
X142545790Y-92202000D01*
X147532132Y-78273868D02*
X151130000Y-74676000D01*
D67*
X156718000Y-60198000D02*
X156566573Y-60198000D01*
D65*
X129141937Y-57615537D02*
X129570599Y-58044199D01*
D66*
X148082000Y-88138000D02*
X152616000Y-83604000D01*
X152616000Y-83604000D02*
X152616000Y-75908000D01*
X175035536Y-81665264D02*
X175035536Y-81563536D01*
D67*
X156898573Y-60530000D02*
X156718000Y-60349427D01*
D65*
X151130000Y-74676000D02*
X151384000Y-74676000D01*
D66*
X152616000Y-75908000D02*
X151384000Y-74676000D01*
D68*
X125014920Y-77352507D02*
X126421427Y-75946000D01*
D66*
X173985983Y-82714817D02*
X175035536Y-81665264D01*
D68*
X126436050Y-73406000D02*
X126492000Y-73406000D01*
D66*
X151384000Y-74676000D02*
X151130000Y-74422000D01*
D65*
%TO.N,Net-(U2-VCP)*%
X125499200Y-63924100D02*
X125499200Y-62618800D01*
X125499200Y-62618800D02*
X125531600Y-62586400D01*
%TO.N,Net-(U2-V)*%
X124481600Y-60736400D02*
X123718400Y-60736400D01*
X123718400Y-60736400D02*
X123698000Y-60756800D01*
D69*
%TO.N,Net-(U2-W)*%
X129209800Y-66243200D02*
X130070599Y-65382401D01*
X123901200Y-66243200D02*
X129209800Y-66243200D01*
X122692299Y-63932415D02*
X122692299Y-65034299D01*
X122692299Y-65034299D02*
X123901200Y-66243200D01*
X130070599Y-65382401D02*
X130070599Y-63370400D01*
D65*
%TO.N,Net-(U2-1.8v_out)*%
X125931600Y-59698900D02*
X125931600Y-59281684D01*
X131570599Y-59718149D02*
X131570599Y-58970400D01*
X128280450Y-58928000D02*
X129550450Y-60198000D01*
X126285284Y-58928000D02*
X128280450Y-58928000D01*
X129550450Y-60198000D02*
X131090748Y-60198000D01*
X125931600Y-59281684D02*
X126285284Y-58928000D01*
X131090748Y-60198000D02*
X131570599Y-59718149D01*
D69*
%TO.N,Net-(U2-U)*%
X128616431Y-56388000D02*
X128674431Y-56330000D01*
X123952000Y-56388000D02*
X128616431Y-56388000D01*
X128674431Y-56330000D02*
X129812200Y-56330000D01*
X130571400Y-58969599D02*
X130570599Y-58970400D01*
X130571400Y-57089200D02*
X130571400Y-58969599D01*
X122707923Y-57632077D02*
X123952000Y-56388000D01*
X122707923Y-58313966D02*
X122707923Y-57632077D01*
X129812200Y-56330000D02*
X130571400Y-57089200D01*
D66*
%TO.N,Net-(U3-in-1)*%
X122602301Y-90107251D02*
X123918550Y-91423500D01*
X123918550Y-91423500D02*
X127762000Y-91423500D01*
X122602301Y-89038832D02*
X122602301Y-90107251D01*
X129594312Y-89727500D02*
X129979524Y-89342288D01*
X129979524Y-89342288D02*
X129979524Y-88476458D01*
X129427830Y-89727500D02*
X129594312Y-89727500D01*
D65*
%TO.N,Net-(U3-ref_1)*%
X131775200Y-88823800D02*
X131479524Y-88528124D01*
X131479524Y-88528124D02*
X131479524Y-88476458D01*
D66*
X131479524Y-84076458D02*
X131828458Y-84076458D01*
D65*
X125839938Y-84102260D02*
X125839938Y-84806593D01*
X125943348Y-83998850D02*
X125839938Y-84102260D01*
D69*
%TO.N,Net-(U4-in+1)*%
X130570599Y-65796801D02*
X130570599Y-63370400D01*
X129616200Y-66751200D02*
X130570599Y-65796801D01*
X121392299Y-64682415D02*
X123461084Y-66751200D01*
X123461084Y-66751200D02*
X129616200Y-66751200D01*
X121392299Y-63932415D02*
X121392299Y-64682415D01*
D65*
%TO.N,Net-(U5-V)*%
X124391602Y-85844001D02*
X123628402Y-85844001D01*
X123628402Y-85844001D02*
X123608002Y-85864401D01*
%TO.N,/motor_controls/standby*%
X126921361Y-59686400D02*
X126731600Y-59686400D01*
X126746000Y-84689603D02*
X126641602Y-84794001D01*
X127104261Y-59503500D02*
X126921361Y-59686400D01*
X126746000Y-83535101D02*
X126746000Y-84689603D01*
D67*
%TO.N,+5V*%
X149098000Y-65786000D02*
X149292500Y-65980500D01*
D65*
X161970000Y-88369991D02*
X161970000Y-89770000D01*
D67*
X150114000Y-60198000D02*
X150176500Y-60190000D01*
X149292500Y-67688500D02*
X149098000Y-67883000D01*
X149292500Y-65980500D02*
X149292500Y-67688500D01*
D65*
X167445991Y-87630000D02*
X166770000Y-88305991D01*
D67*
X149292500Y-65984000D02*
X149098000Y-65786000D01*
D65*
X161230009Y-87630000D02*
X161970000Y-88369991D01*
X168402000Y-87630000D02*
X167445991Y-87630000D01*
X160528000Y-87630000D02*
X161230009Y-87630000D01*
D67*
X150176500Y-61998000D02*
X150114000Y-61976000D01*
X150114000Y-61976000D02*
X150114000Y-60198000D01*
D65*
X166770000Y-88305991D02*
X166770000Y-89770000D01*
D67*
%TO.N,Net-(C11-Pad2)*%
X146296573Y-63398198D02*
X146296573Y-62491427D01*
X148400001Y-60138501D02*
X148451500Y-60190000D01*
X146296573Y-62491427D02*
X146558000Y-62230000D01*
X145796000Y-60138501D02*
X148400001Y-60138501D01*
X148451500Y-61998000D02*
X148451500Y-60190000D01*
%TO.N,Net-(U7-SW)*%
X146911000Y-66984001D02*
X147086000Y-67159001D01*
X147448653Y-69358214D02*
X147086000Y-68995561D01*
X147086000Y-68683350D02*
X147086000Y-69342000D01*
X147448653Y-69358214D02*
X148001865Y-69911426D01*
X147086000Y-69342000D02*
X147086000Y-69817000D01*
X144839500Y-69528000D02*
X146558000Y-69528000D01*
X147086000Y-69000000D02*
X146558000Y-69528000D01*
X147198000Y-69929000D02*
X147656786Y-69929000D01*
X147086000Y-68995561D02*
X147086000Y-69000000D01*
X147086000Y-69358214D02*
X147448653Y-69358214D01*
X147086000Y-67159001D02*
X147086000Y-68683350D01*
X147656786Y-69929000D02*
X149098000Y-69929000D01*
X147086000Y-69817000D02*
X147198000Y-69929000D01*
X145856000Y-66984001D02*
X146911000Y-66984001D01*
X147086000Y-69358214D02*
X147656786Y-69929000D01*
X146558000Y-69528000D02*
X146797000Y-69528000D01*
X146797000Y-69528000D02*
X147198000Y-69929000D01*
X147086000Y-69342000D02*
X147086000Y-69358214D01*
X147086000Y-68995561D02*
X147086000Y-68683350D01*
D68*
%TO.N,Net-(U7-VBST)*%
X143704500Y-69274000D02*
X143704500Y-68482501D01*
X143704500Y-68482501D02*
X143156000Y-67934001D01*
D67*
%TO.N,Net-(U7-VFB)*%
X140374867Y-67286496D02*
X141510003Y-67286496D01*
D68*
X141537500Y-67126001D02*
X141603999Y-67192500D01*
X143144000Y-66046001D02*
X141537500Y-66046001D01*
X143156000Y-66034001D02*
X143144000Y-66046001D01*
X141537500Y-66046001D02*
X141537500Y-67126001D01*
D65*
%TO.N,usb_d-*%
X161236811Y-84398967D02*
X161236811Y-83766811D01*
X156464000Y-76454000D02*
X158418000Y-74500000D01*
X161236811Y-83766811D02*
X156464000Y-78994000D01*
X158418000Y-74500000D02*
X158890000Y-74500000D01*
D67*
X159976421Y-85046421D02*
X160589357Y-85046421D01*
D65*
X156464000Y-78994000D02*
X156464000Y-76454000D01*
D67*
X160589357Y-85046421D02*
X161236811Y-84398967D01*
D65*
%TO.N,usb_d+*%
X156816000Y-76610000D02*
X157656000Y-75770000D01*
X157656000Y-75770000D02*
X158890000Y-75770000D01*
D67*
X162791634Y-82231208D02*
X162791634Y-82896604D01*
D65*
X162022197Y-83666041D02*
X161633845Y-83666041D01*
X161633845Y-83666041D02*
X156816000Y-78848196D01*
D67*
X162791634Y-82896604D02*
X162022197Y-83666041D01*
D65*
X156816000Y-78848196D02*
X156816000Y-76610000D01*
D68*
%TO.N,m1_enc_cs*%
X176312000Y-71882000D02*
X176390000Y-71960000D01*
X175006000Y-71882000D02*
X176312000Y-71882000D01*
%TO.N,m2_enc_cs*%
X173228000Y-76893000D02*
X173355000Y-77020000D01*
X173228000Y-75692000D02*
X173228000Y-76893000D01*
D65*
%TO.N,m2_uh*%
X163068000Y-75692000D02*
X163068000Y-76893000D01*
X163068000Y-76893000D02*
X163195000Y-77020000D01*
X139649200Y-83845400D02*
X139471400Y-83845400D01*
X128822002Y-91186000D02*
X125839938Y-88203936D01*
X125839938Y-88203936D02*
X125839938Y-87694093D01*
X132130800Y-91186000D02*
X128822002Y-91186000D01*
X139471400Y-83845400D02*
X132130800Y-91186000D01*
%TO.N,m2_ul*%
X132842000Y-87122000D02*
X127367845Y-87122000D01*
X138148907Y-81815093D02*
X132842000Y-87122000D01*
X168148000Y-76893000D02*
X168275000Y-77020000D01*
X168148000Y-75692000D02*
X168148000Y-76893000D01*
X138203093Y-81815093D02*
X138148907Y-81815093D01*
X127367845Y-87122000D02*
X127289938Y-87044093D01*
%TO.N,m2_vh*%
X164338000Y-76893000D02*
X164465000Y-77020000D01*
X140616093Y-81942093D02*
X140616093Y-82063919D01*
X164338000Y-75692000D02*
X164338000Y-76893000D01*
X128964206Y-90830400D02*
X126239938Y-88106132D01*
X140616093Y-82063919D02*
X131849612Y-90830400D01*
X131849612Y-90830400D02*
X128964206Y-90830400D01*
X126239938Y-88106132D02*
X126239938Y-87694093D01*
%TO.N,m2_vl*%
X170688000Y-76893000D02*
X170815000Y-77020000D01*
X132741907Y-85444093D02*
X127289938Y-85444093D01*
X170688000Y-75692000D02*
X170688000Y-76893000D01*
X137693400Y-80492600D02*
X132741907Y-85444093D01*
%TO.N,m2_wh*%
X129110010Y-90478400D02*
X126639938Y-88008328D01*
X165608000Y-76893000D02*
X165735000Y-77020000D01*
X138938000Y-83235800D02*
X131695400Y-90478400D01*
X165608000Y-75692000D02*
X165608000Y-76893000D01*
X138938000Y-82804000D02*
X138938000Y-83235800D01*
X126639938Y-88008328D02*
X126639938Y-87694093D01*
X131695400Y-90478400D02*
X129110010Y-90478400D01*
%TO.N,m2_wl*%
X169418000Y-75692000D02*
X169418000Y-76893000D01*
X132552180Y-86652126D02*
X127297971Y-86652126D01*
X169418000Y-76893000D02*
X169545000Y-77020000D01*
X139624953Y-79579353D02*
X132552180Y-86652126D01*
X127297971Y-86652126D02*
X127289938Y-86644093D01*
%TO.N,m1_uh*%
X153308100Y-67862500D02*
X154222500Y-67862500D01*
X128295400Y-65618700D02*
X128059382Y-65618700D01*
X153263600Y-67818000D02*
X153308100Y-67862500D01*
X158320000Y-71960000D02*
X158890000Y-71960000D01*
X125931600Y-63490918D02*
X125931600Y-62586400D01*
X154222500Y-67862500D02*
X158320000Y-71960000D01*
X128059382Y-65618700D02*
X125931600Y-63490918D01*
%TO.N,m1_ul*%
X127381600Y-62611600D02*
X127381600Y-61936400D01*
X155702000Y-66446400D02*
X155702000Y-67048500D01*
X127711200Y-62941200D02*
X127939800Y-62941200D01*
X155702000Y-67048500D02*
X156803500Y-68150000D01*
X156803500Y-68150000D02*
X158890000Y-68150000D01*
X127381600Y-62611600D02*
X127711200Y-62941200D01*
%TO.N,m1_vh*%
X153857500Y-66862500D02*
X157685000Y-70690000D01*
X153441400Y-66862500D02*
X153857500Y-66862500D01*
X157685000Y-70690000D02*
X158890000Y-70690000D01*
X126331600Y-63241415D02*
X126331600Y-62586400D01*
X129165200Y-64973200D02*
X128063385Y-64973200D01*
X128063385Y-64973200D02*
X126331600Y-63241415D01*
X129235200Y-65043200D02*
X129165200Y-64973200D01*
%TO.N,m1_vl*%
X158625500Y-64075500D02*
X158890000Y-64340000D01*
X127939800Y-59503500D02*
X127939800Y-59512200D01*
X155194000Y-64075500D02*
X158625500Y-64075500D01*
X127381600Y-60070400D02*
X127381600Y-60336400D01*
X127939800Y-59512200D02*
X127381600Y-60070400D01*
%TO.N,m1_wh*%
X126731600Y-62706900D02*
X126731600Y-62586400D01*
X154542492Y-66702873D02*
X154542492Y-66922688D01*
X154542492Y-66922688D02*
X157039804Y-69420000D01*
X157039804Y-69420000D02*
X158890000Y-69420000D01*
X128422400Y-64397700D02*
X126731600Y-62706900D01*
%TO.N,m1_wl*%
X128676400Y-62052200D02*
X128309439Y-62052200D01*
X153416000Y-64441000D02*
X153731000Y-64756000D01*
X153731000Y-64756000D02*
X155918000Y-64756000D01*
X128309439Y-62052200D02*
X127793639Y-61536400D01*
X158532600Y-65252600D02*
X158890000Y-65610000D01*
X156414600Y-65252600D02*
X158532600Y-65252600D01*
X127793639Y-61536400D02*
X127381600Y-61536400D01*
X155918000Y-64756000D02*
X156414600Y-65252600D01*
D67*
%TO.N,Net-(U7-EN)*%
X144386000Y-65316400D02*
X145230400Y-64472000D01*
X143156000Y-66984001D02*
X144211000Y-66984001D01*
X145230400Y-64472000D02*
X146242500Y-64472000D01*
X144386000Y-66809001D02*
X144386000Y-65316400D01*
X144211000Y-66984001D02*
X144386000Y-66809001D01*
D65*
%TO.N,Net-(J11-DP1)*%
X164120000Y-89770000D02*
X164120000Y-88728674D01*
X164120000Y-88728674D02*
X164126101Y-88722573D01*
%TO.N,Net-(J11-DN1)*%
X163913758Y-86443757D02*
X163913758Y-87801708D01*
X162713960Y-85243959D02*
X163913758Y-86443757D01*
X163913758Y-87801708D02*
X163935013Y-87822963D01*
X162081803Y-85243959D02*
X162713960Y-85243959D01*
D67*
%TO.N,Net-(U1-GPIO0{slash}BOOT)*%
X176390000Y-77355000D02*
X176390000Y-75770000D01*
X172212000Y-87266000D02*
X172212000Y-81533000D01*
X173084000Y-94138000D02*
X173084000Y-88138000D01*
X172212000Y-81533000D02*
X176390000Y-77355000D01*
X173084000Y-88138000D02*
X172212000Y-87266000D01*
%TO.N,Net-(U1-EN)*%
X158890000Y-61800000D02*
X156973573Y-61800000D01*
X156973573Y-61800000D02*
X156723042Y-61549469D01*
D66*
X153984620Y-68438500D02*
X153924000Y-68499120D01*
X153924000Y-68499120D02*
X153924000Y-74904600D01*
D67*
X151024197Y-94152726D02*
X151024197Y-88152726D01*
D66*
X153924000Y-74904600D02*
X154305000Y-75285600D01*
D65*
%TO.N,m2_current_sense_u*%
X171958000Y-75692000D02*
X171958000Y-76893000D01*
X129980601Y-84825284D02*
X129980601Y-84078001D01*
X138404600Y-78816200D02*
X138404600Y-78917800D01*
X132244942Y-85077458D02*
X130232775Y-85077458D01*
X130232775Y-85077458D02*
X129980601Y-84825284D01*
X171958000Y-76893000D02*
X172085000Y-77020000D01*
X138404600Y-78917800D02*
X132244942Y-85077458D01*
%TO.N,m2_current_sense_w*%
X139864559Y-81063559D02*
X133452660Y-87475458D01*
X166878000Y-75692000D02*
X166878000Y-76893000D01*
X166878000Y-76893000D02*
X167005000Y-77020000D01*
X129480601Y-87876200D02*
X129480601Y-88478001D01*
X129448827Y-87844426D02*
X129480601Y-87876200D01*
X129479524Y-87690476D02*
X129479524Y-88476458D01*
X129694542Y-87475458D02*
X129479524Y-87690476D01*
X133452660Y-87475458D02*
X129694542Y-87475458D01*
D68*
%TO.N,Net-(J9-Pin_6)*%
X177440000Y-69420000D02*
X179070000Y-71050000D01*
X176390000Y-69420000D02*
X177440000Y-69420000D01*
X179070000Y-73025000D02*
X179705000Y-73660000D01*
X179070000Y-71050000D02*
X179070000Y-73025000D01*
X179705000Y-73660000D02*
X180721000Y-73660000D01*
%TO.N,Net-(J10-Pin_1)*%
X176390000Y-64340000D02*
X177595000Y-64340000D01*
X180797200Y-62230000D02*
X180975000Y-62407800D01*
X177595000Y-64340000D02*
X179705000Y-62230000D01*
X179705000Y-62230000D02*
X180797200Y-62230000D01*
%TO.N,Net-(J10-Pin_2)*%
X177595000Y-63070000D02*
X180975000Y-59690000D01*
X176390000Y-63070000D02*
X177595000Y-63070000D01*
X180975000Y-59690000D02*
X180975000Y-59512200D01*
D65*
%TO.N,m1_current_sense_w*%
X158714000Y-63246000D02*
X158890000Y-63070000D01*
X130070599Y-57730318D02*
X130070599Y-58970400D01*
X129908326Y-57568045D02*
X130070599Y-57730318D01*
X157734000Y-63246000D02*
X158714000Y-63246000D01*
%TO.N,m1_current_sense_u*%
X157634200Y-66880000D02*
X158890000Y-66880000D01*
X129421099Y-63280167D02*
X129511332Y-63370400D01*
X157124400Y-66370200D02*
X157634200Y-66880000D01*
X129511332Y-63370400D02*
X129570599Y-63370400D01*
D69*
%TO.N,Net-(U4-in+2)*%
X121407923Y-57563966D02*
X123091889Y-55880000D01*
X121407923Y-58313966D02*
X121407923Y-57563966D01*
X130200400Y-55880000D02*
X131070599Y-56750199D01*
X131070599Y-56750199D02*
X131070599Y-58970400D01*
X123091889Y-55880000D02*
X130200400Y-55880000D01*
D68*
%TO.N,enc_scl*%
X121083000Y-72050910D02*
X121083000Y-79943960D01*
X175006000Y-73152000D02*
X176312000Y-73152000D01*
D66*
X177116000Y-73230000D02*
X176390000Y-73230000D01*
D68*
X121083000Y-79943960D02*
X121016960Y-80010000D01*
D66*
X176229864Y-81603353D02*
X178308000Y-79525217D01*
D68*
X176312000Y-73152000D02*
X176390000Y-73230000D01*
D66*
X178308000Y-79525217D02*
X178308000Y-74422000D01*
X178308000Y-74422000D02*
X177116000Y-73230000D01*
%TO.N,enc_sda*%
X177800000Y-79248000D02*
X177800000Y-75184000D01*
X177800000Y-75184000D02*
X177116000Y-74500000D01*
D68*
X123081980Y-79943960D02*
X123015940Y-80010000D01*
D66*
X176230536Y-80395264D02*
X176652736Y-80395264D01*
X176652736Y-80395264D02*
X177800000Y-79248000D01*
D68*
X176312000Y-74422000D02*
X176390000Y-74500000D01*
D66*
X177116000Y-74500000D02*
X176390000Y-74500000D01*
D68*
X175006000Y-74422000D02*
X176312000Y-74422000D01*
X123081980Y-72050910D02*
X123081980Y-79943960D01*
D66*
%TO.N,sda*%
X143641470Y-89662000D02*
X144236941Y-89662000D01*
X143245840Y-90057630D02*
X143641470Y-89662000D01*
X143245840Y-90932000D02*
X143245840Y-90057630D01*
X144236941Y-89662000D02*
X144911150Y-88987791D01*
%TO.N,gpio8*%
X172290000Y-73230000D02*
X174752000Y-75692000D01*
D68*
X151631226Y-82556774D02*
X151638000Y-82550000D01*
X155194000Y-74735500D02*
X156699500Y-73230000D01*
D66*
X158890000Y-73230000D02*
X172290000Y-73230000D01*
D68*
X151235507Y-82556774D02*
X151631226Y-82556774D01*
X156699500Y-73230000D02*
X158890000Y-73230000D01*
%TO.N,gpio38*%
X149813889Y-80056111D02*
X149860000Y-80010000D01*
X149602054Y-80056111D02*
X149813889Y-80056111D01*
X178907500Y-78267500D02*
X180975000Y-76200000D01*
X178907500Y-79502000D02*
X178907500Y-78267500D01*
%TO.N,Net-(D2-K)*%
X145143406Y-86282843D02*
X146304000Y-85122249D01*
X146304000Y-84604329D02*
X145602402Y-83902731D01*
X146304000Y-85122249D02*
X146304000Y-84604329D01*
X144932658Y-86282843D02*
X145143406Y-86282843D01*
%TO.N,Net-(D1-K)*%
X147068351Y-87422886D02*
X147968454Y-86522783D01*
X144924463Y-87422886D02*
X147068351Y-87422886D01*
%TO.N,Net-(D1-A)*%
X149164022Y-84819215D02*
X149164022Y-84628259D01*
X149164022Y-84628259D02*
X150316269Y-83476012D01*
%TO.N,Net-(D2-A)*%
X147305970Y-82199163D02*
X147459002Y-82199163D01*
X147459002Y-82199163D02*
X148682816Y-80975349D01*
%TO.N,Net-(D3-K)*%
X145034000Y-85051204D02*
X145034000Y-84582000D01*
X144272000Y-83820000D02*
X144272000Y-82080705D01*
X144272000Y-82080705D02*
X144001476Y-81810181D01*
X145034000Y-84582000D02*
X144272000Y-83820000D01*
X144925100Y-85160104D02*
X145034000Y-85051204D01*
%TO.N,Net-(D3-A)*%
X145451044Y-79477846D02*
X146243784Y-78685106D01*
X145451044Y-80360613D02*
X145451044Y-79477846D01*
%TO.N,Net-(J9-Pin_9)*%
X176390000Y-65610000D02*
X180545000Y-65610000D01*
X180545000Y-65610000D02*
X180975000Y-66040000D01*
%TO.N,Net-(J9-Pin_8)*%
X179021000Y-66880000D02*
X180721000Y-68580000D01*
X176390000Y-66880000D02*
X179021000Y-66880000D01*
%TO.N,Net-(J9-Pin_7)*%
X177370000Y-68150000D02*
X180340000Y-71120000D01*
X176390000Y-68150000D02*
X177370000Y-68150000D01*
X180340000Y-71120000D02*
X180975000Y-71120000D01*
%TD*%
%TA.AperFunction,Conductor*%
%TO.N,+BATT*%
G36*
X124059041Y-86140186D02*
G01*
X124104796Y-86192990D01*
X124116002Y-86244503D01*
X124116001Y-86295767D01*
X124096315Y-86362806D01*
X124047403Y-86406700D01*
X124046558Y-86407122D01*
X124015349Y-86417804D01*
X123963839Y-86428050D01*
X123909922Y-86464077D01*
X123873895Y-86517994D01*
X123864438Y-86565540D01*
X123864438Y-86734858D01*
X123860872Y-86734858D01*
X123857352Y-86774151D01*
X123356200Y-86272999D01*
X123372387Y-86267736D01*
X123658802Y-86220001D01*
X123952424Y-86126362D01*
X123990098Y-86120501D01*
X123992002Y-86120501D01*
X124059041Y-86140186D01*
G37*
%TD.AperFunction*%
%TD*%
%TA.AperFunction,Conductor*%
%TO.N,GND*%
G36*
X120574978Y-61348060D02*
G01*
X120628791Y-61392623D01*
X120649969Y-61459206D01*
X120650000Y-61461977D01*
X120650000Y-62856749D01*
X120630315Y-62923788D01*
X120577511Y-62969543D01*
X120515258Y-62980283D01*
X119492159Y-62891318D01*
X119471344Y-62887701D01*
X119255718Y-62830957D01*
X118608841Y-62660726D01*
X118549019Y-62624630D01*
X118518209Y-62561920D01*
X118516400Y-62540821D01*
X118516400Y-62154235D01*
X118536085Y-62087195D01*
X118584943Y-62043328D01*
X119718927Y-61476336D01*
X119753985Y-61464935D01*
X120505615Y-61339664D01*
X120574978Y-61348060D01*
G37*
%TD.AperFunction*%
%TD*%
%TA.AperFunction,Conductor*%
%TO.N,Net-(U2-U)*%
G36*
X123660170Y-57835085D02*
G01*
X123672257Y-57843894D01*
X125210051Y-59113603D01*
X125210384Y-59114096D01*
X124612400Y-58623200D01*
X123901200Y-59385200D01*
X124092698Y-59561753D01*
X124086317Y-59556903D01*
X123963885Y-59447607D01*
X123234473Y-58796456D01*
X123234471Y-58796456D01*
X123234470Y-58796455D01*
X122595839Y-58800713D01*
X122528669Y-58781476D01*
X122482564Y-58728978D01*
X122472159Y-58659888D01*
X122484752Y-58619982D01*
X122863539Y-57883825D01*
X122911715Y-57833220D01*
X122973588Y-57816559D01*
X123593099Y-57815513D01*
X123660170Y-57835085D01*
G37*
%TD.AperFunction*%
%TD*%
%TA.AperFunction,Conductor*%
%TO.N,+BATT*%
G36*
X123948348Y-61667548D02*
G01*
X123947765Y-61674048D01*
X123937540Y-61694334D01*
X123928909Y-61708144D01*
X123928909Y-61708145D01*
X123698000Y-62077600D01*
X123175462Y-62932661D01*
X123123709Y-62979599D01*
X123069657Y-62992000D01*
X121536000Y-62992000D01*
X121468961Y-62972315D01*
X121423206Y-62919511D01*
X121412000Y-62868000D01*
X121412000Y-61439600D01*
X121431685Y-61372561D01*
X121484489Y-61326806D01*
X121536000Y-61315600D01*
X123139200Y-61315600D01*
X123427329Y-61171535D01*
X123446199Y-61165399D01*
X123948348Y-61667548D01*
G37*
%TD.AperFunction*%
%TD*%
%TA.AperFunction,Conductor*%
%TO.N,Net-(U2-U)*%
G36*
X125210385Y-59114096D02*
G01*
X125249212Y-59171464D01*
X125255100Y-59209220D01*
X125255100Y-59721830D01*
X125255888Y-59729860D01*
X125255860Y-59793017D01*
X125236146Y-59860048D01*
X125183321Y-59905779D01*
X125131278Y-59916961D01*
X125063518Y-59916643D01*
X124996572Y-59896644D01*
X124975343Y-59879236D01*
X124691600Y-59588400D01*
X124601206Y-59588400D01*
X124566271Y-59583377D01*
X124513561Y-59567900D01*
X124369639Y-59567900D01*
X124316929Y-59583377D01*
X124281994Y-59588400D01*
X124168895Y-59588400D01*
X124101856Y-59568715D01*
X124092698Y-59561753D01*
X123901200Y-59385200D01*
X124612400Y-58623200D01*
X125210385Y-59114096D01*
G37*
%TD.AperFunction*%
%TD*%
%TA.AperFunction,Conductor*%
%TO.N,Net-(U3-in-1)*%
G36*
X125108411Y-87434809D02*
G01*
X125154413Y-87487398D01*
X125165862Y-87539383D01*
X125165869Y-87555215D01*
X125146214Y-87622263D01*
X125145828Y-87622851D01*
X125145155Y-87636560D01*
X125130321Y-87711135D01*
X125130320Y-87711147D01*
X125127286Y-87726400D01*
X125130319Y-87741647D01*
X125132702Y-87765839D01*
X125132701Y-88150585D01*
X125113016Y-88217625D01*
X125088122Y-88245812D01*
X124511551Y-88726682D01*
X124510915Y-88726957D01*
X124471470Y-88759839D01*
X123811202Y-87947201D01*
X123991146Y-87781299D01*
X124050797Y-87753299D01*
X124104661Y-87756867D01*
X124239641Y-87796501D01*
X124383563Y-87796501D01*
X124521655Y-87755954D01*
X124521655Y-87755953D01*
X124538761Y-87750931D01*
X124539896Y-87754796D01*
X124576656Y-87744001D01*
X124601602Y-87744001D01*
X124885345Y-87453164D01*
X124946250Y-87418924D01*
X124973516Y-87415757D01*
X125041281Y-87415439D01*
X125108411Y-87434809D01*
G37*
%TD.AperFunction*%
%TD*%
%TA.AperFunction,Conductor*%
%TO.N,Net-(U5-V)*%
G36*
X122418238Y-84662847D02*
G01*
X123714187Y-85439726D01*
X123761563Y-85491076D01*
X123771594Y-85519716D01*
X123774004Y-85530793D01*
X123774370Y-85532333D01*
X123776480Y-85540951D01*
X123776491Y-85540973D01*
X123776492Y-85540974D01*
X123785256Y-85557421D01*
X123819501Y-85621686D01*
X123864001Y-85673042D01*
X123864022Y-85673065D01*
X123865257Y-85674490D01*
X123882848Y-85692444D01*
X123907147Y-85706036D01*
X123956045Y-85755944D01*
X123970199Y-85824365D01*
X123945115Y-85889576D01*
X123888757Y-85930874D01*
X123884287Y-85932394D01*
X123618936Y-86017016D01*
X123601647Y-86021191D01*
X123344334Y-86064077D01*
X123338604Y-86065032D01*
X123336378Y-86065576D01*
X123336359Y-86065580D01*
X123311090Y-86071757D01*
X123311077Y-86071760D01*
X123308846Y-86072306D01*
X123306656Y-86073017D01*
X123306635Y-86073024D01*
X123292659Y-86077569D01*
X123293515Y-86077288D01*
X123275982Y-86082992D01*
X123275959Y-86083000D01*
X123273783Y-86083708D01*
X123271681Y-86084569D01*
X123271650Y-86084581D01*
X123247570Y-86094452D01*
X123247548Y-86094461D01*
X123245428Y-86095331D01*
X123243373Y-86096358D01*
X123243352Y-86096368D01*
X123213972Y-86111058D01*
X123208300Y-86113688D01*
X123206406Y-86114841D01*
X123085621Y-86175234D01*
X123050674Y-86186617D01*
X122875502Y-86215993D01*
X122854994Y-86217701D01*
X121828250Y-86217701D01*
X121813910Y-86216662D01*
X121812132Y-86216662D01*
X121319648Y-86216662D01*
X121309387Y-86218156D01*
X121305618Y-86218706D01*
X121287742Y-86220001D01*
X120709038Y-86220001D01*
X120691162Y-86218706D01*
X120687392Y-86218156D01*
X120677132Y-86216662D01*
X120184648Y-86216662D01*
X120174387Y-86218156D01*
X120170618Y-86218706D01*
X120152742Y-86220001D01*
X119594802Y-86220001D01*
X117182583Y-87426110D01*
X117127130Y-87439201D01*
X115535227Y-87439201D01*
X115468188Y-87419516D01*
X115443061Y-87398155D01*
X115054632Y-86966568D01*
X115024418Y-86903570D01*
X115022802Y-86883617D01*
X115022802Y-85712563D01*
X115042487Y-85645524D01*
X115059121Y-85624882D01*
X115443683Y-85240320D01*
X115505006Y-85206835D01*
X115531364Y-85204001D01*
X117359601Y-85204001D01*
X117359602Y-85204001D01*
X119170690Y-84650612D01*
X119206925Y-84645201D01*
X122354482Y-84645201D01*
X122418238Y-84662847D01*
G37*
%TD.AperFunction*%
%TD*%
%TA.AperFunction,Conductor*%
%TO.N,+3.3V*%
G36*
X127531677Y-73171685D02*
G01*
X127552319Y-73188319D01*
X127979680Y-73615680D01*
X128013165Y-73677003D01*
X128015999Y-73703360D01*
X128016000Y-73813053D01*
X127996316Y-73880093D01*
X127943512Y-73925848D01*
X127880781Y-73936545D01*
X127866125Y-73935213D01*
X127862469Y-73935047D01*
X127862469Y-75574868D01*
X127866108Y-75574703D01*
X127880774Y-75573370D01*
X127949320Y-75586905D01*
X127999668Y-75635350D01*
X128016000Y-75696861D01*
X128016000Y-76156638D01*
X127996315Y-76223677D01*
X127979681Y-76244319D01*
X127552319Y-76671681D01*
X127490996Y-76705166D01*
X127464638Y-76708000D01*
X126535362Y-76708000D01*
X126468323Y-76688315D01*
X126447681Y-76671681D01*
X126020319Y-76244318D01*
X125986834Y-76182995D01*
X125984000Y-76156637D01*
X125984000Y-75004958D01*
X126758300Y-75004958D01*
X126761012Y-75034801D01*
X126808694Y-75187819D01*
X126891611Y-75324982D01*
X127004944Y-75438315D01*
X127142107Y-75521232D01*
X127295125Y-75568914D01*
X127358819Y-75574702D01*
X127362469Y-75574868D01*
X127362469Y-75004958D01*
X126758300Y-75004958D01*
X125984000Y-75004958D01*
X125984000Y-74504958D01*
X126758300Y-74504958D01*
X127362469Y-74504958D01*
X127362469Y-73935047D01*
X127358819Y-73935213D01*
X127295125Y-73941001D01*
X127142107Y-73988683D01*
X127004944Y-74071600D01*
X126891611Y-74184933D01*
X126808694Y-74322096D01*
X126761012Y-74475114D01*
X126758300Y-74504958D01*
X125984000Y-74504958D01*
X125984000Y-73703362D01*
X126003685Y-73636323D01*
X126020319Y-73615681D01*
X126447681Y-73188319D01*
X126509004Y-73154834D01*
X126535362Y-73152000D01*
X127464638Y-73152000D01*
X127531677Y-73171685D01*
G37*
%TD.AperFunction*%
%TD*%
%TA.AperFunction,Conductor*%
%TO.N,Net-(U4-in+2)*%
G36*
X120654441Y-57568053D02*
G01*
X120678657Y-57588413D01*
X121618897Y-58610413D01*
X121649800Y-58673077D01*
X121641919Y-58742501D01*
X121597755Y-58796643D01*
X121531331Y-58818313D01*
X121527642Y-58818368D01*
X120184616Y-58818368D01*
X117356048Y-59755281D01*
X117265387Y-59785311D01*
X117226397Y-59791600D01*
X115621362Y-59791600D01*
X115554323Y-59771915D01*
X115533681Y-59755281D01*
X115149119Y-59370719D01*
X115115634Y-59309396D01*
X115112800Y-59283038D01*
X115112800Y-58166044D01*
X115132485Y-58099005D01*
X115148491Y-58078995D01*
X115472458Y-57750371D01*
X115635177Y-57585315D01*
X115696260Y-57551393D01*
X115723482Y-57548368D01*
X120587402Y-57548368D01*
X120654441Y-57568053D01*
G37*
%TD.AperFunction*%
%TD*%
%TA.AperFunction,Conductor*%
%TO.N,+BATT*%
G36*
X124149039Y-61032585D02*
G01*
X124194794Y-61085389D01*
X124206000Y-61136900D01*
X124206000Y-61188163D01*
X124186315Y-61255202D01*
X124137482Y-61299058D01*
X124135843Y-61299878D01*
X124104554Y-61310600D01*
X124055501Y-61320357D01*
X124001584Y-61356384D01*
X123965557Y-61410301D01*
X123956100Y-61457847D01*
X123956100Y-61627165D01*
X123951974Y-61627165D01*
X123948348Y-61667548D01*
X123446198Y-61165398D01*
X123462385Y-61160135D01*
X123748800Y-61112400D01*
X124042422Y-61018761D01*
X124080096Y-61012900D01*
X124082000Y-61012900D01*
X124149039Y-61032585D01*
G37*
%TD.AperFunction*%
%TD*%
%TA.AperFunction,Conductor*%
%TO.N,GND*%
G36*
X124428837Y-59806461D02*
G01*
X124454556Y-59817518D01*
X124729513Y-59974636D01*
X124777953Y-60024988D01*
X124781305Y-60031937D01*
X124890506Y-60277639D01*
X124899745Y-60346895D01*
X124870075Y-60410152D01*
X124810916Y-60447326D01*
X124777193Y-60452000D01*
X124177600Y-60452000D01*
X124110561Y-60432315D01*
X124064806Y-60379511D01*
X124053600Y-60328000D01*
X124053600Y-59986733D01*
X124073285Y-59919694D01*
X124126089Y-59873939D01*
X124143531Y-59867505D01*
X124358971Y-59805951D01*
X124428837Y-59806461D01*
G37*
%TD.AperFunction*%
%TD*%
%TA.AperFunction,Conductor*%
%TO.N,+BATT*%
G36*
X123857352Y-86774151D02*
G01*
X123856500Y-86783668D01*
X123846267Y-86803975D01*
X123838911Y-86815745D01*
X123838911Y-86815746D01*
X123608002Y-87185201D01*
X123085464Y-88040262D01*
X123033711Y-88087200D01*
X122979659Y-88099601D01*
X121446002Y-88099601D01*
X121378963Y-88079916D01*
X121333208Y-88027112D01*
X121322002Y-87975601D01*
X121322002Y-86547201D01*
X121341687Y-86480162D01*
X121394491Y-86434407D01*
X121446002Y-86423201D01*
X123049202Y-86423201D01*
X123337331Y-86279136D01*
X123356201Y-86273000D01*
X123857352Y-86774151D01*
G37*
%TD.AperFunction*%
%TD*%
%TA.AperFunction,Conductor*%
%TO.N,Net-(U3-in+2)*%
G36*
X120564443Y-82675654D02*
G01*
X120588659Y-82696014D01*
X121528899Y-83718014D01*
X121559802Y-83780678D01*
X121551921Y-83850102D01*
X121507757Y-83904244D01*
X121441333Y-83925914D01*
X121437644Y-83925969D01*
X120094618Y-83925969D01*
X117266050Y-84862882D01*
X117175389Y-84892912D01*
X117136399Y-84899201D01*
X115531364Y-84899201D01*
X115464325Y-84879516D01*
X115443683Y-84862882D01*
X115059121Y-84478320D01*
X115025636Y-84416997D01*
X115022802Y-84390639D01*
X115022802Y-83273645D01*
X115042487Y-83206606D01*
X115058493Y-83186596D01*
X115382460Y-82857972D01*
X115545179Y-82692916D01*
X115606262Y-82658994D01*
X115633484Y-82655969D01*
X120497404Y-82655969D01*
X120564443Y-82675654D01*
G37*
%TD.AperFunction*%
%TD*%
%TA.AperFunction,Conductor*%
%TO.N,GND*%
G36*
X120484980Y-86455661D02*
G01*
X120538793Y-86500224D01*
X120559971Y-86566807D01*
X120560002Y-86569578D01*
X120560002Y-87964350D01*
X120540317Y-88031389D01*
X120487513Y-88077144D01*
X120425260Y-88087884D01*
X119402161Y-87998919D01*
X119381346Y-87995302D01*
X118518845Y-87768328D01*
X118459022Y-87732231D01*
X118428212Y-87669521D01*
X118426402Y-87648411D01*
X118426402Y-87261837D01*
X118446087Y-87194798D01*
X118494945Y-87150929D01*
X119628931Y-86583936D01*
X119663987Y-86572536D01*
X120415617Y-86447265D01*
X120484980Y-86455661D01*
G37*
%TD.AperFunction*%
%TD*%
%TA.AperFunction,Conductor*%
%TO.N,Net-(U3-in-2)*%
G36*
X124974636Y-84102048D02*
G01*
X125012401Y-84157846D01*
X125013531Y-84177820D01*
X125014679Y-84177592D01*
X125019488Y-84201778D01*
X125019489Y-84201778D01*
X125024904Y-84229006D01*
X125024905Y-84229011D01*
X125032779Y-84268593D01*
X125040948Y-84309663D01*
X125086633Y-84378036D01*
X125086634Y-84378037D01*
X125102060Y-84401123D01*
X125109994Y-84406424D01*
X125154798Y-84460035D01*
X125165102Y-84509525D01*
X125165102Y-84829431D01*
X125165890Y-84837461D01*
X125165862Y-84900618D01*
X125146148Y-84967649D01*
X125093323Y-85013380D01*
X125041280Y-85024562D01*
X124973520Y-85024244D01*
X124906574Y-85004245D01*
X124885345Y-84986837D01*
X124601602Y-84696001D01*
X124511208Y-84696001D01*
X124476273Y-84690978D01*
X124423563Y-84675501D01*
X124279641Y-84675501D01*
X124226931Y-84690978D01*
X124191996Y-84696001D01*
X124078897Y-84696001D01*
X124011858Y-84676316D01*
X124002700Y-84669354D01*
X123811202Y-84492801D01*
X124522402Y-83730801D01*
X124974636Y-84102048D01*
G37*
%TD.AperFunction*%
%TD*%
%TA.AperFunction,Conductor*%
%TO.N,GND*%
G36*
X124834403Y-61843285D02*
G01*
X124880158Y-61896089D01*
X124890102Y-61965247D01*
X124878273Y-62003052D01*
X124781590Y-62196420D01*
X124734002Y-62247578D01*
X124732202Y-62248627D01*
X124454556Y-62407281D01*
X124386583Y-62423451D01*
X124358970Y-62418848D01*
X124143535Y-62357295D01*
X124084482Y-62319951D01*
X124054994Y-62256608D01*
X124053600Y-62238066D01*
X124053600Y-61947600D01*
X124073285Y-61880561D01*
X124126089Y-61834806D01*
X124177600Y-61823600D01*
X124767364Y-61823600D01*
X124834403Y-61843285D01*
G37*
%TD.AperFunction*%
%TD*%
%TA.AperFunction,Conductor*%
%TO.N,Net-(U3-in+1)*%
G36*
X117530436Y-87749900D02*
G01*
X120052002Y-88556801D01*
X121393244Y-88556801D01*
X121460283Y-88576486D01*
X121506038Y-88629290D01*
X121515982Y-88698448D01*
X121486957Y-88762004D01*
X121484110Y-88765177D01*
X120393596Y-89939577D01*
X120333555Y-89975309D01*
X120302730Y-89979201D01*
X115582164Y-89979201D01*
X115515125Y-89959516D01*
X115494483Y-89942882D01*
X115059121Y-89507520D01*
X115025636Y-89446197D01*
X115022802Y-89419839D01*
X115022802Y-88299584D01*
X115042487Y-88232545D01*
X115054634Y-88216632D01*
X115443059Y-87785049D01*
X115502537Y-87748388D01*
X115535227Y-87744001D01*
X117492644Y-87744001D01*
X117530436Y-87749900D01*
G37*
%TD.AperFunction*%
%TD*%
%TA.AperFunction,Conductor*%
%TO.N,Net-(U2-W)*%
G36*
X123901200Y-62839600D02*
G01*
X124561468Y-63652238D01*
X123681693Y-64385646D01*
X123617595Y-64413452D01*
X123602294Y-64414400D01*
X123097690Y-64414400D01*
X123030651Y-64394715D01*
X123000365Y-64367236D01*
X122463014Y-63686591D01*
X122436924Y-63621777D01*
X122450017Y-63553145D01*
X122498137Y-63502487D01*
X122566006Y-63485887D01*
X122575720Y-63486715D01*
X123088398Y-63550800D01*
X123088398Y-63550799D01*
X123088400Y-63550800D01*
X124077548Y-62675386D01*
X124081145Y-62673697D01*
X123901200Y-62839600D01*
G37*
%TD.AperFunction*%
%TD*%
%TA.AperFunction,Conductor*%
%TO.N,Net-(U3-in-1)*%
G36*
X123811202Y-87947201D02*
G01*
X124471470Y-88759839D01*
X123591695Y-89493247D01*
X123527597Y-89521053D01*
X123512296Y-89522001D01*
X123007692Y-89522001D01*
X122940653Y-89502316D01*
X122910367Y-89474837D01*
X122373016Y-88794192D01*
X122346926Y-88729378D01*
X122360019Y-88660746D01*
X122408139Y-88610088D01*
X122476008Y-88593488D01*
X122485722Y-88594316D01*
X122998400Y-88658401D01*
X122998400Y-88658400D01*
X122998402Y-88658401D01*
X123987550Y-87782987D01*
X123991147Y-87781298D01*
X123811202Y-87947201D01*
G37*
%TD.AperFunction*%
%TD*%
%TA.AperFunction,Conductor*%
%TO.N,Net-(U2-W)*%
G36*
X125198409Y-62327208D02*
G01*
X125244411Y-62379797D01*
X125255860Y-62431782D01*
X125255867Y-62447616D01*
X125242602Y-62492866D01*
X125244082Y-62493315D01*
X125236961Y-62516788D01*
X125236360Y-62522894D01*
X125220318Y-62603536D01*
X125220318Y-62603546D01*
X125217284Y-62618800D01*
X125220317Y-62634049D01*
X125222699Y-62658238D01*
X125222699Y-63042984D01*
X125203014Y-63110023D01*
X125178120Y-63138211D01*
X124601549Y-63619081D01*
X124600913Y-63619356D01*
X124561468Y-63652238D01*
X123901200Y-62839600D01*
X124081144Y-62673698D01*
X124140795Y-62645698D01*
X124194659Y-62649266D01*
X124329639Y-62688900D01*
X124473561Y-62688900D01*
X124611653Y-62648353D01*
X124611653Y-62648352D01*
X124628759Y-62643330D01*
X124629894Y-62647195D01*
X124666654Y-62636400D01*
X124691600Y-62636400D01*
X124723662Y-62603536D01*
X124975343Y-62345562D01*
X125036248Y-62311323D01*
X125063514Y-62308156D01*
X125131279Y-62307838D01*
X125198409Y-62327208D01*
G37*
%TD.AperFunction*%
%TD*%
%TA.AperFunction,Conductor*%
%TO.N,GND*%
G36*
X124744405Y-86950886D02*
G01*
X124790160Y-87003690D01*
X124800104Y-87072848D01*
X124788275Y-87110653D01*
X124691591Y-87304021D01*
X124691592Y-87304021D01*
X124644004Y-87355179D01*
X124642204Y-87356228D01*
X124364558Y-87514882D01*
X124296585Y-87531052D01*
X124268972Y-87526449D01*
X124053537Y-87464896D01*
X123994484Y-87427552D01*
X123964996Y-87364209D01*
X123963602Y-87345667D01*
X123963602Y-87055201D01*
X123983287Y-86988162D01*
X124036091Y-86942407D01*
X124087602Y-86931201D01*
X124677366Y-86931201D01*
X124744405Y-86950886D01*
G37*
%TD.AperFunction*%
%TD*%
%TA.AperFunction,Conductor*%
%TO.N,Net-(U2-V)*%
G36*
X122508236Y-59555246D02*
G01*
X123804185Y-60332125D01*
X123851561Y-60383475D01*
X123861592Y-60412115D01*
X123864002Y-60423192D01*
X123864368Y-60424732D01*
X123866478Y-60433350D01*
X123866489Y-60433372D01*
X123866490Y-60433373D01*
X123875254Y-60449820D01*
X123909499Y-60514085D01*
X123953999Y-60565441D01*
X123954020Y-60565464D01*
X123955255Y-60566889D01*
X123972846Y-60584843D01*
X123997145Y-60598435D01*
X124046043Y-60648343D01*
X124060197Y-60716764D01*
X124035113Y-60781975D01*
X123978755Y-60823273D01*
X123974285Y-60824793D01*
X123708934Y-60909415D01*
X123691645Y-60913590D01*
X123434884Y-60956384D01*
X123428602Y-60957431D01*
X123426376Y-60957975D01*
X123426357Y-60957979D01*
X123401088Y-60964156D01*
X123401075Y-60964159D01*
X123398844Y-60964705D01*
X123396654Y-60965416D01*
X123396633Y-60965423D01*
X123382657Y-60969968D01*
X123383513Y-60969687D01*
X123365980Y-60975391D01*
X123365957Y-60975399D01*
X123363781Y-60976107D01*
X123361679Y-60976968D01*
X123361648Y-60976980D01*
X123337568Y-60986851D01*
X123337546Y-60986860D01*
X123335426Y-60987730D01*
X123333371Y-60988757D01*
X123333350Y-60988767D01*
X123303970Y-61003457D01*
X123298298Y-61006087D01*
X123296404Y-61007240D01*
X123175619Y-61067633D01*
X123140672Y-61079016D01*
X122965500Y-61108392D01*
X122944992Y-61110100D01*
X121536000Y-61110100D01*
X121532701Y-61110454D01*
X121532695Y-61110455D01*
X121524501Y-61111336D01*
X121521220Y-61111689D01*
X121507966Y-61112400D01*
X119684800Y-61112400D01*
X117272581Y-62318509D01*
X117217128Y-62331600D01*
X115625225Y-62331600D01*
X115558186Y-62311915D01*
X115533059Y-62290554D01*
X115144630Y-61858967D01*
X115114416Y-61795969D01*
X115112800Y-61776016D01*
X115112800Y-60604962D01*
X115132485Y-60537923D01*
X115149119Y-60517281D01*
X115533681Y-60132719D01*
X115595004Y-60099234D01*
X115621362Y-60096400D01*
X117449599Y-60096400D01*
X117449600Y-60096400D01*
X119260688Y-59543012D01*
X119296923Y-59537600D01*
X122444480Y-59537600D01*
X122508236Y-59555246D01*
G37*
%TD.AperFunction*%
%TD*%
%TA.AperFunction,Conductor*%
%TO.N,GND*%
G36*
X124338839Y-84914062D02*
G01*
X124364558Y-84925119D01*
X124639515Y-85082237D01*
X124687955Y-85132589D01*
X124691307Y-85139538D01*
X124800508Y-85385240D01*
X124809747Y-85454496D01*
X124780077Y-85517753D01*
X124720918Y-85554927D01*
X124687195Y-85559601D01*
X124087602Y-85559601D01*
X124020563Y-85539916D01*
X123974808Y-85487112D01*
X123963602Y-85435601D01*
X123963602Y-85094334D01*
X123983287Y-85027295D01*
X124036091Y-84981540D01*
X124053533Y-84975106D01*
X124268973Y-84913552D01*
X124338839Y-84914062D01*
G37*
%TD.AperFunction*%
%TD*%
%TA.AperFunction,Conductor*%
%TO.N,Net-(U4-in+1)*%
G36*
X117620434Y-62642299D02*
G01*
X120142000Y-63449200D01*
X121483242Y-63449200D01*
X121550281Y-63468885D01*
X121596036Y-63521689D01*
X121605980Y-63590847D01*
X121576955Y-63654403D01*
X121574108Y-63657576D01*
X120483594Y-64831976D01*
X120423553Y-64867708D01*
X120392728Y-64871600D01*
X115672162Y-64871600D01*
X115605123Y-64851915D01*
X115584481Y-64835281D01*
X115149119Y-64399919D01*
X115115634Y-64338596D01*
X115112800Y-64312238D01*
X115112800Y-63191983D01*
X115132485Y-63124944D01*
X115144632Y-63109031D01*
X115533057Y-62677448D01*
X115592535Y-62640787D01*
X115625225Y-62636400D01*
X117582642Y-62636400D01*
X117620434Y-62642299D01*
G37*
%TD.AperFunction*%
%TD*%
%TA.AperFunction,Conductor*%
%TO.N,Net-(U3-in-2)*%
G36*
X123570172Y-82942686D02*
G01*
X123582258Y-82951495D01*
X124503890Y-83712457D01*
X124973238Y-84099984D01*
X124974633Y-84102045D01*
X124522402Y-83730801D01*
X123811202Y-84492801D01*
X124002700Y-84669354D01*
X123996319Y-84664504D01*
X123144475Y-83904057D01*
X123144473Y-83904057D01*
X123144472Y-83904056D01*
X122505841Y-83908314D01*
X122438671Y-83889077D01*
X122392566Y-83836579D01*
X122382161Y-83767489D01*
X122394754Y-83727583D01*
X122773541Y-82991426D01*
X122821717Y-82940821D01*
X122883590Y-82924160D01*
X123503101Y-82923114D01*
X123570172Y-82942686D01*
G37*
%TD.AperFunction*%
%TD*%
M02*
