%TF.GenerationSoftware,KiCad,Pcbnew,7.0.2*%
%TF.CreationDate,2023-05-16T16:20:19-04:00*%
%TF.ProjectId,mini_motor_go,6d696e69-5f6d-46f7-946f-725f676f2e6b,rev?*%
%TF.SameCoordinates,Original*%
%TF.FileFunction,Soldermask,Top*%
%TF.FilePolarity,Negative*%
%FSLAX46Y46*%
G04 Gerber Fmt 4.6, Leading zero omitted, Abs format (unit mm)*
G04 Created by KiCad (PCBNEW 7.0.2) date 2023-05-16 16:20:19*
%MOMM*%
%LPD*%
G01*
G04 APERTURE LIST*
G04 Aperture macros list*
%AMRoundRect*
0 Rectangle with rounded corners*
0 $1 Rounding radius*
0 $2 $3 $4 $5 $6 $7 $8 $9 X,Y pos of 4 corners*
0 Add a 4 corners polygon primitive as box body*
4,1,4,$2,$3,$4,$5,$6,$7,$8,$9,$2,$3,0*
0 Add four circle primitives for the rounded corners*
1,1,$1+$1,$2,$3*
1,1,$1+$1,$4,$5*
1,1,$1+$1,$6,$7*
1,1,$1+$1,$8,$9*
0 Add four rect primitives between the rounded corners*
20,1,$1+$1,$2,$3,$4,$5,0*
20,1,$1+$1,$4,$5,$6,$7,0*
20,1,$1+$1,$6,$7,$8,$9,0*
20,1,$1+$1,$8,$9,$2,$3,0*%
%AMRotRect*
0 Rectangle, with rotation*
0 The origin of the aperture is its center*
0 $1 length*
0 $2 width*
0 $3 Rotation angle, in degrees counterclockwise*
0 Add horizontal line*
21,1,$1,$2,0,0,$3*%
%AMFreePoly0*
4,1,14,0.289644,0.110355,0.410355,-0.010356,0.425000,-0.045711,0.425000,-0.075000,0.410355,-0.110355,0.375000,-0.125000,-0.375000,-0.125000,-0.410355,-0.110355,-0.425000,-0.075000,-0.425000,0.075000,-0.410355,0.110355,-0.375000,0.125000,0.254289,0.125000,0.289644,0.110355,0.289644,0.110355,$1*%
%AMFreePoly1*
4,1,14,0.410355,0.110355,0.425000,0.075000,0.425000,0.045711,0.410355,0.010356,0.289644,-0.110355,0.254289,-0.125000,-0.375000,-0.125000,-0.410355,-0.110355,-0.425000,-0.075000,-0.425000,0.075000,-0.410355,0.110355,-0.375000,0.125000,0.375000,0.125000,0.410355,0.110355,0.410355,0.110355,$1*%
%AMFreePoly2*
4,1,14,0.110355,0.410355,0.125000,0.375000,0.125000,-0.375000,0.110355,-0.410355,0.075000,-0.425000,-0.075000,-0.425000,-0.110355,-0.410355,-0.125000,-0.375000,-0.125000,0.254289,-0.110355,0.289644,0.010356,0.410355,0.045711,0.425000,0.075000,0.425000,0.110355,0.410355,0.110355,0.410355,$1*%
%AMFreePoly3*
4,1,14,-0.010356,0.410355,0.110355,0.289644,0.125000,0.254289,0.125000,-0.375000,0.110355,-0.410355,0.075000,-0.425000,-0.075000,-0.425000,-0.110355,-0.410355,-0.125000,-0.375000,-0.125000,0.375000,-0.110355,0.410355,-0.075000,0.425000,-0.045711,0.425000,-0.010356,0.410355,-0.010356,0.410355,$1*%
%AMFreePoly4*
4,1,14,0.410355,0.110355,0.425000,0.075000,0.425000,-0.075000,0.410355,-0.110355,0.375000,-0.125000,-0.254289,-0.125000,-0.289644,-0.110355,-0.410355,0.010356,-0.425000,0.045711,-0.425000,0.075000,-0.410355,0.110355,-0.375000,0.125000,0.375000,0.125000,0.410355,0.110355,0.410355,0.110355,$1*%
%AMFreePoly5*
4,1,14,0.410355,0.110355,0.425000,0.075000,0.425000,-0.075000,0.410355,-0.110355,0.375000,-0.125000,-0.375000,-0.125000,-0.410355,-0.110355,-0.425000,-0.075000,-0.425000,-0.045711,-0.410355,-0.010356,-0.289644,0.110355,-0.254289,0.125000,0.375000,0.125000,0.410355,0.110355,0.410355,0.110355,$1*%
%AMFreePoly6*
4,1,14,0.110355,0.410355,0.125000,0.375000,0.125000,-0.254289,0.110355,-0.289644,-0.010356,-0.410355,-0.045711,-0.425000,-0.075000,-0.425000,-0.110355,-0.410355,-0.125000,-0.375000,-0.125000,0.375000,-0.110355,0.410355,-0.075000,0.425000,0.075000,0.425000,0.110355,0.410355,0.110355,0.410355,$1*%
%AMFreePoly7*
4,1,14,0.110355,0.410355,0.125000,0.375000,0.125000,-0.375000,0.110355,-0.410355,0.075000,-0.425000,0.045711,-0.425000,0.010356,-0.410355,-0.110355,-0.289644,-0.125000,-0.254289,-0.125000,0.375000,-0.110355,0.410355,-0.075000,0.425000,0.075000,0.425000,0.110355,0.410355,0.110355,0.410355,$1*%
%AMFreePoly8*
4,1,9,3.862500,-0.866500,0.737500,-0.866500,0.737500,-0.450000,-0.737500,-0.450000,-0.737500,0.450000,0.737500,0.450000,0.737500,0.866500,3.862500,0.866500,3.862500,-0.866500,3.862500,-0.866500,$1*%
G04 Aperture macros list end*
%ADD10C,0.010000*%
%ADD11R,1.100000X1.000000*%
%ADD12FreePoly0,90.000000*%
%ADD13RoundRect,0.062500X0.062500X-0.362500X0.062500X0.362500X-0.062500X0.362500X-0.062500X-0.362500X0*%
%ADD14FreePoly1,90.000000*%
%ADD15FreePoly2,90.000000*%
%ADD16RoundRect,0.062500X0.362500X-0.062500X0.362500X0.062500X-0.362500X0.062500X-0.362500X-0.062500X0*%
%ADD17FreePoly3,90.000000*%
%ADD18FreePoly4,90.000000*%
%ADD19RoundRect,0.062500X0.062500X-0.350000X0.062500X0.350000X-0.062500X0.350000X-0.062500X-0.350000X0*%
%ADD20FreePoly5,90.000000*%
%ADD21FreePoly6,90.000000*%
%ADD22FreePoly7,90.000000*%
%ADD23R,1.700000X1.700000*%
%ADD24RoundRect,0.155000X0.040659X0.259862X-0.259862X-0.040659X-0.040659X-0.259862X0.259862X0.040659X0*%
%ADD25RoundRect,0.160000X-0.160000X0.197500X-0.160000X-0.197500X0.160000X-0.197500X0.160000X0.197500X0*%
%ADD26C,1.800860*%
%ADD27RotRect,1.000000X1.500000X45.000000*%
%ADD28RoundRect,0.030000X0.120000X-0.695000X0.120000X0.695000X-0.120000X0.695000X-0.120000X-0.695000X0*%
%ADD29RoundRect,0.160000X0.026517X0.252791X-0.252791X-0.026517X-0.026517X-0.252791X0.252791X0.026517X0*%
%ADD30RoundRect,0.250000X0.088388X-0.548008X0.548008X-0.088388X-0.088388X0.548008X-0.548008X0.088388X0*%
%ADD31RoundRect,0.160000X0.197500X0.160000X-0.197500X0.160000X-0.197500X-0.160000X0.197500X-0.160000X0*%
%ADD32RoundRect,0.160000X-0.197500X-0.160000X0.197500X-0.160000X0.197500X0.160000X-0.197500X0.160000X0*%
%ADD33RoundRect,0.155000X-0.212500X-0.155000X0.212500X-0.155000X0.212500X0.155000X-0.212500X0.155000X0*%
%ADD34R,2.800000X1.850000*%
%ADD35RoundRect,0.160000X0.160000X-0.197500X0.160000X0.197500X-0.160000X0.197500X-0.160000X-0.197500X0*%
%ADD36R,0.700000X1.000000*%
%ADD37RoundRect,0.155000X0.212500X0.155000X-0.212500X0.155000X-0.212500X-0.155000X0.212500X-0.155000X0*%
%ADD38RoundRect,0.160000X-0.026517X-0.252791X0.252791X0.026517X0.026517X0.252791X-0.252791X-0.026517X0*%
%ADD39R,1.500000X0.900000*%
%ADD40R,0.900000X1.500000*%
%ADD41R,0.900000X0.900000*%
%ADD42RoundRect,0.160000X-0.252791X0.026517X0.026517X-0.252791X0.252791X-0.026517X-0.026517X0.252791X0*%
%ADD43RoundRect,0.160000X0.252791X-0.026517X-0.026517X0.252791X-0.252791X0.026517X0.026517X-0.252791X0*%
%ADD44RoundRect,0.237500X0.380070X-0.044194X-0.044194X0.380070X-0.380070X0.044194X0.044194X-0.380070X0*%
%ADD45RoundRect,0.237500X-0.300000X-0.237500X0.300000X-0.237500X0.300000X0.237500X-0.300000X0.237500X0*%
%ADD46C,2.082800*%
%ADD47R,1.560000X0.650000*%
%ADD48R,0.600000X1.100000*%
%ADD49R,0.300000X1.100000*%
%ADD50RoundRect,0.155000X-0.155000X0.212500X-0.155000X-0.212500X0.155000X-0.212500X0.155000X0.212500X0*%
%ADD51R,1.600000X1.600000*%
%ADD52C,1.600000*%
%ADD53RoundRect,0.237500X0.300000X0.237500X-0.300000X0.237500X-0.300000X-0.237500X0.300000X-0.237500X0*%
%ADD54RoundRect,0.101600X-0.299720X-0.674370X0.299720X-0.674370X0.299720X0.674370X-0.299720X0.674370X0*%
%ADD55RoundRect,0.101600X-0.599440X-0.999490X0.599440X-0.999490X0.599440X0.999490X-0.599440X0.999490X0*%
%ADD56R,0.900000X1.300000*%
%ADD57FreePoly8,90.000000*%
%ADD58C,6.000000*%
%ADD59RoundRect,1.250000X1.250000X1.250000X-1.250000X1.250000X-1.250000X-1.250000X1.250000X-1.250000X0*%
G04 APERTURE END LIST*
%TO.C,J11*%
D10*
X158781000Y-89921000D02*
X158813000Y-89923000D01*
X158844000Y-89927000D01*
X158875000Y-89933000D01*
X158905000Y-89940000D01*
X158935000Y-89949000D01*
X158965000Y-89960000D01*
X158994000Y-89972000D01*
X159022000Y-89985000D01*
X159050000Y-90000000D01*
X159077000Y-90017000D01*
X159103000Y-90035000D01*
X159128000Y-90054000D01*
X159151000Y-90074000D01*
X159174000Y-90096000D01*
X159196000Y-90119000D01*
X159216000Y-90142000D01*
X159235000Y-90167000D01*
X159253000Y-90193000D01*
X159270000Y-90220000D01*
X159285000Y-90248000D01*
X159298000Y-90276000D01*
X159310000Y-90305000D01*
X159321000Y-90335000D01*
X159330000Y-90365000D01*
X159337000Y-90395000D01*
X159343000Y-90426000D01*
X159347000Y-90457000D01*
X159349000Y-90489000D01*
X159350000Y-90520000D01*
X159350000Y-91320000D01*
X159349000Y-91351000D01*
X159347000Y-91383000D01*
X159343000Y-91414000D01*
X159337000Y-91445000D01*
X159330000Y-91475000D01*
X159321000Y-91505000D01*
X159310000Y-91535000D01*
X159298000Y-91564000D01*
X159285000Y-91592000D01*
X159270000Y-91620000D01*
X159253000Y-91647000D01*
X159235000Y-91673000D01*
X159216000Y-91698000D01*
X159196000Y-91721000D01*
X159174000Y-91744000D01*
X159151000Y-91766000D01*
X159128000Y-91786000D01*
X159103000Y-91805000D01*
X159077000Y-91823000D01*
X159050000Y-91840000D01*
X159022000Y-91855000D01*
X158994000Y-91868000D01*
X158965000Y-91880000D01*
X158935000Y-91891000D01*
X158905000Y-91900000D01*
X158875000Y-91907000D01*
X158844000Y-91913000D01*
X158813000Y-91917000D01*
X158781000Y-91919000D01*
X158750000Y-91920000D01*
X158719000Y-91919000D01*
X158687000Y-91917000D01*
X158656000Y-91913000D01*
X158625000Y-91907000D01*
X158595000Y-91900000D01*
X158565000Y-91891000D01*
X158535000Y-91880000D01*
X158506000Y-91868000D01*
X158478000Y-91855000D01*
X158450000Y-91840000D01*
X158423000Y-91823000D01*
X158397000Y-91805000D01*
X158372000Y-91786000D01*
X158349000Y-91766000D01*
X158326000Y-91744000D01*
X158304000Y-91721000D01*
X158284000Y-91698000D01*
X158265000Y-91673000D01*
X158247000Y-91647000D01*
X158230000Y-91620000D01*
X158215000Y-91592000D01*
X158202000Y-91564000D01*
X158190000Y-91535000D01*
X158179000Y-91505000D01*
X158170000Y-91475000D01*
X158163000Y-91445000D01*
X158157000Y-91414000D01*
X158153000Y-91383000D01*
X158151000Y-91351000D01*
X158150000Y-91320000D01*
X158150000Y-90520000D01*
X158151000Y-90489000D01*
X158153000Y-90457000D01*
X158157000Y-90426000D01*
X158163000Y-90395000D01*
X158170000Y-90365000D01*
X158179000Y-90335000D01*
X158190000Y-90305000D01*
X158202000Y-90276000D01*
X158215000Y-90248000D01*
X158230000Y-90220000D01*
X158247000Y-90193000D01*
X158265000Y-90167000D01*
X158284000Y-90142000D01*
X158304000Y-90119000D01*
X158326000Y-90096000D01*
X158349000Y-90074000D01*
X158372000Y-90054000D01*
X158397000Y-90035000D01*
X158423000Y-90017000D01*
X158450000Y-90000000D01*
X158478000Y-89985000D01*
X158506000Y-89972000D01*
X158535000Y-89960000D01*
X158565000Y-89949000D01*
X158595000Y-89940000D01*
X158625000Y-89933000D01*
X158656000Y-89927000D01*
X158687000Y-89923000D01*
X158719000Y-89921000D01*
X158750000Y-89920000D01*
X158781000Y-89921000D01*
G36*
X158781000Y-89921000D02*
G01*
X158813000Y-89923000D01*
X158844000Y-89927000D01*
X158875000Y-89933000D01*
X158905000Y-89940000D01*
X158935000Y-89949000D01*
X158965000Y-89960000D01*
X158994000Y-89972000D01*
X159022000Y-89985000D01*
X159050000Y-90000000D01*
X159077000Y-90017000D01*
X159103000Y-90035000D01*
X159128000Y-90054000D01*
X159151000Y-90074000D01*
X159174000Y-90096000D01*
X159196000Y-90119000D01*
X159216000Y-90142000D01*
X159235000Y-90167000D01*
X159253000Y-90193000D01*
X159270000Y-90220000D01*
X159285000Y-90248000D01*
X159298000Y-90276000D01*
X159310000Y-90305000D01*
X159321000Y-90335000D01*
X159330000Y-90365000D01*
X159337000Y-90395000D01*
X159343000Y-90426000D01*
X159347000Y-90457000D01*
X159349000Y-90489000D01*
X159350000Y-90520000D01*
X159350000Y-91320000D01*
X159349000Y-91351000D01*
X159347000Y-91383000D01*
X159343000Y-91414000D01*
X159337000Y-91445000D01*
X159330000Y-91475000D01*
X159321000Y-91505000D01*
X159310000Y-91535000D01*
X159298000Y-91564000D01*
X159285000Y-91592000D01*
X159270000Y-91620000D01*
X159253000Y-91647000D01*
X159235000Y-91673000D01*
X159216000Y-91698000D01*
X159196000Y-91721000D01*
X159174000Y-91744000D01*
X159151000Y-91766000D01*
X159128000Y-91786000D01*
X159103000Y-91805000D01*
X159077000Y-91823000D01*
X159050000Y-91840000D01*
X159022000Y-91855000D01*
X158994000Y-91868000D01*
X158965000Y-91880000D01*
X158935000Y-91891000D01*
X158905000Y-91900000D01*
X158875000Y-91907000D01*
X158844000Y-91913000D01*
X158813000Y-91917000D01*
X158781000Y-91919000D01*
X158750000Y-91920000D01*
X158719000Y-91919000D01*
X158687000Y-91917000D01*
X158656000Y-91913000D01*
X158625000Y-91907000D01*
X158595000Y-91900000D01*
X158565000Y-91891000D01*
X158535000Y-91880000D01*
X158506000Y-91868000D01*
X158478000Y-91855000D01*
X158450000Y-91840000D01*
X158423000Y-91823000D01*
X158397000Y-91805000D01*
X158372000Y-91786000D01*
X158349000Y-91766000D01*
X158326000Y-91744000D01*
X158304000Y-91721000D01*
X158284000Y-91698000D01*
X158265000Y-91673000D01*
X158247000Y-91647000D01*
X158230000Y-91620000D01*
X158215000Y-91592000D01*
X158202000Y-91564000D01*
X158190000Y-91535000D01*
X158179000Y-91505000D01*
X158170000Y-91475000D01*
X158163000Y-91445000D01*
X158157000Y-91414000D01*
X158153000Y-91383000D01*
X158151000Y-91351000D01*
X158150000Y-91320000D01*
X158150000Y-90520000D01*
X158151000Y-90489000D01*
X158153000Y-90457000D01*
X158157000Y-90426000D01*
X158163000Y-90395000D01*
X158170000Y-90365000D01*
X158179000Y-90335000D01*
X158190000Y-90305000D01*
X158202000Y-90276000D01*
X158215000Y-90248000D01*
X158230000Y-90220000D01*
X158247000Y-90193000D01*
X158265000Y-90167000D01*
X158284000Y-90142000D01*
X158304000Y-90119000D01*
X158326000Y-90096000D01*
X158349000Y-90074000D01*
X158372000Y-90054000D01*
X158397000Y-90035000D01*
X158423000Y-90017000D01*
X158450000Y-90000000D01*
X158478000Y-89985000D01*
X158506000Y-89972000D01*
X158535000Y-89960000D01*
X158565000Y-89949000D01*
X158595000Y-89940000D01*
X158625000Y-89933000D01*
X158656000Y-89927000D01*
X158687000Y-89923000D01*
X158719000Y-89921000D01*
X158750000Y-89920000D01*
X158781000Y-89921000D01*
G37*
X158781000Y-93721000D02*
X158813000Y-93723000D01*
X158844000Y-93727000D01*
X158875000Y-93733000D01*
X158905000Y-93740000D01*
X158935000Y-93749000D01*
X158965000Y-93760000D01*
X158994000Y-93772000D01*
X159022000Y-93785000D01*
X159050000Y-93800000D01*
X159077000Y-93817000D01*
X159103000Y-93835000D01*
X159128000Y-93854000D01*
X159151000Y-93874000D01*
X159174000Y-93896000D01*
X159196000Y-93919000D01*
X159216000Y-93942000D01*
X159235000Y-93967000D01*
X159253000Y-93993000D01*
X159270000Y-94020000D01*
X159285000Y-94048000D01*
X159298000Y-94076000D01*
X159310000Y-94105000D01*
X159321000Y-94135000D01*
X159330000Y-94165000D01*
X159337000Y-94195000D01*
X159343000Y-94226000D01*
X159347000Y-94257000D01*
X159349000Y-94289000D01*
X159350000Y-94320000D01*
X159350000Y-95520000D01*
X159349000Y-95551000D01*
X159347000Y-95583000D01*
X159343000Y-95614000D01*
X159337000Y-95645000D01*
X159330000Y-95675000D01*
X159321000Y-95705000D01*
X159310000Y-95735000D01*
X159298000Y-95764000D01*
X159285000Y-95792000D01*
X159270000Y-95820000D01*
X159253000Y-95847000D01*
X159235000Y-95873000D01*
X159216000Y-95898000D01*
X159196000Y-95921000D01*
X159174000Y-95944000D01*
X159151000Y-95966000D01*
X159128000Y-95986000D01*
X159103000Y-96005000D01*
X159077000Y-96023000D01*
X159050000Y-96040000D01*
X159022000Y-96055000D01*
X158994000Y-96068000D01*
X158965000Y-96080000D01*
X158935000Y-96091000D01*
X158905000Y-96100000D01*
X158875000Y-96107000D01*
X158844000Y-96113000D01*
X158813000Y-96117000D01*
X158781000Y-96119000D01*
X158750000Y-96120000D01*
X158719000Y-96119000D01*
X158687000Y-96117000D01*
X158656000Y-96113000D01*
X158625000Y-96107000D01*
X158595000Y-96100000D01*
X158565000Y-96091000D01*
X158535000Y-96080000D01*
X158506000Y-96068000D01*
X158478000Y-96055000D01*
X158450000Y-96040000D01*
X158423000Y-96023000D01*
X158397000Y-96005000D01*
X158372000Y-95986000D01*
X158349000Y-95966000D01*
X158326000Y-95944000D01*
X158304000Y-95921000D01*
X158284000Y-95898000D01*
X158265000Y-95873000D01*
X158247000Y-95847000D01*
X158230000Y-95820000D01*
X158215000Y-95792000D01*
X158202000Y-95764000D01*
X158190000Y-95735000D01*
X158179000Y-95705000D01*
X158170000Y-95675000D01*
X158163000Y-95645000D01*
X158157000Y-95614000D01*
X158153000Y-95583000D01*
X158151000Y-95551000D01*
X158150000Y-95520000D01*
X158150000Y-94320000D01*
X158151000Y-94289000D01*
X158153000Y-94257000D01*
X158157000Y-94226000D01*
X158163000Y-94195000D01*
X158170000Y-94165000D01*
X158179000Y-94135000D01*
X158190000Y-94105000D01*
X158202000Y-94076000D01*
X158215000Y-94048000D01*
X158230000Y-94020000D01*
X158247000Y-93993000D01*
X158265000Y-93967000D01*
X158284000Y-93942000D01*
X158304000Y-93919000D01*
X158326000Y-93896000D01*
X158349000Y-93874000D01*
X158372000Y-93854000D01*
X158397000Y-93835000D01*
X158423000Y-93817000D01*
X158450000Y-93800000D01*
X158478000Y-93785000D01*
X158506000Y-93772000D01*
X158535000Y-93760000D01*
X158565000Y-93749000D01*
X158595000Y-93740000D01*
X158625000Y-93733000D01*
X158656000Y-93727000D01*
X158687000Y-93723000D01*
X158719000Y-93721000D01*
X158750000Y-93720000D01*
X158781000Y-93721000D01*
G36*
X158781000Y-93721000D02*
G01*
X158813000Y-93723000D01*
X158844000Y-93727000D01*
X158875000Y-93733000D01*
X158905000Y-93740000D01*
X158935000Y-93749000D01*
X158965000Y-93760000D01*
X158994000Y-93772000D01*
X159022000Y-93785000D01*
X159050000Y-93800000D01*
X159077000Y-93817000D01*
X159103000Y-93835000D01*
X159128000Y-93854000D01*
X159151000Y-93874000D01*
X159174000Y-93896000D01*
X159196000Y-93919000D01*
X159216000Y-93942000D01*
X159235000Y-93967000D01*
X159253000Y-93993000D01*
X159270000Y-94020000D01*
X159285000Y-94048000D01*
X159298000Y-94076000D01*
X159310000Y-94105000D01*
X159321000Y-94135000D01*
X159330000Y-94165000D01*
X159337000Y-94195000D01*
X159343000Y-94226000D01*
X159347000Y-94257000D01*
X159349000Y-94289000D01*
X159350000Y-94320000D01*
X159350000Y-95520000D01*
X159349000Y-95551000D01*
X159347000Y-95583000D01*
X159343000Y-95614000D01*
X159337000Y-95645000D01*
X159330000Y-95675000D01*
X159321000Y-95705000D01*
X159310000Y-95735000D01*
X159298000Y-95764000D01*
X159285000Y-95792000D01*
X159270000Y-95820000D01*
X159253000Y-95847000D01*
X159235000Y-95873000D01*
X159216000Y-95898000D01*
X159196000Y-95921000D01*
X159174000Y-95944000D01*
X159151000Y-95966000D01*
X159128000Y-95986000D01*
X159103000Y-96005000D01*
X159077000Y-96023000D01*
X159050000Y-96040000D01*
X159022000Y-96055000D01*
X158994000Y-96068000D01*
X158965000Y-96080000D01*
X158935000Y-96091000D01*
X158905000Y-96100000D01*
X158875000Y-96107000D01*
X158844000Y-96113000D01*
X158813000Y-96117000D01*
X158781000Y-96119000D01*
X158750000Y-96120000D01*
X158719000Y-96119000D01*
X158687000Y-96117000D01*
X158656000Y-96113000D01*
X158625000Y-96107000D01*
X158595000Y-96100000D01*
X158565000Y-96091000D01*
X158535000Y-96080000D01*
X158506000Y-96068000D01*
X158478000Y-96055000D01*
X158450000Y-96040000D01*
X158423000Y-96023000D01*
X158397000Y-96005000D01*
X158372000Y-95986000D01*
X158349000Y-95966000D01*
X158326000Y-95944000D01*
X158304000Y-95921000D01*
X158284000Y-95898000D01*
X158265000Y-95873000D01*
X158247000Y-95847000D01*
X158230000Y-95820000D01*
X158215000Y-95792000D01*
X158202000Y-95764000D01*
X158190000Y-95735000D01*
X158179000Y-95705000D01*
X158170000Y-95675000D01*
X158163000Y-95645000D01*
X158157000Y-95614000D01*
X158153000Y-95583000D01*
X158151000Y-95551000D01*
X158150000Y-95520000D01*
X158150000Y-94320000D01*
X158151000Y-94289000D01*
X158153000Y-94257000D01*
X158157000Y-94226000D01*
X158163000Y-94195000D01*
X158170000Y-94165000D01*
X158179000Y-94135000D01*
X158190000Y-94105000D01*
X158202000Y-94076000D01*
X158215000Y-94048000D01*
X158230000Y-94020000D01*
X158247000Y-93993000D01*
X158265000Y-93967000D01*
X158284000Y-93942000D01*
X158304000Y-93919000D01*
X158326000Y-93896000D01*
X158349000Y-93874000D01*
X158372000Y-93854000D01*
X158397000Y-93835000D01*
X158423000Y-93817000D01*
X158450000Y-93800000D01*
X158478000Y-93785000D01*
X158506000Y-93772000D01*
X158535000Y-93760000D01*
X158565000Y-93749000D01*
X158595000Y-93740000D01*
X158625000Y-93733000D01*
X158656000Y-93727000D01*
X158687000Y-93723000D01*
X158719000Y-93721000D01*
X158750000Y-93720000D01*
X158781000Y-93721000D01*
G37*
X170021000Y-89921000D02*
X170053000Y-89923000D01*
X170084000Y-89927000D01*
X170115000Y-89933000D01*
X170145000Y-89940000D01*
X170175000Y-89949000D01*
X170205000Y-89960000D01*
X170234000Y-89972000D01*
X170262000Y-89985000D01*
X170290000Y-90000000D01*
X170317000Y-90017000D01*
X170343000Y-90035000D01*
X170368000Y-90054000D01*
X170391000Y-90074000D01*
X170414000Y-90096000D01*
X170436000Y-90119000D01*
X170456000Y-90142000D01*
X170475000Y-90167000D01*
X170493000Y-90193000D01*
X170510000Y-90220000D01*
X170525000Y-90248000D01*
X170538000Y-90276000D01*
X170550000Y-90305000D01*
X170561000Y-90335000D01*
X170570000Y-90365000D01*
X170577000Y-90395000D01*
X170583000Y-90426000D01*
X170587000Y-90457000D01*
X170589000Y-90489000D01*
X170590000Y-90520000D01*
X170590000Y-91320000D01*
X170589000Y-91351000D01*
X170587000Y-91383000D01*
X170583000Y-91414000D01*
X170577000Y-91445000D01*
X170570000Y-91475000D01*
X170561000Y-91505000D01*
X170550000Y-91535000D01*
X170538000Y-91564000D01*
X170525000Y-91592000D01*
X170510000Y-91620000D01*
X170493000Y-91647000D01*
X170475000Y-91673000D01*
X170456000Y-91698000D01*
X170436000Y-91721000D01*
X170414000Y-91744000D01*
X170391000Y-91766000D01*
X170368000Y-91786000D01*
X170343000Y-91805000D01*
X170317000Y-91823000D01*
X170290000Y-91840000D01*
X170262000Y-91855000D01*
X170234000Y-91868000D01*
X170205000Y-91880000D01*
X170175000Y-91891000D01*
X170145000Y-91900000D01*
X170115000Y-91907000D01*
X170084000Y-91913000D01*
X170053000Y-91917000D01*
X170021000Y-91919000D01*
X169990000Y-91920000D01*
X169959000Y-91919000D01*
X169927000Y-91917000D01*
X169896000Y-91913000D01*
X169865000Y-91907000D01*
X169835000Y-91900000D01*
X169805000Y-91891000D01*
X169775000Y-91880000D01*
X169746000Y-91868000D01*
X169718000Y-91855000D01*
X169690000Y-91840000D01*
X169663000Y-91823000D01*
X169637000Y-91805000D01*
X169612000Y-91786000D01*
X169589000Y-91766000D01*
X169566000Y-91744000D01*
X169544000Y-91721000D01*
X169524000Y-91698000D01*
X169505000Y-91673000D01*
X169487000Y-91647000D01*
X169470000Y-91620000D01*
X169455000Y-91592000D01*
X169442000Y-91564000D01*
X169430000Y-91535000D01*
X169419000Y-91505000D01*
X169410000Y-91475000D01*
X169403000Y-91445000D01*
X169397000Y-91414000D01*
X169393000Y-91383000D01*
X169391000Y-91351000D01*
X169390000Y-91320000D01*
X169390000Y-90520000D01*
X169391000Y-90489000D01*
X169393000Y-90457000D01*
X169397000Y-90426000D01*
X169403000Y-90395000D01*
X169410000Y-90365000D01*
X169419000Y-90335000D01*
X169430000Y-90305000D01*
X169442000Y-90276000D01*
X169455000Y-90248000D01*
X169470000Y-90220000D01*
X169487000Y-90193000D01*
X169505000Y-90167000D01*
X169524000Y-90142000D01*
X169544000Y-90119000D01*
X169566000Y-90096000D01*
X169589000Y-90074000D01*
X169612000Y-90054000D01*
X169637000Y-90035000D01*
X169663000Y-90017000D01*
X169690000Y-90000000D01*
X169718000Y-89985000D01*
X169746000Y-89972000D01*
X169775000Y-89960000D01*
X169805000Y-89949000D01*
X169835000Y-89940000D01*
X169865000Y-89933000D01*
X169896000Y-89927000D01*
X169927000Y-89923000D01*
X169959000Y-89921000D01*
X169990000Y-89920000D01*
X170021000Y-89921000D01*
G36*
X170021000Y-89921000D02*
G01*
X170053000Y-89923000D01*
X170084000Y-89927000D01*
X170115000Y-89933000D01*
X170145000Y-89940000D01*
X170175000Y-89949000D01*
X170205000Y-89960000D01*
X170234000Y-89972000D01*
X170262000Y-89985000D01*
X170290000Y-90000000D01*
X170317000Y-90017000D01*
X170343000Y-90035000D01*
X170368000Y-90054000D01*
X170391000Y-90074000D01*
X170414000Y-90096000D01*
X170436000Y-90119000D01*
X170456000Y-90142000D01*
X170475000Y-90167000D01*
X170493000Y-90193000D01*
X170510000Y-90220000D01*
X170525000Y-90248000D01*
X170538000Y-90276000D01*
X170550000Y-90305000D01*
X170561000Y-90335000D01*
X170570000Y-90365000D01*
X170577000Y-90395000D01*
X170583000Y-90426000D01*
X170587000Y-90457000D01*
X170589000Y-90489000D01*
X170590000Y-90520000D01*
X170590000Y-91320000D01*
X170589000Y-91351000D01*
X170587000Y-91383000D01*
X170583000Y-91414000D01*
X170577000Y-91445000D01*
X170570000Y-91475000D01*
X170561000Y-91505000D01*
X170550000Y-91535000D01*
X170538000Y-91564000D01*
X170525000Y-91592000D01*
X170510000Y-91620000D01*
X170493000Y-91647000D01*
X170475000Y-91673000D01*
X170456000Y-91698000D01*
X170436000Y-91721000D01*
X170414000Y-91744000D01*
X170391000Y-91766000D01*
X170368000Y-91786000D01*
X170343000Y-91805000D01*
X170317000Y-91823000D01*
X170290000Y-91840000D01*
X170262000Y-91855000D01*
X170234000Y-91868000D01*
X170205000Y-91880000D01*
X170175000Y-91891000D01*
X170145000Y-91900000D01*
X170115000Y-91907000D01*
X170084000Y-91913000D01*
X170053000Y-91917000D01*
X170021000Y-91919000D01*
X169990000Y-91920000D01*
X169959000Y-91919000D01*
X169927000Y-91917000D01*
X169896000Y-91913000D01*
X169865000Y-91907000D01*
X169835000Y-91900000D01*
X169805000Y-91891000D01*
X169775000Y-91880000D01*
X169746000Y-91868000D01*
X169718000Y-91855000D01*
X169690000Y-91840000D01*
X169663000Y-91823000D01*
X169637000Y-91805000D01*
X169612000Y-91786000D01*
X169589000Y-91766000D01*
X169566000Y-91744000D01*
X169544000Y-91721000D01*
X169524000Y-91698000D01*
X169505000Y-91673000D01*
X169487000Y-91647000D01*
X169470000Y-91620000D01*
X169455000Y-91592000D01*
X169442000Y-91564000D01*
X169430000Y-91535000D01*
X169419000Y-91505000D01*
X169410000Y-91475000D01*
X169403000Y-91445000D01*
X169397000Y-91414000D01*
X169393000Y-91383000D01*
X169391000Y-91351000D01*
X169390000Y-91320000D01*
X169390000Y-90520000D01*
X169391000Y-90489000D01*
X169393000Y-90457000D01*
X169397000Y-90426000D01*
X169403000Y-90395000D01*
X169410000Y-90365000D01*
X169419000Y-90335000D01*
X169430000Y-90305000D01*
X169442000Y-90276000D01*
X169455000Y-90248000D01*
X169470000Y-90220000D01*
X169487000Y-90193000D01*
X169505000Y-90167000D01*
X169524000Y-90142000D01*
X169544000Y-90119000D01*
X169566000Y-90096000D01*
X169589000Y-90074000D01*
X169612000Y-90054000D01*
X169637000Y-90035000D01*
X169663000Y-90017000D01*
X169690000Y-90000000D01*
X169718000Y-89985000D01*
X169746000Y-89972000D01*
X169775000Y-89960000D01*
X169805000Y-89949000D01*
X169835000Y-89940000D01*
X169865000Y-89933000D01*
X169896000Y-89927000D01*
X169927000Y-89923000D01*
X169959000Y-89921000D01*
X169990000Y-89920000D01*
X170021000Y-89921000D01*
G37*
X170021000Y-93721000D02*
X170053000Y-93723000D01*
X170084000Y-93727000D01*
X170115000Y-93733000D01*
X170145000Y-93740000D01*
X170175000Y-93749000D01*
X170205000Y-93760000D01*
X170234000Y-93772000D01*
X170262000Y-93785000D01*
X170290000Y-93800000D01*
X170317000Y-93817000D01*
X170343000Y-93835000D01*
X170368000Y-93854000D01*
X170391000Y-93874000D01*
X170414000Y-93896000D01*
X170436000Y-93919000D01*
X170456000Y-93942000D01*
X170475000Y-93967000D01*
X170493000Y-93993000D01*
X170510000Y-94020000D01*
X170525000Y-94048000D01*
X170538000Y-94076000D01*
X170550000Y-94105000D01*
X170561000Y-94135000D01*
X170570000Y-94165000D01*
X170577000Y-94195000D01*
X170583000Y-94226000D01*
X170587000Y-94257000D01*
X170589000Y-94289000D01*
X170590000Y-94320000D01*
X170590000Y-94920000D01*
X170590000Y-95520000D01*
X170589000Y-95551000D01*
X170587000Y-95583000D01*
X170583000Y-95614000D01*
X170577000Y-95645000D01*
X170570000Y-95675000D01*
X170561000Y-95705000D01*
X170550000Y-95735000D01*
X170538000Y-95764000D01*
X170525000Y-95792000D01*
X170510000Y-95820000D01*
X170493000Y-95847000D01*
X170475000Y-95873000D01*
X170456000Y-95898000D01*
X170436000Y-95921000D01*
X170414000Y-95944000D01*
X170391000Y-95966000D01*
X170368000Y-95986000D01*
X170343000Y-96005000D01*
X170317000Y-96023000D01*
X170290000Y-96040000D01*
X170262000Y-96055000D01*
X170234000Y-96068000D01*
X170205000Y-96080000D01*
X170175000Y-96091000D01*
X170145000Y-96100000D01*
X170115000Y-96107000D01*
X170084000Y-96113000D01*
X170053000Y-96117000D01*
X170021000Y-96119000D01*
X169990000Y-96120000D01*
X169959000Y-96119000D01*
X169927000Y-96117000D01*
X169896000Y-96113000D01*
X169865000Y-96107000D01*
X169835000Y-96100000D01*
X169805000Y-96091000D01*
X169775000Y-96080000D01*
X169746000Y-96068000D01*
X169718000Y-96055000D01*
X169690000Y-96040000D01*
X169663000Y-96023000D01*
X169637000Y-96005000D01*
X169612000Y-95986000D01*
X169589000Y-95966000D01*
X169566000Y-95944000D01*
X169544000Y-95921000D01*
X169524000Y-95898000D01*
X169505000Y-95873000D01*
X169487000Y-95847000D01*
X169470000Y-95820000D01*
X169455000Y-95792000D01*
X169442000Y-95764000D01*
X169430000Y-95735000D01*
X169419000Y-95705000D01*
X169410000Y-95675000D01*
X169403000Y-95645000D01*
X169397000Y-95614000D01*
X169393000Y-95583000D01*
X169391000Y-95551000D01*
X169390000Y-95520000D01*
X169390000Y-94920000D01*
X169390000Y-94320000D01*
X169391000Y-94289000D01*
X169393000Y-94257000D01*
X169397000Y-94226000D01*
X169403000Y-94195000D01*
X169410000Y-94165000D01*
X169419000Y-94135000D01*
X169430000Y-94105000D01*
X169442000Y-94076000D01*
X169455000Y-94048000D01*
X169470000Y-94020000D01*
X169487000Y-93993000D01*
X169505000Y-93967000D01*
X169524000Y-93942000D01*
X169544000Y-93919000D01*
X169566000Y-93896000D01*
X169589000Y-93874000D01*
X169612000Y-93854000D01*
X169637000Y-93835000D01*
X169663000Y-93817000D01*
X169690000Y-93800000D01*
X169718000Y-93785000D01*
X169746000Y-93772000D01*
X169775000Y-93760000D01*
X169805000Y-93749000D01*
X169835000Y-93740000D01*
X169865000Y-93733000D01*
X169896000Y-93727000D01*
X169927000Y-93723000D01*
X169959000Y-93721000D01*
X169990000Y-93720000D01*
X170021000Y-93721000D01*
G36*
X170021000Y-93721000D02*
G01*
X170053000Y-93723000D01*
X170084000Y-93727000D01*
X170115000Y-93733000D01*
X170145000Y-93740000D01*
X170175000Y-93749000D01*
X170205000Y-93760000D01*
X170234000Y-93772000D01*
X170262000Y-93785000D01*
X170290000Y-93800000D01*
X170317000Y-93817000D01*
X170343000Y-93835000D01*
X170368000Y-93854000D01*
X170391000Y-93874000D01*
X170414000Y-93896000D01*
X170436000Y-93919000D01*
X170456000Y-93942000D01*
X170475000Y-93967000D01*
X170493000Y-93993000D01*
X170510000Y-94020000D01*
X170525000Y-94048000D01*
X170538000Y-94076000D01*
X170550000Y-94105000D01*
X170561000Y-94135000D01*
X170570000Y-94165000D01*
X170577000Y-94195000D01*
X170583000Y-94226000D01*
X170587000Y-94257000D01*
X170589000Y-94289000D01*
X170590000Y-94320000D01*
X170590000Y-94920000D01*
X170590000Y-95520000D01*
X170589000Y-95551000D01*
X170587000Y-95583000D01*
X170583000Y-95614000D01*
X170577000Y-95645000D01*
X170570000Y-95675000D01*
X170561000Y-95705000D01*
X170550000Y-95735000D01*
X170538000Y-95764000D01*
X170525000Y-95792000D01*
X170510000Y-95820000D01*
X170493000Y-95847000D01*
X170475000Y-95873000D01*
X170456000Y-95898000D01*
X170436000Y-95921000D01*
X170414000Y-95944000D01*
X170391000Y-95966000D01*
X170368000Y-95986000D01*
X170343000Y-96005000D01*
X170317000Y-96023000D01*
X170290000Y-96040000D01*
X170262000Y-96055000D01*
X170234000Y-96068000D01*
X170205000Y-96080000D01*
X170175000Y-96091000D01*
X170145000Y-96100000D01*
X170115000Y-96107000D01*
X170084000Y-96113000D01*
X170053000Y-96117000D01*
X170021000Y-96119000D01*
X169990000Y-96120000D01*
X169959000Y-96119000D01*
X169927000Y-96117000D01*
X169896000Y-96113000D01*
X169865000Y-96107000D01*
X169835000Y-96100000D01*
X169805000Y-96091000D01*
X169775000Y-96080000D01*
X169746000Y-96068000D01*
X169718000Y-96055000D01*
X169690000Y-96040000D01*
X169663000Y-96023000D01*
X169637000Y-96005000D01*
X169612000Y-95986000D01*
X169589000Y-95966000D01*
X169566000Y-95944000D01*
X169544000Y-95921000D01*
X169524000Y-95898000D01*
X169505000Y-95873000D01*
X169487000Y-95847000D01*
X169470000Y-95820000D01*
X169455000Y-95792000D01*
X169442000Y-95764000D01*
X169430000Y-95735000D01*
X169419000Y-95705000D01*
X169410000Y-95675000D01*
X169403000Y-95645000D01*
X169397000Y-95614000D01*
X169393000Y-95583000D01*
X169391000Y-95551000D01*
X169390000Y-95520000D01*
X169390000Y-94920000D01*
X169390000Y-94320000D01*
X169391000Y-94289000D01*
X169393000Y-94257000D01*
X169397000Y-94226000D01*
X169403000Y-94195000D01*
X169410000Y-94165000D01*
X169419000Y-94135000D01*
X169430000Y-94105000D01*
X169442000Y-94076000D01*
X169455000Y-94048000D01*
X169470000Y-94020000D01*
X169487000Y-93993000D01*
X169505000Y-93967000D01*
X169524000Y-93942000D01*
X169544000Y-93919000D01*
X169566000Y-93896000D01*
X169589000Y-93874000D01*
X169612000Y-93854000D01*
X169637000Y-93835000D01*
X169663000Y-93817000D01*
X169690000Y-93800000D01*
X169718000Y-93785000D01*
X169746000Y-93772000D01*
X169775000Y-93760000D01*
X169805000Y-93749000D01*
X169835000Y-93740000D01*
X169865000Y-93733000D01*
X169896000Y-93727000D01*
X169927000Y-93723000D01*
X169959000Y-93721000D01*
X169990000Y-93720000D01*
X170021000Y-93721000D01*
G37*
%TD*%
D11*
%TO.C,R1*%
X122602301Y-89038832D03*
X121302301Y-89038832D03*
%TD*%
%TO.C,R2*%
X122616183Y-83423249D03*
X121316183Y-83423249D03*
%TD*%
%TO.C,R15*%
X122692299Y-63932415D03*
X121392299Y-63932415D03*
%TD*%
%TO.C,R16*%
X122707923Y-58313966D03*
X121407923Y-58313966D03*
%TD*%
D12*
%TO.C,U5*%
X125039938Y-87694093D03*
D13*
X125439938Y-87694093D03*
X125839938Y-87694093D03*
X126239938Y-87694093D03*
D14*
X126639938Y-87694093D03*
D15*
X127289938Y-87044093D03*
D16*
X127289938Y-86644093D03*
X127289938Y-86244093D03*
X127289938Y-85844093D03*
D17*
X127289938Y-85444093D03*
D18*
X126639938Y-84794093D03*
D13*
X126239938Y-84794093D03*
D19*
X125839938Y-84806593D03*
D13*
X125439938Y-84794093D03*
D20*
X125039938Y-84794093D03*
D21*
X124389938Y-85444093D03*
D16*
X124389938Y-85844093D03*
X124389938Y-86244093D03*
X124389938Y-86644093D03*
D22*
X124389938Y-87044093D03*
D23*
X125839938Y-86244093D03*
%TD*%
D12*
%TO.C,U2*%
X125131600Y-62586400D03*
D13*
X125531600Y-62586400D03*
X125931600Y-62586400D03*
X126331600Y-62586400D03*
D14*
X126731600Y-62586400D03*
D15*
X127381600Y-61936400D03*
D16*
X127381600Y-61536400D03*
X127381600Y-61136400D03*
X127381600Y-60736400D03*
D17*
X127381600Y-60336400D03*
D18*
X126731600Y-59686400D03*
D13*
X126331600Y-59686400D03*
D19*
X125931600Y-59698900D03*
D13*
X125531600Y-59686400D03*
D20*
X125131600Y-59686400D03*
D21*
X124481600Y-60336400D03*
D16*
X124481600Y-60736400D03*
X124481600Y-61136400D03*
X124481600Y-61536400D03*
D22*
X124481600Y-61936400D03*
D23*
X125931600Y-61136400D03*
%TD*%
D24*
%TO.C,C2*%
X125104280Y-89164457D03*
X124301714Y-89967023D03*
%TD*%
D25*
%TO.C,R14*%
X153416000Y-63246000D03*
X153416000Y-64441000D03*
%TD*%
D26*
%TO.C,J4*%
X117019000Y-80010000D03*
X119017980Y-80010000D03*
X121016960Y-80010000D03*
X123015940Y-80010000D03*
X125014920Y-80010000D03*
%TD*%
D27*
%TO.C,JP1*%
X150316269Y-83476012D03*
X151235507Y-82556774D03*
%TD*%
D28*
%TO.C,U4*%
X130070599Y-63370400D03*
X130570599Y-63370400D03*
X131070599Y-63370400D03*
X131570599Y-63370400D03*
X131570599Y-58970400D03*
X131070599Y-58970400D03*
X130570599Y-58970400D03*
X130070599Y-58970400D03*
X129570599Y-58970400D03*
%TD*%
D29*
%TO.C,R7*%
X135233210Y-65934790D03*
X134388218Y-66779782D03*
%TD*%
D30*
%TO.C,<-3V3*%
X144001476Y-81810181D03*
X145451044Y-80360613D03*
%TD*%
%TO.C,<-Io8*%
X147614454Y-86368783D03*
X149064022Y-84919215D03*
%TD*%
D28*
%TO.C,U3*%
X129979524Y-88476458D03*
X130479524Y-88476458D03*
X130979524Y-88476458D03*
X131479524Y-88476458D03*
X131479524Y-84076458D03*
X130979524Y-84076458D03*
X130479524Y-84076458D03*
X129979524Y-84076458D03*
X129479524Y-84076458D03*
%TD*%
D31*
%TO.C,R25*%
X173781468Y-82714817D03*
X172586468Y-82714817D03*
%TD*%
D32*
%TO.C,R17*%
X146242500Y-64472000D03*
X147437500Y-64472000D03*
%TD*%
D31*
%TO.C,R33*%
X144925100Y-85160104D03*
X143730100Y-85160104D03*
%TD*%
D33*
%TO.C,C6*%
X120616900Y-62664000D03*
X121751900Y-62664000D03*
%TD*%
D34*
%TO.C,L1*%
X149098000Y-67883000D03*
X149098000Y-70183000D03*
%TD*%
D31*
%TO.C,R22*%
X144932658Y-86282843D03*
X143737658Y-86282843D03*
%TD*%
D29*
%TO.C,R5*%
X133634815Y-64739185D03*
X132789823Y-65584177D03*
%TD*%
D31*
%TO.C,R24*%
X170642456Y-87745727D03*
X169447456Y-87745727D03*
%TD*%
D27*
%TO.C,JP3*%
X146751784Y-78939106D03*
X147671022Y-78019868D03*
%TD*%
D35*
%TO.C,R19*%
X141485388Y-68458015D03*
X141485388Y-67263015D03*
%TD*%
D33*
%TO.C,C13*%
X146296573Y-63398198D03*
X147431573Y-63398198D03*
%TD*%
D36*
%TO.C,J7*%
X173084000Y-94138000D03*
X173084000Y-88138000D03*
X176784000Y-94138000D03*
X176784000Y-88138000D03*
%TD*%
D37*
%TO.C,C5*%
X121749900Y-61643600D03*
X120614900Y-61643600D03*
%TD*%
D38*
%TO.C,R9*%
X130779185Y-67594815D03*
X131624177Y-66749823D03*
%TD*%
D39*
%TO.C,U1*%
X158890000Y-59260000D03*
X158890000Y-60530000D03*
X158890000Y-61800000D03*
X158890000Y-63070000D03*
X158890000Y-64340000D03*
X158890000Y-65610000D03*
X158890000Y-66880000D03*
X158890000Y-68150000D03*
X158890000Y-69420000D03*
X158890000Y-70690000D03*
X158890000Y-71960000D03*
X158890000Y-73230000D03*
X158890000Y-74500000D03*
X158890000Y-75770000D03*
D40*
X160655000Y-77020000D03*
X161925000Y-77020000D03*
X163195000Y-77020000D03*
X164465000Y-77020000D03*
X165735000Y-77020000D03*
X167005000Y-77020000D03*
X168275000Y-77020000D03*
X169545000Y-77020000D03*
X170815000Y-77020000D03*
X172085000Y-77020000D03*
X173355000Y-77020000D03*
X174625000Y-77020000D03*
D39*
X176390000Y-75770000D03*
X176390000Y-74500000D03*
X176390000Y-73230000D03*
X176390000Y-71960000D03*
X176390000Y-70690000D03*
X176390000Y-69420000D03*
X176390000Y-68150000D03*
X176390000Y-66880000D03*
X176390000Y-65610000D03*
X176390000Y-64340000D03*
X176390000Y-63070000D03*
X176390000Y-61800000D03*
X176390000Y-60530000D03*
X176390000Y-59260000D03*
D41*
X164740000Y-65580000D03*
X164740000Y-66980000D03*
X164740000Y-68380000D03*
X166140000Y-65580000D03*
X166140000Y-66980000D03*
X166140000Y-68380000D03*
X167540000Y-65580000D03*
X167540000Y-66980000D03*
X167540000Y-68380000D03*
%TD*%
D25*
%TO.C,R10*%
X155194000Y-62738000D03*
X155194000Y-63933000D03*
%TD*%
D32*
%TO.C,R23*%
X158335161Y-87723495D03*
X159530161Y-87723495D03*
%TD*%
D42*
%TO.C,R11*%
X145437646Y-72329225D03*
X146282638Y-73174217D03*
%TD*%
D43*
%TO.C,R3*%
X147529735Y-75735409D03*
X146684743Y-74890417D03*
%TD*%
D32*
%TO.C,R27*%
X175035536Y-80395264D03*
X176230536Y-80395264D03*
%TD*%
%TO.C,R26*%
X175034864Y-81603353D03*
X176229864Y-81603353D03*
%TD*%
D37*
%TO.C,C1*%
X121565890Y-86727162D03*
X120430890Y-86727162D03*
%TD*%
D42*
%TO.C,R20*%
X162022197Y-83666041D03*
X162867189Y-84511033D03*
%TD*%
D44*
%TO.C,C20*%
X159722421Y-85046421D03*
X158502661Y-83826661D03*
%TD*%
D33*
%TO.C,C3*%
X120435690Y-87750768D03*
X121570690Y-87750768D03*
%TD*%
D45*
%TO.C,C18*%
X168539500Y-79712000D03*
X170264500Y-79712000D03*
%TD*%
D36*
%TO.C,J6*%
X151024197Y-94152726D03*
X151024197Y-88152726D03*
X154724197Y-94152726D03*
X154724197Y-88152726D03*
%TD*%
D46*
%TO.C,J2*%
X116174213Y-88862054D03*
X116428213Y-86322054D03*
X116174213Y-83782054D03*
%TD*%
D42*
%TO.C,R13*%
X140970856Y-73914856D03*
X141815848Y-74759848D03*
%TD*%
D47*
%TO.C,U7*%
X145856000Y-67934001D03*
X145856000Y-66984001D03*
X145856000Y-66034001D03*
X143156000Y-66034001D03*
X143156000Y-66984001D03*
X143156000Y-67934001D03*
%TD*%
D37*
%TO.C,C8*%
X128465516Y-57615537D03*
X127330516Y-57615537D03*
%TD*%
D48*
%TO.C,J11*%
X161170000Y-89770000D03*
X161970000Y-89770000D03*
D49*
X163120000Y-89770000D03*
X164120000Y-89770000D03*
X164620000Y-89770000D03*
X165620000Y-89770000D03*
D48*
X167570000Y-89770000D03*
X166770000Y-89770000D03*
D49*
X166120000Y-89770000D03*
X165120000Y-89770000D03*
X163620000Y-89770000D03*
X162620000Y-89770000D03*
%TD*%
D46*
%TO.C,J10*%
X180975000Y-62407800D03*
X180975000Y-59512200D03*
%TD*%
D50*
%TO.C,C14*%
X146936000Y-60138500D03*
X146936000Y-61273500D03*
%TD*%
D32*
%TO.C,R29*%
X143716150Y-88987791D03*
X144911150Y-88987791D03*
%TD*%
%TO.C,R31*%
X127612469Y-74754958D03*
X128807469Y-74754958D03*
%TD*%
D25*
%TO.C,R30*%
X156723042Y-60354469D03*
X156723042Y-61549469D03*
%TD*%
D51*
%TO.C,C10*%
X141585605Y-61085748D03*
D52*
X138085605Y-61085748D03*
%TD*%
D27*
%TO.C,JP2*%
X148682816Y-80975349D03*
X149602054Y-80056111D03*
%TD*%
D33*
%TO.C,C17*%
X149292500Y-65984000D03*
X150427500Y-65984000D03*
%TD*%
D44*
%TO.C,C19*%
X162791634Y-82231208D03*
X161571874Y-81011448D03*
%TD*%
D43*
%TO.C,R6*%
X145974749Y-76124749D03*
X145129757Y-75279757D03*
%TD*%
D31*
%TO.C,R32*%
X144924463Y-87422886D03*
X143729463Y-87422886D03*
%TD*%
D33*
%TO.C,C16*%
X140402500Y-66046001D03*
X141537500Y-66046001D03*
%TD*%
D50*
%TO.C,C12*%
X145796000Y-60138501D03*
X145796000Y-61273501D03*
%TD*%
D53*
%TO.C,C11*%
X150176500Y-61998000D03*
X148451500Y-61998000D03*
%TD*%
D29*
%TO.C,R12*%
X137473210Y-65426790D03*
X136628218Y-66271782D03*
%TD*%
D53*
%TO.C,C9*%
X150176500Y-60190000D03*
X148451500Y-60190000D03*
%TD*%
D24*
%TO.C,C7*%
X125390615Y-64045637D03*
X124588049Y-64848203D03*
%TD*%
D26*
%TO.C,J3*%
X117085040Y-72050910D03*
X119084020Y-72050910D03*
X121083000Y-72050910D03*
X123081980Y-72050910D03*
X125080960Y-72050910D03*
%TD*%
D54*
%TO.C,J5*%
X141249400Y-90932000D03*
X142250160Y-90932000D03*
X143245840Y-90932000D03*
X144246600Y-90932000D03*
D55*
X145547080Y-94604840D03*
X139948920Y-94604840D03*
%TD*%
D31*
%TO.C,R28*%
X146885250Y-89929808D03*
X145690250Y-89929808D03*
%TD*%
D30*
%TO.C,<-Io38*%
X145856402Y-83648731D03*
X147305970Y-82199163D03*
%TD*%
D42*
%TO.C,R21*%
X161236811Y-84398967D03*
X162081803Y-85243959D03*
%TD*%
D46*
%TO.C,J1*%
X116257000Y-63754000D03*
X116511000Y-61214000D03*
X116257000Y-58674000D03*
%TD*%
D42*
%TO.C,R8*%
X140314066Y-75395277D03*
X141159058Y-76240269D03*
%TD*%
D37*
%TO.C,C15*%
X144839500Y-69528000D03*
X143704500Y-69528000D03*
%TD*%
D46*
%TO.C,J9*%
X180594000Y-86360000D03*
X180848000Y-83820000D03*
X180594000Y-81280000D03*
X180848000Y-78740000D03*
X180594000Y-76200000D03*
X180848000Y-73660000D03*
X180594000Y-71120000D03*
X180848000Y-68580000D03*
X180594000Y-66040000D03*
%TD*%
D56*
%TO.C,U6*%
X166140001Y-84754000D03*
D57*
X167640001Y-84666500D03*
D56*
X169140001Y-84754000D03*
%TD*%
D37*
%TO.C,C4*%
X127292400Y-82641401D03*
X126157400Y-82641401D03*
%TD*%
D35*
%TO.C,R18*%
X140374867Y-68481496D03*
X140374867Y-67286496D03*
%TD*%
D42*
%TO.C,R4*%
X143167761Y-72374741D03*
X144012753Y-73219733D03*
%TD*%
D58*
%TO.C,J8*%
X144924420Y-54825621D03*
D59*
X134924420Y-54825621D03*
%TD*%
M02*
