%TF.GenerationSoftware,KiCad,Pcbnew,7.0.2*%
%TF.CreationDate,2023-05-16T16:20:18-04:00*%
%TF.ProjectId,mini_motor_go,6d696e69-5f6d-46f7-946f-725f676f2e6b,rev?*%
%TF.SameCoordinates,Original*%
%TF.FileFunction,Copper,L2,Inr*%
%TF.FilePolarity,Positive*%
%FSLAX46Y46*%
G04 Gerber Fmt 4.6, Leading zero omitted, Abs format (unit mm)*
G04 Created by KiCad (PCBNEW 7.0.2) date 2023-05-16 16:20:18*
%MOMM*%
%LPD*%
G01*
G04 APERTURE LIST*
G04 Aperture macros list*
%AMRoundRect*
0 Rectangle with rounded corners*
0 $1 Rounding radius*
0 $2 $3 $4 $5 $6 $7 $8 $9 X,Y pos of 4 corners*
0 Add a 4 corners polygon primitive as box body*
4,1,4,$2,$3,$4,$5,$6,$7,$8,$9,$2,$3,0*
0 Add four circle primitives for the rounded corners*
1,1,$1+$1,$2,$3*
1,1,$1+$1,$4,$5*
1,1,$1+$1,$6,$7*
1,1,$1+$1,$8,$9*
0 Add four rect primitives between the rounded corners*
20,1,$1+$1,$2,$3,$4,$5,0*
20,1,$1+$1,$4,$5,$6,$7,0*
20,1,$1+$1,$6,$7,$8,$9,0*
20,1,$1+$1,$8,$9,$2,$3,0*%
G04 Aperture macros list end*
%TA.AperFunction,ComponentPad*%
%ADD10C,0.600000*%
%TD*%
%TA.AperFunction,ComponentPad*%
%ADD11C,1.597660*%
%TD*%
%TA.AperFunction,ComponentPad*%
%ADD12C,1.879600*%
%TD*%
%TA.AperFunction,ComponentPad*%
%ADD13O,0.950000X1.900000*%
%TD*%
%TA.AperFunction,ComponentPad*%
%ADD14O,0.800000X1.600000*%
%TD*%
%TA.AperFunction,ComponentPad*%
%ADD15R,1.600000X1.600000*%
%TD*%
%TA.AperFunction,ComponentPad*%
%ADD16C,1.600000*%
%TD*%
%TA.AperFunction,ComponentPad*%
%ADD17C,6.000000*%
%TD*%
%TA.AperFunction,ComponentPad*%
%ADD18RoundRect,1.250000X1.250000X1.250000X-1.250000X1.250000X-1.250000X-1.250000X1.250000X-1.250000X0*%
%TD*%
%TA.AperFunction,ViaPad*%
%ADD19C,0.600000*%
%TD*%
%TA.AperFunction,ViaPad*%
%ADD20C,0.800000*%
%TD*%
G04 APERTURE END LIST*
D10*
%TO.N,GND*%
%TO.C,U5*%
X125389938Y-86644093D03*
X126289938Y-86644093D03*
X125389938Y-85844093D03*
X126289938Y-85844093D03*
%TD*%
%TO.N,GND*%
%TO.C,U2*%
X125481600Y-61536400D03*
X126381600Y-61536400D03*
X125481600Y-60736400D03*
X126381600Y-60736400D03*
%TD*%
D11*
%TO.N,GND*%
%TO.C,J4*%
X117019000Y-80010000D03*
%TO.N,m2_enc_cs*%
X119017980Y-80010000D03*
%TO.N,enc_scl*%
X121016960Y-80010000D03*
%TO.N,enc_sda*%
X123015940Y-80010000D03*
%TO.N,+3.3V*%
X125014920Y-80010000D03*
%TD*%
D12*
%TO.N,Net-(U3-in+1)*%
%TO.C,J2*%
X116174213Y-88862054D03*
%TO.N,Net-(U5-V)*%
X116428213Y-86322054D03*
%TO.N,Net-(U3-in+2)*%
X116174213Y-83782054D03*
%TD*%
D13*
%TO.N,unconnected-(J11-SHELL_GND-PadS1)*%
%TO.C,J11*%
X158750000Y-94920000D03*
D14*
%TO.N,unconnected-(J11-SHELL_GND-PadS2)*%
X169990000Y-90920000D03*
%TO.N,unconnected-(J11-SHELL_GND-PadS3)*%
X158750000Y-90920000D03*
D13*
%TO.N,unconnected-(J11-SHELL_GND-PadS4)*%
X169990000Y-94920000D03*
%TD*%
D12*
%TO.N,Net-(J10-Pin_1)*%
%TO.C,J10*%
X180975000Y-62407800D03*
%TO.N,Net-(J10-Pin_2)*%
X180975000Y-59512200D03*
%TD*%
D15*
%TO.N,+BATT*%
%TO.C,C10*%
X141585605Y-61085748D03*
D16*
%TO.N,GND*%
X138085605Y-61085748D03*
%TD*%
D11*
%TO.N,GND*%
%TO.C,J3*%
X117085040Y-72050910D03*
%TO.N,m1_enc_cs*%
X119084020Y-72050910D03*
%TO.N,enc_scl*%
X121083000Y-72050910D03*
%TO.N,enc_sda*%
X123081980Y-72050910D03*
%TO.N,+3.3V*%
X125080960Y-72050910D03*
%TD*%
D12*
%TO.N,Net-(U4-in+1)*%
%TO.C,J1*%
X116257000Y-63754000D03*
%TO.N,Net-(U2-V)*%
X116511000Y-61214000D03*
%TO.N,Net-(U4-in+2)*%
X116257000Y-58674000D03*
%TD*%
%TO.N,+3.3V*%
%TO.C,J9*%
X180594000Y-86360000D03*
%TO.N,+5V*%
X180848000Y-83820000D03*
%TO.N,GND*%
X180594000Y-81280000D03*
%TO.N,gpio8*%
X180848000Y-78740000D03*
%TO.N,gpio38*%
X180594000Y-76200000D03*
%TO.N,Net-(J9-Pin_6)*%
X180848000Y-73660000D03*
%TO.N,Net-(J9-Pin_7)*%
X180594000Y-71120000D03*
%TO.N,Net-(J9-Pin_8)*%
X180848000Y-68580000D03*
%TO.N,Net-(J9-Pin_9)*%
X180594000Y-66040000D03*
%TD*%
D17*
%TO.N,+BATT*%
%TO.C,J8*%
X144924420Y-54825621D03*
D18*
%TO.N,GND*%
X134924420Y-54825621D03*
%TD*%
D19*
%TO.N,+BATT*%
X122642802Y-87693201D03*
D20*
X125547547Y-65033667D03*
D19*
X123535134Y-90050134D03*
X122732800Y-62585600D03*
X122732800Y-61772800D03*
X122642802Y-86880401D03*
%TO.N,GND*%
X161544000Y-81026000D03*
X158320266Y-81709734D03*
X166098137Y-84059829D03*
X155194000Y-62484000D03*
D20*
X164740000Y-66980000D03*
D19*
X118782002Y-87439201D03*
X154686000Y-94234000D03*
D20*
X164740000Y-68380000D03*
D19*
X161620200Y-82677000D03*
X157462742Y-78681058D03*
X124401600Y-62188400D03*
X157418566Y-80808034D03*
X159044166Y-82433634D03*
D20*
X166140000Y-65580000D03*
D19*
X155888500Y-76987400D03*
X159435800Y-80645000D03*
X143737658Y-86282843D03*
X171450000Y-87884000D03*
X159704566Y-83094034D03*
D20*
X166140000Y-68380000D03*
D19*
X176784000Y-88138000D03*
X150622000Y-65786000D03*
X157480000Y-87884000D03*
X130556000Y-67564000D03*
X131579500Y-61783686D03*
X156895260Y-75208860D03*
X124351602Y-85176001D03*
D20*
X164735137Y-65597355D03*
D19*
X140385800Y-73253600D03*
X140091776Y-68498009D03*
X133477000Y-64500100D03*
X156669266Y-80058734D03*
X157391500Y-77952600D03*
D20*
X166140000Y-66980000D03*
D19*
X147574000Y-75692000D03*
X143764000Y-85090000D03*
X143764000Y-87376000D03*
X160419981Y-83809449D03*
D20*
X167540000Y-66980000D03*
D19*
X155855266Y-79244734D03*
X137773210Y-65697500D03*
D20*
X167540000Y-68380000D03*
X176433522Y-59281986D03*
D19*
X170264500Y-79712000D03*
X141249400Y-90932000D03*
X119727546Y-62136006D03*
X155888500Y-77698600D03*
X153416000Y-62992000D03*
X157556200Y-74447400D03*
X158496000Y-83820000D03*
X124311602Y-87296001D03*
X124441600Y-60068400D03*
X125301405Y-83368760D03*
X160934400Y-82042000D03*
X118872000Y-62331600D03*
X157391500Y-77216000D03*
X142675020Y-71882000D03*
X161036000Y-88392000D03*
X144703800Y-68376800D03*
X157671040Y-76568840D03*
X145188308Y-72827500D03*
X140394500Y-74690257D03*
D20*
X167540000Y-65580000D03*
D19*
X126238000Y-57658000D03*
X158085042Y-79303358D03*
X167640000Y-88392000D03*
X158890000Y-59260000D03*
X156176735Y-75927384D03*
X131114800Y-89763600D03*
X119637548Y-87243607D03*
X155800000Y-78500000D03*
X125730000Y-58420000D03*
X158707342Y-79925658D03*
X146050000Y-76200000D03*
X160324800Y-81457800D03*
X135233210Y-65793500D03*
X154686000Y-88138000D03*
%TO.N,+3.3V*%
X175034864Y-80587353D03*
X175006000Y-81534000D03*
X156718000Y-60198000D03*
X127660587Y-79349413D03*
X151130000Y-74422000D03*
X173793010Y-82665372D03*
X127612469Y-73406000D03*
X128778000Y-58420000D03*
X128071231Y-83366191D03*
X168539500Y-79712000D03*
X129286000Y-73406000D03*
X124129800Y-67538600D03*
%TO.N,Net-(U3-in-1)*%
X127762000Y-91423500D03*
X129427830Y-89727500D03*
%TO.N,Net-(U3-in+1)*%
X130327526Y-89902900D03*
X128797390Y-91760974D03*
%TO.N,Net-(U3-ref_1)*%
X131775200Y-88823800D03*
X131828458Y-84076458D03*
X125943348Y-83998850D03*
%TO.N,/motor_controls/standby*%
X127421731Y-80513000D03*
X127457200Y-67640200D03*
X127104261Y-59503500D03*
X126746000Y-83535101D03*
%TO.N,+5V*%
X149860000Y-67564000D03*
X160528000Y-87630000D03*
X149098000Y-65786000D03*
X169926000Y-86614000D03*
X157480000Y-84455000D03*
X140462000Y-65786000D03*
X156210000Y-87884000D03*
X164338000Y-84582000D03*
X169164000Y-84836000D03*
X149098000Y-67571500D03*
X152654000Y-87884000D03*
X148336000Y-67564000D03*
X141485388Y-68458015D03*
X168402000Y-87630000D03*
X155194000Y-84582000D03*
X150114000Y-61976000D03*
X150114000Y-60198000D03*
%TO.N,Net-(C11-Pad2)*%
X146558000Y-62230000D03*
X148451500Y-61998000D03*
%TO.N,m1_enc_cs*%
X175006000Y-71882000D03*
%TO.N,m2_enc_cs*%
X173228000Y-75692000D03*
%TO.N,m2_uh*%
X146812000Y-74676000D03*
X163068000Y-75692000D03*
X139649200Y-83845400D03*
%TO.N,m2_ul*%
X144018000Y-73406000D03*
X138203093Y-81815093D03*
X168148000Y-75692000D03*
%TO.N,m2_vh*%
X145034000Y-75184000D03*
X140616093Y-81942093D03*
X164338000Y-75692000D03*
%TO.N,m2_vl*%
X137693400Y-80492600D03*
X141224000Y-76708000D03*
X170688000Y-75692000D03*
%TO.N,m2_wh*%
X146325825Y-73437908D03*
X165608000Y-75692000D03*
X138938000Y-82804000D03*
%TO.N,m2_wl*%
X141925161Y-74780509D03*
X139624953Y-79579353D03*
X169418000Y-75692000D03*
%TO.N,m1_uh*%
X128295400Y-65618700D03*
X131719294Y-67152494D03*
X153263600Y-67818000D03*
%TO.N,m1_ul*%
X155702000Y-66446400D03*
X132789823Y-65584177D03*
X127939800Y-62941200D03*
%TO.N,m1_vh*%
X134388218Y-66869500D03*
X129235200Y-65043200D03*
X153441400Y-66862500D03*
%TO.N,m1_vl*%
X155194000Y-64075500D03*
X127939800Y-59503500D03*
%TO.N,m1_wh*%
X136628218Y-66271782D03*
X128422400Y-64397700D03*
X154542492Y-66702873D03*
%TO.N,m1_wl*%
X153416000Y-64441000D03*
X128676400Y-62052200D03*
%TO.N,Net-(J11-DP1)*%
X164800000Y-87517500D03*
X164126101Y-88722573D03*
%TO.N,Net-(U1-EN)*%
X151024197Y-88152726D03*
X158890000Y-61800000D03*
X153984620Y-68438500D03*
X154305000Y-75285600D03*
%TO.N,m2_current_sense_u*%
X138404600Y-78816200D03*
X171958000Y-75692000D03*
%TO.N,m2_current_sense_w*%
X139864559Y-81063559D03*
X166878000Y-75692000D03*
%TO.N,m1_current_sense_w*%
X129908326Y-57568045D03*
X157734000Y-63246000D03*
%TO.N,m1_current_sense_u*%
X129421099Y-63280167D03*
X157124400Y-66370200D03*
%TO.N,enc_scl*%
X175006000Y-73152000D03*
%TO.N,enc_sda*%
X175006000Y-74422000D03*
%TO.N,sda*%
X176390000Y-61800000D03*
X173482000Y-59930500D03*
%TO.N,gpio8*%
X174752000Y-75692000D03*
X151638000Y-82550000D03*
X155194000Y-74735500D03*
%TO.N,gpio38*%
X178907500Y-79502000D03*
X176390000Y-70690000D03*
X149860000Y-80010000D03*
%TD*%
%TA.AperFunction,Conductor*%
%TO.N,GND*%
G36*
X144370391Y-51454685D02*
G01*
X144416146Y-51507489D01*
X144426090Y-51576647D01*
X144397065Y-51640203D01*
X144338287Y-51677977D01*
X144324123Y-51681248D01*
X144214545Y-51699865D01*
X144214526Y-51699869D01*
X144211120Y-51700448D01*
X144207796Y-51701405D01*
X144207781Y-51701409D01*
X143869032Y-51799000D01*
X143869017Y-51799005D01*
X143865696Y-51799962D01*
X143862500Y-51801285D01*
X143862488Y-51801290D01*
X143536801Y-51936195D01*
X143536790Y-51936200D01*
X143533587Y-51937527D01*
X143530547Y-51939206D01*
X143530543Y-51939209D01*
X143222012Y-52109727D01*
X143222003Y-52109732D01*
X143218968Y-52111410D01*
X143216127Y-52113425D01*
X143216125Y-52113427D01*
X142928643Y-52317407D01*
X142928635Y-52317412D01*
X142925797Y-52319427D01*
X142923208Y-52321740D01*
X142923200Y-52321747D01*
X142660344Y-52556649D01*
X142660335Y-52556657D01*
X142657759Y-52558960D01*
X142655456Y-52561536D01*
X142655448Y-52561545D01*
X142420546Y-52824401D01*
X142420539Y-52824409D01*
X142418226Y-52826998D01*
X142416211Y-52829836D01*
X142416206Y-52829844D01*
X142219836Y-53106601D01*
X142210209Y-53120169D01*
X142208531Y-53123204D01*
X142208526Y-53123213D01*
X142062538Y-53387360D01*
X142036326Y-53434788D01*
X142034999Y-53437991D01*
X142034994Y-53438002D01*
X141900089Y-53763689D01*
X141900084Y-53763701D01*
X141898761Y-53766897D01*
X141897804Y-53770218D01*
X141897799Y-53770233D01*
X141800208Y-54108982D01*
X141800204Y-54108997D01*
X141799247Y-54112321D01*
X141798668Y-54115727D01*
X141798664Y-54115746D01*
X141739614Y-54463289D01*
X141739612Y-54463305D01*
X141739033Y-54466714D01*
X141738838Y-54470175D01*
X141738838Y-54470181D01*
X141729578Y-54635077D01*
X141718877Y-54825621D01*
X141719072Y-54829093D01*
X141737391Y-55155299D01*
X141739033Y-55184528D01*
X141739612Y-55187938D01*
X141739614Y-55187952D01*
X141798664Y-55535495D01*
X141798667Y-55535510D01*
X141799247Y-55538921D01*
X141800205Y-55542248D01*
X141800208Y-55542259D01*
X141897799Y-55881008D01*
X141897802Y-55881018D01*
X141898761Y-55884345D01*
X141900086Y-55887545D01*
X141900089Y-55887552D01*
X142013468Y-56161270D01*
X142036326Y-56216454D01*
X142210209Y-56531073D01*
X142418226Y-56824244D01*
X142657759Y-57092282D01*
X142925797Y-57331815D01*
X143218968Y-57539832D01*
X143533587Y-57713715D01*
X143865696Y-57851280D01*
X144211120Y-57950794D01*
X144565513Y-58011008D01*
X144924420Y-58031164D01*
X145283327Y-58011008D01*
X145637720Y-57950794D01*
X145983144Y-57851280D01*
X146315253Y-57713715D01*
X146629872Y-57539832D01*
X146923043Y-57331815D01*
X147191081Y-57092282D01*
X147430614Y-56824244D01*
X147638631Y-56531073D01*
X147812514Y-56216454D01*
X147950079Y-55884345D01*
X148049593Y-55538921D01*
X148109807Y-55184528D01*
X148129963Y-54825621D01*
X148109807Y-54466714D01*
X148059529Y-54170798D01*
X148050175Y-54115746D01*
X148050174Y-54115744D01*
X148049593Y-54112321D01*
X147950079Y-53766897D01*
X147812514Y-53434788D01*
X147638631Y-53120169D01*
X147430614Y-52826998D01*
X147191081Y-52558960D01*
X146923043Y-52319427D01*
X146629872Y-52111410D01*
X146315253Y-51937527D01*
X146312042Y-51936197D01*
X146312038Y-51936195D01*
X145986351Y-51801290D01*
X145986344Y-51801287D01*
X145983144Y-51799962D01*
X145979817Y-51799003D01*
X145979807Y-51799000D01*
X145641058Y-51701409D01*
X145641047Y-51701406D01*
X145637720Y-51700448D01*
X145634309Y-51699868D01*
X145634294Y-51699865D01*
X145524717Y-51681248D01*
X145461922Y-51650612D01*
X145425659Y-51590890D01*
X145427440Y-51521043D01*
X145466701Y-51463247D01*
X145530976Y-51435852D01*
X145545488Y-51435000D01*
X149970335Y-51435000D01*
X150017787Y-51444438D01*
X150825767Y-51779114D01*
X150865993Y-51805994D01*
X156491447Y-57431447D01*
X157345000Y-57785000D01*
X176665000Y-57785000D01*
X177665000Y-57785000D01*
X182963638Y-57785000D01*
X183030677Y-57804685D01*
X183051319Y-57821319D01*
X183478681Y-58248681D01*
X183512166Y-58310004D01*
X183515000Y-58336362D01*
X183515000Y-95333637D01*
X183495315Y-95400676D01*
X183478681Y-95421318D01*
X183051319Y-95848681D01*
X182989996Y-95882166D01*
X182963638Y-95885000D01*
X171747362Y-95885000D01*
X171680323Y-95865315D01*
X171659681Y-95848681D01*
X171232319Y-95421319D01*
X171198834Y-95359996D01*
X171196000Y-95333638D01*
X171196000Y-92731662D01*
X178833243Y-92731662D01*
X178838176Y-92761227D01*
X178839443Y-92771394D01*
X178849805Y-92896435D01*
X178850229Y-92906676D01*
X178850229Y-92933175D01*
X178853931Y-92946234D01*
X178854891Y-92957816D01*
X178857745Y-92969088D01*
X178857358Y-92979364D01*
X178867087Y-93007704D01*
X178870010Y-93017524D01*
X178900811Y-93139151D01*
X178902915Y-93149182D01*
X178907278Y-93175330D01*
X178913082Y-93187607D01*
X178915938Y-93198885D01*
X178920609Y-93209534D01*
X178921919Y-93219734D01*
X178936183Y-93246092D01*
X178940684Y-93255299D01*
X178991075Y-93370180D01*
X178994800Y-93379727D01*
X179003406Y-93404797D01*
X179011152Y-93415951D01*
X179015827Y-93426608D01*
X179022185Y-93436340D01*
X179025156Y-93446185D01*
X179043561Y-93469832D01*
X179049516Y-93478172D01*
X179118142Y-93583212D01*
X179123387Y-93592016D01*
X179136001Y-93615324D01*
X179145476Y-93625050D01*
X179151834Y-93634783D01*
X179151835Y-93634784D01*
X179151836Y-93634785D01*
X179159706Y-93643334D01*
X179164258Y-93652557D01*
X179186302Y-93672850D01*
X179193544Y-93680092D01*
X179278538Y-93772420D01*
X179285156Y-93780234D01*
X179301434Y-93801149D01*
X179312380Y-93809182D01*
X179320256Y-93817738D01*
X179329425Y-93824875D01*
X179335435Y-93833224D01*
X179360521Y-93849614D01*
X179368863Y-93855570D01*
X179467882Y-93932640D01*
X179475701Y-93939263D01*
X179495198Y-93957211D01*
X179507317Y-93963334D01*
X179509883Y-93965331D01*
X179516491Y-93970474D01*
X179516495Y-93970476D01*
X179526719Y-93976009D01*
X179534018Y-93983253D01*
X179561452Y-93995287D01*
X179570635Y-93999775D01*
X179681039Y-94059522D01*
X179689828Y-94064760D01*
X179712012Y-94079253D01*
X179724964Y-94083294D01*
X179735190Y-94088828D01*
X179735193Y-94088829D01*
X179735195Y-94088830D01*
X179746179Y-94092601D01*
X179754569Y-94098544D01*
X179783613Y-94105899D01*
X179793436Y-94108824D01*
X179912133Y-94149573D01*
X179921680Y-94153298D01*
X179945943Y-94163940D01*
X179959391Y-94165796D01*
X179970386Y-94169571D01*
X179978533Y-94170930D01*
X179981843Y-94171483D01*
X179991093Y-94175962D01*
X180020939Y-94178435D01*
X180031093Y-94179701D01*
X180154928Y-94200365D01*
X180164942Y-94202465D01*
X180190626Y-94208969D01*
X180204195Y-94208586D01*
X180215665Y-94210500D01*
X180215667Y-94210500D01*
X180227298Y-94210500D01*
X180237169Y-94213398D01*
X180267029Y-94210924D01*
X180277270Y-94210500D01*
X180402730Y-94210500D01*
X180412971Y-94210924D01*
X180439372Y-94213111D01*
X180452702Y-94210500D01*
X180464333Y-94210500D01*
X180464335Y-94210500D01*
X180475804Y-94208586D01*
X180486015Y-94209820D01*
X180515054Y-94202466D01*
X180525070Y-94200365D01*
X180648909Y-94179700D01*
X180659061Y-94178435D01*
X180685454Y-94176248D01*
X180698156Y-94171483D01*
X180700214Y-94171139D01*
X180709614Y-94169571D01*
X180720604Y-94165797D01*
X180730879Y-94165333D01*
X180758313Y-94153300D01*
X180767853Y-94149577D01*
X180886570Y-94108821D01*
X180896390Y-94105898D01*
X180922069Y-94099395D01*
X180933816Y-94092601D01*
X180944810Y-94088828D01*
X180955028Y-94083297D01*
X180965086Y-94081149D01*
X180990166Y-94064763D01*
X180998946Y-94059530D01*
X181109356Y-93999780D01*
X181118551Y-93995285D01*
X181142809Y-93984644D01*
X181153282Y-93976008D01*
X181163509Y-93970474D01*
X181172679Y-93963336D01*
X181182248Y-93959560D01*
X181204289Y-93939270D01*
X181212103Y-93932651D01*
X181311149Y-93855560D01*
X181319484Y-93849609D01*
X181341665Y-93835117D01*
X181350573Y-93824876D01*
X181350576Y-93824874D01*
X181359744Y-93817738D01*
X181367617Y-93809184D01*
X181376434Y-93803885D01*
X181394837Y-93780242D01*
X181401461Y-93772421D01*
X181486467Y-93680079D01*
X181493704Y-93672843D01*
X181513189Y-93654906D01*
X181520290Y-93643337D01*
X181528164Y-93634785D01*
X181534523Y-93625050D01*
X181542346Y-93618373D01*
X181556605Y-93592027D01*
X181561851Y-93583223D01*
X181561858Y-93583212D01*
X181630495Y-93478155D01*
X181636445Y-93469822D01*
X181652712Y-93448922D01*
X181657814Y-93436339D01*
X181664173Y-93426607D01*
X181668844Y-93415956D01*
X181675462Y-93408082D01*
X181685189Y-93379749D01*
X181688915Y-93370200D01*
X181688924Y-93370180D01*
X181739329Y-93255267D01*
X181743823Y-93246076D01*
X181756430Y-93222780D01*
X181759392Y-93209529D01*
X181764063Y-93198881D01*
X181766916Y-93187614D01*
X181772147Y-93178757D01*
X181777079Y-93149205D01*
X181779175Y-93139205D01*
X181809998Y-93017487D01*
X181812916Y-93007689D01*
X181821514Y-92982642D01*
X181822256Y-92969083D01*
X181825107Y-92957824D01*
X181825108Y-92957821D01*
X181826067Y-92946236D01*
X181829771Y-92936639D01*
X181829771Y-92906676D01*
X181830195Y-92896436D01*
X181840557Y-92771382D01*
X181841824Y-92761212D01*
X181846185Y-92735077D01*
X181844683Y-92721581D01*
X181845643Y-92710000D01*
X181844683Y-92698416D01*
X181846756Y-92688341D01*
X181841824Y-92658785D01*
X181840557Y-92648615D01*
X181830195Y-92523563D01*
X181829771Y-92513323D01*
X181829771Y-92486831D01*
X181826067Y-92473763D01*
X181825108Y-92462179D01*
X181822256Y-92450916D01*
X181822642Y-92440638D01*
X181812915Y-92412305D01*
X181809993Y-92402495D01*
X181779180Y-92280817D01*
X181777080Y-92270798D01*
X181772719Y-92244665D01*
X181766915Y-92232383D01*
X181764063Y-92221119D01*
X181759389Y-92210465D01*
X181758079Y-92200263D01*
X181743818Y-92173911D01*
X181739317Y-92164704D01*
X181688917Y-92049803D01*
X181685191Y-92040255D01*
X181676589Y-92015199D01*
X181668844Y-92004042D01*
X181664172Y-91993390D01*
X181657813Y-91983657D01*
X181654841Y-91973812D01*
X181636440Y-91950170D01*
X181630491Y-91941840D01*
X181561844Y-91836766D01*
X181556608Y-91827978D01*
X181543999Y-91804678D01*
X181534522Y-91794947D01*
X181528164Y-91785215D01*
X181520291Y-91776663D01*
X181515739Y-91767440D01*
X181493696Y-91747148D01*
X181486455Y-91739907D01*
X181401457Y-91647575D01*
X181394842Y-91639764D01*
X181378567Y-91618854D01*
X181367616Y-91610813D01*
X181359747Y-91602265D01*
X181359746Y-91602264D01*
X181359744Y-91602262D01*
X181350569Y-91595121D01*
X181344561Y-91586772D01*
X181319475Y-91570383D01*
X181311140Y-91564432D01*
X181212117Y-91487359D01*
X181204298Y-91480737D01*
X181184802Y-91462790D01*
X181172681Y-91456665D01*
X181163509Y-91449526D01*
X181163508Y-91449525D01*
X181153279Y-91443990D01*
X181145980Y-91436745D01*
X181118540Y-91424709D01*
X181109344Y-91420213D01*
X180998975Y-91360484D01*
X180990176Y-91355241D01*
X180968000Y-91340753D01*
X180955032Y-91336704D01*
X180944810Y-91331172D01*
X180944804Y-91331170D01*
X180933816Y-91327397D01*
X180925422Y-91321452D01*
X180896378Y-91314097D01*
X180886557Y-91311173D01*
X180767872Y-91270428D01*
X180758326Y-91266703D01*
X180734065Y-91256061D01*
X180720609Y-91254203D01*
X180709615Y-91250429D01*
X180698151Y-91248516D01*
X180688894Y-91244033D01*
X180659038Y-91241559D01*
X180648871Y-91240292D01*
X180525098Y-91219639D01*
X180515067Y-91217536D01*
X180489382Y-91211031D01*
X180475808Y-91211414D01*
X180464335Y-91209500D01*
X180452702Y-91209500D01*
X180442830Y-91206601D01*
X180412967Y-91209076D01*
X180402727Y-91209500D01*
X180277273Y-91209500D01*
X180267033Y-91209076D01*
X180240628Y-91206887D01*
X180227298Y-91209500D01*
X180215664Y-91209500D01*
X180204193Y-91211414D01*
X180193978Y-91210179D01*
X180164927Y-91217536D01*
X180154898Y-91219639D01*
X180031129Y-91240292D01*
X180020962Y-91241559D01*
X179994561Y-91243747D01*
X179981849Y-91248515D01*
X179970384Y-91250428D01*
X179959385Y-91254204D01*
X179949115Y-91254667D01*
X179921668Y-91266706D01*
X179912122Y-91270430D01*
X179793445Y-91311172D01*
X179783624Y-91314096D01*
X179757939Y-91320600D01*
X179746184Y-91327397D01*
X179735193Y-91331170D01*
X179724966Y-91336705D01*
X179714906Y-91338853D01*
X179689817Y-91355245D01*
X179681015Y-91360490D01*
X179570670Y-91420206D01*
X179561464Y-91424706D01*
X179537195Y-91435351D01*
X179526722Y-91443989D01*
X179516490Y-91449526D01*
X179507314Y-91456668D01*
X179497743Y-91460443D01*
X179475687Y-91480747D01*
X179467868Y-91487369D01*
X179368865Y-91564426D01*
X179360527Y-91570380D01*
X179338341Y-91584875D01*
X179329431Y-91595121D01*
X179320253Y-91602264D01*
X179312379Y-91610818D01*
X179303562Y-91616115D01*
X179285153Y-91639768D01*
X179278531Y-91647587D01*
X179193556Y-91739895D01*
X179186310Y-91747141D01*
X179166812Y-91765090D01*
X179159711Y-91776659D01*
X179151837Y-91785213D01*
X179145473Y-91794953D01*
X179137649Y-91801629D01*
X179123384Y-91827989D01*
X179118139Y-91836792D01*
X179049520Y-91941821D01*
X179043565Y-91950160D01*
X179027290Y-91971070D01*
X179022187Y-91983657D01*
X179015825Y-91993394D01*
X179011153Y-92004046D01*
X179004532Y-92011922D01*
X178994798Y-92040277D01*
X178991073Y-92049823D01*
X178940686Y-92164695D01*
X178936186Y-92173901D01*
X178923570Y-92197213D01*
X178920610Y-92210465D01*
X178915936Y-92221119D01*
X178913083Y-92232388D01*
X178907849Y-92241246D01*
X178902914Y-92270820D01*
X178900811Y-92280850D01*
X178870012Y-92402471D01*
X178867088Y-92412290D01*
X178858483Y-92437354D01*
X178857745Y-92450912D01*
X178854891Y-92462181D01*
X178853931Y-92473765D01*
X178850229Y-92483357D01*
X178850229Y-92513323D01*
X178849805Y-92523564D01*
X178839443Y-92648604D01*
X178838176Y-92658770D01*
X178833813Y-92684918D01*
X178835317Y-92698412D01*
X178834357Y-92710000D01*
X178835317Y-92721585D01*
X178833243Y-92731662D01*
X171196000Y-92731662D01*
X171196000Y-89146000D01*
X170696000Y-88646000D01*
X164721044Y-88646000D01*
X164654005Y-88626315D01*
X164608250Y-88573512D01*
X164551477Y-88449198D01*
X164457230Y-88340431D01*
X164457229Y-88340430D01*
X164336154Y-88262620D01*
X164198062Y-88222073D01*
X164054140Y-88222073D01*
X163916048Y-88262620D01*
X163794971Y-88340431D01*
X163700724Y-88449198D01*
X163643952Y-88573512D01*
X163598197Y-88626316D01*
X163531158Y-88646000D01*
X157979999Y-88646000D01*
X157480000Y-89145999D01*
X157480000Y-95452638D01*
X157460315Y-95519677D01*
X157443681Y-95540319D01*
X157135319Y-95848681D01*
X157073996Y-95882166D01*
X157047638Y-95885000D01*
X156337000Y-95885000D01*
X136580500Y-95885000D01*
X135580500Y-95885000D01*
X117103708Y-95885000D01*
X117061495Y-95877594D01*
X116225872Y-95575056D01*
X116188043Y-95553168D01*
X115447446Y-94927239D01*
X115335240Y-94831063D01*
X115303284Y-94788731D01*
X114946344Y-94012664D01*
X114935000Y-93960850D01*
X114935000Y-92731662D01*
X116603243Y-92731662D01*
X116608176Y-92761227D01*
X116609443Y-92771394D01*
X116619805Y-92896435D01*
X116620229Y-92906676D01*
X116620229Y-92933175D01*
X116623931Y-92946234D01*
X116624891Y-92957816D01*
X116627745Y-92969088D01*
X116627358Y-92979364D01*
X116637087Y-93007704D01*
X116640010Y-93017524D01*
X116670811Y-93139151D01*
X116672915Y-93149182D01*
X116677278Y-93175330D01*
X116683082Y-93187607D01*
X116685938Y-93198885D01*
X116690609Y-93209534D01*
X116691919Y-93219734D01*
X116706183Y-93246092D01*
X116710684Y-93255299D01*
X116761075Y-93370180D01*
X116764800Y-93379727D01*
X116773406Y-93404797D01*
X116781152Y-93415951D01*
X116785827Y-93426608D01*
X116792185Y-93436340D01*
X116795156Y-93446185D01*
X116813561Y-93469832D01*
X116819516Y-93478172D01*
X116888142Y-93583212D01*
X116893387Y-93592016D01*
X116906001Y-93615324D01*
X116915476Y-93625050D01*
X116921834Y-93634783D01*
X116921835Y-93634784D01*
X116921836Y-93634785D01*
X116929706Y-93643334D01*
X116934258Y-93652557D01*
X116956302Y-93672850D01*
X116963544Y-93680092D01*
X117048538Y-93772420D01*
X117055156Y-93780234D01*
X117071434Y-93801149D01*
X117082380Y-93809182D01*
X117090256Y-93817738D01*
X117099425Y-93824875D01*
X117105435Y-93833224D01*
X117130521Y-93849614D01*
X117138863Y-93855570D01*
X117237882Y-93932640D01*
X117245701Y-93939263D01*
X117265198Y-93957211D01*
X117277317Y-93963334D01*
X117279883Y-93965331D01*
X117286491Y-93970474D01*
X117286495Y-93970476D01*
X117296719Y-93976009D01*
X117304018Y-93983253D01*
X117331452Y-93995287D01*
X117340635Y-93999775D01*
X117451039Y-94059522D01*
X117459828Y-94064760D01*
X117482012Y-94079253D01*
X117494964Y-94083294D01*
X117505190Y-94088828D01*
X117505193Y-94088829D01*
X117505195Y-94088830D01*
X117516179Y-94092601D01*
X117524569Y-94098544D01*
X117553613Y-94105899D01*
X117563436Y-94108824D01*
X117682133Y-94149573D01*
X117691680Y-94153298D01*
X117715943Y-94163940D01*
X117729391Y-94165796D01*
X117740386Y-94169571D01*
X117748533Y-94170930D01*
X117751843Y-94171483D01*
X117761093Y-94175962D01*
X117790939Y-94178435D01*
X117801093Y-94179701D01*
X117924928Y-94200365D01*
X117934942Y-94202465D01*
X117960626Y-94208969D01*
X117974195Y-94208586D01*
X117985665Y-94210500D01*
X117985667Y-94210500D01*
X117997298Y-94210500D01*
X118007169Y-94213398D01*
X118037029Y-94210924D01*
X118047270Y-94210500D01*
X118172730Y-94210500D01*
X118182971Y-94210924D01*
X118209372Y-94213111D01*
X118222702Y-94210500D01*
X118234333Y-94210500D01*
X118234335Y-94210500D01*
X118245804Y-94208586D01*
X118256015Y-94209820D01*
X118285054Y-94202466D01*
X118295070Y-94200365D01*
X118418909Y-94179700D01*
X118429061Y-94178435D01*
X118455454Y-94176248D01*
X118468156Y-94171483D01*
X118470214Y-94171139D01*
X118479614Y-94169571D01*
X118490604Y-94165797D01*
X118500879Y-94165333D01*
X118528313Y-94153300D01*
X118537853Y-94149577D01*
X118656570Y-94108821D01*
X118666390Y-94105898D01*
X118692069Y-94099395D01*
X118703816Y-94092601D01*
X118714810Y-94088828D01*
X118725028Y-94083297D01*
X118735086Y-94081149D01*
X118760166Y-94064763D01*
X118768946Y-94059530D01*
X118879356Y-93999780D01*
X118888551Y-93995285D01*
X118912809Y-93984644D01*
X118923282Y-93976008D01*
X118933509Y-93970474D01*
X118942679Y-93963336D01*
X118952248Y-93959560D01*
X118974289Y-93939270D01*
X118982103Y-93932651D01*
X119081149Y-93855560D01*
X119089484Y-93849609D01*
X119111665Y-93835117D01*
X119120573Y-93824876D01*
X119120576Y-93824874D01*
X119129744Y-93817738D01*
X119137617Y-93809184D01*
X119146434Y-93803885D01*
X119164837Y-93780242D01*
X119171461Y-93772421D01*
X119256467Y-93680079D01*
X119263704Y-93672843D01*
X119283189Y-93654906D01*
X119290290Y-93643337D01*
X119298164Y-93634785D01*
X119304523Y-93625050D01*
X119312346Y-93618373D01*
X119326605Y-93592027D01*
X119331851Y-93583223D01*
X119331858Y-93583212D01*
X119400495Y-93478155D01*
X119406445Y-93469822D01*
X119422712Y-93448922D01*
X119427814Y-93436339D01*
X119434173Y-93426607D01*
X119438844Y-93415956D01*
X119445462Y-93408082D01*
X119455189Y-93379749D01*
X119458915Y-93370200D01*
X119458924Y-93370180D01*
X119509329Y-93255267D01*
X119513823Y-93246076D01*
X119526430Y-93222780D01*
X119529392Y-93209529D01*
X119534063Y-93198881D01*
X119536916Y-93187614D01*
X119542147Y-93178757D01*
X119547079Y-93149205D01*
X119549175Y-93139205D01*
X119579998Y-93017487D01*
X119582916Y-93007689D01*
X119591514Y-92982642D01*
X119592256Y-92969083D01*
X119595107Y-92957824D01*
X119595108Y-92957821D01*
X119596067Y-92946236D01*
X119599769Y-92936642D01*
X119599770Y-92906688D01*
X119600194Y-92896448D01*
X119610557Y-92771382D01*
X119611824Y-92761212D01*
X119616185Y-92735077D01*
X119614683Y-92721581D01*
X119615643Y-92710000D01*
X119614683Y-92698416D01*
X119616756Y-92688341D01*
X119611824Y-92658785D01*
X119610557Y-92648615D01*
X119600194Y-92523551D01*
X119599770Y-92513311D01*
X119599770Y-92486827D01*
X119596067Y-92473763D01*
X119595108Y-92462179D01*
X119592256Y-92450916D01*
X119592642Y-92440638D01*
X119582915Y-92412305D01*
X119579993Y-92402495D01*
X119549180Y-92280817D01*
X119547080Y-92270798D01*
X119542719Y-92244665D01*
X119536915Y-92232383D01*
X119534063Y-92221119D01*
X119529389Y-92210465D01*
X119528079Y-92200263D01*
X119513818Y-92173911D01*
X119509317Y-92164704D01*
X119458917Y-92049803D01*
X119455191Y-92040255D01*
X119446589Y-92015199D01*
X119438844Y-92004042D01*
X119434172Y-91993390D01*
X119427813Y-91983657D01*
X119424841Y-91973812D01*
X119406440Y-91950170D01*
X119400491Y-91941840D01*
X119331844Y-91836766D01*
X119326608Y-91827978D01*
X119313999Y-91804678D01*
X119304522Y-91794947D01*
X119298164Y-91785215D01*
X119290291Y-91776663D01*
X119285739Y-91767440D01*
X119263696Y-91747148D01*
X119256455Y-91739907D01*
X119171457Y-91647575D01*
X119164842Y-91639764D01*
X119148567Y-91618854D01*
X119137616Y-91610813D01*
X119129747Y-91602265D01*
X119129746Y-91602264D01*
X119129744Y-91602262D01*
X119120569Y-91595121D01*
X119114561Y-91586772D01*
X119089475Y-91570383D01*
X119081140Y-91564432D01*
X118982117Y-91487359D01*
X118974298Y-91480737D01*
X118954802Y-91462790D01*
X118942681Y-91456665D01*
X118933509Y-91449526D01*
X118933508Y-91449525D01*
X118923279Y-91443990D01*
X118915980Y-91436745D01*
X118888540Y-91424709D01*
X118886067Y-91423500D01*
X127256353Y-91423500D01*
X127276834Y-91565957D01*
X127336623Y-91696874D01*
X127427394Y-91801629D01*
X127430872Y-91805643D01*
X127551947Y-91883453D01*
X127690039Y-91924000D01*
X127833961Y-91924000D01*
X127972053Y-91883453D01*
X128093128Y-91805643D01*
X128093127Y-91805643D01*
X128108127Y-91796004D01*
X128108581Y-91796710D01*
X128149949Y-91770123D01*
X128219818Y-91770119D01*
X128278598Y-91807891D01*
X128307626Y-91871445D01*
X128307627Y-91871452D01*
X128312224Y-91903431D01*
X128372013Y-92034348D01*
X128466260Y-92143115D01*
X128466262Y-92143117D01*
X128587337Y-92220927D01*
X128725429Y-92261474D01*
X128869351Y-92261474D01*
X129007443Y-92220927D01*
X129128518Y-92143117D01*
X129222767Y-92034347D01*
X129282555Y-91903431D01*
X129303037Y-91760974D01*
X129285499Y-91638998D01*
X129282555Y-91618516D01*
X129222766Y-91487599D01*
X129128519Y-91378832D01*
X129128518Y-91378831D01*
X129007443Y-91301021D01*
X128869351Y-91260474D01*
X128725429Y-91260474D01*
X128587337Y-91301021D01*
X128451263Y-91388470D01*
X128450808Y-91387763D01*
X128409429Y-91414354D01*
X128339559Y-91414350D01*
X128280783Y-91376573D01*
X128251762Y-91313019D01*
X128251496Y-91311172D01*
X128247165Y-91281043D01*
X128242318Y-91270430D01*
X128187376Y-91150125D01*
X128093129Y-91041358D01*
X128093128Y-91041357D01*
X127972053Y-90963547D01*
X127833961Y-90923000D01*
X127690039Y-90923000D01*
X127551947Y-90963547D01*
X127430870Y-91041358D01*
X127336623Y-91150125D01*
X127276834Y-91281042D01*
X127256353Y-91423500D01*
X118886067Y-91423500D01*
X118879344Y-91420213D01*
X118768975Y-91360484D01*
X118760176Y-91355241D01*
X118738000Y-91340753D01*
X118725032Y-91336704D01*
X118714810Y-91331172D01*
X118714804Y-91331170D01*
X118703816Y-91327397D01*
X118695422Y-91321452D01*
X118666378Y-91314097D01*
X118656557Y-91311173D01*
X118537872Y-91270428D01*
X118528326Y-91266703D01*
X118504065Y-91256061D01*
X118490609Y-91254203D01*
X118479615Y-91250429D01*
X118468151Y-91248516D01*
X118458894Y-91244033D01*
X118429038Y-91241559D01*
X118418871Y-91240292D01*
X118295098Y-91219639D01*
X118285067Y-91217536D01*
X118259382Y-91211031D01*
X118245808Y-91211414D01*
X118234335Y-91209500D01*
X118222702Y-91209500D01*
X118212830Y-91206601D01*
X118182967Y-91209076D01*
X118172727Y-91209500D01*
X118047273Y-91209500D01*
X118037033Y-91209076D01*
X118010628Y-91206887D01*
X117997298Y-91209500D01*
X117985664Y-91209500D01*
X117974193Y-91211414D01*
X117963978Y-91210179D01*
X117934927Y-91217536D01*
X117924898Y-91219639D01*
X117801129Y-91240292D01*
X117790962Y-91241559D01*
X117764561Y-91243747D01*
X117751849Y-91248515D01*
X117740384Y-91250428D01*
X117729385Y-91254204D01*
X117719115Y-91254667D01*
X117691668Y-91266706D01*
X117682122Y-91270430D01*
X117563445Y-91311172D01*
X117553624Y-91314096D01*
X117527939Y-91320600D01*
X117516184Y-91327397D01*
X117505193Y-91331170D01*
X117494966Y-91336705D01*
X117484906Y-91338853D01*
X117459817Y-91355245D01*
X117451015Y-91360490D01*
X117340670Y-91420206D01*
X117331464Y-91424706D01*
X117307195Y-91435351D01*
X117296722Y-91443989D01*
X117286490Y-91449526D01*
X117277314Y-91456668D01*
X117267743Y-91460443D01*
X117245687Y-91480747D01*
X117237868Y-91487369D01*
X117138865Y-91564426D01*
X117130527Y-91570380D01*
X117108341Y-91584875D01*
X117099431Y-91595121D01*
X117090253Y-91602264D01*
X117082379Y-91610818D01*
X117073562Y-91616115D01*
X117055153Y-91639768D01*
X117048531Y-91647587D01*
X116963556Y-91739895D01*
X116956310Y-91747141D01*
X116936812Y-91765090D01*
X116929711Y-91776659D01*
X116921837Y-91785213D01*
X116915473Y-91794953D01*
X116907649Y-91801629D01*
X116893384Y-91827989D01*
X116888139Y-91836792D01*
X116819520Y-91941821D01*
X116813565Y-91950160D01*
X116797290Y-91971070D01*
X116792187Y-91983657D01*
X116785825Y-91993394D01*
X116781153Y-92004046D01*
X116774532Y-92011922D01*
X116764798Y-92040277D01*
X116761073Y-92049823D01*
X116710686Y-92164695D01*
X116706186Y-92173901D01*
X116693570Y-92197213D01*
X116690610Y-92210465D01*
X116685936Y-92221119D01*
X116683083Y-92232388D01*
X116677849Y-92241246D01*
X116672914Y-92270820D01*
X116670811Y-92280850D01*
X116640012Y-92402471D01*
X116637088Y-92412290D01*
X116628483Y-92437354D01*
X116627745Y-92450912D01*
X116624891Y-92462181D01*
X116623931Y-92473765D01*
X116620228Y-92483357D01*
X116620229Y-92513323D01*
X116619805Y-92523564D01*
X116609443Y-92648604D01*
X116608176Y-92658770D01*
X116603813Y-92684918D01*
X116605317Y-92698412D01*
X116604357Y-92710000D01*
X116605317Y-92721585D01*
X116603243Y-92731662D01*
X114935000Y-92731662D01*
X114935000Y-90050134D01*
X123029487Y-90050134D01*
X123049968Y-90192591D01*
X123109757Y-90323508D01*
X123178984Y-90403400D01*
X123204006Y-90432277D01*
X123325081Y-90510087D01*
X123463173Y-90550634D01*
X123607095Y-90550634D01*
X123745187Y-90510087D01*
X123866262Y-90432277D01*
X123960511Y-90323507D01*
X124020299Y-90192591D01*
X124040781Y-90050134D01*
X124022143Y-89920499D01*
X124020299Y-89907676D01*
X123960510Y-89776759D01*
X123917827Y-89727500D01*
X128922183Y-89727500D01*
X128942664Y-89869957D01*
X129002453Y-90000874D01*
X129095116Y-90107813D01*
X129096702Y-90109643D01*
X129217777Y-90187453D01*
X129355869Y-90228000D01*
X129499791Y-90228000D01*
X129637883Y-90187453D01*
X129725750Y-90130983D01*
X129792786Y-90111300D01*
X129859826Y-90130984D01*
X129888715Y-90164323D01*
X129890474Y-90162800D01*
X129946970Y-90228000D01*
X129996398Y-90285043D01*
X130117473Y-90362853D01*
X130255565Y-90403400D01*
X130399487Y-90403400D01*
X130537579Y-90362853D01*
X130658654Y-90285043D01*
X130752903Y-90176273D01*
X130812691Y-90045357D01*
X130833173Y-89902900D01*
X130812691Y-89760443D01*
X130797646Y-89727500D01*
X130752902Y-89629525D01*
X130658655Y-89520758D01*
X130658654Y-89520757D01*
X130537579Y-89442947D01*
X130399487Y-89402400D01*
X130255565Y-89402400D01*
X130117471Y-89442947D01*
X130029606Y-89499414D01*
X129962567Y-89519098D01*
X129895527Y-89499413D01*
X129866641Y-89466075D01*
X129864882Y-89467600D01*
X129758959Y-89345358D01*
X129758958Y-89345357D01*
X129637883Y-89267547D01*
X129499791Y-89227000D01*
X129355869Y-89227000D01*
X129217777Y-89267547D01*
X129096700Y-89345358D01*
X129002453Y-89454125D01*
X128942664Y-89585042D01*
X128922183Y-89727500D01*
X123917827Y-89727500D01*
X123866263Y-89667992D01*
X123866262Y-89667991D01*
X123745187Y-89590181D01*
X123607095Y-89549634D01*
X123463173Y-89549634D01*
X123325081Y-89590181D01*
X123204004Y-89667992D01*
X123109757Y-89776759D01*
X123049968Y-89907676D01*
X123029487Y-90050134D01*
X114935000Y-90050134D01*
X114935000Y-89458821D01*
X114954685Y-89391782D01*
X115007489Y-89346027D01*
X115076647Y-89336083D01*
X115140203Y-89365108D01*
X115169999Y-89403547D01*
X115187299Y-89438291D01*
X115200557Y-89464917D01*
X115327911Y-89633561D01*
X115484082Y-89775929D01*
X115484084Y-89775930D01*
X115484085Y-89775931D01*
X115663760Y-89887182D01*
X115860818Y-89963522D01*
X116068549Y-90002354D01*
X116068551Y-90002354D01*
X116279875Y-90002354D01*
X116279877Y-90002354D01*
X116487608Y-89963522D01*
X116684666Y-89887182D01*
X116864341Y-89775931D01*
X117020515Y-89633560D01*
X117147869Y-89464916D01*
X117242066Y-89275743D01*
X117261926Y-89205943D01*
X117299899Y-89072483D01*
X117309742Y-88966257D01*
X117319398Y-88862054D01*
X117315853Y-88823800D01*
X131269553Y-88823800D01*
X131290034Y-88966257D01*
X131349823Y-89097174D01*
X131423781Y-89182526D01*
X131444072Y-89205943D01*
X131565147Y-89283753D01*
X131703239Y-89324300D01*
X131847161Y-89324300D01*
X131985253Y-89283753D01*
X132106328Y-89205943D01*
X132200577Y-89097173D01*
X132260365Y-88966257D01*
X132280847Y-88823800D01*
X132260365Y-88681343D01*
X132247524Y-88653226D01*
X132200576Y-88550425D01*
X132106329Y-88441658D01*
X132106328Y-88441657D01*
X131985253Y-88363847D01*
X131847161Y-88323300D01*
X131703239Y-88323300D01*
X131565147Y-88363847D01*
X131444070Y-88441658D01*
X131349823Y-88550425D01*
X131290034Y-88681342D01*
X131269553Y-88823800D01*
X117315853Y-88823800D01*
X117299899Y-88651627D01*
X117299899Y-88651624D01*
X117242067Y-88448366D01*
X117147869Y-88259192D01*
X117020514Y-88090546D01*
X116864343Y-87948178D01*
X116684664Y-87836925D01*
X116487608Y-87760586D01*
X116279877Y-87721754D01*
X116068549Y-87721754D01*
X115930061Y-87747641D01*
X115860817Y-87760586D01*
X115663761Y-87836925D01*
X115484082Y-87948178D01*
X115327911Y-88090546D01*
X115200556Y-88259192D01*
X115170000Y-88320558D01*
X115122497Y-88371795D01*
X115054834Y-88389216D01*
X114988494Y-88367290D01*
X114944539Y-88312979D01*
X114935000Y-88265286D01*
X114935000Y-87693200D01*
X122137155Y-87693200D01*
X122157636Y-87835658D01*
X122217425Y-87966575D01*
X122311672Y-88075342D01*
X122311674Y-88075344D01*
X122432749Y-88153154D01*
X122570841Y-88193701D01*
X122714763Y-88193701D01*
X122852855Y-88153154D01*
X122853521Y-88152726D01*
X150518550Y-88152726D01*
X150539031Y-88295183D01*
X150598820Y-88426100D01*
X150693067Y-88534867D01*
X150693069Y-88534869D01*
X150814144Y-88612679D01*
X150952236Y-88653226D01*
X151096158Y-88653226D01*
X151234250Y-88612679D01*
X151355325Y-88534869D01*
X151449574Y-88426099D01*
X151509362Y-88295183D01*
X151529844Y-88152726D01*
X151510474Y-88018000D01*
X151509362Y-88010268D01*
X151451696Y-87883999D01*
X152148353Y-87883999D01*
X152168834Y-88026457D01*
X152228623Y-88157374D01*
X152284685Y-88222073D01*
X152322872Y-88266143D01*
X152443947Y-88343953D01*
X152582039Y-88384500D01*
X152725961Y-88384500D01*
X152864053Y-88343953D01*
X152985128Y-88266143D01*
X153079377Y-88157373D01*
X153139165Y-88026457D01*
X153159647Y-87884000D01*
X155704353Y-87884000D01*
X155724834Y-88026457D01*
X155784623Y-88157374D01*
X155840685Y-88222073D01*
X155878872Y-88266143D01*
X155999947Y-88343953D01*
X156138039Y-88384500D01*
X156281961Y-88384500D01*
X156420053Y-88343953D01*
X156541128Y-88266143D01*
X156635377Y-88157373D01*
X156695165Y-88026457D01*
X156715647Y-87884000D01*
X156695165Y-87741543D01*
X156673087Y-87693200D01*
X156644224Y-87630000D01*
X160022353Y-87630000D01*
X160042834Y-87772457D01*
X160102623Y-87903374D01*
X160157387Y-87966575D01*
X160196872Y-88012143D01*
X160317947Y-88089953D01*
X160456039Y-88130500D01*
X160599961Y-88130500D01*
X160738053Y-88089953D01*
X160859128Y-88012143D01*
X160953377Y-87903373D01*
X161013165Y-87772457D01*
X161033647Y-87630000D01*
X161017472Y-87517499D01*
X164294353Y-87517499D01*
X164314834Y-87659957D01*
X164374623Y-87790874D01*
X164455317Y-87884000D01*
X164468872Y-87899643D01*
X164589947Y-87977453D01*
X164728039Y-88018000D01*
X164871961Y-88018000D01*
X165010053Y-87977453D01*
X165131128Y-87899643D01*
X165225377Y-87790873D01*
X165285165Y-87659957D01*
X165289472Y-87629999D01*
X167896353Y-87629999D01*
X167916834Y-87772457D01*
X167976623Y-87903374D01*
X168031387Y-87966575D01*
X168070872Y-88012143D01*
X168191947Y-88089953D01*
X168330039Y-88130500D01*
X168473961Y-88130500D01*
X168612053Y-88089953D01*
X168733128Y-88012143D01*
X168827377Y-87903373D01*
X168887165Y-87772457D01*
X168907647Y-87630000D01*
X168887165Y-87487543D01*
X168875661Y-87462354D01*
X168827376Y-87356625D01*
X168733129Y-87247858D01*
X168733128Y-87247857D01*
X168612053Y-87170047D01*
X168473961Y-87129500D01*
X168330039Y-87129500D01*
X168191947Y-87170047D01*
X168070870Y-87247858D01*
X167976623Y-87356625D01*
X167916834Y-87487542D01*
X167896353Y-87629999D01*
X165289472Y-87629999D01*
X165305647Y-87517500D01*
X165285165Y-87375043D01*
X165282600Y-87369427D01*
X165225376Y-87244125D01*
X165131129Y-87135358D01*
X165131128Y-87135357D01*
X165010053Y-87057547D01*
X164871961Y-87017000D01*
X164728039Y-87017000D01*
X164589947Y-87057547D01*
X164468870Y-87135358D01*
X164374623Y-87244125D01*
X164314834Y-87375042D01*
X164294353Y-87517499D01*
X161017472Y-87517499D01*
X161013165Y-87487543D01*
X161001661Y-87462354D01*
X160953376Y-87356625D01*
X160859129Y-87247858D01*
X160859128Y-87247857D01*
X160738053Y-87170047D01*
X160599961Y-87129500D01*
X160456039Y-87129500D01*
X160317947Y-87170047D01*
X160196870Y-87247858D01*
X160102623Y-87356625D01*
X160042834Y-87487542D01*
X160022353Y-87630000D01*
X156644224Y-87630000D01*
X156635376Y-87610625D01*
X156541129Y-87501858D01*
X156541128Y-87501857D01*
X156420053Y-87424047D01*
X156281961Y-87383500D01*
X156138039Y-87383500D01*
X155999947Y-87424047D01*
X155878870Y-87501858D01*
X155784623Y-87610625D01*
X155724834Y-87741542D01*
X155704353Y-87884000D01*
X153159647Y-87884000D01*
X153139165Y-87741543D01*
X153117087Y-87693200D01*
X153079376Y-87610625D01*
X152985129Y-87501858D01*
X152985128Y-87501857D01*
X152864053Y-87424047D01*
X152725961Y-87383500D01*
X152582039Y-87383500D01*
X152443947Y-87424047D01*
X152322870Y-87501858D01*
X152228623Y-87610625D01*
X152168834Y-87741542D01*
X152148353Y-87883999D01*
X151451696Y-87883999D01*
X151449573Y-87879351D01*
X151355326Y-87770584D01*
X151355325Y-87770583D01*
X151234250Y-87692773D01*
X151096158Y-87652226D01*
X150952236Y-87652226D01*
X150814144Y-87692773D01*
X150693067Y-87770584D01*
X150598820Y-87879351D01*
X150539031Y-88010268D01*
X150518550Y-88152726D01*
X122853521Y-88152726D01*
X122973930Y-88075344D01*
X123068179Y-87966574D01*
X123127967Y-87835658D01*
X123148449Y-87693201D01*
X123127967Y-87550744D01*
X123112784Y-87517499D01*
X123087600Y-87462354D01*
X123068179Y-87419828D01*
X123023272Y-87368002D01*
X123019962Y-87360753D01*
X125026829Y-87360753D01*
X125040634Y-87369428D01*
X125210797Y-87428970D01*
X125389938Y-87449155D01*
X125569078Y-87428970D01*
X125739239Y-87369428D01*
X125753267Y-87360613D01*
X125753188Y-87360562D01*
X125926522Y-87360562D01*
X125940631Y-87369427D01*
X126110797Y-87428970D01*
X126289937Y-87449155D01*
X126469078Y-87428970D01*
X126639241Y-87369428D01*
X126653045Y-87360754D01*
X126653045Y-87360753D01*
X126289939Y-86997646D01*
X126289938Y-86997646D01*
X125927618Y-87359964D01*
X125926522Y-87360562D01*
X125753188Y-87360562D01*
X125752256Y-87359964D01*
X125389939Y-86997646D01*
X125389938Y-86997646D01*
X125026829Y-87360753D01*
X123019962Y-87360753D01*
X122994248Y-87304448D01*
X123004192Y-87235289D01*
X123023271Y-87205600D01*
X123068179Y-87153774D01*
X123127967Y-87022858D01*
X123148449Y-86880401D01*
X123127967Y-86737944D01*
X123120566Y-86721739D01*
X123085106Y-86644093D01*
X124584875Y-86644093D01*
X124605060Y-86823233D01*
X124664603Y-86993397D01*
X124673276Y-87007201D01*
X125036385Y-86644093D01*
X125234647Y-86644093D01*
X125255452Y-86721738D01*
X125312293Y-86778579D01*
X125370192Y-86794093D01*
X125409684Y-86794093D01*
X125467583Y-86778579D01*
X125524424Y-86721739D01*
X125545229Y-86644093D01*
X125743491Y-86644093D01*
X125839937Y-86740539D01*
X125936384Y-86644093D01*
X126134647Y-86644093D01*
X126155452Y-86721738D01*
X126212293Y-86778579D01*
X126270192Y-86794093D01*
X126309684Y-86794093D01*
X126367583Y-86778579D01*
X126424424Y-86721739D01*
X126445229Y-86644093D01*
X126424424Y-86566448D01*
X126367583Y-86509607D01*
X126309684Y-86494093D01*
X126270192Y-86494093D01*
X126212293Y-86509607D01*
X126155452Y-86566447D01*
X126134647Y-86644093D01*
X125936384Y-86644093D01*
X125882882Y-86590588D01*
X125853742Y-86582032D01*
X125822725Y-86582032D01*
X125799320Y-86594812D01*
X125791983Y-86595600D01*
X125743491Y-86644093D01*
X125545229Y-86644093D01*
X125524424Y-86566448D01*
X125467583Y-86509607D01*
X125409684Y-86494093D01*
X125370192Y-86494093D01*
X125312293Y-86509607D01*
X125255452Y-86566447D01*
X125234647Y-86644093D01*
X125036385Y-86644093D01*
X125389938Y-86290540D01*
X125436383Y-86244093D01*
X126243490Y-86244093D01*
X127006598Y-87007200D01*
X127006599Y-87007200D01*
X127015273Y-86993396D01*
X127074815Y-86823233D01*
X127095000Y-86644092D01*
X127091609Y-86614000D01*
X169420353Y-86614000D01*
X169440834Y-86756457D01*
X169500623Y-86887374D01*
X169594870Y-86996141D01*
X169594872Y-86996143D01*
X169715947Y-87073953D01*
X169854039Y-87114500D01*
X169997961Y-87114500D01*
X170136053Y-87073953D01*
X170257128Y-86996143D01*
X170351377Y-86887373D01*
X170411165Y-86756457D01*
X170431647Y-86614000D01*
X170411165Y-86471543D01*
X170387830Y-86420448D01*
X170360224Y-86359999D01*
X179448815Y-86359999D01*
X179468313Y-86570429D01*
X179526145Y-86773687D01*
X179620343Y-86962861D01*
X179747698Y-87131507D01*
X179903869Y-87273875D01*
X179903871Y-87273876D01*
X179903872Y-87273877D01*
X180083547Y-87385128D01*
X180280605Y-87461468D01*
X180488336Y-87500300D01*
X180488338Y-87500300D01*
X180699662Y-87500300D01*
X180699664Y-87500300D01*
X180907395Y-87461468D01*
X181104453Y-87385128D01*
X181284128Y-87273877D01*
X181440302Y-87131506D01*
X181567656Y-86962862D01*
X181661853Y-86773689D01*
X181671285Y-86740539D01*
X181719686Y-86570429D01*
X181728849Y-86471542D01*
X181739185Y-86360000D01*
X181719686Y-86149573D01*
X181719686Y-86149570D01*
X181661854Y-85946312D01*
X181567656Y-85757138D01*
X181440301Y-85588492D01*
X181284130Y-85446124D01*
X181104451Y-85334871D01*
X180907395Y-85258532D01*
X180907394Y-85258532D01*
X180699664Y-85219700D01*
X180488336Y-85219700D01*
X180349848Y-85245588D01*
X180280604Y-85258532D01*
X180083548Y-85334871D01*
X179903869Y-85446124D01*
X179747698Y-85588492D01*
X179620343Y-85757138D01*
X179526145Y-85946312D01*
X179468313Y-86149570D01*
X179448815Y-86359999D01*
X170360224Y-86359999D01*
X170351376Y-86340625D01*
X170257129Y-86231858D01*
X170257128Y-86231857D01*
X170136053Y-86154047D01*
X169997961Y-86113500D01*
X169854039Y-86113500D01*
X169715947Y-86154047D01*
X169594870Y-86231858D01*
X169500623Y-86340625D01*
X169440834Y-86471542D01*
X169420353Y-86614000D01*
X127091609Y-86614000D01*
X127074815Y-86464954D01*
X127011864Y-86285048D01*
X127008303Y-86215269D01*
X127011864Y-86203138D01*
X127074815Y-86023231D01*
X127095000Y-85844092D01*
X127074815Y-85664952D01*
X127015273Y-85494789D01*
X127006598Y-85480984D01*
X126289938Y-86197646D01*
X126243491Y-86244093D01*
X126243490Y-86244093D01*
X125436383Y-86244093D01*
X125389938Y-86197647D01*
X125036385Y-85844093D01*
X125234647Y-85844093D01*
X125255452Y-85921738D01*
X125312293Y-85978579D01*
X125370192Y-85994093D01*
X125409684Y-85994093D01*
X125467583Y-85978579D01*
X125524424Y-85921739D01*
X125545229Y-85844093D01*
X125743491Y-85844093D01*
X125796994Y-85897596D01*
X125826134Y-85906153D01*
X125857152Y-85906153D01*
X125880559Y-85893373D01*
X125887894Y-85892584D01*
X125936384Y-85844093D01*
X126134647Y-85844093D01*
X126155452Y-85921738D01*
X126212293Y-85978579D01*
X126270192Y-85994093D01*
X126309684Y-85994093D01*
X126367583Y-85978579D01*
X126424424Y-85921739D01*
X126445229Y-85844093D01*
X126424424Y-85766448D01*
X126367583Y-85709607D01*
X126309684Y-85694093D01*
X126270192Y-85694093D01*
X126212293Y-85709607D01*
X126155452Y-85766447D01*
X126134647Y-85844093D01*
X125936384Y-85844093D01*
X125839938Y-85747646D01*
X125743491Y-85844093D01*
X125545229Y-85844093D01*
X125524424Y-85766448D01*
X125467583Y-85709607D01*
X125409684Y-85694093D01*
X125370192Y-85694093D01*
X125312293Y-85709607D01*
X125255452Y-85766447D01*
X125234647Y-85844093D01*
X125036385Y-85844093D01*
X124673276Y-85480983D01*
X124673276Y-85480984D01*
X124664602Y-85494789D01*
X124605060Y-85664952D01*
X124584875Y-85844093D01*
X124605060Y-86023233D01*
X124668011Y-86203138D01*
X124671572Y-86272917D01*
X124668011Y-86285046D01*
X124605060Y-86464952D01*
X124584875Y-86644093D01*
X123085106Y-86644093D01*
X123068178Y-86607026D01*
X122973931Y-86498259D01*
X122973930Y-86498258D01*
X122852855Y-86420448D01*
X122714763Y-86379901D01*
X122570841Y-86379901D01*
X122432749Y-86420448D01*
X122311672Y-86498259D01*
X122217425Y-86607026D01*
X122157636Y-86737943D01*
X122137155Y-86880400D01*
X122157636Y-87022858D01*
X122217424Y-87153773D01*
X122262331Y-87205599D01*
X122291355Y-87269155D01*
X122281411Y-87338313D01*
X122262331Y-87368003D01*
X122217424Y-87419828D01*
X122157636Y-87550743D01*
X122137155Y-87693200D01*
X114935000Y-87693200D01*
X114935000Y-86322054D01*
X115283028Y-86322054D01*
X115302526Y-86532483D01*
X115360358Y-86735741D01*
X115454556Y-86924915D01*
X115581911Y-87093561D01*
X115738082Y-87235929D01*
X115738084Y-87235930D01*
X115738085Y-87235931D01*
X115917760Y-87347182D01*
X116114818Y-87423522D01*
X116322549Y-87462354D01*
X116322551Y-87462354D01*
X116533875Y-87462354D01*
X116533877Y-87462354D01*
X116741608Y-87423522D01*
X116938666Y-87347182D01*
X117118341Y-87235931D01*
X117274515Y-87093560D01*
X117401869Y-86924916D01*
X117496066Y-86735743D01*
X117496067Y-86735741D01*
X117553899Y-86532483D01*
X117560156Y-86464954D01*
X117573398Y-86322054D01*
X117553899Y-86111627D01*
X117553899Y-86111624D01*
X117496067Y-85908366D01*
X117401869Y-85719192D01*
X117274514Y-85550546D01*
X117118343Y-85408178D01*
X116938664Y-85296925D01*
X116741608Y-85220586D01*
X116728539Y-85218143D01*
X116533877Y-85181754D01*
X116322549Y-85181754D01*
X116184061Y-85207641D01*
X116114817Y-85220586D01*
X115917761Y-85296925D01*
X115738082Y-85408178D01*
X115581911Y-85550546D01*
X115454556Y-85719192D01*
X115360358Y-85908366D01*
X115302526Y-86111624D01*
X115283028Y-86322054D01*
X114935000Y-86322054D01*
X114935000Y-85127432D01*
X125026828Y-85127432D01*
X125389936Y-85490540D01*
X125389937Y-85490540D01*
X125752256Y-85128221D01*
X125753351Y-85127623D01*
X125753267Y-85127570D01*
X125926605Y-85127570D01*
X125927618Y-85128221D01*
X126289938Y-85490540D01*
X126289939Y-85490540D01*
X126653046Y-85127431D01*
X126639242Y-85118758D01*
X126469078Y-85059215D01*
X126289937Y-85039030D01*
X126110797Y-85059215D01*
X125940632Y-85118758D01*
X125926605Y-85127570D01*
X125753267Y-85127570D01*
X125739241Y-85118757D01*
X125569078Y-85059215D01*
X125389938Y-85039030D01*
X125210797Y-85059215D01*
X125040634Y-85118757D01*
X125026829Y-85127431D01*
X125026828Y-85127432D01*
X114935000Y-85127432D01*
X114935000Y-84378821D01*
X114954685Y-84311782D01*
X115007489Y-84266027D01*
X115076647Y-84256083D01*
X115140203Y-84285108D01*
X115169999Y-84323547D01*
X115183087Y-84349831D01*
X115200557Y-84384917D01*
X115327911Y-84553561D01*
X115484082Y-84695929D01*
X115484084Y-84695930D01*
X115484085Y-84695931D01*
X115663760Y-84807182D01*
X115860818Y-84883522D01*
X116068549Y-84922354D01*
X116068551Y-84922354D01*
X116279875Y-84922354D01*
X116279877Y-84922354D01*
X116487608Y-84883522D01*
X116684666Y-84807182D01*
X116864341Y-84695931D01*
X116989319Y-84581999D01*
X154688353Y-84581999D01*
X154708834Y-84724457D01*
X154768623Y-84855374D01*
X154855383Y-84955500D01*
X154862872Y-84964143D01*
X154983947Y-85041953D01*
X155122039Y-85082500D01*
X155265961Y-85082500D01*
X155404053Y-85041953D01*
X155525128Y-84964143D01*
X155619377Y-84855373D01*
X155679165Y-84724457D01*
X155699647Y-84582000D01*
X155681387Y-84455000D01*
X156974353Y-84455000D01*
X156994834Y-84597457D01*
X157054623Y-84728374D01*
X157148870Y-84837141D01*
X157148872Y-84837143D01*
X157269947Y-84914953D01*
X157408039Y-84955500D01*
X157551961Y-84955500D01*
X157690053Y-84914953D01*
X157811128Y-84837143D01*
X157905377Y-84728373D01*
X157965165Y-84597457D01*
X157967387Y-84582000D01*
X163832353Y-84582000D01*
X163852834Y-84724457D01*
X163912623Y-84855374D01*
X163999383Y-84955500D01*
X164006872Y-84964143D01*
X164127947Y-85041953D01*
X164266039Y-85082500D01*
X164409961Y-85082500D01*
X164548053Y-85041953D01*
X164669128Y-84964143D01*
X164763377Y-84855373D01*
X164772225Y-84835999D01*
X168658353Y-84835999D01*
X168678834Y-84978457D01*
X168738623Y-85109374D01*
X168801341Y-85181754D01*
X168832872Y-85218143D01*
X168953947Y-85295953D01*
X169092039Y-85336500D01*
X169235961Y-85336500D01*
X169374053Y-85295953D01*
X169495128Y-85218143D01*
X169589377Y-85109373D01*
X169649165Y-84978457D01*
X169669647Y-84836000D01*
X169649165Y-84693543D01*
X169589377Y-84562627D01*
X169589376Y-84562626D01*
X169589376Y-84562625D01*
X169495129Y-84453858D01*
X169495128Y-84453857D01*
X169374053Y-84376047D01*
X169235961Y-84335500D01*
X169092039Y-84335500D01*
X168953947Y-84376047D01*
X168832870Y-84453858D01*
X168738623Y-84562625D01*
X168678834Y-84693542D01*
X168658353Y-84835999D01*
X164772225Y-84835999D01*
X164823165Y-84724457D01*
X164843647Y-84582000D01*
X164823165Y-84439543D01*
X164798217Y-84384916D01*
X164763376Y-84308625D01*
X164669129Y-84199858D01*
X164669128Y-84199857D01*
X164548053Y-84122047D01*
X164409961Y-84081500D01*
X164266039Y-84081500D01*
X164127947Y-84122047D01*
X164006870Y-84199858D01*
X163912623Y-84308625D01*
X163852834Y-84439542D01*
X163832353Y-84582000D01*
X157967387Y-84582000D01*
X157985647Y-84455000D01*
X157965165Y-84312543D01*
X157964817Y-84311782D01*
X157905376Y-84181625D01*
X157811129Y-84072858D01*
X157811128Y-84072857D01*
X157690053Y-83995047D01*
X157551961Y-83954500D01*
X157408039Y-83954500D01*
X157269947Y-83995047D01*
X157148870Y-84072858D01*
X157054623Y-84181625D01*
X156994834Y-84312542D01*
X156974353Y-84455000D01*
X155681387Y-84455000D01*
X155679165Y-84439543D01*
X155654217Y-84384916D01*
X155619376Y-84308625D01*
X155525129Y-84199858D01*
X155525128Y-84199857D01*
X155404053Y-84122047D01*
X155265961Y-84081500D01*
X155122039Y-84081500D01*
X154983947Y-84122047D01*
X154862870Y-84199858D01*
X154768623Y-84308625D01*
X154708834Y-84439542D01*
X154688353Y-84581999D01*
X116989319Y-84581999D01*
X117020515Y-84553560D01*
X117147869Y-84384916D01*
X117242066Y-84195743D01*
X117242067Y-84195741D01*
X117298087Y-83998850D01*
X125437701Y-83998850D01*
X125458182Y-84141307D01*
X125517971Y-84272224D01*
X125572800Y-84335500D01*
X125612220Y-84380993D01*
X125733295Y-84458803D01*
X125871387Y-84499350D01*
X126015309Y-84499350D01*
X126153401Y-84458803D01*
X126274476Y-84380993D01*
X126368725Y-84272223D01*
X126428513Y-84141307D01*
X126432675Y-84112358D01*
X126449070Y-84076458D01*
X131322811Y-84076458D01*
X131343292Y-84218915D01*
X131403081Y-84349832D01*
X131497328Y-84458599D01*
X131497330Y-84458601D01*
X131618405Y-84536411D01*
X131756497Y-84576958D01*
X131900419Y-84576958D01*
X132038511Y-84536411D01*
X132159586Y-84458601D01*
X132253835Y-84349831D01*
X132313623Y-84218915D01*
X132334105Y-84076458D01*
X132313623Y-83934001D01*
X132305970Y-83917244D01*
X132273159Y-83845400D01*
X139143553Y-83845400D01*
X139164034Y-83987857D01*
X139223823Y-84118774D01*
X139290517Y-84195743D01*
X139318072Y-84227543D01*
X139439147Y-84305353D01*
X139577239Y-84345900D01*
X139721161Y-84345900D01*
X139859253Y-84305353D01*
X139980328Y-84227543D01*
X140074577Y-84118773D01*
X140134365Y-83987857D01*
X140154847Y-83845400D01*
X140134365Y-83702943D01*
X140130425Y-83694316D01*
X140074576Y-83572025D01*
X139980329Y-83463258D01*
X139980328Y-83463257D01*
X139859253Y-83385447D01*
X139721161Y-83344900D01*
X139577239Y-83344900D01*
X139439147Y-83385447D01*
X139318070Y-83463258D01*
X139223823Y-83572025D01*
X139164034Y-83702942D01*
X139143553Y-83845400D01*
X132273159Y-83845400D01*
X132261559Y-83819999D01*
X132253835Y-83803085D01*
X132253834Y-83803084D01*
X132253834Y-83803083D01*
X132159587Y-83694316D01*
X132159586Y-83694315D01*
X132038511Y-83616505D01*
X131900419Y-83575958D01*
X131756497Y-83575958D01*
X131618405Y-83616505D01*
X131497328Y-83694316D01*
X131403081Y-83803083D01*
X131343292Y-83934000D01*
X131322811Y-84076458D01*
X126449070Y-84076458D01*
X126461699Y-84048803D01*
X126520477Y-84011027D01*
X126590343Y-84011026D01*
X126674039Y-84035601D01*
X126817961Y-84035601D01*
X126956053Y-83995054D01*
X127077128Y-83917244D01*
X127171377Y-83808474D01*
X127231165Y-83677558D01*
X127251647Y-83535101D01*
X127231165Y-83392644D01*
X127227878Y-83385447D01*
X127219084Y-83366190D01*
X127565584Y-83366190D01*
X127586065Y-83508648D01*
X127645854Y-83639565D01*
X127720297Y-83725477D01*
X127740103Y-83748334D01*
X127861178Y-83826144D01*
X127999270Y-83866691D01*
X128143192Y-83866691D01*
X128281284Y-83826144D01*
X128402359Y-83748334D01*
X128496608Y-83639564D01*
X128556396Y-83508648D01*
X128576878Y-83366191D01*
X128556396Y-83223734D01*
X128496608Y-83092818D01*
X128496607Y-83092817D01*
X128496607Y-83092816D01*
X128402360Y-82984049D01*
X128402359Y-82984048D01*
X128281284Y-82906238D01*
X128143192Y-82865691D01*
X127999270Y-82865691D01*
X127861178Y-82906238D01*
X127740101Y-82984049D01*
X127645854Y-83092816D01*
X127586065Y-83223733D01*
X127565584Y-83366190D01*
X127219084Y-83366190D01*
X127171376Y-83261726D01*
X127077129Y-83152959D01*
X127077128Y-83152958D01*
X126956053Y-83075148D01*
X126817961Y-83034601D01*
X126674039Y-83034601D01*
X126535947Y-83075148D01*
X126414870Y-83152959D01*
X126320623Y-83261726D01*
X126260834Y-83392643D01*
X126256672Y-83421594D01*
X126227646Y-83485150D01*
X126168868Y-83522924D01*
X126099000Y-83522923D01*
X126015310Y-83498350D01*
X126015309Y-83498350D01*
X125871387Y-83498350D01*
X125733295Y-83538897D01*
X125612218Y-83616708D01*
X125517971Y-83725475D01*
X125458182Y-83856392D01*
X125437701Y-83998850D01*
X117298087Y-83998850D01*
X117299899Y-83992483D01*
X117312509Y-83856393D01*
X117319398Y-83782054D01*
X117302607Y-83600852D01*
X117299899Y-83571624D01*
X117242067Y-83368366D01*
X117147869Y-83179192D01*
X117020514Y-83010546D01*
X116864343Y-82868178D01*
X116760691Y-82803999D01*
X138432353Y-82803999D01*
X138452834Y-82946457D01*
X138512623Y-83077374D01*
X138554172Y-83125324D01*
X138606872Y-83186143D01*
X138727947Y-83263953D01*
X138866039Y-83304500D01*
X139009961Y-83304500D01*
X139148053Y-83263953D01*
X139269128Y-83186143D01*
X139363377Y-83077373D01*
X139423165Y-82946457D01*
X139443647Y-82804000D01*
X139423165Y-82661543D01*
X139421565Y-82658040D01*
X139372224Y-82549999D01*
X151132353Y-82549999D01*
X151152834Y-82692457D01*
X151212623Y-82823374D01*
X151284425Y-82906238D01*
X151306872Y-82932143D01*
X151427947Y-83009953D01*
X151566039Y-83050500D01*
X151709961Y-83050500D01*
X151848053Y-83009953D01*
X151969128Y-82932143D01*
X152063377Y-82823373D01*
X152123165Y-82692457D01*
X152127059Y-82665372D01*
X173287363Y-82665372D01*
X173307844Y-82807829D01*
X173367633Y-82938746D01*
X173429848Y-83010546D01*
X173461882Y-83047515D01*
X173582957Y-83125325D01*
X173721049Y-83165872D01*
X173864971Y-83165872D01*
X174003063Y-83125325D01*
X174124138Y-83047515D01*
X174218387Y-82938745D01*
X174278175Y-82807829D01*
X174298657Y-82665372D01*
X174278175Y-82522915D01*
X174250074Y-82461384D01*
X174218386Y-82391997D01*
X174124139Y-82283230D01*
X174124138Y-82283229D01*
X174003063Y-82205419D01*
X173864971Y-82164872D01*
X173721049Y-82164872D01*
X173582957Y-82205419D01*
X173461880Y-82283230D01*
X173367633Y-82391997D01*
X173307844Y-82522914D01*
X173287363Y-82665372D01*
X152127059Y-82665372D01*
X152143647Y-82550000D01*
X152123165Y-82407543D01*
X152120654Y-82402045D01*
X152072908Y-82297497D01*
X152063377Y-82276627D01*
X152063376Y-82276626D01*
X152063376Y-82276625D01*
X151969129Y-82167858D01*
X151969128Y-82167857D01*
X151848053Y-82090047D01*
X151709961Y-82049500D01*
X151566039Y-82049500D01*
X151427947Y-82090047D01*
X151306870Y-82167858D01*
X151212623Y-82276625D01*
X151152834Y-82407542D01*
X151132353Y-82549999D01*
X139372224Y-82549999D01*
X139363376Y-82530625D01*
X139269129Y-82421858D01*
X139269128Y-82421857D01*
X139148053Y-82344047D01*
X139009961Y-82303500D01*
X138866039Y-82303500D01*
X138727947Y-82344047D01*
X138727946Y-82344047D01*
X138710841Y-82349070D01*
X138710720Y-82348659D01*
X138662179Y-82362910D01*
X138595140Y-82343222D01*
X138593524Y-82341357D01*
X138601645Y-82397825D01*
X138572623Y-82461381D01*
X138572621Y-82461384D01*
X138512622Y-82530627D01*
X138452834Y-82661542D01*
X138432353Y-82803999D01*
X116760691Y-82803999D01*
X116684664Y-82756925D01*
X116487608Y-82680586D01*
X116482868Y-82679700D01*
X116279877Y-82641754D01*
X116068549Y-82641754D01*
X115942205Y-82665372D01*
X115860817Y-82680586D01*
X115663761Y-82756925D01*
X115484082Y-82868178D01*
X115327911Y-83010546D01*
X115200556Y-83179192D01*
X115170000Y-83240558D01*
X115122497Y-83291795D01*
X115054834Y-83309216D01*
X114988494Y-83287290D01*
X114944539Y-83232979D01*
X114935000Y-83185286D01*
X114935000Y-81815093D01*
X137697446Y-81815093D01*
X137717927Y-81957550D01*
X137777716Y-82088467D01*
X137846508Y-82167857D01*
X137871965Y-82197236D01*
X137993040Y-82275046D01*
X138131132Y-82315593D01*
X138275054Y-82315593D01*
X138413146Y-82275046D01*
X138413146Y-82275045D01*
X138430252Y-82270023D01*
X138430372Y-82270433D01*
X138478903Y-82256182D01*
X138545943Y-82275864D01*
X138547565Y-82277736D01*
X138539448Y-82221257D01*
X138568471Y-82157708D01*
X138628470Y-82088466D01*
X138688258Y-81957550D01*
X138708740Y-81815093D01*
X138688258Y-81672636D01*
X138628470Y-81541720D01*
X138628469Y-81541719D01*
X138628469Y-81541718D01*
X138534222Y-81432951D01*
X138534221Y-81432950D01*
X138413146Y-81355140D01*
X138275054Y-81314593D01*
X138131132Y-81314593D01*
X137993040Y-81355140D01*
X137871963Y-81432951D01*
X137777716Y-81541718D01*
X137717927Y-81672635D01*
X137697446Y-81815093D01*
X114935000Y-81815093D01*
X114935000Y-81088184D01*
X116294366Y-81088184D01*
X116367103Y-81139115D01*
X116573077Y-81235162D01*
X116792599Y-81293983D01*
X117018999Y-81313791D01*
X117245400Y-81293983D01*
X117464922Y-81235162D01*
X117670893Y-81139116D01*
X117743632Y-81088184D01*
X117719006Y-81063558D01*
X139358912Y-81063558D01*
X139379393Y-81206016D01*
X139439182Y-81336933D01*
X139533429Y-81445700D01*
X139533431Y-81445702D01*
X139654506Y-81523512D01*
X139792598Y-81564059D01*
X139936518Y-81564059D01*
X139936520Y-81564059D01*
X140024759Y-81538150D01*
X140094624Y-81538150D01*
X140153402Y-81575924D01*
X140182428Y-81639479D01*
X140172485Y-81708638D01*
X140130927Y-81799636D01*
X140110446Y-81942093D01*
X140130927Y-82084550D01*
X140190716Y-82215467D01*
X140249433Y-82283230D01*
X140284965Y-82324236D01*
X140406040Y-82402046D01*
X140544132Y-82442593D01*
X140688054Y-82442593D01*
X140826146Y-82402046D01*
X140947221Y-82324236D01*
X141041470Y-82215466D01*
X141101258Y-82084550D01*
X141121740Y-81942093D01*
X141101258Y-81799636D01*
X141078182Y-81749108D01*
X141041469Y-81668718D01*
X140947222Y-81559951D01*
X140947221Y-81559950D01*
X140906842Y-81534000D01*
X174500353Y-81534000D01*
X174520834Y-81676457D01*
X174580623Y-81807374D01*
X174587311Y-81815092D01*
X174674872Y-81916143D01*
X174795947Y-81993953D01*
X174934039Y-82034500D01*
X175077961Y-82034500D01*
X175216053Y-81993953D01*
X175337128Y-81916143D01*
X175431377Y-81807373D01*
X175491165Y-81676457D01*
X175511647Y-81534000D01*
X175491165Y-81391543D01*
X175440224Y-81280000D01*
X179149264Y-81280000D01*
X179168968Y-81517790D01*
X179227546Y-81749108D01*
X179323393Y-81967620D01*
X179414056Y-82106389D01*
X179414057Y-82106389D01*
X180104477Y-81415968D01*
X180127155Y-81493201D01*
X180206131Y-81616090D01*
X180316530Y-81711752D01*
X180449408Y-81772435D01*
X180454399Y-81773152D01*
X179766839Y-82460711D01*
X179766840Y-82460712D01*
X179803804Y-82489483D01*
X180013659Y-82603051D01*
X180173837Y-82658040D01*
X180230853Y-82698425D01*
X180256984Y-82763225D01*
X180243933Y-82831865D01*
X180198854Y-82880747D01*
X180157871Y-82906123D01*
X180001698Y-83048492D01*
X179874343Y-83217138D01*
X179780145Y-83406312D01*
X179722313Y-83609570D01*
X179702815Y-83819999D01*
X179722313Y-84030429D01*
X179780145Y-84233687D01*
X179874343Y-84422861D01*
X180001698Y-84591507D01*
X180157869Y-84733875D01*
X180157871Y-84733876D01*
X180157872Y-84733877D01*
X180337547Y-84845128D01*
X180534605Y-84921468D01*
X180742336Y-84960300D01*
X180742338Y-84960300D01*
X180953662Y-84960300D01*
X180953664Y-84960300D01*
X181161395Y-84921468D01*
X181358453Y-84845128D01*
X181538128Y-84733877D01*
X181694302Y-84591506D01*
X181821656Y-84422862D01*
X181915853Y-84233689D01*
X181917602Y-84227543D01*
X181973686Y-84030429D01*
X181977631Y-83987857D01*
X181993185Y-83820000D01*
X181974347Y-83616707D01*
X181973686Y-83609570D01*
X181915854Y-83406312D01*
X181821656Y-83217138D01*
X181694301Y-83048492D01*
X181538130Y-82906124D01*
X181358453Y-82794872D01*
X181358452Y-82794872D01*
X181294828Y-82770224D01*
X181239429Y-82727652D01*
X181215838Y-82661885D01*
X181231549Y-82593805D01*
X181280607Y-82545543D01*
X181384193Y-82489485D01*
X181421158Y-82460712D01*
X181421158Y-82460711D01*
X180733599Y-81773152D01*
X180738592Y-81772435D01*
X180871470Y-81711752D01*
X180981869Y-81616090D01*
X181060845Y-81493201D01*
X181083522Y-81415968D01*
X181773941Y-82106389D01*
X181864605Y-81967619D01*
X181960453Y-81749108D01*
X182019031Y-81517790D01*
X182038735Y-81280000D01*
X182019031Y-81042209D01*
X181960453Y-80810891D01*
X181864605Y-80592380D01*
X181773941Y-80453609D01*
X181083521Y-81144029D01*
X181060845Y-81066799D01*
X180981869Y-80943910D01*
X180871470Y-80848248D01*
X180738592Y-80787565D01*
X180733600Y-80786847D01*
X181421159Y-80099288D01*
X181421158Y-80099286D01*
X181384197Y-80070518D01*
X181280605Y-80014456D01*
X181231015Y-79965236D01*
X181215907Y-79897020D01*
X181240077Y-79831464D01*
X181294828Y-79789776D01*
X181358453Y-79765128D01*
X181538128Y-79653877D01*
X181694302Y-79511506D01*
X181821656Y-79342862D01*
X181915853Y-79153689D01*
X181925479Y-79119857D01*
X181973686Y-78950429D01*
X181980130Y-78880883D01*
X181993185Y-78740000D01*
X181973686Y-78529573D01*
X181973686Y-78529570D01*
X181915854Y-78326312D01*
X181821656Y-78137138D01*
X181694301Y-77968492D01*
X181538130Y-77826124D01*
X181358451Y-77714871D01*
X181161395Y-77638532D01*
X180953664Y-77599700D01*
X180742336Y-77599700D01*
X180603848Y-77625588D01*
X180534604Y-77638532D01*
X180337548Y-77714871D01*
X180157869Y-77826124D01*
X180001698Y-77968492D01*
X179874343Y-78137138D01*
X179780145Y-78326312D01*
X179722313Y-78529570D01*
X179702815Y-78740000D01*
X179722313Y-78950429D01*
X179780145Y-79153687D01*
X179874343Y-79342861D01*
X180001698Y-79511507D01*
X180157871Y-79653877D01*
X180198852Y-79679251D01*
X180245488Y-79731279D01*
X180256592Y-79800261D01*
X180228639Y-79864295D01*
X180173838Y-79901959D01*
X180013661Y-79956948D01*
X179803803Y-80070517D01*
X179766840Y-80099287D01*
X180454400Y-80786847D01*
X180449408Y-80787565D01*
X180316530Y-80848248D01*
X180206131Y-80943910D01*
X180127155Y-81066799D01*
X180104477Y-81144030D01*
X179414057Y-80453609D01*
X179323391Y-80592384D01*
X179227546Y-80810891D01*
X179168968Y-81042209D01*
X179149264Y-81280000D01*
X175440224Y-81280000D01*
X175431377Y-81260627D01*
X175339668Y-81154788D01*
X175310644Y-81091232D01*
X175320588Y-81022074D01*
X175354404Y-80983047D01*
X175354317Y-80982971D01*
X175460240Y-80860727D01*
X175460239Y-80860727D01*
X175460241Y-80860726D01*
X175520029Y-80729810D01*
X175540511Y-80587353D01*
X175520029Y-80444896D01*
X175510092Y-80423138D01*
X175460240Y-80313978D01*
X175365993Y-80205211D01*
X175365992Y-80205210D01*
X175244917Y-80127400D01*
X175106825Y-80086853D01*
X174962903Y-80086853D01*
X174824811Y-80127400D01*
X174703734Y-80205211D01*
X174609487Y-80313978D01*
X174549698Y-80444895D01*
X174529217Y-80587352D01*
X174549698Y-80729810D01*
X174609486Y-80860725D01*
X174701195Y-80966564D01*
X174730219Y-81030120D01*
X174720275Y-81099278D01*
X174686458Y-81138305D01*
X174686547Y-81138382D01*
X174580623Y-81260625D01*
X174520834Y-81391542D01*
X174500353Y-81534000D01*
X140906842Y-81534000D01*
X140826146Y-81482140D01*
X140688054Y-81441593D01*
X140544132Y-81441593D01*
X140544131Y-81441593D01*
X140455895Y-81467501D01*
X140386026Y-81467501D01*
X140327248Y-81429726D01*
X140298223Y-81366171D01*
X140308167Y-81297012D01*
X140349724Y-81206016D01*
X140357089Y-81154788D01*
X140370206Y-81063559D01*
X140352114Y-80937727D01*
X140349724Y-80921101D01*
X140289935Y-80790184D01*
X140195688Y-80681417D01*
X140195687Y-80681416D01*
X140074612Y-80603606D01*
X139936520Y-80563059D01*
X139792598Y-80563059D01*
X139654506Y-80603606D01*
X139533429Y-80681417D01*
X139439182Y-80790184D01*
X139379393Y-80921101D01*
X139358912Y-81063558D01*
X117719006Y-81063558D01*
X117019000Y-80363553D01*
X116294366Y-81088184D01*
X114935000Y-81088184D01*
X114935000Y-80010000D01*
X115715208Y-80010000D01*
X115735016Y-80236400D01*
X115793837Y-80455922D01*
X115889884Y-80661897D01*
X115940813Y-80734631D01*
X115940815Y-80734632D01*
X116636206Y-80039240D01*
X116666130Y-80039240D01*
X116694744Y-80152232D01*
X116758496Y-80249811D01*
X116850477Y-80321403D01*
X116960721Y-80359250D01*
X117047939Y-80359250D01*
X117133969Y-80344894D01*
X117236480Y-80289418D01*
X117315423Y-80203663D01*
X117362244Y-80096921D01*
X117369447Y-80010001D01*
X117372553Y-80010001D01*
X118097184Y-80734632D01*
X118105974Y-80722079D01*
X118160550Y-80678454D01*
X118230048Y-80671260D01*
X118292403Y-80702782D01*
X118303401Y-80714536D01*
X118307928Y-80720052D01*
X118460096Y-80844933D01*
X118633703Y-80937727D01*
X118822077Y-80994870D01*
X119017980Y-81014165D01*
X119213883Y-80994870D01*
X119402257Y-80937727D01*
X119575864Y-80844933D01*
X119728032Y-80720052D01*
X119852913Y-80567884D01*
X119908113Y-80464610D01*
X119957073Y-80414768D01*
X120025211Y-80399307D01*
X120090891Y-80423138D01*
X120126826Y-80464610D01*
X120151355Y-80510500D01*
X120182027Y-80567885D01*
X120211343Y-80603606D01*
X120306908Y-80720052D01*
X120459076Y-80844933D01*
X120632683Y-80937727D01*
X120821057Y-80994870D01*
X121016960Y-81014165D01*
X121212863Y-80994870D01*
X121401237Y-80937727D01*
X121574844Y-80844933D01*
X121727012Y-80720052D01*
X121851893Y-80567884D01*
X121907093Y-80464610D01*
X121956053Y-80414768D01*
X122024191Y-80399307D01*
X122089871Y-80423138D01*
X122125806Y-80464610D01*
X122150335Y-80510500D01*
X122181007Y-80567885D01*
X122210323Y-80603606D01*
X122305888Y-80720052D01*
X122458056Y-80844933D01*
X122631663Y-80937727D01*
X122820037Y-80994870D01*
X123015940Y-81014165D01*
X123211843Y-80994870D01*
X123400217Y-80937727D01*
X123573824Y-80844933D01*
X123725992Y-80720052D01*
X123850873Y-80567884D01*
X123906073Y-80464610D01*
X123955033Y-80414768D01*
X124023171Y-80399307D01*
X124088851Y-80423138D01*
X124124786Y-80464610D01*
X124149315Y-80510500D01*
X124179987Y-80567885D01*
X124209303Y-80603606D01*
X124304868Y-80720052D01*
X124457036Y-80844933D01*
X124630643Y-80937727D01*
X124819017Y-80994870D01*
X125014920Y-81014165D01*
X125210823Y-80994870D01*
X125399197Y-80937727D01*
X125572804Y-80844933D01*
X125724972Y-80720052D01*
X125849853Y-80567884D01*
X125879189Y-80513000D01*
X126916084Y-80513000D01*
X126936565Y-80655457D01*
X126996354Y-80786374D01*
X127072926Y-80874743D01*
X127090603Y-80895143D01*
X127211678Y-80972953D01*
X127349770Y-81013500D01*
X127493692Y-81013500D01*
X127631784Y-80972953D01*
X127752859Y-80895143D01*
X127847108Y-80786373D01*
X127906896Y-80655457D01*
X127927378Y-80513000D01*
X127924445Y-80492599D01*
X137187753Y-80492599D01*
X137208234Y-80635057D01*
X137268023Y-80765974D01*
X137339314Y-80848248D01*
X137362272Y-80874743D01*
X137483347Y-80952553D01*
X137621439Y-80993100D01*
X137765361Y-80993100D01*
X137903453Y-80952553D01*
X138024528Y-80874743D01*
X138118777Y-80765973D01*
X138178565Y-80635057D01*
X138199047Y-80492600D01*
X138178565Y-80350143D01*
X138118777Y-80219227D01*
X138118776Y-80219226D01*
X138118776Y-80219225D01*
X138024529Y-80110458D01*
X138024528Y-80110457D01*
X137903453Y-80032647D01*
X137765361Y-79992100D01*
X137621439Y-79992100D01*
X137483347Y-80032647D01*
X137362270Y-80110458D01*
X137268023Y-80219225D01*
X137208234Y-80350142D01*
X137187753Y-80492599D01*
X127924445Y-80492599D01*
X127906896Y-80370543D01*
X127895182Y-80344894D01*
X127847107Y-80239625D01*
X127752860Y-80130858D01*
X127752859Y-80130857D01*
X127670967Y-80078228D01*
X127625213Y-80025425D01*
X127615269Y-79956266D01*
X127644294Y-79892711D01*
X127703072Y-79854936D01*
X127727309Y-79851451D01*
X127732547Y-79849913D01*
X127732548Y-79849913D01*
X127870640Y-79809366D01*
X127991715Y-79731556D01*
X128085964Y-79622786D01*
X128105800Y-79579352D01*
X139119306Y-79579352D01*
X139139787Y-79721810D01*
X139199576Y-79852727D01*
X139289293Y-79956266D01*
X139293825Y-79961496D01*
X139414900Y-80039306D01*
X139552992Y-80079853D01*
X139696914Y-80079853D01*
X139835006Y-80039306D01*
X139880607Y-80010000D01*
X149354353Y-80010000D01*
X149354994Y-80014456D01*
X149374834Y-80152457D01*
X149434623Y-80283374D01*
X149528870Y-80392141D01*
X149528872Y-80392143D01*
X149649947Y-80469953D01*
X149788039Y-80510500D01*
X149931961Y-80510500D01*
X150070053Y-80469953D01*
X150191128Y-80392143D01*
X150285377Y-80283373D01*
X150345165Y-80152457D01*
X150365647Y-80010000D01*
X150345165Y-79867543D01*
X150338398Y-79852726D01*
X150285376Y-79736625D01*
X150264038Y-79712000D01*
X168033853Y-79712000D01*
X168054334Y-79854457D01*
X168114123Y-79985374D01*
X168202055Y-80086853D01*
X168208372Y-80094143D01*
X168329447Y-80171953D01*
X168467539Y-80212500D01*
X168611461Y-80212500D01*
X168749553Y-80171953D01*
X168870628Y-80094143D01*
X168964877Y-79985373D01*
X169024665Y-79854457D01*
X169045147Y-79712000D01*
X169027239Y-79587449D01*
X169024665Y-79569542D01*
X168993819Y-79502000D01*
X178401853Y-79502000D01*
X178422334Y-79644457D01*
X178482123Y-79775374D01*
X178561987Y-79867542D01*
X178576372Y-79884143D01*
X178697447Y-79961953D01*
X178835539Y-80002500D01*
X178979461Y-80002500D01*
X179117553Y-79961953D01*
X179238628Y-79884143D01*
X179332877Y-79775373D01*
X179392665Y-79644457D01*
X179413147Y-79502000D01*
X179392665Y-79359543D01*
X179392008Y-79358105D01*
X179332876Y-79228625D01*
X179238629Y-79119858D01*
X179238628Y-79119857D01*
X179117553Y-79042047D01*
X178979461Y-79001500D01*
X178835539Y-79001500D01*
X178697447Y-79042047D01*
X178576370Y-79119858D01*
X178482123Y-79228625D01*
X178422334Y-79359542D01*
X178401853Y-79502000D01*
X168993819Y-79502000D01*
X168964876Y-79438625D01*
X168870629Y-79329858D01*
X168870628Y-79329857D01*
X168749553Y-79252047D01*
X168611461Y-79211500D01*
X168467539Y-79211500D01*
X168329447Y-79252047D01*
X168208370Y-79329858D01*
X168114123Y-79438625D01*
X168054334Y-79569542D01*
X168033853Y-79712000D01*
X150264038Y-79712000D01*
X150191129Y-79627858D01*
X150191128Y-79627857D01*
X150070053Y-79550047D01*
X149931961Y-79509500D01*
X149788039Y-79509500D01*
X149649947Y-79550047D01*
X149528870Y-79627858D01*
X149434623Y-79736625D01*
X149374834Y-79867542D01*
X149355431Y-80002500D01*
X149354353Y-80010000D01*
X139880607Y-80010000D01*
X139956081Y-79961496D01*
X140050330Y-79852726D01*
X140110118Y-79721810D01*
X140130600Y-79579353D01*
X140110118Y-79436896D01*
X140070165Y-79349413D01*
X140050329Y-79305978D01*
X139956082Y-79197211D01*
X139956081Y-79197210D01*
X139835006Y-79119400D01*
X139696914Y-79078853D01*
X139552992Y-79078853D01*
X139414900Y-79119400D01*
X139293823Y-79197211D01*
X139199576Y-79305978D01*
X139139787Y-79436895D01*
X139119306Y-79579352D01*
X128105800Y-79579352D01*
X128145752Y-79491870D01*
X128166234Y-79349413D01*
X128145752Y-79206956D01*
X128141301Y-79197210D01*
X128092144Y-79089573D01*
X128085964Y-79076040D01*
X128085963Y-79076039D01*
X128085963Y-79076038D01*
X127991716Y-78967271D01*
X127991715Y-78967270D01*
X127870640Y-78889460D01*
X127732548Y-78848913D01*
X127588626Y-78848913D01*
X127450534Y-78889460D01*
X127329457Y-78967271D01*
X127235210Y-79076038D01*
X127175421Y-79206955D01*
X127154940Y-79349413D01*
X127175421Y-79491870D01*
X127235210Y-79622787D01*
X127321014Y-79721810D01*
X127329459Y-79731556D01*
X127410440Y-79783599D01*
X127411350Y-79784184D01*
X127457105Y-79836988D01*
X127467049Y-79906147D01*
X127438024Y-79969702D01*
X127379246Y-80007477D01*
X127355008Y-80010961D01*
X127211678Y-80053047D01*
X127090601Y-80130858D01*
X126996354Y-80239625D01*
X126936565Y-80370542D01*
X126916084Y-80513000D01*
X125879189Y-80513000D01*
X125942647Y-80394277D01*
X125999790Y-80205903D01*
X126019085Y-80010000D01*
X125999790Y-79814097D01*
X125942647Y-79625723D01*
X125849853Y-79452116D01*
X125724972Y-79299948D01*
X125572804Y-79175067D01*
X125399197Y-79082273D01*
X125399194Y-79082272D01*
X125399192Y-79082271D01*
X125210824Y-79025130D01*
X125014920Y-79005835D01*
X124819015Y-79025130D01*
X124630647Y-79082271D01*
X124630643Y-79082272D01*
X124630643Y-79082273D01*
X124457036Y-79175067D01*
X124457034Y-79175068D01*
X124457033Y-79175069D01*
X124304868Y-79299948D01*
X124179989Y-79452113D01*
X124179988Y-79452114D01*
X124179987Y-79452116D01*
X124124786Y-79555389D01*
X124075826Y-79605231D01*
X124007689Y-79620692D01*
X123942009Y-79596861D01*
X123906073Y-79555389D01*
X123850873Y-79452116D01*
X123725992Y-79299948D01*
X123573824Y-79175067D01*
X123400217Y-79082273D01*
X123400214Y-79082272D01*
X123400212Y-79082271D01*
X123211844Y-79025130D01*
X123113891Y-79015482D01*
X123015940Y-79005835D01*
X123015939Y-79005835D01*
X122820035Y-79025130D01*
X122631667Y-79082271D01*
X122631663Y-79082272D01*
X122631663Y-79082273D01*
X122458056Y-79175067D01*
X122458054Y-79175068D01*
X122458053Y-79175069D01*
X122305888Y-79299948D01*
X122181006Y-79452117D01*
X122125807Y-79555387D01*
X122076845Y-79605232D01*
X122008707Y-79620692D01*
X121943027Y-79596860D01*
X121907093Y-79555390D01*
X121851893Y-79452116D01*
X121727012Y-79299948D01*
X121574844Y-79175067D01*
X121401237Y-79082273D01*
X121401234Y-79082272D01*
X121401232Y-79082271D01*
X121212864Y-79025130D01*
X121016960Y-79005835D01*
X120821055Y-79025130D01*
X120632687Y-79082271D01*
X120632683Y-79082272D01*
X120632683Y-79082273D01*
X120459076Y-79175067D01*
X120459074Y-79175068D01*
X120459073Y-79175069D01*
X120306908Y-79299948D01*
X120182026Y-79452117D01*
X120126827Y-79555387D01*
X120077865Y-79605232D01*
X120009727Y-79620692D01*
X119944047Y-79596860D01*
X119908113Y-79555390D01*
X119852913Y-79452116D01*
X119728032Y-79299948D01*
X119575864Y-79175067D01*
X119402257Y-79082273D01*
X119402254Y-79082272D01*
X119402252Y-79082271D01*
X119213884Y-79025130D01*
X119115931Y-79015482D01*
X119017980Y-79005835D01*
X119017979Y-79005835D01*
X118822075Y-79025130D01*
X118633707Y-79082271D01*
X118633703Y-79082272D01*
X118633703Y-79082273D01*
X118460096Y-79175067D01*
X118460094Y-79175068D01*
X118460093Y-79175069D01*
X118307925Y-79299950D01*
X118303397Y-79305467D01*
X118245649Y-79344798D01*
X118175804Y-79346664D01*
X118116038Y-79310473D01*
X118105974Y-79297919D01*
X118097185Y-79285367D01*
X118097184Y-79285366D01*
X117372553Y-80009999D01*
X117372553Y-80010001D01*
X117369447Y-80010001D01*
X117371870Y-79980760D01*
X117343256Y-79867768D01*
X117279504Y-79770189D01*
X117187523Y-79698597D01*
X117077279Y-79660750D01*
X116990061Y-79660750D01*
X116904031Y-79675106D01*
X116801520Y-79730582D01*
X116722577Y-79816337D01*
X116675756Y-79923079D01*
X116666130Y-80039240D01*
X116636206Y-80039240D01*
X116665446Y-80010000D01*
X116665447Y-80009999D01*
X115940813Y-79285366D01*
X115889883Y-79358105D01*
X115793837Y-79564077D01*
X115735016Y-79783599D01*
X115715208Y-80010000D01*
X114935000Y-80010000D01*
X114935000Y-78931813D01*
X116294367Y-78931813D01*
X117019000Y-79656446D01*
X117743632Y-78931814D01*
X117743632Y-78931813D01*
X117670897Y-78880884D01*
X117532181Y-78816200D01*
X137898953Y-78816200D01*
X137919434Y-78958657D01*
X137979223Y-79089574D01*
X138034779Y-79153689D01*
X138073472Y-79198343D01*
X138194547Y-79276153D01*
X138332639Y-79316700D01*
X138476561Y-79316700D01*
X138614653Y-79276153D01*
X138735728Y-79198343D01*
X138829977Y-79089573D01*
X138889765Y-78958657D01*
X138910247Y-78816200D01*
X138889765Y-78673743D01*
X138829977Y-78542827D01*
X138829976Y-78542826D01*
X138829976Y-78542825D01*
X138735729Y-78434058D01*
X138735728Y-78434057D01*
X138614653Y-78356247D01*
X138476561Y-78315700D01*
X138332639Y-78315700D01*
X138194547Y-78356247D01*
X138073470Y-78434058D01*
X137979223Y-78542825D01*
X137919434Y-78673742D01*
X137898953Y-78816200D01*
X117532181Y-78816200D01*
X117464922Y-78784837D01*
X117245400Y-78726016D01*
X117018999Y-78706208D01*
X116792599Y-78726016D01*
X116573077Y-78784837D01*
X116367105Y-78880883D01*
X116294367Y-78931813D01*
X114935000Y-78931813D01*
X114935000Y-76708000D01*
X140718353Y-76708000D01*
X140738834Y-76850457D01*
X140798623Y-76981374D01*
X140892870Y-77090141D01*
X140892872Y-77090143D01*
X141013947Y-77167953D01*
X141152039Y-77208500D01*
X141295961Y-77208500D01*
X141434053Y-77167953D01*
X141555128Y-77090143D01*
X141649377Y-76981373D01*
X141709165Y-76850457D01*
X141729647Y-76708000D01*
X141709165Y-76565543D01*
X141649377Y-76434627D01*
X141649376Y-76434626D01*
X141649376Y-76434625D01*
X141555129Y-76325858D01*
X141555128Y-76325857D01*
X141434053Y-76248047D01*
X141295961Y-76207500D01*
X141152039Y-76207500D01*
X141013947Y-76248047D01*
X140892870Y-76325858D01*
X140798623Y-76434625D01*
X140738834Y-76565542D01*
X140718353Y-76708000D01*
X114935000Y-76708000D01*
X114935000Y-76200000D01*
X179448815Y-76200000D01*
X179468313Y-76410429D01*
X179526145Y-76613687D01*
X179620343Y-76802861D01*
X179747698Y-76971507D01*
X179903869Y-77113875D01*
X179903871Y-77113876D01*
X179903872Y-77113877D01*
X180083547Y-77225128D01*
X180280605Y-77301468D01*
X180488336Y-77340300D01*
X180488338Y-77340300D01*
X180699662Y-77340300D01*
X180699664Y-77340300D01*
X180907395Y-77301468D01*
X181104453Y-77225128D01*
X181284128Y-77113877D01*
X181440302Y-76971506D01*
X181567656Y-76802862D01*
X181661853Y-76613689D01*
X181712801Y-76434627D01*
X181719686Y-76410429D01*
X181727522Y-76325858D01*
X181739185Y-76200000D01*
X181719686Y-75989573D01*
X181719686Y-75989570D01*
X181661854Y-75786312D01*
X181567656Y-75597138D01*
X181440301Y-75428492D01*
X181284130Y-75286124D01*
X181137692Y-75195453D01*
X181104453Y-75174872D01*
X181104451Y-75174871D01*
X180907395Y-75098532D01*
X180907394Y-75098532D01*
X180699664Y-75059700D01*
X180488336Y-75059700D01*
X180349848Y-75085588D01*
X180280604Y-75098532D01*
X180083548Y-75174871D01*
X179903869Y-75286124D01*
X179747698Y-75428492D01*
X179620343Y-75597138D01*
X179526145Y-75786312D01*
X179468313Y-75989570D01*
X179448815Y-76200000D01*
X114935000Y-76200000D01*
X114935000Y-74780508D01*
X141419514Y-74780508D01*
X141439995Y-74922966D01*
X141499784Y-75053883D01*
X141577128Y-75143143D01*
X141594033Y-75162652D01*
X141715108Y-75240462D01*
X141853200Y-75281009D01*
X141997122Y-75281009D01*
X142135214Y-75240462D01*
X142223071Y-75184000D01*
X144528353Y-75184000D01*
X144529431Y-75191500D01*
X144548834Y-75326457D01*
X144608623Y-75457374D01*
X144688487Y-75549542D01*
X144702872Y-75566143D01*
X144823947Y-75643953D01*
X144962039Y-75684500D01*
X145105961Y-75684500D01*
X145244053Y-75643953D01*
X145365128Y-75566143D01*
X145459377Y-75457373D01*
X145519165Y-75326457D01*
X145525039Y-75285599D01*
X153799353Y-75285599D01*
X153819834Y-75428057D01*
X153879623Y-75558974D01*
X153953257Y-75643952D01*
X153973872Y-75667743D01*
X154094947Y-75745553D01*
X154233039Y-75786100D01*
X154376961Y-75786100D01*
X154515053Y-75745553D01*
X154598385Y-75691999D01*
X162562353Y-75691999D01*
X162582834Y-75834457D01*
X162642623Y-75965374D01*
X162663592Y-75989573D01*
X162736872Y-76074143D01*
X162857947Y-76151953D01*
X162996039Y-76192500D01*
X163139961Y-76192500D01*
X163278053Y-76151953D01*
X163399128Y-76074143D01*
X163493377Y-75965373D01*
X163553165Y-75834457D01*
X163573647Y-75692000D01*
X163573647Y-75691999D01*
X163832353Y-75691999D01*
X163852834Y-75834457D01*
X163912623Y-75965374D01*
X163933592Y-75989573D01*
X164006872Y-76074143D01*
X164127947Y-76151953D01*
X164266039Y-76192500D01*
X164409961Y-76192500D01*
X164548053Y-76151953D01*
X164669128Y-76074143D01*
X164763377Y-75965373D01*
X164823165Y-75834457D01*
X164843647Y-75692000D01*
X164843647Y-75691999D01*
X165102353Y-75691999D01*
X165122834Y-75834457D01*
X165182623Y-75965374D01*
X165203592Y-75989573D01*
X165276872Y-76074143D01*
X165397947Y-76151953D01*
X165536039Y-76192500D01*
X165679961Y-76192500D01*
X165818053Y-76151953D01*
X165939128Y-76074143D01*
X166033377Y-75965373D01*
X166093165Y-75834457D01*
X166113647Y-75692000D01*
X166113647Y-75691999D01*
X166372353Y-75691999D01*
X166392834Y-75834457D01*
X166452623Y-75965374D01*
X166473592Y-75989573D01*
X166546872Y-76074143D01*
X166667947Y-76151953D01*
X166806039Y-76192500D01*
X166949961Y-76192500D01*
X167088053Y-76151953D01*
X167209128Y-76074143D01*
X167303377Y-75965373D01*
X167363165Y-75834457D01*
X167383647Y-75692000D01*
X167383647Y-75691999D01*
X167642353Y-75691999D01*
X167662834Y-75834457D01*
X167722623Y-75965374D01*
X167743592Y-75989573D01*
X167816872Y-76074143D01*
X167937947Y-76151953D01*
X168076039Y-76192500D01*
X168219961Y-76192500D01*
X168358053Y-76151953D01*
X168479128Y-76074143D01*
X168573377Y-75965373D01*
X168633165Y-75834457D01*
X168653647Y-75692000D01*
X168653647Y-75691999D01*
X168912353Y-75691999D01*
X168932834Y-75834457D01*
X168992623Y-75965374D01*
X169013592Y-75989573D01*
X169086872Y-76074143D01*
X169207947Y-76151953D01*
X169346039Y-76192500D01*
X169489961Y-76192500D01*
X169628053Y-76151953D01*
X169749128Y-76074143D01*
X169843377Y-75965373D01*
X169903165Y-75834457D01*
X169923647Y-75692000D01*
X169923647Y-75691999D01*
X170182353Y-75691999D01*
X170202834Y-75834457D01*
X170262623Y-75965374D01*
X170283592Y-75989573D01*
X170356872Y-76074143D01*
X170477947Y-76151953D01*
X170616039Y-76192500D01*
X170759961Y-76192500D01*
X170898053Y-76151953D01*
X171019128Y-76074143D01*
X171113377Y-75965373D01*
X171173165Y-75834457D01*
X171193647Y-75692000D01*
X171193647Y-75691999D01*
X171452353Y-75691999D01*
X171472834Y-75834457D01*
X171532623Y-75965374D01*
X171553592Y-75989573D01*
X171626872Y-76074143D01*
X171747947Y-76151953D01*
X171886039Y-76192500D01*
X172029961Y-76192500D01*
X172168053Y-76151953D01*
X172289128Y-76074143D01*
X172383377Y-75965373D01*
X172443165Y-75834457D01*
X172463647Y-75692000D01*
X172463647Y-75691999D01*
X172722353Y-75691999D01*
X172742834Y-75834457D01*
X172802623Y-75965374D01*
X172823592Y-75989573D01*
X172896872Y-76074143D01*
X173017947Y-76151953D01*
X173156039Y-76192500D01*
X173299961Y-76192500D01*
X173438053Y-76151953D01*
X173559128Y-76074143D01*
X173653377Y-75965373D01*
X173713165Y-75834457D01*
X173733647Y-75692000D01*
X173733647Y-75691999D01*
X174246353Y-75691999D01*
X174266834Y-75834457D01*
X174326623Y-75965374D01*
X174347592Y-75989573D01*
X174420872Y-76074143D01*
X174541947Y-76151953D01*
X174680039Y-76192500D01*
X174823961Y-76192500D01*
X174962053Y-76151953D01*
X175083128Y-76074143D01*
X175177377Y-75965373D01*
X175237165Y-75834457D01*
X175257647Y-75692000D01*
X175237165Y-75549543D01*
X175177377Y-75418627D01*
X175177376Y-75418626D01*
X175177376Y-75418625D01*
X175083129Y-75309858D01*
X175083128Y-75309857D01*
X174962053Y-75232047D01*
X174823961Y-75191500D01*
X174680039Y-75191500D01*
X174541947Y-75232047D01*
X174420870Y-75309858D01*
X174326623Y-75418625D01*
X174266834Y-75549542D01*
X174246353Y-75691999D01*
X173733647Y-75691999D01*
X173713165Y-75549543D01*
X173653377Y-75418627D01*
X173653376Y-75418626D01*
X173653376Y-75418625D01*
X173559129Y-75309858D01*
X173559128Y-75309857D01*
X173438053Y-75232047D01*
X173299961Y-75191500D01*
X173156039Y-75191500D01*
X173017947Y-75232047D01*
X172896870Y-75309858D01*
X172802623Y-75418625D01*
X172742834Y-75549542D01*
X172722353Y-75691999D01*
X172463647Y-75691999D01*
X172443165Y-75549543D01*
X172383377Y-75418627D01*
X172383376Y-75418626D01*
X172383376Y-75418625D01*
X172289129Y-75309858D01*
X172289128Y-75309857D01*
X172168053Y-75232047D01*
X172029961Y-75191500D01*
X171886039Y-75191500D01*
X171747947Y-75232047D01*
X171626870Y-75309858D01*
X171532623Y-75418625D01*
X171472834Y-75549542D01*
X171452353Y-75691999D01*
X171193647Y-75691999D01*
X171173165Y-75549543D01*
X171113377Y-75418627D01*
X171113376Y-75418626D01*
X171113376Y-75418625D01*
X171019129Y-75309858D01*
X171019128Y-75309857D01*
X170898053Y-75232047D01*
X170759961Y-75191500D01*
X170616039Y-75191500D01*
X170477947Y-75232047D01*
X170356870Y-75309858D01*
X170262623Y-75418625D01*
X170202834Y-75549542D01*
X170182353Y-75691999D01*
X169923647Y-75691999D01*
X169903165Y-75549543D01*
X169843377Y-75418627D01*
X169843376Y-75418626D01*
X169843376Y-75418625D01*
X169749129Y-75309858D01*
X169749128Y-75309857D01*
X169628053Y-75232047D01*
X169489961Y-75191500D01*
X169346039Y-75191500D01*
X169207947Y-75232047D01*
X169086870Y-75309858D01*
X168992623Y-75418625D01*
X168932834Y-75549542D01*
X168912353Y-75691999D01*
X168653647Y-75691999D01*
X168633165Y-75549543D01*
X168573377Y-75418627D01*
X168573376Y-75418626D01*
X168573376Y-75418625D01*
X168479129Y-75309858D01*
X168479128Y-75309857D01*
X168358053Y-75232047D01*
X168219961Y-75191500D01*
X168076039Y-75191500D01*
X167937947Y-75232047D01*
X167816870Y-75309858D01*
X167722623Y-75418625D01*
X167662834Y-75549542D01*
X167642353Y-75691999D01*
X167383647Y-75691999D01*
X167363165Y-75549543D01*
X167303377Y-75418627D01*
X167303376Y-75418626D01*
X167303376Y-75418625D01*
X167209129Y-75309858D01*
X167209128Y-75309857D01*
X167088053Y-75232047D01*
X166949961Y-75191500D01*
X166806039Y-75191500D01*
X166667947Y-75232047D01*
X166546870Y-75309858D01*
X166452623Y-75418625D01*
X166392834Y-75549542D01*
X166372353Y-75691999D01*
X166113647Y-75691999D01*
X166093165Y-75549543D01*
X166033377Y-75418627D01*
X166033376Y-75418626D01*
X166033376Y-75418625D01*
X165939129Y-75309858D01*
X165939128Y-75309857D01*
X165818053Y-75232047D01*
X165679961Y-75191500D01*
X165536039Y-75191500D01*
X165397947Y-75232047D01*
X165276870Y-75309858D01*
X165182623Y-75418625D01*
X165122834Y-75549542D01*
X165102353Y-75691999D01*
X164843647Y-75691999D01*
X164823165Y-75549543D01*
X164763377Y-75418627D01*
X164763376Y-75418626D01*
X164763376Y-75418625D01*
X164669129Y-75309858D01*
X164669128Y-75309857D01*
X164548053Y-75232047D01*
X164409961Y-75191500D01*
X164266039Y-75191500D01*
X164127947Y-75232047D01*
X164006870Y-75309858D01*
X163912623Y-75418625D01*
X163852834Y-75549542D01*
X163832353Y-75691999D01*
X163573647Y-75691999D01*
X163553165Y-75549543D01*
X163493377Y-75418627D01*
X163493376Y-75418626D01*
X163493376Y-75418625D01*
X163399129Y-75309858D01*
X163399128Y-75309857D01*
X163278053Y-75232047D01*
X163139961Y-75191500D01*
X162996039Y-75191500D01*
X162857947Y-75232047D01*
X162736870Y-75309858D01*
X162642623Y-75418625D01*
X162582834Y-75549542D01*
X162562353Y-75691999D01*
X154598385Y-75691999D01*
X154636128Y-75667743D01*
X154730377Y-75558973D01*
X154790165Y-75428057D01*
X154809737Y-75291927D01*
X154838762Y-75228372D01*
X154897540Y-75190597D01*
X154967410Y-75190597D01*
X154983946Y-75195452D01*
X154983947Y-75195453D01*
X155122039Y-75236000D01*
X155265961Y-75236000D01*
X155404053Y-75195453D01*
X155525128Y-75117643D01*
X155619377Y-75008873D01*
X155679165Y-74877957D01*
X155699647Y-74735500D01*
X155679165Y-74593043D01*
X155670411Y-74573875D01*
X155619376Y-74462125D01*
X155584608Y-74422000D01*
X174500353Y-74422000D01*
X174520834Y-74564457D01*
X174580623Y-74695374D01*
X174637893Y-74761467D01*
X174674872Y-74804143D01*
X174795947Y-74881953D01*
X174934039Y-74922500D01*
X175077961Y-74922500D01*
X175216053Y-74881953D01*
X175337128Y-74804143D01*
X175431377Y-74695373D01*
X175491165Y-74564457D01*
X175511647Y-74422000D01*
X175491165Y-74279543D01*
X175489340Y-74275547D01*
X175431376Y-74148625D01*
X175337129Y-74039858D01*
X175337128Y-74039857D01*
X175216053Y-73962047D01*
X175077961Y-73921500D01*
X174934039Y-73921500D01*
X174795947Y-73962047D01*
X174674870Y-74039858D01*
X174580623Y-74148625D01*
X174520834Y-74279542D01*
X174500353Y-74422000D01*
X155584608Y-74422000D01*
X155525129Y-74353358D01*
X155525128Y-74353357D01*
X155404053Y-74275547D01*
X155265961Y-74235000D01*
X155122039Y-74235000D01*
X154983947Y-74275547D01*
X154862870Y-74353358D01*
X154768623Y-74462125D01*
X154708834Y-74593042D01*
X154689262Y-74729172D01*
X154660237Y-74792728D01*
X154601459Y-74830502D01*
X154531590Y-74830502D01*
X154376962Y-74785100D01*
X154376961Y-74785100D01*
X154233039Y-74785100D01*
X154094947Y-74825647D01*
X153973870Y-74903458D01*
X153879623Y-75012225D01*
X153819834Y-75143142D01*
X153799353Y-75285599D01*
X145525039Y-75285599D01*
X145539647Y-75184000D01*
X145519165Y-75041543D01*
X145504245Y-75008874D01*
X145459376Y-74910625D01*
X145365129Y-74801858D01*
X145365128Y-74801857D01*
X145244053Y-74724047D01*
X145105961Y-74683500D01*
X144962039Y-74683500D01*
X144823947Y-74724047D01*
X144702870Y-74801858D01*
X144608623Y-74910625D01*
X144548834Y-75041542D01*
X144529665Y-75174872D01*
X144528353Y-75184000D01*
X142223071Y-75184000D01*
X142256289Y-75162652D01*
X142350538Y-75053882D01*
X142410326Y-74922966D01*
X142430808Y-74780509D01*
X142415782Y-74676000D01*
X146306353Y-74676000D01*
X146326834Y-74818457D01*
X146386623Y-74949374D01*
X146480870Y-75058141D01*
X146480872Y-75058143D01*
X146601947Y-75135953D01*
X146740039Y-75176500D01*
X146883961Y-75176500D01*
X147022053Y-75135953D01*
X147143128Y-75058143D01*
X147237377Y-74949373D01*
X147297165Y-74818457D01*
X147317647Y-74676000D01*
X147297165Y-74533543D01*
X147285105Y-74507136D01*
X147246224Y-74422000D01*
X150624353Y-74422000D01*
X150644834Y-74564457D01*
X150704623Y-74695374D01*
X150761893Y-74761467D01*
X150798872Y-74804143D01*
X150919947Y-74881953D01*
X151058039Y-74922500D01*
X151201961Y-74922500D01*
X151340053Y-74881953D01*
X151461128Y-74804143D01*
X151555377Y-74695373D01*
X151615165Y-74564457D01*
X151635647Y-74422000D01*
X151615165Y-74279543D01*
X151613340Y-74275547D01*
X151555376Y-74148625D01*
X151461129Y-74039858D01*
X151461128Y-74039857D01*
X151340053Y-73962047D01*
X151201961Y-73921500D01*
X151058039Y-73921500D01*
X150919947Y-73962047D01*
X150798870Y-74039858D01*
X150704623Y-74148625D01*
X150644834Y-74279542D01*
X150624353Y-74422000D01*
X147246224Y-74422000D01*
X147237376Y-74402625D01*
X147143129Y-74293858D01*
X147143128Y-74293857D01*
X147022053Y-74216047D01*
X146883961Y-74175500D01*
X146740039Y-74175500D01*
X146601947Y-74216047D01*
X146480870Y-74293858D01*
X146386623Y-74402625D01*
X146326834Y-74533542D01*
X146306353Y-74676000D01*
X142415782Y-74676000D01*
X142410326Y-74638052D01*
X142389770Y-74593042D01*
X142350537Y-74507134D01*
X142256290Y-74398367D01*
X142256289Y-74398366D01*
X142135214Y-74320556D01*
X141997122Y-74280009D01*
X141853200Y-74280009D01*
X141715108Y-74320556D01*
X141594031Y-74398367D01*
X141499784Y-74507134D01*
X141439995Y-74638051D01*
X141419514Y-74780508D01*
X114935000Y-74780508D01*
X114935000Y-73405999D01*
X127106822Y-73405999D01*
X127127303Y-73548457D01*
X127187092Y-73679374D01*
X127281339Y-73788141D01*
X127281341Y-73788143D01*
X127402416Y-73865953D01*
X127540508Y-73906500D01*
X127684430Y-73906500D01*
X127822522Y-73865953D01*
X127943597Y-73788143D01*
X128037846Y-73679373D01*
X128097634Y-73548457D01*
X128118116Y-73406000D01*
X128118116Y-73405999D01*
X128780353Y-73405999D01*
X128800834Y-73548457D01*
X128860623Y-73679374D01*
X128954870Y-73788141D01*
X128954872Y-73788143D01*
X129075947Y-73865953D01*
X129214039Y-73906500D01*
X129357961Y-73906500D01*
X129496053Y-73865953D01*
X129617128Y-73788143D01*
X129711377Y-73679373D01*
X129771165Y-73548457D01*
X129791647Y-73406000D01*
X129791647Y-73405999D01*
X143512353Y-73405999D01*
X143532834Y-73548457D01*
X143592623Y-73679374D01*
X143686870Y-73788141D01*
X143686872Y-73788143D01*
X143807947Y-73865953D01*
X143946039Y-73906500D01*
X144089961Y-73906500D01*
X144228053Y-73865953D01*
X144349128Y-73788143D01*
X144443377Y-73679373D01*
X144503165Y-73548457D01*
X144519059Y-73437908D01*
X145820178Y-73437908D01*
X145840659Y-73580365D01*
X145900448Y-73711282D01*
X145994695Y-73820049D01*
X145994697Y-73820051D01*
X146115772Y-73897861D01*
X146253864Y-73938408D01*
X146397786Y-73938408D01*
X146535878Y-73897861D01*
X146656953Y-73820051D01*
X146751202Y-73711281D01*
X146774622Y-73659999D01*
X179702815Y-73659999D01*
X179722313Y-73870429D01*
X179780145Y-74073687D01*
X179874343Y-74262861D01*
X180001698Y-74431507D01*
X180157869Y-74573875D01*
X180157871Y-74573876D01*
X180157872Y-74573877D01*
X180337547Y-74685128D01*
X180534605Y-74761468D01*
X180742336Y-74800300D01*
X180742338Y-74800300D01*
X180953662Y-74800300D01*
X180953664Y-74800300D01*
X181161395Y-74761468D01*
X181358453Y-74685128D01*
X181538128Y-74573877D01*
X181694302Y-74431506D01*
X181821656Y-74262862D01*
X181915853Y-74073689D01*
X181954344Y-73938408D01*
X181973686Y-73870429D01*
X181978354Y-73820049D01*
X181993185Y-73660000D01*
X181973686Y-73449573D01*
X181973686Y-73449570D01*
X181915854Y-73246312D01*
X181821656Y-73057138D01*
X181694301Y-72888492D01*
X181538130Y-72746124D01*
X181358451Y-72634871D01*
X181161395Y-72558532D01*
X181161394Y-72558532D01*
X180953664Y-72519700D01*
X180742336Y-72519700D01*
X180603848Y-72545588D01*
X180534604Y-72558532D01*
X180337548Y-72634871D01*
X180157869Y-72746124D01*
X180001698Y-72888492D01*
X179874343Y-73057138D01*
X179780145Y-73246312D01*
X179722313Y-73449570D01*
X179702815Y-73659999D01*
X146774622Y-73659999D01*
X146810990Y-73580365D01*
X146831472Y-73437908D01*
X146810990Y-73295451D01*
X146810536Y-73294457D01*
X146751201Y-73164533D01*
X146740341Y-73152000D01*
X174500353Y-73152000D01*
X174520834Y-73294457D01*
X174580623Y-73425374D01*
X174601592Y-73449573D01*
X174674872Y-73534143D01*
X174795947Y-73611953D01*
X174934039Y-73652500D01*
X175077961Y-73652500D01*
X175216053Y-73611953D01*
X175337128Y-73534143D01*
X175431377Y-73425373D01*
X175491165Y-73294457D01*
X175511647Y-73152000D01*
X175491165Y-73009543D01*
X175431377Y-72878627D01*
X175431376Y-72878626D01*
X175431376Y-72878625D01*
X175337129Y-72769858D01*
X175337128Y-72769857D01*
X175216053Y-72692047D01*
X175077961Y-72651500D01*
X174934039Y-72651500D01*
X174795947Y-72692047D01*
X174674870Y-72769858D01*
X174580623Y-72878625D01*
X174520834Y-73009542D01*
X174500353Y-73152000D01*
X146740341Y-73152000D01*
X146656954Y-73055766D01*
X146656953Y-73055765D01*
X146535878Y-72977955D01*
X146397786Y-72937408D01*
X146253864Y-72937408D01*
X146115772Y-72977955D01*
X145994695Y-73055766D01*
X145900448Y-73164533D01*
X145840659Y-73295450D01*
X145820178Y-73437908D01*
X144519059Y-73437908D01*
X144523647Y-73406000D01*
X144503165Y-73263543D01*
X144495295Y-73246311D01*
X144443376Y-73132625D01*
X144349129Y-73023858D01*
X144349128Y-73023857D01*
X144228053Y-72946047D01*
X144089961Y-72905500D01*
X143946039Y-72905500D01*
X143807947Y-72946047D01*
X143686870Y-73023858D01*
X143592623Y-73132625D01*
X143532834Y-73263542D01*
X143512353Y-73405999D01*
X129791647Y-73405999D01*
X129771165Y-73263543D01*
X129763295Y-73246311D01*
X129711376Y-73132625D01*
X129617129Y-73023858D01*
X129617128Y-73023857D01*
X129496053Y-72946047D01*
X129357961Y-72905500D01*
X129214039Y-72905500D01*
X129075947Y-72946047D01*
X128954870Y-73023858D01*
X128860623Y-73132625D01*
X128800834Y-73263542D01*
X128780353Y-73405999D01*
X128118116Y-73405999D01*
X128097634Y-73263543D01*
X128089764Y-73246311D01*
X128037845Y-73132625D01*
X127943598Y-73023858D01*
X127943597Y-73023857D01*
X127822522Y-72946047D01*
X127684430Y-72905500D01*
X127540508Y-72905500D01*
X127402416Y-72946047D01*
X127281339Y-73023858D01*
X127187092Y-73132625D01*
X127127303Y-73263542D01*
X127106822Y-73405999D01*
X114935000Y-73405999D01*
X114935000Y-73129094D01*
X116360406Y-73129094D01*
X116433143Y-73180025D01*
X116639117Y-73276072D01*
X116858639Y-73334893D01*
X117085040Y-73354701D01*
X117311440Y-73334893D01*
X117530962Y-73276072D01*
X117736933Y-73180026D01*
X117809672Y-73129094D01*
X117085040Y-72404463D01*
X116360406Y-73129094D01*
X114935000Y-73129094D01*
X114935000Y-72050909D01*
X115781248Y-72050909D01*
X115801056Y-72277310D01*
X115859877Y-72496832D01*
X115955924Y-72702807D01*
X116006853Y-72775541D01*
X116006855Y-72775542D01*
X116702246Y-72080150D01*
X116732170Y-72080150D01*
X116760784Y-72193142D01*
X116824536Y-72290721D01*
X116916517Y-72362313D01*
X117026761Y-72400160D01*
X117113979Y-72400160D01*
X117200009Y-72385804D01*
X117302520Y-72330328D01*
X117381463Y-72244573D01*
X117428284Y-72137831D01*
X117435487Y-72050911D01*
X117438593Y-72050911D01*
X118163224Y-72775542D01*
X118172014Y-72762989D01*
X118226590Y-72719364D01*
X118296088Y-72712170D01*
X118358443Y-72743692D01*
X118369441Y-72755446D01*
X118373968Y-72760962D01*
X118526136Y-72885843D01*
X118699743Y-72978637D01*
X118888117Y-73035780D01*
X119084020Y-73055075D01*
X119279923Y-73035780D01*
X119468297Y-72978637D01*
X119641904Y-72885843D01*
X119794072Y-72760962D01*
X119918953Y-72608794D01*
X119974153Y-72505520D01*
X120023113Y-72455678D01*
X120091251Y-72440217D01*
X120156931Y-72464048D01*
X120192866Y-72505520D01*
X120200446Y-72519700D01*
X120248067Y-72608795D01*
X120283115Y-72651500D01*
X120372948Y-72760962D01*
X120525116Y-72885843D01*
X120698723Y-72978637D01*
X120887097Y-73035780D01*
X121083000Y-73055075D01*
X121278903Y-73035780D01*
X121467277Y-72978637D01*
X121640884Y-72885843D01*
X121793052Y-72760962D01*
X121917933Y-72608794D01*
X121973133Y-72505520D01*
X122022093Y-72455678D01*
X122090231Y-72440217D01*
X122155911Y-72464048D01*
X122191846Y-72505520D01*
X122199426Y-72519700D01*
X122247047Y-72608795D01*
X122282095Y-72651500D01*
X122371928Y-72760962D01*
X122524096Y-72885843D01*
X122697703Y-72978637D01*
X122886077Y-73035780D01*
X123081980Y-73055075D01*
X123277883Y-73035780D01*
X123466257Y-72978637D01*
X123639864Y-72885843D01*
X123792032Y-72760962D01*
X123916913Y-72608794D01*
X123972113Y-72505520D01*
X124021073Y-72455678D01*
X124089211Y-72440217D01*
X124154891Y-72464048D01*
X124190826Y-72505520D01*
X124198406Y-72519700D01*
X124246027Y-72608795D01*
X124281075Y-72651500D01*
X124370908Y-72760962D01*
X124523076Y-72885843D01*
X124696683Y-72978637D01*
X124885057Y-73035780D01*
X125080960Y-73055075D01*
X125276863Y-73035780D01*
X125465237Y-72978637D01*
X125638844Y-72885843D01*
X125791012Y-72760962D01*
X125915893Y-72608794D01*
X126008687Y-72435187D01*
X126065830Y-72246813D01*
X126085125Y-72050910D01*
X126068489Y-71881999D01*
X174500353Y-71881999D01*
X174520834Y-72024457D01*
X174580623Y-72155374D01*
X174659856Y-72246814D01*
X174674872Y-72264143D01*
X174795947Y-72341953D01*
X174934039Y-72382500D01*
X175077961Y-72382500D01*
X175216053Y-72341953D01*
X175337128Y-72264143D01*
X175431377Y-72155373D01*
X175491165Y-72024457D01*
X175511647Y-71882000D01*
X175491165Y-71739543D01*
X175480420Y-71716016D01*
X175431376Y-71608625D01*
X175337129Y-71499858D01*
X175337128Y-71499857D01*
X175216053Y-71422047D01*
X175077961Y-71381500D01*
X174934039Y-71381500D01*
X174795947Y-71422047D01*
X174674870Y-71499858D01*
X174580623Y-71608625D01*
X174520834Y-71739542D01*
X174500353Y-71881999D01*
X126068489Y-71881999D01*
X126065830Y-71855007D01*
X126008687Y-71666633D01*
X125915893Y-71493026D01*
X125791012Y-71340858D01*
X125638844Y-71215977D01*
X125465237Y-71123183D01*
X125465234Y-71123182D01*
X125465232Y-71123181D01*
X125276864Y-71066040D01*
X125178911Y-71056392D01*
X125080960Y-71046745D01*
X125080959Y-71046745D01*
X124885055Y-71066040D01*
X124696687Y-71123181D01*
X124696683Y-71123182D01*
X124696683Y-71123183D01*
X124523076Y-71215977D01*
X124523074Y-71215978D01*
X124523073Y-71215979D01*
X124370908Y-71340858D01*
X124246026Y-71493027D01*
X124190827Y-71596297D01*
X124141865Y-71646142D01*
X124073727Y-71661602D01*
X124008047Y-71637770D01*
X123972113Y-71596300D01*
X123916913Y-71493026D01*
X123792032Y-71340858D01*
X123639864Y-71215977D01*
X123466257Y-71123183D01*
X123466254Y-71123182D01*
X123466252Y-71123181D01*
X123277884Y-71066040D01*
X123081980Y-71046745D01*
X122886075Y-71066040D01*
X122697707Y-71123181D01*
X122697703Y-71123182D01*
X122697703Y-71123183D01*
X122524096Y-71215977D01*
X122524094Y-71215978D01*
X122524093Y-71215979D01*
X122371928Y-71340858D01*
X122247049Y-71493023D01*
X122247048Y-71493024D01*
X122247047Y-71493026D01*
X122191846Y-71596299D01*
X122142886Y-71646141D01*
X122074749Y-71661602D01*
X122009069Y-71637771D01*
X121973133Y-71596299D01*
X121917933Y-71493026D01*
X121793052Y-71340858D01*
X121640884Y-71215977D01*
X121467277Y-71123183D01*
X121467274Y-71123182D01*
X121467272Y-71123181D01*
X121278904Y-71066040D01*
X121180951Y-71056392D01*
X121083000Y-71046745D01*
X121082999Y-71046745D01*
X120887095Y-71066040D01*
X120698727Y-71123181D01*
X120698723Y-71123182D01*
X120698723Y-71123183D01*
X120525116Y-71215977D01*
X120525114Y-71215978D01*
X120525113Y-71215979D01*
X120372948Y-71340858D01*
X120248069Y-71493023D01*
X120248068Y-71493024D01*
X120248067Y-71493026D01*
X120192866Y-71596299D01*
X120143906Y-71646141D01*
X120075769Y-71661602D01*
X120010089Y-71637771D01*
X119974153Y-71596299D01*
X119918953Y-71493026D01*
X119794072Y-71340858D01*
X119641904Y-71215977D01*
X119468297Y-71123183D01*
X119468294Y-71123182D01*
X119468292Y-71123181D01*
X119279924Y-71066040D01*
X119084020Y-71046745D01*
X118888115Y-71066040D01*
X118699747Y-71123181D01*
X118699743Y-71123182D01*
X118699743Y-71123183D01*
X118526136Y-71215977D01*
X118526134Y-71215978D01*
X118526133Y-71215979D01*
X118373965Y-71340860D01*
X118369437Y-71346377D01*
X118311689Y-71385708D01*
X118241844Y-71387574D01*
X118182078Y-71351383D01*
X118172014Y-71338829D01*
X118163225Y-71326277D01*
X118163224Y-71326276D01*
X117438593Y-72050909D01*
X117438593Y-72050911D01*
X117435487Y-72050911D01*
X117437910Y-72021670D01*
X117409296Y-71908678D01*
X117345544Y-71811099D01*
X117253563Y-71739507D01*
X117143319Y-71701660D01*
X117056101Y-71701660D01*
X116970071Y-71716016D01*
X116867560Y-71771492D01*
X116788617Y-71857247D01*
X116741796Y-71963989D01*
X116732170Y-72080150D01*
X116702246Y-72080150D01*
X116731486Y-72050910D01*
X116006853Y-71326276D01*
X115955923Y-71399015D01*
X115859877Y-71604987D01*
X115801056Y-71824509D01*
X115781248Y-72050909D01*
X114935000Y-72050909D01*
X114935000Y-70972723D01*
X116360406Y-70972723D01*
X117085040Y-71697357D01*
X117085041Y-71697357D01*
X117809672Y-70972725D01*
X117809671Y-70972723D01*
X117736937Y-70921794D01*
X117530962Y-70825747D01*
X117311440Y-70766926D01*
X117085040Y-70747118D01*
X116858639Y-70766926D01*
X116639117Y-70825747D01*
X116433145Y-70921793D01*
X116360406Y-70972723D01*
X114935000Y-70972723D01*
X114935000Y-70690000D01*
X175884353Y-70690000D01*
X175904834Y-70832457D01*
X175964623Y-70963374D01*
X176058870Y-71072141D01*
X176058872Y-71072143D01*
X176179947Y-71149953D01*
X176318039Y-71190500D01*
X176461961Y-71190500D01*
X176600053Y-71149953D01*
X176646662Y-71119999D01*
X179448815Y-71119999D01*
X179468313Y-71330429D01*
X179526145Y-71533687D01*
X179620343Y-71722861D01*
X179747698Y-71891507D01*
X179903869Y-72033875D01*
X179903871Y-72033876D01*
X179903872Y-72033877D01*
X180083547Y-72145128D01*
X180280605Y-72221468D01*
X180488336Y-72260300D01*
X180488338Y-72260300D01*
X180699662Y-72260300D01*
X180699664Y-72260300D01*
X180907395Y-72221468D01*
X181104453Y-72145128D01*
X181284128Y-72033877D01*
X181440302Y-71891506D01*
X181567656Y-71722862D01*
X181661853Y-71533689D01*
X181671479Y-71499857D01*
X181719686Y-71330429D01*
X181736409Y-71149953D01*
X181739185Y-71120000D01*
X181724258Y-70958921D01*
X181719686Y-70909570D01*
X181661854Y-70706312D01*
X181567656Y-70517138D01*
X181440301Y-70348492D01*
X181284130Y-70206124D01*
X181104451Y-70094871D01*
X180907395Y-70018532D01*
X180907394Y-70018532D01*
X180699664Y-69979700D01*
X180488336Y-69979700D01*
X180349848Y-70005588D01*
X180280604Y-70018532D01*
X180083548Y-70094871D01*
X179903869Y-70206124D01*
X179747698Y-70348492D01*
X179620343Y-70517138D01*
X179526145Y-70706312D01*
X179468313Y-70909570D01*
X179448815Y-71119999D01*
X176646662Y-71119999D01*
X176721128Y-71072143D01*
X176815377Y-70963373D01*
X176875165Y-70832457D01*
X176895647Y-70690000D01*
X176875165Y-70547543D01*
X176861279Y-70517138D01*
X176815376Y-70416625D01*
X176721129Y-70307858D01*
X176721128Y-70307857D01*
X176600053Y-70230047D01*
X176461961Y-70189500D01*
X176318039Y-70189500D01*
X176179947Y-70230047D01*
X176058870Y-70307858D01*
X175964623Y-70416625D01*
X175904834Y-70547542D01*
X175884353Y-70690000D01*
X114935000Y-70690000D01*
X114935000Y-68458014D01*
X140979741Y-68458014D01*
X141000222Y-68600472D01*
X141060011Y-68731389D01*
X141137350Y-68820643D01*
X141154260Y-68840158D01*
X141275335Y-68917968D01*
X141413427Y-68958515D01*
X141557349Y-68958515D01*
X141695441Y-68917968D01*
X141816516Y-68840158D01*
X141910765Y-68731388D01*
X141970553Y-68600472D01*
X141991035Y-68458015D01*
X141970553Y-68315558D01*
X141961640Y-68296042D01*
X141910764Y-68184640D01*
X141816517Y-68075873D01*
X141816516Y-68075872D01*
X141695441Y-67998062D01*
X141557349Y-67957515D01*
X141413427Y-67957515D01*
X141275335Y-67998062D01*
X141154258Y-68075873D01*
X141060011Y-68184640D01*
X141000222Y-68315557D01*
X140979741Y-68458014D01*
X114935000Y-68458014D01*
X114935000Y-67538600D01*
X123624153Y-67538600D01*
X123644634Y-67681057D01*
X123704423Y-67811974D01*
X123774058Y-67892337D01*
X123798672Y-67920743D01*
X123919747Y-67998553D01*
X124057839Y-68039100D01*
X124201761Y-68039100D01*
X124339853Y-67998553D01*
X124460928Y-67920743D01*
X124555177Y-67811973D01*
X124614965Y-67681057D01*
X124620839Y-67640200D01*
X126951553Y-67640200D01*
X126954127Y-67658106D01*
X126972034Y-67782657D01*
X127031823Y-67913574D01*
X127105457Y-67998552D01*
X127126072Y-68022343D01*
X127247147Y-68100153D01*
X127385239Y-68140700D01*
X127529161Y-68140700D01*
X127667253Y-68100153D01*
X127788328Y-68022343D01*
X127882577Y-67913573D01*
X127942365Y-67782657D01*
X127962847Y-67640200D01*
X127942365Y-67497743D01*
X127915857Y-67439700D01*
X127882576Y-67366825D01*
X127788329Y-67258058D01*
X127788328Y-67258057D01*
X127667253Y-67180247D01*
X127572730Y-67152493D01*
X131213647Y-67152493D01*
X131234128Y-67294951D01*
X131293917Y-67425868D01*
X131356197Y-67497743D01*
X131388166Y-67534637D01*
X131509241Y-67612447D01*
X131647333Y-67652994D01*
X131791255Y-67652994D01*
X131929347Y-67612447D01*
X132004732Y-67564000D01*
X147830353Y-67564000D01*
X147850834Y-67706457D01*
X147910623Y-67837374D01*
X147958249Y-67892337D01*
X148004872Y-67946143D01*
X148125947Y-68023953D01*
X148264039Y-68064500D01*
X148407961Y-68064500D01*
X148546053Y-68023953D01*
X148644126Y-67960925D01*
X148711164Y-67941241D01*
X148778203Y-67960925D01*
X148887947Y-68031453D01*
X149026039Y-68072000D01*
X149169961Y-68072000D01*
X149308053Y-68031453D01*
X149417796Y-67960925D01*
X149484834Y-67941241D01*
X149551873Y-67960925D01*
X149649947Y-68023953D01*
X149788039Y-68064500D01*
X149931961Y-68064500D01*
X150070053Y-68023953D01*
X150191128Y-67946143D01*
X150285377Y-67837373D01*
X150294225Y-67817999D01*
X152757953Y-67817999D01*
X152778434Y-67960457D01*
X152838223Y-68091374D01*
X152919040Y-68184642D01*
X152932472Y-68200143D01*
X153053547Y-68277953D01*
X153191639Y-68318500D01*
X153353389Y-68318500D01*
X153353389Y-68323273D01*
X153389042Y-68323235D01*
X153447861Y-68360945D01*
X153476956Y-68424469D01*
X153476975Y-68424603D01*
X153499454Y-68580957D01*
X153559243Y-68711874D01*
X153653490Y-68820641D01*
X153653492Y-68820643D01*
X153774567Y-68898453D01*
X153912659Y-68939000D01*
X154056581Y-68939000D01*
X154194673Y-68898453D01*
X154315748Y-68820643D01*
X154409997Y-68711873D01*
X154469785Y-68580957D01*
X154469923Y-68579999D01*
X179702815Y-68579999D01*
X179722313Y-68790429D01*
X179780145Y-68993687D01*
X179874343Y-69182861D01*
X180001698Y-69351507D01*
X180157869Y-69493875D01*
X180157871Y-69493876D01*
X180157872Y-69493877D01*
X180337547Y-69605128D01*
X180534605Y-69681468D01*
X180742336Y-69720300D01*
X180742338Y-69720300D01*
X180953662Y-69720300D01*
X180953664Y-69720300D01*
X181161395Y-69681468D01*
X181358453Y-69605128D01*
X181538128Y-69493877D01*
X181694302Y-69351506D01*
X181821656Y-69182862D01*
X181915853Y-68993689D01*
X181925861Y-68958515D01*
X181973686Y-68790429D01*
X181980965Y-68711873D01*
X181993185Y-68580000D01*
X181973686Y-68369573D01*
X181973686Y-68369570D01*
X181915854Y-68166312D01*
X181821656Y-67977138D01*
X181694301Y-67808492D01*
X181538130Y-67666124D01*
X181358451Y-67554871D01*
X181161395Y-67478532D01*
X181161394Y-67478532D01*
X180953664Y-67439700D01*
X180742336Y-67439700D01*
X180603848Y-67465588D01*
X180534604Y-67478532D01*
X180337548Y-67554871D01*
X180157869Y-67666124D01*
X180001698Y-67808492D01*
X179874343Y-67977138D01*
X179780145Y-68166312D01*
X179722313Y-68369570D01*
X179702815Y-68579999D01*
X154469923Y-68579999D01*
X154490267Y-68438500D01*
X154469785Y-68296043D01*
X154461523Y-68277953D01*
X154409996Y-68165125D01*
X154315749Y-68056358D01*
X154315748Y-68056357D01*
X154194673Y-67978547D01*
X154056581Y-67938000D01*
X153912659Y-67938000D01*
X153894831Y-67938000D01*
X153894831Y-67933226D01*
X153859010Y-67933215D01*
X153800244Y-67895422D01*
X153771244Y-67831895D01*
X153769246Y-67818002D01*
X153769247Y-67818000D01*
X153748765Y-67675543D01*
X153744463Y-67666124D01*
X153688976Y-67544625D01*
X153645613Y-67494581D01*
X153616588Y-67431025D01*
X153626532Y-67361867D01*
X153672285Y-67309064D01*
X153772528Y-67244643D01*
X153773812Y-67243162D01*
X153866777Y-67135873D01*
X153890004Y-67085014D01*
X153920764Y-67017658D01*
X153966519Y-66964855D01*
X154033558Y-66945170D01*
X154100597Y-66964855D01*
X154127271Y-66987968D01*
X154211361Y-67085014D01*
X154211363Y-67085015D01*
X154211364Y-67085016D01*
X154332439Y-67162826D01*
X154470531Y-67203373D01*
X154614453Y-67203373D01*
X154752545Y-67162826D01*
X154873620Y-67085016D01*
X154967869Y-66976246D01*
X155027657Y-66845330D01*
X155040900Y-66753220D01*
X155069925Y-66689665D01*
X155128702Y-66651890D01*
X155198572Y-66651890D01*
X155257350Y-66689664D01*
X155276432Y-66719355D01*
X155276623Y-66719774D01*
X155356109Y-66811506D01*
X155370872Y-66828543D01*
X155491947Y-66906353D01*
X155630039Y-66946900D01*
X155773961Y-66946900D01*
X155912053Y-66906353D01*
X156033128Y-66828543D01*
X156127377Y-66719773D01*
X156187165Y-66588857D01*
X156207647Y-66446400D01*
X156196691Y-66370199D01*
X156618753Y-66370199D01*
X156639234Y-66512657D01*
X156699023Y-66643574D01*
X156775414Y-66731734D01*
X156793272Y-66752343D01*
X156914347Y-66830153D01*
X157052439Y-66870700D01*
X157196361Y-66870700D01*
X157334453Y-66830153D01*
X157455528Y-66752343D01*
X157549777Y-66643573D01*
X157609565Y-66512657D01*
X157630047Y-66370200D01*
X157609565Y-66227743D01*
X157582345Y-66168141D01*
X157549776Y-66096825D01*
X157500537Y-66040000D01*
X179448815Y-66040000D01*
X179468313Y-66250429D01*
X179526145Y-66453687D01*
X179620343Y-66642861D01*
X179747698Y-66811507D01*
X179903869Y-66953875D01*
X179903871Y-66953876D01*
X179903872Y-66953877D01*
X180083547Y-67065128D01*
X180280605Y-67141468D01*
X180488336Y-67180300D01*
X180488338Y-67180300D01*
X180699662Y-67180300D01*
X180699664Y-67180300D01*
X180907395Y-67141468D01*
X181104453Y-67065128D01*
X181284128Y-66953877D01*
X181421613Y-66828543D01*
X181440301Y-66811507D01*
X181440302Y-66811506D01*
X181567656Y-66642862D01*
X181661853Y-66453689D01*
X181663927Y-66446400D01*
X181719686Y-66250429D01*
X181726858Y-66173025D01*
X181739185Y-66040000D01*
X181722279Y-65857551D01*
X181719686Y-65829570D01*
X181661854Y-65626312D01*
X181567656Y-65437138D01*
X181440301Y-65268492D01*
X181284130Y-65126124D01*
X181194290Y-65070497D01*
X181104453Y-65014872D01*
X181104451Y-65014871D01*
X180907395Y-64938532D01*
X180907394Y-64938532D01*
X180699664Y-64899700D01*
X180488336Y-64899700D01*
X180391056Y-64917885D01*
X180280604Y-64938532D01*
X180083548Y-65014871D01*
X179903869Y-65126124D01*
X179747698Y-65268492D01*
X179620343Y-65437138D01*
X179526145Y-65626312D01*
X179468313Y-65829570D01*
X179448815Y-66040000D01*
X157500537Y-66040000D01*
X157455529Y-65988058D01*
X157455528Y-65988057D01*
X157334453Y-65910247D01*
X157196361Y-65869700D01*
X157052439Y-65869700D01*
X156914347Y-65910247D01*
X156793270Y-65988058D01*
X156699023Y-66096825D01*
X156639234Y-66227742D01*
X156618753Y-66370199D01*
X156196691Y-66370199D01*
X156187165Y-66303943D01*
X156172477Y-66271782D01*
X156127376Y-66173025D01*
X156033129Y-66064258D01*
X156033128Y-66064257D01*
X155912053Y-65986447D01*
X155773961Y-65945900D01*
X155630039Y-65945900D01*
X155491947Y-65986447D01*
X155370870Y-66064258D01*
X155276623Y-66173025D01*
X155216834Y-66303942D01*
X155203591Y-66396053D01*
X155174566Y-66459608D01*
X155115787Y-66497382D01*
X155045918Y-66497382D01*
X154987140Y-66459607D01*
X154968060Y-66429919D01*
X154967869Y-66429500D01*
X154954645Y-66414239D01*
X154873621Y-66320731D01*
X154873620Y-66320730D01*
X154752545Y-66242920D01*
X154614453Y-66202373D01*
X154470531Y-66202373D01*
X154332439Y-66242920D01*
X154211362Y-66320731D01*
X154117115Y-66429498D01*
X154063127Y-66547714D01*
X154017372Y-66600518D01*
X153950332Y-66620202D01*
X153883293Y-66600517D01*
X153856620Y-66577404D01*
X153772530Y-66480358D01*
X153719688Y-66446399D01*
X153651453Y-66402547D01*
X153513361Y-66362000D01*
X153369439Y-66362000D01*
X153231347Y-66402547D01*
X153110270Y-66480358D01*
X153016023Y-66589125D01*
X152956234Y-66720042D01*
X152935753Y-66862500D01*
X152956234Y-67004957D01*
X153016023Y-67135874D01*
X153059386Y-67185918D01*
X153088411Y-67249474D01*
X153078467Y-67318632D01*
X153032713Y-67371435D01*
X152932471Y-67435856D01*
X152838223Y-67544625D01*
X152778434Y-67675542D01*
X152757953Y-67817999D01*
X150294225Y-67817999D01*
X150345165Y-67706457D01*
X150365647Y-67564000D01*
X150345165Y-67421543D01*
X150303108Y-67329453D01*
X150285376Y-67290625D01*
X150191129Y-67181858D01*
X150191128Y-67181857D01*
X150070053Y-67104047D01*
X149931961Y-67063500D01*
X149788039Y-67063500D01*
X149649947Y-67104047D01*
X149540204Y-67174574D01*
X149473164Y-67194258D01*
X149406126Y-67174574D01*
X149354611Y-67141468D01*
X149308053Y-67111547D01*
X149169961Y-67071000D01*
X149026039Y-67071000D01*
X148887947Y-67111547D01*
X148789874Y-67174574D01*
X148722834Y-67194258D01*
X148655796Y-67174574D01*
X148606469Y-67142874D01*
X148546053Y-67104047D01*
X148407961Y-67063500D01*
X148264039Y-67063500D01*
X148125947Y-67104047D01*
X148004870Y-67181858D01*
X147910623Y-67290625D01*
X147850834Y-67421542D01*
X147830353Y-67564000D01*
X132004732Y-67564000D01*
X132050422Y-67534637D01*
X132144671Y-67425867D01*
X132204459Y-67294951D01*
X132224941Y-67152494D01*
X132204459Y-67010037D01*
X132194380Y-66987968D01*
X132144670Y-66879119D01*
X132136335Y-66869500D01*
X133882571Y-66869500D01*
X133903052Y-67011957D01*
X133962841Y-67142874D01*
X134057088Y-67251641D01*
X134057090Y-67251643D01*
X134178165Y-67329453D01*
X134316257Y-67370000D01*
X134460179Y-67370000D01*
X134598271Y-67329453D01*
X134719346Y-67251643D01*
X134813595Y-67142873D01*
X134873383Y-67011957D01*
X134893865Y-66869500D01*
X134874058Y-66731735D01*
X134873383Y-66727042D01*
X134813594Y-66596125D01*
X134719347Y-66487358D01*
X134719346Y-66487357D01*
X134598271Y-66409547D01*
X134460179Y-66369000D01*
X134316257Y-66369000D01*
X134178165Y-66409547D01*
X134057088Y-66487358D01*
X133962841Y-66596125D01*
X133903052Y-66727042D01*
X133882571Y-66869500D01*
X132136335Y-66869500D01*
X132050423Y-66770352D01*
X132050422Y-66770351D01*
X131929347Y-66692541D01*
X131791255Y-66651994D01*
X131647333Y-66651994D01*
X131509241Y-66692541D01*
X131388164Y-66770352D01*
X131293917Y-66879119D01*
X131234128Y-67010036D01*
X131213647Y-67152493D01*
X127572730Y-67152493D01*
X127529161Y-67139700D01*
X127385239Y-67139700D01*
X127247147Y-67180247D01*
X127126070Y-67258058D01*
X127031823Y-67366825D01*
X126972034Y-67497742D01*
X126955543Y-67612446D01*
X126951553Y-67640200D01*
X124620839Y-67640200D01*
X124635447Y-67538600D01*
X124614965Y-67396143D01*
X124584508Y-67329453D01*
X124555176Y-67265225D01*
X124460929Y-67156458D01*
X124460928Y-67156457D01*
X124339853Y-67078647D01*
X124201761Y-67038100D01*
X124057839Y-67038100D01*
X123919747Y-67078647D01*
X123798670Y-67156458D01*
X123704423Y-67265225D01*
X123644634Y-67396142D01*
X123624153Y-67538600D01*
X114935000Y-67538600D01*
X114935000Y-66271782D01*
X136122571Y-66271782D01*
X136143052Y-66414239D01*
X136202841Y-66545156D01*
X136295417Y-66651994D01*
X136297090Y-66653925D01*
X136418165Y-66731735D01*
X136556257Y-66772282D01*
X136700179Y-66772282D01*
X136838271Y-66731735D01*
X136959346Y-66653925D01*
X137053595Y-66545155D01*
X137113383Y-66414239D01*
X137133865Y-66271782D01*
X137113383Y-66129325D01*
X137098541Y-66096827D01*
X137053594Y-65998407D01*
X136959347Y-65889640D01*
X136959346Y-65889639D01*
X136838271Y-65811829D01*
X136750301Y-65785999D01*
X139956353Y-65785999D01*
X139976834Y-65928457D01*
X140036623Y-66059374D01*
X140097235Y-66129324D01*
X140130872Y-66168143D01*
X140251947Y-66245953D01*
X140390039Y-66286500D01*
X140533961Y-66286500D01*
X140672053Y-66245953D01*
X140793128Y-66168143D01*
X140887377Y-66059373D01*
X140947165Y-65928457D01*
X140967647Y-65786000D01*
X140967647Y-65785999D01*
X148592353Y-65785999D01*
X148612834Y-65928457D01*
X148672623Y-66059374D01*
X148733235Y-66129324D01*
X148766872Y-66168143D01*
X148887947Y-66245953D01*
X149026039Y-66286500D01*
X149169961Y-66286500D01*
X149308053Y-66245953D01*
X149429128Y-66168143D01*
X149523377Y-66059373D01*
X149583165Y-65928457D01*
X149603647Y-65786000D01*
X149583165Y-65643543D01*
X149575295Y-65626311D01*
X149523376Y-65512625D01*
X149429129Y-65403858D01*
X149429128Y-65403857D01*
X149308053Y-65326047D01*
X149169961Y-65285500D01*
X149026039Y-65285500D01*
X148887947Y-65326047D01*
X148766870Y-65403858D01*
X148672623Y-65512625D01*
X148612834Y-65643542D01*
X148592353Y-65785999D01*
X140967647Y-65785999D01*
X140947165Y-65643543D01*
X140939295Y-65626311D01*
X140887376Y-65512625D01*
X140793129Y-65403858D01*
X140793128Y-65403857D01*
X140672053Y-65326047D01*
X140533961Y-65285500D01*
X140390039Y-65285500D01*
X140251947Y-65326047D01*
X140130870Y-65403858D01*
X140036623Y-65512625D01*
X139976834Y-65643542D01*
X139956353Y-65785999D01*
X136750301Y-65785999D01*
X136700179Y-65771282D01*
X136556257Y-65771282D01*
X136418165Y-65811829D01*
X136297088Y-65889640D01*
X136202841Y-65998407D01*
X136143052Y-66129324D01*
X136122571Y-66271782D01*
X114935000Y-66271782D01*
X114935000Y-65033667D01*
X124941864Y-65033667D01*
X124962503Y-65190429D01*
X125023010Y-65336507D01*
X125119264Y-65461949D01*
X125172963Y-65503153D01*
X125244706Y-65558203D01*
X125390785Y-65618711D01*
X125526907Y-65636631D01*
X125547546Y-65639349D01*
X125547546Y-65639348D01*
X125547547Y-65639349D01*
X125704309Y-65618711D01*
X125704336Y-65618700D01*
X127789753Y-65618700D01*
X127792327Y-65636606D01*
X127810234Y-65761157D01*
X127870023Y-65892074D01*
X127962161Y-65998407D01*
X127964272Y-66000843D01*
X128085347Y-66078653D01*
X128223439Y-66119200D01*
X128367361Y-66119200D01*
X128505453Y-66078653D01*
X128626528Y-66000843D01*
X128720777Y-65892073D01*
X128780565Y-65761157D01*
X128801047Y-65618700D01*
X128798569Y-65601466D01*
X128801054Y-65584177D01*
X132284176Y-65584177D01*
X132304657Y-65726634D01*
X132364446Y-65857551D01*
X132441001Y-65945900D01*
X132458695Y-65966320D01*
X132579770Y-66044130D01*
X132717862Y-66084677D01*
X132861784Y-66084677D01*
X132999876Y-66044130D01*
X133120951Y-65966320D01*
X133215200Y-65857550D01*
X133274988Y-65726634D01*
X133295470Y-65584177D01*
X133274988Y-65441720D01*
X133272895Y-65437138D01*
X133215199Y-65310802D01*
X133120952Y-65202035D01*
X133120951Y-65202034D01*
X132999876Y-65124224D01*
X132861784Y-65083677D01*
X132717862Y-65083677D01*
X132579770Y-65124224D01*
X132458693Y-65202035D01*
X132364446Y-65310802D01*
X132304657Y-65441719D01*
X132284176Y-65584177D01*
X128801054Y-65584177D01*
X128808511Y-65532309D01*
X128854264Y-65479504D01*
X128921303Y-65459818D01*
X128988343Y-65479501D01*
X128988344Y-65479502D01*
X129025145Y-65503152D01*
X129025147Y-65503153D01*
X129163239Y-65543700D01*
X129307161Y-65543700D01*
X129445253Y-65503153D01*
X129566328Y-65425343D01*
X129660577Y-65316573D01*
X129720365Y-65185657D01*
X129740847Y-65043200D01*
X129720365Y-64900743D01*
X129709478Y-64876905D01*
X129660576Y-64769825D01*
X129566329Y-64661058D01*
X129566328Y-64661057D01*
X129445253Y-64583247D01*
X129307161Y-64542700D01*
X129163239Y-64542700D01*
X129163238Y-64542700D01*
X129081044Y-64566834D01*
X129011175Y-64566834D01*
X128952397Y-64529059D01*
X128923372Y-64465504D01*
X128923371Y-64441000D01*
X152910353Y-64441000D01*
X152930834Y-64583457D01*
X152990623Y-64714374D01*
X153084870Y-64823141D01*
X153084872Y-64823143D01*
X153205947Y-64900953D01*
X153344039Y-64941500D01*
X153487961Y-64941500D01*
X153626053Y-64900953D01*
X153747128Y-64823143D01*
X153841377Y-64714373D01*
X153901165Y-64583457D01*
X153921647Y-64441000D01*
X153901165Y-64298543D01*
X153881390Y-64255243D01*
X153841376Y-64167625D01*
X153761549Y-64075500D01*
X154688353Y-64075500D01*
X154708834Y-64217957D01*
X154768623Y-64348874D01*
X154837173Y-64427985D01*
X154862872Y-64457643D01*
X154983947Y-64535453D01*
X155122039Y-64576000D01*
X155265961Y-64576000D01*
X155404053Y-64535453D01*
X155525128Y-64457643D01*
X155619377Y-64348873D01*
X155679165Y-64217957D01*
X155699647Y-64075500D01*
X155679165Y-63933043D01*
X155619377Y-63802127D01*
X155619376Y-63802126D01*
X155619376Y-63802125D01*
X155525129Y-63693358D01*
X155525128Y-63693357D01*
X155404053Y-63615547D01*
X155265961Y-63575000D01*
X155122039Y-63575000D01*
X154983947Y-63615547D01*
X154862870Y-63693358D01*
X154768623Y-63802125D01*
X154708834Y-63933042D01*
X154688353Y-64075500D01*
X153761549Y-64075500D01*
X153747129Y-64058858D01*
X153747128Y-64058857D01*
X153626053Y-63981047D01*
X153487961Y-63940500D01*
X153344039Y-63940500D01*
X153205947Y-63981047D01*
X153084870Y-64058858D01*
X152990623Y-64167625D01*
X152930834Y-64298542D01*
X152910353Y-64441000D01*
X128923371Y-64441000D01*
X128923371Y-64430215D01*
X128928047Y-64397700D01*
X128907565Y-64255243D01*
X128847777Y-64124327D01*
X128847776Y-64124326D01*
X128847776Y-64124325D01*
X128753529Y-64015558D01*
X128753528Y-64015557D01*
X128632453Y-63937747D01*
X128494361Y-63897200D01*
X128350439Y-63897200D01*
X128212347Y-63937747D01*
X128091270Y-64015558D01*
X127997023Y-64124325D01*
X127937234Y-64255242D01*
X127916753Y-64397699D01*
X127937234Y-64540157D01*
X127997023Y-64671074D01*
X128082591Y-64769825D01*
X128091272Y-64779843D01*
X128212347Y-64857653D01*
X128268242Y-64874065D01*
X128272186Y-64875223D01*
X128330964Y-64912997D01*
X128359989Y-64976553D01*
X128350045Y-65045711D01*
X128304291Y-65098515D01*
X128237251Y-65118200D01*
X128223439Y-65118200D01*
X128085347Y-65158747D01*
X127964270Y-65236558D01*
X127870023Y-65345325D01*
X127810234Y-65476242D01*
X127789753Y-65618699D01*
X127789753Y-65618700D01*
X125704336Y-65618700D01*
X125850388Y-65558203D01*
X125975829Y-65461949D01*
X126072083Y-65336508D01*
X126132591Y-65190429D01*
X126153229Y-65033667D01*
X126132591Y-64876905D01*
X126072083Y-64730826D01*
X126023781Y-64667877D01*
X125975829Y-64605384D01*
X125850387Y-64509130D01*
X125704309Y-64448623D01*
X125547547Y-64427984D01*
X125390784Y-64448623D01*
X125244706Y-64509130D01*
X125119264Y-64605384D01*
X125023010Y-64730826D01*
X124962503Y-64876904D01*
X124941864Y-65033667D01*
X114935000Y-65033667D01*
X114935000Y-64163382D01*
X114954685Y-64096343D01*
X115007489Y-64050588D01*
X115076647Y-64040644D01*
X115140203Y-64069669D01*
X115177977Y-64128447D01*
X115178266Y-64129448D01*
X115189145Y-64167687D01*
X115283343Y-64356861D01*
X115410698Y-64525507D01*
X115566869Y-64667875D01*
X115566871Y-64667876D01*
X115566872Y-64667877D01*
X115746547Y-64779128D01*
X115943605Y-64855468D01*
X116151336Y-64894300D01*
X116151338Y-64894300D01*
X116362662Y-64894300D01*
X116362664Y-64894300D01*
X116570395Y-64855468D01*
X116767453Y-64779128D01*
X116947128Y-64667877D01*
X117103302Y-64525506D01*
X117230656Y-64356862D01*
X117324853Y-64167689D01*
X117324871Y-64167627D01*
X117382686Y-63964429D01*
X117385734Y-63931528D01*
X117402185Y-63754000D01*
X117383610Y-63553540D01*
X117382686Y-63543570D01*
X117324854Y-63340312D01*
X117230656Y-63151138D01*
X117103301Y-62982492D01*
X116947130Y-62840124D01*
X116767451Y-62728871D01*
X116570395Y-62652532D01*
X116570394Y-62652532D01*
X116362664Y-62613700D01*
X116151336Y-62613700D01*
X116012848Y-62639588D01*
X115943604Y-62652532D01*
X115746548Y-62728871D01*
X115566869Y-62840124D01*
X115410698Y-62982492D01*
X115283343Y-63151138D01*
X115189146Y-63340311D01*
X115178266Y-63378552D01*
X115140987Y-63437645D01*
X115077677Y-63467202D01*
X115008437Y-63457840D01*
X114955251Y-63412530D01*
X114935004Y-63345658D01*
X114935000Y-63344617D01*
X114935000Y-62585600D01*
X122227153Y-62585600D01*
X122247634Y-62728057D01*
X122307423Y-62858974D01*
X122401670Y-62967741D01*
X122401672Y-62967743D01*
X122522747Y-63045553D01*
X122660839Y-63086100D01*
X122804761Y-63086100D01*
X122942853Y-63045553D01*
X123063928Y-62967743D01*
X123086928Y-62941199D01*
X127434153Y-62941199D01*
X127454634Y-63083657D01*
X127514423Y-63214574D01*
X127607228Y-63321677D01*
X127608672Y-63323343D01*
X127729747Y-63401153D01*
X127867839Y-63441700D01*
X128011761Y-63441700D01*
X128149853Y-63401153D01*
X128270928Y-63323343D01*
X128308341Y-63280166D01*
X128915452Y-63280166D01*
X128935933Y-63422624D01*
X128995722Y-63553541D01*
X129060365Y-63628143D01*
X129089971Y-63662310D01*
X129211046Y-63740120D01*
X129349138Y-63780667D01*
X129493060Y-63780667D01*
X129631152Y-63740120D01*
X129752227Y-63662310D01*
X129846476Y-63553540D01*
X129906264Y-63422624D01*
X129926746Y-63280167D01*
X129921833Y-63245999D01*
X157228353Y-63245999D01*
X157248834Y-63388457D01*
X157308623Y-63519374D01*
X157402870Y-63628141D01*
X157402872Y-63628143D01*
X157523947Y-63705953D01*
X157662039Y-63746500D01*
X157805961Y-63746500D01*
X157944053Y-63705953D01*
X158065128Y-63628143D01*
X158159377Y-63519373D01*
X158219165Y-63388457D01*
X158239647Y-63246000D01*
X158219165Y-63103543D01*
X158210083Y-63083657D01*
X158159376Y-62972625D01*
X158065129Y-62863858D01*
X158065128Y-62863857D01*
X157944053Y-62786047D01*
X157805961Y-62745500D01*
X157662039Y-62745500D01*
X157523947Y-62786047D01*
X157402870Y-62863858D01*
X157308623Y-62972625D01*
X157248834Y-63103542D01*
X157228353Y-63245999D01*
X129921833Y-63245999D01*
X129906264Y-63137710D01*
X129890660Y-63103543D01*
X129846475Y-63006792D01*
X129752228Y-62898025D01*
X129752227Y-62898024D01*
X129631152Y-62820214D01*
X129493060Y-62779667D01*
X129349138Y-62779667D01*
X129211046Y-62820214D01*
X129089969Y-62898025D01*
X128995722Y-63006792D01*
X128935933Y-63137709D01*
X128915452Y-63280166D01*
X128308341Y-63280166D01*
X128365177Y-63214573D01*
X128424965Y-63083657D01*
X128445447Y-62941200D01*
X128424965Y-62798743D01*
X128380199Y-62700721D01*
X128370256Y-62631566D01*
X128399280Y-62568010D01*
X128458058Y-62530235D01*
X128527925Y-62530234D01*
X128527927Y-62530234D01*
X128527928Y-62530235D01*
X128604438Y-62552700D01*
X128604439Y-62552700D01*
X128748361Y-62552700D01*
X128886453Y-62512153D01*
X129007528Y-62434343D01*
X129101777Y-62325573D01*
X129161565Y-62194657D01*
X129182047Y-62052200D01*
X129161565Y-61909743D01*
X129159625Y-61905496D01*
X129101776Y-61778825D01*
X129007529Y-61670058D01*
X129007528Y-61670057D01*
X128886453Y-61592247D01*
X128748361Y-61551700D01*
X128604439Y-61551700D01*
X128466347Y-61592247D01*
X128345270Y-61670058D01*
X128251023Y-61778825D01*
X128191234Y-61909742D01*
X128170753Y-62052200D01*
X128191234Y-62194657D01*
X128235999Y-62292675D01*
X128245943Y-62361833D01*
X128216919Y-62425389D01*
X128158141Y-62463164D01*
X128088271Y-62463165D01*
X128088267Y-62463164D01*
X128070520Y-62457953D01*
X128011761Y-62440700D01*
X127867839Y-62440700D01*
X127729747Y-62481247D01*
X127608670Y-62559058D01*
X127514423Y-62667825D01*
X127454634Y-62798742D01*
X127434153Y-62941199D01*
X123086928Y-62941199D01*
X123158177Y-62858973D01*
X123217965Y-62728057D01*
X123238447Y-62585600D01*
X123217965Y-62443143D01*
X123216849Y-62440700D01*
X123184967Y-62370889D01*
X123158177Y-62312227D01*
X123113270Y-62260401D01*
X123109917Y-62253060D01*
X125118491Y-62253060D01*
X125132296Y-62261735D01*
X125302459Y-62321277D01*
X125481600Y-62341462D01*
X125660740Y-62321277D01*
X125830901Y-62261735D01*
X125844929Y-62252920D01*
X125844850Y-62252869D01*
X126018184Y-62252869D01*
X126032293Y-62261734D01*
X126202459Y-62321277D01*
X126381599Y-62341462D01*
X126560740Y-62321277D01*
X126730903Y-62261735D01*
X126744707Y-62253061D01*
X126744707Y-62253060D01*
X126381599Y-61889952D01*
X126381598Y-61889952D01*
X126019280Y-62252271D01*
X126018184Y-62252869D01*
X125844850Y-62252869D01*
X125843918Y-62252271D01*
X125481601Y-61889953D01*
X125481600Y-61889953D01*
X125118491Y-62253060D01*
X123109917Y-62253060D01*
X123084246Y-62196847D01*
X123094190Y-62127688D01*
X123113269Y-62097999D01*
X123158177Y-62046173D01*
X123217965Y-61915257D01*
X123238447Y-61772800D01*
X123217965Y-61630343D01*
X123211349Y-61615857D01*
X123175062Y-61536400D01*
X124676537Y-61536400D01*
X124696722Y-61715540D01*
X124756265Y-61885704D01*
X124764938Y-61899508D01*
X125128046Y-61536400D01*
X125326309Y-61536400D01*
X125347114Y-61614045D01*
X125403955Y-61670886D01*
X125461854Y-61686400D01*
X125501346Y-61686400D01*
X125559245Y-61670886D01*
X125616086Y-61614046D01*
X125636891Y-61536400D01*
X125835152Y-61536400D01*
X125931600Y-61632846D01*
X126028046Y-61536400D01*
X126226309Y-61536400D01*
X126247114Y-61614045D01*
X126303955Y-61670886D01*
X126361854Y-61686400D01*
X126401346Y-61686400D01*
X126459245Y-61670886D01*
X126516086Y-61614046D01*
X126536891Y-61536400D01*
X126516086Y-61458755D01*
X126459245Y-61401914D01*
X126401346Y-61386400D01*
X126361854Y-61386400D01*
X126303955Y-61401914D01*
X126247114Y-61458754D01*
X126226309Y-61536400D01*
X126028046Y-61536400D01*
X126028047Y-61536399D01*
X125974543Y-61482896D01*
X125945401Y-61474339D01*
X125914386Y-61474339D01*
X125890983Y-61487118D01*
X125883644Y-61487907D01*
X125835152Y-61536400D01*
X125636891Y-61536400D01*
X125616086Y-61458755D01*
X125559245Y-61401914D01*
X125501346Y-61386400D01*
X125461854Y-61386400D01*
X125403955Y-61401914D01*
X125347114Y-61458754D01*
X125326309Y-61536400D01*
X125128046Y-61536400D01*
X125528047Y-61136400D01*
X126335153Y-61136400D01*
X127098260Y-61899507D01*
X127098261Y-61899507D01*
X127106935Y-61885703D01*
X127166477Y-61715540D01*
X127186662Y-61536400D01*
X127166477Y-61357259D01*
X127103526Y-61177353D01*
X127099965Y-61107575D01*
X127103527Y-61095444D01*
X127106920Y-61085748D01*
X136780638Y-61085748D01*
X136800463Y-61312350D01*
X136859338Y-61532074D01*
X136955471Y-61738232D01*
X137006577Y-61811219D01*
X137006579Y-61811220D01*
X137687651Y-61130147D01*
X137700440Y-61210896D01*
X137757964Y-61323793D01*
X137847560Y-61413389D01*
X137960457Y-61470913D01*
X138041204Y-61483701D01*
X137360131Y-62164773D01*
X137360131Y-62164774D01*
X137433120Y-62215881D01*
X137639278Y-62312014D01*
X137859002Y-62370889D01*
X138085605Y-62390714D01*
X138312207Y-62370889D01*
X138531931Y-62312014D01*
X138707809Y-62230000D01*
X146052353Y-62230000D01*
X146072834Y-62372457D01*
X146132623Y-62503374D01*
X146226870Y-62612141D01*
X146226872Y-62612143D01*
X146347947Y-62689953D01*
X146486039Y-62730500D01*
X146629961Y-62730500D01*
X146768053Y-62689953D01*
X146889128Y-62612143D01*
X146983377Y-62503373D01*
X147043165Y-62372457D01*
X147063647Y-62230000D01*
X147043165Y-62087543D01*
X147036694Y-62073374D01*
X147002271Y-61997999D01*
X147945853Y-61997999D01*
X147966334Y-62140457D01*
X148026123Y-62271374D01*
X148086855Y-62341462D01*
X148120372Y-62380143D01*
X148241447Y-62457953D01*
X148379539Y-62498500D01*
X148523461Y-62498500D01*
X148661553Y-62457953D01*
X148782628Y-62380143D01*
X148876877Y-62271373D01*
X148936665Y-62140457D01*
X148957147Y-61998000D01*
X148953984Y-61976000D01*
X149608353Y-61976000D01*
X149628834Y-62118457D01*
X149688623Y-62249374D01*
X149754650Y-62325573D01*
X149782872Y-62358143D01*
X149903947Y-62435953D01*
X150042039Y-62476500D01*
X150185961Y-62476500D01*
X150324053Y-62435953D01*
X150367860Y-62407800D01*
X179829815Y-62407800D01*
X179849313Y-62618229D01*
X179907145Y-62821487D01*
X180001343Y-63010661D01*
X180128698Y-63179307D01*
X180284869Y-63321675D01*
X180284871Y-63321676D01*
X180284872Y-63321677D01*
X180464547Y-63432928D01*
X180661605Y-63509268D01*
X180869336Y-63548100D01*
X180869338Y-63548100D01*
X181080662Y-63548100D01*
X181080664Y-63548100D01*
X181288395Y-63509268D01*
X181485453Y-63432928D01*
X181665128Y-63321677D01*
X181821302Y-63179306D01*
X181948656Y-63010662D01*
X182042853Y-62821489D01*
X182049325Y-62798743D01*
X182100686Y-62618229D01*
X182106758Y-62552700D01*
X182120185Y-62407800D01*
X182100686Y-62197373D01*
X182100686Y-62197370D01*
X182042854Y-61994112D01*
X181948656Y-61804938D01*
X181821301Y-61636292D01*
X181665130Y-61493924D01*
X181535062Y-61413389D01*
X181485453Y-61382672D01*
X181485451Y-61382671D01*
X181288395Y-61306332D01*
X181251847Y-61299500D01*
X181080664Y-61267500D01*
X180869336Y-61267500D01*
X180730848Y-61293387D01*
X180661604Y-61306332D01*
X180464548Y-61382671D01*
X180284869Y-61493924D01*
X180128698Y-61636292D01*
X180001343Y-61804938D01*
X179907145Y-61994112D01*
X179849313Y-62197370D01*
X179829815Y-62407800D01*
X150367860Y-62407800D01*
X150445128Y-62358143D01*
X150539377Y-62249373D01*
X150599165Y-62118457D01*
X150619647Y-61976000D01*
X150599165Y-61833543D01*
X150588970Y-61811220D01*
X150583846Y-61800000D01*
X158384353Y-61800000D01*
X158404834Y-61942457D01*
X158464623Y-62073374D01*
X158556322Y-62179200D01*
X158558872Y-62182143D01*
X158679947Y-62259953D01*
X158818039Y-62300500D01*
X158961961Y-62300500D01*
X159100053Y-62259953D01*
X159221128Y-62182143D01*
X159315377Y-62073373D01*
X159375165Y-61942457D01*
X159395647Y-61800000D01*
X159395647Y-61799999D01*
X175884353Y-61799999D01*
X175904834Y-61942457D01*
X175964623Y-62073374D01*
X176056322Y-62179200D01*
X176058872Y-62182143D01*
X176179947Y-62259953D01*
X176318039Y-62300500D01*
X176461961Y-62300500D01*
X176600053Y-62259953D01*
X176721128Y-62182143D01*
X176815377Y-62073373D01*
X176875165Y-61942457D01*
X176895647Y-61800000D01*
X176875165Y-61657543D01*
X176856127Y-61615857D01*
X176815376Y-61526625D01*
X176721129Y-61417858D01*
X176721128Y-61417857D01*
X176600053Y-61340047D01*
X176461961Y-61299500D01*
X176318039Y-61299500D01*
X176179947Y-61340047D01*
X176058870Y-61417858D01*
X175964623Y-61526625D01*
X175904834Y-61657542D01*
X175884353Y-61799999D01*
X159395647Y-61799999D01*
X159375165Y-61657543D01*
X159356127Y-61615857D01*
X159315376Y-61526625D01*
X159221129Y-61417858D01*
X159221128Y-61417857D01*
X159100053Y-61340047D01*
X158961961Y-61299500D01*
X158818039Y-61299500D01*
X158679947Y-61340047D01*
X158558870Y-61417858D01*
X158464623Y-61526625D01*
X158404834Y-61657542D01*
X158384353Y-61800000D01*
X150583846Y-61800000D01*
X150539376Y-61702625D01*
X150445129Y-61593858D01*
X150445128Y-61593857D01*
X150324053Y-61516047D01*
X150185961Y-61475500D01*
X150042039Y-61475500D01*
X149903947Y-61516047D01*
X149782870Y-61593858D01*
X149688623Y-61702625D01*
X149628834Y-61833542D01*
X149608353Y-61976000D01*
X148953984Y-61976000D01*
X148936665Y-61855543D01*
X148933155Y-61847858D01*
X148876876Y-61724625D01*
X148782629Y-61615858D01*
X148782628Y-61615857D01*
X148661553Y-61538047D01*
X148523461Y-61497500D01*
X148379539Y-61497500D01*
X148241447Y-61538047D01*
X148120370Y-61615858D01*
X148026123Y-61724625D01*
X147966334Y-61855542D01*
X147945853Y-61997999D01*
X147002271Y-61997999D01*
X146983376Y-61956625D01*
X146889129Y-61847858D01*
X146889128Y-61847857D01*
X146768053Y-61770047D01*
X146629961Y-61729500D01*
X146486039Y-61729500D01*
X146347947Y-61770047D01*
X146226870Y-61847858D01*
X146132623Y-61956625D01*
X146072834Y-62087542D01*
X146052353Y-62230000D01*
X138707809Y-62230000D01*
X138738085Y-62215882D01*
X138811077Y-62164773D01*
X138551800Y-61905496D01*
X140585105Y-61905496D01*
X140596737Y-61963978D01*
X140641052Y-62030300D01*
X140707374Y-62074615D01*
X140765856Y-62086248D01*
X140765857Y-62086248D01*
X142405354Y-62086248D01*
X142434594Y-62080431D01*
X142463836Y-62074615D01*
X142530157Y-62030300D01*
X142574472Y-61963979D01*
X142586105Y-61905496D01*
X142586105Y-60266000D01*
X142574472Y-60207517D01*
X142568112Y-60197999D01*
X149608353Y-60197999D01*
X149628834Y-60340457D01*
X149688623Y-60471374D01*
X149763043Y-60557259D01*
X149782872Y-60580143D01*
X149903947Y-60657953D01*
X150042039Y-60698500D01*
X150185961Y-60698500D01*
X150324053Y-60657953D01*
X150445128Y-60580143D01*
X150539377Y-60471373D01*
X150599165Y-60340457D01*
X150619647Y-60198000D01*
X156212353Y-60198000D01*
X156232834Y-60340457D01*
X156292623Y-60471374D01*
X156367043Y-60557259D01*
X156386872Y-60580143D01*
X156507947Y-60657953D01*
X156646039Y-60698500D01*
X156789961Y-60698500D01*
X156928053Y-60657953D01*
X157049128Y-60580143D01*
X157143377Y-60471373D01*
X157203165Y-60340457D01*
X157223647Y-60198000D01*
X157203165Y-60055543D01*
X157186813Y-60019738D01*
X157146059Y-59930499D01*
X172976353Y-59930499D01*
X172996834Y-60072957D01*
X173056623Y-60203874D01*
X173125798Y-60283706D01*
X173150872Y-60312643D01*
X173271947Y-60390453D01*
X173410039Y-60431000D01*
X173553961Y-60431000D01*
X173692053Y-60390453D01*
X173813128Y-60312643D01*
X173907377Y-60203873D01*
X173967165Y-60072957D01*
X173987647Y-59930500D01*
X173967165Y-59788043D01*
X173966073Y-59785652D01*
X173907376Y-59657125D01*
X173813129Y-59548358D01*
X173813128Y-59548357D01*
X173756865Y-59512199D01*
X179829815Y-59512199D01*
X179849313Y-59722629D01*
X179907145Y-59925887D01*
X180001343Y-60115061D01*
X180128698Y-60283707D01*
X180284869Y-60426075D01*
X180284871Y-60426076D01*
X180284872Y-60426077D01*
X180464547Y-60537328D01*
X180661605Y-60613668D01*
X180869336Y-60652500D01*
X180869338Y-60652500D01*
X181080662Y-60652500D01*
X181080664Y-60652500D01*
X181288395Y-60613668D01*
X181485453Y-60537328D01*
X181665128Y-60426077D01*
X181821302Y-60283706D01*
X181948656Y-60115062D01*
X182042853Y-59925889D01*
X182042854Y-59925887D01*
X182100686Y-59722629D01*
X182106755Y-59657127D01*
X182120185Y-59512200D01*
X182100686Y-59301773D01*
X182100686Y-59301770D01*
X182042854Y-59098512D01*
X181948656Y-58909338D01*
X181821301Y-58740692D01*
X181665130Y-58598324D01*
X181485451Y-58487071D01*
X181288395Y-58410732D01*
X181288394Y-58410732D01*
X181080664Y-58371900D01*
X180869336Y-58371900D01*
X180730848Y-58397787D01*
X180661604Y-58410732D01*
X180464548Y-58487071D01*
X180284869Y-58598324D01*
X180128698Y-58740692D01*
X180001343Y-58909338D01*
X179907145Y-59098512D01*
X179849313Y-59301770D01*
X179829815Y-59512199D01*
X173756865Y-59512199D01*
X173692053Y-59470547D01*
X173553961Y-59430000D01*
X173410039Y-59430000D01*
X173271947Y-59470547D01*
X173150870Y-59548358D01*
X173056623Y-59657125D01*
X172996834Y-59788042D01*
X172976353Y-59930499D01*
X157146059Y-59930499D01*
X157143376Y-59924625D01*
X157049129Y-59815858D01*
X157049128Y-59815857D01*
X156928053Y-59738047D01*
X156789961Y-59697500D01*
X156646039Y-59697500D01*
X156507947Y-59738047D01*
X156386870Y-59815858D01*
X156292623Y-59924625D01*
X156232834Y-60055542D01*
X156212353Y-60198000D01*
X150619647Y-60198000D01*
X150599165Y-60055543D01*
X150582813Y-60019738D01*
X150539376Y-59924625D01*
X150445129Y-59815858D01*
X150445128Y-59815857D01*
X150324053Y-59738047D01*
X150185961Y-59697500D01*
X150042039Y-59697500D01*
X149903947Y-59738047D01*
X149782870Y-59815858D01*
X149688623Y-59924625D01*
X149628834Y-60055542D01*
X149608353Y-60197999D01*
X142568112Y-60197999D01*
X142562013Y-60188871D01*
X142530157Y-60141195D01*
X142463835Y-60096880D01*
X142405354Y-60085248D01*
X142405353Y-60085248D01*
X140765857Y-60085248D01*
X140765856Y-60085248D01*
X140707374Y-60096880D01*
X140641052Y-60141195D01*
X140596737Y-60207517D01*
X140585105Y-60265999D01*
X140585105Y-61905496D01*
X138551800Y-61905496D01*
X138130006Y-61483701D01*
X138210753Y-61470913D01*
X138323650Y-61413389D01*
X138413246Y-61323793D01*
X138470770Y-61210896D01*
X138483558Y-61130148D01*
X139164630Y-61811220D01*
X139215739Y-61738228D01*
X139311871Y-61532074D01*
X139370746Y-61312350D01*
X139390571Y-61085748D01*
X139370746Y-60859145D01*
X139311871Y-60639421D01*
X139215738Y-60433263D01*
X139164630Y-60360274D01*
X138483558Y-61041346D01*
X138470770Y-60960600D01*
X138413246Y-60847703D01*
X138323650Y-60758107D01*
X138210753Y-60700583D01*
X138130005Y-60687794D01*
X138811077Y-60006722D01*
X138811076Y-60006720D01*
X138738089Y-59955614D01*
X138531931Y-59859481D01*
X138312207Y-59800606D01*
X138085604Y-59780781D01*
X137859002Y-59800606D01*
X137639277Y-59859481D01*
X137433121Y-59955613D01*
X137360132Y-60006721D01*
X137360131Y-60006721D01*
X138041205Y-60687794D01*
X137960457Y-60700583D01*
X137847560Y-60758107D01*
X137757964Y-60847703D01*
X137700440Y-60960600D01*
X137687651Y-61041347D01*
X137006578Y-60360274D01*
X137006578Y-60360275D01*
X136955470Y-60433264D01*
X136859338Y-60639420D01*
X136800463Y-60859145D01*
X136780638Y-61085748D01*
X127106920Y-61085748D01*
X127166477Y-60915543D01*
X127186662Y-60736400D01*
X127166477Y-60557259D01*
X127106935Y-60387096D01*
X127098260Y-60373291D01*
X126381600Y-61089953D01*
X126335153Y-61136400D01*
X125528047Y-61136400D01*
X125481600Y-61089953D01*
X125128047Y-60736400D01*
X125326309Y-60736400D01*
X125347114Y-60814045D01*
X125403955Y-60870886D01*
X125461854Y-60886400D01*
X125501346Y-60886400D01*
X125559245Y-60870886D01*
X125616086Y-60814046D01*
X125636891Y-60736400D01*
X125636891Y-60736399D01*
X125835152Y-60736399D01*
X125888656Y-60789903D01*
X125917796Y-60798460D01*
X125948813Y-60798460D01*
X125972216Y-60785681D01*
X125979554Y-60784892D01*
X126028047Y-60736401D01*
X126028047Y-60736400D01*
X126226309Y-60736400D01*
X126247114Y-60814045D01*
X126303955Y-60870886D01*
X126361854Y-60886400D01*
X126401346Y-60886400D01*
X126459245Y-60870886D01*
X126516086Y-60814046D01*
X126536891Y-60736400D01*
X126516086Y-60658755D01*
X126459245Y-60601914D01*
X126401346Y-60586400D01*
X126361854Y-60586400D01*
X126303955Y-60601914D01*
X126247114Y-60658754D01*
X126226309Y-60736400D01*
X126028047Y-60736400D01*
X125931600Y-60639952D01*
X125835152Y-60736399D01*
X125636891Y-60736399D01*
X125616086Y-60658755D01*
X125559245Y-60601914D01*
X125501346Y-60586400D01*
X125461854Y-60586400D01*
X125403955Y-60601914D01*
X125347114Y-60658754D01*
X125326309Y-60736400D01*
X125128047Y-60736400D01*
X124764938Y-60373290D01*
X124764938Y-60373291D01*
X124756264Y-60387096D01*
X124696722Y-60557259D01*
X124676537Y-60736400D01*
X124696722Y-60915540D01*
X124759673Y-61095446D01*
X124763234Y-61165225D01*
X124759673Y-61177354D01*
X124696722Y-61357259D01*
X124676537Y-61536400D01*
X123175062Y-61536400D01*
X123158176Y-61499425D01*
X123063929Y-61390658D01*
X123063928Y-61390657D01*
X122942853Y-61312847D01*
X122804761Y-61272300D01*
X122660839Y-61272300D01*
X122522747Y-61312847D01*
X122401670Y-61390658D01*
X122307423Y-61499425D01*
X122247634Y-61630342D01*
X122227153Y-61772800D01*
X122247634Y-61915257D01*
X122300174Y-62030300D01*
X122307423Y-62046173D01*
X122352328Y-62097996D01*
X122381353Y-62161552D01*
X122371409Y-62230711D01*
X122352329Y-62260400D01*
X122307423Y-62312225D01*
X122247634Y-62443142D01*
X122227153Y-62585600D01*
X114935000Y-62585600D01*
X114935000Y-61213999D01*
X115365815Y-61213999D01*
X115385313Y-61424429D01*
X115443145Y-61627687D01*
X115537343Y-61816861D01*
X115664698Y-61985507D01*
X115820869Y-62127875D01*
X115820871Y-62127876D01*
X115820872Y-62127877D01*
X116000547Y-62239128D01*
X116197605Y-62315468D01*
X116405336Y-62354300D01*
X116405338Y-62354300D01*
X116616662Y-62354300D01*
X116616664Y-62354300D01*
X116824395Y-62315468D01*
X117021453Y-62239128D01*
X117201128Y-62127877D01*
X117357302Y-61985506D01*
X117484656Y-61816862D01*
X117578853Y-61627689D01*
X117578854Y-61627687D01*
X117636686Y-61424429D01*
X117648262Y-61299500D01*
X117656185Y-61214000D01*
X117636686Y-61003573D01*
X117636686Y-61003570D01*
X117578854Y-60800312D01*
X117484656Y-60611138D01*
X117357301Y-60442492D01*
X117201130Y-60300124D01*
X117021451Y-60188871D01*
X116824395Y-60112532D01*
X116824394Y-60112532D01*
X116616664Y-60073700D01*
X116405336Y-60073700D01*
X116281335Y-60096880D01*
X116197604Y-60112532D01*
X116000548Y-60188871D01*
X115820869Y-60300124D01*
X115664698Y-60442492D01*
X115537343Y-60611138D01*
X115443145Y-60800312D01*
X115385313Y-61003570D01*
X115365815Y-61213999D01*
X114935000Y-61213999D01*
X114935000Y-60019739D01*
X125118490Y-60019739D01*
X125481598Y-60382847D01*
X125481599Y-60382847D01*
X125843918Y-60020528D01*
X125845013Y-60019930D01*
X125844929Y-60019877D01*
X126018267Y-60019877D01*
X126019280Y-60020528D01*
X126381600Y-60382847D01*
X126381601Y-60382847D01*
X126770128Y-59994318D01*
X126831451Y-59960833D01*
X126892744Y-59963022D01*
X126894204Y-59963450D01*
X126894208Y-59963453D01*
X127032300Y-60004000D01*
X127176222Y-60004000D01*
X127314314Y-59963453D01*
X127435389Y-59885643D01*
X127435388Y-59885643D01*
X127450388Y-59876004D01*
X127452032Y-59878563D01*
X127487086Y-59856032D01*
X127556955Y-59856026D01*
X127592028Y-59878562D01*
X127593673Y-59876004D01*
X127608672Y-59885643D01*
X127729747Y-59963453D01*
X127867839Y-60004000D01*
X128011761Y-60004000D01*
X128149853Y-59963453D01*
X128270928Y-59885643D01*
X128365177Y-59776873D01*
X128424965Y-59645957D01*
X128445447Y-59503500D01*
X128424965Y-59361043D01*
X128386520Y-59276862D01*
X128365176Y-59230125D01*
X128270929Y-59121358D01*
X128270928Y-59121357D01*
X128149853Y-59043547D01*
X128011761Y-59003000D01*
X127867839Y-59003000D01*
X127729747Y-59043547D01*
X127593673Y-59130996D01*
X127592027Y-59128436D01*
X127556950Y-59150973D01*
X127487081Y-59150965D01*
X127452032Y-59128437D01*
X127450388Y-59130996D01*
X127382997Y-59087687D01*
X127314314Y-59043547D01*
X127176222Y-59003000D01*
X127032300Y-59003000D01*
X126894208Y-59043547D01*
X126773131Y-59121358D01*
X126678884Y-59230125D01*
X126619095Y-59361042D01*
X126598614Y-59503500D01*
X126619095Y-59645957D01*
X126678381Y-59775772D01*
X126688325Y-59844930D01*
X126659300Y-59908486D01*
X126600522Y-59946261D01*
X126551703Y-59950504D01*
X126381600Y-59931337D01*
X126202459Y-59951522D01*
X126032294Y-60011065D01*
X126018267Y-60019877D01*
X125844929Y-60019877D01*
X125830903Y-60011064D01*
X125660740Y-59951522D01*
X125481600Y-59931337D01*
X125302459Y-59951522D01*
X125132296Y-60011064D01*
X125118491Y-60019738D01*
X125118490Y-60019739D01*
X114935000Y-60019739D01*
X114935000Y-59083382D01*
X114954685Y-59016343D01*
X115007489Y-58970588D01*
X115076647Y-58960644D01*
X115140203Y-58989669D01*
X115177977Y-59048447D01*
X115178266Y-59049448D01*
X115189145Y-59087687D01*
X115283343Y-59276861D01*
X115410698Y-59445507D01*
X115566869Y-59587875D01*
X115566871Y-59587876D01*
X115566872Y-59587877D01*
X115746547Y-59699128D01*
X115943605Y-59775468D01*
X116151336Y-59814300D01*
X116151338Y-59814300D01*
X116362662Y-59814300D01*
X116362664Y-59814300D01*
X116570395Y-59775468D01*
X116767453Y-59699128D01*
X116947128Y-59587877D01*
X117103302Y-59445506D01*
X117230656Y-59276862D01*
X117324853Y-59087689D01*
X117324854Y-59087687D01*
X117382686Y-58884429D01*
X117385513Y-58853913D01*
X117402185Y-58674000D01*
X117384864Y-58487072D01*
X117382686Y-58463570D01*
X117370289Y-58420000D01*
X128272353Y-58420000D01*
X128292834Y-58562457D01*
X128352623Y-58693374D01*
X128446870Y-58802141D01*
X128446872Y-58802143D01*
X128567947Y-58879953D01*
X128706039Y-58920500D01*
X128849961Y-58920500D01*
X128988053Y-58879953D01*
X129109128Y-58802143D01*
X129203377Y-58693373D01*
X129263165Y-58562457D01*
X129283647Y-58420000D01*
X129263165Y-58277543D01*
X129257737Y-58265658D01*
X129203376Y-58146625D01*
X129109129Y-58037858D01*
X129109128Y-58037857D01*
X128988053Y-57960047D01*
X128849961Y-57919500D01*
X128706039Y-57919500D01*
X128567947Y-57960047D01*
X128446870Y-58037858D01*
X128352623Y-58146625D01*
X128292834Y-58277542D01*
X128272353Y-58420000D01*
X117370289Y-58420000D01*
X117324854Y-58260312D01*
X117230656Y-58071138D01*
X117103301Y-57902492D01*
X116947130Y-57760124D01*
X116767451Y-57648871D01*
X116570395Y-57572532D01*
X116546392Y-57568045D01*
X116546387Y-57568044D01*
X129402679Y-57568044D01*
X129423160Y-57710502D01*
X129482949Y-57841419D01*
X129577196Y-57950186D01*
X129577198Y-57950188D01*
X129698273Y-58027998D01*
X129836365Y-58068545D01*
X129980287Y-58068545D01*
X130118379Y-58027998D01*
X130239454Y-57950188D01*
X130333703Y-57841418D01*
X130393491Y-57710502D01*
X130413973Y-57568045D01*
X130393491Y-57425588D01*
X130333703Y-57294672D01*
X130333702Y-57294671D01*
X130333702Y-57294670D01*
X130239455Y-57185903D01*
X130239454Y-57185902D01*
X130118379Y-57108092D01*
X129980287Y-57067545D01*
X129836365Y-57067545D01*
X129698273Y-57108092D01*
X129577196Y-57185903D01*
X129482949Y-57294670D01*
X129423160Y-57425587D01*
X129402679Y-57568044D01*
X116546387Y-57568044D01*
X116362664Y-57533700D01*
X116151336Y-57533700D01*
X116012848Y-57559588D01*
X115943604Y-57572532D01*
X115746548Y-57648871D01*
X115566869Y-57760124D01*
X115410698Y-57902492D01*
X115283343Y-58071138D01*
X115189146Y-58260311D01*
X115178266Y-58298552D01*
X115140987Y-58357645D01*
X115077677Y-58387202D01*
X115008437Y-58377840D01*
X114955251Y-58332530D01*
X114935004Y-58265658D01*
X114935000Y-58264617D01*
X114935000Y-56161270D01*
X131924420Y-56161270D01*
X131924518Y-56164728D01*
X131930319Y-56268053D01*
X131931302Y-56276099D01*
X131979309Y-56529825D01*
X132065938Y-56777394D01*
X132188496Y-57009285D01*
X132344251Y-57220326D01*
X132529714Y-57405789D01*
X132740755Y-57561544D01*
X132972646Y-57684102D01*
X133220215Y-57770731D01*
X133473939Y-57818738D01*
X133481988Y-57819721D01*
X133585312Y-57825524D01*
X133588769Y-57825620D01*
X134674419Y-57825620D01*
X134674420Y-57825619D01*
X134674420Y-55795142D01*
X134822730Y-55825621D01*
X134975132Y-55825621D01*
X135126757Y-55810202D01*
X135174420Y-55795247D01*
X135174420Y-57825620D01*
X136260070Y-57825620D01*
X136263527Y-57825522D01*
X136366852Y-57819721D01*
X136374898Y-57818738D01*
X136628624Y-57770731D01*
X136876193Y-57684102D01*
X137108084Y-57561544D01*
X137319125Y-57405789D01*
X137504588Y-57220326D01*
X137660343Y-57009285D01*
X137782901Y-56777394D01*
X137869530Y-56529825D01*
X137917537Y-56276101D01*
X137918520Y-56268052D01*
X137924323Y-56164728D01*
X137924420Y-56161271D01*
X137924420Y-55075621D01*
X135892666Y-55075621D01*
X135917986Y-54977830D01*
X135928287Y-54774711D01*
X135897787Y-54575621D01*
X137924419Y-54575621D01*
X137924419Y-53489971D01*
X137924321Y-53486513D01*
X137918520Y-53383188D01*
X137917537Y-53375142D01*
X137869530Y-53121416D01*
X137782901Y-52873847D01*
X137660343Y-52641956D01*
X137504588Y-52430915D01*
X137319125Y-52245452D01*
X137108084Y-52089697D01*
X136876193Y-51967139D01*
X136628624Y-51880510D01*
X136374900Y-51832503D01*
X136366851Y-51831520D01*
X136263527Y-51825717D01*
X136260071Y-51825621D01*
X135174420Y-51825621D01*
X135174420Y-53856099D01*
X135026110Y-53825621D01*
X134873708Y-53825621D01*
X134722083Y-53841040D01*
X134674420Y-53855994D01*
X134674420Y-51825621D01*
X133588770Y-51825621D01*
X133585312Y-51825719D01*
X133481987Y-51831520D01*
X133473941Y-51832503D01*
X133220215Y-51880510D01*
X132972646Y-51967139D01*
X132740755Y-52089697D01*
X132529714Y-52245452D01*
X132344251Y-52430915D01*
X132188496Y-52641956D01*
X132065938Y-52873847D01*
X131979309Y-53121416D01*
X131931302Y-53375140D01*
X131930319Y-53383189D01*
X131924516Y-53486513D01*
X131924420Y-53489970D01*
X131924420Y-54575621D01*
X133956174Y-54575621D01*
X133930854Y-54673412D01*
X133920553Y-54876531D01*
X133951053Y-55075621D01*
X131924421Y-55075621D01*
X131924420Y-56161270D01*
X114935000Y-56161270D01*
X114935000Y-54631662D01*
X116603243Y-54631662D01*
X116608176Y-54661227D01*
X116609443Y-54671394D01*
X116619805Y-54796435D01*
X116620229Y-54806676D01*
X116620229Y-54833175D01*
X116623931Y-54846234D01*
X116624891Y-54857816D01*
X116627745Y-54869088D01*
X116627358Y-54879364D01*
X116637087Y-54907704D01*
X116640010Y-54917524D01*
X116670811Y-55039151D01*
X116672915Y-55049182D01*
X116677278Y-55075330D01*
X116683082Y-55087607D01*
X116685938Y-55098885D01*
X116690609Y-55109534D01*
X116691919Y-55119734D01*
X116706183Y-55146092D01*
X116710684Y-55155299D01*
X116761075Y-55270180D01*
X116764800Y-55279727D01*
X116773406Y-55304797D01*
X116781152Y-55315951D01*
X116785827Y-55326608D01*
X116792185Y-55336340D01*
X116795156Y-55346185D01*
X116813561Y-55369832D01*
X116819516Y-55378172D01*
X116888142Y-55483212D01*
X116893387Y-55492016D01*
X116906001Y-55515324D01*
X116915476Y-55525050D01*
X116921834Y-55534783D01*
X116921835Y-55534784D01*
X116921836Y-55534785D01*
X116929706Y-55543334D01*
X116934258Y-55552557D01*
X116956302Y-55572850D01*
X116963544Y-55580092D01*
X117048538Y-55672420D01*
X117055156Y-55680234D01*
X117071434Y-55701149D01*
X117082380Y-55709182D01*
X117090256Y-55717738D01*
X117099425Y-55724875D01*
X117105435Y-55733224D01*
X117130521Y-55749614D01*
X117138856Y-55755565D01*
X117209054Y-55810202D01*
X117237882Y-55832640D01*
X117245701Y-55839263D01*
X117265198Y-55857211D01*
X117277317Y-55863334D01*
X117279883Y-55865331D01*
X117286491Y-55870474D01*
X117286495Y-55870476D01*
X117296719Y-55876009D01*
X117304018Y-55883253D01*
X117331452Y-55895287D01*
X117340635Y-55899775D01*
X117451039Y-55959522D01*
X117459828Y-55964760D01*
X117482012Y-55979253D01*
X117494964Y-55983294D01*
X117505190Y-55988828D01*
X117505193Y-55988829D01*
X117505195Y-55988830D01*
X117516179Y-55992601D01*
X117524569Y-55998544D01*
X117553613Y-56005899D01*
X117563436Y-56008824D01*
X117682133Y-56049573D01*
X117691680Y-56053298D01*
X117715943Y-56063940D01*
X117729391Y-56065796D01*
X117740386Y-56069571D01*
X117748533Y-56070930D01*
X117751843Y-56071483D01*
X117761093Y-56075962D01*
X117790939Y-56078435D01*
X117801093Y-56079701D01*
X117924928Y-56100365D01*
X117934942Y-56102465D01*
X117960626Y-56108969D01*
X117974195Y-56108586D01*
X117985665Y-56110500D01*
X117985667Y-56110500D01*
X117997298Y-56110500D01*
X118007169Y-56113398D01*
X118037029Y-56110924D01*
X118047270Y-56110500D01*
X118172730Y-56110500D01*
X118182971Y-56110924D01*
X118209372Y-56113111D01*
X118222702Y-56110500D01*
X118234333Y-56110500D01*
X118234335Y-56110500D01*
X118245804Y-56108586D01*
X118256015Y-56109820D01*
X118285054Y-56102466D01*
X118295070Y-56100365D01*
X118418909Y-56079700D01*
X118429061Y-56078435D01*
X118455454Y-56076248D01*
X118468156Y-56071483D01*
X118470214Y-56071139D01*
X118479614Y-56069571D01*
X118490604Y-56065797D01*
X118500879Y-56065333D01*
X118528313Y-56053300D01*
X118537853Y-56049577D01*
X118656570Y-56008821D01*
X118666390Y-56005898D01*
X118692069Y-55999395D01*
X118703816Y-55992601D01*
X118714810Y-55988828D01*
X118725028Y-55983297D01*
X118735086Y-55981149D01*
X118760166Y-55964763D01*
X118768946Y-55959530D01*
X118879356Y-55899780D01*
X118888551Y-55895285D01*
X118912809Y-55884644D01*
X118923282Y-55876008D01*
X118933509Y-55870474D01*
X118942679Y-55863336D01*
X118952248Y-55859560D01*
X118974289Y-55839270D01*
X118982103Y-55832651D01*
X119081149Y-55755560D01*
X119089484Y-55749609D01*
X119111665Y-55735117D01*
X119120573Y-55724876D01*
X119120576Y-55724874D01*
X119129744Y-55717738D01*
X119137617Y-55709184D01*
X119146434Y-55703885D01*
X119164837Y-55680242D01*
X119171461Y-55672421D01*
X119256467Y-55580079D01*
X119263704Y-55572843D01*
X119283189Y-55554906D01*
X119290290Y-55543337D01*
X119298164Y-55534785D01*
X119304523Y-55525050D01*
X119312346Y-55518373D01*
X119326605Y-55492027D01*
X119331851Y-55483223D01*
X119359512Y-55440884D01*
X119400495Y-55378155D01*
X119406445Y-55369822D01*
X119422712Y-55348922D01*
X119427814Y-55336339D01*
X119434173Y-55326607D01*
X119438844Y-55315956D01*
X119445462Y-55308082D01*
X119455189Y-55279749D01*
X119458915Y-55270200D01*
X119459755Y-55268286D01*
X119509329Y-55155267D01*
X119513823Y-55146076D01*
X119526430Y-55122780D01*
X119529392Y-55109529D01*
X119534063Y-55098881D01*
X119536916Y-55087614D01*
X119542147Y-55078757D01*
X119547079Y-55049205D01*
X119549175Y-55039205D01*
X119579998Y-54917487D01*
X119582916Y-54907689D01*
X119591514Y-54882642D01*
X119592256Y-54869083D01*
X119595107Y-54857824D01*
X119595108Y-54857821D01*
X119596067Y-54846236D01*
X119599769Y-54836642D01*
X119599770Y-54806688D01*
X119600194Y-54796448D01*
X119610557Y-54671382D01*
X119611824Y-54661212D01*
X119616185Y-54635077D01*
X119614683Y-54621581D01*
X119615643Y-54610000D01*
X119614683Y-54598416D01*
X119616756Y-54588341D01*
X119611824Y-54558785D01*
X119610557Y-54548615D01*
X119600194Y-54423551D01*
X119599770Y-54413311D01*
X119599770Y-54386827D01*
X119596067Y-54373763D01*
X119595108Y-54362179D01*
X119592256Y-54350916D01*
X119592642Y-54340638D01*
X119582915Y-54312305D01*
X119579993Y-54302495D01*
X119549180Y-54180817D01*
X119547080Y-54170798D01*
X119542719Y-54144665D01*
X119536915Y-54132383D01*
X119534063Y-54121119D01*
X119529389Y-54110465D01*
X119528079Y-54100263D01*
X119513818Y-54073911D01*
X119509317Y-54064704D01*
X119458917Y-53949803D01*
X119455191Y-53940255D01*
X119446589Y-53915199D01*
X119438844Y-53904042D01*
X119434172Y-53893390D01*
X119427813Y-53883657D01*
X119424841Y-53873812D01*
X119406440Y-53850170D01*
X119400491Y-53841840D01*
X119331844Y-53736766D01*
X119326608Y-53727978D01*
X119313999Y-53704678D01*
X119304522Y-53694947D01*
X119298164Y-53685215D01*
X119290291Y-53676663D01*
X119285739Y-53667440D01*
X119263696Y-53647148D01*
X119256455Y-53639907D01*
X119171457Y-53547575D01*
X119164842Y-53539764D01*
X119148567Y-53518854D01*
X119137616Y-53510813D01*
X119129747Y-53502265D01*
X119129746Y-53502264D01*
X119129744Y-53502262D01*
X119120569Y-53495121D01*
X119114561Y-53486772D01*
X119089475Y-53470383D01*
X119081140Y-53464432D01*
X118982117Y-53387359D01*
X118974298Y-53380737D01*
X118954802Y-53362790D01*
X118942681Y-53356665D01*
X118933509Y-53349526D01*
X118933508Y-53349525D01*
X118923279Y-53343990D01*
X118915980Y-53336745D01*
X118888540Y-53324709D01*
X118879344Y-53320213D01*
X118768975Y-53260484D01*
X118760176Y-53255241D01*
X118738000Y-53240753D01*
X118725032Y-53236704D01*
X118714810Y-53231172D01*
X118714804Y-53231170D01*
X118703816Y-53227397D01*
X118695422Y-53221452D01*
X118666378Y-53214097D01*
X118656557Y-53211173D01*
X118537872Y-53170428D01*
X118528326Y-53166703D01*
X118504065Y-53156061D01*
X118490609Y-53154203D01*
X118479615Y-53150429D01*
X118468151Y-53148516D01*
X118458894Y-53144033D01*
X118429038Y-53141559D01*
X118418871Y-53140292D01*
X118295098Y-53119639D01*
X118285067Y-53117536D01*
X118259382Y-53111031D01*
X118245808Y-53111414D01*
X118234335Y-53109500D01*
X118222702Y-53109500D01*
X118212830Y-53106601D01*
X118182967Y-53109076D01*
X118172727Y-53109500D01*
X118047273Y-53109500D01*
X118037033Y-53109076D01*
X118010628Y-53106887D01*
X117997298Y-53109500D01*
X117985664Y-53109500D01*
X117974193Y-53111414D01*
X117963978Y-53110179D01*
X117934927Y-53117536D01*
X117924898Y-53119639D01*
X117801129Y-53140292D01*
X117790962Y-53141559D01*
X117764561Y-53143747D01*
X117751849Y-53148515D01*
X117740384Y-53150428D01*
X117729385Y-53154204D01*
X117719115Y-53154667D01*
X117691668Y-53166706D01*
X117682122Y-53170430D01*
X117563445Y-53211172D01*
X117553624Y-53214096D01*
X117527939Y-53220600D01*
X117516184Y-53227397D01*
X117505193Y-53231170D01*
X117494966Y-53236705D01*
X117484906Y-53238853D01*
X117459817Y-53255245D01*
X117451015Y-53260490D01*
X117340670Y-53320206D01*
X117331464Y-53324706D01*
X117307195Y-53335351D01*
X117296722Y-53343989D01*
X117286490Y-53349526D01*
X117277314Y-53356668D01*
X117267743Y-53360443D01*
X117245687Y-53380747D01*
X117237868Y-53387369D01*
X117138865Y-53464426D01*
X117130527Y-53470380D01*
X117108341Y-53484875D01*
X117099431Y-53495121D01*
X117090253Y-53502264D01*
X117082379Y-53510818D01*
X117073562Y-53516115D01*
X117055153Y-53539768D01*
X117048531Y-53547587D01*
X116963556Y-53639895D01*
X116956310Y-53647141D01*
X116936812Y-53665090D01*
X116929711Y-53676659D01*
X116921837Y-53685213D01*
X116915473Y-53694953D01*
X116907649Y-53701629D01*
X116893384Y-53727989D01*
X116888139Y-53736792D01*
X116819520Y-53841821D01*
X116813565Y-53850160D01*
X116797290Y-53871070D01*
X116792187Y-53883657D01*
X116785825Y-53893394D01*
X116781153Y-53904046D01*
X116774532Y-53911922D01*
X116764798Y-53940277D01*
X116761073Y-53949823D01*
X116710686Y-54064695D01*
X116706186Y-54073901D01*
X116693570Y-54097213D01*
X116690610Y-54110465D01*
X116685936Y-54121119D01*
X116683083Y-54132388D01*
X116677849Y-54141246D01*
X116672914Y-54170820D01*
X116670811Y-54180850D01*
X116640012Y-54302471D01*
X116637088Y-54312290D01*
X116628483Y-54337354D01*
X116627745Y-54350912D01*
X116624891Y-54362181D01*
X116623931Y-54373765D01*
X116620228Y-54383357D01*
X116620229Y-54413323D01*
X116619805Y-54423564D01*
X116609443Y-54548604D01*
X116608176Y-54558770D01*
X116603813Y-54584918D01*
X116605317Y-54598412D01*
X116604357Y-54610000D01*
X116605317Y-54621585D01*
X116603243Y-54631662D01*
X114935000Y-54631662D01*
X114935000Y-51986362D01*
X114954685Y-51919323D01*
X114971319Y-51898681D01*
X115398681Y-51471319D01*
X115460004Y-51437834D01*
X115486362Y-51435000D01*
X144303352Y-51435000D01*
X144370391Y-51454685D01*
G37*
%TD.AperFunction*%
%TD*%
M02*
